<?xml version="1.0" encoding="UTF-8" standalone="no"?>
<!-- Created with Inkscape (http://www.inkscape.org/) -->

<svg
   xmlns:dc="http://purl.org/dc/elements/1.1/"
   xmlns:cc="http://creativecommons.org/ns#"
   xmlns:rdf="http://www.w3.org/1999/02/22-rdf-syntax-ns#"
   xmlns:svg="http://www.w3.org/2000/svg"
   xmlns="http://www.w3.org/2000/svg"
   xmlns:xlink="http://www.w3.org/1999/xlink"
   version="1.1"
   width="80"
   height="256"
   id="svg2">
  <defs
     id="defs4">
    <linearGradient
       id="linearGradient4158">
      <stop
         id="stop4160"
         style="stop-color:#01476d;stop-opacity:1"
         offset="0" />
      <stop
         id="stop4162"
         style="stop-color:#7ad0fe;stop-opacity:1"
         offset="1" />
    </linearGradient>
    <linearGradient
       id="linearGradient4109">
      <stop
         id="stop4111"
         style="stop-color:#016fa9;stop-opacity:1"
         offset="0" />
      <stop
         id="stop4113"
         style="stop-color:#7ad0fe;stop-opacity:1"
         offset="1" />
    </linearGradient>
    <linearGradient
       id="linearGradient3274">
      <stop
         id="stop3276"
         style="stop-color:#7ad0fe;stop-opacity:0"
         offset="0" />
      <stop
         id="stop3278"
         style="stop-color:#016fa9;stop-opacity:0.78930819"
         offset="1" />
    </linearGradient>
    <linearGradient
       id="linearGradient3264">
      <stop
         id="stop3266"
         style="stop-color:#016fa9;stop-opacity:1"
         offset="0" />
      <stop
         id="stop3268"
         style="stop-color:#7ad0fe;stop-opacity:1"
         offset="1" />
    </linearGradient>
    <linearGradient
       id="linearGradient4267">
      <stop
         id="stop4269"
         style="stop-color:#7ad0fe;stop-opacity:1"
         offset="0" />
      <stop
         id="stop4271"
         style="stop-color:#016fa9;stop-opacity:1"
         offset="1" />
    </linearGradient>
    <linearGradient
       id="linearGradient4077">
      <stop
         id="stop4079"
         style="stop-color:#004e88;stop-opacity:1"
         offset="0" />
      <stop
         id="stop4081"
         style="stop-color:#005993;stop-opacity:1"
         offset="1" />
    </linearGradient>
    <linearGradient
       id="linearGradient4065">
      <stop
         id="stop4067"
         style="stop-color:#0081d7;stop-opacity:1"
         offset="0" />
      <stop
         id="stop4069"
         style="stop-color:#00325e;stop-opacity:1"
         offset="1" />
    </linearGradient>
    <linearGradient
       id="linearGradient4055">
      <stop
         id="stop4057"
         style="stop-color:#002d51;stop-opacity:1"
         offset="0" />
      <stop
         id="stop4059"
         style="stop-color:#016fa9;stop-opacity:1"
         offset="0.30769232" />
      <stop
         id="stop4061"
         style="stop-color:#81d4ff;stop-opacity:1"
         offset="1" />
    </linearGradient>
    <linearGradient
       id="linearGradient4047">
      <stop
         id="stop4049"
         style="stop-color:#62b5e0;stop-opacity:1"
         offset="0" />
      <stop
         id="stop4051"
         style="stop-color:#00508a;stop-opacity:1"
         offset="0.5704965" />
      <stop
         id="stop4053"
         style="stop-color:#002d51;stop-opacity:1"
         offset="1" />
    </linearGradient>
    <linearGradient
       id="linearGradient4029">
      <stop
         id="stop4031"
         style="stop-color:#9ef1ff;stop-opacity:1"
         offset="0" />
      <stop
         id="stop4035"
         style="stop-color:#1e8cc6;stop-opacity:1"
         offset="0.5704965" />
      <stop
         id="stop4033"
         style="stop-color:#1d6084;stop-opacity:1"
         offset="1" />
    </linearGradient>
    <linearGradient
       id="linearGradient4021">
      <stop
         id="stop4023"
         style="stop-color:#004367;stop-opacity:1"
         offset="0" />
      <stop
         id="stop4027"
         style="stop-color:#016fa9;stop-opacity:1"
         offset="0.30769232" />
      <stop
         id="stop4025"
         style="stop-color:#81d4ff;stop-opacity:1"
         offset="1" />
    </linearGradient>
    <linearGradient
       id="linearGradient3951">
      <stop
         id="stop3953"
         style="stop-color:#004e88;stop-opacity:1"
         offset="0" />
      <stop
         id="stop3955"
         style="stop-color:#004e88;stop-opacity:0"
         offset="1" />
    </linearGradient>
    <clipPath
       id="clipPath3864">
      <rect
         width="80"
         height="74"
         x="0"
         y="0"
         id="rect3866"
         style="fill:#000000;fill-opacity:1;stroke:none" />
    </clipPath>
    <clipPath
       id="clipPath3868">
      <rect
         width="80"
         height="74"
         x="0"
         y="0"
         id="rect3870"
         style="fill:#000000;fill-opacity:1;stroke:none" />
    </clipPath>
    <clipPath
       id="clipPath3872">
      <rect
         width="80"
         height="74"
         x="0"
         y="0"
         id="rect3874"
         style="fill:#000000;fill-opacity:1;stroke:none" />
    </clipPath>
    <clipPath
       id="clipPath3876">
      <rect
         width="80"
         height="74"
         x="0"
         y="0"
         id="rect3878"
         style="fill:#000000;fill-opacity:1;stroke:none" />
    </clipPath>
    <clipPath
       id="clipPath3880">
      <rect
         width="80"
         height="74"
         x="0"
         y="0"
         id="rect3882"
         style="fill:#000000;fill-opacity:1;stroke:none" />
    </clipPath>
    <linearGradient
       x1="40"
       y1="172"
       x2="40"
       y2="175"
       id="linearGradient3957"
       xlink:href="#linearGradient3951"
       gradientUnits="userSpaceOnUse" />
    <linearGradient
       x1="40"
       y1="172"
       x2="40"
       y2="175"
       id="linearGradient3957-1"
       xlink:href="#linearGradient3951-7"
       gradientUnits="userSpaceOnUse" />
    <linearGradient
       id="linearGradient3951-7">
      <stop
         id="stop3953-4"
         style="stop-color:#004e88;stop-opacity:1"
         offset="0" />
      <stop
         id="stop3955-0"
         style="stop-color:#004e88;stop-opacity:0"
         offset="1" />
    </linearGradient>
    <linearGradient
       x1="40"
       y1="172"
       x2="40"
       y2="175"
       id="linearGradient3974"
       xlink:href="#linearGradient3951-7"
       gradientUnits="userSpaceOnUse"
       gradientTransform="translate(-8e-7,-100)" />
    <linearGradient
       x1="-66"
       y1="182"
       x2="-79"
       y2="182"
       id="linearGradient4017"
       xlink:href="#linearGradient4021"
       gradientUnits="userSpaceOnUse" />
    <linearGradient
       x1="-79"
       y1="180"
       x2="-66"
       y2="180"
       id="linearGradient4019"
       xlink:href="#linearGradient4029"
       gradientUnits="userSpaceOnUse" />
    <linearGradient
       x1="-66"
       y1="182"
       x2="-79"
       y2="182"
       id="linearGradient4043"
       xlink:href="#linearGradient4055"
       gradientUnits="userSpaceOnUse" />
    <linearGradient
       x1="-79"
       y1="180"
       x2="-66"
       y2="180"
       id="linearGradient4045"
       xlink:href="#linearGradient4047"
       gradientUnits="userSpaceOnUse" />
    <linearGradient
       x1="-75"
       y1="178"
       x2="-70"
       y2="178"
       id="linearGradient4090"
       xlink:href="#linearGradient4065"
       gradientUnits="userSpaceOnUse"
       gradientTransform="translate(7,0)" />
    <linearGradient
       x1="-73.333336"
       y1="177"
       x2="-73.333336"
       y2="179"
       id="linearGradient4092"
       xlink:href="#linearGradient4077"
       gradientUnits="userSpaceOnUse"
       gradientTransform="matrix(0.6,0,0,1,-22,0)" />
    <linearGradient
       x1="-66"
       y1="182"
       x2="-79"
       y2="182"
       id="linearGradient4125"
       xlink:href="#linearGradient4055"
       gradientUnits="userSpaceOnUse" />
    <linearGradient
       x1="-79"
       y1="180"
       x2="-66"
       y2="180"
       id="linearGradient4127"
       xlink:href="#linearGradient4047"
       gradientUnits="userSpaceOnUse" />
    <linearGradient
       x1="-66"
       y1="182"
       x2="-79"
       y2="182"
       id="linearGradient4129"
       xlink:href="#linearGradient4021"
       gradientUnits="userSpaceOnUse" />
    <linearGradient
       x1="-79"
       y1="180"
       x2="-66"
       y2="180"
       id="linearGradient4131"
       xlink:href="#linearGradient4029"
       gradientUnits="userSpaceOnUse" />
    <linearGradient
       x1="-75"
       y1="178"
       x2="-70"
       y2="178"
       id="linearGradient4133"
       xlink:href="#linearGradient4065"
       gradientUnits="userSpaceOnUse"
       gradientTransform="translate(7,0)" />
    <linearGradient
       x1="-73.333336"
       y1="177"
       x2="-73.333336"
       y2="179"
       id="linearGradient4135"
       xlink:href="#linearGradient4077"
       gradientUnits="userSpaceOnUse"
       gradientTransform="matrix(0.6,0,0,1,-22,0)" />
    <linearGradient
       x1="-66"
       y1="182"
       x2="-79"
       y2="182"
       id="linearGradient4157"
       xlink:href="#linearGradient4055"
       gradientUnits="userSpaceOnUse" />
    <linearGradient
       x1="-79"
       y1="180"
       x2="-66"
       y2="180"
       id="linearGradient4159"
       xlink:href="#linearGradient4047"
       gradientUnits="userSpaceOnUse" />
    <linearGradient
       x1="-66"
       y1="182"
       x2="-79"
       y2="182"
       id="linearGradient4161"
       xlink:href="#linearGradient4021"
       gradientUnits="userSpaceOnUse" />
    <linearGradient
       x1="-79"
       y1="180"
       x2="-66"
       y2="180"
       id="linearGradient4163"
       xlink:href="#linearGradient4029"
       gradientUnits="userSpaceOnUse" />
    <linearGradient
       x1="-75"
       y1="178"
       x2="-70"
       y2="178"
       id="linearGradient4165"
       xlink:href="#linearGradient4065"
       gradientUnits="userSpaceOnUse"
       gradientTransform="translate(7,0)" />
    <linearGradient
       x1="-73.333336"
       y1="177"
       x2="-73.333336"
       y2="179"
       id="linearGradient4167"
       xlink:href="#linearGradient4077"
       gradientUnits="userSpaceOnUse"
       gradientTransform="matrix(0.6,0,0,1,-22,0)" />
    <linearGradient
       x1="-66"
       y1="182"
       x2="-79"
       y2="182"
       id="linearGradient4229"
       xlink:href="#linearGradient4055"
       gradientUnits="userSpaceOnUse" />
    <linearGradient
       x1="-79"
       y1="180"
       x2="-66"
       y2="180"
       id="linearGradient4231"
       xlink:href="#linearGradient4047"
       gradientUnits="userSpaceOnUse" />
    <linearGradient
       x1="-66"
       y1="182"
       x2="-79"
       y2="182"
       id="linearGradient4233"
       xlink:href="#linearGradient4021"
       gradientUnits="userSpaceOnUse" />
    <linearGradient
       x1="-79"
       y1="180"
       x2="-66"
       y2="180"
       id="linearGradient4235"
       xlink:href="#linearGradient4029"
       gradientUnits="userSpaceOnUse" />
    <linearGradient
       x1="-75"
       y1="178"
       x2="-70"
       y2="178"
       id="linearGradient4237"
       xlink:href="#linearGradient4065"
       gradientUnits="userSpaceOnUse"
       gradientTransform="translate(7,0)" />
    <linearGradient
       x1="-73.333336"
       y1="177"
       x2="-73.333336"
       y2="179"
       id="linearGradient4239"
       xlink:href="#linearGradient4077"
       gradientUnits="userSpaceOnUse"
       gradientTransform="matrix(0.6,0,0,1,-22,0)" />
    <linearGradient
       x1="-66"
       y1="182"
       x2="-79"
       y2="182"
       id="linearGradient4241"
       xlink:href="#linearGradient4055"
       gradientUnits="userSpaceOnUse" />
    <linearGradient
       x1="-79"
       y1="180"
       x2="-66"
       y2="180"
       id="linearGradient4243"
       xlink:href="#linearGradient4047"
       gradientUnits="userSpaceOnUse" />
    <linearGradient
       x1="-66"
       y1="182"
       x2="-79"
       y2="182"
       id="linearGradient4245"
       xlink:href="#linearGradient4021"
       gradientUnits="userSpaceOnUse" />
    <linearGradient
       x1="-79"
       y1="180"
       x2="-66"
       y2="180"
       id="linearGradient4247"
       xlink:href="#linearGradient4029"
       gradientUnits="userSpaceOnUse" />
    <linearGradient
       x1="-75"
       y1="178"
       x2="-70"
       y2="178"
       id="linearGradient4249"
       xlink:href="#linearGradient4065"
       gradientUnits="userSpaceOnUse"
       gradientTransform="translate(7,0)" />
    <linearGradient
       x1="-73.333336"
       y1="177"
       x2="-73.333336"
       y2="179"
       id="linearGradient4251"
       xlink:href="#linearGradient4077"
       gradientUnits="userSpaceOnUse"
       gradientTransform="matrix(0.6,0,0,1,-22,0)" />
    <linearGradient
       x1="-66"
       y1="182"
       x2="-79"
       y2="182"
       id="linearGradient4253"
       xlink:href="#linearGradient4055"
       gradientUnits="userSpaceOnUse" />
    <linearGradient
       x1="-79"
       y1="180"
       x2="-66"
       y2="180"
       id="linearGradient4255"
       xlink:href="#linearGradient4047"
       gradientUnits="userSpaceOnUse" />
    <linearGradient
       x1="-66"
       y1="182"
       x2="-79"
       y2="182"
       id="linearGradient4257"
       xlink:href="#linearGradient4021"
       gradientUnits="userSpaceOnUse" />
    <linearGradient
       x1="-79"
       y1="180"
       x2="-66"
       y2="180"
       id="linearGradient4259"
       xlink:href="#linearGradient4029"
       gradientUnits="userSpaceOnUse" />
    <linearGradient
       x1="-75"
       y1="178"
       x2="-70"
       y2="178"
       id="linearGradient4261"
       xlink:href="#linearGradient4065"
       gradientUnits="userSpaceOnUse"
       gradientTransform="translate(7,0)" />
    <linearGradient
       x1="-73.333336"
       y1="177"
       x2="-73.333336"
       y2="179"
       id="linearGradient4263"
       xlink:href="#linearGradient4077"
       gradientUnits="userSpaceOnUse"
       gradientTransform="matrix(0.6,0,0,1,-22,0)" />
    <linearGradient
       x1="-81"
       y1="241"
       x2="-79"
       y2="243"
       id="linearGradient4283"
       xlink:href="#linearGradient4267"
       gradientUnits="userSpaceOnUse" />
    <linearGradient
       x1="-81"
       y1="241"
       x2="-79"
       y2="243"
       id="linearGradient4291"
       xlink:href="#linearGradient4267"
       gradientUnits="userSpaceOnUse" />
    <linearGradient
       x1="-81"
       y1="241"
       x2="-79"
       y2="243"
       id="linearGradient4299"
       xlink:href="#linearGradient4267"
       gradientUnits="userSpaceOnUse" />
    <linearGradient
       x1="-81"
       y1="241"
       x2="-79"
       y2="243"
       id="linearGradient4307"
       xlink:href="#linearGradient4267"
       gradientUnits="userSpaceOnUse" />
    <linearGradient
       x1="-81"
       y1="241"
       x2="-79"
       y2="243"
       id="linearGradient4315"
       xlink:href="#linearGradient4267"
       gradientUnits="userSpaceOnUse" />
    <linearGradient
       x1="-81"
       y1="241"
       x2="-79"
       y2="243"
       id="linearGradient4323"
       xlink:href="#linearGradient4267"
       gradientUnits="userSpaceOnUse" />
    <linearGradient
       x1="-81"
       y1="241"
       x2="-79"
       y2="243"
       id="linearGradient4331"
       xlink:href="#linearGradient4267"
       gradientUnits="userSpaceOnUse" />
    <linearGradient
       x1="-81"
       y1="241"
       x2="-79"
       y2="243"
       id="linearGradient4339"
       xlink:href="#linearGradient4267"
       gradientUnits="userSpaceOnUse" />
    <linearGradient
       x1="-81"
       y1="241"
       x2="-79"
       y2="243"
       id="linearGradient4347"
       xlink:href="#linearGradient4267"
       gradientUnits="userSpaceOnUse" />
    <linearGradient
       x1="-81"
       y1="241"
       x2="-79"
       y2="243"
       id="linearGradient4355"
       xlink:href="#linearGradient4267"
       gradientUnits="userSpaceOnUse" />
    <linearGradient
       x1="-81"
       y1="241"
       x2="-79"
       y2="243"
       id="linearGradient4363"
       xlink:href="#linearGradient4267"
       gradientUnits="userSpaceOnUse" />
    <linearGradient
       x1="-81"
       y1="241"
       x2="-79"
       y2="243"
       id="linearGradient4371"
       xlink:href="#linearGradient4267"
       gradientUnits="userSpaceOnUse" />
    <linearGradient
       x1="14"
       y1="121"
       x2="14"
       y2="123"
       id="linearGradient3270"
       xlink:href="#linearGradient3264"
       gradientUnits="userSpaceOnUse" />
    <linearGradient
       x1="11"
       y1="123"
       x2="9"
       y2="123"
       id="linearGradient3280"
       xlink:href="#linearGradient3274"
       gradientUnits="userSpaceOnUse" />
    <linearGradient
       x1="14"
       y1="121"
       x2="14"
       y2="123"
       id="linearGradient4060"
       xlink:href="#linearGradient3264"
       gradientUnits="userSpaceOnUse" />
    <linearGradient
       x1="11"
       y1="123"
       x2="9"
       y2="123"
       id="linearGradient4062"
       xlink:href="#linearGradient3274"
       gradientUnits="userSpaceOnUse" />
    <linearGradient
       x1="14"
       y1="121"
       x2="14"
       y2="123"
       id="linearGradient4070"
       xlink:href="#linearGradient3264"
       gradientUnits="userSpaceOnUse" />
    <linearGradient
       x1="11"
       y1="123"
       x2="9"
       y2="123"
       id="linearGradient4072"
       xlink:href="#linearGradient3274"
       gradientUnits="userSpaceOnUse" />
    <linearGradient
       x1="14"
       y1="121"
       x2="14"
       y2="123"
       id="linearGradient4080"
       xlink:href="#linearGradient3264"
       gradientUnits="userSpaceOnUse" />
    <linearGradient
       x1="11"
       y1="123"
       x2="9"
       y2="123"
       id="linearGradient4082"
       xlink:href="#linearGradient3274"
       gradientUnits="userSpaceOnUse" />
    <linearGradient
       x1="14"
       y1="121"
       x2="14"
       y2="123"
       id="linearGradient4091"
       xlink:href="#linearGradient3264"
       gradientUnits="userSpaceOnUse" />
    <linearGradient
       x1="11"
       y1="123"
       x2="9"
       y2="123"
       id="linearGradient4093"
       xlink:href="#linearGradient3274"
       gradientUnits="userSpaceOnUse" />
    <linearGradient
       x1="14"
       y1="121"
       x2="14"
       y2="123"
       id="linearGradient4101"
       xlink:href="#linearGradient3264"
       gradientUnits="userSpaceOnUse" />
    <linearGradient
       x1="11"
       y1="123"
       x2="9"
       y2="123"
       id="linearGradient4103"
       xlink:href="#linearGradient3274"
       gradientUnits="userSpaceOnUse" />
    <linearGradient
       x1="29"
       y1="143"
       x2="20"
       y2="133"
       id="linearGradient4115"
       xlink:href="#linearGradient4109"
       gradientUnits="userSpaceOnUse"
       gradientTransform="translate(-11,0)" />
    <linearGradient
       x1="29"
       y1="143"
       x2="20"
       y2="133"
       id="linearGradient4134"
       xlink:href="#linearGradient4109"
       gradientUnits="userSpaceOnUse"
       gradientTransform="translate(-11,0)" />
    <linearGradient
       x1="29"
       y1="143"
       x2="20"
       y2="133"
       id="linearGradient4144"
       xlink:href="#linearGradient4109"
       gradientUnits="userSpaceOnUse"
       gradientTransform="translate(-11,0)" />
    <linearGradient
       x1="29"
       y1="143"
       x2="20"
       y2="133"
       id="linearGradient4154"
       xlink:href="#linearGradient4109"
       gradientUnits="userSpaceOnUse"
       gradientTransform="translate(-11,0)" />
    <linearGradient
       x1="75"
       y1="71"
       x2="5"
       y2="9"
       id="linearGradient4164"
       xlink:href="#linearGradient4158"
       gradientUnits="userSpaceOnUse" />
    <linearGradient
       x1="75"
       y1="71"
       x2="5"
       y2="9"
       id="linearGradient4170"
       xlink:href="#linearGradient4158"
       gradientUnits="userSpaceOnUse"
       gradientTransform="matrix(1,0,0,1.3968254,-1.9e-7,71.428556)" />
    <linearGradient
       x1="75"
       y1="71"
       x2="5"
       y2="9"
       id="linearGradient4180"
       xlink:href="#linearGradient4158"
       gradientUnits="userSpaceOnUse"
       gradientTransform="translate(-9.5135498e-8,175)" />
  </defs>
  <metadata
     id="metadata7">
    <rdf:RDF>
      <cc:Work
         rdf:about="">
        <dc:format>image/svg+xml</dc:format>
        <dc:type
           rdf:resource="http://purl.org/dc/dcmitype/StillImage" />
        <dc:title></dc:title>
      </cc:Work>
    </rdf:RDF>
  </metadata>
  <g
     id="layer3"
     style="display:inline">
    <rect
       width="67"
       height="62"
       x="-83"
       y="185"
       id="rect4002"
       style="fill:#000000;fill-opacity:0;stroke:none" />
  </g>
  <g
     id="g3819">
    <rect
       width="7"
       height="15"
       x="86"
       y="231"
       id="rect4006"
       style="fill:none;stroke:none;display:inline" />
    <rect
       width="80"
       height="256"
       x="0"
       y="0"
       id="rect3786"
       style="fill:#ffff00;fill-opacity:1;fill-rule:evenodd;stroke:none" />
    <path
       d="m 1,256 -1,-1 0,-7 8,8 z"
       id="path3788"
       style="fill:#000000;fill-opacity:1;stroke:none" />
    <path
       d="M 17,256 0,239 0,231 25,256 z"
       id="path3790"
       style="fill:#000000;fill-opacity:1;stroke:none" />
    <path
       d="M 33,256 0,223 0,215 41,256 z"
       id="path3792"
       style="fill:#000000;fill-opacity:1;stroke:none" />
    <path
       d="m 57,256 -8,0 -49,-49 0,-8 z"
       id="path3794"
       style="fill:#000000;fill-opacity:1;stroke:none" />
    <path
       d="m 73,256 -8,0 -65,-65 0,-8 z"
       id="path3796"
       style="fill:#000000;fill-opacity:1;stroke:none" />
    <path
       d="M 80,255 0,175 0,167 80,247 z"
       id="path3798"
       style="fill:#000000;fill-opacity:1;stroke:none" />
    <path
       d="M 80,239 0,159 0,151 80,231 z"
       id="path3800"
       style="fill:#000000;fill-opacity:1;stroke:none" />
    <path
       d="M 80,223 0,143 0,135 80,215 z"
       id="path3802"
       style="fill:#000000;fill-opacity:1;stroke:none" />
    <path
       d="M 80,207 0,127 0,119 80,199 z"
       id="path3804"
       style="fill:#000000;fill-opacity:1;stroke:none" />
    <path
       d="M 80,191 0,111 0,103 80,183 z"
       id="path3806"
       style="fill:#000000;fill-opacity:1;stroke:none" />
    <path
       d="M 80,175 0,95 0,87 80,167 z"
       id="path3808"
       style="fill:#000000;fill-opacity:1;stroke:none" />
    <path
       d="M 80,159 0,79 0,71 80,151 z"
       id="path3810"
       style="fill:#000000;fill-opacity:1;stroke:none" />
    <path
       d="M 80,143 0,63 0,55 80,135 z"
       id="path3812"
       style="fill:#000000;fill-opacity:1;stroke:none" />
    <path
       d="M 80,127 0,47 0,39 80,119 z"
       id="path3814"
       style="fill:#000000;fill-opacity:1;stroke:none" />
    <path
       d="M 80,111 0,31 0,23 80,103 z"
       id="path3816"
       style="fill:#000000;fill-opacity:1;stroke:none" />
    <path
       d="M 80,95 0,15 0,7 80,87 z"
       id="path3818"
       style="fill:#000000;fill-opacity:1;stroke:none" />
    <path
       d="M 80,63 0,-17 0,-25 80,55 z"
       clip-path="url(#clipPath3876)"
       id="path3822"
       style="fill:#000000;fill-opacity:1;stroke:none" />
    <path
       d="M 80,47 0,-33 0,-41 80,39 z"
       clip-path="url(#clipPath3872)"
       id="path3824"
       style="fill:#000000;fill-opacity:1;stroke:none" />
    <path
       d="M 80,31 0,-49 0,-57 80,23 z"
       clip-path="url(#clipPath3868)"
       id="path3826"
       style="fill:#000000;fill-opacity:1;stroke:none" />
    <path
       d="M 80,15 0,-65 0,-73 80,7 z"
       clip-path="url(#clipPath3864)"
       id="path3828"
       style="fill:#000000;fill-opacity:1;stroke:none" />
    <path
       d="M 80,79 1,0 9,0 80,71 z"
       id="path3884"
       style="fill:#000000;fill-opacity:1;stroke:none" />
  </g>
  <rect
     width="72"
     height="240"
     x="4"
     y="8"
     id="rect3886"
     style="fill:#016fa9;fill-opacity:1;stroke:none" />
  <rect
     width="70"
     height="63"
     x="5"
     y="184"
     id="rect4178"
     style="fill:url(#linearGradient4180);fill-opacity:1;stroke:none" />
  <rect
     width="67"
     height="62"
     x="-83"
     y="185"
     id="rect4000"
     style="fill:#000000;fill-opacity:0;stroke:none" />
  <rect
     width="66"
     height="59"
     x="7"
     y="186"
     id="rect3867"
     style="fill:#0aa6fe;fill-opacity:1;stroke:none" />
  <rect
     width="70"
     height="88"
     x="5"
     y="84"
     id="rect4168"
     style="fill:url(#linearGradient4170);fill-opacity:1;stroke:none" />
  <rect
     width="66"
     height="84"
     x="7"
     y="86"
     id="rect3937"
     style="fill:#0aa6fe;fill-opacity:1;stroke:none" />
  <path
     d="m 6,172 68,0 -3,3 -62,0 z"
     id="path3949"
     style="fill:url(#linearGradient3957);fill-opacity:1;stroke:none" />
  <path
     d="M 5.9999992,72 74,72 71,75 8.999999,75 z"
     id="path3949-9"
     style="fill:url(#linearGradient3974);fill-opacity:1;stroke:none" />
  <g
     id="g4094">
    <g
       transform="matrix(1,0,0,-1,90,356)"
       id="g4037">
      <rect
         width="13"
         height="4"
         x="-79"
         y="180"
         id="rect4039"
         style="fill:url(#linearGradient4043);fill-opacity:1;stroke:none" />
      <rect
         width="13"
         height="1"
         x="-79"
         y="179"
         id="rect4041"
         style="fill:url(#linearGradient4045);fill-opacity:1;stroke:none" />
    </g>
    <g
       transform="translate(90,0)"
       id="g4013">
      <rect
         width="13"
         height="4"
         x="-79"
         y="180"
         id="rect3993"
         style="fill:url(#linearGradient4017);fill-opacity:1;stroke:none" />
      <rect
         width="13"
         height="1"
         x="-79"
         y="179"
         id="rect4003"
         style="fill:url(#linearGradient4019);fill-opacity:1;stroke:none" />
    </g>
    <g
       transform="translate(83,0)"
       id="g4086">
      <rect
         width="5"
         height="2"
         x="-68"
         y="177"
         id="rect4063"
         style="fill:url(#linearGradient4090);fill-opacity:1;stroke:none" />
      <rect
         width="3"
         height="2"
         x="-67"
         y="177"
         id="rect4073"
         style="fill:url(#linearGradient4092);fill-opacity:1;stroke:none" />
    </g>
  </g>
  <g
     transform="translate(23,0)"
     id="g4105">
    <g
       transform="matrix(1,0,0,-1,90,356)"
       id="g4107">
      <rect
         width="13"
         height="4"
         x="-79"
         y="180"
         id="rect4109"
         style="fill:url(#linearGradient4125);fill-opacity:1;stroke:none" />
      <rect
         width="13"
         height="1"
         x="-79"
         y="179"
         id="rect4111"
         style="fill:url(#linearGradient4127);fill-opacity:1;stroke:none" />
    </g>
    <g
       transform="translate(90,0)"
       id="g4113">
      <rect
         width="13"
         height="4"
         x="-79"
         y="180"
         id="rect4115"
         style="fill:url(#linearGradient4129);fill-opacity:1;stroke:none" />
      <rect
         width="13"
         height="1"
         x="-79"
         y="179"
         id="rect4117"
         style="fill:url(#linearGradient4131);fill-opacity:1;stroke:none" />
    </g>
    <g
       transform="translate(83,0)"
       id="g4119">
      <rect
         width="5"
         height="2"
         x="-68"
         y="177"
         id="rect4121"
         style="fill:url(#linearGradient4133);fill-opacity:1;stroke:none" />
      <rect
         width="3"
         height="2"
         x="-67"
         y="177"
         id="rect4123"
         style="fill:url(#linearGradient4135);fill-opacity:1;stroke:none" />
    </g>
  </g>
  <g
     transform="translate(45,0)"
     id="g4137">
    <g
       transform="matrix(1,0,0,-1,90,356)"
       id="g4139">
      <rect
         width="13"
         height="4"
         x="-79"
         y="180"
         id="rect4141"
         style="fill:url(#linearGradient4157);fill-opacity:1;stroke:none" />
      <rect
         width="13"
         height="1"
         x="-79"
         y="179"
         id="rect4143"
         style="fill:url(#linearGradient4159);fill-opacity:1;stroke:none" />
    </g>
    <g
       transform="translate(90,0)"
       id="g4145">
      <rect
         width="13"
         height="4"
         x="-79"
         y="180"
         id="rect4147"
         style="fill:url(#linearGradient4161);fill-opacity:1;stroke:none" />
      <rect
         width="13"
         height="1"
         x="-79"
         y="179"
         id="rect4149"
         style="fill:url(#linearGradient4163);fill-opacity:1;stroke:none" />
    </g>
    <g
       transform="translate(83,0)"
       id="g4151">
      <rect
         width="5"
         height="2"
         x="-68"
         y="177"
         id="rect4153"
         style="fill:url(#linearGradient4165);fill-opacity:1;stroke:none" />
      <rect
         width="3"
         height="2"
         x="-67"
         y="177"
         id="rect4155"
         style="fill:url(#linearGradient4167);fill-opacity:1;stroke:none" />
    </g>
  </g>
  <g
     transform="translate(1e-7,-100)"
     id="g4169">
    <g
       transform="matrix(1,0,0,-1,90,356)"
       id="g4171">
      <rect
         width="13"
         height="4"
         x="-79"
         y="180"
         id="rect4173"
         style="fill:url(#linearGradient4229);fill-opacity:1;stroke:none" />
      <rect
         width="13"
         height="1"
         x="-79"
         y="179"
         id="rect4175"
         style="fill:url(#linearGradient4231);fill-opacity:1;stroke:none" />
    </g>
    <g
       transform="translate(90,0)"
       id="g4177">
      <rect
         width="13"
         height="4"
         x="-79"
         y="180"
         id="rect4179"
         style="fill:url(#linearGradient4233);fill-opacity:1;stroke:none" />
      <rect
         width="13"
         height="1"
         x="-79"
         y="179"
         id="rect4181"
         style="fill:url(#linearGradient4235);fill-opacity:1;stroke:none" />
    </g>
    <g
       transform="translate(83,0)"
       id="g4183">
      <rect
         width="5"
         height="2"
         x="-68"
         y="177"
         id="rect4185"
         style="fill:url(#linearGradient4237);fill-opacity:1;stroke:none" />
      <rect
         width="3"
         height="2"
         x="-67"
         y="177"
         id="rect4187"
         style="fill:url(#linearGradient4239);fill-opacity:1;stroke:none" />
    </g>
  </g>
  <g
     transform="translate(23,-100)"
     id="g4189">
    <g
       transform="matrix(1,0,0,-1,90,356)"
       id="g4191">
      <rect
         width="13"
         height="4"
         x="-79"
         y="180"
         id="rect4193"
         style="fill:url(#linearGradient4241);fill-opacity:1;stroke:none" />
      <rect
         width="13"
         height="1"
         x="-79"
         y="179"
         id="rect4195"
         style="fill:url(#linearGradient4243);fill-opacity:1;stroke:none" />
    </g>
    <g
       transform="translate(90,0)"
       id="g4197">
      <rect
         width="13"
         height="4"
         x="-79"
         y="180"
         id="rect4199"
         style="fill:url(#linearGradient4245);fill-opacity:1;stroke:none" />
      <rect
         width="13"
         height="1"
         x="-79"
         y="179"
         id="rect4201"
         style="fill:url(#linearGradient4247);fill-opacity:1;stroke:none" />
    </g>
    <g
       transform="translate(83,0)"
       id="g4203">
      <rect
         width="5"
         height="2"
         x="-68"
         y="177"
         id="rect4205"
         style="fill:url(#linearGradient4249);fill-opacity:1;stroke:none" />
      <rect
         width="3"
         height="2"
         x="-67"
         y="177"
         id="rect4207"
         style="fill:url(#linearGradient4251);fill-opacity:1;stroke:none" />
    </g>
  </g>
  <rect
     width="70"
     height="63"
     x="5"
     y="9"
     id="rect4156"
     style="fill:url(#linearGradient4164);fill-opacity:1;stroke:none" />
  <g
     transform="translate(45,-100)"
     id="g4209">
    <g
       transform="matrix(1,0,0,-1,90,356)"
       id="g4211">
      <rect
         width="13"
         height="4"
         x="-79"
         y="180"
         id="rect4213"
         style="fill:url(#linearGradient4253);fill-opacity:1;stroke:none" />
      <rect
         width="13"
         height="1"
         x="-79"
         y="179"
         id="rect4215"
         style="fill:url(#linearGradient4255);fill-opacity:1;stroke:none" />
    </g>
    <g
       transform="translate(90,0)"
       id="g4217">
      <rect
         width="13"
         height="4"
         x="-79"
         y="180"
         id="rect4219"
         style="fill:url(#linearGradient4257);fill-opacity:1;stroke:none" />
      <rect
         width="13"
         height="1"
         x="-79"
         y="179"
         id="rect4221"
         style="fill:url(#linearGradient4259);fill-opacity:1;stroke:none" />
    </g>
    <g
       transform="translate(83,0)"
       id="g4223">
      <rect
         width="5"
         height="2"
         x="-68"
         y="177"
         id="rect4225"
         style="fill:url(#linearGradient4261);fill-opacity:1;stroke:none" />
      <rect
         width="3"
         height="2"
         x="-67"
         y="177"
         id="rect4227"
         style="fill:url(#linearGradient4263);fill-opacity:1;stroke:none" />
    </g>
  </g>
  <g
     transform="translate(85,0)"
     id="g4279">
    <path
       d="m -78,242 a 2,2 0 1 1 -4,0 2,2 0 1 1 4,0 z"
       transform="translate(5,0)"
       id="path4265"
       style="fill:url(#linearGradient4283);fill-opacity:1;stroke:none" />
    <path
       d="m -78,242 a 2,2 0 1 1 -4,0 2,2 0 1 1 4,0 z"
       transform="matrix(0.5,0,0,0.5,-35,121)"
       id="path4275"
       style="fill:#0090e2;fill-opacity:1;stroke:none" />
  </g>
  <g
     transform="translate(145,0)"
     id="g4285">
    <path
       d="m -78,242 a 2,2 0 1 1 -4,0 2,2 0 1 1 4,0 z"
       transform="translate(5,0)"
       id="path4287"
       style="fill:url(#linearGradient4291);fill-opacity:1;stroke:none" />
    <path
       d="m -78,242 a 2,2 0 1 1 -4,0 2,2 0 1 1 4,0 z"
       transform="matrix(0.5,0,0,0.5,-35,121)"
       id="path4289"
       style="fill:#0090e2;fill-opacity:1;stroke:none" />
  </g>
  <g
     transform="translate(145,-53)"
     id="g4293">
    <path
       d="m -78,242 a 2,2 0 1 1 -4,0 2,2 0 1 1 4,0 z"
       transform="translate(5,0)"
       id="path4295"
       style="fill:url(#linearGradient4299);fill-opacity:1;stroke:none" />
    <path
       d="m -78,242 a 2,2 0 1 1 -4,0 2,2 0 1 1 4,0 z"
       transform="matrix(0.5,0,0,0.5,-35,121)"
       id="path4297"
       style="fill:#0090e2;fill-opacity:1;stroke:none" />
  </g>
  <g
     transform="translate(85,-53)"
     id="g4301">
    <path
       d="m -78,242 a 2,2 0 1 1 -4,0 2,2 0 1 1 4,0 z"
       transform="translate(5,0)"
       id="path4303"
       style="fill:url(#linearGradient4307);fill-opacity:1;stroke:none" />
    <path
       d="m -78,242 a 2,2 0 1 1 -4,0 2,2 0 1 1 4,0 z"
       transform="matrix(0.5,0,0,0.5,-35,121)"
       id="path4305"
       style="fill:#0090e2;fill-opacity:1;stroke:none" />
  </g>
  <g
     transform="translate(85,-75)"
     id="g4309">
    <path
       d="m -78,242 a 2,2 0 1 1 -4,0 2,2 0 1 1 4,0 z"
       transform="translate(5,0)"
       id="path4311"
       style="fill:url(#linearGradient4315);fill-opacity:1;stroke:none" />
    <path
       d="m -78,242 a 2,2 0 1 1 -4,0 2,2 0 1 1 4,0 z"
       transform="matrix(0.5,0,0,0.5,-35,121)"
       id="path4313"
       style="fill:#0090e2;fill-opacity:1;stroke:none" />
  </g>
  <g
     transform="translate(145,-75)"
     id="g4317">
    <path
       d="m -78,242 a 2,2 0 1 1 -4,0 2,2 0 1 1 4,0 z"
       transform="translate(5,0)"
       id="path4319"
       style="fill:url(#linearGradient4323);fill-opacity:1;stroke:none" />
    <path
       d="m -78,242 a 2,2 0 1 1 -4,0 2,2 0 1 1 4,0 z"
       transform="matrix(0.5,0,0,0.5,-35,121)"
       id="path4321"
       style="fill:#0090e2;fill-opacity:1;stroke:none" />
  </g>
  <g
     transform="translate(145,-153)"
     id="g4325">
    <path
       d="m -78,242 a 2,2 0 1 1 -4,0 2,2 0 1 1 4,0 z"
       transform="translate(5,0)"
       id="path4327"
       style="fill:url(#linearGradient4331);fill-opacity:1;stroke:none" />
    <path
       d="m -78,242 a 2,2 0 1 1 -4,0 2,2 0 1 1 4,0 z"
       transform="matrix(0.5,0,0,0.5,-35,121)"
       id="path4329"
       style="fill:#0090e2;fill-opacity:1;stroke:none" />
  </g>
  <g
     transform="translate(85,-153)"
     id="g4333">
    <path
       d="m -78,242 a 2,2 0 1 1 -4,0 2,2 0 1 1 4,0 z"
       transform="translate(5,0)"
       id="path4335"
       style="fill:url(#linearGradient4339);fill-opacity:1;stroke:none" />
    <path
       d="m -78,242 a 2,2 0 1 1 -4,0 2,2 0 1 1 4,0 z"
       transform="matrix(0.5,0,0,0.5,-35,121)"
       id="path4337"
       style="fill:#0090e2;fill-opacity:1;stroke:none" />
  </g>
  <rect
     width="66"
     height="59"
     x="7"
     y="11"
     id="rect4166"
     style="fill:#0aa6fe;fill-opacity:1;stroke:none" />
  <g
     transform="translate(85,-175)"
     id="g4341">
    <path
       d="m -78,242 a 2,2 0 1 1 -4,0 2,2 0 1 1 4,0 z"
       transform="translate(5,0)"
       id="path4343"
       style="fill:url(#linearGradient4347);fill-opacity:1;stroke:none" />
    <path
       d="m -78,242 a 2,2 0 1 1 -4,0 2,2 0 1 1 4,0 z"
       transform="matrix(0.5,0,0,0.5,-35,121)"
       id="path4345"
       style="fill:#0090e2;fill-opacity:1;stroke:none" />
  </g>
  <g
     transform="translate(85,-228)"
     id="g4349">
    <path
       d="m -78,242 a 2,2 0 1 1 -4,0 2,2 0 1 1 4,0 z"
       transform="translate(5,0)"
       id="path4351"
       style="fill:url(#linearGradient4355);fill-opacity:1;stroke:none" />
    <path
       d="m -78,242 a 2,2 0 1 1 -4,0 2,2 0 1 1 4,0 z"
       transform="matrix(0.5,0,0,0.5,-35,121)"
       id="path4353"
       style="fill:#0090e2;fill-opacity:1;stroke:none" />
  </g>
  <g
     transform="translate(145,-228)"
     id="g4357">
    <path
       d="m -78,242 a 2,2 0 1 1 -4,0 2,2 0 1 1 4,0 z"
       transform="translate(5,0)"
       id="path4359"
       style="fill:url(#linearGradient4363);fill-opacity:1;stroke:none" />
    <path
       d="m -78,242 a 2,2 0 1 1 -4,0 2,2 0 1 1 4,0 z"
       transform="matrix(0.5,0,0,0.5,-35,121)"
       id="path4361"
       style="fill:#0090e2;fill-opacity:1;stroke:none" />
  </g>
  <g
     transform="translate(145,-175)"
     id="g4365">
    <path
       d="m -78,242 a 2,2 0 1 1 -4,0 2,2 0 1 1 4,0 z"
       transform="translate(5,0)"
       id="path4367"
       style="fill:url(#linearGradient4371);fill-opacity:1;stroke:none" />
    <path
       d="m -78,242 a 2,2 0 1 1 -4,0 2,2 0 1 1 4,0 z"
       transform="matrix(0.5,0,0,0.5,-35,121)"
       id="path4369"
       style="fill:#0090e2;fill-opacity:1;stroke:none" />
  </g>
  <g
     transform="translate(68,-1)"
     id="g4381">
    <path
       d="m -36,198 0,19 -8,0 16.503306,16.53049 L -11,217 l -8,0 0,-19 z"
       id="path4373"
       style="fill:#016fa9;fill-opacity:1;stroke:none" />
    <path
       d="M -41.375,218 -27.515449,232.04266 -13.5,218 l -6.5,0 0,-19 -15,0 0,19 z"
       id="path4379"
       style="fill:#0090e2;fill-opacity:1;stroke:none" />
  </g>
  <g
     transform="translate(68,-175)"
     id="g4385">
    <path
       d="m -36,198 0,19 -8,0 16.503306,16.53049 L -11,217 l -8,0 0,-19 z"
       id="path4387"
       style="fill:#016fa9;fill-opacity:1;stroke:none" />
    <path
       d="M -41.25,218 -27.515449,232.10516 -13.5625,218 -20,218 l 0,-19 -15,0 0,19 z"
       id="path4389"
       style="fill:#0090e2;fill-opacity:1;stroke:none" />
  </g>
  <g
     id="g4050">
    <rect
       width="9"
       height="2"
       x="9"
       y="121"
       id="rect3262"
       style="fill:url(#linearGradient3270);fill-opacity:1;stroke:none" />
    <rect
       width="2"
       height="2"
       x="9"
       y="121"
       id="rect3272"
       style="fill:url(#linearGradient3280);fill-opacity:1;stroke:none" />
  </g>
  <g
     transform="translate(0,3)"
     id="g4054">
    <rect
       width="9"
       height="2"
       x="9"
       y="121"
       id="rect4056"
       style="fill:url(#linearGradient4060);fill-opacity:1;stroke:none" />
    <rect
       width="2"
       height="2"
       x="9"
       y="121"
       id="rect4058"
       style="fill:url(#linearGradient4062);fill-opacity:1;stroke:none" />
  </g>
  <g
     transform="translate(0,6)"
     id="g4064">
    <rect
       width="9"
       height="2"
       x="9"
       y="121"
       id="rect4066"
       style="fill:url(#linearGradient4070);fill-opacity:1;stroke:none" />
    <rect
       width="2"
       height="2"
       x="9"
       y="121"
       id="rect4068"
       style="fill:url(#linearGradient4072);fill-opacity:1;stroke:none" />
  </g>
  <g
     transform="translate(53,0)"
     id="g4074">
    <rect
       width="9"
       height="2"
       x="9"
       y="121"
       id="rect4076"
       style="fill:url(#linearGradient4080);fill-opacity:1;stroke:none" />
    <rect
       width="2"
       height="2"
       x="9"
       y="121"
       id="rect4078"
       style="fill:url(#linearGradient4082);fill-opacity:1;stroke:none" />
  </g>
  <g
     transform="translate(53,3)"
     id="g4084">
    <rect
       width="9"
       height="2"
       x="9"
       y="121"
       id="rect4086"
       style="fill:url(#linearGradient4091);fill-opacity:1;stroke:none" />
    <rect
       width="2"
       height="2"
       x="9"
       y="121"
       id="rect4088"
       style="fill:url(#linearGradient4093);fill-opacity:1;stroke:none" />
  </g>
  <g
     transform="translate(53,6)"
     id="g4095">
    <rect
       width="9"
       height="2"
       x="9"
       y="121"
       id="rect4097"
       style="fill:url(#linearGradient4101);fill-opacity:1;stroke:none" />
    <rect
       width="2"
       height="2"
       x="9"
       y="121"
       id="rect4099"
       style="fill:url(#linearGradient4103);fill-opacity:1;stroke:none" />
  </g>
  <g
     id="g4120">
    <rect
       width="9"
       height="10"
       x="9"
       y="133"
       id="rect4105"
       style="opacity:0.7893082;fill:#7ad0fe;fill-opacity:0;stroke:none" />
    <rect
       width="9"
       height="10"
       x="9"
       y="133"
       id="rect4107"
       style="opacity:0.7893082;fill:url(#linearGradient4115);fill-opacity:1;stroke:none" />
    <rect
       width="7"
       height="8"
       x="10"
       y="134"
       id="rect4118"
       style="opacity:0.7893082;fill:#0185cb;fill-opacity:1;stroke:none" />
  </g>
  <g
     transform="translate(0,12)"
     id="g4125">
    <rect
       width="9"
       height="10"
       x="9"
       y="133"
       id="rect4127"
       style="opacity:0.7893082;fill:#7ad0fe;fill-opacity:0;stroke:none" />
    <rect
       width="9"
       height="10"
       x="9"
       y="133"
       id="rect4129"
       style="opacity:0.7893082;fill:url(#linearGradient4134);fill-opacity:1;stroke:none" />
    <rect
       width="7"
       height="8"
       x="10"
       y="134"
       id="rect4131"
       style="opacity:0.7893082;fill:#0185cb;fill-opacity:1;stroke:none" />
  </g>
  <g
     transform="translate(53,0)"
     id="g4136">
    <rect
       width="9"
       height="10"
       x="9"
       y="133"
       id="rect4138"
       style="opacity:0.7893082;fill:#7ad0fe;fill-opacity:0;stroke:none" />
    <rect
       width="9"
       height="10"
       x="9"
       y="133"
       id="rect4140"
       style="opacity:0.7893082;fill:url(#linearGradient4144);fill-opacity:1;stroke:none" />
    <rect
       width="7"
       height="8"
       x="10"
       y="134"
       id="rect4142"
       style="opacity:0.7893082;fill:#0185cb;fill-opacity:1;stroke:none" />
  </g>
  <g
     transform="translate(53,12)"
     id="g4146">
    <rect
       width="9"
       height="10"
       x="9"
       y="133"
       id="rect4148"
       style="opacity:0.7893082;fill:#7ad0fe;fill-opacity:0;stroke:none" />
    <rect
       width="9"
       height="10"
       x="9"
       y="133"
       id="rect4150"
       style="opacity:0.7893082;fill:url(#linearGradient4154);fill-opacity:1;stroke:none" />
    <rect
       width="7"
       height="8"
       x="10"
       y="134"
       id="rect4152"
       style="opacity:0.7893082;fill:#0185cb;fill-opacity:1;stroke:none" />
  </g>
</svg>
