<?xml version="1.0" encoding="UTF-8" standalone="no"?>
<!-- Created with Inkscape (http://www.inkscape.org/) -->

<svg
   xmlns:dc="http://purl.org/dc/elements/1.1/"
   xmlns:cc="http://creativecommons.org/ns#"
   xmlns:rdf="http://www.w3.org/1999/02/22-rdf-syntax-ns#"
   xmlns:svg="http://www.w3.org/2000/svg"
   xmlns="http://www.w3.org/2000/svg"
   xmlns:xlink="http://www.w3.org/1999/xlink"
   version="1.1"
   width="28"
   height="256"
   id="svg2">
  <defs
     id="defs4">
    <linearGradient
       id="linearGradient4382">
      <stop
         id="stop4384"
         style="stop-color:#aaaaaa;stop-opacity:1"
         offset="0" />
      <stop
         id="stop4386"
         style="stop-color:#cacaca;stop-opacity:1"
         offset="1" />
    </linearGradient>
    <linearGradient
       id="linearGradient4364">
      <stop
         id="stop4366"
         style="stop-color:#8a8a8a;stop-opacity:1"
         offset="0" />
      <stop
         id="stop4368"
         style="stop-color:#e4e4e4;stop-opacity:1"
         offset="1" />
    </linearGradient>
    <linearGradient
       id="linearGradient4126">
      <stop
         id="stop4128"
         style="stop-color:#aaaaaa;stop-opacity:1"
         offset="0" />
      <stop
         id="stop4130"
         style="stop-color:#cacaca;stop-opacity:1"
         offset="1" />
    </linearGradient>
    <linearGradient
       id="linearGradient4088">
      <stop
         id="stop4090"
         style="stop-color:#aaaaaa;stop-opacity:1"
         offset="0" />
      <stop
         id="stop4092"
         style="stop-color:#cacaca;stop-opacity:0"
         offset="1" />
    </linearGradient>
    <linearGradient
       id="linearGradient4078">
      <stop
         id="stop4080"
         style="stop-color:#aaaaaa;stop-opacity:1"
         offset="0" />
      <stop
         id="stop4082"
         style="stop-color:#cacaca;stop-opacity:1"
         offset="1" />
    </linearGradient>
    <linearGradient
       id="linearGradient3222">
      <stop
         id="stop3224"
         style="stop-color:#aaaaaa;stop-opacity:1"
         offset="0" />
      <stop
         id="stop3226"
         style="stop-color:#cacaca;stop-opacity:1"
         offset="1" />
    </linearGradient>
    <linearGradient
       id="linearGradient3934">
      <stop
         id="stop3936"
         style="stop-color:#8a8a8a;stop-opacity:1"
         offset="0" />
      <stop
         id="stop3938"
         style="stop-color:#e4e4e4;stop-opacity:1"
         offset="1" />
    </linearGradient>
    <linearGradient
       id="linearGradient3885">
      <stop
         id="stop3887"
         style="stop-color:#0aa6fe;stop-opacity:1"
         offset="0" />
      <stop
         id="stop3889"
         style="stop-color:#016fa9;stop-opacity:1"
         offset="1" />
    </linearGradient>
    <linearGradient
       id="linearGradient3447">
      <stop
         id="stop3449"
         style="stop-color:#d6d6d6;stop-opacity:1"
         offset="0" />
      <stop
         id="stop3451"
         style="stop-color:#969696;stop-opacity:1"
         offset="0.68813419" />
      <stop
         id="stop3453"
         style="stop-color:#d6d6d6;stop-opacity:1"
         offset="1" />
    </linearGradient>
    <linearGradient
       id="linearGradient3163">
      <stop
         id="stop3165"
         style="stop-color:#d6d6d6;stop-opacity:1"
         offset="0" />
      <stop
         id="stop3171"
         style="stop-color:#969696;stop-opacity:1"
         offset="0.68813419" />
      <stop
         id="stop3167"
         style="stop-color:#c0c0c0;stop-opacity:1"
         offset="1" />
    </linearGradient>
    <linearGradient
       id="linearGradient3076">
      <stop
         id="stop3078"
         style="stop-color:#b6b6b6;stop-opacity:1"
         offset="0" />
      <stop
         id="stop3080"
         style="stop-color:#c0c0c0;stop-opacity:1"
         offset="1" />
    </linearGradient>
    <linearGradient
       id="linearGradient3034">
      <stop
         id="stop3036"
         style="stop-color:#aaaaaa;stop-opacity:1"
         offset="0" />
      <stop
         id="stop3038"
         style="stop-color:#cacaca;stop-opacity:1"
         offset="1" />
    </linearGradient>
    <linearGradient
       x1="-24"
       y1="8"
       x2="-26"
       y2="6"
       id="linearGradient3040"
       xlink:href="#linearGradient3034"
       gradientUnits="userSpaceOnUse" />
    <linearGradient
       x1="-24"
       y1="8"
       x2="-26"
       y2="6"
       id="linearGradient3040-7"
       xlink:href="#linearGradient3034-4"
       gradientUnits="userSpaceOnUse" />
    <linearGradient
       id="linearGradient3034-4">
      <stop
         id="stop3036-0"
         style="stop-color:#aaaaaa;stop-opacity:1"
         offset="0" />
      <stop
         id="stop3038-9"
         style="stop-color:#cacaca;stop-opacity:1"
         offset="1" />
    </linearGradient>
    <linearGradient
       x1="-23.892857"
       y1="8.1964283"
       x2="-25.267857"
       y2="6.5535712"
       id="linearGradient3057"
       xlink:href="#linearGradient3076"
       gradientUnits="userSpaceOnUse" />
    <linearGradient
       id="linearGradient3034-8">
      <stop
         id="stop3036-2"
         style="stop-color:#aaaaaa;stop-opacity:1"
         offset="0" />
      <stop
         id="stop3038-4"
         style="stop-color:#cacaca;stop-opacity:1"
         offset="1" />
    </linearGradient>
    <linearGradient
       x1="-23.892857"
       y1="8.1964283"
       x2="-25.267857"
       y2="6.5535712"
       id="linearGradient3057-5"
       xlink:href="#linearGradient3076-5"
       gradientUnits="userSpaceOnUse" />
    <linearGradient
       id="linearGradient3076-5">
      <stop
         id="stop3078-1"
         style="stop-color:#b6b6b6;stop-opacity:1"
         offset="0" />
      <stop
         id="stop3080-7"
         style="stop-color:#c0c0c0;stop-opacity:1"
         offset="1" />
    </linearGradient>
    <linearGradient
       x1="-26"
       y1="8"
       x2="-24"
       y2="6"
       id="linearGradient3157"
       xlink:href="#linearGradient3034-8"
       gradientUnits="userSpaceOnUse" />
    <linearGradient
       x1="-26.196428"
       y1="7.8035712"
       x2="-25.267857"
       y2="6.5535712"
       id="linearGradient3159"
       xlink:href="#linearGradient3076-5"
       gradientUnits="userSpaceOnUse" />
    <linearGradient
       x1="376"
       y1="447.36218"
       x2="376"
       y2="455.36218"
       id="linearGradient3169"
       xlink:href="#linearGradient3163"
       gradientUnits="userSpaceOnUse" />
    <linearGradient
       id="linearGradient3034-8-7">
      <stop
         id="stop3036-2-6"
         style="stop-color:#aaaaaa;stop-opacity:1"
         offset="0" />
      <stop
         id="stop3038-4-1"
         style="stop-color:#cacaca;stop-opacity:1"
         offset="1" />
    </linearGradient>
    <linearGradient
       id="linearGradient3076-5-9">
      <stop
         id="stop3078-1-2"
         style="stop-color:#b6b6b6;stop-opacity:1"
         offset="0" />
      <stop
         id="stop3080-7-7"
         style="stop-color:#c0c0c0;stop-opacity:1"
         offset="1" />
    </linearGradient>
    <linearGradient
       x1="376"
       y1="447.36218"
       x2="376"
       y2="455.36218"
       id="linearGradient3169-8"
       xlink:href="#linearGradient3163-7"
       gradientUnits="userSpaceOnUse" />
    <linearGradient
       id="linearGradient3163-7">
      <stop
         id="stop3165-4"
         style="stop-color:#d6d6d6;stop-opacity:1"
         offset="0" />
      <stop
         id="stop3171-2"
         style="stop-color:#969696;stop-opacity:1"
         offset="0.68813419" />
      <stop
         id="stop3167-7"
         style="stop-color:#c0c0c0;stop-opacity:1"
         offset="1" />
    </linearGradient>
    <linearGradient
       x1="376"
       y1="447.36218"
       x2="376"
       y2="455.36218"
       id="linearGradient3325"
       xlink:href="#linearGradient3447"
       gradientUnits="userSpaceOnUse"
       gradientTransform="translate(-1.65e-5,124.99996)" />
    <linearGradient
       x1="-24"
       y1="8"
       x2="-26"
       y2="6"
       id="linearGradient3040-4-9"
       xlink:href="#linearGradient3034-2-3"
       gradientUnits="userSpaceOnUse" />
    <linearGradient
       id="linearGradient3034-2-3">
      <stop
         id="stop3036-3-1"
         style="stop-color:#aaaaaa;stop-opacity:1"
         offset="0" />
      <stop
         id="stop3038-2-9"
         style="stop-color:#cacaca;stop-opacity:1"
         offset="1" />
    </linearGradient>
    <linearGradient
       x1="-23.892857"
       y1="8.1964283"
       x2="-25.267857"
       y2="6.5535712"
       id="linearGradient3057-2-8"
       xlink:href="#linearGradient3076-1-6"
       gradientUnits="userSpaceOnUse" />
    <linearGradient
       id="linearGradient3076-1-6">
      <stop
         id="stop3078-6-5"
         style="stop-color:#b6b6b6;stop-opacity:1"
         offset="0" />
      <stop
         id="stop3080-8-0"
         style="stop-color:#c0c0c0;stop-opacity:1"
         offset="1" />
    </linearGradient>
    <linearGradient
       x1="-26"
       y1="8"
       x2="-24"
       y2="6"
       id="linearGradient3157-5-2"
       xlink:href="#linearGradient3034-8-7-8"
       gradientUnits="userSpaceOnUse" />
    <linearGradient
       id="linearGradient3034-8-7-8">
      <stop
         id="stop3036-2-6-6"
         style="stop-color:#aaaaaa;stop-opacity:1"
         offset="0" />
      <stop
         id="stop3038-4-1-0"
         style="stop-color:#cacaca;stop-opacity:1"
         offset="1" />
    </linearGradient>
    <linearGradient
       x1="-26.196428"
       y1="7.8035712"
       x2="-25.267857"
       y2="6.5535712"
       id="linearGradient3159-8-2"
       xlink:href="#linearGradient3076-5-9-4"
       gradientUnits="userSpaceOnUse" />
    <linearGradient
       id="linearGradient3076-5-9-4">
      <stop
         id="stop3078-1-2-8"
         style="stop-color:#b6b6b6;stop-opacity:1"
         offset="0" />
      <stop
         id="stop3080-7-7-6"
         style="stop-color:#c0c0c0;stop-opacity:1"
         offset="1" />
    </linearGradient>
    <linearGradient
       x1="-26"
       y1="8"
       x2="-24"
       y2="6"
       id="linearGradient3655"
       xlink:href="#linearGradient3034-8-7"
       gradientUnits="userSpaceOnUse" />
    <linearGradient
       x1="-26.196428"
       y1="7.8035712"
       x2="-25.267857"
       y2="6.5535712"
       id="linearGradient3657"
       xlink:href="#linearGradient3076-5-9"
       gradientUnits="userSpaceOnUse" />
    <linearGradient
       x1="-26"
       y1="8"
       x2="-24"
       y2="6"
       id="linearGradient3665"
       xlink:href="#linearGradient3034-8-7"
       gradientUnits="userSpaceOnUse" />
    <linearGradient
       x1="-26.196428"
       y1="7.8035712"
       x2="-25.267857"
       y2="6.5535712"
       id="linearGradient3667"
       xlink:href="#linearGradient3076-5-9"
       gradientUnits="userSpaceOnUse" />
    <linearGradient
       x1="-26"
       y1="8"
       x2="-24"
       y2="6"
       id="linearGradient3675"
       xlink:href="#linearGradient3034-8-7"
       gradientUnits="userSpaceOnUse" />
    <linearGradient
       x1="-26.196428"
       y1="7.8035712"
       x2="-25.267857"
       y2="6.5535712"
       id="linearGradient3677"
       xlink:href="#linearGradient3076-5-9"
       gradientUnits="userSpaceOnUse" />
    <linearGradient
       x1="-26"
       y1="8"
       x2="-24"
       y2="6"
       id="linearGradient3685"
       xlink:href="#linearGradient3034-8-7"
       gradientUnits="userSpaceOnUse" />
    <linearGradient
       x1="-26.196428"
       y1="7.8035712"
       x2="-25.267857"
       y2="6.5535712"
       id="linearGradient3687"
       xlink:href="#linearGradient3076-5-9"
       gradientUnits="userSpaceOnUse" />
    <linearGradient
       x1="376"
       y1="650.36218"
       x2="376"
       y2="647.36218"
       id="linearGradient3891"
       xlink:href="#linearGradient3885"
       gradientUnits="userSpaceOnUse" />
    <linearGradient
       x1="14"
       y1="242"
       x2="14"
       y2="240"
       id="linearGradient3940"
       xlink:href="#linearGradient3934"
       gradientUnits="userSpaceOnUse" />
    <linearGradient
       x1="5"
       y1="9"
       x2="0"
       y2="3"
       id="linearGradient4064"
       xlink:href="#linearGradient3222"
       gradientUnits="userSpaceOnUse"
       gradientTransform="translate(361,404.36218)" />
    <linearGradient
       x1="-26"
       y1="8"
       x2="-24"
       y2="6"
       id="linearGradient4066"
       xlink:href="#linearGradient3034-8"
       gradientUnits="userSpaceOnUse" />
    <linearGradient
       x1="-26.196428"
       y1="7.8035712"
       x2="-25.267857"
       y2="6.5535712"
       id="linearGradient4068"
       xlink:href="#linearGradient3076-5"
       gradientUnits="userSpaceOnUse" />
    <linearGradient
       x1="368"
       y1="535.36218"
       x2="370"
       y2="535.36218"
       id="linearGradient4100"
       xlink:href="#linearGradient4078"
       gradientUnits="userSpaceOnUse" />
    <linearGradient
       x1="8"
       y1="123"
       x2="8"
       y2="125"
       id="linearGradient4102"
       xlink:href="#linearGradient4088"
       gradientUnits="userSpaceOnUse" />
    <linearGradient
       x1="368"
       y1="535.36218"
       x2="370"
       y2="535.36218"
       id="linearGradient4110"
       xlink:href="#linearGradient4078"
       gradientUnits="userSpaceOnUse" />
    <linearGradient
       x1="8"
       y1="123"
       x2="8"
       y2="125"
       id="linearGradient4112"
       xlink:href="#linearGradient4088"
       gradientUnits="userSpaceOnUse" />
    <linearGradient
       x1="368"
       y1="535.36218"
       x2="370"
       y2="535.36218"
       id="linearGradient4120"
       xlink:href="#linearGradient4078"
       gradientUnits="userSpaceOnUse" />
    <linearGradient
       x1="8"
       y1="123"
       x2="8"
       y2="125"
       id="linearGradient4122"
       xlink:href="#linearGradient4088"
       gradientUnits="userSpaceOnUse" />
    <linearGradient
       x1="-3"
       y1="139"
       x2="-27"
       y2="118"
       id="linearGradient4132"
       xlink:href="#linearGradient4126"
       gradientUnits="userSpaceOnUse"
       gradientTransform="translate(390,404.36218)" />
    <linearGradient
       x1="5"
       y1="9"
       x2="0"
       y2="3"
       id="linearGradient4134"
       xlink:href="#linearGradient3222"
       gradientUnits="userSpaceOnUse"
       gradientTransform="translate(361,404.36218)" />
    <linearGradient
       x1="-26"
       y1="8"
       x2="-24"
       y2="6"
       id="linearGradient4136"
       xlink:href="#linearGradient3034-8"
       gradientUnits="userSpaceOnUse" />
    <linearGradient
       x1="-26.196428"
       y1="7.8035712"
       x2="-25.267857"
       y2="6.5535712"
       id="linearGradient4138"
       xlink:href="#linearGradient3076-5"
       gradientUnits="userSpaceOnUse" />
    <linearGradient
       x1="1"
       y1="9.0000029"
       x2="8"
       y2="3.0000026"
       id="linearGradient4166"
       xlink:href="#linearGradient3222"
       gradientUnits="userSpaceOnUse"
       gradientTransform="translate(-389,404.36218)" />
    <linearGradient
       x1="-24"
       y1="8"
       x2="-26"
       y2="6"
       id="linearGradient4168"
       xlink:href="#linearGradient3034-8"
       gradientUnits="userSpaceOnUse" />
    <linearGradient
       x1="-24.693827"
       y1="7.5384064"
       x2="-25.530331"
       y2="6.4696698"
       id="linearGradient4170"
       xlink:href="#linearGradient3076-5"
       gradientUnits="userSpaceOnUse" />
    <linearGradient
       x1="-24.693827"
       y1="7.5384064"
       x2="-25.530331"
       y2="6.4696698"
       id="linearGradient4170-0"
       xlink:href="#linearGradient3076-5-1"
       gradientUnits="userSpaceOnUse" />
    <linearGradient
       id="linearGradient3076-5-1">
      <stop
         id="stop3078-1-4"
         style="stop-color:#b6b6b6;stop-opacity:1"
         offset="0" />
      <stop
         id="stop3080-7-4"
         style="stop-color:#c0c0c0;stop-opacity:1"
         offset="1" />
    </linearGradient>
    <linearGradient
       x1="-24"
       y1="8"
       x2="-26"
       y2="6"
       id="linearGradient4168-7"
       xlink:href="#linearGradient3034-8-76"
       gradientUnits="userSpaceOnUse" />
    <linearGradient
       id="linearGradient3034-8-76">
      <stop
         id="stop3036-2-0"
         style="stop-color:#aaaaaa;stop-opacity:1"
         offset="0" />
      <stop
         id="stop3038-4-5"
         style="stop-color:#cacaca;stop-opacity:1"
         offset="1" />
    </linearGradient>
    <linearGradient
       x1="1"
       y1="9.0000029"
       x2="8"
       y2="3.0000026"
       id="linearGradient4166-3"
       xlink:href="#linearGradient3222-0"
       gradientUnits="userSpaceOnUse"
       gradientTransform="translate(-389,404.36218)" />
    <linearGradient
       id="linearGradient3222-0">
      <stop
         id="stop3224-1"
         style="stop-color:#aaaaaa;stop-opacity:1"
         offset="0" />
      <stop
         id="stop3226-4"
         style="stop-color:#cacaca;stop-opacity:1"
         offset="1" />
    </linearGradient>
    <linearGradient
       x1="1"
       y1="9.0000029"
       x2="8"
       y2="3.0000026"
       id="linearGradient4198"
       xlink:href="#linearGradient3222-0"
       gradientUnits="userSpaceOnUse"
       gradientTransform="translate(-389,507.36218)" />
    <linearGradient
       x1="5"
       y1="9"
       x2="0"
       y2="3"
       id="linearGradient4280"
       xlink:href="#linearGradient3222"
       gradientUnits="userSpaceOnUse"
       gradientTransform="translate(361,404.36218)" />
    <linearGradient
       x1="-26"
       y1="8"
       x2="-24"
       y2="6"
       id="linearGradient4282"
       xlink:href="#linearGradient3034-8"
       gradientUnits="userSpaceOnUse" />
    <linearGradient
       x1="-26.196428"
       y1="7.8035712"
       x2="-25.267857"
       y2="6.5535712"
       id="linearGradient4284"
       xlink:href="#linearGradient3076-5"
       gradientUnits="userSpaceOnUse" />
    <linearGradient
       x1="1"
       y1="9.0000029"
       x2="8"
       y2="3.0000026"
       id="linearGradient4286"
       xlink:href="#linearGradient3222-0"
       gradientUnits="userSpaceOnUse"
       gradientTransform="translate(-389,507.36218)" />
    <linearGradient
       x1="-24"
       y1="8"
       x2="-26"
       y2="6"
       id="linearGradient4288"
       xlink:href="#linearGradient3034-8-76"
       gradientUnits="userSpaceOnUse" />
    <linearGradient
       x1="-24.693827"
       y1="7.5384064"
       x2="-25.530331"
       y2="6.4696698"
       id="linearGradient4290"
       xlink:href="#linearGradient3076-5-1"
       gradientUnits="userSpaceOnUse" />
    <linearGradient
       x1="368"
       y1="535.36218"
       x2="370"
       y2="535.36218"
       id="linearGradient4312"
       xlink:href="#linearGradient4078"
       gradientUnits="userSpaceOnUse"
       gradientTransform="matrix(1,0,0,0.81818158,0,173.88416)" />
    <linearGradient
       x1="8"
       y1="123"
       x2="8"
       y2="125"
       id="linearGradient4314"
       xlink:href="#linearGradient4088"
       gradientUnits="userSpaceOnUse"
       gradientTransform="translate(361,482.36218)" />
    <linearGradient
       x1="368"
       y1="535.36218"
       x2="370"
       y2="535.36218"
       id="linearGradient4322"
       xlink:href="#linearGradient4078"
       gradientUnits="userSpaceOnUse"
       gradientTransform="matrix(1,0,0,0.81818158,0,173.88416)" />
    <linearGradient
       x1="8"
       y1="123"
       x2="8"
       y2="125"
       id="linearGradient4324"
       xlink:href="#linearGradient4088"
       gradientUnits="userSpaceOnUse"
       gradientTransform="translate(361,482.36218)" />
    <linearGradient
       x1="368"
       y1="535.36218"
       x2="370"
       y2="535.36218"
       id="linearGradient4332"
       xlink:href="#linearGradient4078"
       gradientUnits="userSpaceOnUse"
       gradientTransform="matrix(1,0,0,0.81818158,0,173.88416)" />
    <linearGradient
       x1="8"
       y1="123"
       x2="8"
       y2="125"
       id="linearGradient4334"
       xlink:href="#linearGradient4088"
       gradientUnits="userSpaceOnUse"
       gradientTransform="translate(361,482.36218)" />
    <linearGradient
       x1="368"
       y1="535.36218"
       x2="370"
       y2="535.36218"
       id="linearGradient4342"
       xlink:href="#linearGradient4078"
       gradientUnits="userSpaceOnUse"
       gradientTransform="matrix(1,0,0,0.81818158,0,173.88416)" />
    <linearGradient
       x1="8"
       y1="123"
       x2="8"
       y2="125"
       id="linearGradient4344"
       xlink:href="#linearGradient4088"
       gradientUnits="userSpaceOnUse"
       gradientTransform="translate(361,482.36218)" />
    <linearGradient
       x1="368"
       y1="535.36218"
       x2="370"
       y2="535.36218"
       id="linearGradient4352"
       xlink:href="#linearGradient4078"
       gradientUnits="userSpaceOnUse"
       gradientTransform="matrix(1,0,0,0.81818158,0,173.88416)" />
    <linearGradient
       x1="8"
       y1="123"
       x2="8"
       y2="125"
       id="linearGradient4354"
       xlink:href="#linearGradient4088"
       gradientUnits="userSpaceOnUse"
       gradientTransform="translate(361,482.36218)" />
    <linearGradient
       x1="15"
       y1="243"
       x2="15"
       y2="239"
       id="linearGradient4370"
       xlink:href="#linearGradient4364"
       gradientUnits="userSpaceOnUse" />
    <linearGradient
       x1="17"
       y1="233"
       x2="6"
       y2="223"
       id="linearGradient4388"
       xlink:href="#linearGradient4382"
       gradientUnits="userSpaceOnUse" />
    <linearGradient
       x1="17"
       y1="233"
       x2="6"
       y2="223"
       id="linearGradient4392"
       xlink:href="#linearGradient4382"
       gradientUnits="userSpaceOnUse"
       gradientTransform="matrix(0.45454545,0,0,0.39999974,383.64773,539.03724)" />
    <linearGradient
       x1="17"
       y1="233"
       x2="6"
       y2="223"
       id="linearGradient4400"
       xlink:href="#linearGradient4382"
       gradientUnits="userSpaceOnUse"
       gradientTransform="matrix(0.45454545,0,0,0.39999974,383.64773,539.03724)" />
    <linearGradient
       x1="17"
       y1="233"
       x2="6"
       y2="223"
       id="linearGradient4408"
       xlink:href="#linearGradient4382"
       gradientUnits="userSpaceOnUse"
       gradientTransform="matrix(0.45454545,0,0,0.39999974,383.64773,539.03724)" />
  </defs>
  <metadata
     id="metadata7">
    <rdf:RDF>
      <cc:Work
         rdf:about="">
        <dc:format>image/svg+xml</dc:format>
        <dc:type
           rdf:resource="http://purl.org/dc/dcmitype/StillImage" />
        <dc:title></dc:title>
      </cc:Work>
    </rdf:RDF>
  </metadata>
  <g
     transform="translate(-361,-404.36218)"
     id="layer1">
    <rect
       width="28"
       height="256"
       ry="2.0005271e-015"
       x="361"
       y="404.36218"
       id="rect3024"
       style="fill:#c0c0c0;fill-opacity:1;stroke:none" />
    <rect
       width="28"
       height="7.9999976"
       ry="1.6004212e-014"
       x="361"
       y="447.36218"
       id="rect3161"
       style="fill:url(#linearGradient3169);fill-opacity:1;stroke:none" />
    <rect
       width="28"
       height="34"
       ry="1.6004212e-014"
       x="361"
       y="465.36218"
       id="rect3173"
       style="fill:#969696;fill-opacity:1;stroke:none" />
    <rect
       width="28"
       height="32"
       ry="1.6004212e-014"
       x="361"
       y="466.36218"
       id="rect3175"
       style="fill:#e6e6e6;fill-opacity:1;stroke:none" />
    <rect
       width="14"
       height="14"
       ry="1.6004212e-014"
       x="361"
       y="468.36218"
       id="rect3177"
       style="fill:#0aa6fe;fill-opacity:1;stroke:none" />
    <rect
       width="14"
       height="14"
       ry="1.6004212e-014"
       x="375"
       y="482.36218"
       id="rect3177-1"
       style="fill:#0aa6fe;fill-opacity:1;stroke:none" />
    <rect
       width="28"
       height="7.9999976"
       ry="1.6004212e-014"
       x="361"
       y="572.36218"
       id="rect3161-7"
       style="fill:url(#linearGradient3325);fill-opacity:1;stroke:none" />
    <g
       transform="translate(0,183)"
       id="g3197-9-5">
      <g
         id="g3082-5-0">
        <rect
           width="8"
           height="8"
           ry="2.0005271e-015"
           x="361"
           y="407.36218"
           id="rect3026-4-9"
           style="fill:#aaaaaa;fill-opacity:1;stroke:none" />
        <rect
           width="8"
           height="1"
           ry="2.0005271e-015"
           x="0"
           y="3"
           transform="translate(361,404.36218)"
           id="rect3028-3-0"
           style="fill:#cacaca;fill-opacity:1;stroke:none" />
        <rect
           width="7"
           height="6"
           ry="2.0005271e-015"
           x="361"
           y="408.36218"
           id="rect3030-1-0"
           style="fill:#b7b7b7;fill-opacity:1;stroke:none" />
        <path
           d="m -23,7 a 2,2 0 1 1 -0.06815,-0.5176381"
           transform="translate(390,404.36218)"
           id="path3032-2-6"
           style="fill:url(#linearGradient3040-4-9);fill-opacity:1;stroke:none" />
        <path
           d="m -23,7 a 2,2 0 1 1 -0.06815,-0.5176381"
           transform="matrix(0.5,0,0,0.5,377.5,407.86218)"
           id="path3032-4-3-1"
           style="fill:url(#linearGradient3057-2-8);fill-opacity:1;stroke:none" />
      </g>
      <rect
         width="8"
         height="7.9999976"
         ry="1.6004212e-014"
         x="-389"
         y="407.36218"
         transform="scale(-1,1)"
         id="rect3028-5-3-3"
         style="fill:#cacaca;fill-opacity:1;stroke:none" />
      <rect
         width="7"
         height="6"
         ry="2.0005271e-015"
         x="-389"
         y="408.36218"
         transform="scale(-1,1)"
         id="rect3030-2-4-8"
         style="fill:#b7b7b7;fill-opacity:1;stroke:none" />
      <path
         d="m -23,7 a 2,2 0 1 1 -0.06815,-0.5176381"
         transform="matrix(-1,0,0,1,360,404.36218)"
         id="path3032-7-1-9"
         style="fill:url(#linearGradient3157-5-2);fill-opacity:1;stroke:none" />
      <path
         d="m -23,7 a 2,2 0 1 1 -0.06815,-0.5176381"
         transform="matrix(-0.5,0,0,0.5,372.5,407.86218)"
         id="path3032-4-6-1-3"
         style="fill:url(#linearGradient3159-8-2);fill-opacity:1;stroke:none" />
      <rect
         width="7"
         height="1"
         ry="1.6004212e-014"
         x="382"
         y="414.36218"
         id="rect3155-3-4"
         style="fill:#aaaaaa;fill-opacity:1;stroke:none" />
    </g>
    <rect
       width="28"
       height="63"
       ry="1.6004212e-014"
       x="361"
       y="580.36218"
       id="rect3445"
       style="fill:#d6d6d6;fill-opacity:1;stroke:none" />
    <rect
       width="11"
       height="10"
       ry="5.2513836e-015"
       x="6"
       y="223"
       transform="translate(361,404.36218)"
       id="rect4380"
       style="fill:url(#linearGradient4388);fill-opacity:1;stroke:none" />
    <rect
       width="24"
       height="21"
       ry="5.2513836e-015"
       x="363"
       y="522.36218"
       id="rect4124"
       style="fill:url(#linearGradient4132);fill-opacity:1;stroke:none" />
    <rect
       width="22"
       height="19"
       ry="5.2513836e-015"
       x="364"
       y="523.36218"
       id="rect3638"
       style="fill:#b6b6b6;fill-opacity:1;stroke:none" />
    <g
       transform="translate(-18,12)"
       id="g3649">
      <path
         d="m -23,7 a 2,2 0 1 1 -0.06815,-0.5176381"
         transform="matrix(-1,0,0,1,360,507.36218)"
         id="path3651"
         style="fill:url(#linearGradient3655);fill-opacity:1;stroke:none" />
      <path
         d="m -23,7 a 2,2 0 1 1 -0.06815,-0.5176381"
         transform="matrix(-0.5,0,0,0.5,372.5,510.86218)"
         id="path3653"
         style="fill:url(#linearGradient3657);fill-opacity:1;stroke:none" />
    </g>
    <g
       transform="translate(-2,12)"
       id="g3659">
      <path
         d="m -23,7 a 2,2 0 1 1 -0.06815,-0.5176381"
         transform="matrix(-1,0,0,1,360,507.36218)"
         id="path3661"
         style="fill:url(#linearGradient3665);fill-opacity:1;stroke:none" />
      <path
         d="m -23,7 a 2,2 0 1 1 -0.06815,-0.5176381"
         transform="matrix(-0.5,0,0,0.5,372.5,510.86218)"
         id="path3663"
         style="fill:url(#linearGradient3667);fill-opacity:1;stroke:none" />
    </g>
    <g
       transform="translate(-2,25)"
       id="g3669">
      <path
         d="m -23,7 a 2,2 0 1 1 -0.06815,-0.5176381"
         transform="matrix(-1,0,0,1,360,507.36218)"
         id="path3671"
         style="fill:url(#linearGradient3675);fill-opacity:1;stroke:none" />
      <path
         d="m -23,7 a 2,2 0 1 1 -0.06815,-0.5176381"
         transform="matrix(-0.5,0,0,0.5,372.5,510.86218)"
         id="path3673"
         style="fill:url(#linearGradient3677);fill-opacity:1;stroke:none" />
    </g>
    <g
       transform="translate(-18,25)"
       id="g3679">
      <path
         d="m -23,7 a 2,2 0 1 1 -0.06815,-0.5176381"
         transform="matrix(-1,0,0,1,360,507.36218)"
         id="path3681"
         style="fill:url(#linearGradient3685);fill-opacity:1;stroke:none" />
      <path
         d="m -23,7 a 2,2 0 1 1 -0.06815,-0.5176381"
         transform="matrix(-0.5,0,0,0.5,372.5,510.86218)"
         id="path3683"
         style="fill:url(#linearGradient3687);fill-opacity:1;stroke:none" />
    </g>
    <rect
       width="9"
       height="8"
       ry="5.2513836e-015"
       x="368"
       y="628.36218"
       id="rect3749"
       style="fill:#b6b6b6;fill-opacity:1;stroke:none" />
    <path
       d="m 12,230.5 a 0.5,0.5 0 1 1 -0.01704,-0.12941"
       transform="translate(358,404.36218)"
       id="path3944"
       style="fill:#aaaaaa;fill-opacity:1;stroke:none" />
    <path
       d="m 12,230.5 a 0.5,0.5 0 1 1 -0.01704,-0.12941"
       transform="translate(358,399.36218)"
       id="path3944-3"
       style="fill:#aaaaaa;fill-opacity:1;stroke:none" />
    <path
       d="m 12,230.5 a 0.5,0.5 0 1 1 -0.01704,-0.12941"
       transform="translate(364,399.36218)"
       id="path3944-9"
       style="fill:#aaaaaa;fill-opacity:1;stroke:none" />
    <path
       d="m 12,230.5 a 0.5,0.5 0 1 1 -0.01704,-0.12941"
       transform="translate(364,404.36218)"
       id="path3944-98"
       style="fill:#aaaaaa;fill-opacity:1;stroke:none" />
    <rect
       width="28"
       height="10"
       ry="8.2052922e-014"
       x="361"
       y="650.36218"
       id="rect3881"
       style="fill:#0aa6fe;fill-opacity:1;stroke:none" />
    <rect
       width="28"
       height="3"
       ry="8.2052922e-014"
       x="361"
       y="647.36218"
       id="rect3883"
       style="fill:url(#linearGradient3891);fill-opacity:1;stroke:none" />
    <path
       d="m -27,246.5 a 0.5,0.5 0 1 1 -0.01704,-0.12941"
       transform="translate(390,404.36218)"
       id="path3893"
       style="fill:#016fa9;fill-opacity:1;stroke:none" />
    <path
       d="m -27,246.5 a 0.5,0.5 0 1 1 -0.01704,-0.12941"
       transform="translate(390,412.36218)"
       id="path3895"
       style="fill:#016fa9;fill-opacity:1;stroke:none" />
    <path
       d="m -27,246.5 a 0.5,0.5 0 1 1 -0.01704,-0.12941"
       transform="translate(394,412.36218)"
       id="path3897"
       style="fill:#016fa9;fill-opacity:1;stroke:none" />
    <path
       d="m -27,246.5 a 0.5,0.5 0 1 1 -0.01704,-0.12941"
       transform="translate(398,412.36218)"
       id="path3899"
       style="fill:#016fa9;fill-opacity:1;stroke:none" />
    <path
       d="m -27,246.5 a 0.5,0.5 0 1 1 -0.01704,-0.12941"
       transform="translate(402,412.36218)"
       id="path3901"
       style="fill:#016fa9;fill-opacity:1;stroke:none" />
    <path
       d="m -27,246.5 a 0.5,0.5 0 1 1 -0.01704,-0.12941"
       transform="translate(407,412.36218)"
       id="path3903"
       style="fill:#016fa9;fill-opacity:1;stroke:none" />
    <path
       d="m -27,246.5 a 0.5,0.5 0 1 1 -0.01704,-0.12941"
       transform="translate(411,412.36218)"
       id="path3905"
       style="fill:#016fa9;fill-opacity:1;stroke:none" />
    <path
       d="m -27,246.5 a 0.5,0.5 0 1 1 -0.01704,-0.12941"
       transform="translate(415,412.36218)"
       id="path3907"
       style="fill:#016fa9;fill-opacity:1;stroke:none" />
    <path
       d="m -27,246.5 a 0.5,0.5 0 1 1 -0.01704,-0.12941"
       transform="translate(415,404.36218)"
       id="path3909"
       style="fill:#016fa9;fill-opacity:1;stroke:none" />
    <g
       id="g4008">
      <rect
         width="8"
         height="8"
         ry="2.0005271e-015"
         x="361"
         y="407.36218"
         id="rect3220"
         style="fill:url(#linearGradient4134);fill-opacity:1;stroke:none" />
      <rect
         width="7"
         height="6"
         ry="2.0005271e-015"
         x="361"
         y="408.36218"
         id="rect3230"
         style="fill:#b7b7b7;fill-opacity:1;stroke:none" />
      <path
         d="m -23,7 a 2,2 0 1 1 -0.06815,-0.5176381"
         transform="matrix(-1,0,0,1,340,404.36218)"
         id="path4000"
         style="fill:url(#linearGradient4136);fill-opacity:1;stroke:none" />
      <path
         d="m -23,7 a 2,2 0 1 1 -0.06815,-0.5176381"
         transform="matrix(-0.5,0,0,0.5,352.5,407.86218)"
         id="path4002"
         style="fill:url(#linearGradient4138);fill-opacity:1;stroke:none" />
    </g>
    <rect
       width="8"
       height="8"
       ry="2.0005271e-015"
       x="-389"
       y="407.36218"
       transform="scale(-1,1)"
       id="rect4016"
       style="fill:url(#linearGradient4166);fill-opacity:1;stroke:none" />
    <rect
       width="7"
       height="6"
       ry="2.0005271e-015"
       x="-389"
       y="408.36218"
       transform="scale(-1,1)"
       id="rect4018"
       style="fill:#b7b7b7;fill-opacity:1;stroke:none" />
    <path
       d="m -23,7 a 2,2 0 1 1 -0.06815,-0.5176381"
       transform="translate(410,404.36218)"
       id="path4020"
       style="fill:url(#linearGradient4168);fill-opacity:1;stroke:none" />
    <path
       d="m -23,7 a 2,2 0 1 1 -0.06815,-0.5176381"
       transform="matrix(0.5,0,0,0.5,397.5,407.86218)"
       id="path4022"
       style="fill:url(#linearGradient4170);fill-opacity:1;stroke:none" />
    <g
       transform="translate(3,-2.6171874e-6)"
       id="g4096">
      <rect
         width="2"
         height="11"
         ry="2.0005271e-015"
         x="368"
         y="527.36218"
         id="rect4076"
         style="fill:url(#linearGradient4100);fill-opacity:1;stroke:none" />
      <rect
         width="2"
         height="2"
         ry="2.0005271e-015"
         x="7"
         y="123"
         transform="translate(361,404.36218)"
         id="rect4086"
         style="fill:url(#linearGradient4102);fill-opacity:1;stroke:none" />
    </g>
    <g
       transform="translate(6,0)"
       id="g4104">
      <rect
         width="2"
         height="11"
         ry="2.0005271e-015"
         x="368"
         y="527.36218"
         id="rect4106"
         style="fill:url(#linearGradient4110);fill-opacity:1;stroke:none" />
      <rect
         width="2"
         height="2"
         ry="2.0005271e-015"
         x="7"
         y="123"
         transform="translate(361,404.36218)"
         id="rect4108"
         style="fill:url(#linearGradient4112);fill-opacity:1;stroke:none" />
    </g>
    <g
       transform="translate(9,0)"
       id="g4114">
      <rect
         width="2"
         height="11"
         ry="2.0005271e-015"
         x="368"
         y="527.36218"
         id="rect4116"
         style="fill:url(#linearGradient4120);fill-opacity:1;stroke:none" />
      <rect
         width="2"
         height="2"
         ry="2.0005271e-015"
         x="7"
         y="123"
         transform="translate(361,404.36218)"
         id="rect4118"
         style="fill:url(#linearGradient4122);fill-opacity:1;stroke:none" />
    </g>
    <g
       id="g4249">
      <g
         transform="translate(0,103)"
         id="g4044">
        <rect
           width="8"
           height="8"
           ry="2.0005271e-015"
           x="361"
           y="407.36218"
           id="rect4046"
           style="fill:url(#linearGradient4064);fill-opacity:1;stroke:none" />
        <rect
           width="7"
           height="6"
           ry="2.0005271e-015"
           x="361"
           y="408.36218"
           id="rect4048"
           style="fill:#b7b7b7;fill-opacity:1;stroke:none" />
        <path
           d="m -23,7 a 2,2 0 1 1 -0.06815,-0.5176381"
           transform="matrix(-1,0,0,1,340,404.36218)"
           id="path4050"
           style="fill:url(#linearGradient4066);fill-opacity:1;stroke:none" />
        <path
           d="m -23,7 a 2,2 0 1 1 -0.06815,-0.5176381"
           transform="matrix(-0.5,0,0,0.5,352.5,407.86218)"
           id="path4052"
           style="fill:url(#linearGradient4068);fill-opacity:1;stroke:none" />
      </g>
      <rect
         width="8"
         height="8"
         ry="2.0005271e-015"
         x="-389"
         y="510.36218"
         transform="scale(-1,1)"
         id="rect4016-3"
         style="fill:url(#linearGradient4198);fill-opacity:1;stroke:none" />
      <rect
         width="7"
         height="6"
         ry="2.0005271e-015"
         x="-389"
         y="511.36218"
         transform="scale(-1,1)"
         id="rect4018-7"
         style="fill:#b7b7b7;fill-opacity:1;stroke:none" />
      <path
         d="m -23,7 a 2,2 0 1 1 -0.06815,-0.5176381"
         transform="translate(410,507.36218)"
         id="path4020-3"
         style="fill:url(#linearGradient4168-7);fill-opacity:1;stroke:none" />
      <path
         d="m -23,7 a 2,2 0 1 1 -0.06815,-0.5176381"
         transform="matrix(0.5,0,0,0.5,397.5,510.86218)"
         id="path4022-8"
         style="fill:url(#linearGradient4170-0);fill-opacity:1;stroke:none" />
    </g>
    <g
       transform="translate(0,79.999997)"
       id="g4260">
      <g
         transform="translate(0,103)"
         id="g4262">
        <rect
           width="8"
           height="8"
           ry="2.0005271e-015"
           x="361"
           y="407.36218"
           id="rect4264"
           style="fill:url(#linearGradient4280);fill-opacity:1;stroke:none" />
        <rect
           width="7"
           height="6"
           ry="2.0005271e-015"
           x="361"
           y="408.36218"
           id="rect4266"
           style="fill:#b7b7b7;fill-opacity:1;stroke:none" />
        <path
           d="m -23,7 a 2,2 0 1 1 -0.06815,-0.5176381"
           transform="matrix(-1,0,0,1,340,404.36218)"
           id="path4268"
           style="fill:url(#linearGradient4282);fill-opacity:1;stroke:none" />
        <path
           d="m -23,7 a 2,2 0 1 1 -0.06815,-0.5176381"
           transform="matrix(-0.5,0,0,0.5,352.5,407.86218)"
           id="path4270"
           style="fill:url(#linearGradient4284);fill-opacity:1;stroke:none" />
      </g>
      <rect
         width="8"
         height="8"
         ry="2.0005271e-015"
         x="-389"
         y="510.36218"
         transform="scale(-1,1)"
         id="rect4272"
         style="fill:url(#linearGradient4286);fill-opacity:1;stroke:none" />
      <rect
         width="7"
         height="6"
         ry="2.0005271e-015"
         x="-389"
         y="511.36218"
         transform="scale(-1,1)"
         id="rect4274"
         style="fill:#b7b7b7;fill-opacity:1;stroke:none" />
      <path
         d="m -23,7 a 2,2 0 1 1 -0.06815,-0.5176381"
         transform="translate(410,507.36218)"
         id="path4276"
         style="fill:url(#linearGradient4288);fill-opacity:1;stroke:none" />
      <path
         d="m -23,7 a 2,2 0 1 1 -0.06815,-0.5176381"
         transform="matrix(0.5,0,0,0.5,397.5,510.86218)"
         id="path4278"
         style="fill:url(#linearGradient4290);fill-opacity:1;stroke:none" />
    </g>
    <g
       id="g4308">
      <rect
         width="2"
         height="8.9999971"
         ry="1.6367944e-015"
         x="368"
         y="605.36218"
         id="rect4294"
         style="fill:url(#linearGradient4312);fill-opacity:1;stroke:none" />
      <rect
         width="2"
         height="2"
         ry="2.0005271e-015"
         x="368"
         y="605.36218"
         id="rect4296"
         style="fill:url(#linearGradient4314);fill-opacity:1;stroke:none" />
    </g>
    <g
       transform="translate(3,2.4383553e-7)"
       id="g4316">
      <rect
         width="2"
         height="8.9999971"
         ry="1.6367944e-015"
         x="368"
         y="605.36218"
         id="rect4318"
         style="fill:url(#linearGradient4322);fill-opacity:1;stroke:none" />
      <rect
         width="2"
         height="2"
         ry="2.0005271e-015"
         x="368"
         y="605.36218"
         id="rect4320"
         style="fill:url(#linearGradient4324);fill-opacity:1;stroke:none" />
    </g>
    <g
       transform="translate(6,2.4383553e-7)"
       id="g4326">
      <rect
         width="2"
         height="8.9999971"
         ry="1.6367944e-015"
         x="368"
         y="605.36218"
         id="rect4328"
         style="fill:url(#linearGradient4332);fill-opacity:1;stroke:none" />
      <rect
         width="2"
         height="2"
         ry="2.0005271e-015"
         x="368"
         y="605.36218"
         id="rect4330"
         style="fill:url(#linearGradient4334);fill-opacity:1;stroke:none" />
    </g>
    <g
       transform="translate(9,2.4383553e-7)"
       id="g4336">
      <rect
         width="2"
         height="8.9999971"
         ry="1.6367944e-015"
         x="368"
         y="605.36218"
         id="rect4338"
         style="fill:url(#linearGradient4342);fill-opacity:1;stroke:none" />
      <rect
         width="2"
         height="2"
         ry="2.0005271e-015"
         x="368"
         y="605.36218"
         id="rect4340"
         style="fill:url(#linearGradient4344);fill-opacity:1;stroke:none" />
    </g>
    <g
       transform="translate(12,2.4383553e-7)"
       id="g4346">
      <rect
         width="2"
         height="8.9999971"
         ry="1.6367944e-015"
         x="368"
         y="605.36218"
         id="rect4348"
         style="fill:url(#linearGradient4352);fill-opacity:1;stroke:none" />
      <rect
         width="2"
         height="2"
         ry="2.0005271e-015"
         x="368"
         y="605.36218"
         id="rect4350"
         style="fill:url(#linearGradient4354);fill-opacity:1;stroke:none" />
    </g>
    <g
       transform="translate(12,2.4383553e-7)"
       id="g4356">
      <rect
         width="2"
         height="8.9999971"
         ry="1.6367944e-015"
         x="368"
         y="605.36218"
         id="rect4358"
         style="fill:url(#linearGradient4352);fill-opacity:1;stroke:none" />
      <rect
         width="2"
         height="2"
         ry="2.0005271e-015"
         x="368"
         y="605.36218"
         id="rect4360"
         style="fill:url(#linearGradient4354);fill-opacity:1;stroke:none" />
    </g>
    <rect
       width="28"
       height="4"
       ry="5.2513836e-015"
       x="0"
       y="239"
       transform="translate(361,404.36218)"
       id="rect4362"
       style="fill:url(#linearGradient4370);fill-opacity:1;stroke:none" />
    <g
       transform="translate(-6.375,-0.87500262)"
       id="g4396">
      <rect
         width="5"
         height="3.9999974"
         ry="2.1005521e-015"
         x="386.375"
         y="628.23718"
         id="rect4390"
         style="fill:url(#linearGradient4400);fill-opacity:1;stroke:none" />
      <rect
         width="3"
         height="2"
         ry="2.1005521e-015"
         x="387.375"
         y="629.23718"
         id="rect4394"
         style="fill:#b6b6b6;fill-opacity:1;stroke:none" />
    </g>
    <g
       transform="translate(-6.375,5.1249974)"
       id="g4402">
      <rect
         width="5"
         height="3.9999974"
         ry="2.1005521e-015"
         x="386.375"
         y="628.23718"
         id="rect4404"
         style="fill:url(#linearGradient4408);fill-opacity:1;stroke:none" />
      <rect
         width="3"
         height="2"
         ry="2.1005521e-015"
         x="387.375"
         y="629.23718"
         id="rect4406"
         style="fill:#b6b6b6;fill-opacity:1;stroke:none" />
    </g>
  </g>
</svg>
