<?xml version="1.0" encoding="UTF-8" standalone="no"?>
<!-- Created with Inkscape (http://www.inkscape.org/) -->

<svg
   xmlns:dc="http://purl.org/dc/elements/1.1/"
   xmlns:cc="http://creativecommons.org/ns#"
   xmlns:rdf="http://www.w3.org/1999/02/22-rdf-syntax-ns#"
   xmlns:svg="http://www.w3.org/2000/svg"
   xmlns="http://www.w3.org/2000/svg"
   version="1.1"
   width="64"
   height="64"
   id="svg2">
  <defs
     id="defs4">
    <linearGradient
       id="linearGradient4803">
      <stop
         id="stop4805"
         style="stop-color:#ffffff;stop-opacity:1"
         offset="0" />
      <stop
         id="stop4807"
         style="stop-color:#ffffff;stop-opacity:0"
         offset="1" />
    </linearGradient>
    <clipPath
       id="clipPath5298">
      <rect
         width="64"
         height="64"
         x="1.1328125e-006"
         y="-4.0820314e-006"
         id="rect5300"
         style="fill:none;stroke:#c3f024;stroke-opacity:1" />
    </clipPath>
    <clipPath
       id="clipPath5592">
      <rect
         width="64"
         height="64"
         x="0"
         y="0"
         id="rect5594"
         style="fill:none;stroke:#5f7a06;stroke-opacity:1" />
    </clipPath>
    <filter
       x="-0.47121879"
       y="-0.018714886"
       width="1.9424376"
       height="1.0374298"
       color-interpolation-filters="sRGB"
       id="filter5620">
      <feGaussianBlur
         id="feGaussianBlur5622"
         stdDeviation="0.49906364" />
    </filter>
    <filter
       x="-0.98609149"
       y="-0.15457585"
       width="2.972183"
       height="1.3091516"
       color-interpolation-filters="sRGB"
       id="filter5768">
      <feGaussianBlur
         id="feGaussianBlur5770"
         stdDeviation="3.9513228" />
    </filter>
    <filter
       x="-0.15175202"
       y="-0.67313594"
       width="1.3035041"
       height="2.346272"
       color-interpolation-filters="sRGB"
       id="filter5772">
      <feGaussianBlur
         id="feGaussianBlur5774"
         stdDeviation="0.65468759" />
    </filter>
    <filter
       x="-0.31109172"
       y="-0.88883334"
       width="1.6221834"
       height="2.7776666"
       color-interpolation-filters="sRGB"
       id="filter5776">
      <feGaussianBlur
         id="feGaussianBlur5778"
         stdDeviation="0.65468759" />
    </filter>
    <filter
       x="-0.11521913"
       y="-1.1208448"
       width="1.2304384"
       height="3.2416897"
       color-interpolation-filters="sRGB"
       id="filter5780">
      <feGaussianBlur
         id="feGaussianBlur5782"
         stdDeviation="0.65468759" />
    </filter>
    <filter
       x="-0.15953419"
       y="-1.5056845"
       width="1.3190684"
       height="4.0113692"
       color-interpolation-filters="sRGB"
       id="filter5784">
      <feGaussianBlur
         id="feGaussianBlur5786"
         stdDeviation="0.65468759" />
    </filter>
    <filter
       x="-0.1885404"
       y="-0.66550571"
       width="1.3770808"
       height="2.3310115"
       color-interpolation-filters="sRGB"
       id="filter5788">
      <feGaussianBlur
         id="feGaussianBlur5790"
         stdDeviation="0.65468759" />
    </filter>
    <filter
       x="-0.10915497"
       y="-0.62708461"
       width="1.2183099"
       height="2.2541692"
       color-interpolation-filters="sRGB"
       id="filter5792">
      <feGaussianBlur
         id="feGaussianBlur5794"
         stdDeviation="0.65468759" />
    </filter>
    <filter
       x="-0.17776667"
       y="-0.88378316"
       width="1.3555332"
       height="2.7675662"
       color-interpolation-filters="sRGB"
       id="filter5796">
      <feGaussianBlur
         id="feGaussianBlur5798"
         stdDeviation="0.65468759" />
    </filter>
  </defs>
  <metadata
     id="metadata7">
    <rdf:RDF>
      <cc:Work
         rdf:about="">
        <dc:format>image/svg+xml</dc:format>
        <dc:type
           rdf:resource="http://purl.org/dc/dcmitype/StillImage" />
        <dc:title></dc:title>
      </cc:Work>
    </rdf:RDF>
  </metadata>
  <g
     id="layer2">
    <rect
       width="64"
       height="64"
       x="0"
       y="0"
       id="rect3786"
       style="fill:#87aa0d;fill-opacity:1;fill-rule:evenodd;stroke:none" />
    <path
       d="m 23.356412,64 -9.794624,0 0,-64 9.794624,0 z"
       id="path4636"
       style="fill:none;stroke:none" />
    <path
       d="M 16.575517,64 0,64 0,0 21.096113,0 c 0,0 1.506865,6.0000003 -2.260298,10 -3.767163,4 6.780895,16 -2.260298,26 -9.0411912,10 11.301491,4 0,28 z"
       id="path3790-0"
       style="fill:#455706;fill-opacity:1;stroke:none" />
    <path
       d="M 16.575517,64 0,64 0,0 21.096113,0 c 0,0 1.506865,6.0000003 -2.260298,10 -3.767163,4 6.780895,16 -2.260298,26 -9.0411912,10 11.301491,4 0,28 z"
       id="path4924"
       style="fill:#455706;fill-opacity:1;stroke:none" />
    <path
       d="m 28.022771,1.3251765 c 0,0 2.010379,5.7515297 -3.015568,9.5858825 -5.025946,3.834353 9.046705,15.337412 -3.015567,24.923294 -12.0622699,9.585882 15.077839,3.834353 0,26.840471"
       transform="scale(0.75343266,1)"
       clip-path="url(#clipPath5298)"
       id="path4976"
       style="fill:none;stroke:#455706;stroke-width:19.45000076;stroke-linecap:round;stroke-linejoin:round;stroke-miterlimit:4;stroke-opacity:1;stroke-dasharray:none;filter:url(#filter5768)" />
    <path
       d="m 6.8185297,7.7995104 c 0,0 3.2829963,-2.7779197 10.3540643,-2.2728434"
       id="path5316"
       style="fill:none;stroke:#607a06;stroke-width:4;stroke-linecap:round;stroke-linejoin:round;stroke-miterlimit:4;stroke-opacity:1;stroke-dasharray:none;filter:url(#filter5772)" />
    <path
       d="m 13.63706,15.512678 c 2.020305,0 5.050762,-1.767767 5.050762,-1.767767"
       id="path5318"
       style="fill:none;stroke:#617b06;stroke-width:4;stroke-linecap:round;stroke-linejoin:round;stroke-miterlimit:4;stroke-opacity:1;stroke-dasharray:none;filter:url(#filter5776)" />
    <path
       d="M 5.9346462,22.710015 C 8.7125657,24.73032 19.571706,23.972706 19.571706,23.972706"
       id="path5320"
       style="fill:none;stroke:#617b06;stroke-width:4;stroke-linecap:round;stroke-linejoin:round;stroke-miterlimit:4;stroke-opacity:1;stroke-dasharray:none;filter:url(#filter5780)" />
    <path
       d="m 9.217642,33.064078 c 9.091373,0.252538 9.848987,-1.010152 9.848987,-1.010152"
       id="path5322"
       style="fill:none;stroke:#617b06;stroke-width:4;stroke-linecap:round;stroke-linejoin:round;stroke-miterlimit:4;stroke-opacity:1;stroke-dasharray:none;filter:url(#filter5784)" />
    <path
       d="m 9.3439111,40.008877 c 0,0 5.8083779,3.788072 8.3337589,1.767767"
       id="path5324"
       style="fill:none;stroke:#617b06;stroke-width:4;stroke-linecap:round;stroke-linejoin:round;stroke-miterlimit:4;stroke-opacity:1;stroke-dasharray:none;filter:url(#filter5788)" />
    <path
       d="m 4.6719555,49.984133 c 0,0 8.8388345,2.525381 14.3946735,-1.767767"
       id="path5326"
       style="fill:none;stroke:#617b06;stroke-width:4;stroke-linecap:round;stroke-linejoin:round;stroke-miterlimit:4;stroke-opacity:1;stroke-dasharray:none;filter:url(#filter5792)" />
    <path
       d="m 7.9549513,57.939085 c 0,0 8.0812207,-0.252538 8.8388347,1.767767"
       id="path5328"
       style="fill:none;stroke:#617b06;stroke-width:4;stroke-linecap:round;stroke-linejoin:round;stroke-miterlimit:4;stroke-opacity:1;stroke-dasharray:none;filter:url(#filter5796)" />
    <path
       d="m 44.067905,64 c 0,0 0.505076,-25.380083 -1.767767,-43.31029 C 40.027295,2.7595018 43.815367,0 43.815367,0"
       transform="matrix(1,0,-0.00394591,1,0.12626907,0)"
       clip-path="url(#clipPath5592)"
       id="path5330"
       style="fill:#000000;fill-opacity:0;stroke:#5f7a06;stroke-width:6.69999981;stroke-linecap:round;stroke-linejoin:round;stroke-miterlimit:4;stroke-opacity:1;stroke-dasharray:none;filter:url(#filter5620)" />
  </g>
</svg>
