# Blender v2.77 (sub 0) OBJ File: 'ant1.blend'
# www.blender.org
mtllib ant1.mtl
o ColobotMesh_1_ColobotMesh_
v 1.443530 0.345692 -1.005110
v 1.443530 1.048550 0.000000
v 2.079110 0.566940 0.000000
v 1.443530 -0.236674 -0.660128
v 1.443530 -0.236674 0.658549
v 1.443530 0.345691 1.003530
v -0.390896 0.523576 -0.351103
v -0.390896 0.523576 0.377388
v -0.390896 -0.003455 -0.555102
v -0.390896 -0.375284 -0.000000
v -0.390896 -0.003456 0.552497
v -1.027230 -0.016922 -0.000000
v -0.697131 0.349598 0.268185
v -0.897515 0.169432 0.142389
v -0.390896 0.585805 -0.106742
v -0.390896 0.585805 0.136088
v 0.837107 -0.266495 0.734347
v 0.230684 -0.188755 0.698996
v -0.390896 0.364623 -0.470089
v -0.390896 0.188946 -0.538089
v 1.443530 0.916250 0.423094
v 1.443530 0.681963 0.757604
v 1.965047 0.264301 -0.260358
v 1.775833 -0.003570 -0.480401
v -0.390896 -0.309233 0.213289
v -0.390896 -0.185291 0.397454
v 0.837107 -0.465951 0.508821
v 0.230684 -0.512154 0.289305
v 0.837107 1.055721 -0.168157
v 0.230684 0.880729 -0.285192
v -0.697131 0.349331 -0.250051
v -0.897515 0.169165 -0.133017
v -0.390896 0.364340 0.486002
v -0.390896 0.188663 0.544372
v 0.837107 -0.265990 -0.738032
v 0.230684 -0.188250 -0.703023
v -0.697131 -0.032320 0.388032
v -0.897515 -0.036809 0.203866
v -0.697131 -0.031850 -0.390594
v -0.897515 -0.036339 -0.205560
v 1.443530 -0.061827 0.839311
v 1.443530 0.132294 0.954305
v 0.837107 0.236513 0.980438
v 0.230684 0.120130 0.830094
v 1.443530 0.132456 -0.956097
v 1.443530 -0.061666 -0.841103
v 1.775833 0.936928 -0.000007
v 1.965047 0.776392 -0.000007
v 0.837107 0.480442 0.947016
v 0.230684 0.539738 0.738302
v 1.965047 0.533054 0.418742
v 1.775833 0.459304 0.753252
v 1.443530 -0.354308 -0.220563
v 1.443530 -0.354308 0.218996
v -0.697131 -0.283287 -0.000180
v -0.897515 -0.163833 -0.000180
v 0.837107 0.237315 -0.982141
v 0.230684 0.120933 -0.832139
v 1.775833 0.459601 -0.754591
v 1.965047 0.533351 -0.419554
v -0.390896 -0.185216 -0.400426
v -0.390896 -0.309159 -0.215392
v 0.837107 -0.466194 -0.509770
v 0.230684 -0.512397 -0.289727
v 1.443530 0.682038 -0.758839
v 1.443530 0.916324 -0.423802
v 0.837107 0.481902 -0.940060
v 0.230684 0.541197 -0.722058
v 0.837107 1.056981 0.180558
v 0.230684 0.881989 0.306354
v 1.965047 0.264320 0.259867
v 1.775833 -0.003551 0.479383
v 1.775833 0.766519 -0.424823
v 1.775833 0.221777 -0.659264
v 1.775833 -0.061063 -0.000483
v 1.775833 0.221514 0.657891
v 1.775833 0.766320 0.424010
v 0.230684 0.941549 0.011743
v 0.230684 0.345042 -0.820996
v 0.230684 -0.398341 -0.524324
v 0.230684 -0.397969 0.520839
v 0.230684 0.344062 0.827555
v 0.837107 0.855681 -0.629839
v 0.837107 -0.032260 -0.916828
v 0.837107 -0.569442 -0.000427
v 0.837107 -0.033567 0.913802
v 0.837107 0.854745 0.640308
v -0.697131 0.166309 -0.346741
v -0.697131 -0.192206 -0.207390
v -0.697131 -0.192365 0.205149
v -0.697131 0.166177 0.354130
v -0.697131 0.378203 0.009811
vt 0.4361 0.7520
vt 0.4413 0.7930
vt 0.4568 0.7930
vt 0.4516 0.7942
vt 0.4464 0.7801
vt 0.4670 0.8212
vt 0.4516 0.9558
vt 0.4516 0.9019
vt 0.4670 0.9289
vt 0.4361 0.9980
vt 0.4413 0.9840
vt 0.4568 0.9571
vt 0.4516 0.8751
vt 0.4464 0.9161
vt 0.4670 0.8751
vt 0.2984 0.8321
vt 0.2984 0.8618
vt 0.3495 0.8464
vt 0.3128 0.8071
vt 0.3080 0.8154
vt 0.3539 0.7887
vt 0.2984 0.8751
vt 0.3032 0.8524
vt 0.3495 0.8481
vt 0.3128 0.9428
vt 0.3080 0.9202
vt 0.3590 0.9471
vt 0.2984 0.9213
vt 0.3032 0.9285
vt 0.3443 0.9469
vt 0.4464 0.8340
vt 0.4005 0.8608
vt 0.4413 0.7660
vt 0.3950 0.7703
vt 0.4516 0.8481
vt 0.4005 0.8212
vt 0.4464 0.9699
vt 0.4053 0.9514
vt 0.4413 0.9571
vt 0.3902 0.9725
vt 0.3032 0.8237
vt 0.2830 0.8464
vt 0.3080 0.8298
vt 0.2925 0.8298
vt 0.3032 0.8977
vt 0.2830 0.8751
vt 0.3080 0.9356
vt 0.2925 0.9202
vt 0.2984 0.8916
vt 0.2830 0.9059
vt 0.4774 0.8340
vt 0.4825 0.8751
vt 0.4980 0.8751
vt 0.4619 0.8340
vt 0.4825 0.8481
vt 0.4619 0.8071
vt 0.4825 0.9020
vt 0.4670 0.8750
vt 0.4774 0.9161
vt 0.4619 0.9430
vt 0.4619 0.9161
vt 0.4005 0.8905
vt 0.3495 0.8762
vt 0.3495 0.9059
vt 0.3902 0.7787
vt 0.3491 0.7970
vt 0.3443 0.8054
vt 0.4053 0.7985
vt 0.3543 0.8255
vt 0.3590 0.8028
vt 0.4005 0.9289
vt 0.3543 0.9246
vt 0.3495 0.9020
vt 0.3950 0.9796
vt 0.3491 0.9541
vt 0.3539 0.9612
vt 0.3954 0.8197
vt 0.4001 0.7844
vt 0.4005 0.8750
vt 0.4001 0.9655
vt 0.3954 0.9315
vt 0.2675 0.8608
vt 0.2722 0.8524
vt 0.2520 0.8751
vt 0.2877 0.8381
vt 0.2675 0.8751
vt 0.2877 0.8524
vt 0.2722 0.8977
vt 0.2877 0.8977
vt 0.2675 0.8905
vt 0.2877 0.9131
vt 0.2830 0.8762
vn 0.2884 0.1530 -0.9452
vn 0.2306 0.6859 -0.6901
vn 0.6996 0.2093 -0.6832
vn 0.4259 -0.7698 -0.4754
vn 0.3968 -0.5621 -0.7256
vn 0.7759 -0.5493 -0.3100
vn 0.4252 -0.7699 0.4758
vn 0.4873 -0.8653 0.1176
vn 0.7757 -0.5495 0.3104
vn 0.2910 0.1506 0.9448
vn 0.3600 -0.3409 0.8684
vn 0.6994 0.2087 0.6836
vn 0.1990 0.9800 -0.0010
vn 0.2241 0.8745 0.4300
vn 0.4924 0.8703 0.0004
vn -0.4957 0.7203 -0.4852
vn -0.5197 0.8475 -0.1077
vn -0.3395 0.8647 -0.3702
vn -0.4182 -0.2714 -0.8668
vn -0.4748 0.1984 -0.8574
vn -0.3081 -0.1531 -0.9389
vn -0.2989 -0.9543 0.0011
vn -0.3287 -0.8536 -0.4041
vn -0.1784 -0.9551 -0.2365
vn -0.4133 -0.2911 0.8628
vn -0.3482 -0.6961 0.6279
vn -0.2496 -0.5262 0.8129
vn -0.4990 0.7070 0.5011
vn -0.4900 0.3889 0.7801
vn -0.3370 0.5674 0.7513
vn 0.2198 0.8757 -0.4299
vn -0.0765 0.9749 -0.2090
vn 0.3604 -0.3403 -0.8685
vn -0.1227 -0.0393 -0.9916
vn 0.4873 -0.8652 -0.1176
vn 0.0876 -0.8972 -0.4329
vn 0.3960 -0.5624 0.7259
vn -0.0021 -0.6825 0.7309
vn 0.2359 0.6846 0.6897
vn -0.1122 0.4084 0.9059
vn -0.4888 0.4248 -0.7620
vn -0.6506 0.6238 -0.4331
vn -0.3492 -0.6961 -0.6273
vn -0.5545 -0.2806 -0.7834
vn -0.3285 -0.8527 0.4062
vn -0.4164 -0.9091 0.0012
vn -0.4727 0.1581 0.8669
vn -0.5499 -0.2991 0.7798
vn -0.5203 0.8469 0.1096
vn -0.6578 0.6081 0.4443
vn 0.8897 0.2004 -0.4101
vn 0.7710 0.6368 0.0004
vn 0.9914 0.1311 0.0003
vn 0.5451 0.7103 -0.4452
vn 0.9175 -0.3513 -0.1862
vn 0.7856 -0.3083 -0.5364
vn 0.9174 -0.3513 0.1865
vn 0.7696 -0.6386 0.0000
vn 0.8895 0.2000 0.4107
vn 0.7852 -0.3085 0.5368
vn 0.5451 0.7099 0.4459
vn -0.0724 0.9753 0.2083
vn -0.3497 0.9368 -0.0010
vn -0.3358 0.8645 0.3739
vn -0.1199 0.4259 -0.8968
vn -0.3474 0.2389 -0.9067
vn -0.3418 0.5840 -0.7362
vn -0.0008 -0.6826 -0.7307
vn -0.2236 -0.7718 -0.5952
vn -0.2499 -0.5237 -0.8144
vn 0.0866 -0.8961 0.4352
vn -0.2241 -0.7702 0.5971
vn -0.1789 -0.9543 0.2394
vn -0.1196 -0.0581 0.9911
vn -0.3427 0.2042 0.9170
vn -0.3041 -0.1737 0.9366
vn -0.0896 0.7970 -0.5972
vn -0.0644 -0.4304 -0.9003
vn 0.1288 -0.9916 0.0002
vn -0.0647 -0.4339 0.8986
vn -0.0805 0.7939 0.6026
vn -0.8023 0.4844 -0.3488
vn -0.7444 -0.2641 -0.6132
vn -0.9929 -0.1190 -0.0020
vn -0.6125 0.2705 -0.7427
vn -0.6427 -0.7661 0.0008
vn -0.4309 -0.7621 -0.4831
vn -0.7402 -0.2799 0.6113
vn -0.4297 -0.7620 0.4845
vn -0.8083 0.4698 0.3549
vn -0.6148 0.2337 0.7532
vn -0.6411 0.7674 -0.0002
usemtl ColobotMesh_mat_1
s 1
f 1/1/1 65/2/2 59/3/3
f 4/4/4 46/5/5 24/6/6
f 5/7/7 54/8/8 72/9/9
f 6/10/10 42/11/11 52/12/12
f 2/13/13 21/14/14 47/15/15
f 7/16/16 15/17/17 30/18/18
f 9/19/19 20/20/20 58/21/21
f 10/22/22 62/23/23 64/24/24
f 11/25/25 26/26/26 18/27/27
f 8/28/28 33/29/29 50/30/30
f 2/13/13 66/31/31 29/32/32
f 1/1/1 45/33/33 57/34/34
f 4/4/4 53/35/35 63/36/36
f 5/7/7 41/37/37 17/38/38
f 6/10/10 22/39/39 49/40/40
f 7/16/16 19/41/41 31/42/42
f 9/19/19 61/43/43 39/44/44
f 10/22/22 25/45/45 55/46/46
f 11/25/25 34/47/47 37/48/48
f 8/28/28 16/49/49 13/50/50
f 60/51/51 48/52/52 3/53/53
f 59/3/3 73/54/54 60/51/51
f 60/51/51 73/54/54 48/52/52
f 73/54/54 47/15/15 48/52/52
f 59/3/3 65/2/2 73/54/54
f 65/2/2 66/31/31 73/54/54
f 73/54/54 66/31/31 47/15/15
f 66/31/31 2/13/13 47/15/15
f 23/55/55 60/51/51 3/53/53
f 24/6/6 74/56/56 23/55/55
f 23/55/55 74/56/56 60/51/51
f 74/56/56 59/3/3 60/51/51
f 24/6/6 46/5/5 74/56/56
f 46/5/5 45/33/33 74/56/56
f 74/56/56 45/33/33 59/3/3
f 45/33/33 1/1/1 59/3/3
f 71/57/57 23/55/55 3/53/53
f 72/9/9 75/58/58 71/57/57
f 71/57/57 75/58/58 23/55/55
f 75/58/58 24/6/6 23/55/55
f 72/9/9 54/8/8 75/58/58
f 54/8/8 53/35/35 75/58/58
f 75/58/58 53/35/35 24/6/6
f 53/35/35 4/4/4 24/6/6
f 51/59/59 71/57/57 3/53/53
f 52/12/12 76/60/60 51/59/59
f 51/59/59 76/60/60 71/57/57
f 76/60/60 72/9/9 71/57/57
f 52/12/12 42/11/11 76/60/60
f 42/11/11 41/37/37 76/60/60
f 76/60/60 41/37/37 72/9/9
f 41/37/37 5/7/7 72/9/9
f 48/52/52 51/59/59 3/53/53
f 47/15/15 77/61/61 48/52/52
f 48/52/52 77/61/61 51/59/59
f 77/61/61 52/12/12 51/59/59
f 47/15/15 21/14/14 77/61/61
f 21/14/14 22/39/39 77/61/61
f 77/61/61 22/39/39 52/12/12
f 22/39/39 6/10/10 52/12/12
f 29/32/32 69/62/62 2/13/13
f 30/18/18 78/63/63 29/32/32
f 29/32/32 78/63/63 69/62/62
f 78/63/63 70/64/64 69/62/62
f 30/18/18 15/17/17 78/63/63
f 15/17/17 16/49/49 78/63/63
f 78/63/63 16/49/49 70/64/64
f 16/49/49 8/28/28 70/64/64
f 57/34/34 67/65/65 1/1/1
f 58/21/21 79/66/66 57/34/34
f 57/34/34 79/66/66 67/65/65
f 79/66/66 68/67/67 67/65/65
f 58/21/21 20/20/20 79/66/66
f 20/20/20 19/41/41 79/66/66
f 79/66/66 19/41/41 68/67/67
f 19/41/41 7/16/16 68/67/67
f 63/36/36 35/68/68 4/4/4
f 64/24/24 80/69/69 63/36/36
f 63/36/36 80/69/69 35/68/68
f 80/69/69 36/70/70 35/68/68
f 64/24/24 62/23/23 80/69/69
f 62/23/23 61/43/43 80/69/69
f 80/69/69 61/43/43 36/70/70
f 61/43/43 9/19/19 36/70/70
f 17/38/38 27/71/71 5/7/7
f 18/27/27 81/72/72 17/38/38
f 17/38/38 81/72/72 27/71/71
f 81/72/72 28/73/73 27/71/71
f 18/27/27 26/26/26 81/72/72
f 26/26/26 25/45/45 81/72/72
f 81/72/72 25/45/45 28/73/73
f 25/45/45 10/22/22 28/73/73
f 49/40/40 43/74/74 6/10/10
f 50/30/30 82/75/75 49/40/40
f 49/40/40 82/75/75 43/74/74
f 82/75/75 44/76/76 43/74/74
f 50/30/30 33/29/29 82/75/75
f 33/29/29 34/47/47 82/75/75
f 82/75/75 34/47/47 44/76/76
f 34/47/47 11/25/25 44/76/76
f 30/18/18 68/67/67 7/16/16
f 29/32/32 83/77/77 30/18/18
f 30/18/18 83/77/77 68/67/67
f 83/77/77 67/65/65 68/67/67
f 29/32/32 66/31/31 83/77/77
f 66/31/31 65/2/2 83/77/77
f 83/77/77 65/2/2 67/65/65
f 65/2/2 1/1/1 67/65/65
f 58/21/21 36/70/70 9/19/19
f 57/34/34 84/78/78 58/21/21
f 58/21/21 84/78/78 36/70/70
f 84/78/78 35/68/68 36/70/70
f 57/34/34 45/33/33 84/78/78
f 45/33/33 46/5/5 84/78/78
f 84/78/78 46/5/5 35/68/68
f 46/5/5 4/4/4 35/68/68
f 64/24/24 28/73/73 10/22/22
f 63/36/36 85/79/79 64/24/24
f 64/24/24 85/79/79 28/73/73
f 85/79/79 27/71/71 28/73/73
f 63/36/36 53/35/35 85/79/79
f 53/35/35 54/8/8 85/79/79
f 85/79/79 54/8/8 27/71/71
f 54/8/8 5/7/7 27/71/71
f 18/27/27 44/76/76 11/25/25
f 17/38/38 86/80/80 18/27/27
f 18/27/27 86/80/80 44/76/76
f 86/80/80 43/74/74 44/76/76
f 17/38/38 41/37/37 86/80/80
f 41/37/37 42/11/11 86/80/80
f 86/80/80 42/11/11 43/74/74
f 42/11/11 6/10/10 43/74/74
f 50/30/30 70/64/64 8/28/28
f 49/40/40 87/81/81 50/30/30
f 50/30/30 87/81/81 70/64/64
f 87/81/81 69/62/62 70/64/64
f 49/40/40 22/39/39 87/81/81
f 22/39/39 21/14/14 87/81/81
f 87/81/81 21/14/14 69/62/62
f 21/14/14 2/13/13 69/62/62
f 32/82/82 40/83/83 12/84/84
f 31/42/42 88/85/85 32/82/82
f 32/82/82 88/85/85 40/83/83
f 88/85/85 39/44/44 40/83/83
f 31/42/42 19/41/41 88/85/85
f 19/41/41 20/20/20 88/85/85
f 88/85/85 20/20/20 39/44/44
f 20/20/20 9/19/19 39/44/44
f 40/83/83 56/86/86 12/84/84
f 39/44/44 89/87/87 40/83/83
f 40/83/83 89/87/87 56/86/86
f 89/87/87 55/46/46 56/86/86
f 39/44/44 61/43/43 89/87/87
f 61/43/43 62/23/23 89/87/87
f 89/87/87 62/23/23 55/46/46
f 62/23/23 10/22/22 55/46/46
f 56/86/86 38/88/88 12/84/84
f 55/46/46 90/89/89 56/86/86
f 56/86/86 90/89/89 38/88/88
f 90/89/89 37/48/48 38/88/88
f 55/46/46 25/45/45 90/89/89
f 25/45/45 26/26/26 90/89/89
f 90/89/89 26/26/26 37/48/48
f 26/26/26 11/25/25 37/48/48
f 38/88/88 14/90/90 12/84/84
f 37/48/48 91/91/91 38/88/88
f 38/88/88 91/91/91 14/90/90
f 91/91/91 13/50/50 14/90/90
f 37/48/48 34/47/47 91/91/91
f 34/47/47 33/29/29 91/91/91
f 91/91/91 33/29/29 13/50/50
f 33/29/29 8/28/28 13/50/50
f 14/90/90 32/82/82 12/84/84
f 13/50/50 92/92/92 14/90/90
f 14/90/90 92/92/92 32/82/82
f 92/92/92 31/42/42 32/82/82
f 13/50/50 16/49/49 92/92/92
f 16/49/49 15/17/17 92/92/92
f 92/92/92 15/17/17 31/42/42
f 15/17/17 7/16/16 31/42/42
