# Blender v2.70 (sub 5) OBJ File: 'ant1.blend'
# www.blender.org
mtllib ant1.mtl
o ColobotMesh_1_ColobotMesh_
v 1.297580 0.345692 -1.005110
v 1.492200 1.048550 0.000000
v 2.079110 0.566940 0.000000
v 1.492200 -0.236674 -0.660128
v 1.492200 -0.236674 0.658549
v 1.297580 0.345691 1.003530
v -0.440313 0.523576 -0.351103
v -0.440313 0.523576 0.377388
v -0.259680 -0.003455 -0.555102
v -0.440313 -0.375284 -0.000000
v -0.259680 -0.003456 0.552497
v -1.027230 -0.016922 -0.000000
v -0.731246 0.349598 0.268185
v -0.926885 0.169432 0.142389
v -0.487825 0.585805 -0.106742
v -0.487825 0.585805 0.136088
v 0.944318 -0.266495 0.734347
v 0.360358 -0.188755 0.698996
v -0.413587 0.364623 -0.470089
v -0.353376 0.188946 -0.538089
v 1.470752 0.916250 0.423094
v 1.405878 0.681963 0.757604
v 2.007236 0.264301 -0.260358
v 1.811600 -0.003570 -0.480401
v -0.408347 -0.309233 0.213289
v -0.348136 -0.185291 0.397454
v 0.879786 -0.465951 0.508821
v 0.235615 -0.512154 0.289305
v 0.829305 1.055721 -0.168157
v 0.185134 0.880729 -0.285192
v -0.730277 0.349331 -0.250051
v -0.925916 0.169165 -0.133017
v -0.413168 0.364340 0.486002
v -0.352957 0.188663 0.544372
v 0.943423 -0.265990 -0.738032
v 0.359463 -0.188250 -0.703023
v -0.612948 -0.032320 0.388032
v -0.868798 -0.036809 0.203866
v -0.612707 -0.031850 -0.390594
v -0.868557 -0.036339 -0.205560
v 1.456090 -0.061827 0.839311
v 1.391216 0.132294 0.954305
v 0.788408 0.236513 0.980438
v 0.269321 0.120130 0.830094
v 1.391158 0.132456 -0.956097
v 1.456031 -0.061666 -0.841103
v 1.750408 0.936928 -0.000007
v 1.946044 0.776392 -0.000007
v 0.702504 0.480443 0.947016
v 0.123206 0.539738 0.738302
v 1.932435 0.533054 0.418742
v 1.671924 0.459304 0.753252
v 1.566973 -0.354308 -0.220563
v 1.566973 -0.354308 0.218996
v -0.701780 -0.283287 -0.000180
v -0.897419 -0.163833 -0.000180
v 0.787843 0.237315 -0.982141
v 0.268756 0.120933 -0.832139
v 1.671869 0.459601 -0.754591
v 1.932379 0.533351 -0.419554
v -0.348854 -0.185216 -0.400426
v -0.409065 -0.309159 -0.215392
v 0.879844 -0.466194 -0.509770
v 0.235673 -0.512397 -0.289727
v 1.405620 0.682038 -0.758839
v 1.470493 0.916324 -0.423802
v 0.703477 0.481902 -0.940060
v 0.124179 0.541197 -0.722058
v 0.826924 1.056981 0.180558
v 0.182753 0.881989 0.306354
v 2.007141 0.264320 0.259867
v 1.811504 -0.003551 0.479383
v 1.782564 0.766519 -0.424823
v 1.787173 0.221777 -0.659264
v 1.901529 -0.061063 -0.000483
v 1.787048 0.221514 0.657891
v 1.782708 0.766320 0.424010
v 0.163937 0.941549 0.011743
v 0.183348 0.345042 -0.820996
v 0.292324 -0.398341 -0.524324
v 0.292988 -0.397969 0.520839
v 0.183208 0.344062 0.827555
v 0.764777 0.855681 -0.629839
v 0.872450 -0.032260 -0.916828
v 0.905328 -0.569442 -0.000427
v 0.873398 -0.033567 0.913802
v 0.763078 0.854745 0.640308
v -0.709232 0.166309 -0.346741
v -0.691950 -0.192206 -0.207390
v -0.691358 -0.192365 0.205149
v -0.709437 0.166177 0.354130
v -0.780370 0.378203 0.009811
vt 0.436132 0.751953
vt 0.441271 0.793001
vt 0.456770 0.793001
vt 0.451550 0.794219
vt 0.446411 0.780130
vt 0.467049 0.821178
vt 0.451550 0.955781
vt 0.451550 0.901927
vt 0.467049 0.928886
vt 0.436132 0.998047
vt 0.441271 0.983958
vt 0.456770 0.957064
vt 0.451550 0.875097
vt 0.446411 0.916080
vt 0.467049 0.875097
vt 0.298450 0.832080
vt 0.298450 0.861831
vt 0.349483 0.846419
vt 0.312761 0.807087
vt 0.307991 0.815418
vt 0.353885 0.788709
vt 0.298450 0.875097
vt 0.303220 0.852427
vt 0.349483 0.848138
vt 0.312761 0.942787
vt 0.307991 0.920224
vt 0.359024 0.947119
vt 0.298450 0.921333
vt 0.303220 0.928485
vt 0.344344 0.946905
vt 0.446411 0.834049
vt 0.400517 0.860758
vt 0.441271 0.766042
vt 0.395008 0.770331
vt 0.451550 0.848073
vt 0.400517 0.821178
vt 0.446411 0.969869
vt 0.405287 0.951450
vt 0.441271 0.957064
vt 0.390238 0.972476
vt 0.303220 0.823749
vt 0.282951 0.846419
vt 0.307991 0.829757
vt 0.292492 0.829757
vt 0.303220 0.897660
vt 0.282951 0.875097
vt 0.307991 0.935636
vt 0.292492 0.920224
vt 0.298450 0.891582
vt 0.282951 0.905921
vt 0.477409 0.834049
vt 0.482548 0.875097
vt 0.498047 0.875097
vt 0.461910 0.834049
vt 0.482548 0.848138
vt 0.461910 0.807090
vt 0.482548 0.901992
vt 0.467049 0.875032
vt 0.477409 0.916080
vt 0.461910 0.942975
vt 0.461910 0.916080
vt 0.400517 0.890509
vt 0.349483 0.876170
vt 0.349483 0.905921
vt 0.390238 0.778662
vt 0.349114 0.797040
vt 0.344344 0.805371
vt 0.405287 0.798508
vt 0.354254 0.825468
vt 0.359024 0.802798
vt 0.400517 0.928886
vt 0.354254 0.924555
vt 0.349483 0.901992
vt 0.395008 0.979627
vt 0.349114 0.954056
vt 0.353885 0.961207
vt 0.395377 0.819710
vt 0.400148 0.784420
vt 0.400517 0.875032
vt 0.400148 0.965538
vt 0.395377 0.931492
vt 0.267452 0.860758
vt 0.272222 0.852427
vt 0.251953 0.875097
vt 0.287721 0.838088
vt 0.267452 0.875097
vt 0.287721 0.852427
vt 0.272222 0.897660
vt 0.287721 0.897660
vt 0.267452 0.890509
vt 0.287721 0.913073
vt 0.282951 0.876170
vn 0.394505 0.456986 -0.797201
vn 0.666895 -0.464609 -0.582571
vn 0.666065 -0.684441 0.296476
vn 0.545454 0.046296 0.836861
vn 0.379322 0.877446 0.293604
vn -0.448653 0.841319 -0.301485
vn -0.435382 -0.133295 -0.890323
vn -0.318197 -0.892345 -0.320110
vn -0.339104 -0.509402 0.790897
vn -0.495593 0.430185 0.754538
vn 0.086568 0.949763 -0.300760
vn 0.003397 -0.222593 -0.974906
vn 0.272084 -0.917000 -0.291686
vn 0.135235 -0.698529 0.702686
vn 0.053600 0.578158 0.814162
vn -0.523487 0.452434 -0.721987
vn -0.328111 -0.513664 -0.792775
vn -0.314255 -0.892523 0.323492
vn -0.405974 -0.159047 0.899939
vn -0.570835 0.760857 0.308617
vn 0.799599 0.507978 -0.320313
vn 0.670717 0.417090 -0.613331
vn 0.800397 0.507045 -0.319798
vn 0.613626 0.747791 -0.253519
vn 0.476882 0.557841 -0.679263
vn 0.350571 0.734264 -0.581341
vn 0.410236 0.856726 -0.312612
vn 0.379355 0.877557 -0.293228
vn 0.940394 0.064012 -0.334009
vn 0.856884 -0.260298 -0.444966
vn 0.876693 -0.039743 -0.479406
vn 0.770232 0.122560 -0.625877
vn 0.682250 -0.407733 -0.606868
vn 0.616331 -0.238594 -0.750472
vn 0.603428 -0.026887 -0.796964
vn 0.545658 0.047147 -0.836681
vn 0.972903 -0.231215 0.000188
vn 0.864377 -0.453826 0.216552
vn 0.951109 -0.308856 0.000186
vn 0.864511 -0.453669 -0.216345
vn 0.719534 -0.660610 0.214161
vn 0.659152 -0.752010 -0.000000
vn 0.719697 -0.660490 -0.213985
vn 0.666226 -0.684293 -0.296456
vn 0.940247 0.063628 0.334495
vn 0.769950 0.121547 0.626420
vn 0.876236 -0.040303 0.480193
vn 0.856521 -0.260368 0.445624
vn 0.603163 -0.027664 0.797138
vn 0.615976 -0.238838 0.750686
vn 0.681895 -0.407613 0.607348
vn 0.666461 -0.464907 0.582831
vn 0.799365 0.507851 0.321096
vn 0.613530 0.747673 0.254099
vn 0.800469 0.506561 0.320382
vn 0.670484 0.416499 0.613986
vn 0.410628 0.856301 0.313263
vn 0.350899 0.733664 0.581900
vn 0.477181 0.556876 0.679844
vn 0.394789 0.456129 0.797551
vn 0.011713 0.999925 -0.003533
vn -0.220412 0.952356 -0.210800
vn -0.170359 0.985371 -0.004724
vn -0.218683 0.953640 0.206757
vn -0.438659 0.873707 -0.210271
vn -0.479098 0.877761 -0.000000
vn -0.438524 0.875048 0.204910
vn -0.448511 0.840135 0.304976
vn -0.075053 0.143881 -0.986745
vn -0.266114 -0.053565 -0.962452
vn -0.242954 0.082487 -0.966524
vn -0.296724 0.357204 -0.885641
vn -0.434979 -0.121412 -0.892218
vn -0.496321 0.160157 -0.853238
vn -0.480499 0.275085 -0.832736
vn -0.496216 0.465267 -0.733005
vn 0.130616 -0.763112 -0.632929
vn -0.091187 -0.886760 -0.453146
vn -0.068948 -0.740413 -0.668607
vn -0.128792 -0.618308 -0.775312
vn -0.313887 -0.821880 -0.475381
vn -0.354545 -0.719422 -0.597268
vn -0.330616 -0.547940 -0.768410
vn -0.340487 -0.506871 -0.791928
vn 0.129386 -0.760860 0.635886
vn -0.129253 -0.618444 0.775127
vn -0.071604 -0.736896 0.672203
vn -0.092976 -0.883648 0.458827
vn -0.329779 -0.548262 0.768540
vn -0.353600 -0.718385 0.599075
vn -0.314617 -0.818082 0.481413
vn -0.318912 -0.890809 0.323659
vn -0.068884 0.111572 0.991366
vn -0.291670 0.321478 0.900878
vn -0.236300 0.049742 0.970406
vn -0.258729 -0.088592 0.961879
vn -0.476327 0.239795 0.845938
vn -0.490418 0.118770 0.863356
vn -0.426245 -0.153809 0.891436
vn -0.426590 -0.169545 0.888412
vn -0.375524 0.756444 -0.535513
vn -0.180434 0.911462 -0.369703
vn -0.299082 0.773203 -0.559203
vn -0.210617 0.644546 -0.734983
vn 0.038696 0.914901 -0.401820
vn 0.101006 0.806025 -0.583199
vn 0.017409 0.636861 -0.770782
vn 0.044194 0.580910 -0.812768
vn -0.331525 -0.444728 -0.832051
vn -0.204891 -0.290743 -0.934606
vn -0.231890 -0.431994 -0.871555
vn -0.129520 -0.626977 -0.768196
vn 0.001088 -0.235146 -0.971959
vn 0.088377 -0.485645 -0.869677
vn 0.074366 -0.591557 -0.802826
vn 0.137043 -0.698250 -0.702614
vn -0.198625 -0.980075 0.000391
vn 0.002392 -0.980041 -0.198782
vn -0.085053 -0.996376 0.000410
vn 0.002382 -0.979943 0.199266
vn 0.240529 -0.948881 -0.204380
vn 0.309215 -0.950992 0.000000
vn 0.240548 -0.948769 0.204876
vn 0.272004 -0.917024 0.291686
vn -0.330439 -0.449599 0.829862
vn -0.130189 -0.629686 0.765864
vn -0.231646 -0.437119 0.869061
vn -0.204321 -0.294619 0.933516
vn 0.073530 -0.594511 0.800718
vn 0.087609 -0.485872 0.869628
vn 0.000716 -0.239330 0.970938
vn 0.003662 -0.223246 0.974755
vn -0.370561 0.752177 0.544899
vn -0.201586 0.640109 0.741366
vn -0.291385 0.768922 0.569082
vn -0.173764 0.910096 0.376205
vn 0.028072 0.630837 0.775408
vn 0.109490 0.804057 0.584384
vn 0.045828 0.912031 0.407552
vn 0.093842 0.948850 0.301460
vn -0.791836 -0.005431 -0.610709
vn -0.671330 0.284389 -0.684426
vn -0.700777 0.055466 -0.711221
vn -0.581585 -0.104770 -0.806711
vn -0.547478 0.340813 -0.764274
vn -0.475017 0.171293 -0.863144
vn -0.471586 -0.034718 -0.881136
vn -0.411336 -0.120420 -0.903494
vn -0.666176 -0.588071 -0.458675
vn -0.485978 -0.542602 -0.685134
vn -0.580890 -0.652473 -0.486669
vn -0.483870 -0.792471 -0.371294
vn -0.379663 -0.608505 -0.696834
vn -0.320885 -0.735307 -0.596955
vn -0.361276 -0.847197 -0.389533
vn -0.314257 -0.893787 -0.319981
vn -0.665259 -0.588386 0.459600
vn -0.483116 -0.791236 0.374892
vn -0.577249 -0.654430 0.488370
vn -0.483265 -0.545605 0.684668
vn -0.360622 -0.845925 0.392891
vn -0.320352 -0.734070 0.598761
vn -0.377485 -0.610594 0.696189
vn -0.326419 -0.516306 0.791757
vn -0.790864 -0.040721 0.610635
vn -0.576563 -0.142866 0.804465
vn -0.697408 0.017147 0.716469
vn -0.674299 0.246068 0.696255
vn -0.465738 -0.075809 0.881670
vn -0.473224 0.127428 0.871677
vn -0.548343 0.300474 0.780407
vn -0.526892 0.415804 0.741277
vn -0.879327 0.476204 -0.003554
vn -0.732105 0.647720 0.210905
vn -0.819562 0.572980 -0.003437
vn -0.727729 0.652041 -0.212728
vn -0.623314 0.755393 0.202141
vn -0.578728 0.815521 -0.000000
vn -0.619263 0.758320 -0.203628
vn -0.566383 0.765591 -0.305091
usemtl ColobotMesh_mat_1
s off
f 1/1/1 65/2/1 59/3/1
f 4/4/2 46/5/2 24/6/2
f 5/7/3 54/8/3 72/9/3
f 6/10/4 42/11/4 52/12/4
f 2/13/5 21/14/5 47/15/5
f 7/16/6 15/17/6 30/18/6
f 9/19/7 20/20/7 58/21/7
f 10/22/8 62/23/8 64/24/8
f 11/25/9 26/26/9 18/27/9
f 8/28/10 33/29/10 50/30/10
f 2/13/11 66/31/11 29/32/11
f 1/1/12 45/33/12 57/34/12
f 4/4/13 53/35/13 63/36/13
f 5/7/14 41/37/14 17/38/14
f 6/10/15 22/39/15 49/40/15
f 7/16/16 19/41/16 31/42/16
f 9/19/17 61/43/17 39/44/17
f 10/22/18 25/45/18 55/46/18
f 11/25/19 34/47/19 37/48/19
f 8/28/20 16/49/20 13/50/20
f 60/51/21 48/52/21 3/53/21
f 59/3/22 73/54/22 60/51/22
f 60/51/23 73/54/23 48/52/23
f 73/54/24 47/15/24 48/52/24
f 59/3/25 65/2/25 73/54/25
f 65/2/26 66/31/26 73/54/26
f 73/54/27 66/31/27 47/15/27
f 66/31/28 2/13/28 47/15/28
f 23/55/29 60/51/29 3/53/29
f 24/6/30 74/56/30 23/55/30
f 23/55/31 74/56/31 60/51/31
f 74/56/32 59/3/32 60/51/32
f 24/6/33 46/5/33 74/56/33
f 46/5/34 45/33/34 74/56/34
f 74/56/35 45/33/35 59/3/35
f 45/33/36 1/1/36 59/3/36
f 71/57/37 23/55/37 3/53/37
f 72/9/38 75/58/38 71/57/38
f 71/57/39 75/58/39 23/55/39
f 75/58/40 24/6/40 23/55/40
f 72/9/41 54/8/41 75/58/41
f 54/8/42 53/35/42 75/58/42
f 75/58/43 53/35/43 24/6/43
f 53/35/44 4/4/44 24/6/44
f 51/59/45 71/57/45 3/53/45
f 52/12/46 76/60/46 51/59/46
f 51/59/47 76/60/47 71/57/47
f 76/60/48 72/9/48 71/57/48
f 52/12/49 42/11/49 76/60/49
f 42/11/50 41/37/50 76/60/50
f 76/60/51 41/37/51 72/9/51
f 41/37/52 5/7/52 72/9/52
f 48/52/53 51/59/53 3/53/53
f 47/15/54 77/61/54 48/52/54
f 48/52/55 77/61/55 51/59/55
f 77/61/56 52/12/56 51/59/56
f 47/15/57 21/14/57 77/61/57
f 21/14/58 22/39/58 77/61/58
f 77/61/59 22/39/59 52/12/59
f 22/39/60 6/10/60 52/12/60
f 29/32/61 69/62/61 2/13/61
f 30/18/62 78/63/62 29/32/62
f 29/32/63 78/63/63 69/62/63
f 78/63/64 70/64/64 69/62/64
f 30/18/65 15/17/65 78/63/65
f 15/17/66 16/49/66 78/63/66
f 78/63/67 16/49/67 70/64/67
f 16/49/68 8/28/68 70/64/68
f 57/34/69 67/65/69 1/1/69
f 58/21/70 79/66/70 57/34/70
f 57/34/71 79/66/71 67/65/71
f 79/66/72 68/67/72 67/65/72
f 58/21/73 20/20/73 79/66/73
f 20/20/74 19/41/74 79/66/74
f 79/66/75 19/41/75 68/67/75
f 19/41/76 7/16/76 68/67/76
f 63/36/77 35/68/77 4/4/77
f 64/24/78 80/69/78 63/36/78
f 63/36/79 80/69/79 35/68/79
f 80/69/80 36/70/80 35/68/80
f 64/24/81 62/23/81 80/69/81
f 62/23/82 61/43/82 80/69/82
f 80/69/83 61/43/83 36/70/83
f 61/43/84 9/19/84 36/70/84
f 17/38/85 27/71/85 5/7/85
f 18/27/86 81/72/86 17/38/86
f 17/38/87 81/72/87 27/71/87
f 81/72/88 28/73/88 27/71/88
f 18/27/89 26/26/89 81/72/89
f 26/26/90 25/45/90 81/72/90
f 81/72/91 25/45/91 28/73/91
f 25/45/92 10/22/92 28/73/92
f 49/40/93 43/74/93 6/10/93
f 50/30/94 82/75/94 49/40/94
f 49/40/95 82/75/95 43/74/95
f 82/75/96 44/76/96 43/74/96
f 50/30/97 33/29/97 82/75/97
f 33/29/98 34/47/98 82/75/98
f 82/75/99 34/47/99 44/76/99
f 34/47/100 11/25/100 44/76/100
f 30/18/101 68/67/101 7/16/101
f 29/32/102 83/77/102 30/18/102
f 30/18/103 83/77/103 68/67/103
f 83/77/104 67/65/104 68/67/104
f 29/32/105 66/31/105 83/77/105
f 66/31/106 65/2/106 83/77/106
f 83/77/107 65/2/107 67/65/107
f 65/2/108 1/1/108 67/65/108
f 58/21/109 36/70/109 9/19/109
f 57/34/110 84/78/110 58/21/110
f 58/21/111 84/78/111 36/70/111
f 84/78/112 35/68/112 36/70/112
f 57/34/113 45/33/113 84/78/113
f 45/33/114 46/5/114 84/78/114
f 84/78/115 46/5/115 35/68/115
f 46/5/116 4/4/116 35/68/116
f 64/24/117 28/73/117 10/22/117
f 63/36/118 85/79/118 64/24/118
f 64/24/119 85/79/119 28/73/119
f 85/79/120 27/71/120 28/73/120
f 63/36/121 53/35/121 85/79/121
f 53/35/122 54/8/122 85/79/122
f 85/79/123 54/8/123 27/71/123
f 54/8/124 5/7/124 27/71/124
f 18/27/125 44/76/125 11/25/125
f 17/38/126 86/80/126 18/27/126
f 18/27/127 86/80/127 44/76/127
f 86/80/128 43/74/128 44/76/128
f 17/38/129 41/37/129 86/80/129
f 41/37/130 42/11/130 86/80/130
f 86/80/131 42/11/131 43/74/131
f 42/11/132 6/10/132 43/74/132
f 50/30/133 70/64/133 8/28/133
f 49/40/134 87/81/134 50/30/134
f 50/30/135 87/81/135 70/64/135
f 87/81/136 69/62/136 70/64/136
f 49/40/137 22/39/137 87/81/137
f 22/39/138 21/14/138 87/81/138
f 87/81/139 21/14/139 69/62/139
f 21/14/140 2/13/140 69/62/140
f 32/82/141 40/83/141 12/84/141
f 31/42/142 88/85/142 32/82/142
f 32/82/143 88/85/143 40/83/143
f 88/85/144 39/44/144 40/83/144
f 31/42/145 19/41/145 88/85/145
f 19/41/146 20/20/146 88/85/146
f 88/85/147 20/20/147 39/44/147
f 20/20/148 9/19/148 39/44/148
f 40/83/149 56/86/149 12/84/149
f 39/44/150 89/87/150 40/83/150
f 40/83/151 89/87/151 56/86/151
f 89/87/152 55/46/152 56/86/152
f 39/44/153 61/43/153 89/87/153
f 61/43/154 62/23/154 89/87/154
f 89/87/155 62/23/155 55/46/155
f 62/23/156 10/22/156 55/46/156
f 56/86/157 38/88/157 12/84/157
f 55/46/158 90/89/158 56/86/158
f 56/86/159 90/89/159 38/88/159
f 90/89/160 37/48/160 38/88/160
f 55/46/161 25/45/161 90/89/161
f 25/45/162 26/26/162 90/89/162
f 90/89/163 26/26/163 37/48/163
f 26/26/164 11/25/164 37/48/164
f 38/88/165 14/90/165 12/84/165
f 37/48/166 91/91/166 38/88/166
f 38/88/167 91/91/167 14/90/167
f 91/91/168 13/50/168 14/90/168
f 37/48/169 34/47/169 91/91/169
f 34/47/170 33/29/170 91/91/170
f 91/91/171 33/29/171 13/50/171
f 33/29/172 8/28/172 13/50/172
f 14/90/173 32/82/173 12/84/173
f 13/50/174 92/92/174 14/90/174
f 14/90/175 92/92/175 32/82/175
f 92/92/176 31/42/176 32/82/176
f 13/50/177 16/49/177 92/92/177
f 16/49/178 15/17/178 92/92/178
f 92/92/179 15/17/179 31/42/179
f 15/17/180 7/16/180 31/42/180
