# Blender v2.70 (sub 5) OBJ File: 'ant2_copy.blend'
# www.blender.org
mtllib ant2.mtl
o ColobotMesh_1_ColobotMesh_
v -0.084273 0.572172 0.000000
v 1.424780 0.383995 -1.454100
v 1.189080 1.499510 0.000000
v 2.134020 0.572173 0.000000
v 1.189080 -0.252788 -0.898686
v 1.189080 -0.252788 0.898686
v 1.424780 0.383994 1.454100
v 0.527806 1.207510 -0.596247
v 0.527806 1.207510 0.619294
v 0.527806 0.488092 -1.151660
v 0.527806 -0.156402 -0.000000
v 0.527806 0.488092 1.174710
v 0.018170 0.829982 0.234073
v 0.222196 1.041761 0.440504
v 1.145960 0.717543 -1.328478
v 0.846969 0.992048 -1.042527
v 1.209980 -0.417571 -0.300241
v 1.209980 -0.417571 0.298883
v 0.965698 1.484618 -0.216466
v 0.745274 1.387285 -0.415215
v 1.629966 1.271593 -0.000193
v 1.944946 0.962480 -0.000193
v 1.796273 0.450881 -1.085937
v 2.032687 0.513607 -0.601237
v 0.019282 0.828434 -0.225929
v 0.223308 1.040214 -0.424678
v 0.477317 0.994371 -0.841260
v 0.477317 0.754565 -1.026398
v 0.933781 -0.075471 1.077941
v 0.713356 0.171489 1.169949
v 0.471377 1.309961 -0.190622
v 0.471377 1.309961 0.214558
v 0.426129 0.001091 0.475500
v 0.426129 0.215922 0.867070
v 1.444467 0.871347 -1.127451
v 1.365901 1.243185 -0.642751
v 0.956406 -0.308123 0.626912
v 0.735981 -0.275994 0.327350
v 0.965546 1.485823 0.224490
v 0.745122 1.388489 0.430921
v 1.131104 0.416403 1.458994
v 0.832112 0.451103 1.365864
v 1.300405 -0.073853 1.164784
v 1.378971 0.138408 1.349922
v 0.008946 0.539608 -0.432725
v 0.212972 0.511582 -0.816612
v 0.956415 -0.307782 -0.627330
v 0.735990 -0.275654 -0.327768
v 1.131483 0.416625 -1.452036
v 0.832492 0.451324 -1.351222
v 0.006093 0.539283 0.442957
v 0.210119 0.511256 0.834527
v 1.950993 0.195617 0.351252
v 1.636013 -0.079370 0.650814
v 2.033276 0.513445 0.599422
v 1.796862 0.450719 1.084122
v 1.635652 -0.079813 -0.651551
v 1.950632 0.195174 -0.351989
v 0.427363 0.001886 -0.465255
v 0.427363 0.216717 -0.849142
v 1.367598 1.243785 0.641242
v 1.446164 0.871946 1.125942
v 1.299633 -0.073490 -1.165197
v 1.378200 0.138771 -1.350335
v 1.146701 0.717780 1.334424
v 0.847709 0.992286 1.056155
v 0.235962 0.059190 -0.000350
v 0.031935 0.302048 -0.000350
v 0.477633 0.994139 0.865148
v 0.477633 0.754333 1.050286
v 0.934016 -0.075746 -1.069198
v 0.713591 0.171214 -1.153523
v 1.851229 0.927394 -0.635713
v 0.727425 1.462550 0.008017
v 0.821613 0.730447 -1.252405
v 0.676775 -0.118406 0.814483
v 1.075664 1.220595 -0.899670
v 0.942705 -0.414776 -0.000615
v 1.033173 0.153928 1.337840
v 0.169914 0.789106 -0.650490
v 0.158642 1.093891 0.008124
v 1.771800 0.169811 -0.922573
v 1.712112 -0.187498 -0.000916
v 1.772485 0.169748 0.920686
v 1.852115 0.927634 0.633189
v 0.677367 -0.117081 -0.804641
v 0.822211 0.730273 1.267083
v 1.032834 0.154128 -1.330114
v 1.077278 1.221758 0.906196
v 0.138777 0.259112 -0.447571
v 0.135458 0.258516 0.457440
v 0.167461 0.789697 0.667923
vt 0.669365 0.751953
vt 0.660649 0.792969
vt 0.695592 0.792969
vt 0.569856 0.824545
vt 0.569856 0.858832
vt 0.594310 0.841363
vt 0.569856 0.777546
vt 0.569856 0.793212
vt 0.603026 0.769015
vt 0.790748 0.964170
vt 0.790748 0.960488
vt 0.793465 0.963305
vt 0.643217 0.875000
vt 0.651933 0.833984
vt 0.618763 0.858182
vt 0.798899 0.944675
vt 0.798899 0.950308
vt 0.796182 0.947492
vt 0.798899 0.961575
vt 0.799867 0.963315
vt 0.796182 0.962440
vt 0.569856 0.808879
vt 0.547222 0.841363
vt 0.569856 0.927405
vt 0.569856 0.893118
vt 0.547222 0.909937
vt 0.799867 0.942935
vt 0.802782 0.947492
vt 0.798899 0.955942
vt 0.802782 0.958758
vt 0.801804 0.966797
vt 0.800836 0.965056
vt 0.804718 0.962240
vt 0.651933 0.916016
vt 0.678160 0.875000
vt 0.790748 0.953125
vt 0.790748 0.949516
vt 0.793465 0.950308
vt 0.569856 0.943072
vt 0.603026 0.950952
vt 0.801804 0.939453
vt 0.800836 0.941194
vt 0.798119 0.940401
vt 0.669365 0.998047
vt 0.660649 0.957031
vt 0.636195 0.974500
vt 0.790748 0.942297
vt 0.790748 0.945906
vt 0.788233 0.945906
vt 0.790748 0.956807
vt 0.788233 0.953125
vt 0.569856 0.974405
vt 0.569856 0.958738
vt 0.547222 0.941270
vt 0.721820 0.833984
vt 0.713104 0.875000
vt 0.748047 0.875000
vt 0.686876 0.833984
vt 0.618763 0.892468
vt 0.594310 0.875650
vt 0.594310 0.909937
vt 0.636195 0.760484
vt 0.636195 0.776150
vt 0.603026 0.784681
vt 0.603026 0.800348
vt 0.796182 0.958758
vt 0.793465 0.959623
vt 0.793465 0.955942
vt 0.627479 0.817166
vt 0.796182 0.953125
vt 0.794433 0.965046
vt 0.797150 0.964180
vt 0.798119 0.965921
vt 0.524587 0.858182
vt 0.524587 0.842515
vt 0.501953 0.875000
vt 0.547222 0.825697
vt 0.547222 0.810031
vt 0.524587 0.892468
vt 0.547222 0.875650
vt 0.806664 0.950308
vt 0.807633 0.948568
vt 0.810547 0.953125
vt 0.803750 0.945751
vt 0.804718 0.944010
vt 0.806664 0.955942
vt 0.802782 0.953125
vt 0.807633 0.957682
vt 0.803750 0.960499
vt 0.721820 0.916016
vt 0.686876 0.916016
vt 0.695592 0.957031
vt 0.796182 0.943882
vt 0.793465 0.946699
vt 0.793465 0.943090
vt 0.636195 0.990166
vt 0.603026 0.966619
vt 0.603026 0.982285
vt 0.794433 0.941349
vt 0.797150 0.942142
vt 0.627479 0.933484
vt 0.785718 0.949516
vt 0.785718 0.953125
vt 0.783203 0.953125
vt 0.788233 0.949516
vt 0.785718 0.956807
vt 0.788233 0.956807
vt 0.788233 0.960488
vt 0.524587 0.908135
vt 0.547222 0.925603
vn 0.594937 0.430788 -0.678581
vn -0.464625 0.841046 -0.277065
vn -0.499864 0.289077 -0.816438
vn -0.690202 -0.413434 0.593881
vn 0.233193 0.923630 -0.304186
vn -0.078349 -0.961852 -0.262111
vn -0.136603 -0.794648 0.591502
vn -0.610562 0.655517 -0.444423
vn -0.577720 0.768488 0.275075
vn 0.495421 -0.801887 -0.333968
vn 0.467375 -0.848179 0.249304
vn 0.683625 -0.389371 0.617290
vn 0.447964 0.866360 0.220791
vn -0.632538 -0.764607 -0.123575
vn -0.300479 0.749840 0.589451
vn -0.048922 -0.381330 -0.923144
vn 0.286699 0.525948 0.800738
vn -0.674680 -0.423885 -0.604258
vn -0.588603 -0.796562 0.137972
vn -0.712363 0.182458 0.677678
vn 0.883505 0.427896 -0.190588
vn 0.831848 0.327453 -0.448112
vn 0.909382 0.385843 -0.155404
vn 0.693404 0.706566 -0.141262
vn 0.646882 0.482982 -0.590145
vn 0.482602 0.730941 -0.482515
vn 0.530134 0.809091 -0.253633
vn 0.447657 0.866142 -0.222261
vn -0.063867 0.997955 -0.002748
vn -0.257238 0.949492 -0.179703
vn -0.094790 0.995493 -0.002753
vn -0.253970 0.950852 0.177146
vn -0.399004 0.899736 -0.176833
vn -0.511929 0.859028 0.000000
vn -0.396435 0.901339 0.174436
vn -0.461187 0.842752 0.277626
vn 0.035556 0.378126 -0.925071
vn -0.270875 0.311856 -0.910699
vn -0.196796 0.380489 -0.903603
vn -0.154077 0.627351 -0.763342
vn -0.515488 0.268050 -0.813892
vn -0.430376 0.551612 -0.714493
vn -0.379233 0.601120 -0.703446
vn -0.314068 0.747401 -0.585451
vn -0.294624 -0.855224 0.426366
vn -0.487237 -0.651522 0.581480
vn -0.294252 -0.855319 0.426434
vn -0.437083 -0.869961 0.228310
vn -0.639741 -0.562069 0.524223
vn -0.730126 -0.599073 0.328676
vn -0.607871 -0.774157 0.176560
vn -0.629376 -0.767822 0.119734
vn -0.215669 0.810014 -0.545310
vn -0.075305 0.925988 -0.369966
vn -0.407764 0.741275 -0.533142
vn -0.152027 0.628783 -0.762574
vn 0.213338 0.922354 -0.322103
vn 0.398443 0.757774 -0.516742
vn 0.161643 0.653167 -0.739759
vn 0.269697 0.528589 -0.804896
vn -0.497590 -0.867412 -0.000458
vn -0.357859 -0.919128 -0.164743
vn -0.557862 -0.829934 -0.000439
vn -0.357026 -0.919570 0.164082
vn -0.199706 -0.965147 -0.169140
vn -0.010457 -0.999945 0.000000
vn -0.198829 -0.965453 0.168427
vn -0.076799 -0.962105 0.261641
vn -0.531242 -0.323120 0.783183
vn -0.394718 -0.608716 0.688232
vn -0.446432 -0.378505 0.810822
vn -0.315235 -0.298238 0.900933
vn -0.159570 -0.709051 0.686865
vn -0.055571 -0.644540 0.762548
vn -0.050020 -0.403120 0.913779
vn -0.027240 -0.386063 0.922070
vn -0.956298 0.192071 -0.220462
vn -0.815601 0.473053 -0.333191
vn -0.896776 0.278362 -0.343957
vn -0.868779 0.148067 -0.472545
vn -0.673130 0.568481 -0.472996
vn -0.668670 0.454391 -0.588566
vn -0.735583 0.260257 -0.625447
vn -0.709645 0.185104 -0.679809
vn -0.928222 0.372011 -0.003495
vn -0.792053 0.581265 0.186502
vn -0.884048 0.467381 -0.003709
vn -0.790150 0.582617 -0.190316
vn -0.638021 0.747729 0.183931
vn -0.568430 0.822732 0.000000
vn -0.636325 0.748195 -0.187868
vn -0.577222 0.769051 -0.274545
vn 0.932988 -0.337745 -0.124348
vn 0.747437 -0.631525 -0.206189
vn 0.869914 -0.422858 -0.253851
vn 0.871988 -0.300522 -0.386423
vn 0.570877 -0.726545 -0.382403
vn 0.584988 -0.645184 -0.491454
vn 0.686009 -0.409347 -0.601520
vn 0.682445 -0.390960 -0.617591
vn 0.899319 -0.437292 -0.000186
vn 0.743047 -0.640784 0.193074
vn 0.848603 -0.529029 -0.000102
vn 0.743142 -0.640589 -0.193353
vn 0.503663 -0.840830 0.198312
vn 0.416548 -0.909114 -0.000000
vn 0.503530 -0.840901 -0.198348
vn 0.466862 -0.848291 -0.249883
vn 0.932948 -0.338100 0.123675
vn 0.872007 -0.300443 0.386442
vn 0.869893 -0.423128 0.253475
vn 0.747221 -0.631996 0.205530
vn 0.687371 -0.408830 0.600316
vn 0.586299 -0.644775 0.490427
vn 0.571927 -0.726325 0.381249
vn 0.495641 -0.802464 0.332253
vn 0.883460 0.428062 0.190422
vn 0.693478 0.706642 0.140517
vn 0.909753 0.385316 0.154537
vn 0.831894 0.327327 0.448118
vn 0.531693 0.808413 0.252527
vn 0.484495 0.730243 0.481674
vn 0.648856 0.481735 0.588996
vn 0.596813 0.429602 0.677685
vn -0.301916 -0.850251 -0.431184
vn -0.443236 -0.865509 -0.233316
vn -0.306790 -0.848971 -0.430265
vn -0.497209 -0.642773 -0.582774
vn -0.611884 -0.770000 -0.180825
vn -0.733197 -0.593414 -0.332088
vn -0.646230 -0.553980 -0.524874
vn -0.695672 -0.404380 -0.593732
vn 0.057199 0.378836 0.923695
vn -0.134618 0.629290 0.765423
vn -0.173440 0.383854 0.906959
vn -0.248684 0.315239 0.915850
vn -0.362590 0.605565 0.708392
vn -0.414408 0.556160 0.720383
vn -0.498495 0.273402 0.822651
vn -0.482379 0.294615 0.824932
vn -0.546257 -0.315708 -0.775842
vn -0.335825 -0.290033 -0.896160
vn -0.464710 -0.370389 -0.804274
vn -0.411240 -0.601047 -0.685291
vn -0.071248 -0.398028 -0.914602
vn -0.073241 -0.640017 -0.764862
vn -0.176152 -0.704550 -0.687444
vn -0.151137 -0.790006 -0.594178
vn -0.201554 0.812060 0.547663
vn -0.131752 0.631267 0.764293
vn -0.394380 0.745588 0.537180
vn -0.063336 0.927074 0.369490
vn 0.178221 0.651289 0.737605
vn 0.410287 0.754470 0.512289
vn 0.222403 0.920857 0.320249
vn 0.244505 0.922173 0.299691
vn -0.905958 -0.389531 -0.165850
vn -0.833311 -0.363675 -0.416333
vn -0.896951 -0.405887 -0.175316
vn -0.760106 -0.638569 -0.120284
vn -0.734942 -0.481706 -0.477304
vn -0.628363 -0.678850 -0.379899
vn -0.660451 -0.728448 -0.182119
vn -0.587882 -0.796043 -0.143910
vn -0.907268 -0.390512 0.156094
vn -0.760909 -0.639244 0.111282
vn -0.899027 -0.405732 0.164719
vn -0.836352 -0.364217 0.409709
vn -0.658921 -0.731816 0.173979
vn -0.627693 -0.682491 0.374443
vn -0.735736 -0.486166 0.471523
vn -0.675053 -0.427481 0.601302
vn -0.958991 0.190589 0.209791
vn -0.873228 0.144655 0.465346
vn -0.899926 0.278485 0.335529
vn -0.819321 0.471809 0.325743
vn -0.738112 0.259543 0.622759
vn -0.671461 0.452853 0.586571
vn -0.674261 0.570024 0.469515
vn -0.613566 0.654059 0.442430
usemtl ColobotMesh_mat_1
s off
f 2/1/1 35/2/1 23/3/1
f 8/4/2 31/5/2 20/6/2
f 10/7/3 28/8/3 50/9/3
f 12/10/4 34/11/4 30/12/4
f 3/13/5 36/14/5 19/15/5
f 5/16/6 17/17/6 47/18/6
f 6/19/7 43/20/7 29/21/7
f 8/4/8 27/22/8 26/23/8
f 9/24/9 32/25/9 14/26/9
f 5/16/10 63/27/10 57/28/10
f 6/19/11 18/29/11 54/30/11
f 7/31/12 44/32/12 56/33/12
f 3/13/13 61/34/13 21/35/13
f 11/36/14 59/37/14 48/38/14
f 9/24/15 69/39/15 66/40/15
f 2/41/16 64/42/16 49/43/16
f 7/44/17 62/45/17 65/46/17
f 10/47/18 60/48/18 46/49/18
f 11/36/19 33/50/19 67/51/19
f 12/52/20 70/53/20 52/54/20
f 24/55/21 22/56/21 4/57/21
f 23/3/22 73/58/22 24/55/22
f 24/55/23 73/58/23 22/56/23
f 73/58/24 21/35/24 22/56/24
f 23/3/25 35/2/25 73/58/25
f 35/2/26 36/14/26 73/58/26
f 73/58/27 36/14/27 21/35/27
f 36/14/28 3/13/28 21/35/28
f 19/15/29 39/59/29 3/13/29
f 20/6/30 74/60/30 19/15/30
f 19/15/31 74/60/31 39/59/31
f 74/60/32 40/61/32 39/59/32
f 20/6/33 31/5/33 74/60/33
f 31/5/34 32/25/34 74/60/34
f 74/60/35 32/25/35 40/61/35
f 32/25/36 9/24/36 40/61/36
f 49/62/37 15/63/37 2/1/37
f 50/9/38 75/64/38 49/62/38
f 49/62/39 75/64/39 15/63/39
f 75/64/40 16/65/40 15/63/40
f 50/9/41 28/8/41 75/64/41
f 28/8/42 27/22/42 75/64/42
f 75/64/43 27/22/43 16/65/43
f 27/22/44 8/4/44 16/65/44
f 29/21/45 37/66/45 6/19/45
f 30/12/46 76/67/46 29/21/46
f 29/21/47 76/67/47 37/66/47
f 76/67/48 38/68/48 37/66/48
f 30/12/49 34/11/49 76/67/49
f 34/11/50 33/50/50 76/67/50
f 76/67/51 33/50/51 38/68/51
f 33/50/52 11/36/52 38/68/52
f 20/6/53 16/65/53 8/4/53
f 19/15/54 77/69/54 20/6/54
f 20/6/55 77/69/55 16/65/55
f 77/69/56 15/63/56 16/65/56
f 19/15/57 36/14/57 77/69/57
f 36/14/58 35/2/58 77/69/58
f 77/69/59 35/2/59 15/63/59
f 35/2/60 2/1/60 15/63/60
f 48/38/61 38/68/61 11/36/61
f 47/18/62 78/70/62 48/38/62
f 48/38/63 78/70/63 38/68/63
f 78/70/64 37/66/64 38/68/64
f 47/18/65 17/17/65 78/70/65
f 17/17/66 18/29/66 78/70/66
f 78/70/67 18/29/67 37/66/67
f 18/29/68 6/19/68 37/66/68
f 30/12/69 42/71/69 12/10/69
f 29/21/70 79/72/70 30/12/70
f 30/12/71 79/72/71 42/71/71
f 79/72/72 41/73/72 42/71/72
f 29/21/73 43/20/73 79/72/73
f 43/20/74 44/32/74 79/72/74
f 79/72/75 44/32/75 41/73/75
f 44/32/76 7/31/76 41/73/76
f 25/74/77 45/75/77 1/76/77
f 26/23/78 80/77/78 25/74/78
f 25/74/79 80/77/79 45/75/79
f 80/77/80 46/78/80 45/75/80
f 26/23/81 27/22/81 80/77/81
f 27/22/82 28/8/82 80/77/82
f 80/77/83 28/8/83 46/78/83
f 28/8/84 10/7/84 46/78/84
f 13/79/85 25/74/85 1/76/85
f 14/26/86 81/80/86 13/79/86
f 13/79/87 81/80/87 25/74/87
f 81/80/88 26/23/88 25/74/88
f 14/26/89 32/25/89 81/80/89
f 32/25/90 31/5/90 81/80/90
f 81/80/91 31/5/91 26/23/91
f 31/5/92 8/4/92 26/23/92
f 58/81/93 24/82/93 4/83/93
f 57/28/94 82/84/94 58/81/94
f 58/81/95 82/84/95 24/82/95
f 82/84/96 23/85/96 24/82/96
f 57/28/97 63/27/97 82/84/97
f 63/27/98 64/42/98 82/84/98
f 82/84/99 64/42/99 23/85/99
f 64/42/100 2/41/100 23/85/100
f 53/86/101 58/81/101 4/83/101
f 54/30/102 83/87/102 53/86/102
f 53/86/103 83/87/103 58/81/103
f 83/87/104 57/28/104 58/81/104
f 54/30/105 18/29/105 83/87/105
f 18/29/106 17/17/106 83/87/106
f 83/87/107 17/17/107 57/28/107
f 17/17/108 5/16/108 57/28/108
f 55/88/109 53/86/109 4/83/109
f 56/33/110 84/89/110 55/88/110
f 55/88/111 84/89/111 53/86/111
f 84/89/112 54/30/112 53/86/112
f 56/33/113 44/32/113 84/89/113
f 44/32/114 43/20/114 84/89/114
f 84/89/115 43/20/115 54/30/115
f 43/20/116 6/19/116 54/30/116
f 22/56/117 55/90/117 4/57/117
f 21/35/118 85/91/118 22/56/118
f 22/56/119 85/91/119 55/90/119
f 85/91/120 56/92/120 55/90/120
f 21/35/121 61/34/121 85/91/121
f 61/34/122 62/45/122 85/91/122
f 85/91/123 62/45/123 56/92/123
f 62/45/124 7/44/124 56/92/124
f 47/18/125 71/93/125 5/16/125
f 48/38/126 86/94/126 47/18/126
f 47/18/127 86/94/127 71/93/127
f 86/94/128 72/95/128 71/93/128
f 48/38/129 59/37/129 86/94/129
f 59/37/130 60/48/130 86/94/130
f 86/94/131 60/48/131 72/95/131
f 60/48/132 10/47/132 72/95/132
f 65/46/133 41/96/133 7/44/133
f 66/40/134 87/97/134 65/46/134
f 65/46/135 87/97/135 41/96/135
f 87/97/136 42/98/136 41/96/136
f 66/40/137 69/39/137 87/97/137
f 69/39/138 70/53/138 87/97/138
f 87/97/139 70/53/139 42/98/139
f 70/53/140 12/52/140 42/98/140
f 50/99/141 72/95/141 10/47/141
f 49/43/142 88/100/142 50/99/142
f 50/99/143 88/100/143 72/95/143
f 88/100/144 71/93/144 72/95/144
f 49/43/145 64/42/145 88/100/145
f 64/42/146 63/27/146 88/100/146
f 88/100/147 63/27/147 71/93/147
f 63/27/148 5/16/148 71/93/148
f 66/40/149 40/61/149 9/24/149
f 65/46/150 89/101/150 66/40/150
f 66/40/151 89/101/151 40/61/151
f 89/101/152 39/59/152 40/61/152
f 65/46/153 62/45/153 89/101/153
f 62/45/154 61/34/154 89/101/154
f 89/101/155 61/34/155 39/59/155
f 61/34/156 3/13/156 39/59/156
f 45/102/157 68/103/157 1/104/157
f 46/49/158 90/105/158 45/102/158
f 45/102/159 90/105/159 68/103/159
f 90/105/160 67/51/160 68/103/160
f 46/49/161 60/48/161 90/105/161
f 60/48/162 59/37/162 90/105/162
f 90/105/163 59/37/163 67/51/163
f 59/37/164 11/36/164 67/51/164
f 68/103/165 51/106/165 1/104/165
f 67/51/166 91/107/166 68/103/166
f 68/103/167 91/107/167 51/106/167
f 91/107/168 52/108/168 51/106/168
f 67/51/169 33/50/169 91/107/169
f 33/50/170 34/11/170 91/107/170
f 91/107/171 34/11/171 52/108/171
f 34/11/172 12/10/172 52/108/172
f 51/109/173 13/79/173 1/76/173
f 52/54/174 92/110/174 51/109/174
f 51/109/175 92/110/175 13/79/175
f 92/110/176 14/26/176 13/79/176
f 52/54/177 70/53/177 92/110/177
f 70/53/178 69/39/178 92/110/178
f 92/110/179 69/39/179 14/26/179
f 69/39/180 9/24/180 14/26/180
