# Blender v2.77 (sub 0) OBJ File: 'ant2.blend'
# www.blender.org
mtllib ant2.mtl
o ColobotMesh_1_ColobotMesh_
v -0.084273 0.572172 0.000000
v 1.424780 0.383995 -1.454100
v 1.189080 1.499510 0.000000
v 2.134020 0.572173 0.000000
v 1.189080 -0.252788 -0.898686
v 1.189080 -0.252788 0.898686
v 1.424780 0.383994 1.454100
v 0.527806 1.207510 -0.596247
v 0.527806 1.207510 0.619294
v 0.527806 0.488092 -1.151660
v 0.527806 -0.156402 -0.000000
v 0.527806 0.488092 1.174710
v 0.018170 0.829982 0.234073
v 0.222196 1.041761 0.440504
v 1.145960 0.717543 -1.328478
v 0.846969 0.992048 -1.042527
v 1.209980 -0.417571 -0.300241
v 1.209980 -0.417571 0.298883
v 0.965698 1.484618 -0.216466
v 0.745274 1.387285 -0.415215
v 1.629966 1.271593 -0.000193
v 1.944946 0.962480 -0.000193
v 1.796273 0.450881 -1.085937
v 2.032687 0.513607 -0.601237
v 0.019282 0.828434 -0.225929
v 0.223308 1.040214 -0.424678
v 0.477317 0.994371 -0.841260
v 0.477317 0.754565 -1.026398
v 0.933781 -0.075471 1.077941
v 0.713356 0.171489 1.169949
v 0.471377 1.309961 -0.190622
v 0.471377 1.309961 0.214558
v 0.426129 0.001091 0.475500
v 0.426129 0.215922 0.867070
v 1.444467 0.871347 -1.127451
v 1.365901 1.243185 -0.642751
v 0.956406 -0.308123 0.626912
v 0.735981 -0.275994 0.327350
v 0.965546 1.485823 0.224490
v 0.745122 1.388489 0.430921
v 1.131104 0.416403 1.458994
v 0.832112 0.451103 1.365864
v 1.300405 -0.073853 1.164784
v 1.378971 0.138408 1.349922
v 0.008946 0.539608 -0.432725
v 0.212972 0.511582 -0.816612
v 0.956415 -0.307782 -0.627330
v 0.735990 -0.275654 -0.327768
v 1.131483 0.416625 -1.452036
v 0.832492 0.451324 -1.351222
v 0.006093 0.539283 0.442957
v 0.210119 0.511256 0.834527
v 1.950993 0.195617 0.351252
v 1.636013 -0.079370 0.650814
v 2.033276 0.513445 0.599422
v 1.796862 0.450719 1.084122
v 1.635652 -0.079813 -0.651551
v 1.950632 0.195174 -0.351989
v 0.427363 0.001886 -0.465255
v 0.427363 0.216717 -0.849142
v 1.367598 1.243785 0.641242
v 1.446164 0.871946 1.125942
v 1.299633 -0.073490 -1.165197
v 1.378200 0.138771 -1.350335
v 1.146701 0.717780 1.334424
v 0.847709 0.992286 1.056155
v 0.235962 0.059190 -0.000350
v 0.031935 0.302048 -0.000350
v 0.477633 0.994139 0.865148
v 0.477633 0.754333 1.050286
v 0.934016 -0.075746 -1.069198
v 0.713591 0.171214 -1.153523
v 1.851229 0.927394 -0.635713
v 0.727425 1.462550 0.008017
v 0.821613 0.730447 -1.252405
v 0.676775 -0.118406 0.814483
v 1.075664 1.220595 -0.899670
v 0.942705 -0.414776 -0.000615
v 1.033173 0.153928 1.337840
v 0.169914 0.789106 -0.650490
v 0.158642 1.093891 0.008124
v 1.771800 0.169811 -0.922573
v 1.712112 -0.187498 -0.000916
v 1.772485 0.169748 0.920686
v 1.852115 0.927634 0.633189
v 0.677367 -0.117081 -0.804641
v 0.822211 0.730273 1.267083
v 1.032834 0.154128 -1.330114
v 1.077278 1.221758 0.906196
v 0.138777 0.259112 -0.447571
v 0.135458 0.258516 0.457440
v 0.167461 0.789697 0.667923
vt 0.6694 0.7603
vt 0.6606 0.7930
vt 0.6956 0.7930
vt 0.5699 0.8245
vt 0.5699 0.8588
vt 0.5943 0.8414
vt 0.5699 0.7775
vt 0.5699 0.7932
vt 0.6030 0.7690
vt 0.7957 0.9553
vt 0.7957 0.9545
vt 0.7962 0.9551
vt 0.6432 0.8750
vt 0.6519 0.8340
vt 0.6188 0.8582
vt 0.7973 0.9515
vt 0.7973 0.9526
vt 0.7967 0.9520
vt 0.7973 0.9548
vt 0.7975 0.9551
vt 0.7967 0.9549
vt 0.5699 0.8089
vt 0.5472 0.8414
vt 0.5699 0.9274
vt 0.5699 0.8931
vt 0.5472 0.9099
vt 0.7975 0.9512
vt 0.7980 0.9520
vt 0.7973 0.9537
vt 0.7980 0.9542
vt 0.7978 0.9558
vt 0.7976 0.9554
vt 0.7984 0.9549
vt 0.6519 0.9160
vt 0.6782 0.8750
vt 0.7957 0.9531
vt 0.7957 0.9524
vt 0.7962 0.9526
vt 0.5699 0.9431
vt 0.6030 0.9510
vt 0.7978 0.9505
vt 0.7976 0.9508
vt 0.7971 0.9507
vt 0.6694 0.9897
vt 0.6606 0.9570
vt 0.6362 0.9745
vt 0.7957 0.9510
vt 0.7957 0.9517
vt 0.7952 0.9517
vt 0.7957 0.9538
vt 0.7952 0.9531
vt 0.5699 0.9744
vt 0.5699 0.9587
vt 0.5472 0.9413
vt 0.7218 0.8340
vt 0.7131 0.8750
vt 0.7389 0.8750
vt 0.6869 0.8340
vt 0.6188 0.8925
vt 0.5943 0.8756
vt 0.5943 0.9099
vt 0.6362 0.7605
vt 0.6362 0.7762
vt 0.6030 0.7847
vt 0.6030 0.8003
vt 0.7967 0.9542
vt 0.7962 0.9544
vt 0.7962 0.9537
vt 0.6275 0.8172
vt 0.7967 0.9531
vt 0.7964 0.9554
vt 0.7969 0.9553
vt 0.7971 0.9556
vt 0.5246 0.8582
vt 0.5246 0.8425
vt 0.5045 0.8750
vt 0.5472 0.8257
vt 0.5472 0.8100
vt 0.5246 0.8925
vt 0.5472 0.8756
vt 0.7988 0.9526
vt 0.7990 0.9522
vt 0.7995 0.9531
vt 0.7982 0.9517
vt 0.7984 0.9514
vt 0.7988 0.9537
vt 0.7980 0.9531
vt 0.7990 0.9540
vt 0.7982 0.9546
vt 0.7218 0.9160
vt 0.6869 0.9160
vt 0.6956 0.9570
vt 0.7967 0.9513
vt 0.7962 0.9519
vt 0.7962 0.9512
vt 0.6362 0.9902
vt 0.6030 0.9666
vt 0.6030 0.9823
vt 0.7964 0.9508
vt 0.7969 0.9510
vt 0.6275 0.9335
vt 0.7947 0.9524
vt 0.7947 0.9531
vt 0.7942 0.9531
vt 0.7952 0.9524
vt 0.7947 0.9538
vt 0.7952 0.9538
vt 0.7952 0.9545
vt 0.5246 0.9081
vt 0.5472 0.9256
vn 0.3842 -0.0089 -0.9232
vn 0.4254 0.6108 -0.6677
vn 0.7925 0.0346 -0.6089
vn -0.4388 0.7807 -0.4449
vn -0.5291 0.8351 -0.1503
vn -0.2817 0.8971 -0.3403
vn -0.6445 -0.0606 -0.7622
vn -0.5935 0.3794 -0.7098
vn -0.4364 -0.0142 -0.8996
vn -0.6369 -0.0623 0.7684
vn -0.6912 -0.5286 0.4928
vn -0.5434 -0.4946 0.6782
vn 0.2545 0.9671 -0.0026
vn 0.3941 0.8435 -0.3649
vn -0.0143 0.9769 -0.2132
vn 0.1042 -0.9050 -0.4124
vn 0.1735 -0.9728 -0.1536
vn -0.2702 -0.9202 -0.2832
vn 0.1084 -0.9061 0.4089
vn 0.2344 -0.7738 0.5884
vn -0.3123 -0.7444 0.5901
vn -0.5155 0.6212 -0.5902
vn -0.7053 0.6339 -0.3172
vn -0.4334 0.7821 0.4476
vn -0.5284 0.8355 0.1508
vn -0.7075 0.6334 0.3133
vn 0.2259 -0.7733 -0.5923
vn 0.6106 -0.7483 -0.2590
vn 0.1740 -0.9727 0.1532
vn 0.6108 -0.7484 0.2583
vn 0.3946 -0.0096 0.9188
vn 0.3246 -0.5502 0.7694
vn 0.7932 0.0343 0.6079
vn 0.3996 0.8421 0.3622
vn 0.5678 0.8231 -0.0005
vn -0.5794 -0.8150 -0.0018
vn -0.6486 -0.7239 -0.2351
vn -0.5048 -0.8525 -0.1359
vn -0.5104 0.6228 0.5929
vn -0.2610 0.6733 0.6918
vn 0.3143 -0.5496 -0.7740
vn -0.1408 0.0077 -0.9900
vn 0.4342 0.6085 0.6642
vn 0.0328 0.5277 0.8488
vn -0.6936 -0.5231 -0.4952
vn -0.8034 -0.1184 -0.5835
vn -0.6465 -0.7273 0.2301
vn -0.6793 -0.7338 -0.0039
vn -0.5877 0.3811 0.7137
vn -0.8061 -0.1213 0.5792
vn 0.9567 0.0022 -0.2909
vn 0.8205 0.5716 -0.0003
vn 0.9988 0.0481 -0.0001
vn 0.7299 0.5851 -0.3534
vn -0.0073 0.9777 0.2097
vn -0.3159 0.9488 -0.0013
vn -0.2742 0.8994 0.3403
vn 0.0128 0.5272 -0.8496
vn -0.3381 0.4584 -0.8219
vn -0.2789 0.6697 -0.6883
vn -0.2658 -0.9225 0.2798
vn -0.5369 -0.7466 0.3927
vn -0.5025 -0.8543 0.1331
vn 0.0023 0.8194 -0.5732
vn -0.2945 -0.9556 -0.0003
vn -0.4176 -0.0162 0.9084
vn -0.2419 -0.5141 0.8229
vn -0.1187 0.0053 0.9929
vn -0.8975 0.3986 -0.1888
vn -0.9413 -0.0867 -0.3260
vn -0.9989 -0.0455 -0.0053
vn -0.7951 0.3674 -0.4824
vn -0.8995 0.3975 0.1809
vn -0.7428 0.6695 -0.0020
vn 0.8561 -0.4984 -0.1367
vn 0.7461 -0.5277 -0.4059
vn 0.8560 -0.4986 0.1363
vn 0.6543 -0.7562 -0.0001
vn 0.9568 0.0020 0.2906
vn 0.7467 -0.5276 0.4050
vn 0.7309 0.5844 0.3523
vn -0.3254 -0.7382 -0.5909
vn -0.5444 -0.7397 -0.3955
vn -0.5549 -0.4864 -0.6749
vn -0.3189 0.4621 0.8274
vn -0.2609 -0.5077 -0.8210
vn 0.0162 0.8195 0.5728
vn -0.8586 -0.5125 -0.0049
vn -0.7785 -0.5536 -0.2955
vn -0.9444 -0.0873 0.3169
vn -0.7799 -0.5558 0.2878
vn -0.7985 0.3667 0.4774
usemtl ColobotMesh_mat_1
s 1
f 2/1/1 35/2/2 23/3/3
f 8/4/4 31/5/5 20/6/6
f 10/7/7 28/8/8 50/9/9
f 12/10/10 34/11/11 30/12/12
f 3/13/13 36/14/14 19/15/15
f 5/16/16 17/17/17 47/18/18
f 6/19/19 43/20/20 29/21/21
f 8/4/4 27/22/22 26/23/23
f 9/24/24 32/25/25 14/26/26
f 5/16/16 63/27/27 57/28/28
f 6/19/19 18/29/29 54/30/30
f 7/31/31 44/32/32 56/33/33
f 3/13/13 61/34/34 21/35/35
f 11/36/36 59/37/37 48/38/38
f 9/24/24 69/39/39 66/40/40
f 2/41/1 64/42/41 49/43/42
f 7/44/31 62/45/43 65/46/44
f 10/47/7 60/48/45 46/49/46
f 11/36/36 33/50/47 67/51/48
f 12/52/10 70/53/49 52/54/50
f 24/55/51 22/56/52 4/57/53
f 23/3/3 73/58/54 24/55/51
f 24/55/51 73/58/54 22/56/52
f 73/58/54 21/35/35 22/56/52
f 23/3/3 35/2/2 73/58/54
f 35/2/2 36/14/14 73/58/54
f 73/58/54 36/14/14 21/35/35
f 36/14/14 3/13/13 21/35/35
f 19/15/15 39/59/55 3/13/13
f 20/6/6 74/60/56 19/15/15
f 19/15/15 74/60/56 39/59/55
f 74/60/56 40/61/57 39/59/55
f 20/6/6 31/5/5 74/60/56
f 31/5/5 32/25/25 74/60/56
f 74/60/56 32/25/25 40/61/57
f 32/25/25 9/24/24 40/61/57
f 49/62/42 15/63/58 2/1/1
f 50/9/9 75/64/59 49/62/42
f 49/62/42 75/64/59 15/63/58
f 75/64/59 16/65/60 15/63/58
f 50/9/9 28/8/8 75/64/59
f 28/8/8 27/22/22 75/64/59
f 75/64/59 27/22/22 16/65/60
f 27/22/22 8/4/4 16/65/60
f 29/21/21 37/66/61 6/19/19
f 30/12/12 76/67/62 29/21/21
f 29/21/21 76/67/62 37/66/61
f 76/67/62 38/68/63 37/66/61
f 30/12/12 34/11/11 76/67/62
f 34/11/11 33/50/47 76/67/62
f 76/67/62 33/50/47 38/68/63
f 33/50/47 11/36/36 38/68/63
f 20/6/6 16/65/60 8/4/4
f 19/15/15 77/69/64 20/6/6
f 20/6/6 77/69/64 16/65/60
f 77/69/64 15/63/58 16/65/60
f 19/15/15 36/14/14 77/69/64
f 36/14/14 35/2/2 77/69/64
f 77/69/64 35/2/2 15/63/58
f 35/2/2 2/1/1 15/63/58
f 48/38/38 38/68/63 11/36/36
f 47/18/18 78/70/65 48/38/38
f 48/38/38 78/70/65 38/68/63
f 78/70/65 37/66/61 38/68/63
f 47/18/18 17/17/17 78/70/65
f 17/17/17 18/29/29 78/70/65
f 78/70/65 18/29/29 37/66/61
f 18/29/29 6/19/19 37/66/61
f 30/12/12 42/71/66 12/10/10
f 29/21/21 79/72/67 30/12/12
f 30/12/12 79/72/67 42/71/66
f 79/72/67 41/73/68 42/71/66
f 29/21/21 43/20/20 79/72/67
f 43/20/20 44/32/32 79/72/67
f 79/72/67 44/32/32 41/73/68
f 44/32/32 7/31/31 41/73/68
f 25/74/69 45/75/70 1/76/71
f 26/23/23 80/77/72 25/74/69
f 25/74/69 80/77/72 45/75/70
f 80/77/72 46/78/46 45/75/70
f 26/23/23 27/22/22 80/77/72
f 27/22/22 28/8/8 80/77/72
f 80/77/72 28/8/8 46/78/46
f 28/8/8 10/7/7 46/78/46
f 13/79/73 25/74/69 1/76/71
f 14/26/26 81/80/74 13/79/73
f 13/79/73 81/80/74 25/74/69
f 81/80/74 26/23/23 25/74/69
f 14/26/26 32/25/25 81/80/74
f 32/25/25 31/5/5 81/80/74
f 81/80/74 31/5/5 26/23/23
f 31/5/5 8/4/4 26/23/23
f 58/81/75 24/82/51 4/83/53
f 57/28/28 82/84/76 58/81/75
f 58/81/75 82/84/76 24/82/51
f 82/84/76 23/85/3 24/82/51
f 57/28/28 63/27/27 82/84/76
f 63/27/27 64/42/41 82/84/76
f 82/84/76 64/42/41 23/85/3
f 64/42/41 2/41/1 23/85/3
f 53/86/77 58/81/75 4/83/53
f 54/30/30 83/87/78 53/86/77
f 53/86/77 83/87/78 58/81/75
f 83/87/78 57/28/28 58/81/75
f 54/30/30 18/29/29 83/87/78
f 18/29/29 17/17/17 83/87/78
f 83/87/78 17/17/17 57/28/28
f 17/17/17 5/16/16 57/28/28
f 55/88/79 53/86/77 4/83/53
f 56/33/33 84/89/80 55/88/79
f 55/88/79 84/89/80 53/86/77
f 84/89/80 54/30/30 53/86/77
f 56/33/33 44/32/32 84/89/80
f 44/32/32 43/20/20 84/89/80
f 84/89/80 43/20/20 54/30/30
f 43/20/20 6/19/19 54/30/30
f 22/56/52 55/90/79 4/57/53
f 21/35/35 85/91/81 22/56/52
f 22/56/52 85/91/81 55/90/79
f 85/91/81 56/92/33 55/90/79
f 21/35/35 61/34/34 85/91/81
f 61/34/34 62/45/43 85/91/81
f 85/91/81 62/45/43 56/92/33
f 62/45/43 7/44/31 56/92/33
f 47/18/18 71/93/82 5/16/16
f 48/38/38 86/94/83 47/18/18
f 47/18/18 86/94/83 71/93/82
f 86/94/83 72/95/84 71/93/82
f 48/38/38 59/37/37 86/94/83
f 59/37/37 60/48/45 86/94/83
f 86/94/83 60/48/45 72/95/84
f 60/48/45 10/47/7 72/95/84
f 65/46/44 41/96/68 7/44/31
f 66/40/40 87/97/85 65/46/44
f 65/46/44 87/97/85 41/96/68
f 87/97/85 42/98/66 41/96/68
f 66/40/40 69/39/39 87/97/85
f 69/39/39 70/53/49 87/97/85
f 87/97/85 70/53/49 42/98/66
f 70/53/49 12/52/10 42/98/66
f 50/99/9 72/95/84 10/47/7
f 49/43/42 88/100/86 50/99/9
f 50/99/9 88/100/86 72/95/84
f 88/100/86 71/93/82 72/95/84
f 49/43/42 64/42/41 88/100/86
f 64/42/41 63/27/27 88/100/86
f 88/100/86 63/27/27 71/93/82
f 63/27/27 5/16/16 71/93/82
f 66/40/40 40/61/57 9/24/24
f 65/46/44 89/101/87 66/40/40
f 66/40/40 89/101/87 40/61/57
f 89/101/87 39/59/55 40/61/57
f 65/46/44 62/45/43 89/101/87
f 62/45/43 61/34/34 89/101/87
f 89/101/87 61/34/34 39/59/55
f 61/34/34 3/13/13 39/59/55
f 45/102/70 68/103/88 1/104/71
f 46/49/46 90/105/89 45/102/70
f 45/102/70 90/105/89 68/103/88
f 90/105/89 67/51/48 68/103/88
f 46/49/46 60/48/45 90/105/89
f 60/48/45 59/37/37 90/105/89
f 90/105/89 59/37/37 67/51/48
f 59/37/37 11/36/36 67/51/48
f 68/103/88 51/106/90 1/104/71
f 67/51/48 91/107/91 68/103/88
f 68/103/88 91/107/91 51/106/90
f 91/107/91 52/108/50 51/106/90
f 67/51/48 33/50/47 91/107/91
f 33/50/47 34/11/11 91/107/91
f 91/107/91 34/11/11 52/108/50
f 34/11/11 12/10/10 52/108/50
f 51/109/90 13/79/73 1/76/71
f 52/54/50 92/110/92 51/109/90
f 51/109/90 92/110/92 13/79/73
f 92/110/92 14/26/26 13/79/73
f 52/54/50 70/53/49 92/110/92
f 70/53/49 69/39/39 92/110/92
f 92/110/92 69/39/39 14/26/26
f 69/39/39 9/24/24 14/26/26
