# Blender v2.70 (sub 5) OBJ File: 'ant3.blend'
# www.blender.org
mtllib ant3.mtl
o ColobotMesh_1_ColobotMesh_
v -0.590517 -0.137919 -1.215850
v -0.407720 0.737716 0.000000
v 0.120731 -0.008787 -0.000000
v -0.407720 -0.833747 -0.660432
v -0.407720 -0.833747 0.662084
v -0.590517 -0.137920 1.217500
v -1.676520 0.790124 -0.898685
v -1.676520 0.790123 0.898685
v -1.522950 -0.285142 -1.454100
v -1.676530 -1.125750 -0.000000
v -1.522950 -0.285142 1.454100
v -2.621460 -0.878718 -0.000000
v -2.222955 0.276189 0.685784
v -2.537935 -0.280092 0.386222
v -1.756622 0.961239 -0.299597
v -1.756622 0.961239 0.299526
v -0.765858 -0.731892 1.064981
v -1.137601 -0.549023 1.328986
v -1.674012 0.471164 -1.199168
v -1.622822 0.112742 -1.384306
v -0.358880 0.536587 0.487848
v -0.419813 0.244708 0.893682
v 0.056764 -0.325591 -0.249383
v -0.119386 -0.600578 -0.469527
v -1.674230 -0.974207 0.614811
v -1.623036 -0.694005 1.099512
v -0.787492 -1.047871 0.478923
v -1.210428 -1.145205 0.258229
v -0.827848 0.910361 -0.358661
v -1.250781 0.927830 -0.658223
v -2.222943 0.276213 -0.685839
v -2.537923 -0.280068 -0.386277
v -1.674091 0.471175 1.199133
v -1.622901 0.112754 1.384272
v -0.765823 -0.731885 -1.063988
v -1.137566 -0.549017 -1.328544
v -2.051861 -0.574528 1.076346
v -2.418031 -0.772386 0.591646
v -2.051817 -0.574545 -1.076506
v -2.417987 -0.772403 -0.591806
v -0.416558 -0.629647 0.907713
v -0.477490 -0.397705 1.092852
v -0.895904 -0.195448 1.385736
v -1.206715 -0.244522 1.464603
v -0.477469 -0.397730 -1.091151
v -0.416536 -0.629672 -0.906012
v -0.158865 0.527027 -0.000023
v 0.017286 0.278193 -0.000023
v -0.942714 0.268068 1.246516
v -1.304715 0.577416 1.140244
v 0.008900 -0.034657 0.465788
v -0.228183 -0.077701 0.871621
v -0.336092 -0.929441 -0.219562
v -0.336092 -0.929441 0.221277
v -2.069887 -1.099728 -0.000001
v -2.384864 -1.017384 -0.000001
v -0.895925 -0.195474 -1.384658
v -1.206736 -0.244548 -1.464075
v -0.228371 -0.077739 -0.870339
v 0.008712 -0.034695 -0.465055
v -1.622951 -0.693984 -1.099617
v -1.674145 -0.974187 -0.614917
v -0.787526 -1.047801 -0.477773
v -1.210462 -1.145136 -0.257629
v -0.419907 0.244640 -0.892413
v -0.358974 0.536518 -0.487130
v -0.942726 0.268100 -1.245355
v -1.304727 0.577448 -1.139633
v -0.827848 0.910407 0.358611
v -1.250782 0.927876 0.658173
v 0.056862 -0.325658 0.249953
v -0.119288 -0.600644 0.470647
v -0.097117 0.273112 -0.472477
v -0.122361 -0.352327 -0.700433
v -0.049272 -0.645453 0.000571
v -0.122196 -0.352329 0.701667
v -0.096878 0.273180 0.473173
v -1.260542 1.067125 -0.000061
v -1.258663 0.189333 -1.395777
v -1.166840 -0.951550 -0.893906
v -1.166902 -0.951594 0.894387
v -1.258708 0.189339 1.396338
v -0.844385 0.679706 -0.878116
v -0.811455 -0.479581 -1.277569
v -0.757749 -1.122474 0.000592
v -0.811490 -0.479560 1.278636
v -0.844359 0.679818 0.878815
v -2.216715 -0.147178 -0.959266
v -2.141167 -0.932508 -0.605575
v -2.141197 -0.932492 0.605402
v -2.216771 -0.147159 0.959100
v -2.359874 0.368797 -0.000067
vt 0.184217 0.772114
vt 0.189685 0.806409
vt 0.205494 0.806409
vt 0.200622 0.819114
vt 0.195154 0.803447
vt 0.216430 0.837743
vt 0.200622 0.931026
vt 0.200622 0.893722
vt 0.216430 0.912351
vt 0.184217 0.978025
vt 0.189685 0.962359
vt 0.205494 0.943684
vt 0.200622 0.875000
vt 0.195154 0.909342
vt 0.216430 0.875000
vt 0.086755 0.798953
vt 0.086755 0.849651
vt 0.124711 0.824302
vt 0.100537 0.751953
vt 0.095943 0.767620
vt 0.128430 0.758673
vt 0.086755 0.875000
vt 0.091349 0.833984
vt 0.124710 0.856371
vt 0.100537 0.998047
vt 0.095943 0.957031
vt 0.133899 0.975707
vt 0.086755 0.951047
vt 0.091349 0.966714
vt 0.119242 0.960040
vt 0.195154 0.840705
vt 0.162666 0.849651
vt 0.189685 0.787781
vt 0.156324 0.765394
vt 0.200622 0.856418
vt 0.162666 0.837743
vt 0.195154 0.946692
vt 0.167260 0.953366
vt 0.189685 0.943684
vt 0.151730 0.969033
vt 0.091349 0.783286
vt 0.058488 0.824302
vt 0.095943 0.792969
vt 0.067676 0.792969
vt 0.091349 0.916016
vt 0.058488 0.875000
vt 0.095943 0.982380
vt 0.067676 0.957031
vt 0.086755 0.900349
vt 0.058488 0.925698
vt 0.226770 0.840705
vt 0.232239 0.875000
vt 0.248047 0.875000
vt 0.210962 0.840705
vt 0.232239 0.856371
vt 0.210962 0.822076
vt 0.232239 0.893675
vt 0.216430 0.875047
vt 0.226770 0.909342
vt 0.210962 0.928017
vt 0.210962 0.909342
vt 0.162666 0.900349
vt 0.124711 0.875000
vt 0.124711 0.925698
vt 0.151730 0.781060
vt 0.123836 0.774340
vt 0.119242 0.790007
vt 0.167260 0.796727
vt 0.129305 0.815356
vt 0.133899 0.774340
vt 0.162666 0.912351
vt 0.129305 0.934691
vt 0.124710 0.893675
vt 0.156324 0.984699
vt 0.123836 0.975706
vt 0.128430 0.991373
vt 0.157198 0.815356
vt 0.161792 0.781060
vt 0.162666 0.875047
vt 0.161792 0.969033
vt 0.157198 0.934691
vt 0.030220 0.849651
vt 0.034814 0.833984
vt 0.001953 0.875000
vt 0.063082 0.808635
vt 0.030220 0.875000
vt 0.063082 0.833984
vt 0.034814 0.916016
vt 0.063082 0.916016
vt 0.030220 0.900349
vt 0.063082 0.941365
vn 0.624800 0.322525 -0.711058
vn 0.722314 -0.518920 -0.457148
vn 0.705063 -0.660560 0.257967
vn 0.693596 -0.043247 0.719065
vn 0.626882 0.740415 0.242498
vn -0.142680 0.946507 -0.289424
vn -0.051631 0.159957 -0.985773
vn -0.170483 -0.956574 -0.236435
vn -0.176283 -0.619942 0.764589
vn -0.080761 0.683116 0.725830
vn 0.554005 0.787566 -0.269848
vn 0.501973 -0.186885 -0.844451
vn 0.378937 -0.889688 -0.254679
vn 0.457916 -0.675586 0.577838
vn 0.524555 0.401394 0.750817
vn -0.679521 0.500238 -0.536669
vn -0.211123 -0.610337 -0.763489
vn -0.064096 -0.968888 0.239058
vn -0.580180 -0.002803 0.814483
vn -0.713347 0.642892 0.278974
vn 0.913627 0.329310 -0.238413
vn 0.818561 0.269202 -0.507433
vn 0.922697 0.311772 -0.226780
vn 0.799743 0.566140 -0.199743
vn 0.718167 0.387090 -0.578272
vn 0.621124 0.588690 -0.517348
vn 0.690236 0.671129 -0.270480
vn 0.626766 0.740330 -0.243057
vn 0.972277 -0.012509 -0.233498
vn 0.891968 -0.302131 -0.336319
vn 0.925582 -0.114593 -0.360784
vn 0.862092 0.019496 -0.506377
vn 0.755050 -0.441677 -0.484583
vn 0.722002 -0.305752 -0.620668
vn 0.741515 -0.121961 -0.659759
vn 0.693414 -0.043482 -0.719226
vn 0.980252 -0.197752 -0.000219
vn 0.886546 -0.429098 0.172949
vn 0.949148 -0.314829 -0.000228
vn 0.886452 -0.429198 -0.173182
vn 0.756957 -0.630198 0.172817
vn 0.703590 -0.710606 -0.000000
vn 0.756852 -0.630262 -0.173046
vn 0.705012 -0.660626 -0.257937
vn 0.972449 -0.012380 0.232788
vn 0.862376 0.019748 0.505883
vn 0.925803 -0.114585 0.360221
vn 0.892197 -0.301993 0.335834
vn 0.741726 -0.121901 0.659532
vn 0.722217 -0.305567 0.620509
vn 0.755180 -0.441742 0.484321
vn 0.722542 -0.518720 0.457015
vn 0.913783 0.329404 0.237685
vn 0.799870 0.566230 0.198975
vn 0.922918 0.311709 0.225965
vn 0.818870 0.269216 0.506927
vn 0.690177 0.671465 0.269798
vn 0.621155 0.589045 0.516907
vn 0.718318 0.387406 0.577872
vn 0.624911 0.322789 0.710840
vn 0.380136 0.924930 -0.000059
vn 0.182129 0.962510 -0.201007
vn 0.340587 0.940213 -0.000061
vn 0.182071 0.962538 0.200925
vn -0.082749 0.974724 -0.207521
vn -0.208745 0.977970 0.000000
vn -0.082785 0.974740 0.207433
vn -0.142763 0.946502 0.289401
vn 0.417573 0.299901 -0.857725
vn 0.217305 0.177106 -0.959902
vn 0.347433 0.301855 -0.887791
vn 0.241069 0.554348 -0.796608
vn -0.062204 0.147926 -0.987040
vn -0.120936 0.441872 -0.888889
vn -0.023215 0.548755 -0.835661
vn -0.079609 0.683202 -0.725877
vn 0.264383 -0.853037 -0.449922
vn 0.071128 -0.955625 -0.285870
vn 0.275781 -0.850396 -0.448076
vn 0.116866 -0.732568 -0.670586
vn -0.120793 -0.947359 -0.296513
vn -0.240564 -0.829097 -0.504705
vn -0.103613 -0.726246 -0.679581
vn -0.175450 -0.620083 -0.764666
vn 0.263848 -0.853058 0.450195
vn 0.115995 -0.732557 0.670750
vn 0.275171 -0.850440 0.448366
vn 0.070686 -0.955619 0.286000
vn -0.104414 -0.726093 0.679623
vn -0.241167 -0.828939 0.504677
vn -0.121222 -0.947279 0.296592
vn -0.170897 -0.956507 0.236406
vn 0.416364 0.299854 0.858329
vn 0.239760 0.554363 0.796992
vn 0.346019 0.301773 0.888372
vn 0.215730 0.176946 0.960287
vn -0.024548 0.548592 0.835729
vn -0.122319 0.441638 0.888816
vn -0.063751 0.147655 0.986982
vn -0.053242 0.159618 0.985742
vn 0.075050 0.802224 -0.592288
vn 0.314453 0.863836 -0.393583
vn 0.161281 0.789253 -0.592510
vn 0.291909 0.596977 -0.747266
vn 0.519063 0.774936 -0.360622
vn 0.600615 0.603244 -0.524746
vn 0.497373 0.508373 -0.702977
vn 0.524902 0.400768 -0.750908
vn 0.022766 -0.402243 -0.915250
vn 0.277808 -0.265406 -0.923246
vn 0.217730 -0.355204 -0.909078
vn 0.246687 -0.599761 -0.761205
vn 0.511305 -0.165830 -0.843248
vn 0.517008 -0.446913 -0.730049
vn 0.473725 -0.517525 -0.712567
vn 0.458810 -0.675212 -0.577566
vn -0.041631 -0.999133 -0.000131
vn 0.140871 -0.976808 -0.161248
vn 0.050073 -0.998746 -0.000137
vn 0.140744 -0.976850 0.161107
vn 0.337686 -0.926567 -0.165656
vn 0.416251 -0.909250 0.000000
vn 0.337582 -0.926630 0.165514
vn 0.378810 -0.889735 0.254705
vn 0.021336 -0.402709 0.915079
vn 0.245385 -0.600211 0.761271
vn 0.216175 -0.355864 0.909192
vn 0.276339 -0.266025 0.923508
vn 0.472619 -0.518129 0.712863
vn 0.515965 -0.447492 0.730432
vn 0.510165 -0.166506 0.843805
vn 0.500826 -0.187536 0.844987
vn 0.074652 0.802597 0.591832
vn 0.291319 0.597540 0.747047
vn 0.160568 0.789720 0.592082
vn 0.314088 0.864213 0.393046
vn 0.496988 0.508936 0.702842
vn 0.600420 0.603759 0.524377
vn 0.518786 0.775342 0.360149
vn 0.553790 0.787876 0.269383
vn -0.937138 -0.087244 -0.337877
vn -0.866503 0.261747 -0.425042
vn -0.871509 -0.007619 -0.490321
vn -0.766993 -0.123191 -0.629718
vn -0.700183 0.380034 -0.604416
vn -0.636743 0.280135 -0.718389
vn -0.581625 -0.001263 -0.813456
vn -0.580078 -0.002721 -0.814556
vn -0.480340 -0.819568 -0.312380
vn -0.423441 -0.680716 -0.597766
vn -0.487439 -0.816070 -0.310535
vn -0.246090 -0.941326 -0.230966
vn -0.242003 -0.749784 -0.615840
vn -0.086725 -0.858488 -0.505448
vn -0.091010 -0.962622 -0.255100
vn -0.064095 -0.968888 -0.239058
vn -0.480326 -0.819552 0.312445
vn -0.246085 -0.941309 0.231040
vn -0.487402 -0.816066 0.310605
vn -0.423409 -0.680746 0.597754
vn -0.091132 -0.962592 0.255171
vn -0.086874 -0.858470 0.505452
vn -0.242158 -0.749750 0.615820
vn -0.211296 -0.610360 0.763423
vn -0.937129 -0.087251 0.337900
vn -0.766990 -0.123202 0.629720
vn -0.871493 -0.007652 0.490348
vn -0.866504 0.261749 0.425038
vn -0.581738 -0.001334 0.813375
vn -0.636847 0.280083 0.718317
vn -0.700254 0.379961 0.604378
vn -0.679574 0.500272 0.536570
vn -0.990405 0.138196 -0.000011
vn -0.894747 0.382618 0.230285
vn -0.964352 0.264624 -0.000006
vn -0.894747 0.382603 -0.230311
vn -0.737834 0.633550 0.232842
vn -0.700686 0.713470 0.000000
vn -0.737824 0.633556 -0.232859
vn -0.713327 0.642900 -0.279006
usemtl ColobotMesh_mat_1
s off
f 1/1/1 65/2/1 59/3/1
f 4/4/2 46/5/2 24/6/2
f 5/7/3 54/8/3 72/9/3
f 6/10/4 42/11/4 52/12/4
f 2/13/5 21/14/5 47/15/5
f 7/16/6 15/17/6 30/18/6
f 9/19/7 20/20/7 58/21/7
f 10/22/8 62/23/8 64/24/8
f 11/25/9 26/26/9 18/27/9
f 8/28/10 33/29/10 50/30/10
f 2/13/11 66/31/11 29/32/11
f 1/1/12 45/33/12 57/34/12
f 4/4/13 53/35/13 63/36/13
f 5/7/14 41/37/14 17/38/14
f 6/10/15 22/39/15 49/40/15
f 7/16/16 19/41/16 31/42/16
f 9/19/17 61/43/17 39/44/17
f 10/22/18 25/45/18 55/46/18
f 11/25/19 34/47/19 37/48/19
f 8/28/20 16/49/20 13/50/20
f 60/51/21 48/52/21 3/53/21
f 59/3/22 73/54/22 60/51/22
f 60/51/23 73/54/23 48/52/23
f 73/54/24 47/15/24 48/52/24
f 59/3/25 65/2/25 73/54/25
f 65/2/26 66/31/26 73/54/26
f 73/54/27 66/31/27 47/15/27
f 66/31/28 2/13/28 47/15/28
f 23/55/29 60/51/29 3/53/29
f 24/6/30 74/56/30 23/55/30
f 23/55/31 74/56/31 60/51/31
f 74/56/32 59/3/32 60/51/32
f 24/6/33 46/5/33 74/56/33
f 46/5/34 45/33/34 74/56/34
f 74/56/35 45/33/35 59/3/35
f 45/33/36 1/1/36 59/3/36
f 71/57/37 23/55/37 3/53/37
f 72/9/38 75/58/38 71/57/38
f 71/57/39 75/58/39 23/55/39
f 75/58/40 24/6/40 23/55/40
f 72/9/41 54/8/41 75/58/41
f 54/8/42 53/35/42 75/58/42
f 75/58/43 53/35/43 24/6/43
f 53/35/44 4/4/44 24/6/44
f 51/59/45 71/57/45 3/53/45
f 52/12/46 76/60/46 51/59/46
f 51/59/47 76/60/47 71/57/47
f 76/60/48 72/9/48 71/57/48
f 52/12/49 42/11/49 76/60/49
f 42/11/50 41/37/50 76/60/50
f 76/60/51 41/37/51 72/9/51
f 41/37/52 5/7/52 72/9/52
f 48/52/53 51/59/53 3/53/53
f 47/15/54 77/61/54 48/52/54
f 48/52/55 77/61/55 51/59/55
f 77/61/56 52/12/56 51/59/56
f 47/15/57 21/14/57 77/61/57
f 21/14/58 22/39/58 77/61/58
f 77/61/59 22/39/59 52/12/59
f 22/39/60 6/10/60 52/12/60
f 29/32/61 69/62/61 2/13/61
f 30/18/62 78/63/62 29/32/62
f 29/32/63 78/63/63 69/62/63
f 78/63/64 70/64/64 69/62/64
f 30/18/65 15/17/65 78/63/65
f 15/17/66 16/49/66 78/63/66
f 78/63/67 16/49/67 70/64/67
f 16/49/68 8/28/68 70/64/68
f 57/34/69 67/65/69 1/1/69
f 58/21/70 79/66/70 57/34/70
f 57/34/71 79/66/71 67/65/71
f 79/66/72 68/67/72 67/65/72
f 58/21/73 20/20/73 79/66/73
f 20/20/74 19/41/74 79/66/74
f 79/66/75 19/41/75 68/67/75
f 19/41/76 7/16/76 68/67/76
f 63/36/77 35/68/77 4/4/77
f 64/24/78 80/69/78 63/36/78
f 63/36/79 80/69/79 35/68/79
f 80/69/80 36/70/80 35/68/80
f 64/24/81 62/23/81 80/69/81
f 62/23/82 61/43/82 80/69/82
f 80/69/83 61/43/83 36/70/83
f 61/43/84 9/19/84 36/70/84
f 17/38/85 27/71/85 5/7/85
f 18/27/86 81/72/86 17/38/86
f 17/38/87 81/72/87 27/71/87
f 81/72/88 28/73/88 27/71/88
f 18/27/89 26/26/89 81/72/89
f 26/26/90 25/45/90 81/72/90
f 81/72/91 25/45/91 28/73/91
f 25/45/92 10/22/92 28/73/92
f 49/40/93 43/74/93 6/10/93
f 50/30/94 82/75/94 49/40/94
f 49/40/95 82/75/95 43/74/95
f 82/75/96 44/76/96 43/74/96
f 50/30/97 33/29/97 82/75/97
f 33/29/98 34/47/98 82/75/98
f 82/75/99 34/47/99 44/76/99
f 34/47/100 11/25/100 44/76/100
f 30/18/101 68/67/101 7/16/101
f 29/32/102 83/77/102 30/18/102
f 30/18/103 83/77/103 68/67/103
f 83/77/104 67/65/104 68/67/104
f 29/32/105 66/31/105 83/77/105
f 66/31/106 65/2/106 83/77/106
f 83/77/107 65/2/107 67/65/107
f 65/2/108 1/1/108 67/65/108
f 58/21/109 36/70/109 9/19/109
f 57/34/110 84/78/110 58/21/110
f 58/21/111 84/78/111 36/70/111
f 84/78/112 35/68/112 36/70/112
f 57/34/113 45/33/113 84/78/113
f 45/33/114 46/5/114 84/78/114
f 84/78/115 46/5/115 35/68/115
f 46/5/116 4/4/116 35/68/116
f 64/24/117 28/73/117 10/22/117
f 63/36/118 85/79/118 64/24/118
f 64/24/119 85/79/119 28/73/119
f 85/79/120 27/71/120 28/73/120
f 63/36/121 53/35/121 85/79/121
f 53/35/122 54/8/122 85/79/122
f 85/79/123 54/8/123 27/71/123
f 54/8/124 5/7/124 27/71/124
f 18/27/125 44/76/125 11/25/125
f 17/38/126 86/80/126 18/27/126
f 18/27/127 86/80/127 44/76/127
f 86/80/128 43/74/128 44/76/128
f 17/38/129 41/37/129 86/80/129
f 41/37/130 42/11/130 86/80/130
f 86/80/131 42/11/131 43/74/131
f 42/11/132 6/10/132 43/74/132
f 50/30/133 70/64/133 8/28/133
f 49/40/134 87/81/134 50/30/134
f 50/30/135 87/81/135 70/64/135
f 87/81/136 69/62/136 70/64/136
f 49/40/137 22/39/137 87/81/137
f 22/39/138 21/14/138 87/81/138
f 87/81/139 21/14/139 69/62/139
f 21/14/140 2/13/140 69/62/140
f 32/82/141 40/83/141 12/84/141
f 31/42/142 88/85/142 32/82/142
f 32/82/143 88/85/143 40/83/143
f 88/85/144 39/44/144 40/83/144
f 31/42/145 19/41/145 88/85/145
f 19/41/146 20/20/146 88/85/146
f 88/85/147 20/20/147 39/44/147
f 20/20/148 9/19/148 39/44/148
f 40/83/149 56/86/149 12/84/149
f 39/44/150 89/87/150 40/83/150
f 40/83/151 89/87/151 56/86/151
f 89/87/152 55/46/152 56/86/152
f 39/44/153 61/43/153 89/87/153
f 61/43/154 62/23/154 89/87/154
f 89/87/155 62/23/155 55/46/155
f 62/23/156 10/22/156 55/46/156
f 56/86/157 38/88/157 12/84/157
f 55/46/158 90/89/158 56/86/158
f 56/86/159 90/89/159 38/88/159
f 90/89/160 37/48/160 38/88/160
f 55/46/161 25/45/161 90/89/161
f 25/45/162 26/26/162 90/89/162
f 90/89/163 26/26/163 37/48/163
f 26/26/164 11/25/164 37/48/164
f 38/88/165 14/90/165 12/84/165
f 37/48/166 91/91/166 38/88/166
f 38/88/167 91/91/167 14/90/167
f 91/91/168 13/50/168 14/90/168
f 37/48/169 34/47/169 91/91/169
f 34/47/170 33/29/170 91/91/170
f 91/91/171 33/29/171 13/50/171
f 33/29/172 8/28/172 13/50/172
f 14/90/173 32/82/173 12/84/173
f 13/50/174 92/46/174 14/90/174
f 14/90/175 92/46/175 32/82/175
f 92/46/176 31/42/176 32/82/176
f 13/50/177 16/49/177 92/46/177
f 16/49/178 15/17/178 92/46/178
f 92/46/179 15/17/179 31/42/179
f 15/17/180 7/16/180 31/42/180
