# Blender v2.70 (sub 5) OBJ File: 'ant4.blend'
# www.blender.org
mtllib ant4.mtl
o ColobotMesh_1_ColobotMesh_
v 0.003225 -0.146778 -1.007300
v 0.124164 0.062695 -1.007300
v 0.003225 -0.250118 0.018752
v 0.213659 0.114365 0.018752
v -0.117715 0.062695 -1.007300
v -0.207210 0.114365 0.018752
v 0.197569 0.105075 -0.702174
v 0.227401 0.122299 -0.360156
v 0.151897 -0.027012 -0.725384
v 0.111584 -0.131283 -0.383367
v -0.191120 0.105075 -0.702174
v -0.220952 0.122299 -0.360156
v 0.003225 -0.231537 -0.702173
v 0.003225 -0.265984 -0.360156
v 0.110620 -0.150130 0.010088
v 0.180765 -0.028636 0.010088
v 0.057602 -0.085074 -1.031115
v 0.097915 -0.015249 -1.031115
v -0.053894 0.131565 -0.725385
v 0.056564 0.148788 -0.383367
v -0.174315 -0.028636 0.010088
v -0.104170 -0.150130 0.010088
v -0.091466 -0.015249 -1.031115
v -0.051152 -0.085074 -1.031115
v -0.088328 -0.125943 -0.725385
v -0.158473 -0.038895 -0.383367
v -0.037089 0.078935 -1.031115
v 0.043538 0.078935 -1.031115
v 0.073369 0.157378 0.010088
v -0.066920 0.157378 0.010088
v 0.088727 -0.153482 -0.735201
v 0.202933 -0.034666 -0.401745
v 0.087219 0.140094 -0.735201
v -0.072784 0.179591 -0.401746
v -0.166272 -0.008000 -0.735201
v -0.120476 -0.166314 -0.401746
v 0.010257 -0.003069 -1.057993
vt 0.001953 0.728456
vt 0.001953 0.733694
vt 0.083984 0.725872
vt 0.001953 0.744171
vt 0.083984 0.745463
vt 0.083984 0.736348
vt 0.001953 0.720703
vt 0.083984 0.729818
vt 0.001953 0.738933
vt 0.083984 0.734986
vt 0.796875 0.970703
vt 0.792318 0.979818
vt 0.801432 0.979818
vt 0.166016 0.723287
vt 0.166016 0.728526
vt 0.248047 0.720703
vt 0.083984 0.731110
vt 0.248047 0.729818
vt 0.166016 0.737640
vt 0.248047 0.738932
vt 0.166016 0.746755
vt 0.248047 0.748047
vt 0.166016 0.738932
vt 0.166016 0.741517
vt 0.083984 0.740225
vt 0.166016 0.732402
vt 0.805990 0.988932
vt 0.801432 0.998047
vt 0.810547 0.998047
vt 0.796875 0.988932
vt 0.792318 0.998047
vt 0.787760 0.988932
vt 0.783203 0.998047
vn 0.698515 -0.689488 -0.191528
vn 0.938344 -0.291914 -0.185195
vn 0.247859 0.949674 -0.191533
vn -0.216364 0.958587 -0.185194
vn -0.946371 -0.260187 -0.191533
vn -0.721972 -0.666678 -0.185192
vn 0.000000 -0.360070 -0.932925
vn 0.781106 -0.623852 0.026122
vn 0.656191 -0.750796 -0.075617
vn 0.778210 -0.627908 -0.010937
vn 0.895140 -0.444770 -0.030089
vn 0.602552 -0.761333 -0.239381
vn 0.848101 -0.489650 -0.202401
vn 0.886422 -0.429321 -0.173029
vn 0.947782 -0.264934 -0.177539
vn 0.679588 -0.732831 -0.033440
vn 0.708368 -0.694118 -0.128122
vn 0.723306 -0.689819 -0.031273
vn 0.864769 -0.499274 0.053859
vn 0.941714 -0.298287 -0.155559
vn 0.987932 -0.132941 -0.079475
vn 0.984208 -0.168108 0.055440
vn 0.973687 -0.225828 0.030585
vn 0.149704 0.988386 0.026125
vn 0.322104 0.943679 -0.075617
vn 0.154665 0.987906 -0.010934
vn -0.062395 0.997598 -0.030086
vn 0.358049 0.902495 -0.239382
vn -0.000000 0.979302 -0.202402
vn -0.071415 0.982325 -0.173027
vn -0.244450 0.953271 -0.177537
vn 0.294857 0.954956 -0.033444
vn 0.246947 0.960522 -0.128124
vn 0.235755 0.971309 -0.031276
vn 0.000000 0.998549 0.053858
vn -0.212530 0.964693 -0.155561
vn -0.378836 0.922045 -0.079475
vn -0.346518 0.936404 0.055440
vn -0.291270 0.956152 0.030584
vn -0.930818 -0.364547 0.026125
vn -0.978302 -0.192892 -0.075616
vn -0.932884 -0.360012 -0.010934
vn -0.832747 -0.552836 -0.030086
vn -0.960608 -0.141170 -0.239382
vn -0.848100 -0.489653 -0.202402
vn -0.815009 -0.553011 -0.173027
vn -0.703330 -0.688337 -0.177537
vn -0.974444 -0.222125 -0.033444
vn -0.955309 -0.266400 -0.128124
vn -0.959055 -0.281486 -0.031276
vn -0.864768 -0.499275 0.053858
vn -0.729176 -0.666411 -0.155561
vn -0.609087 -0.789111 -0.079476
vn -0.637682 -0.768302 0.055440
vn -0.682416 -0.730324 0.030580
vn 0.311830 0.180035 -0.932925
vn 0.269733 -0.155730 -0.950259
vn 0.311112 0.179621 -0.933245
vn 0.000001 0.311460 -0.950259
vn 0.000001 -0.311461 -0.950259
vn -0.237656 -0.137211 -0.961609
vn -0.269732 0.155730 -0.950259
vn -0.311830 0.180035 -0.932925
usemtl ColobotMesh_mat_1
s off
f 1/1/1 17/2/1 13/3/1
f 2/4/2 7/5/2 9/6/2
f 2/7/3 28/7/3 7/8/3
f 5/7/4 11/8/4 19/8/4
f 5/4/5 23/9/5 11/5/5
f 1/1/6 13/3/6 25/10/6
f 1/11/7 24/12/7 17/13/7
f 14/14/8 10/15/8 3/16/8
f 13/3/9 31/17/9 14/14/9
f 14/14/10 31/17/10 10/15/10
f 31/17/11 9/6/11 10/15/11
f 13/3/12 17/2/12 31/17/12
f 17/2/13 18/9/13 31/17/13
f 31/17/14 18/9/14 9/6/14
f 18/9/15 2/4/15 9/6/15
f 10/15/16 15/18/16 3/16/16
f 9/6/17 32/19/17 10/15/17
f 10/15/18 32/19/18 15/18/18
f 32/19/19 16/20/19 15/18/19
f 9/6/20 7/5/20 32/19/20
f 7/5/21 8/21/21 32/19/21
f 32/19/22 8/21/22 16/20/22
f 8/21/23 4/22/23 16/20/23
f 8/23/24 20/23/24 4/22/24
f 7/8/25 33/8/25 8/23/25
f 8/23/26 33/8/26 20/23/26
f 33/8/27 19/8/27 20/23/27
f 7/8/28 28/7/28 33/8/28
f 28/7/29 27/7/29 33/8/29
f 33/8/30 27/7/30 19/8/30
f 27/7/31 5/7/31 19/8/31
f 20/23/32 29/22/32 4/22/32
f 19/8/33 34/23/33 20/23/33
f 20/23/34 34/23/34 29/22/34
f 34/23/35 30/22/35 29/22/35
f 19/8/36 11/8/36 34/23/36
f 11/8/37 12/23/37 34/23/37
f 34/23/38 12/23/38 30/22/38
f 12/23/39 6/22/39 30/22/39
f 12/21/40 26/24/40 6/22/40
f 11/5/41 35/25/41 12/21/41
f 12/21/42 35/25/42 26/24/42
f 35/25/43 25/10/43 26/24/43
f 11/5/44 23/9/44 35/25/44
f 23/9/45 24/2/45 35/25/45
f 35/25/46 24/2/46 25/10/46
f 24/2/47 1/1/47 25/10/47
f 26/24/48 21/20/48 6/22/48
f 25/10/49 36/26/49 26/24/49
f 26/24/50 36/26/50 21/20/50
f 36/26/51 22/18/51 21/20/51
f 25/10/52 13/3/52 36/26/52
f 13/3/53 14/14/53 36/26/53
f 36/26/54 14/14/54 22/18/54
f 14/14/55 3/16/55 22/18/55
f 18/27/56 28/28/56 2/29/56
f 17/13/57 37/30/57 18/27/57
f 18/27/58 37/30/58 28/28/58
f 37/30/59 27/31/59 28/28/59
f 17/13/60 24/12/60 37/30/60
f 24/12/61 23/32/61 37/30/61
f 37/30/62 23/32/62 27/31/62
f 23/32/63 5/33/63 27/31/63
