# Blender v2.77 (sub 0) OBJ File: 'ant4.blend'
# www.blender.org
mtllib ant4.mtl
o ColobotMesh_1_ColobotMesh_
v 0.003225 -0.146778 -1.007300
v 0.124164 0.062695 -1.007300
v 0.003225 -0.250118 0.018752
v 0.213659 0.114365 0.018752
v -0.117715 0.062695 -1.007300
v -0.207210 0.114365 0.018752
v 0.197569 0.105075 -0.702174
v 0.227401 0.122299 -0.360156
v 0.151897 -0.027012 -0.725384
v 0.111584 -0.131283 -0.383367
v -0.191120 0.105075 -0.702174
v -0.220952 0.122299 -0.360156
v 0.003225 -0.231537 -0.702173
v 0.003225 -0.265984 -0.360156
v 0.110620 -0.150130 0.010088
v 0.180765 -0.028636 0.010088
v 0.057602 -0.085074 -1.031115
v 0.097915 -0.015249 -1.031115
v -0.053894 0.131565 -0.725385
v 0.056564 0.148788 -0.383367
v -0.174315 -0.028636 0.010088
v -0.104170 -0.150130 0.010088
v -0.091466 -0.015249 -1.031115
v -0.051152 -0.085074 -1.031115
v -0.088328 -0.125943 -0.725385
v -0.158473 -0.038895 -0.383367
v -0.037089 0.078935 -1.031115
v 0.043538 0.078935 -1.031115
v 0.073369 0.157378 0.010088
v -0.066920 0.157378 0.010088
v 0.088727 -0.153482 -0.735201
v 0.202933 -0.034666 -0.401745
v 0.087219 0.140094 -0.735201
v -0.072784 0.179591 -0.401746
v -0.166272 -0.008000 -0.735201
v -0.120476 -0.166314 -0.401746
v 0.010257 -0.003069 -1.057993
vt 0.0020 0.7285
vt 0.0020 0.7337
vt 0.0840 0.7259
vt 0.0020 0.7442
vt 0.0840 0.7455
vt 0.0840 0.7363
vt 0.0020 0.7207
vt 0.0020 0.7207
vt 0.0840 0.7298
vt 0.0020 0.7207
vt 0.0840 0.7298
vt 0.0840 0.7298
vt 0.0020 0.7442
vt 0.0020 0.7389
vt 0.0840 0.7455
vt 0.0840 0.7350
vt 0.7969 0.9707
vt 0.7923 0.9798
vt 0.8014 0.9798
vt 0.1660 0.7233
vt 0.1660 0.7285
vt 0.2480 0.7207
vt 0.0840 0.7311
vt 0.0020 0.7389
vt 0.2480 0.7298
vt 0.1660 0.7376
vt 0.2480 0.7389
vt 0.1660 0.7468
vt 0.2480 0.7480
vt 0.1660 0.7389
vt 0.1660 0.7389
vt 0.0840 0.7298
vt 0.0020 0.7207
vt 0.2480 0.7480
vt 0.1660 0.7389
vt 0.2480 0.7480
vt 0.1660 0.7389
vt 0.2480 0.7480
vt 0.1660 0.7468
vt 0.1660 0.7415
vt 0.0840 0.7402
vt 0.0020 0.7337
vt 0.2480 0.7389
vt 0.1660 0.7324
vt 0.2480 0.7298
vt 0.8060 0.9889
vt 0.8014 0.9980
vt 0.8105 0.9980
vt 0.7969 0.9889
vt 0.7923 0.9980
vt 0.7878 0.9889
vt 0.7832 0.9980
vn -0.0048 -0.8508 -0.5254
vn 0.5133 -0.5046 -0.6942
vn -0.0420 -0.9796 -0.1962
vn 0.7392 0.4212 -0.5254
vn 0.8694 0.4535 -0.1962
vn 0.9126 -0.3839 -0.1407
vn 0.1804 0.7022 -0.6887
vn -0.7344 0.4295 -0.5254
vn -0.8274 0.5262 -0.1962
vn -0.1238 0.9823 -0.1407
vn -0.6883 -0.1957 -0.6985
vn -0.7888 -0.5984 -0.1407
vn -0.5166 -0.5037 -0.6924
vn 0.0936 -0.9956 0.0003
vn 0.7562 -0.6534 -0.0342
vn 0.0184 -0.9998 0.0090
vn 0.7755 -0.6159 -0.1390
vn 0.7044 -0.1946 -0.6826
vn 0.7633 -0.6460 0.0003
vn 0.8980 -0.4363 -0.0559
vn 0.9327 -0.3576 0.0457
vn 0.8154 0.5789 0.0003
vn 0.8566 0.5158 0.0090
vn 0.1877 0.9816 -0.0342
vn 0.1456 0.9795 -0.1390
vn -0.1836 0.7020 -0.6880
vn 0.1778 0.9840 0.0003
vn -0.0711 0.9959 -0.0559
vn -0.1567 0.9866 0.0457
vn -0.9090 0.4167 0.0003
vn -0.8750 0.4840 0.0090
vn -0.9440 -0.3282 -0.0342
vn -0.9211 -0.3637 -0.1390
vn -0.9411 -0.3380 0.0003
vn -0.8269 -0.5595 -0.0559
vn -0.7761 -0.6290 0.0457
vn 0.0241 0.0139 -0.9996
usemtl ColobotMesh_mat_1
s 1
f 1/1/1 17/2/2 13/3/3
f 2/4/4 7/5/5 9/6/6
f 2/7/4 28/8/7 7/9/5
f 5/10/8 11/11/9 19/12/10
f 5/13/8 23/14/11 11/15/9
f 1/1/1 13/3/3 25/16/12
f 1/17/1 24/18/13 17/19/2
f 14/20/14 10/21/15 3/22/16
f 13/3/3 31/23/17 14/20/14
f 14/20/14 31/23/17 10/21/15
f 31/23/17 9/6/6 10/21/15
f 13/3/3 17/2/2 31/23/17
f 17/2/2 18/24/18 31/23/17
f 31/23/17 18/24/18 9/6/6
f 18/24/18 2/4/4 9/6/6
f 10/21/15 15/25/19 3/22/16
f 9/6/6 32/26/20 10/21/15
f 10/21/15 32/26/20 15/25/19
f 32/26/20 16/27/21 15/25/19
f 9/6/6 7/5/5 32/26/20
f 7/5/5 8/28/22 32/26/20
f 32/26/20 8/28/22 16/27/21
f 8/28/22 4/29/23 16/27/21
f 8/30/22 20/31/24 4/29/23
f 7/9/5 33/32/25 8/30/22
f 8/30/22 33/32/25 20/31/24
f 33/32/25 19/12/10 20/31/24
f 7/9/5 28/8/7 33/32/25
f 28/8/7 27/33/26 33/32/25
f 33/32/25 27/33/26 19/12/10
f 27/33/26 5/10/8 19/12/10
f 20/31/24 29/34/27 4/29/23
f 19/12/10 34/35/28 20/31/24
f 20/31/24 34/35/28 29/34/27
f 34/35/28 30/36/29 29/34/27
f 19/12/10 11/11/9 34/35/28
f 11/11/9 12/37/30 34/35/28
f 34/35/28 12/37/30 30/36/29
f 12/37/30 6/38/31 30/36/29
f 12/39/30 26/40/32 6/38/31
f 11/15/9 35/41/33 12/39/30
f 12/39/30 35/41/33 26/40/32
f 35/41/33 25/16/12 26/40/32
f 11/15/9 23/14/11 35/41/33
f 23/14/11 24/42/13 35/41/33
f 35/41/33 24/42/13 25/16/12
f 24/42/13 1/1/1 25/16/12
f 26/40/32 21/43/34 6/38/31
f 25/16/12 36/44/35 26/40/32
f 26/40/32 36/44/35 21/43/34
f 36/44/35 22/45/36 21/43/34
f 25/16/12 13/3/3 36/44/35
f 13/3/3 14/20/14 36/44/35
f 36/44/35 14/20/14 22/45/36
f 14/20/14 3/22/16 22/45/36
f 18/46/18 28/47/7 2/48/4
f 17/19/2 37/49/37 18/46/18
f 18/46/18 37/49/37 28/47/7
f 37/49/37 27/50/26 28/47/7
f 17/19/2 24/18/13 37/49/37
f 24/18/13 23/51/11 37/49/37
f 37/49/37 23/51/11 27/50/26
f 23/51/11 5/52/8 27/50/26
