# Blender v2.70 (sub 5) OBJ File: 'ant5.blend'
# www.blender.org
mtllib ant5.mtl
o ColobotMesh_1_ColobotMesh_
v -0.143932 0.077831 -1.983250
v 0.003225 -0.470033 -0.526880
v 0.213659 0.114365 -0.526880
v 0.003225 -0.007129 0.124618
v -0.207210 0.114365 -0.526880
v 0.003225 -0.177052 -1.983250
v 0.150381 0.077831 -1.983250
v 0.003002 -0.346894 -0.220181
v 0.003002 -0.192593 -0.003015
v 0.068923 -0.101031 -2.012806
v 0.117975 -0.016070 -2.012806
v 0.121587 -0.308870 -0.505585
v 0.191732 -0.114071 -0.505585
v 0.158024 0.090877 -0.231552
v 0.087879 0.050379 -0.014386
v -0.063991 -0.100722 -2.011964
v -0.113043 -0.015761 -2.011964
v -0.255490 0.144892 -1.546873
v -0.276582 0.157070 -1.061417
v 0.001238 -0.402570 -1.532438
v 0.001238 -0.500230 -1.046981
v -0.152534 0.091409 -0.231648
v -0.082389 0.050911 -0.014482
v 0.072985 0.160402 -0.516050
v -0.067304 0.160402 -0.516050
v -0.065685 0.176964 -1.562611
v 0.053512 0.189142 -1.077154
v 0.284895 0.160726 -1.064028
v 0.263802 0.148548 -1.549484
v 0.198632 -0.140478 -1.563042
v 0.149580 -0.323099 -1.077585
v -0.116077 -0.308895 -0.506431
v -0.186222 -0.114096 -0.506431
v -0.120280 -0.150550 -1.570752
v -0.190425 -0.053411 -1.085296
v -0.046830 0.098213 -2.011780
v 0.051274 0.098213 -2.011780
v 0.112114 -0.146543 -0.169816
v 0.002264 0.122541 -0.199045
v -0.107351 -0.146089 -0.170238
v 0.117743 -0.305296 -1.573746
v 0.308970 -0.131190 -1.075826
v 0.119524 0.195649 -1.580215
v -0.107883 0.260250 -1.081433
v -0.225029 0.003836 -1.583030
v -0.191829 -0.333272 -1.072941
v 0.009931 -0.000094 -2.044904
vt 0.783203 0.939453
vt 0.783203 0.948568
vt 0.792318 0.946673
vt 0.783203 0.966797
vt 0.792318 0.957682
vt 0.783203 0.957682
vt 0.792318 0.964902
vt 0.001953 0.735326
vt 0.001953 0.739566
vt 0.083984 0.730452
vt 0.001953 0.746337
vt 0.083984 0.746907
vt 0.083984 0.737792
vt 0.001953 0.720703
vt 0.083984 0.729818
vt 0.001953 0.744619
vt 0.001953 0.736647
vt 0.083984 0.745762
vt 0.001953 0.734412
vt 0.083984 0.729842
vt 0.083984 0.738957
vt 0.796875 0.970703
vt 0.792318 0.979818
vt 0.801432 0.979818
vt 0.801432 0.953892
vt 0.801432 0.963007
vt 0.810547 0.961112
vt 0.792318 0.955787
vt 0.801432 0.948568
vt 0.810547 0.939453
vt 0.166016 0.725577
vt 0.166016 0.729818
vt 0.248047 0.720703
vt 0.083984 0.734692
vt 0.083984 0.738932
vt 0.001953 0.743807
vt 0.001953 0.748047
vt 0.166016 0.729248
vt 0.248047 0.729818
vt 0.166016 0.738362
vt 0.248047 0.738932
vt 0.166016 0.747477
vt 0.248047 0.748047
vt 0.166016 0.738932
vt 0.166016 0.746904
vt 0.083984 0.737790
vt 0.001953 0.728675
vt 0.166016 0.743502
vt 0.166016 0.734387
vt 0.166016 0.725273
vt 0.805990 0.988932
vt 0.801432 0.998047
vt 0.810547 0.998047
vt 0.796875 0.988932
vt 0.792318 0.998047
vt 0.787760 0.988932
vt 0.783203 0.998047
vn 0.767167 -0.595068 0.239475
vn 0.317538 0.938662 0.134474
vn -0.981573 -0.074422 0.175998
vn 0.641676 -0.687064 -0.340874
vn 0.954572 -0.205099 -0.216164
vn 0.257003 0.940897 -0.220597
vn -0.179060 0.964521 -0.194001
vn -0.946613 -0.249956 -0.203585
vn -0.862657 -0.450816 -0.229322
vn -0.006742 -0.357286 -0.933971
vn 0.866660 -0.283537 0.410496
vn 0.775789 -0.514373 0.365474
vn 0.838153 -0.270628 0.473561
vn 0.951667 -0.109396 0.286988
vn 0.815270 -0.512006 0.270528
vn 0.924269 -0.332817 0.186975
vn 0.967436 -0.130707 0.216757
vn 0.980862 -0.077502 0.178616
vn 0.002669 0.923465 0.383674
vn 0.243189 0.936358 0.253166
vn 0.002707 0.931827 0.362892
vn -0.241656 0.936863 0.252766
vn 0.229565 0.959075 0.165758
vn -0.000000 0.992943 0.118589
vn -0.227682 0.959725 0.164587
vn -0.319039 0.938496 0.132059
vn -0.864934 -0.283820 0.413927
vn -0.951806 -0.106728 0.287532
vn -0.836355 -0.270847 0.476605
vn -0.773701 -0.516459 0.366956
vn -0.968133 -0.128619 0.214883
vn -0.924581 -0.332931 0.185223
vn -0.813818 -0.514454 0.270253
vn -0.765602 -0.597186 0.239213
vn 0.769107 -0.638209 0.034116
vn 0.599286 -0.784812 -0.157882
vn 0.758524 -0.647665 -0.071911
vn 0.897179 -0.435560 -0.073197
vn 0.493819 -0.766124 -0.411336
vn 0.822670 -0.474966 -0.312445
vn 0.871267 -0.410082 -0.269678
vn 0.938889 -0.249318 -0.237336
vn 0.801388 -0.595699 0.054038
vn 0.760068 -0.629807 -0.160124
vn 0.767933 -0.638296 0.053460
vn 0.921945 -0.331981 0.199513
vn 0.955334 -0.205446 -0.212435
vn 0.995439 0.083930 -0.045356
vn 0.977357 0.072572 0.198760
vn 0.988783 -0.083359 0.123936
vn 0.115646 0.988180 0.100627
vn 0.317343 0.947567 -0.037559
vn 0.120241 0.992332 0.028616
vn -0.100410 0.994946 -0.000305
vn 0.349117 0.900700 -0.258567
vn 0.000000 0.975448 -0.220232
vn -0.115379 0.977563 -0.176235
vn -0.251810 0.951384 -0.177372
vn 0.313427 0.948863 0.037724
vn 0.402892 0.907123 -0.121680
vn 0.402239 0.914943 0.032904
vn 0.000000 0.984761 0.173912
vn -0.178528 0.966768 -0.182994
vn -0.525065 0.849917 -0.044134
vn -0.496621 0.847937 0.185392
vn -0.318565 0.940715 0.116499
vn -0.918295 -0.385914 0.088345
vn -0.978720 -0.201752 -0.037463
vn -0.924457 -0.380737 0.020480
vn -0.827225 -0.561826 -0.007108
vn -0.958992 -0.144610 -0.243765
vn -0.848672 -0.489982 -0.199183
vn -0.809695 -0.562635 -0.166840
vn -0.707688 -0.686312 -0.167793
vn -0.995784 -0.091694 -0.002382
vn -0.989758 -0.001336 -0.142746
vn -0.999955 0.005362 0.007823
vn -0.931724 -0.335503 0.139025
vn -0.845054 -0.451103 -0.287036
vn -0.634662 -0.757611 -0.152410
vn -0.658564 -0.742890 0.120029
vn -0.800829 -0.597702 0.037762
vn 0.307168 0.187652 -0.932971
vn 0.260993 -0.150684 -0.953508
vn 0.305021 0.186408 -0.933924
vn -0.000001 0.319312 -0.947650
vn -0.006738 -0.306618 -0.951809
vn -0.239756 -0.138424 -0.960914
vn -0.274452 0.160976 -0.948031
vn -0.312294 0.182934 -0.932206
usemtl ColobotMesh_mat_1
s off
f 2/1/1 12/2/1 8/3/1
f 3/4/2 24/4/2 14/5/2
f 5/4/3 33/6/3 22/7/3
f 6/8/4 10/9/4 20/10/4
f 7/11/5 29/12/5 30/13/5
f 7/14/6 37/14/6 29/15/6
f 1/14/7 18/15/7 26/15/7
f 1/16/8 17/17/8 18/18/8
f 6/19/9 20/20/9 34/21/9
f 6/22/10 16/23/10 10/24/10
f 9/25/11 15/26/11 4/27/11
f 8/3/12 38/28/12 9/25/12
f 9/25/13 38/28/13 15/26/13
f 38/28/14 14/7/14 15/26/14
f 8/3/15 12/2/15 38/28/15
f 12/2/16 13/6/16 38/28/16
f 38/28/17 13/6/17 14/7/17
f 13/6/18 3/4/18 14/7/18
f 15/29/19 23/29/19 4/30/19
f 14/5/20 39/5/20 15/29/20
f 15/29/21 39/5/21 23/29/21
f 39/5/22 22/5/22 23/29/22
f 14/5/23 24/4/23 39/5/23
f 24/4/24 25/4/24 39/5/24
f 39/5/25 25/4/25 22/5/25
f 25/4/26 5/4/26 22/5/26
f 23/26/27 9/25/27 4/27/27
f 22/7/28 40/28/28 23/26/28
f 23/26/29 40/28/29 9/25/29
f 40/28/30 8/3/30 9/25/30
f 22/7/31 33/6/31 40/28/31
f 33/6/32 32/2/32 40/28/32
f 40/28/33 32/2/33 8/3/33
f 32/2/34 2/1/34 8/3/34
f 21/31/35 31/32/35 2/33/35
f 20/10/36 41/34/36 21/31/36
f 21/31/37 41/34/37 31/32/37
f 41/34/38 30/35/38 31/32/38
f 20/10/39 10/9/39 41/34/39
f 10/9/40 11/36/40 41/34/40
f 41/34/41 11/36/41 30/35/41
f 11/36/42 7/37/42 30/35/42
f 31/38/43 12/39/43 2/33/43
f 30/13/44 42/40/44 31/38/44
f 31/38/45 42/40/45 12/39/45
f 42/40/46 13/41/46 12/39/46
f 30/13/47 29/12/47 42/40/47
f 29/12/48 28/42/48 42/40/48
f 42/40/49 28/42/49 13/41/49
f 28/42/50 3/43/50 13/41/50
f 28/44/51 27/44/51 3/43/51
f 29/15/52 43/15/52 28/44/52
f 28/44/53 43/15/53 27/44/53
f 43/15/54 26/15/54 27/44/54
f 29/15/55 37/14/55 43/15/55
f 37/14/56 36/14/56 43/15/56
f 43/15/57 36/14/57 26/15/57
f 36/14/58 1/14/58 26/15/58
f 27/44/59 24/43/59 3/43/59
f 26/15/60 44/44/60 27/44/60
f 27/44/61 44/44/61 24/43/61
f 44/44/62 25/43/62 24/43/62
f 26/15/63 18/15/63 44/44/63
f 18/15/64 19/44/64 44/44/64
f 44/44/65 19/44/65 25/43/65
f 19/44/66 5/43/66 25/43/66
f 19/45/67 35/44/67 5/43/67
f 18/18/68 45/46/68 19/45/68
f 19/45/69 45/46/69 35/44/69
f 45/46/70 34/15/70 35/44/70
f 18/18/71 17/17/71 45/46/71
f 17/17/72 16/47/72 45/46/72
f 45/46/73 16/47/73 34/15/73
f 16/47/74 6/14/74 34/15/74
f 35/48/75 33/41/75 5/43/75
f 34/21/76 46/49/76 35/48/76
f 35/48/77 46/49/77 33/41/77
f 46/49/78 32/39/78 33/41/78
f 34/21/79 20/20/79 46/49/79
f 20/20/80 21/50/80 46/49/80
f 46/49/81 21/50/81 32/39/81
f 21/50/82 2/33/82 32/39/82
f 11/51/83 37/52/83 7/53/83
f 10/24/84 47/54/84 11/51/84
f 11/51/85 47/54/85 37/52/85
f 47/54/86 36/55/86 37/52/86
f 10/24/87 16/23/87 47/54/87
f 16/23/88 17/56/88 47/54/88
f 47/54/89 17/56/89 36/55/89
f 17/56/90 1/57/90 36/55/90
