# Blender v2.77 (sub 0) OBJ File: 'apollof.blend'
# www.blender.org
mtllib apollof.mtl
o ColobotMesh_1_ColobotMesh_
v 6.000000 9.958416 -0.195630
v -0.000000 9.958416 -0.195630
v 6.000000 9.999998 -0.200001
v -0.000000 9.999998 -0.200001
v 6.000000 9.999998 0.000001
v -0.000000 9.999998 0.000001
v -0.000000 -1.000000 0.000000
v -0.000000 -1.000000 -0.199999
v -0.000000 10.200000 -0.199999
v 0.041582 -1.000000 -0.195629
v 0.041582 10.200000 -0.195629
v 0.081347 -1.000000 -0.182708
v 0.081347 10.200000 -0.182708
v 0.117557 -1.000000 -0.161803
v 0.117557 10.200000 -0.161803
v 0.148629 -1.000000 -0.133826
v 0.148629 10.200000 -0.133826
v 0.173205 -1.000000 -0.099999
v 0.173205 10.200000 -0.099999
v 0.190211 -1.000000 -0.061803
v 0.190211 10.200000 -0.061803
v 0.198904 -1.000000 -0.020905
v 0.198904 10.200000 -0.020905
v 0.198904 -1.000000 0.020906
v 0.198904 10.200000 0.020906
v 0.190211 -1.000000 0.061804
v 0.190211 10.200000 0.061804
v 0.173205 -1.000000 0.100000
v 0.173205 10.200000 0.100000
v 0.148629 -1.000000 0.133826
v 0.148629 10.200000 0.133826
v 0.117557 -1.000000 0.161803
v 0.117557 10.200000 0.161803
v 0.081347 -1.000000 0.182709
v 0.081347 10.200000 0.182709
v 0.041582 -1.000000 0.195630
v 0.041582 10.200000 0.195630
v -0.000000 -1.000000 0.200000
v -0.000000 10.200000 0.200000
v -0.041582 -1.000000 0.195630
v -0.041582 10.200000 0.195630
v -0.081347 -1.000000 0.182709
v -0.081347 10.200000 0.182709
v -0.117557 -1.000000 0.161803
v -0.117557 10.200000 0.161803
v -0.148629 -1.000000 0.133826
v -0.148629 10.200000 0.133826
v -0.173205 -1.000000 0.100000
v -0.173205 10.200000 0.100000
v -0.190211 -1.000000 0.061804
v -0.190211 10.200000 0.061804
v -0.198904 -1.000000 0.020906
v -0.198904 10.200000 0.020906
v -0.198904 -1.000000 -0.020905
v -0.198904 10.200000 -0.020905
v -0.190211 -1.000000 -0.061803
v -0.190211 10.200000 -0.061803
v -0.173205 -1.000000 -0.099999
v -0.173205 10.200000 -0.099999
v -0.148629 -1.000000 -0.133825
v -0.148629 10.200000 -0.133825
v -0.117557 -1.000000 -0.161803
v -0.117557 10.200000 -0.161803
v -0.081348 -1.000000 -0.182708
v -0.081348 10.200000 -0.182708
v -0.041583 -1.000000 -0.195629
v -0.041583 10.200000 -0.195629
v -0.000000 9.918651 -0.182710
v 6.000000 9.918651 -0.182710
v -0.000000 9.882441 -0.161804
v 6.000000 9.882441 -0.161804
v -0.000000 9.851369 -0.133826
v 6.000000 9.851369 -0.133826
v -0.000000 9.826792 -0.100000
v 6.000000 9.826792 -0.100000
v -0.000000 9.809786 -0.061803
v 6.000000 9.809786 -0.061803
v -0.000000 9.801093 -0.020905
v 6.000000 9.801093 -0.020905
v -0.000000 9.801093 0.020906
v 6.000000 9.801093 0.020906
v -0.000000 9.809786 0.061804
v 6.000000 9.809786 0.061804
v -0.000000 9.826792 0.100001
v 6.000000 9.826792 0.100001
v -0.000000 9.851369 0.133828
v 6.000000 9.851369 0.133828
v -0.000000 9.882441 0.161805
v 6.000000 9.882441 0.161805
v -0.000000 9.918651 0.182711
v 6.000000 9.918651 0.182711
v -0.000000 9.958416 0.195631
v 6.000000 9.958416 0.195631
v -0.000000 9.999998 0.200002
v 6.000000 9.999998 0.200002
v -0.000000 10.041581 0.195631
v 6.000000 10.041581 0.195631
v -0.000000 10.081347 0.182711
v 6.000000 10.081347 0.182711
v -0.000000 10.117557 0.161805
v 6.000000 10.117557 0.161805
v -0.000000 10.148628 0.133828
v 6.000000 10.148628 0.133828
v -0.000000 10.173204 0.100001
v 6.000000 10.173204 0.100001
v -0.000000 10.190211 0.061804
v 6.000000 10.190211 0.061804
v -0.000000 10.198904 0.020906
v 6.000000 10.198904 0.020906
v -0.000000 10.198904 -0.020905
v 6.000000 10.198904 -0.020905
v -0.000000 10.190211 -0.061803
v 6.000000 10.190211 -0.061803
v -0.000000 10.173204 -0.100000
v 6.000000 10.173204 -0.100000
v -0.000000 10.148628 -0.133826
v 6.000000 10.148628 -0.133826
v -0.000000 10.117557 -0.161804
v 6.000000 10.117557 -0.161804
v -0.000000 10.081347 -0.182710
v 6.000000 10.081347 -0.182710
v -0.000000 10.041581 -0.195630
v 6.000000 10.041581 -0.195630
v -0.000000 10.200001 0.000000
v 5.994889 9.999998 -0.024999
v -0.000000 9.999998 -0.024999
v 0.000000 6.000000 -0.025000
v 5.994889 6.000000 -0.025000
v 6.000000 6.000000 0.025000
v 0.000000 6.000000 0.025000
v -0.000000 9.999998 0.025001
v 5.994889 9.999998 0.025001
v 6.000000 9.958416 -0.195630
v 6.000000 9.999998 -0.200001
v -0.000000 9.918651 -0.182710
v -0.000000 9.882441 -0.161804
v -0.000000 9.958416 -0.195630
v -0.000000 9.999998 -0.200001
v 6.000000 9.918651 -0.182710
v -0.000000 -1.000000 -0.199999
v 0.041582 -1.000000 -0.195629
v 0.041582 10.200000 -0.195629
v -0.000000 10.200000 -0.199999
v 0.081347 -1.000000 -0.182708
v 0.081347 10.200000 -0.182708
v 0.117557 -1.000000 -0.161803
v 0.117557 10.200000 -0.161803
v 0.148629 -1.000000 -0.133826
v 0.148629 10.200000 -0.133826
v 0.173205 -1.000000 -0.099999
v 0.173205 10.200000 -0.099999
v 0.190211 -1.000000 -0.061803
v 0.190211 10.200000 -0.061803
v 0.198904 -1.000000 -0.020905
v 0.198904 10.200000 -0.020905
v 0.198904 -1.000000 0.020906
v 0.198904 10.200000 0.020906
v 0.190211 -1.000000 0.061804
v 0.190211 10.200000 0.061804
v 0.173205 -1.000000 0.100000
v 0.173205 10.200000 0.100000
v 0.148629 -1.000000 0.133826
v 0.148629 10.200000 0.133826
v 0.117557 -1.000000 0.161803
v 0.117557 10.200000 0.161803
v 0.081347 -1.000000 0.182709
v 0.081347 10.200000 0.182709
v 0.041582 -1.000000 0.195630
v 0.041582 10.200000 0.195630
v -0.000000 -1.000000 0.200000
v -0.000000 10.200000 0.200000
v -0.041582 -1.000000 0.195630
v -0.041582 10.200000 0.195630
v -0.081347 -1.000000 0.182709
v -0.081347 10.200000 0.182709
v -0.117557 -1.000000 0.161803
v -0.117557 10.200000 0.161803
v -0.148629 -1.000000 0.133826
v -0.148629 10.200000 0.133826
v -0.173205 -1.000000 0.100000
v -0.173205 10.200000 0.100000
v -0.190211 -1.000000 0.061804
v -0.190211 10.200000 0.061804
v -0.198904 -1.000000 0.020906
v -0.198904 10.200000 0.020906
v -0.198904 -1.000000 -0.020905
v -0.198904 10.200000 -0.020905
v -0.190211 -1.000000 -0.061803
v -0.190211 10.200000 -0.061803
v -0.173205 -1.000000 -0.099999
v -0.173205 10.200000 -0.099999
v -0.148629 -1.000000 -0.133825
v -0.148629 10.200000 -0.133825
v -0.117557 -1.000000 -0.161803
v -0.117557 10.200000 -0.161803
v -0.081348 -1.000000 -0.182708
v -0.081348 10.200000 -0.182708
v -0.041583 -1.000000 -0.195629
v -0.041583 10.200000 -0.195629
v 6.000000 9.882441 -0.161804
v -0.000000 9.851369 -0.133826
v 6.000000 9.851369 -0.133826
v -0.000000 9.826792 -0.100000
v 6.000000 9.826792 -0.100000
v -0.000000 9.809786 -0.061803
v 6.000000 9.809786 -0.061803
v -0.000000 9.801093 -0.020905
v 6.000000 9.801093 -0.020905
v -0.000000 9.801093 0.020906
v 6.000000 9.801093 0.020906
v -0.000000 9.809786 0.061804
v 6.000000 9.809786 0.061804
v -0.000000 9.826792 0.100001
v 6.000000 9.826792 0.100001
v -0.000000 9.851369 0.133828
v 6.000000 9.851369 0.133828
v -0.000000 9.882441 0.161805
v 6.000000 9.882441 0.161805
v -0.000000 9.918651 0.182711
v 6.000000 9.918651 0.182711
v -0.000000 9.958416 0.195631
v 6.000000 9.958416 0.195631
v -0.000000 9.999998 0.200002
v 6.000000 9.999998 0.200002
v -0.000000 10.041581 0.195631
v 6.000000 10.041581 0.195631
v -0.000000 10.081347 0.182711
v 6.000000 10.081347 0.182711
v -0.000000 10.117557 0.161805
v 6.000000 10.117557 0.161805
v -0.000000 10.148628 0.133828
v 6.000000 10.148628 0.133828
v -0.000000 10.173204 0.100001
v 6.000000 10.173204 0.100001
v -0.000000 10.190211 0.061804
v 6.000000 10.190211 0.061804
v -0.000000 10.198904 0.020906
v 6.000000 10.198904 0.020906
v -0.000000 10.198904 -0.020905
v 6.000000 10.198904 -0.020905
v -0.000000 10.190211 -0.061803
v 6.000000 10.190211 -0.061803
v -0.000000 10.173204 -0.100000
v 6.000000 10.173204 -0.100000
v -0.000000 10.148628 -0.133826
v 6.000000 10.148628 -0.133826
v -0.000000 10.117557 -0.161804
v 6.000000 10.117557 -0.161804
v -0.000000 10.081347 -0.182710
v 6.000000 10.081347 -0.182710
v -0.000000 10.041581 -0.195630
v 6.000000 10.041581 -0.195630
v 0.000000 6.000000 -0.025000
v 5.994889 6.000000 -0.025000
v 5.994889 6.000000 -0.025000
v 5.994889 9.999998 -0.024999
v 5.994889 9.999998 0.025001
v 6.000000 6.000000 0.025000
v 6.000000 6.000000 0.025000
v 0.000000 6.000000 0.025000
vt 0.6095 0.9846
vt 0.6023 0.9747
vt 0.6045 0.9734
vt 0.5020 0.2421
vt 0.8965 0.2421
vt 0.8965 0.2409
vt 0.6105 0.9842
vt 0.6081 0.9728
vt 0.6105 0.9726
vt 0.6058 0.9736
vt 0.6069 0.9727
vt 0.5020 0.2397
vt 0.8965 0.2397
vt 0.8965 0.2387
vt 0.0000 0.0000
vt 0.0000 0.0000
vt 0.0000 0.0000
vt 0.6099 0.9727
vt 0.6099 0.9973
vt 0.6125 0.9973
vt 0.0000 0.0000
vt 0.6125 0.9727
vt 0.6150 0.9973
vt 0.0000 0.0000
vt 0.6150 0.9727
vt 0.6173 0.9973
vt 0.0000 0.0000
vt 0.6173 0.9727
vt 0.6192 0.9973
vt 0.0000 0.0000
vt 0.6192 0.9727
vt 0.6208 0.9973
vt 0.0000 0.0000
vt 0.6208 0.9727
vt 0.6218 0.9973
vt 0.0000 0.0000
vt 0.6218 0.9727
vt 0.6224 0.9973
vt 0.0000 0.0000
vt 0.6224 0.9727
vt 0.6224 0.9973
vt 0.0000 0.0000
vt 0.6224 0.9727
vt 0.6218 0.9973
vt 0.0000 0.0000
vt 0.6218 0.9727
vt 0.6208 0.9973
vt 0.0000 0.0000
vt 0.6208 0.9727
vt 0.6192 0.9973
vt 0.0000 0.0000
vt 0.6192 0.9727
vt 0.6173 0.9973
vt 0.0000 0.0000
vt 0.6173 0.9727
vt 0.6150 0.9973
vt 0.0000 0.0000
vt 0.6150 0.9727
vt 0.6125 0.9973
vt 0.0000 0.0000
vt 0.6125 0.9727
vt 0.6099 0.9973
vt 0.0000 0.0000
vt 0.6099 0.9727
vt 0.6073 0.9973
vt 0.0000 0.0000
vt 0.6073 0.9727
vt 0.6048 0.9973
vt 0.0000 0.0000
vt 0.6048 0.9727
vt 0.6026 0.9973
vt 0.0000 0.0000
vt 0.6026 0.9727
vt 0.6006 0.9973
vt 0.0000 0.0000
vt 0.6006 0.9727
vt 0.5991 0.9973
vt 0.0000 0.0000
vt 0.5991 0.9727
vt 0.5980 0.9973
vt 0.0000 0.0000
vt 0.5980 0.9727
vt 0.5975 0.9973
vt 0.0000 0.0000
vt 0.5975 0.9727
vt 0.5975 0.9973
vt 0.0000 0.0000
vt 0.5975 0.9727
vt 0.5980 0.9973
vt 0.0000 0.0000
vt 0.5980 0.9727
vt 0.5991 0.9973
vt 0.0000 0.0000
vt 0.5991 0.9727
vt 0.6006 0.9973
vt 0.0000 0.0000
vt 0.6006 0.9727
vt 0.6026 0.9973
vt 0.0000 0.0000
vt 0.6026 0.9727
vt 0.6048 0.9973
vt 0.0000 0.0000
vt 0.6048 0.9727
vt 0.6073 0.9973
vt 0.6073 0.9727
vt 0.6129 0.9728
vt 0.6095 0.9724
vt 0.5020 0.2409
vt 0.6153 0.9736
vt 0.6004 0.9764
vt 0.5020 0.2387
vt 0.8965 0.2377
vt 0.6174 0.9748
vt 0.5989 0.9785
vt 0.5020 0.2377
vt 0.8965 0.2370
vt 0.6192 0.9764
vt 0.5979 0.9808
vt 0.5020 0.2370
vt 0.8965 0.2365
vt 0.6206 0.9784
vt 0.5973 0.9833
vt 0.5020 0.2365
vt 0.8965 0.2363
vt 0.6216 0.9806
vt 0.5973 0.9859
vt 0.5020 0.2363
vt 0.8965 0.2363
vt 0.6221 0.9830
vt 0.5979 0.9884
vt 0.5020 0.2363
vt 0.8965 0.2365
vt 0.6221 0.9855
vt 0.5989 0.9907
vt 0.5020 0.2365
vt 0.8965 0.2370
vt 0.6216 0.9878
vt 0.6004 0.9928
vt 0.5020 0.2370
vt 0.8965 0.2377
vt 0.6206 0.9901
vt 0.6023 0.9945
vt 0.5020 0.2377
vt 0.8965 0.2387
vt 0.6192 0.9920
vt 0.6045 0.9958
vt 0.5020 0.2387
vt 0.8965 0.2397
vt 0.6174 0.9937
vt 0.6069 0.9966
vt 0.5020 0.2397
vt 0.8965 0.2409
vt 0.6153 0.9949
vt 0.6095 0.9968
vt 0.5020 0.2409
vt 0.8965 0.2421
vt 0.6129 0.9957
vt 0.6120 0.9966
vt 0.5020 0.2421
vt 0.8965 0.2434
vt 0.6105 0.9959
vt 0.6144 0.9958
vt 0.5020 0.2434
vt 0.8965 0.2446
vt 0.6081 0.9957
vt 0.6167 0.9945
vt 0.5020 0.2446
vt 0.8965 0.2456
vt 0.6058 0.9949
vt 0.6186 0.9928
vt 0.5020 0.2456
vt 0.8965 0.2466
vt 0.6037 0.9937
vt 0.6201 0.9907
vt 0.5020 0.2466
vt 0.8965 0.2473
vt 0.6018 0.9920
vt 0.6211 0.9884
vt 0.5020 0.2473
vt 0.8965 0.2478
vt 0.6004 0.9901
vt 0.6216 0.9859
vt 0.5020 0.2478
vt 0.8965 0.2480
vt 0.5994 0.9878
vt 0.6216 0.9833
vt 0.5020 0.2480
vt 0.8965 0.2480
vt 0.5989 0.9855
vt 0.6211 0.9808
vt 0.5020 0.2480
vt 0.8965 0.2478
vt 0.5989 0.9830
vt 0.6201 0.9785
vt 0.5020 0.2478
vt 0.8965 0.2473
vt 0.5994 0.9806
vt 0.6186 0.9764
vt 0.5020 0.2473
vt 0.8965 0.2466
vt 0.6004 0.9784
vt 0.6167 0.9747
vt 0.5020 0.2466
vt 0.8965 0.2456
vt 0.6018 0.9764
vt 0.6144 0.9734
vt 0.5020 0.2456
vt 0.8965 0.2446
vt 0.6037 0.9748
vt 0.6120 0.9727
vt 0.5020 0.2446
vt 0.8965 0.2434
vt 0.5020 0.2434
vt 0.5991 0.9973
vt 0.6006 0.9973
vt 0.5991 0.9973
vt 0.5991 0.9973
vt 0.5980 0.9973
vt 0.6173 0.9973
vt 0.6150 0.9973
vt 0.6173 0.9973
vt 0.6006 0.9973
vt 0.6006 0.9973
vt 0.6099 0.9973
vt 0.6125 0.9973
vt 0.6099 0.9973
vt 0.6150 0.9973
vt 0.6125 0.9973
vt 0.6208 0.9973
vt 0.6218 0.9973
vt 0.6208 0.9973
vt 0.6192 0.9973
vt 0.6192 0.9973
vt 0.6125 0.9973
vt 0.6099 0.9973
vt 0.6224 0.9973
vt 0.6218 0.9973
vt 0.5980 0.9973
vt 0.5980 0.9973
vt 0.6026 0.9973
vt 0.6224 0.9973
vt 0.6224 0.9973
vt 0.5975 0.9973
vt 0.6150 0.9973
vt 0.6173 0.9973
vt 0.6073 0.9973
vt 0.6048 0.9973
vt 0.6073 0.9973
vt 0.6048 0.9973
vt 0.6026 0.9973
vt 0.6218 0.9973
vt 0.5975 0.9973
vt 0.5975 0.9973
vt 0.6192 0.9973
vt 0.6026 0.9973
vt 0.6048 0.9973
vt 0.6073 0.9973
vt 0.6208 0.9973
vt 0.4894 0.0201
vt 0.8972 0.2582
vt 0.8972 0.0201
vt 0.4894 0.2582
vt 0.8972 0.2582
vt 0.4894 0.2582
vt 0.4894 0.0201
vt 0.8975 0.0201
vt 0.8965 0.2480
vt 0.8965 0.0176
vt 0.8965 0.0176
vt 0.4894 0.0201
vt 0.8972 0.0201
vt 0.8975 0.0201
vt 0.8975 0.0201
vt 0.8972 0.0201
vt 0.8972 0.2582
vt 0.5020 0.0176
vt 0.5020 0.0176
vt 0.8965 0.2480
vn 1.0000 0.0000 0.0000
vn 0.0000 0.0000 -1.0000
vn 0.0000 -0.2079 -0.9781
vn -1.0000 0.0000 0.0000
vn 0.0000 -0.4067 -0.9135
vn 0.0000 -0.5878 -0.8090
vn 0.0000 -1.0000 0.0000
vn 0.2079 0.0000 -0.9781
vn 0.4067 0.0000 -0.9135
vn 0.5878 0.0000 -0.8090
vn 0.7431 0.0000 -0.6691
vn 0.8660 0.0000 -0.5000
vn 0.9510 0.0000 -0.3090
vn 0.9945 0.0000 -0.1045
vn 0.9945 0.0000 0.1045
vn 0.9510 0.0000 0.3090
vn 0.8660 0.0000 0.5000
vn 0.7431 0.0000 0.6691
vn 0.5878 0.0000 0.8090
vn 0.4067 0.0000 0.9135
vn 0.2079 0.0000 0.9781
vn 0.0000 0.0000 1.0000
vn -0.2079 0.0000 0.9781
vn -0.4067 0.0000 0.9135
vn -0.5878 0.0000 0.8090
vn -0.7431 0.0000 0.6691
vn -0.8660 0.0000 0.5000
vn -0.9510 0.0000 0.3090
vn -0.9945 0.0000 0.1045
vn -0.9945 0.0000 -0.1045
vn -0.9510 0.0000 -0.3090
vn -0.8660 0.0000 -0.5000
vn -0.7431 0.0000 -0.6691
vn -0.5878 0.0000 -0.8090
vn -0.4067 0.0000 -0.9135
vn -0.2079 0.0000 -0.9781
vn 0.0000 -0.7431 -0.6691
vn 0.0000 -0.8660 -0.5000
vn 0.0000 -0.9510 -0.3090
vn 0.0000 -0.9945 -0.1045
vn 0.0000 -0.9945 0.1045
vn 0.0000 -0.9510 0.3090
vn 0.0000 -0.8660 0.5000
vn 0.0000 -0.7431 0.6691
vn 0.0000 -0.5878 0.8090
vn 0.0000 -0.4067 0.9135
vn 0.0000 -0.2079 0.9781
vn 0.0000 0.2079 0.9781
vn 0.0000 0.4067 0.9135
vn 0.0000 0.5878 0.8090
vn 0.0000 0.7431 0.6691
vn 0.0000 0.7432 0.6691
vn 0.0000 0.8660 0.5000
vn 0.0000 0.9510 0.3090
vn 0.0000 0.9945 0.1045
vn 0.0000 0.9945 -0.1045
vn 0.0000 0.9510 -0.3090
vn 0.0000 0.8660 -0.5000
vn 0.0000 0.7432 -0.6691
vn 0.0000 0.7431 -0.6691
vn 0.0000 0.5878 -0.8090
vn 0.0000 0.4067 -0.9135
vn 0.0000 0.2079 -0.9781
vn 0.0000 1.0000 0.0000
vn 0.9949 0.0013 -0.1009
vn 1.0000 0.0000 -0.0008
vn 0.9948 0.0013 -0.1017
usemtl ColobotMesh_mat_1
s 1
f 5/1/1 200/2/1 69/3/1
f 4/4/2 134/5/2 133/6/3
f 6/7/4 137/8/4 135/9/4
f 6/7/4 138/10/4 137/8/4
f 5/1/1 69/3/1 1/11/1
f 68/12/5 139/13/5 71/14/6
f 7/15/7 140/16/7 141/17/7
f 8/18/2 143/19/2 142/20/8
f 7/15/7 141/17/7 144/21/7
f 10/22/8 142/20/8 145/23/9
f 7/15/7 144/21/7 146/24/7
f 12/25/9 145/23/9 147/26/10
f 7/15/7 146/24/7 148/27/7
f 14/28/10 147/26/10 149/29/11
f 7/15/7 148/27/7 150/30/7
f 16/31/11 149/29/11 151/32/12
f 7/15/7 150/30/7 152/33/7
f 18/34/12 151/32/12 153/35/13
f 7/15/7 152/33/7 154/36/7
f 20/37/13 153/35/13 155/38/14
f 7/15/7 154/36/7 156/39/7
f 22/40/14 155/38/14 157/41/15
f 7/15/7 156/39/7 158/42/7
f 24/43/15 157/41/15 159/44/16
f 7/15/7 158/42/7 160/45/7
f 26/46/16 159/44/16 161/47/17
f 7/15/7 160/45/7 162/48/7
f 28/49/17 161/47/17 163/50/18
f 7/15/7 162/48/7 164/51/7
f 30/52/18 163/50/18 165/53/19
f 7/15/7 164/51/7 166/54/7
f 32/55/19 165/53/19 167/56/20
f 7/15/7 166/54/7 168/57/7
f 34/58/20 167/56/20 169/59/21
f 7/15/7 168/57/7 170/60/7
f 36/61/21 169/59/21 171/62/22
f 7/15/7 170/60/7 172/63/7
f 38/64/22 171/62/22 173/65/23
f 7/15/7 172/63/7 174/66/7
f 40/67/23 173/65/23 175/68/24
f 7/15/7 174/66/7 176/69/7
f 42/70/24 175/68/24 177/71/25
f 7/15/7 176/69/7 178/72/7
f 44/73/25 177/71/25 179/74/26
f 7/15/7 178/72/7 180/75/7
f 46/76/26 179/74/26 181/77/27
f 7/15/7 180/75/7 182/78/7
f 48/79/27 181/77/27 183/80/28
f 7/15/7 182/78/7 184/81/7
f 50/82/28 183/80/28 185/83/29
f 7/15/7 184/81/7 186/84/7
f 52/85/29 185/83/29 187/86/30
f 7/15/7 186/84/7 188/87/7
f 54/88/30 187/86/30 189/89/31
f 7/15/7 188/87/7 190/90/7
f 56/91/31 189/89/31 191/92/32
f 7/15/7 190/90/7 192/93/7
f 58/94/32 191/92/32 193/95/33
f 7/15/7 192/93/7 194/96/7
f 60/97/33 193/95/33 195/98/34
f 7/15/7 194/96/7 196/99/7
f 62/100/34 195/98/34 197/101/35
f 7/15/7 196/99/7 198/102/7
f 64/103/35 197/101/35 199/104/36
f 7/15/7 198/102/7 140/16/7
f 66/105/36 199/104/36 143/19/2
f 6/7/4 135/9/4 136/106/4
f 5/1/1 1/11/1 3/107/1
f 2/108/3 133/6/3 139/13/5
f 6/7/4 136/106/4 201/109/4
f 5/1/1 202/110/1 200/2/1
f 70/111/6 71/14/6 73/112/37
f 6/7/4 201/109/4 203/113/4
f 5/1/1 204/114/1 202/110/1
f 72/115/37 73/112/37 75/116/38
f 6/7/4 203/113/4 205/117/4
f 5/1/1 206/118/1 204/114/1
f 74/119/38 75/116/38 77/120/39
f 6/7/4 205/117/4 207/121/4
f 5/1/1 208/122/1 206/118/1
f 76/123/39 77/120/39 79/124/40
f 6/7/4 207/121/4 209/125/4
f 5/1/1 210/126/1 208/122/1
f 78/127/40 79/124/40 81/128/41
f 6/7/4 209/125/4 211/129/4
f 5/1/1 212/130/1 210/126/1
f 80/131/41 81/128/41 83/132/42
f 6/7/4 211/129/4 213/133/4
f 5/1/1 214/134/1 212/130/1
f 82/135/42 83/132/42 85/136/43
f 6/7/4 213/133/4 215/137/4
f 5/1/1 216/138/1 214/134/1
f 84/139/43 85/136/43 87/140/44
f 6/7/4 215/137/4 217/141/4
f 5/1/1 218/142/1 216/138/1
f 86/143/44 87/140/44 89/144/45
f 6/7/4 217/141/4 219/145/4
f 5/1/1 220/146/1 218/142/1
f 88/147/45 89/144/45 91/148/46
f 6/7/4 219/145/4 221/149/4
f 5/1/1 222/150/1 220/146/1
f 90/151/46 91/148/46 93/152/47
f 6/7/4 221/149/4 223/153/4
f 5/1/1 224/154/1 222/150/1
f 92/155/47 93/152/47 95/156/22
f 6/7/4 223/153/4 225/157/4
f 5/1/1 226/158/1 224/154/1
f 94/159/22 95/156/22 97/160/48
f 6/7/4 225/157/4 227/161/4
f 5/1/1 228/162/1 226/158/1
f 96/163/48 97/160/48 99/164/49
f 6/7/4 227/161/4 229/165/4
f 5/1/1 230/166/1 228/162/1
f 98/167/49 99/164/49 101/168/50
f 6/7/4 229/165/4 231/169/4
f 5/1/1 232/170/1 230/166/1
f 100/171/50 101/168/50 103/172/51
f 6/7/4 231/169/4 233/173/4
f 5/1/1 234/174/1 232/170/1
f 102/175/52 103/172/51 105/176/53
f 6/7/4 233/173/4 235/177/4
f 5/1/1 236/178/1 234/174/1
f 104/179/53 105/176/53 107/180/54
f 6/7/4 235/177/4 237/181/4
f 5/1/1 238/182/1 236/178/1
f 106/183/54 107/180/54 109/184/55
f 6/7/4 237/181/4 239/185/4
f 5/1/1 240/186/1 238/182/1
f 108/187/55 109/184/55 111/188/56
f 6/7/4 239/185/4 241/189/4
f 5/1/1 242/190/1 240/186/1
f 110/191/56 111/188/56 113/192/57
f 6/7/4 241/189/4 243/193/4
f 5/1/1 244/194/1 242/190/1
f 112/195/57 113/192/57 115/196/58
f 6/7/4 243/193/4 245/197/4
f 5/1/1 246/198/1 244/194/1
f 114/199/58 115/196/58 117/200/59
f 6/7/4 245/197/4 247/201/4
f 5/1/1 248/202/1 246/198/1
f 116/203/60 117/200/59 119/204/61
f 6/7/4 247/201/4 249/205/4
f 5/1/1 250/206/1 248/202/1
f 118/207/61 119/204/61 121/208/62
f 6/7/4 249/205/4 251/209/4
f 5/1/1 252/210/1 250/206/1
f 120/211/62 121/208/62 123/212/63
f 6/7/4 251/209/4 138/10/4
f 5/1/1 3/107/1 252/210/1
f 122/213/63 123/212/63 134/5/2
f 49/214/64 47/215/64 124/216/64
f 59/217/64 57/218/64 124/216/64
f 15/219/64 13/220/64 124/221/64
f 61/222/64 59/217/64 124/223/64
f 39/224/64 37/225/64 124/226/64
f 37/225/64 35/227/64 124/228/64
f 29/229/64 27/230/64 124/231/64
f 17/232/64 15/219/64 124/233/64
f 11/234/64 9/235/64 124/228/64
f 27/230/64 25/236/64 124/237/64
f 51/238/64 49/214/64 124/239/64
f 47/215/64 45/240/64 124/223/64
f 25/236/64 23/241/64 124/242/64
f 57/218/64 55/243/64 124/239/64
f 13/220/64 11/234/64 124/244/64
f 35/227/64 33/245/64 124/244/64
f 67/246/64 65/247/64 124/248/64
f 45/240/64 43/249/64 124/250/64
f 23/241/64 21/251/64 124/242/64
f 55/243/64 53/252/64 124/253/64
f 33/245/64 31/254/64 124/221/64
f 65/247/64 63/255/64 124/256/64
f 43/249/64 41/257/64 124/256/64
f 21/251/64 19/258/64 124/237/64
f 53/252/64 51/238/64 124/253/64
f 31/254/64 29/229/64 124/233/64
f 9/235/64 67/246/64 124/226/64
f 63/255/64 61/222/64 124/250/64
f 19/258/64 17/232/64 124/231/64
f 41/257/64 39/224/64 124/248/64
f 2/108/3 4/4/2 133/6/3
f 70/111/6 68/12/5 71/14/6
f 10/22/8 8/18/2 142/20/8
f 12/25/9 10/22/8 145/23/9
f 14/28/10 12/25/9 147/26/10
f 16/31/11 14/28/10 149/29/11
f 18/34/12 16/31/11 151/32/12
f 20/37/13 18/34/12 153/35/13
f 22/40/14 20/37/13 155/38/14
f 24/43/15 22/40/14 157/41/15
f 26/46/16 24/43/15 159/44/16
f 28/49/17 26/46/16 161/47/17
f 30/52/18 28/49/17 163/50/18
f 32/55/19 30/52/18 165/53/19
f 34/58/20 32/55/19 167/56/20
f 36/61/21 34/58/20 169/59/21
f 38/64/22 36/61/21 171/62/22
f 40/67/23 38/64/22 173/65/23
f 42/70/24 40/67/23 175/68/24
f 44/73/25 42/70/24 177/71/25
f 46/76/26 44/73/25 179/74/26
f 48/79/27 46/76/26 181/77/27
f 50/82/28 48/79/27 183/80/28
f 52/85/29 50/82/28 185/83/29
f 54/88/30 52/85/29 187/86/30
f 56/91/31 54/88/30 189/89/31
f 58/94/32 56/91/31 191/92/32
f 60/97/33 58/94/32 193/95/33
f 62/100/34 60/97/33 195/98/34
f 64/103/35 62/100/34 197/101/35
f 66/105/36 64/103/35 199/104/36
f 8/18/2 66/105/36 143/19/2
f 68/12/5 2/108/3 139/13/5
f 72/115/37 70/111/6 73/112/37
f 74/119/38 72/115/37 75/116/38
f 76/123/39 74/119/38 77/120/39
f 78/127/40 76/123/39 79/124/40
f 80/131/41 78/127/40 81/128/41
f 82/135/42 80/131/41 83/132/42
f 84/139/43 82/135/42 85/136/43
f 86/143/44 84/139/43 87/140/44
f 88/147/45 86/143/44 89/144/45
f 90/151/46 88/147/45 91/148/46
f 92/155/47 90/151/46 93/152/47
f 94/159/22 92/155/47 95/156/22
f 96/163/48 94/159/22 97/160/48
f 98/167/49 96/163/48 99/164/49
f 100/171/50 98/167/49 101/168/50
f 102/175/52 100/171/50 103/172/51
f 104/179/53 102/175/52 105/176/53
f 106/183/54 104/179/53 107/180/54
f 108/187/55 106/183/54 109/184/55
f 110/191/56 108/187/55 111/188/56
f 112/195/57 110/191/56 113/192/57
f 114/199/58 112/195/57 115/196/58
f 116/203/60 114/199/58 117/200/59
f 118/207/61 116/203/60 119/204/61
f 120/211/62 118/207/61 121/208/62
f 122/213/63 120/211/62 123/212/63
f 4/4/2 122/213/63 134/5/2
usemtl ColobotMesh_mat_2_[4096]
f 253/259/2 256/260/2 254/261/2
f 256/260/2 253/259/2 126/262/2
f 257/263/22 131/264/22 260/265/22
f 260/265/22 258/266/22 257/263/22
f 128/267/65 125/268/1 132/269/66
f 127/270/7 255/271/7 259/272/7
f 129/273/67 128/274/65 132/275/66
f 130/276/7 127/277/7 259/278/7
