# Blender v2.77 (sub 0) OBJ File: 'apolloj6.blend'
# www.blender.org
mtllib apolloj6.mtl
o ColobotMesh_1_ColobotMesh_
v 1.648650 0.383335 0.765932
v 1.252750 1.578430 -0.391472
v -0.006187 1.585640 -0.769700
v -0.006187 1.585640 0.765932
v -0.006187 1.987480 0.387704
v -0.006187 1.987480 -0.391472
v 1.992535 0.507509 -0.391472
v 1.648650 0.383336 -0.769700
v -1.661030 0.383335 0.765932
v -1.265130 1.578430 -0.391472
v -2.043190 0.507509 0.387704
v -2.043190 0.507509 -0.391472
v -1.661030 0.383336 -0.769700
v 1.252750 1.578430 0.387704
v 1.016560 1.253330 0.765932
v 1.992535 0.507509 0.387704
v 1.016560 1.253330 -0.769700
v -1.028930 1.253330 -0.769700
v -1.028930 1.253330 0.765932
v -1.265130 1.578430 0.387704
v 1.345911 0.836647 -0.769700
v -0.006187 1.818163 0.589705
v 1.345911 0.836647 0.765932
v -0.606372 1.692822 0.589705
v -0.530865 1.460438 0.765932
v -0.688179 1.944595 -0.001884
v -2.102285 0.550444 -0.001884
v 1.672031 1.084600 0.387704
v -1.736228 1.136726 -0.001884
v -1.358286 0.836647 -0.769700
v -1.684406 1.084600 -0.391472
v 1.864376 0.463325 -0.593473
v -1.309679 1.639746 -0.001884
v -0.606372 1.692822 -0.593473
v -1.358287 0.836648 0.765932
v -0.665905 1.876043 0.387704
v -1.165606 1.441447 -0.593473
v -0.006187 1.818163 -0.593473
v 2.054468 0.550444 -0.001884
v 0.653527 1.876042 0.387704
v -1.541654 0.980568 -0.593473
v 1.297298 1.639746 -0.001884
v 1.153230 1.441447 0.589705
v 0.653527 1.876042 -0.391472
v 0.518493 1.460438 -0.769700
v -1.165606 1.441447 0.589705
v 1.153230 1.441447 -0.593473
v 0.593997 1.692822 0.589705
v -1.876751 0.463325 0.589705
v 1.864376 0.463325 0.589705
v 0.593997 1.692822 -0.593473
v 1.672031 1.084600 -0.391472
v -0.665905 1.876043 -0.391472
v -1.684406 1.084600 0.387704
v 0.518493 1.460438 0.765932
v 0.675801 1.944595 -0.001884
v -1.541654 0.980568 0.589705
v 1.529279 0.980568 0.589705
v 1.723853 1.136725 -0.001884
v -0.006187 2.063270 -0.001884
v -0.530865 1.460438 -0.769700
v -1.876750 0.463325 -0.593473
v 1.529279 0.980568 -0.593473
vt 0.5337 0.9667
vt 0.5783 0.9667
vt 0.5783 0.9376
vt 0.5337 0.9085
vt 0.5337 0.9376
vt 0.5783 0.9085
vt 0.6228 0.9667
vt 0.6228 0.9376
vt 0.5783 0.9667
vt 0.6228 0.9085
vt 0.5783 0.9085
vt 0.5783 0.9376
vt 0.6228 0.9085
vt 0.6228 0.9376
vt 0.5783 0.9085
vt 0.6228 0.9667
vt 0.5783 0.9667
vt 0.5783 0.9376
vt 0.6228 0.9085
vt 0.6228 0.9376
vt 0.5783 0.9085
vt 0.5783 0.9376
vt 0.5337 0.9667
vt 0.5783 0.9667
vt 0.5337 0.9376
vt 0.6228 0.9667
vt 0.6228 0.9376
vt 0.5783 0.9376
vt 0.5337 0.9085
vt 0.5783 0.9085
vt 0.5337 0.9376
vt 0.6228 0.9085
vt 0.6228 0.9376
vt 0.5783 0.9376
vt 0.6228 0.9376
vt 0.5783 0.9085
vt 0.6228 0.9667
vt 0.5783 0.9667
vt 0.5783 0.9376
vt 0.5783 0.9667
vt 0.5337 0.9376
vt 0.6228 0.9667
vt 0.6228 0.9376
vt 0.5783 0.9376
vt 0.6228 0.9667
vt 0.5783 0.9667
vt 0.6228 0.9376
vt 0.5337 0.9667
vt 0.5337 0.9376
vt 0.5783 0.9376
vt 0.5337 0.9085
vt 0.5337 0.9376
vt 0.5783 0.9085
vt 0.5337 0.9667
vt 0.5337 0.9376
vt 0.5783 0.9667
vt 0.5337 0.9085
vt 0.5783 0.9085
vt 0.5783 0.9376
vt 0.5337 0.9667
vt 0.5783 0.9667
vt 0.5783 0.9376
vt 0.5337 0.9085
vt 0.5337 0.9376
vt 0.5783 0.9085
vt 0.5783 0.9376
vt 0.6228 0.9376
vt 0.6228 0.9085
vt 0.6228 0.9667
vt 0.6228 0.9085
vt 0.5337 0.9085
vt 0.5783 0.9085
vt 0.5337 0.9667
vt 0.5783 0.9667
vt 0.5337 0.9085
vt 0.5337 0.9376
vt 0.5337 0.9667
vt 0.5337 0.9085
vt 0.5783 0.9085
vt 0.6228 0.9085
vt 0.6228 0.9085
vt 0.5783 0.9085
vt 0.5337 0.9085
vt 0.6228 0.9667
vt 0.6228 0.9376
vt 0.6228 0.9085
vt 0.6228 0.9376
vt 0.6228 0.9667
vt 0.6228 0.9085
vt 0.6228 0.9376
vn -0.5546 0.7172 -0.4220
vn -0.7313 0.5296 -0.4297
vn -0.8069 0.5906 0.0002
vn -0.0073 0.6000 0.7999
vn -0.0092 0.6920 0.7218
vn -0.1759 0.5620 0.8082
vn 0.5601 0.7144 -0.4194
vn 0.4293 0.5453 -0.7200
vn 0.2736 0.8545 -0.4415
vn 0.3696 0.4730 -0.7997
vn 0.1759 0.5620 -0.8082
vn 0.1976 0.6357 -0.7462
vn 0.3615 0.4812 0.7986
vn 0.4186 0.5544 0.7193
vn 0.1880 0.5581 0.8082
vn 0.5546 0.7172 0.4220
vn 0.2809 0.8521 0.4415
vn 0.2138 0.6304 0.7462
vn 0.6144 0.7890 -0.0006
vn 0.3090 0.9510 0.0000
vn 0.8108 0.4528 -0.3710
vn 0.6290 0.3788 -0.6789
vn 0.7403 0.5226 -0.4228
vn 0.5139 0.3356 -0.7895
vn 0.4879 0.3584 -0.7959
vn 0.5517 0.4076 -0.7276
vn 0.5144 0.3435 0.7857
vn 0.6257 0.4085 0.6645
vn 0.4917 0.3531 0.7959
vn 0.7960 0.4658 0.3865
vn 0.7443 0.5125 0.4283
vn 0.5648 0.3968 0.7235
vn 0.8721 0.4893 -0.0019
vn 0.8199 0.5724 -0.0008
vn -0.4185 0.5544 -0.7193
vn -0.3615 0.4812 -0.7986
vn -0.4917 0.3531 -0.7959
vn -0.5569 0.4006 -0.7275
vn -0.3696 0.4730 0.7997
vn -0.4293 0.5453 0.7200
vn -0.4879 0.3585 0.7959
vn -0.5601 0.7144 0.4194
vn -0.7286 0.5334 0.4296
vn -0.5517 0.4076 0.7276
vn -0.6144 0.7890 0.0006
vn 0.0039 0.9059 -0.4235
vn 0.0092 0.6920 -0.7218
vn -0.2809 0.8521 -0.4415
vn 0.0073 0.6000 -0.7999
vn -0.1880 0.5581 -0.8082
vn -0.2138 0.6304 -0.7462
vn -0.0039 0.9059 0.4235
vn -0.2736 0.8545 0.4415
vn -0.1976 0.6357 0.7462
vn 0.0000 1.0000 0.0000
vn -0.3090 0.9510 0.0000
vn -0.8486 0.5291 0.0005
vn -0.7756 0.4830 0.4063
vn -0.7719 0.4859 -0.4099
vn -0.5942 0.3880 -0.7045
vn -0.5144 0.3435 -0.7857
vn -0.5139 0.3356 0.7895
vn -0.5966 0.3790 0.7074
usemtl ColobotMesh_mat_1
s 1
f 10/1/1 31/2/2 29/3/3
f 4/4/4 22/5/5 25/6/6
f 2/7/7 47/8/8 44/9/9
f 17/10/10 45/11/11 51/12/12
f 15/13/13 43/14/14 55/15/15
f 14/16/16 40/17/17 48/18/18
f 14/19/16 42/20/19 40/21/17
f 2/7/7 44/9/9 56/22/20
f 7/23/21 32/24/22 52/25/23
f 8/26/24 21/27/25 63/28/26
f 1/29/27 50/30/28 23/31/29
f 16/32/30 28/33/31 58/34/32
f 16/32/30 39/35/33 28/36/31
f 7/37/21 52/38/23 59/39/34
f 10/1/1 37/40/35 31/41/2
f 18/42/36 30/43/37 41/44/38
f 19/45/39 46/46/40 35/47/41
f 20/48/42 54/49/43 57/50/44
f 20/51/42 33/52/45 54/53/43
f 6/54/46 38/55/47 53/56/48
f 3/57/49 61/58/50 34/59/51
f 5/60/52 36/61/53 24/62/54
f 5/63/52 60/64/55 36/65/53
f 6/54/46 53/56/48 26/66/56
f 29/3/3 27/67/57 11/68/58
f 29/3/3 31/2/2 27/67/57
f 31/2/2 12/69/59 27/67/57
f 25/6/6 24/62/54 19/70/39
f 25/6/6 22/5/5 24/62/54
f 22/5/5 5/60/52 24/62/54
f 44/9/9 51/12/12 6/54/46
f 44/9/9 47/8/8 51/12/12
f 47/8/8 17/10/10 51/12/12
f 51/12/12 38/55/47 6/54/46
f 51/12/12 45/11/11 38/55/47
f 45/11/11 3/57/49 38/55/47
f 55/15/15 48/18/18 4/4/4
f 55/15/15 43/14/14 48/18/18
f 43/14/14 14/16/16 48/18/18
f 48/18/18 22/5/5 4/4/4
f 48/18/18 40/17/17 22/5/5
f 40/17/17 5/60/52 22/5/5
f 40/21/17 56/22/20 5/63/52
f 40/21/17 42/20/19 56/22/20
f 42/20/19 2/7/7 56/22/20
f 56/22/20 60/64/55 5/63/52
f 56/22/20 44/9/9 60/64/55
f 44/9/9 6/54/46 60/64/55
f 52/25/23 63/28/26 2/71/7
f 52/25/23 32/24/22 63/28/26
f 32/24/22 8/26/24 63/28/26
f 63/28/26 47/72/8 2/71/7
f 63/28/26 21/27/25 47/72/8
f 21/27/25 17/10/10 47/72/8
f 23/31/29 58/34/32 15/73/13
f 23/31/29 50/30/28 58/34/32
f 50/30/28 16/32/30 58/34/32
f 58/34/32 43/74/14 15/73/13
f 58/34/32 28/33/31 43/74/14
f 28/33/31 14/16/16 43/74/14
f 28/36/31 59/39/34 14/75/16
f 28/36/31 39/35/33 59/39/34
f 39/35/33 7/37/21 59/39/34
f 59/39/34 42/76/19 14/75/16
f 59/39/34 52/38/23 42/76/19
f 52/38/23 2/77/7 42/76/19
f 31/41/2 41/44/38 12/78/59
f 31/41/2 37/40/35 41/44/38
f 37/40/35 18/42/36 41/44/38
f 41/44/38 62/79/60 12/78/59
f 41/44/38 30/43/37 62/79/60
f 30/43/37 13/80/61 62/79/60
f 35/47/41 57/50/44 9/81/62
f 35/47/41 46/46/40 57/50/44
f 46/46/40 20/48/42 57/50/44
f 57/50/44 49/82/63 9/81/62
f 57/50/44 54/49/43 49/82/63
f 54/49/43 11/83/58 49/82/63
f 54/53/43 29/3/3 11/68/58
f 54/53/43 33/52/45 29/3/3
f 33/52/45 10/1/1 29/3/3
f 53/56/48 34/59/51 10/84/1
f 53/56/48 38/55/47 34/59/51
f 38/55/47 3/57/49 34/59/51
f 34/59/51 37/85/35 10/84/1
f 34/59/51 61/58/50 37/85/35
f 61/58/50 18/86/36 37/85/35
f 24/62/54 46/87/40 19/70/39
f 24/62/54 36/61/53 46/87/40
f 36/61/53 20/88/42 46/87/40
f 36/65/53 26/66/56 20/89/42
f 36/65/53 60/64/55 26/66/56
f 60/64/55 6/54/46 26/66/56
f 26/66/56 33/90/45 20/89/42
f 26/66/56 53/56/48 33/90/45
f 53/56/48 10/84/1 33/90/45
