# Blender v2.72 (sub 0) OBJ File: 'apollof.blend'
# www.blender.org
mtllib apollof.mtl
o ColobotMesh_1_ColobotMesh_
v 6.000000 9.958416 -0.195630
v -0.000000 9.958416 -0.195630
v 6.000000 9.999998 -0.200001
v -0.000000 9.999998 -0.200001
v 6.000000 9.999998 0.000001
v -0.000000 9.999998 0.000001
v -0.000000 -1.000000 0.000000
v -0.000000 -1.000000 -0.199999
v -0.000000 10.200000 -0.199999
v 0.041582 -1.000000 -0.195629
v 0.041582 10.200000 -0.195629
v 0.081347 -1.000000 -0.182708
v 0.081347 10.200000 -0.182708
v 0.117557 -1.000000 -0.161803
v 0.117557 10.200000 -0.161803
v 0.148629 -1.000000 -0.133826
v 0.148629 10.200000 -0.133826
v 0.173205 -1.000000 -0.099999
v 0.173205 10.200000 -0.099999
v 0.190211 -1.000000 -0.061803
v 0.190211 10.200000 -0.061803
v 0.198904 -1.000000 -0.020905
v 0.198904 10.200000 -0.020905
v 0.198904 -1.000000 0.020906
v 0.198904 10.200000 0.020906
v 0.190211 -1.000000 0.061804
v 0.190211 10.200000 0.061804
v 0.173205 -1.000000 0.100000
v 0.173205 10.200000 0.100000
v 0.148629 -1.000000 0.133826
v 0.148629 10.200000 0.133826
v 0.117557 -1.000000 0.161803
v 0.117557 10.200000 0.161803
v 0.081347 -1.000000 0.182709
v 0.081347 10.200000 0.182709
v 0.041582 -1.000000 0.195630
v 0.041582 10.200000 0.195630
v -0.000000 -1.000000 0.200000
v -0.000000 10.200000 0.200000
v -0.041582 -1.000000 0.195630
v -0.041582 10.200000 0.195630
v -0.081347 -1.000000 0.182709
v -0.081347 10.200000 0.182709
v -0.117557 -1.000000 0.161803
v -0.117557 10.200000 0.161803
v -0.148629 -1.000000 0.133826
v -0.148629 10.200000 0.133826
v -0.173205 -1.000000 0.100000
v -0.173205 10.200000 0.100000
v -0.190211 -1.000000 0.061804
v -0.190211 10.200000 0.061804
v -0.198904 -1.000000 0.020906
v -0.198904 10.200000 0.020906
v -0.198904 -1.000000 -0.020905
v -0.198904 10.200000 -0.020905
v -0.190211 -1.000000 -0.061803
v -0.190211 10.200000 -0.061803
v -0.173205 -1.000000 -0.099999
v -0.173205 10.200000 -0.099999
v -0.148629 -1.000000 -0.133825
v -0.148629 10.200000 -0.133825
v -0.117557 -1.000000 -0.161803
v -0.117557 10.200000 -0.161803
v -0.081348 -1.000000 -0.182708
v -0.081348 10.200000 -0.182708
v -0.041583 -1.000000 -0.195629
v -0.041583 10.200000 -0.195629
v -0.000000 9.918651 -0.182710
v 6.000000 9.918651 -0.182710
v -0.000000 9.882441 -0.161804
v 6.000000 9.882441 -0.161804
v -0.000000 9.851369 -0.133826
v 6.000000 9.851369 -0.133826
v -0.000000 9.826792 -0.100000
v 6.000000 9.826792 -0.100000
v -0.000000 9.809786 -0.061803
v 6.000000 9.809786 -0.061803
v -0.000000 9.801093 -0.020905
v 6.000000 9.801093 -0.020905
v -0.000000 9.801093 0.020906
v 6.000000 9.801093 0.020906
v -0.000000 9.809786 0.061804
v 6.000000 9.809786 0.061804
v -0.000000 9.826792 0.100001
v 6.000000 9.826792 0.100001
v -0.000000 9.851369 0.133828
v 6.000000 9.851369 0.133828
v -0.000000 9.882441 0.161805
v 6.000000 9.882441 0.161805
v -0.000000 9.918651 0.182711
v 6.000000 9.918651 0.182711
v -0.000000 9.958416 0.195631
v 6.000000 9.958416 0.195631
v -0.000000 9.999998 0.200002
v 6.000000 9.999998 0.200002
v -0.000000 10.041581 0.195631
v 6.000000 10.041581 0.195631
v -0.000000 10.081347 0.182711
v 6.000000 10.081347 0.182711
v -0.000000 10.117557 0.161805
v 6.000000 10.117557 0.161805
v -0.000000 10.148628 0.133828
v 6.000000 10.148628 0.133828
v -0.000000 10.173204 0.100001
v 6.000000 10.173204 0.100001
v -0.000000 10.190211 0.061804
v 6.000000 10.190211 0.061804
v -0.000000 10.198904 0.020906
v 6.000000 10.198904 0.020906
v -0.000000 10.198904 -0.020905
v 6.000000 10.198904 -0.020905
v -0.000000 10.190211 -0.061803
v 6.000000 10.190211 -0.061803
v -0.000000 10.173204 -0.100000
v 6.000000 10.173204 -0.100000
v -0.000000 10.148628 -0.133826
v 6.000000 10.148628 -0.133826
v -0.000000 10.117557 -0.161804
v 6.000000 10.117557 -0.161804
v -0.000000 10.081347 -0.182710
v 6.000000 10.081347 -0.182710
v -0.000000 10.041581 -0.195630
v 6.000000 10.041581 -0.195630
v -0.000000 10.200001 0.000000
v 5.994889 9.999998 -0.024999
v -0.000000 9.999998 -0.024999
v 0.000000 6.000000 -0.025000
v 5.994889 6.000000 -0.025000
v 6.000000 6.000000 0.025000
v 0.000000 6.000000 0.025000
v -0.000000 9.999998 0.025001
v 5.994889 9.999998 0.025001
vt 0.609471 0.984604
vt 0.602289 0.974719
vt 0.604501 0.973442
vt 0.501953 0.242150
vt 0.896484 0.242150
vt 0.896484 0.240917
vt 0.610513 0.984240
vt 0.608087 0.972827
vt 0.610513 0.972571
vt 0.605767 0.973581
vt 0.606930 0.972652
vt 0.501953 0.239738
vt 0.896484 0.239738
vt 0.896484 0.238665
vt 0.000000 0.000000
vt 0.609922 0.972671
vt 0.609922 0.997296
vt 0.612528 0.997296
vt 0.612528 0.972671
vt 0.615020 0.997296
vt 0.615020 0.972671
vt 0.617289 0.997296
vt 0.617289 0.972671
vt 0.619236 0.997296
vt 0.619236 0.972671
vt 0.620776 0.997296
vt 0.620776 0.972671
vt 0.621842 0.997296
vt 0.621842 0.972671
vt 0.622387 0.997296
vt 0.622387 0.972671
vt 0.607316 0.997296
vt 0.607316 0.972671
vt 0.604824 0.997296
vt 0.604824 0.972671
vt 0.602555 0.997296
vt 0.602555 0.972671
vt 0.600608 0.997296
vt 0.600608 0.972671
vt 0.599068 0.997296
vt 0.599068 0.972671
vt 0.598002 0.997296
vt 0.598002 0.972671
vt 0.597457 0.997296
vt 0.597457 0.972671
vt 0.612939 0.972826
vt 0.609470 0.972385
vt 0.501953 0.240917
vt 0.615259 0.973579
vt 0.600391 0.976428
vt 0.501953 0.238665
vt 0.896484 0.237743
vt 0.617372 0.974799
vt 0.598890 0.978495
vt 0.501953 0.237743
vt 0.896484 0.237015
vt 0.619186 0.976431
vt 0.597851 0.980828
vt 0.501953 0.237015
vt 0.896484 0.236511
vt 0.620620 0.978405
vt 0.597320 0.983327
vt 0.501953 0.236511
vt 0.896484 0.236253
vt 0.621612 0.980634
vt 0.597320 0.985881
vt 0.501953 0.236253
vt 0.622119 0.983020
vt 0.597851 0.988379
vt 0.622119 0.985460
vt 0.598890 0.990712
vt 0.621611 0.987846
vt 0.600391 0.992779
vt 0.620619 0.990075
vt 0.602289 0.994488
vt 0.619184 0.992048
vt 0.604501 0.995765
vt 0.617371 0.993680
vt 0.606930 0.996555
vt 0.615258 0.994900
vt 0.609470 0.996822
vt 0.612938 0.995653
vt 0.612011 0.996555
vt 0.896484 0.243383
vt 0.610512 0.995908
vt 0.614440 0.995766
vt 0.501953 0.243383
vt 0.896484 0.244562
vt 0.608087 0.995653
vt 0.616652 0.994489
vt 0.501953 0.244562
vt 0.896484 0.245635
vt 0.605767 0.994899
vt 0.618550 0.992780
vt 0.501953 0.245635
vt 0.896484 0.246556
vt 0.603655 0.993679
vt 0.620052 0.990713
vt 0.501953 0.246556
vt 0.896484 0.247285
vt 0.601842 0.992047
vt 0.621091 0.988379
vt 0.501953 0.247285
vt 0.896484 0.247789
vt 0.600408 0.990074
vt 0.621622 0.985881
vt 0.501953 0.247789
vt 0.896484 0.248047
vt 0.599416 0.987845
vt 0.621622 0.983326
vt 0.501953 0.248047
vt 0.598909 0.985460
vt 0.621091 0.980828
vt 0.598909 0.983020
vt 0.620052 0.978494
vt 0.599416 0.980634
vt 0.618551 0.976428
vt 0.600408 0.978406
vt 0.616652 0.974718
vt 0.601842 0.976433
vt 0.614440 0.973441
vt 0.603655 0.974800
vt 0.612011 0.972652
vt 0.489411 0.020140
vt 0.897171 0.258209
vt 0.897171 0.020140
vt 0.489411 0.258209
vt 0.897507 0.020140
vt 0.896484 0.017578
vt 0.501953 0.017578
vn 1.000000 0.000000 0.000000
vn -0.000000 -0.104500 -0.994500
vn -1.000000 0.000000 0.000000
vn 0.000000 -0.500000 -0.866000
vn 0.000000 -1.000000 0.000000
vn 0.104500 0.000000 -0.994500
vn 0.309000 -0.000000 -0.951100
vn 0.500000 0.000000 -0.866000
vn 0.669100 0.000000 -0.743100
vn 0.809000 0.000000 -0.587800
vn 0.913500 0.000000 -0.406700
vn 0.978100 0.000000 -0.207900
vn 0.978100 0.000000 0.207900
vn 0.913500 0.000000 0.406700
vn 0.809000 0.000000 0.587800
vn 0.669100 -0.000000 0.743100
vn 0.500000 -0.000000 0.866000
vn 0.309000 -0.000000 0.951100
vn 0.104500 0.000000 0.994500
vn -0.104500 0.000000 0.994500
vn -0.309000 -0.000000 0.951100
vn -0.500000 0.000000 0.866000
vn -0.669100 -0.000000 0.743100
vn -0.809000 -0.000000 0.587800
vn -0.913500 0.000000 0.406700
vn -0.978100 0.000000 0.207900
vn -0.978100 0.000000 -0.207900
vn -0.913500 0.000000 -0.406700
vn -0.809000 0.000000 -0.587800
vn -0.669100 0.000000 -0.743100
vn -0.500000 0.000000 -0.866000
vn -0.309000 -0.000000 -0.951100
vn -0.104500 0.000000 -0.994500
vn 0.000000 -0.309000 -0.951100
vn -0.000000 -0.669100 -0.743100
vn 0.000000 -0.809000 -0.587800
vn 0.000000 -0.913500 -0.406700
vn 0.000000 -0.978100 -0.207900
vn 0.000000 -0.978200 0.207900
vn 0.000000 -0.913500 0.406700
vn 0.000000 -0.809000 0.587800
vn 0.000000 -0.669100 0.743100
vn 0.000000 -0.500000 0.866000
vn 0.000000 -0.309000 0.951100
vn 0.000000 -0.104500 0.994500
vn 0.000000 0.104500 0.994500
vn 0.000000 0.309000 0.951100
vn 0.000000 0.500000 0.866000
vn 0.000000 0.669100 0.743100
vn -0.000000 0.809000 0.587800
vn 0.000000 0.913500 0.406700
vn -0.000000 0.978200 0.207900
vn 0.000000 1.000000 0.000000
vn 0.000000 0.978100 -0.207900
vn 0.000000 0.913500 -0.406800
vn 0.000000 0.809000 -0.587800
vn -0.000000 0.669100 -0.743100
vn 0.000000 0.500000 -0.866000
vn 0.000000 0.309000 -0.951100
vn 0.000000 0.104500 -0.994500
vn -0.000000 1.000000 0.000100
vn 0.000000 -0.978200 -0.207900
vn 0.000000 -0.978100 0.207900
vn -0.000000 0.913500 0.406800
vn 0.000000 0.978100 0.207900
vn 0.000000 0.978200 -0.207900
vn 0.000000 0.913500 -0.406700
vn 0.000000 0.000000 -1.000000
vn 0.000000 -0.000000 1.000000
vn 0.994800 0.001300 -0.101700
usemtl ColobotMesh_mat_1
s off
f 5/1/1 71/2/1 69/3/1
f 4/4/2 3/5/2 1/6/2
f 6/7/3 2/8/3 68/9/3
f 6/7/3 4/10/3 2/8/3
f 5/1/1 69/3/1 1/11/1
f 68/12/4 69/13/4 71/14/4
f 7/15/5 8/15/5 10/15/5
f 8/16/6 9/17/6 11/18/6
f 7/15/5 10/15/5 12/15/5
f 10/19/7 11/18/7 13/20/7
f 7/15/5 12/15/5 14/15/5
f 12/21/8 13/20/8 15/22/8
f 7/15/5 14/15/5 16/15/5
f 14/23/9 15/22/9 17/24/9
f 7/15/5 16/15/5 18/15/5
f 16/25/10 17/24/10 19/26/10
f 7/15/5 18/15/5 20/15/5
f 18/27/11 19/26/11 21/28/11
f 7/15/5 20/15/5 22/15/5
f 20/29/12 21/28/12 23/30/12
f 7/15/5 22/15/5 24/15/5
f 22/31/1 23/30/1 25/30/1
f 7/15/5 24/15/5 26/15/5
f 24/31/13 25/30/13 27/28/13
f 7/15/5 26/15/5 28/15/5
f 26/29/14 27/28/14 29/26/14
f 7/15/5 28/15/5 30/15/5
f 28/27/15 29/26/15 31/24/15
f 7/15/5 30/15/5 32/15/5
f 30/25/16 31/24/16 33/22/16
f 7/15/5 32/15/5 34/15/5
f 32/23/17 33/22/17 35/20/17
f 7/15/5 34/15/5 36/15/5
f 34/21/18 35/20/18 37/18/18
f 7/15/5 36/15/5 38/15/5
f 36/19/19 37/18/19 39/17/19
f 7/15/5 38/15/5 40/15/5
f 38/16/20 39/17/20 41/32/20
f 7/15/5 40/15/5 42/15/5
f 40/33/21 41/32/21 43/34/21
f 7/15/5 42/15/5 44/15/5
f 42/35/22 43/34/22 45/36/22
f 7/15/5 44/15/5 46/15/5
f 44/37/23 45/36/23 47/38/23
f 7/15/5 46/15/5 48/15/5
f 46/39/24 47/38/24 49/40/24
f 7/15/5 48/15/5 50/15/5
f 48/41/25 49/40/25 51/42/25
f 7/15/5 50/15/5 52/15/5
f 50/43/26 51/42/26 53/44/26
f 7/15/5 52/15/5 54/15/5
f 52/45/3 53/44/3 55/44/3
f 7/15/5 54/15/5 56/15/5
f 54/45/27 55/44/27 57/42/27
f 7/15/5 56/15/5 58/15/5
f 56/43/28 57/42/28 59/40/28
f 7/15/5 58/15/5 60/15/5
f 58/41/29 59/40/29 61/38/29
f 7/15/5 60/15/5 62/15/5
f 60/39/30 61/38/30 63/36/30
f 7/15/5 62/15/5 64/15/5
f 62/37/31 63/36/31 65/34/31
f 7/15/5 64/15/5 66/15/5
f 64/35/32 65/34/32 67/32/32
f 7/15/5 66/15/5 8/15/5
f 66/33/33 67/32/33 9/17/33
f 6/7/3 68/9/3 70/46/3
f 5/1/1 1/11/1 3/47/1
f 2/48/34 1/6/34 69/13/34
f 6/7/3 70/46/3 72/49/3
f 5/1/1 73/50/1 71/2/1
f 70/51/35 71/14/35 73/52/35
f 6/7/3 72/49/3 74/53/3
f 5/1/1 75/54/1 73/50/1
f 72/55/36 73/52/36 75/56/36
f 6/7/3 74/53/3 76/57/3
f 5/1/1 77/58/1 75/54/1
f 74/59/37 75/56/37 77/60/37
f 6/7/3 76/57/3 78/61/3
f 5/1/1 79/62/1 77/58/1
f 76/63/38 77/60/38 79/64/38
f 6/7/3 78/61/3 80/65/3
f 5/1/1 81/66/1 79/62/1
f 78/67/5 79/64/5 81/64/5
f 6/7/3 80/65/3 82/68/3
f 5/1/1 83/69/1 81/66/1
f 80/67/39 81/64/39 83/60/39
f 6/7/3 82/68/3 84/70/3
f 5/1/1 85/71/1 83/69/1
f 82/63/40 83/60/40 85/56/40
f 6/7/3 84/70/3 86/72/3
f 5/1/1 87/73/1 85/71/1
f 84/59/41 85/56/41 87/52/41
f 6/7/3 86/72/3 88/74/3
f 5/1/1 89/75/1 87/73/1
f 86/55/42 87/52/42 89/14/42
f 6/7/3 88/74/3 90/76/3
f 5/1/1 91/77/1 89/75/1
f 88/51/43 89/14/43 91/13/43
f 6/7/3 90/76/3 92/78/3
f 5/1/1 93/79/1 91/77/1
f 90/12/44 91/13/44 93/6/44
f 6/7/3 92/78/3 94/80/3
f 5/1/1 95/81/1 93/79/1
f 92/48/45 93/6/45 95/5/45
f 6/7/3 94/80/3 96/82/3
f 5/1/1 97/83/1 95/81/1
f 94/4/46 95/5/46 97/84/46
f 6/7/3 96/82/3 98/85/3
f 5/1/1 99/86/1 97/83/1
f 96/87/47 97/84/47 99/88/47
f 6/7/3 98/85/3 100/89/3
f 5/1/1 101/90/1 99/86/1
f 98/91/48 99/88/48 101/92/48
f 6/7/3 100/89/3 102/93/3
f 5/1/1 103/94/1 101/90/1
f 100/95/49 101/92/49 103/96/49
f 6/7/3 102/93/3 104/97/3
f 5/1/1 105/98/1 103/94/1
f 102/99/50 103/96/50 105/100/50
f 6/7/3 104/97/3 106/101/3
f 5/1/1 107/102/1 105/98/1
f 104/103/51 105/100/51 107/104/51
f 6/7/3 106/101/3 108/105/3
f 5/1/1 109/106/1 107/102/1
f 106/107/52 107/104/52 109/108/52
f 6/7/3 108/105/3 110/109/3
f 5/1/1 111/110/1 109/106/1
f 108/111/53 109/108/53 111/108/53
f 6/7/3 110/109/3 112/112/3
f 5/1/1 113/113/1 111/110/1
f 110/111/54 111/108/54 113/104/54
f 6/7/3 112/112/3 114/114/3
f 5/1/1 115/115/1 113/113/1
f 112/107/55 113/104/55 115/100/55
f 6/7/3 114/114/3 116/116/3
f 5/1/1 117/117/1 115/115/1
f 114/103/56 115/100/56 117/96/56
f 6/7/3 116/116/3 118/118/3
f 5/1/1 119/119/1 117/117/1
f 116/99/57 117/96/57 119/92/57
f 6/7/3 118/118/3 120/120/3
f 5/1/1 121/121/1 119/119/1
f 118/95/58 119/92/58 121/88/58
f 6/7/3 120/120/3 122/122/3
f 5/1/1 123/123/1 121/121/1
f 120/91/59 121/88/59 123/84/59
f 6/7/3 122/122/3 4/10/3
f 5/1/1 3/47/1 123/123/1
f 122/87/60 123/84/60 3/5/60
f 49/40/53 47/38/53 124/40/53
f 59/40/53 57/42/53 124/40/53
f 15/22/53 13/20/53 124/22/53
f 61/38/53 59/40/53 124/38/53
f 39/17/53 37/18/53 124/17/53
f 37/18/53 35/20/53 124/18/53
f 29/26/53 27/28/53 124/26/53
f 17/24/53 15/22/53 124/24/53
f 11/18/53 9/17/53 124/18/53
f 27/28/53 25/30/53 124/28/53
f 51/42/53 49/40/53 124/42/53
f 47/38/61 45/36/61 124/38/61
f 25/30/53 23/30/53 124/30/53
f 57/42/53 55/44/53 124/42/53
f 13/20/53 11/18/53 124/20/53
f 35/20/53 33/22/53 124/20/53
f 67/32/53 65/34/53 124/32/53
f 45/36/53 43/34/53 124/36/53
f 23/30/53 21/28/53 124/30/53
f 55/44/53 53/44/53 124/44/53
f 33/22/53 31/24/53 124/22/53
f 65/34/53 63/36/53 124/34/53
f 43/34/53 41/32/53 124/34/53
f 21/28/53 19/26/53 124/28/53
f 53/44/53 51/42/53 124/44/53
f 31/24/53 29/26/53 124/24/53
f 9/17/53 67/32/53 124/17/53
f 63/36/53 61/38/53 124/36/53
f 19/26/53 17/24/53 124/26/53
f 41/32/53 39/17/53 124/32/53
f 2/48/2 4/4/2 1/6/2
f 70/51/4 68/12/4 71/14/4
f 10/19/6 8/16/6 11/18/6
f 12/21/7 10/19/7 13/20/7
f 14/23/8 12/21/8 15/22/8
f 16/25/9 14/23/9 17/24/9
f 18/27/10 16/25/10 19/26/10
f 20/29/11 18/27/11 21/28/11
f 22/31/12 20/29/12 23/30/12
f 24/31/1 22/31/1 25/30/1
f 26/29/13 24/31/13 27/28/13
f 28/27/14 26/29/14 29/26/14
f 30/25/15 28/27/15 31/24/15
f 32/23/16 30/25/16 33/22/16
f 34/21/17 32/23/17 35/20/17
f 36/19/18 34/21/18 37/18/18
f 38/16/19 36/19/19 39/17/19
f 40/33/20 38/16/20 41/32/20
f 42/35/21 40/33/21 43/34/21
f 44/37/22 42/35/22 45/36/22
f 46/39/23 44/37/23 47/38/23
f 48/41/24 46/39/24 49/40/24
f 50/43/25 48/41/25 51/42/25
f 52/45/26 50/43/26 53/44/26
f 54/45/3 52/45/3 55/44/3
f 56/43/27 54/45/27 57/42/27
f 58/41/28 56/43/28 59/40/28
f 60/39/29 58/41/29 61/38/29
f 62/37/30 60/39/30 63/36/30
f 64/35/31 62/37/31 65/34/31
f 66/33/32 64/35/32 67/32/32
f 8/16/33 66/33/33 9/17/33
f 68/12/34 2/48/34 69/13/34
f 72/55/35 70/51/35 73/52/35
f 74/59/36 72/55/36 75/56/36
f 76/63/37 74/59/37 77/60/37
f 78/67/62 76/63/62 79/64/62
f 80/67/5 78/67/5 81/64/5
f 82/63/63 80/67/63 83/60/63
f 84/59/40 82/63/40 85/56/40
f 86/55/41 84/59/41 87/52/41
f 88/51/42 86/55/42 89/14/42
f 90/12/43 88/51/43 91/13/43
f 92/48/44 90/12/44 93/6/44
f 94/4/45 92/48/45 95/5/45
f 96/87/46 94/4/46 97/84/46
f 98/91/47 96/87/47 99/88/47
f 100/95/48 98/91/48 101/92/48
f 102/99/49 100/95/49 103/96/49
f 104/103/50 102/99/50 105/100/50
f 106/107/64 104/103/64 107/104/64
f 108/111/65 106/107/65 109/108/65
f 110/111/53 108/111/53 111/108/53
f 112/107/66 110/111/66 113/104/66
f 114/103/67 112/107/67 115/100/67
f 116/99/56 114/103/56 117/96/56
f 118/95/57 116/99/57 119/92/57
f 120/91/58 118/95/58 121/88/58
f 122/87/59 120/91/59 123/84/59
f 4/4/60 122/87/60 3/5/60
usemtl ColobotMesh_mat_2_[4096]
f 127/124/68 125/125/68 128/126/68
f 125/125/68 127/124/68 126/127/68
f 132/125/69 131/127/69 130/124/69
f 130/124/69 129/128/69 132/125/69
f 128/108/1 125/129/1 132/129/1
f 127/124/5 128/126/5 129/128/5
f 129/128/70 128/126/70 132/125/70
f 130/130/5 127/130/5 129/108/5
