# Blender v2.71 (sub 0) OBJ File: 'apolloj2.blend'
# www.blender.org
mtllib apolloj2.mtl
o ColobotMesh_1_ColobotMesh_
v 1.632880 -1.763100 1.785000
v 1.632880 -0.642385 2.432050
v 1.632880 -1.763110 -1.750530
v 1.632880 -2.410150 -0.629810
v 1.632880 -2.410150 0.664284
v 1.632880 -0.642386 -2.397580
v 3.323020 -0.245336 -0.232766
v 3.923020 -0.245336 -0.232766
v 3.923020 0.254664 0.267234
v 3.923020 -0.245336 0.267234
v 3.923020 0.254664 -0.232766
v 3.323020 0.254664 -0.232766
v 3.323020 0.254664 0.267234
v 3.323020 -0.245336 0.267234
v 0.408442 0.004664 0.017234
v 1.632880 0.135505 -2.479340
v 1.632778 0.395751 -2.451987
v 1.632677 0.651713 -2.397580
v 1.632578 0.900585 -2.316717
v 1.632483 1.139641 -2.210282
v 1.632392 1.366262 -2.079442
v 1.632306 1.577965 -1.925630
v 1.632226 1.772431 -1.750532
v 1.632154 1.947529 -1.556066
v 1.632090 2.101340 -1.344363
v 1.632034 2.232180 -1.117741
v 1.631988 2.338615 -0.878685
v 1.631951 2.419478 -0.629812
v 1.631924 2.473884 -0.373851
v 1.631908 2.501237 -0.113605
v 1.631903 2.501237 0.148075
v 1.631908 2.473884 0.408321
v 1.631924 2.419477 0.664283
v 1.631951 2.338614 0.913155
v 1.631988 2.232179 1.152211
v 1.632034 2.101339 1.378833
v 1.632090 1.947528 1.590536
v 1.632154 1.772430 1.785001
v 1.632226 1.577964 1.960099
v 1.632306 1.366261 2.113910
v 1.632392 1.139640 2.244750
v 1.632483 0.900584 2.351185
v 1.632578 0.651712 2.432048
v 1.632677 0.395751 2.486454
v 1.632778 0.135505 2.513808
v 1.632880 -0.126175 2.513808
v 1.632982 -0.386421 2.486455
v 1.633182 -0.891254 2.351186
v 1.633278 -1.130310 2.244751
v 1.633368 -1.356931 2.113912
v 1.633454 -1.568635 1.960101
v 1.633606 -1.938198 1.590538
v 1.633670 -2.092010 1.378835
v 1.633726 -2.222851 1.152214
v 1.633773 -2.329286 0.913158
v 1.633836 -2.464556 0.408326
v 1.633852 -2.491910 0.148080
v 1.633857 -2.491910 -0.113600
v 1.633852 -2.464558 -0.373846
v 1.633809 -2.329290 -0.878680
v 1.633773 -2.222856 -1.117736
v 1.633726 -2.092017 -1.344357
v 1.633670 -1.938206 -1.556061
v 1.633534 -1.568644 -1.925626
v 1.633454 -1.356941 -2.079438
v 1.633368 -1.130320 -2.210279
v 1.633278 -0.891265 -2.316714
v 1.633083 -0.386432 -2.451985
v 1.632982 -0.126186 -2.479339
v 1.632880 -1.763100 1.785000
v 1.632880 -0.642385 2.432050
v 1.632880 -1.763110 -1.750530
v 1.632880 -2.410150 -0.629810
v 1.632880 -2.410150 0.664284
v 1.632880 -0.642386 -2.397580
v 0.408442 0.004664 0.017234
v 1.632880 0.135505 -2.479340
v 1.632778 0.395751 -2.451987
v 1.632677 0.651713 -2.397580
v 1.632578 0.900585 -2.316717
v 1.632483 1.139641 -2.210282
v 1.632392 1.366262 -2.079442
v 1.632306 1.577965 -1.925630
v 1.632226 1.772431 -1.750532
v 1.632154 1.947529 -1.556066
v 1.632090 2.101340 -1.344363
v 1.632034 2.232180 -1.117741
v 1.631988 2.338615 -0.878685
v 1.631951 2.419478 -0.629812
v 1.631924 2.473884 -0.373851
v 1.631908 2.501237 -0.113605
v 1.631903 2.501237 0.148075
v 1.631908 2.473884 0.408321
v 1.631924 2.419477 0.664283
v 1.631951 2.338614 0.913155
v 1.631988 2.232179 1.152211
v 1.632034 2.101339 1.378833
v 1.632090 1.947528 1.590536
v 1.632154 1.772430 1.785001
v 1.632226 1.577964 1.960099
v 1.632306 1.366261 2.113910
v 1.632392 1.139640 2.244750
v 1.632483 0.900584 2.351185
v 1.632578 0.651712 2.432048
v 1.632677 0.395751 2.486454
v 1.632778 0.135505 2.513808
v 1.632880 -0.126175 2.513808
v 1.632982 -0.386421 2.486455
v 1.633182 -0.891254 2.351186
v 1.633278 -1.130310 2.244751
v 1.633368 -1.356931 2.113912
v 1.633454 -1.568635 1.960101
v 1.633606 -1.938198 1.590538
v 1.633670 -2.092010 1.378835
v 1.633726 -2.222851 1.152214
v 1.633773 -2.329286 0.913158
v 1.633836 -2.464556 0.408326
v 1.633852 -2.491910 0.148080
v 1.633857 -2.491910 -0.113600
v 1.633852 -2.464558 -0.373846
v 1.633809 -2.329290 -0.878680
v 1.633773 -2.222856 -1.117736
v 1.633726 -2.092017 -1.344357
v 1.633670 -1.938206 -1.556061
v 1.633534 -1.568644 -1.925626
v 1.633454 -1.356941 -2.079438
v 1.633368 -1.130320 -2.210279
v 1.633278 -0.891265 -2.316714
v 1.633083 -0.386432 -2.451985
v 1.632982 -0.126186 -2.479339
v -1.652780 0.004664 0.017237
v -1.652779 0.004664 -0.182766
v 3.347218 0.004664 -0.182766
v -1.652779 -0.036919 -0.178395
v 3.347218 -0.036919 -0.178395
v -1.652779 -0.076684 -0.165475
v 3.347218 -0.076684 -0.165475
v -1.652779 -0.112893 -0.144569
v 3.347218 -0.112893 -0.144569
v -1.652780 -0.143965 -0.116592
v 3.347218 -0.143965 -0.116592
v -1.652780 -0.168541 -0.082766
v 3.347218 -0.168541 -0.082766
v -1.652780 -0.185547 -0.044569
v 3.347218 -0.185547 -0.044569
v -1.652780 -0.194240 -0.003672
v 3.347218 -0.194240 -0.003672
v -1.652780 -0.194240 0.038140
v 3.347218 -0.194240 0.038140
v -1.652780 -0.185547 0.079037
v 3.347218 -0.185547 0.079037
v -1.652780 -0.168541 0.117234
v 3.347218 -0.168541 0.117234
v -1.652780 -0.143965 0.151060
v 3.347218 -0.143965 0.151060
v -1.652780 -0.112893 0.179037
v 3.347218 -0.112893 0.179037
v -1.652780 -0.076684 0.199943
v 3.347218 -0.076684 0.199943
v -1.652780 -0.036919 0.212863
v 3.347218 -0.036919 0.212863
v -1.652780 0.004664 0.217234
v 3.347218 0.004664 0.217234
v -1.652780 0.046246 0.212863
v 3.347218 0.046246 0.212863
v -1.652780 0.086011 0.199943
v 3.347218 0.086011 0.199943
v -1.652780 0.122221 0.179037
v 3.347218 0.122221 0.179037
v -1.652780 0.153292 0.151060
v 3.347218 0.153292 0.151060
v -1.652780 0.177869 0.117234
v 3.347218 0.177868 0.117234
v -1.652780 0.194875 0.079037
v 3.347218 0.194875 0.079037
v -1.652780 0.203568 0.038140
v 3.347218 0.203568 0.038140
v -1.652780 0.203568 -0.003672
v 3.347218 0.203568 -0.003672
v -1.652780 0.194875 -0.044569
v 3.347219 0.194875 -0.044569
v -1.652780 0.177869 -0.082766
v 3.347218 0.177869 -0.082766
v -1.652780 0.153293 -0.116592
v 3.347218 0.153293 -0.116592
v -1.652780 0.122221 -0.144569
v 3.347219 0.122221 -0.144569
v -1.652780 0.086011 -0.165475
v 3.347218 0.086011 -0.165475
v -1.652780 0.046246 -0.178395
v 3.347218 0.046246 -0.178395
vt 0.062500 0.498047
vt 0.099044 0.251953
vt 0.074654 0.251953
vt 0.123172 0.251953
vt 0.025950 0.251953
vt 0.002012 0.251953
vt 0.050217 0.251953
vt 0.640993 0.984602
vt 0.638005 0.970542
vt 0.640993 0.970227
vt 0.771484 0.501953
vt 0.771484 0.748047
vt 0.771186 0.748047
vt 0.643982 0.970542
vt 0.771187 0.501953
vt 0.770307 0.748047
vt 0.646840 0.971470
vt 0.770307 0.501953
vt 0.768884 0.748047
vt 0.649443 0.972973
vt 0.768884 0.501953
vt 0.766979 0.748047
vt 0.651676 0.974984
vt 0.766979 0.501953
vt 0.764676 0.748047
vt 0.653443 0.977415
vt 0.764677 0.501953
vt 0.762076 0.748047
vt 0.654665 0.980160
vt 0.762076 0.501953
vt 0.759292 0.748047
vt 0.655290 0.983100
vt 0.759292 0.501953
vt 0.756446 0.748047
vt 0.655290 0.986105
vt 0.756446 0.501953
vt 0.753662 0.748047
vt 0.654665 0.989045
vt 0.753662 0.501953
vt 0.751061 0.748047
vt 0.653443 0.991790
vt 0.751061 0.501953
vt 0.748759 0.748047
vt 0.651676 0.994221
vt 0.748759 0.501953
vt 0.746854 0.748047
vt 0.649443 0.996232
vt 0.746854 0.501953
vt 0.745431 0.748047
vt 0.646840 0.997735
vt 0.745431 0.501953
vt 0.744551 0.748047
vt 0.643982 0.998663
vt 0.744552 0.501953
vt 0.744254 0.748047
vt 0.640993 0.998978
vt 0.744254 0.501953
vt 0.638004 0.998663
vt 0.635146 0.997735
vt 0.632544 0.996232
vt 0.630311 0.994221
vt 0.628544 0.991790
vt 0.627322 0.989044
vt 0.626697 0.986105
vt 0.626697 0.983100
vt 0.627322 0.980160
vt 0.628544 0.977415
vt 0.630311 0.974984
vt 0.632544 0.972973
vt 0.635146 0.971470
vt 0.001953 0.751953
vt 0.248047 0.751953
vt 0.248047 0.998047
vt 0.001953 0.998047
vn -0.897800 0.045700 -0.437900
vn -0.897900 0.091200 -0.430700
vn -0.897900 0.135700 -0.418800
vn -0.897900 0.178800 -0.402300
vn -0.897900 0.219800 -0.381400
vn -0.897900 0.258500 -0.356300
vn -0.897900 0.294300 -0.327300
vn -0.897900 0.326900 -0.294700
vn -0.897900 0.355900 -0.258900
vn -0.897900 0.381000 -0.220200
vn -0.898000 0.402000 -0.179100
vn -0.898000 0.418500 -0.136100
vn -0.898000 0.430400 -0.091600
vn -0.898000 0.437600 -0.046100
vn -0.898000 0.440100 -0.000000
vn -0.898000 0.437600 0.046000
vn -0.898000 0.430400 0.091500
vn -0.898000 0.418500 0.136100
vn -0.898000 0.402000 0.179100
vn -0.898000 0.381000 0.220200
vn -0.897900 0.355900 0.258800
vn -0.897900 0.326900 0.294700
vn -0.897900 0.294300 0.327300
vn -0.897900 0.258500 0.356300
vn -0.897900 0.219800 0.381400
vn -0.897900 0.178800 0.402300
vn -0.897900 0.135700 0.418800
vn -0.897900 0.091200 0.430700
vn -0.897900 0.045700 0.437900
vn -0.897800 -0.000400 0.440300
vn -0.897800 -0.046400 0.437900
vn -0.897800 -0.179400 0.402200
vn -0.897800 -0.220500 0.381300
vn -0.897800 -0.259200 0.356200
vn -0.897700 -0.356500 0.258800
vn -0.897700 -0.381600 0.220100
vn -0.897700 -0.402600 0.179100
vn -0.897700 -0.438200 0.046000
vn -0.897700 -0.440600 -0.000000
vn -0.897700 -0.438200 -0.046000
vn -0.897700 -0.402600 -0.179100
vn -0.897700 -0.381600 -0.220200
vn -0.897700 -0.356500 -0.258800
vn -0.897700 -0.259200 -0.356200
vn -0.897800 -0.220500 -0.381300
vn -0.897800 -0.179400 -0.402300
vn -0.897800 -0.046400 -0.437900
vn -0.897800 -0.000400 -0.440400
vn -0.897800 -0.091200 0.430800
vn -0.897800 -0.137100 0.418500
vn -0.897800 -0.293200 0.328600
vn -0.897800 -0.329000 0.292900
vn -0.897800 -0.418000 0.139000
vn -0.897800 -0.431500 0.088400
vn -0.897800 -0.431500 -0.088300
vn -0.897800 -0.417900 -0.139100
vn -0.897800 -0.329100 -0.292700
vn -0.897800 -0.293000 -0.328800
vn -0.897800 -0.137400 -0.418400
vn -0.897800 -0.090900 -0.430900
vn 0.897800 -0.045700 0.437900
vn 0.897900 -0.091200 0.430700
vn 0.897900 -0.135700 0.418800
vn 0.897900 -0.178800 0.402300
vn 0.897900 -0.219800 0.381400
vn 0.897900 -0.258500 0.356300
vn 0.897900 -0.294300 0.327300
vn 0.897900 -0.326900 0.294700
vn 0.897900 -0.355900 0.258900
vn 0.897900 -0.381000 0.220200
vn 0.898000 -0.402000 0.179100
vn 0.898000 -0.418500 0.136100
vn 0.898000 -0.430400 0.091600
vn 0.898000 -0.437600 0.046100
vn 0.898000 -0.440100 0.000000
vn 0.898000 -0.437600 -0.046000
vn 0.898000 -0.430400 -0.091500
vn 0.898000 -0.418500 -0.136100
vn 0.898000 -0.402000 -0.179100
vn 0.898000 -0.381000 -0.220200
vn 0.897900 -0.355900 -0.258800
vn 0.897900 -0.326900 -0.294700
vn 0.897900 -0.294300 -0.327300
vn 0.897900 -0.258500 -0.356300
vn 0.897900 -0.219800 -0.381400
vn 0.897900 -0.178800 -0.402300
vn 0.897900 -0.135700 -0.418800
vn 0.897900 -0.091200 -0.430700
vn 0.897900 -0.045700 -0.437900
vn 0.897800 0.000400 -0.440300
vn 0.897800 0.046400 -0.437900
vn 0.897800 0.179400 -0.402200
vn 0.897800 0.220500 -0.381300
vn 0.897800 0.259200 -0.356200
vn 0.897700 0.356500 -0.258800
vn 0.897700 0.381600 -0.220100
vn 0.897700 0.402600 -0.179100
vn 0.897700 0.438200 -0.046000
vn 0.897700 0.440600 0.000000
vn 0.897700 0.438200 0.046000
vn 0.897700 0.402600 0.179100
vn 0.897700 0.381600 0.220200
vn 0.897700 0.356500 0.258800
vn 0.897700 0.259200 0.356200
vn 0.897800 0.220500 0.381300
vn 0.897800 0.179400 0.402300
vn 0.897800 0.046400 0.437900
vn 0.897800 0.000400 0.440400
vn 0.897800 0.091200 -0.430800
vn 0.897800 0.137100 -0.418500
vn 0.897800 0.293200 -0.328600
vn 0.897800 0.329000 -0.292900
vn 0.897800 0.418000 -0.139000
vn 0.897800 0.431500 -0.088400
vn 0.897800 0.431500 0.088300
vn 0.897800 0.417900 0.139100
vn 0.897800 0.329100 0.292700
vn 0.897800 0.293000 0.328800
vn 0.897800 0.137400 0.418400
vn 0.897800 0.090900 0.430900
vn -1.000000 -0.000000 -0.000000
vn 0.000000 -0.104500 -0.994500
vn 0.000000 -0.309000 -0.951100
vn -0.000000 -0.500000 -0.866000
vn -0.000000 -0.669100 -0.743100
vn -0.000000 -0.809000 -0.587800
vn -0.000000 -0.913500 -0.406700
vn 0.000000 -0.978100 -0.207900
vn 0.000000 -1.000000 0.000000
vn 0.000000 -0.978100 0.207900
vn -0.000000 -0.913500 0.406700
vn -0.000000 -0.809000 0.587800
vn -0.000000 -0.669100 0.743100
vn 0.000000 -0.500000 0.866000
vn 0.000000 -0.309000 0.951100
vn -0.000000 -0.104500 0.994500
vn -0.000000 0.104500 0.994500
vn 0.000000 0.309000 0.951100
vn 0.000000 0.500000 0.866000
vn 0.000000 0.669100 0.743100
vn 0.000000 0.809000 0.587800
vn 0.000000 0.913500 0.406700
vn 0.000000 0.978100 0.207900
vn 0.000000 1.000000 0.000000
vn 0.000000 0.978100 -0.207900
vn 0.000000 0.913500 -0.406700
vn 0.000000 0.809000 -0.587800
vn 0.000000 0.669100 -0.743100
vn 0.000000 0.500000 -0.866000
vn -0.000000 0.309000 -0.951100
vn 0.000000 0.104500 -0.994500
vn 1.000000 0.000000 0.000000
vn 0.000000 0.000000 1.000000
vn 0.000000 0.000000 -1.000000
usemtl ColobotMesh_mat_1
s off
f 15/1/1 17/2/1 16/3/1
f 15/1/2 18/4/2 17/2/2
f 15/1/3 19/5/3 18/6/3
f 15/1/4 20/7/4 19/5/4
f 15/1/5 21/3/5 20/7/5
f 15/1/6 22/2/6 21/3/6
f 15/1/7 23/4/7 22/2/7
f 15/1/8 24/5/8 23/6/8
f 15/1/9 25/7/9 24/5/9
f 15/1/10 26/3/10 25/7/10
f 15/1/11 27/2/11 26/3/11
f 15/1/12 28/4/12 27/2/12
f 15/1/13 29/5/13 28/6/13
f 15/1/14 30/7/14 29/5/14
f 15/1/15 31/3/15 30/7/15
f 15/1/16 32/2/16 31/3/16
f 15/1/17 33/4/17 32/2/17
f 15/1/18 34/5/18 33/6/18
f 15/1/19 35/7/19 34/5/19
f 15/1/20 36/3/20 35/7/20
f 15/1/21 37/2/21 36/3/21
f 15/1/22 38/4/22 37/2/22
f 15/1/23 39/5/23 38/6/23
f 15/1/24 40/7/24 39/5/24
f 15/1/25 41/3/25 40/7/25
f 15/1/26 42/2/26 41/3/26
f 15/1/27 43/4/27 42/2/27
f 15/1/28 44/5/28 43/6/28
f 15/1/29 45/7/29 44/5/29
f 15/1/30 46/3/30 45/7/30
f 15/1/31 47/2/31 46/3/31
f 15/1/32 49/7/32 48/5/32
f 15/1/33 50/3/33 49/7/33
f 15/1/34 51/2/34 50/3/34
f 15/1/35 53/7/35 52/5/35
f 15/1/36 54/3/36 53/7/36
f 15/1/37 55/2/37 54/3/37
f 15/1/38 57/7/38 56/5/38
f 15/1/39 58/3/39 57/7/39
f 15/1/40 59/2/40 58/3/40
f 15/1/41 61/7/41 60/5/41
f 15/1/42 62/3/42 61/7/42
f 15/1/43 63/2/43 62/3/43
f 15/1/44 65/7/44 64/5/44
f 15/1/45 66/3/45 65/7/45
f 15/1/46 67/2/46 66/3/46
f 15/1/47 69/7/47 68/5/47
f 15/1/48 16/3/48 69/7/48
f 15/1/49 2/4/49 47/2/49
f 15/1/50 48/5/50 2/6/50
f 15/1/51 1/4/51 51/2/51
f 15/1/52 52/5/52 1/6/52
f 15/1/53 5/4/53 55/2/53
f 15/1/54 56/5/54 5/6/54
f 15/1/55 4/4/55 59/2/55
f 15/1/56 60/5/56 4/6/56
f 15/1/57 3/4/57 63/2/57
f 15/1/58 64/5/58 3/6/58
f 15/1/59 6/4/59 67/2/59
f 15/1/60 68/5/60 6/6/60
f 76/1/61 77/3/61 78/2/61
f 76/1/62 78/2/62 79/4/62
f 76/1/63 79/6/63 80/5/63
f 76/1/64 80/5/64 81/7/64
f 76/1/65 81/7/65 82/3/65
f 76/1/66 82/3/66 83/2/66
f 76/1/67 83/2/67 84/4/67
f 76/1/68 84/6/68 85/5/68
f 76/1/69 85/5/69 86/7/69
f 76/1/70 86/7/70 87/3/70
f 76/1/71 87/3/71 88/2/71
f 76/1/72 88/2/72 89/4/72
f 76/1/73 89/6/73 90/5/73
f 76/1/74 90/5/74 91/7/74
f 76/1/75 91/7/75 92/3/75
f 76/1/76 92/3/76 93/2/76
f 76/1/77 93/2/77 94/4/77
f 76/1/78 94/6/78 95/5/78
f 76/1/79 95/5/79 96/7/79
f 76/1/80 96/7/80 97/3/80
f 76/1/81 97/3/81 98/2/81
f 76/1/82 98/2/82 99/4/82
f 76/1/83 99/6/83 100/5/83
f 76/1/84 100/5/84 101/7/84
f 76/1/85 101/7/85 102/3/85
f 76/1/86 102/3/86 103/2/86
f 76/1/87 103/2/87 104/4/87
f 76/1/88 104/6/88 105/5/88
f 76/1/89 105/5/89 106/7/89
f 76/1/90 106/7/90 107/3/90
f 76/1/91 107/3/91 108/2/91
f 76/1/92 109/5/92 110/7/92
f 76/1/93 110/7/93 111/3/93
f 76/1/94 111/3/94 112/2/94
f 76/1/95 113/5/95 114/7/95
f 76/1/96 114/7/96 115/3/96
f 76/1/97 115/3/97 116/2/97
f 76/1/98 117/5/98 118/7/98
f 76/1/99 118/7/99 119/3/99
f 76/1/100 119/3/100 120/2/100
f 76/1/101 121/5/101 122/7/101
f 76/1/102 122/7/102 123/3/102
f 76/1/103 123/3/103 124/2/103
f 76/1/104 125/5/104 126/7/104
f 76/1/105 126/7/105 127/3/105
f 76/1/106 127/3/106 128/2/106
f 76/1/107 129/5/107 130/7/107
f 76/1/108 130/7/108 77/3/108
f 76/1/109 108/2/109 71/4/109
f 76/1/110 71/6/110 109/5/110
f 76/1/111 112/2/111 70/4/111
f 76/1/112 70/6/112 113/5/112
f 76/1/113 116/2/113 74/4/113
f 76/1/114 74/6/114 117/5/114
f 76/1/115 120/2/115 73/4/115
f 76/1/116 73/6/116 121/5/116
f 76/1/117 124/2/117 72/4/117
f 76/1/118 72/6/118 125/5/118
f 76/1/119 128/2/119 75/4/119
f 76/1/120 75/6/120 129/5/120
f 131/8/121 132/9/121 134/10/121
f 132/11/122 133/12/122 135/13/122
f 131/8/121 134/10/121 136/14/121
f 134/15/123 135/13/123 137/16/123
f 131/8/121 136/14/121 138/17/121
f 136/18/124 137/16/124 139/19/124
f 131/8/121 138/17/121 140/20/121
f 138/21/125 139/19/125 141/22/125
f 131/8/121 140/20/121 142/23/121
f 140/24/126 141/22/126 143/25/126
f 131/8/121 142/23/121 144/26/121
f 142/27/127 143/25/127 145/28/127
f 131/8/121 144/26/121 146/29/121
f 144/30/128 145/28/128 147/31/128
f 131/8/121 146/29/121 148/32/121
f 146/33/129 147/31/129 149/34/129
f 131/8/121 148/32/121 150/35/121
f 148/36/130 149/34/130 151/37/130
f 131/8/121 150/35/121 152/38/121
f 150/39/131 151/37/131 153/40/131
f 131/8/121 152/38/121 154/41/121
f 152/42/132 153/40/132 155/43/132
f 131/8/121 154/41/121 156/44/121
f 154/45/133 155/43/133 157/46/133
f 131/8/121 156/44/121 158/47/121
f 156/48/134 157/46/134 159/49/134
f 131/8/121 158/47/121 160/50/121
f 158/51/135 159/49/135 161/52/135
f 131/8/121 160/50/121 162/53/121
f 160/54/136 161/52/136 163/55/136
f 131/8/121 162/53/121 164/56/121
f 162/57/137 163/55/137 165/52/137
f 131/8/121 164/56/121 166/58/121
f 164/54/138 165/52/138 167/49/138
f 131/8/121 166/58/121 168/59/121
f 166/51/139 167/49/139 169/46/139
f 131/8/121 168/59/121 170/60/121
f 168/48/140 169/46/140 171/43/140
f 131/8/121 170/60/121 172/61/121
f 170/45/141 171/43/141 173/40/141
f 131/8/121 172/61/121 174/62/121
f 172/42/142 173/40/142 175/37/142
f 131/8/121 174/62/121 176/63/121
f 174/39/143 175/37/143 177/34/143
f 131/8/121 176/63/121 178/64/121
f 176/36/144 177/34/144 179/31/144
f 131/8/121 178/64/121 180/65/121
f 178/33/145 179/31/145 181/28/145
f 131/8/121 180/65/121 182/66/121
f 180/30/146 181/28/146 183/25/146
f 131/8/121 182/66/121 184/67/121
f 182/27/147 183/25/147 185/22/147
f 131/8/121 184/67/121 186/68/121
f 184/24/148 185/22/148 187/19/148
f 131/8/121 186/68/121 188/69/121
f 186/21/149 187/19/149 189/16/149
f 131/8/121 188/69/121 190/70/121
f 188/18/150 189/16/150 191/13/150
f 131/8/121 190/70/121 132/9/121
f 190/15/151 191/13/151 133/12/151
f 134/15/122 132/11/122 135/13/122
f 136/18/123 134/15/123 137/16/123
f 138/21/124 136/18/124 139/19/124
f 140/24/125 138/21/125 141/22/125
f 142/27/126 140/24/126 143/25/126
f 144/30/127 142/27/127 145/28/127
f 146/33/128 144/30/128 147/31/128
f 148/36/129 146/33/129 149/34/129
f 150/39/130 148/36/130 151/37/130
f 152/42/131 150/39/131 153/40/131
f 154/45/132 152/42/132 155/43/132
f 156/48/133 154/45/133 157/46/133
f 158/51/134 156/48/134 159/49/134
f 160/54/135 158/51/135 161/52/135
f 162/57/136 160/54/136 163/55/136
f 164/54/137 162/57/137 165/52/137
f 166/51/138 164/54/138 167/49/138
f 168/48/139 166/51/139 169/46/139
f 170/45/140 168/48/140 171/43/140
f 172/42/141 170/45/141 173/40/141
f 174/39/142 172/42/142 175/37/142
f 176/36/143 174/39/143 177/34/143
f 178/33/144 176/36/144 179/31/144
f 180/30/145 178/33/145 181/28/145
f 182/27/146 180/30/146 183/25/146
f 184/24/147 182/27/147 185/22/147
f 186/21/148 184/24/148 187/19/148
f 188/18/149 186/21/149 189/16/149
f 190/15/150 188/18/150 191/13/150
f 132/11/151 190/15/151 133/12/151
usemtl ColobotMesh_mat_2
f 11/71/144 12/72/144 13/73/144
f 13/74/121 12/73/121 7/72/121
f 7/72/121 14/71/121 13/74/121
f 9/74/152 10/71/152 8/72/152
f 8/72/152 11/73/152 9/74/152
f 10/74/129 14/73/129 7/72/129
f 7/72/129 8/71/129 10/74/129
f 9/74/153 13/73/153 14/72/153
f 14/72/153 10/71/153 9/74/153
f 13/73/144 9/74/144 11/71/144
f 8/71/154 7/72/154 12/73/154
f 12/73/154 11/74/154 8/71/154
