# Blender v2.70 (sub 5) OBJ File: 'barrier1.blend'
# www.blender.org
mtllib barrier1.mtl
o ColobotMesh_1_ColobotMesh_
v 6.163050 -1.997730 -1.314330
v -10.000000 4.009960 -0.223372
v 10.000000 4.009960 0.276628
v -10.000000 4.009960 0.276628
v -10.000000 2.009960 0.276628
v 10.000000 2.009960 0.276628
v 10.000000 4.009960 -0.223372
v 10.000000 2.009960 -0.223372
v -10.000000 2.009960 -0.223372
v -7.000000 3.507090 0.525672
v -8.840000 -1.997730 1.365670
v -6.160000 -1.997730 1.365670
v -8.000000 3.507090 0.525672
v -6.160000 -1.997730 -1.314330
v -7.000000 3.507090 -0.474328
v -8.840000 -1.997730 -1.314330
v -8.000000 3.507090 -0.474328
v 8.003050 3.507090 -0.474328
v 7.003050 3.507090 -0.474328
v 8.843050 -1.997730 -1.314330
v 8.003050 3.507090 0.525672
v 6.163050 -1.997730 1.365670
v 8.843050 -1.997730 1.365670
v 7.003050 3.507090 0.525672
vt 0.998047 0.060547
vt 0.376953 0.060547
vt 0.376953 0.001953
vt 0.998047 0.001953
vt 0.663567 0.986328
vt 0.658203 0.994141
vt 0.666016 0.994141
vt 0.660652 0.986328
vt 0.833984 0.166016
vt 0.833984 0.248047
vt 0.751953 0.248047
vt 0.751953 0.166016
vt 0.663567 0.994141
vt 0.658203 0.986328
vt 0.660652 0.994141
vt 0.666016 0.986328
vt 0.658203 0.991692
vt 0.658203 0.988777
vt 0.666016 0.988777
vt 0.666016 0.991692
vn -0.000000 -0.000000 1.000000
vn 0.000000 0.000000 -1.000000
vn -0.000000 0.150847 0.988557
vn 0.000000 -1.000000 -0.000000
vn 1.000000 0.000000 0.000000
vn 0.000000 1.000000 0.000000
vn -1.000000 -0.000000 0.000000
vn 0.000000 0.150848 -0.988557
vn 0.988557 0.150847 0.000000
vn 0.988557 0.150848 0.000000
vn -0.988557 0.150848 0.000000
vn -0.988557 0.150847 0.000000
usemtl ColobotMesh_mat_1
s off
f 3/1/1 4/2/1 5/3/1
f 5/3/1 6/4/1 3/1/1
f 7/1/2 8/4/2 9/3/2
f 9/3/2 2/2/2 7/1/2
usemtl ColobotMesh_mat_2
f 10/5/3 11/6/3 12/7/3
f 11/6/3 10/5/3 13/8/3
f 21/5/3 22/6/3 23/7/3
f 22/6/3 21/5/3 24/8/3
f 8/9/4 6/10/4 5/11/4
f 5/11/4 9/12/4 8/9/4
f 7/11/5 3/10/5 6/9/5
f 6/9/5 8/12/5 7/11/5
f 2/12/6 4/11/6 3/10/6
f 3/10/6 7/9/6 2/12/6
f 9/12/7 5/9/7 4/10/7
f 4/10/7 2/11/7 9/12/7
f 15/13/8 16/14/8 17/15/8
f 16/14/8 15/13/8 14/16/8
f 10/17/9 14/16/9 15/18/9
f 14/16/10 10/17/10 12/7/10
f 13/6/6 15/16/6 17/14/6
f 15/16/6 13/6/6 10/7/6
f 11/6/11 17/19/11 16/14/11
f 17/19/11 11/6/11 13/20/11
f 18/13/8 1/14/8 19/15/8
f 1/14/8 18/13/8 20/16/8
f 21/17/9 20/16/9 18/18/9
f 20/16/9 21/17/9 23/7/9
f 24/6/6 18/16/6 19/14/6
f 18/16/6 24/6/6 21/7/6
f 22/6/12 19/19/12 1/14/12
f 19/19/12 22/6/12 24/20/12
