# Blender v2.70 (sub 5) OBJ File: 'barrier1_hi.blend'
# www.blender.org
mtllib barrier1_hi.mtl
o ColobotMesh_1_ColobotMesh_
v 6.162035 -1.997730 -1.340320
v -10.001015 4.009960 -0.249361
v 9.998985 4.009960 0.250639
v -10.001015 4.009960 0.250639
v -10.001015 2.009960 0.250638
v 9.998985 2.009960 0.250638
v 9.998985 4.009960 -0.249361
v 9.998985 2.009960 -0.249362
v -10.001015 2.009960 -0.249362
v -7.001015 3.507090 0.499683
v -8.841015 -1.997730 1.339680
v -6.161015 -1.997730 1.339680
v -8.001015 3.507090 0.499683
v -6.161015 -1.997730 -1.340320
v -7.001015 3.507090 -0.500317
v -8.841015 -1.997730 -1.340320
v -8.001015 3.507090 -0.500317
v 8.002035 3.507090 -0.500317
v 7.002035 3.507090 -0.500317
v 8.842035 -1.997730 -1.340320
v 8.002035 3.507090 0.499683
v 6.162035 -1.997730 1.339680
v 8.842035 -1.997730 1.339680
v 7.002035 3.507090 0.499683
vt 0.656626 0.060547
vt 0.377134 0.060547
vt 0.377134 0.001953
vt 0.656626 0.001953
vt 0.998047 0.060547
vt 0.998047 0.001953
vt 0.376953 0.001953
vt 0.376953 0.060547
vt 0.663567 0.986328
vt 0.658203 0.994141
vt 0.666016 0.994141
vt 0.660652 0.986328
vt 0.833984 0.166016
vt 0.833984 0.248047
vt 0.751953 0.248047
vt 0.751953 0.166016
vt 0.663567 0.994141
vt 0.658203 0.986328
vt 0.660652 0.994141
vt 0.666016 0.986328
vt 0.658203 0.991692
vt 0.658203 0.988777
vt 0.666016 0.988777
vt 0.666016 0.991692
vn -0.000000 -0.000000 1.000000
vn 0.000000 0.000000 -1.000000
vn 0.000000 0.150847 0.988557
vn 0.000000 -1.000000 -0.000000
vn 1.000000 -0.000000 0.000000
vn 0.000000 1.000000 0.000000
vn -1.000000 0.000000 0.000000
vn -0.000000 0.150848 -0.988557
vn 0.988557 0.150847 0.000000
vn -0.988557 0.150848 -0.000000
vn 0.988557 0.150848 0.000000
vn -0.988557 0.150847 -0.000000
usemtl ColobotMesh_mat_1
s off
f 3/1/1 4/2/1 5/3/1
f 5/3/1 6/4/1 3/1/1
f 7/5/2 8/6/2 9/7/2
f 9/7/2 2/8/2 7/5/2
usemtl ColobotMesh_mat_2
f 10/9/3 11/10/3 12/11/3
f 11/10/3 10/9/3 13/12/3
f 21/9/3 22/10/3 23/11/3
f 22/10/3 21/9/3 24/12/3
f 8/13/4 6/14/4 5/15/4
f 5/15/4 9/16/4 8/13/4
f 7/15/5 3/14/5 6/13/5
f 6/13/5 8/16/5 7/15/5
f 2/16/6 4/15/6 3/14/6
f 3/14/6 7/13/6 2/16/6
f 9/16/7 5/13/7 4/14/7
f 4/14/7 2/15/7 9/16/7
f 15/17/8 16/18/8 17/19/8
f 16/18/8 15/17/8 14/20/8
f 10/21/9 14/20/9 15/22/9
f 14/20/9 10/21/9 12/11/9
f 13/10/6 15/20/6 17/18/6
f 15/20/6 13/10/6 10/11/6
f 11/10/10 17/23/10 16/18/10
f 17/23/10 11/10/10 13/24/10
f 18/17/8 1/18/8 19/19/8
f 1/18/8 18/17/8 20/20/8
f 21/21/11 20/20/11 18/22/11
f 20/20/9 21/21/9 23/11/9
f 24/10/6 18/20/6 19/18/6
f 18/20/6 24/10/6 21/11/6
f 22/10/12 19/23/12 1/18/12
f 19/23/12 22/10/12 24/24/12
o led_Sphere
v -0.191342 3.000000 0.461940
v -0.353554 3.000000 0.353554
v -0.461940 3.000000 0.191342
v -0.461940 3.000000 -0.191342
v -0.353554 3.000000 -0.353554
v -0.191342 3.000000 -0.461940
v -0.176777 3.073223 0.461940
v -0.326641 3.135299 0.353554
v -0.426777 3.176777 0.191342
v -0.426777 3.176777 -0.191342
v -0.326641 3.135299 -0.353554
v -0.176777 3.073224 -0.461940
v -0.135299 3.135299 0.461940
v -0.250000 3.250000 0.353554
v -0.326641 3.326641 0.191342
v -0.326641 3.326641 -0.191342
v -0.250000 3.250000 -0.353554
v -0.135299 3.135299 -0.461940
v -0.000000 3.000000 -0.500000
v -0.073223 3.176776 0.461940
v -0.135299 3.326641 0.353554
v -0.176777 3.426777 0.191342
v -0.176777 3.426777 -0.191342
v -0.135299 3.326641 -0.353554
v -0.073223 3.176777 -0.461940
v -0.000000 3.000000 0.500000
v -0.000000 3.191341 0.461940
v -0.000000 3.353553 0.353554
v -0.000000 3.461940 0.191342
v -0.000000 3.461940 -0.191342
v -0.000000 3.353554 -0.353553
v -0.000000 3.191342 -0.461940
v 0.073223 3.176776 0.461940
v 0.135299 3.326641 0.353554
v 0.176777 3.426777 0.191342
v 0.176777 3.426777 -0.191342
v 0.135299 3.326641 -0.353554
v 0.073223 3.176777 -0.461940
v 0.135299 3.135299 0.461940
v 0.250000 3.250000 0.353554
v 0.326641 3.326641 0.191342
v 0.326641 3.326641 -0.191342
v 0.250000 3.250000 -0.353554
v 0.135299 3.135299 -0.461940
v 0.176777 3.073223 0.461940
v 0.326641 3.135299 0.353554
v 0.426777 3.176777 0.191342
v 0.426777 3.176777 -0.191342
v 0.326641 3.135299 -0.353554
v 0.176777 3.073224 -0.461940
v 0.191342 3.000000 0.461940
v 0.353553 3.000000 0.353554
v 0.461940 3.000000 0.191342
v 0.461940 3.000000 -0.191342
v 0.353553 3.000000 -0.353554
v 0.191342 3.000000 -0.461940
v 0.176777 2.926776 0.461940
v 0.326641 2.864701 0.353554
v 0.426777 2.823223 0.191342
v 0.426777 2.823223 -0.191342
v 0.326641 2.864701 -0.353554
v 0.176777 2.926777 -0.461940
v 0.135299 2.864701 0.461940
v 0.250000 2.750000 0.353554
v 0.326641 2.673359 0.191342
v 0.326641 2.673359 -0.191342
v 0.250000 2.750000 -0.353554
v 0.135299 2.864701 -0.461940
v 0.073223 2.823223 0.461940
v 0.135299 2.673359 0.353554
v 0.176777 2.573223 0.191342
v 0.176777 2.573223 -0.191342
v 0.135299 2.673359 -0.353554
v 0.073223 2.823224 -0.461940
v -0.000000 2.808658 0.461940
v -0.000000 2.646446 0.353553
v -0.000000 2.538060 0.191342
v -0.000000 2.538060 -0.191342
v -0.000000 2.646447 -0.353554
v -0.000000 2.808659 -0.461940
v -0.073224 2.823223 0.461940
v -0.135299 2.673359 0.353554
v -0.176777 2.573223 0.191342
v -0.176777 2.573223 -0.191342
v -0.135299 2.673359 -0.353554
v -0.073223 2.823224 -0.461940
v -0.135299 2.864701 0.461940
v -0.250000 2.750000 0.353554
v -0.326641 2.673359 0.191342
v -0.326641 2.673359 -0.191342
v -0.250000 2.750000 -0.353554
v -0.135299 2.864701 -0.461940
v -0.176777 2.926776 0.461940
v -0.326641 2.864701 0.353554
v -0.426777 2.823223 0.191342
v -0.426777 2.823224 -0.191342
v -0.326641 2.864701 -0.353554
v -0.176777 2.926777 -0.461940
vt 0.353937 0.287057
vt 0.351507 0.285432
vt 0.353061 0.283842
vt 0.350705 0.289720
vt 0.353573 0.289151
vt 0.354011 0.290142
vt 0.348643 0.283439
vt 0.351178 0.280904
vt 0.347271 0.290336
vt 0.351580 0.291765
vt 0.353170 0.293319
vt 0.351178 0.296183
vt 0.354684 0.286273
vt 0.355106 0.282967
vt 0.354796 0.290889
vt 0.354490 0.279532
vt 0.357330 0.282941
vt 0.356758 0.285808
vt 0.355806 0.291280
vt 0.355235 0.294147
vt 0.358075 0.279532
vt 0.354490 0.297555
vt 0.357459 0.294121
vt 0.359394 0.283768
vt 0.356890 0.291253
vt 0.361387 0.280904
vt 0.359503 0.293246
vt 0.361387 0.296183
vt 0.360985 0.285323
vt 0.358553 0.286946
vt 0.357880 0.290815
vt 0.363922 0.283439
vt 0.365294 0.286751
vt 0.361859 0.287367
vt 0.361058 0.291656
vt 0.358628 0.290030
vt 0.363922 0.293648
vt 0.361885 0.289591
vt 0.359018 0.289020
vt 0.365294 0.290336
vt 0.358992 0.287936
vt 0.357769 0.286198
vt 0.358075 0.297555
vt 0.355675 0.285834
vt 0.348643 0.293648
vt 0.350679 0.287497
vt 0.347271 0.286751
vt 0.353546 0.288068
vt 0.356282 0.288544
vn -0.552208 0.109842 -0.826438
vn -0.552208 0.109840 0.826439
vn -0.820325 0.163173 -0.548125
vn -0.820326 0.163173 0.548123
vn -0.695439 0.464677 0.548124
vn -0.468140 0.312801 -0.826439
vn -0.468139 0.312801 0.826439
vn -0.695438 0.464677 -0.548124
vn -0.312800 0.468141 -0.826438
vn -0.312801 0.468139 0.826439
vn -0.464677 0.695439 -0.548124
vn -0.464678 0.695439 0.548124
vn -0.163172 0.820327 0.548123
vn -0.109841 0.552209 -0.826438
vn -0.109841 0.552209 0.826439
vn -0.163173 0.820325 -0.548125
vn 0.163173 0.820324 0.548126
vn 0.109841 0.552210 -0.826438
vn 0.109841 0.552208 0.826439
vn 0.163173 0.820326 -0.548124
vn 0.464677 0.695439 -0.548124
vn 0.464677 0.695438 0.548125
vn 0.312801 0.468140 -0.826438
vn 0.312803 0.468142 0.826437
vn 0.695439 0.464677 0.548125
vn 0.468141 0.312802 -0.826438
vn 0.468141 0.312801 0.826438
vn 0.695439 0.464677 -0.548124
vn 0.552210 0.109841 -0.826438
vn 0.552209 0.109840 0.826438
vn 0.820326 0.163173 -0.548124
vn 0.820326 0.163172 0.548125
vn 0.820325 -0.163174 0.548125
vn 0.552209 -0.109841 -0.826438
vn 0.552209 -0.109842 0.826438
vn 0.820325 -0.163173 -0.548125
vn 0.695438 -0.464678 0.548124
vn 0.468140 -0.312801 -0.826438
vn 0.468140 -0.312803 0.826437
vn 0.695438 -0.464677 -0.548125
vn 0.464676 -0.695438 -0.548126
vn 0.464677 -0.695440 0.548123
vn 0.312800 -0.468139 -0.826439
vn 0.312802 -0.468142 0.826437
vn 0.163173 -0.820326 0.548124
vn 0.109841 -0.552208 -0.826439
vn 0.109841 -0.552209 0.826438
vn 0.163173 -0.820325 -0.548125
vn -0.109841 -0.552208 -0.826439
vn -0.109841 -0.552210 0.826437
vn -0.163174 -0.820325 -0.548126
vn -0.163173 -0.820325 0.548125
vn -0.464677 -0.695438 0.548125
vn -0.312802 -0.468139 -0.826439
vn -0.312803 -0.468140 0.826438
vn -0.464677 -0.695438 -0.548125
vn -0.695439 -0.464677 0.548124
vn -0.468140 -0.312800 -0.826439
vn -0.468140 -0.312802 0.826438
vn -0.695439 -0.464676 -0.548125
vn -0.194944 0.038776 0.980048
vn -0.194943 0.038777 -0.980048
vn -0.165265 0.110427 -0.980048
vn -0.165265 0.110426 0.980048
vn -0.110427 0.165265 0.980048
vn -0.110427 0.165266 -0.980047
vn -0.038777 0.194944 -0.980047
vn -0.038777 0.194943 0.980048
vn 0.038776 0.194944 -0.980047
vn 0.038777 0.194943 0.980048
vn 0.110427 0.165265 0.980048
vn 0.110427 0.165266 -0.980048
vn 0.165265 0.110427 -0.980048
vn 0.165265 0.110426 0.980048
vn 0.194943 0.038776 0.980048
vn 0.194943 0.038777 -0.980048
vn 0.194943 -0.038776 -0.980048
vn 0.194944 -0.038778 0.980047
vn 0.165265 -0.110426 -0.980048
vn 0.165266 -0.110428 0.980047
vn 0.110426 -0.165266 0.980048
vn 0.110427 -0.165265 -0.980048
vn 0.038776 -0.194943 -0.980048
vn 0.038776 -0.194945 0.980047
vn -0.038777 -0.194944 0.980047
vn -0.038777 -0.194943 -0.980048
vn -0.110427 -0.165265 -0.980048
vn -0.110427 -0.165266 0.980047
vn -0.165265 -0.110426 -0.980048
vn -0.165266 -0.110428 0.980047
vn -0.820326 -0.163172 -0.548125
vn -0.194943 -0.038777 0.980048
vn -0.194944 -0.038776 -0.980048
vn -0.820326 -0.163174 0.548123
vn -0.552208 -0.109841 -0.826439
vn -0.552209 -0.109842 0.826438
vn -0.552210 0.109842 -0.826438
vn -0.695439 0.464677 0.548125
vn -0.468140 0.312802 -0.826438
vn -0.695439 0.464678 -0.548123
vn -0.312801 0.468141 -0.826438
vn -0.464676 0.695439 -0.548125
vn -0.464677 0.695438 0.548125
vn -0.163173 0.820325 0.548125
vn -0.109840 0.552209 -0.826438
vn -0.109840 0.552208 0.826439
vn -0.163173 0.820326 -0.548124
vn 0.163173 0.820325 0.548126
vn 0.109841 0.552209 -0.826438
vn 0.109841 0.552207 0.826439
vn 0.163173 0.820326 -0.548125
vn 0.312802 0.468141 -0.826438
vn 0.312802 0.468140 0.826438
vn 0.695438 0.464677 0.548125
vn 0.468141 0.312801 -0.826438
vn 0.468140 0.312800 0.826439
vn 0.695438 0.464677 -0.548125
vn 0.552212 0.109842 -0.826436
vn 0.552209 0.109840 0.826439
vn 0.820325 0.163173 -0.548125
vn 0.820326 0.163172 0.548124
vn 0.820326 -0.163174 0.548124
vn 0.552208 -0.109840 -0.826439
vn 0.552210 -0.109842 0.826437
vn 0.695438 -0.464677 0.548125
vn 0.468141 -0.312802 -0.826437
vn 0.468139 -0.312801 0.826439
vn 0.464677 -0.695439 -0.548124
vn 0.464676 -0.695439 0.548124
vn 0.312801 -0.468140 -0.826438
vn 0.312801 -0.468141 0.826438
vn 0.109841 -0.552210 0.826438
vn 0.163173 -0.820325 -0.548126
vn -0.109841 -0.552207 -0.826439
vn -0.109841 -0.552210 0.826438
vn -0.163173 -0.820326 -0.548124
vn -0.163173 -0.820326 0.548124
vn -0.464678 -0.695438 0.548124
vn -0.312801 -0.468139 -0.826439
vn -0.312802 -0.468140 0.826438
vn -0.464677 -0.695437 -0.548126
vn -0.468140 -0.312801 0.826438
vn -0.695439 -0.464677 -0.548124
vn -0.820325 -0.163173 -0.548125
vn -0.820325 -0.163174 0.548125
vn -0.552208 -0.109842 0.826439
usemtl acrylic_glass
s off
f 30/25/13 29/26/13 35/27/13
f 26/28/14 25/29/14 31/30/14
f 29/26/15 28/31/15 34/32/15
f 27/33/16 26/28/16 32/34/16
f 32/34/17 38/35/17 39/36/17
f 36/37/18 35/27/18 41/38/18
f 31/30/19 37/39/19 38/35/19
f 34/32/20 40/40/20 41/38/20
f 41/38/21 48/41/21 49/42/21
f 37/39/22 44/43/22 45/44/22
f 41/38/23 40/40/23 47/45/23
f 39/36/24 38/35/24 45/44/24
f 46/46/25 45/44/25 52/47/25
f 49/42/26 48/41/26 55/48/26
f 45/44/27 44/43/27 51/49/27
f 48/41/28 47/45/28 54/50/28
f 52/47/29 58/51/29 59/52/29
f 55/48/30 61/53/30 62/54/30
f 51/49/31 57/55/31 58/51/31
f 54/50/32 60/56/32 61/53/32
f 60/56/33 66/57/33 67/58/33
f 59/52/34 58/51/34 64/59/34
f 62/54/35 61/53/35 67/58/35
f 57/55/36 63/60/36 64/59/36
f 65/61/37 64/59/37 70/62/37
f 67/58/38 73/62/38 74/63/38
f 64/59/39 63/60/39 69/63/39
f 67/58/40 66/57/40 72/64/40
f 74/63/41 73/62/41 79/59/41
f 70/62/42 69/63/42 75/65/42
f 72/64/43 78/61/43 79/59/43
f 71/64/44 70/62/44 76/58/44
f 76/58/45 82/53/45 83/56/45
f 80/60/46 79/59/46 85/51/46
f 76/58/47 75/65/47 81/54/47
f 78/61/48 84/52/48 85/51/48
f 82/53/49 88/48/49 89/50/49
f 85/51/50 91/47/50 92/49/50
f 82/53/51 81/54/51 87/66/51
f 84/52/52 90/67/52 91/47/52
f 90/67/53 96/46/53 97/44/53
f 89/50/54 88/48/54 94/41/54
f 92/49/55 91/47/55 97/44/55
f 88/48/56 87/66/56 93/42/56
f 94/41/57 100/38/57 101/40/57
f 98/43/58 97/44/58 103/35/58
f 94/41/59 93/42/59 99/68/59
f 96/46/60 102/36/60 103/35/60
f 104/39/61 103/35/61 109/34/61
f 99/68/62 105/37/62 106/27/62
f 103/35/63 102/36/63 108/69/63
f 100/38/64 106/27/64 107/32/64
f 107/32/65 106/27/65 112/26/65
f 110/30/66 109/34/66 115/28/66
f 106/27/67 105/37/67 111/25/67
f 109/34/68 108/69/68 114/33/68
f 112/26/69 118/70/69 119/71/69
f 115/28/70 121/70/70 122/72/70
f 112/26/71 111/25/71 117/72/71
f 115/28/72 114/33/72 120/71/72
f 25/29/73 50/73/73 31/30/73
f 43/73/74 30/25/74 36/37/74
f 43/73/75 36/37/75 42/68/75
f 31/30/76 50/73/76 37/39/76
f 37/39/77 50/73/77 44/43/77
f 43/73/78 42/68/78 49/42/78
f 43/73/79 49/42/79 56/66/79
f 44/43/80 50/73/80 51/49/80
f 43/73/81 56/66/81 62/54/81
f 51/49/82 50/73/82 57/55/82
f 57/55/83 50/73/83 63/60/83
f 43/73/84 62/54/84 68/65/84
f 43/73/85 68/65/85 74/63/85
f 63/60/86 50/73/86 69/63/86
f 69/63/87 50/73/87 75/65/87
f 43/73/88 74/63/88 80/60/88
f 43/73/89 80/60/89 86/55/89
f 75/65/90 50/73/90 81/54/90
f 43/73/91 86/55/91 92/49/91
f 81/54/92 50/73/92 87/66/92
f 87/66/93 50/73/93 93/42/93
f 43/73/94 92/49/94 98/43/94
f 43/73/95 98/43/95 104/39/95
f 93/42/96 50/73/96 99/68/96
f 99/68/97 50/73/97 105/37/97
f 43/73/98 104/39/98 110/30/98
f 43/73/99 110/30/99 116/29/99
f 105/37/100 50/73/100 111/25/100
f 43/73/101 116/29/101 122/72/101
f 111/25/102 50/73/102 117/72/102
f 121/70/103 120/71/103 28/31/103
f 117/72/104 50/73/104 25/29/104
f 43/73/105 122/72/105 30/25/105
f 118/70/106 26/28/106 27/33/106
f 122/72/107 121/70/107 29/26/107
f 118/70/108 117/72/108 25/29/108
f 36/37/109 30/25/109 35/27/109
f 32/34/14 26/28/14 31/30/14
f 35/27/15 29/26/15 34/32/15
f 33/69/16 27/33/16 32/34/16
f 33/69/110 32/34/110 39/36/110
f 42/68/111 36/37/111 41/38/111
f 32/34/19 31/30/19 38/35/19
f 35/27/112 34/32/112 41/38/112
f 42/68/113 41/38/113 49/42/113
f 38/35/22 37/39/22 45/44/22
f 48/41/114 41/38/114 47/45/114
f 46/46/115 39/36/115 45/44/115
f 53/67/116 46/46/116 52/47/116
f 56/66/117 49/42/117 55/48/117
f 52/47/118 45/44/118 51/49/118
f 55/48/119 48/41/119 54/50/119
f 53/67/120 52/47/120 59/52/120
f 56/66/121 55/48/121 62/54/121
f 52/47/122 51/49/122 58/51/122
f 55/48/123 54/50/123 61/53/123
f 61/53/33 60/56/33 67/58/33
f 65/61/34 59/52/34 64/59/34
f 68/65/124 62/54/124 67/58/124
f 58/51/125 57/55/125 64/59/125
f 71/64/126 65/61/126 70/62/126
f 68/65/127 67/58/127 74/63/127
f 70/62/128 64/59/128 69/63/128
f 73/62/129 67/58/129 72/64/129
f 80/60/130 74/63/130 79/59/130
f 76/58/131 70/62/131 75/65/131
f 73/62/132 72/64/132 79/59/132
f 77/57/133 71/64/133 76/58/133
f 77/57/134 76/58/134 83/56/134
f 86/55/135 80/60/135 85/51/135
f 82/53/136 76/58/136 81/54/136
f 79/59/48 78/61/48 85/51/48
f 83/56/137 82/53/137 89/50/137
f 86/55/138 85/51/138 92/49/138
f 88/48/139 82/53/139 87/66/139
f 85/51/52 84/52/52 91/47/52
f 91/47/140 90/67/140 97/44/140
f 95/45/141 89/50/141 94/41/141
f 98/43/142 92/49/142 97/44/142
f 94/41/143 88/48/143 93/42/143
f 95/45/57 94/41/57 101/40/57
f 104/39/58 98/43/58 103/35/58
f 100/38/144 94/41/144 99/68/144
f 97/44/145 96/46/145 103/35/145
f 110/30/146 104/39/146 109/34/146
f 100/38/147 99/68/147 106/27/147
f 109/34/148 103/35/148 108/69/148
f 101/40/149 100/38/149 107/32/149
f 113/31/150 107/32/150 112/26/150
f 116/29/151 110/30/151 115/28/151
f 112/26/152 106/27/152 111/25/152
f 115/28/153 109/34/153 114/33/153
f 113/31/69 112/26/69 119/71/69
f 116/29/70 115/28/70 122/72/70
f 118/70/154 112/26/154 117/72/154
f 121/70/155 115/28/155 120/71/155
f 29/26/156 121/70/156 28/31/156
f 119/71/157 118/70/157 27/33/157
f 30/25/107 122/72/107 29/26/107
f 26/28/158 118/70/158 25/29/158
o plate_Cube
v -0.630000 2.370000 0.315000
v -0.630000 2.370000 -0.315000
v 0.630000 2.370000 -0.315000
v 0.630000 2.370000 0.315000
v -0.630000 3.630000 0.315000
v -0.630000 3.630000 -0.315000
v 0.630000 3.630000 -0.315000
v 0.630000 3.630000 0.315000
vt 0.288002 0.377575
vt 0.308429 0.377575
vt 0.308429 0.398002
vt 0.288002 0.398002
vn -1.000000 0.000000 0.000000
vn -0.000000 0.000000 -1.000000
vn 1.000000 0.000000 0.000000
vn 0.000000 0.000000 1.000000
vn 0.000000 -1.000000 0.000000
vn 0.000000 1.000000 0.000000
usemtl Blue_Plate
s off
f 127/74/159 128/75/159 124/76/159
f 128/74/160 129/75/160 125/76/160
f 129/74/161 130/75/161 126/76/161
f 130/74/162 127/75/162 123/76/162
f 123/74/163 124/75/163 125/76/163
f 130/74/164 129/75/164 128/76/164
f 123/77/159 127/74/159 124/76/159
f 124/77/160 128/74/160 125/76/160
f 125/77/161 129/74/161 126/76/161
f 126/77/162 130/74/162 123/76/162
f 126/77/163 123/74/163 125/76/163
f 127/77/164 130/74/164 128/76/164
