# Blender v2.71 (sub 0) OBJ File: 'base2.blend'
# www.blender.org
mtllib base2.mtl
o ColobotMesh_1_ColobotMesh_
v -0.013672 0.023221 11.486200
v 54.986301 -1.976780 -9.514980
v 54.986301 0.023223 -11.513800
v -0.013668 0.023223 -11.513800
v 54.986401 0.023221 11.486200
v -0.013670 -1.976780 -9.514940
v 54.986301 -1.976780 9.488700
v -0.013668 -1.976780 9.488710
vt 0.826172 0.791016
vt 0.767578 0.791016
vt 0.767578 0.732422
vt 0.826172 0.732422
vt 0.001953 0.001953
vt 0.310547 0.001953
vt 0.310547 0.998047
vt 0.001953 0.998047
vt 0.341797 0.001953
vt 0.314453 0.001953
vt 0.314453 0.998047
vt 0.341797 0.998047
vt 0.595703 0.939453
vt 0.617076 0.998047
vt 0.820410 0.998047
vt 0.841797 0.939453
vt 0.841797 0.967757
vt 0.820410 0.939442
vt 0.617076 0.946479
vt 0.595703 0.998035
vn -0.000000 -1.000000 -0.000000
vn 0.000000 1.000000 0.000000
vn -0.000000 -0.706900 -0.707300
vn 0.000000 -0.706700 0.707600
vn 0.000000 -0.706700 0.707500
vn 1.000000 -0.000100 -0.000000
vn 1.000000 0.000000 -0.000000
vn -1.000000 0.000000 0.000000
usemtl ColobotMesh_mat_1
s off
f 7/1/1 8/2/1 6/3/1
f 6/3/1 2/4/1 7/1/1
f 5/5/2 3/6/2 4/7/2
f 4/7/2 1/8/2 5/5/2
f 3/9/3 2/10/3 6/11/3
f 6/11/3 4/12/3 3/9/3
f 1/11/4 8/12/4 7/9/4
f 7/9/5 5/10/5 1/11/5
usemtl ColobotMesh_mat_2
f 5/13/6 7/14/6 2/15/6
f 2/15/7 3/16/7 5/13/7
f 4/17/8 6/18/8 8/19/8
f 8/19/8 1/20/8 4/17/8
