# Blender v2.71 (sub 0) OBJ File: 'bee3.blend'
# www.blender.org
mtllib bee3.mtl
o ColobotMesh_1_ColobotMesh_
v -0.409621 0.102832 -1.217500
v -3.336760 0.723023 -0.581368
v -3.336760 0.723023 0.578673
v -1.777100 1.168660 0.000000
v -3.253870 -0.091553 -1.136790
v -1.631630 0.339249 -1.414390
v -3.480120 -0.915576 -0.000000
v -1.660780 -0.682734 -0.858977
v -3.253870 -0.091554 1.134090
v -1.660780 -0.682734 0.859252
v -1.631630 0.339249 1.414670
v -4.399930 -0.587130 -0.000000
v -0.409621 0.102832 1.215850
v -0.437088 -0.728528 -0.000000
v 0.310175 0.036180 0.000000
v -0.288164 0.811943 0.660432
v -0.288164 0.811944 -0.662084
v -3.895259 0.287016 -0.421304
v -4.249649 -0.149701 -0.227514
v -3.392924 -0.479071 -0.842566
v -3.468340 -0.753746 -0.463636
v -3.873194 -0.850659 0.000053
v -4.179797 -0.741177 0.000053
v -2.818897 0.689820 -0.977963
v -2.250520 0.561895 -1.255637
v -0.315483 0.363461 1.098204
v -0.274997 0.599831 0.913065
v -1.187354 -0.473251 1.088881
v -0.770301 -0.211396 1.207747
v -1.647118 -0.868134 -0.286158
v -1.647118 -0.868134 0.286585
v -2.818889 0.689843 0.976520
v -2.250512 0.561918 1.255186
v -0.785626 0.182146 -1.364377
v -1.192962 0.260952 -1.430007
v -2.739928 0.054840 -1.325774
v -2.199182 0.198441 -1.418307
v -2.763125 -0.347783 1.161232
v -2.232095 -0.544843 1.069620
v -1.137768 0.582285 -1.271056
v -0.689946 0.739850 -1.020287
v -2.861263 0.981647 -0.422342
v -2.341376 1.130193 -0.228553
v 0.226987 0.330445 0.246556
v 0.027541 0.589033 0.466700
v -1.137795 0.582305 1.270892
v -0.689973 0.739869 1.019479
v -1.232709 1.168149 0.259219
v -0.736397 1.049243 0.479363
v -3.798253 -0.316394 -0.805414
v -4.180273 -0.481586 -0.426484
v -2.739850 0.054977 1.324143
v -2.199103 0.198578 1.417669
v -2.887641 -0.949473 -0.310658
v -2.281194 -0.871859 -0.596983
v -0.315506 0.363430 -1.099903
v -0.275020 0.599801 -0.914764
v 0.227084 0.330510 -0.247117
v 0.027638 0.589098 -0.467811
v -1.733280 1.027627 -0.602786
v -1.684790 0.751157 -1.074249
v -3.364594 0.479848 -0.848657
v -3.336963 0.208322 -1.033798
v -3.468235 -0.753558 0.462566
v -3.392818 -0.478884 0.840596
v -1.232675 1.168232 -0.259812
v -0.736363 1.049327 -0.480507
v -1.219107 -0.795495 -0.594989
v -0.811210 -0.810760 -0.308663
v -1.219123 -0.795520 0.595248
v -0.811225 -0.810784 0.308831
v -2.861218 0.981535 0.420482
v -2.341332 1.130081 0.227591
v -1.193001 0.261030 1.429749
v -0.785665 0.182224 1.363476
v -3.895126 0.286908 0.419588
v -4.249516 -0.149809 0.226697
v -3.395405 0.809351 -0.194726
v -3.395405 0.809351 0.191954
v -1.638220 -0.031866 -1.357704
v -1.647936 -0.372527 -1.172566
v -0.044520 0.058660 -0.875625
v 0.195412 0.036443 -0.469792
v -1.733290 1.027565 0.602969
v -1.684800 0.751095 1.074526
v -0.219483 0.908917 0.219562
v -0.219483 0.908918 -0.221277
v -0.044697 0.058712 0.874349
v 0.195235 0.036494 0.469066
v -2.887625 -0.949397 0.310849
v -2.281178 -0.871783 0.597266
v -1.647956 -0.372493 1.172828
v -1.638239 -0.031832 1.357968
v -0.770282 -0.211341 -1.208813
v -1.187335 -0.473196 -1.089305
v -2.763180 -0.347747 -1.163055
v -2.232150 -0.544807 -1.070450
v -0.321670 -0.266845 -0.904960
v -0.330825 -0.543965 -0.499127
v -0.321742 -0.266763 0.903698
v -0.330897 -0.543883 0.498414
v -3.364624 0.479906 0.845901
v -3.336994 0.208380 1.031040
v -3.797997 -0.316276 0.803463
v -4.180017 -0.481468 0.425433
v -0.094619 -0.521647 0.000029
v 0.154469 -0.266744 0.000029
v -2.887914 1.044897 -0.000950
v -2.805027 0.392268 -1.215837
v -2.853271 -0.738537 -0.804768
v -2.853188 -0.738333 0.803806
v -2.804997 0.392376 1.214252
v -2.325420 0.946388 -0.826173
v -2.229803 -0.189512 -1.333350
v -2.285696 -0.993150 0.000203
v -2.229757 -0.189416 1.332620
v -2.325418 0.946328 0.825530
v -3.908945 -0.010474 -0.659210
v -3.910133 -0.658799 -0.439329
v -3.909825 -0.658593 0.438353
v -3.908703 -0.010434 0.657332
v -3.963251 0.327102 -0.000867
v 0.024942 -0.282181 0.483229
v 0.046100 0.333171 0.705794
v 0.096797 0.634669 -0.000566
v 0.046260 0.333162 -0.707021
v 0.025161 -0.282265 -0.483918
v -1.192837 -0.914279 0.000179
v -1.170222 -0.121535 1.346831
v -1.158759 0.975361 0.851510
v -1.158736 0.975412 -0.851825
v -1.170199 -0.121573 -1.347172
v -0.742294 -0.590985 0.829227
v -0.713147 0.477057 1.246441
v -0.706433 1.122287 -0.000585
v -0.713126 0.476998 -1.247318
v -0.742233 -0.591035 -0.829780
vt 0.113932 0.449416
vt 0.113932 0.483052
vt 0.168689 0.466273
vt 0.122662 0.401102
vt 0.119752 0.417207
vt 0.179616 0.393052
vt 0.098832 0.499988
vt 0.106776 0.467026
vt 0.162707 0.475081
vt 0.122662 0.598640
vt 0.114719 0.565756
vt 0.178593 0.590671
vt 0.113932 0.550325
vt 0.116842 0.566430
vt 0.173796 0.574566
vt 0.278204 0.499988
vt 0.283311 0.458976
vt 0.223447 0.483131
vt 0.293525 0.376953
vt 0.292502 0.393058
vt 0.236571 0.385003
vt 0.290455 0.425268
vt 0.290455 0.475089
vt 0.226581 0.450175
vt 0.290455 0.574732
vt 0.291478 0.590837
vt 0.234524 0.582701
vt 0.293525 0.623047
vt 0.288418 0.582027
vt 0.233661 0.598806
vt 0.116842 0.433311
vt 0.076606 0.466273
vt 0.114719 0.434064
vt 0.082426 0.434064
vt 0.106776 0.532872
vt 0.066539 0.499988
vt 0.119752 0.582535
vt 0.082426 0.565756
vt 0.113932 0.516689
vt 0.076606 0.533546
vt 0.422234 0.605752
vt 0.421270 0.570497
vt 0.447505 0.570497
vt 0.435027 0.557437
vt 0.430763 0.573542
vt 0.456034 0.538287
vt 0.435027 0.442395
vt 0.435027 0.480742
vt 0.456034 0.461593
vt 0.422234 0.394080
vt 0.426498 0.410185
vt 0.447505 0.429383
vt 0.419341 0.499988
vt 0.420305 0.464685
vt 0.445576 0.499988
vt 0.290455 0.524911
vt 0.333417 0.549817
vt 0.292502 0.606942
vt 0.336428 0.617282
vt 0.283311 0.541008
vt 0.330478 0.519138
vt 0.288418 0.417965
vt 0.340692 0.398767
vt 0.291478 0.409163
vt 0.334381 0.414872
vt 0.420305 0.535243
vt 0.376379 0.524903
vt 0.426498 0.589647
vt 0.379331 0.611517
vt 0.435027 0.519090
vt 0.382753 0.538287
vt 0.430763 0.426290
vt 0.387860 0.420581
vt 0.421270 0.429383
vt 0.378308 0.404476
vt 0.223447 0.516767
vt 0.168689 0.499910
vt 0.168689 0.533546
vt 0.233661 0.401107
vt 0.176706 0.409157
vt 0.173796 0.425262
vt 0.234524 0.417213
vt 0.170650 0.442119
vt 0.178593 0.409157
vt 0.226581 0.549817
vt 0.170650 0.557787
vt 0.162707 0.524903
vt 0.236571 0.614911
vt 0.176706 0.590671
vt 0.179616 0.606776
vt 0.228554 0.442119
vt 0.235547 0.401108
vt 0.226581 0.499996
vt 0.235547 0.598806
vt 0.228554 0.557787
vt 0.039279 0.483131
vt 0.042189 0.467026
vt 0.001953 0.499988
vt 0.079516 0.450169
vt 0.034246 0.499988
vt 0.074483 0.467026
vt 0.042189 0.532872
vt 0.074483 0.532872
vt 0.039279 0.516767
vt 0.079516 0.549651
vt 0.076606 0.499910
vt 0.472776 0.535243
vt 0.471812 0.499988
vt 0.498047 0.499988
vt 0.446541 0.535243
vt 0.477040 0.519138
vt 0.451769 0.554392
vt 0.477040 0.480790
vt 0.456034 0.499940
vt 0.472776 0.464685
vt 0.451769 0.445488
vt 0.446541 0.464685
vt 0.376379 0.475081
vt 0.333417 0.499996
vt 0.333417 0.450175
vt 0.378308 0.595412
vt 0.335405 0.601177
vt 0.334381 0.585072
vt 0.387860 0.579307
vt 0.335585 0.560157
vt 0.340692 0.601177
vt 0.382753 0.461593
vt 0.335585 0.439779
vt 0.330478 0.480790
vt 0.379331 0.388371
vt 0.335405 0.398767
vt 0.336428 0.382662
vt 0.377343 0.560157
vt 0.383595 0.595412
vt 0.382753 0.499940
vt 0.383595 0.404476
vt 0.377343 0.439779
vn -0.394100 0.882500 -0.256800
vn -0.388100 0.201400 -0.899400
vn -0.223600 -0.918400 -0.326300
vn -0.307000 -0.502400 0.808300
vn -0.409000 0.695800 0.590400
vn 0.025200 0.973800 -0.226000
vn 0.044400 -0.151600 -0.987400
vn 0.156300 -0.938600 -0.307500
vn 0.086000 -0.710000 0.698900
vn 0.031800 0.638900 0.768600
vn -0.618900 0.612000 -0.492400
vn -0.280700 -0.514500 -0.810300
vn -0.153800 -0.931300 0.330200
vn -0.553400 0.129300 0.822800
vn -0.639300 0.724200 0.258600
vn 0.585800 -0.437100 0.682500
vn 0.682600 0.576800 0.448700
vn 0.658000 0.707400 -0.258100
vn 0.686400 0.078300 -0.723000
vn 0.506400 -0.838300 -0.202200
vn -0.059600 -0.950100 0.306200
vn -0.060600 -0.149700 0.986900
vn -0.110500 0.965900 0.234100
vn -0.084500 0.628000 -0.773700
vn -0.028000 -0.710100 -0.703600
vn 0.395800 -0.885400 0.243700
vn 0.399400 0.253400 0.881100
vn 0.370300 0.893400 0.254200
vn 0.389100 0.715400 -0.580400
vn 0.434400 -0.519000 -0.736200
vn -0.068100 0.997700 0.000300
vn -0.216300 0.963400 -0.158300
vn -0.154100 0.988100 0.000300
vn -0.216400 0.963300 0.158500
vn -0.364400 0.917300 -0.160700
vn -0.421000 0.907100 0.000000
vn -0.364500 0.917200 0.161000
vn -0.394300 0.882400 0.256800
vn -0.091900 0.395900 -0.913700
vn -0.229800 0.261100 -0.937600
vn -0.181400 0.380300 -0.906900
vn -0.238300 0.599600 -0.764000
vn -0.382800 0.218600 -0.897600
vn -0.427900 0.479000 -0.766400
vn -0.389500 0.564000 -0.728200
vn -0.407800 0.696100 -0.590800
vn 0.011300 -0.823300 -0.567500
vn -0.069700 -0.915700 -0.395800
vn 0.014200 -0.823400 -0.567300
vn -0.113900 -0.657000 -0.745200
vn -0.197700 -0.896500 -0.396500
vn -0.313100 -0.738300 -0.597500
vn -0.247600 -0.623100 -0.741900
vn -0.306200 -0.503500 -0.807900
vn 0.010700 -0.822700 0.568300
vn -0.114800 -0.656100 0.745900
vn 0.013200 -0.822800 0.568100
vn -0.070300 -0.915200 0.396800
vn -0.248500 -0.622100 0.742400
vn -0.313700 -0.737300 0.598300
vn -0.198300 -0.895900 0.397500
vn -0.224100 -0.918000 0.327300
vn -0.093200 0.395400 0.913800
vn -0.239600 0.599300 0.763800
vn -0.183000 0.379600 0.906800
vn -0.231300 0.260600 0.937300
vn -0.390900 0.563400 0.727800
vn -0.429300 0.478600 0.765900
vn -0.384300 0.218000 0.897100
vn -0.389600 0.200800 0.898800
vn -0.299800 0.835000 -0.461400
vn -0.159600 0.942400 -0.294100
vn -0.293100 0.837100 -0.462000
vn -0.167100 0.719900 -0.673700
vn -0.020000 0.955500 -0.294400
vn 0.069900 0.863600 -0.499300
vn -0.033400 0.741700 -0.669900
vn 0.032700 0.638900 -0.768600
vn -0.232700 -0.352900 -0.906300
vn -0.112200 -0.204100 -0.972500
vn -0.185500 -0.359000 -0.914700
vn -0.080100 -0.592600 -0.801500
vn 0.017100 -0.215200 -0.976400
vn 0.091300 -0.477500 -0.873900
vn 0.034900 -0.594600 -0.803300
vn 0.087200 -0.710000 -0.698800
vn -0.057100 -0.998400 0.000100
vn 0.031500 -0.979500 -0.198700
vn -0.072400 -0.997400 0.000100
vn 0.031400 -0.979500 0.198900
vn 0.102400 -0.975000 -0.197300
vn 0.192100 -0.981400 0.000000
vn 0.102300 -0.975000 0.197400
vn 0.156100 -0.938600 0.307600
vn -0.234300 -0.352900 0.905900
vn -0.081600 -0.592500 0.801400
vn -0.187200 -0.359000 0.914400
vn -0.114000 -0.204100 0.972300
vn 0.033500 -0.594600 0.803300
vn 0.089800 -0.477600 0.874000
vn 0.015500 -0.215300 0.976400
vn 0.042800 -0.151700 0.987500
vn -0.300600 0.835000 0.460900
vn -0.168100 0.719900 0.673400
vn -0.293900 0.837100 0.461500
vn -0.160200 0.942300 0.293900
vn -0.034200 0.741900 0.669700
vn 0.069200 0.863700 0.499300
vn -0.020500 0.955500 0.294200
vn 0.024600 0.973800 0.226100
vn -0.894000 0.077700 -0.441200
vn -0.774100 0.416700 -0.476500
vn -0.799500 0.177000 -0.573900
vn -0.717800 0.071300 -0.692600
vn -0.647100 0.494100 -0.580600
vn -0.604300 0.406000 -0.685600
vn -0.584300 0.168100 -0.794000
vn -0.553900 0.129000 -0.822500
vn -0.513100 -0.733400 -0.445800
vn -0.422300 -0.594100 -0.684700
vn -0.505100 -0.737500 -0.448300
vn -0.314000 -0.879500 -0.357600
vn -0.321100 -0.640700 -0.697400
vn -0.199400 -0.774100 -0.600800
vn -0.214400 -0.901600 -0.375700
vn -0.153900 -0.931700 -0.329100
vn -0.512900 -0.732800 0.447100
vn -0.313900 -0.879000 0.358900
vn -0.504600 -0.737000 0.449700
vn -0.421800 -0.593400 0.685500
vn -0.214400 -0.901100 0.376900
vn -0.199300 -0.773400 0.601700
vn -0.320800 -0.639900 0.698300
vn -0.280500 -0.513700 0.810800
vn -0.893400 0.077900 0.442500
vn -0.717100 0.071700 0.693300
vn -0.798800 0.177100 0.574900
vn -0.773600 0.416900 0.477300
vn -0.583700 0.168300 0.794400
vn -0.603800 0.406200 0.685900
vn -0.646700 0.494100 0.581100
vn -0.618500 0.612300 0.492500
vn -0.945700 0.325100 0.000400
vn -0.801400 0.569000 0.184200
vn -0.857300 0.514800 0.000400
vn -0.801600 0.568900 -0.183900
vn -0.671400 0.719500 0.177600
vn -0.647300 0.762200 0.000000
vn -0.671500 0.719500 -0.177200
vn -0.639400 0.724100 -0.258600
vn 0.868900 -0.446600 0.213200
vn 0.780600 -0.395600 0.483800
vn 0.864900 -0.452500 0.217400
vn 0.705200 -0.689100 0.167000
vn 0.655500 -0.507600 0.559100
vn 0.536400 -0.702200 0.468100
vn 0.581700 -0.776900 0.241100
vn 0.506300 -0.838200 0.202600
vn 0.968500 0.075000 0.237300
vn 0.862200 0.377800 0.337400
vn 0.916700 0.173500 0.360000
vn 0.860800 0.027300 0.508100
vn 0.722900 0.499000 0.477900
vn 0.699100 0.362900 0.616100
vn 0.731700 0.164200 0.661500
vn 0.686200 0.078600 0.723100
vn 0.962300 0.271900 0.000200
vn 0.846100 0.503800 -0.174400
vn 0.919300 0.393600 0.000200
vn 0.846000 0.503800 0.174600
vn 0.711100 0.681800 -0.171700
vn 0.655100 0.755500 0.000000
vn 0.711000 0.681900 0.172000
vn 0.657900 0.707500 0.258100
vn 0.968700 0.074800 -0.236600
vn 0.861100 0.027000 -0.507600
vn 0.916900 0.173500 -0.359500
vn 0.862500 0.377700 -0.336900
vn 0.731900 0.164100 -0.661300
vn 0.699300 0.362700 -0.616000
vn 0.723000 0.499100 -0.477700
vn 0.682800 0.576600 -0.448600
vn 0.869100 -0.446700 -0.212500
vn 0.705300 -0.689200 -0.166300
vn 0.865100 -0.452500 -0.216600
vn 0.780900 -0.395700 -0.483300
vn 0.581600 -0.777100 -0.240500
vn 0.536400 -0.702500 -0.467600
vn 0.655700 -0.507900 -0.558700
vn 0.585900 -0.437400 -0.682200
vn 0.214700 -0.976700 -0.000000
vn 0.103300 -0.974500 0.199100
vn 0.261800 -0.965100 -0.000000
vn 0.103300 -0.974500 -0.199100
vn 0.024400 -0.980200 0.196700
vn -0.101100 -0.994900 0.000000
vn 0.024400 -0.980200 -0.196700
vn -0.059600 -0.950100 -0.306100
vn 0.279400 -0.343800 0.896500
vn 0.118700 -0.203600 0.971800
vn 0.236800 -0.349400 0.906600
vn 0.143800 -0.589800 0.794600
vn -0.017500 -0.212800 0.976900
vn -0.070100 -0.474800 0.877300
vn 0.017400 -0.591900 0.805900
vn -0.027100 -0.710100 0.703600
vn 0.261500 0.847100 0.462700
vn 0.095700 0.950000 0.297300
vn 0.259800 0.847400 0.463100
vn 0.123300 0.727100 0.675300
vn -0.050000 0.947800 0.314800
vn -0.144300 0.847100 0.511500
vn -0.020700 0.729000 0.684200
vn -0.083900 0.628100 0.773600
vn 0.261000 0.847000 -0.463200
vn 0.122500 0.727000 -0.675600
vn 0.259200 0.847300 -0.463500
vn 0.095300 0.950000 -0.297500
vn -0.021300 0.728800 -0.684400
vn -0.144800 0.847000 -0.511600
vn -0.050400 0.947800 -0.315000
vn -0.110900 0.965900 -0.234000
vn 0.277900 -0.343800 -0.897000
vn 0.142600 -0.589800 -0.794800
vn 0.235400 -0.349400 -0.906900
vn 0.117200 -0.203500 -0.972000
vn 0.016300 -0.591800 -0.805900
vn -0.071300 -0.474700 -0.877200
vn -0.018800 -0.212700 -0.976900
vn -0.061800 -0.149600 -0.986800
vn 0.108500 -0.835600 0.538500
vn 0.215600 -0.909400 0.355600
vn 0.093800 -0.836400 0.540000
vn 0.227500 -0.679100 0.697900
vn 0.359400 -0.875800 0.322300
vn 0.476700 -0.730600 0.488800
vn 0.375100 -0.640500 0.670100
vn 0.435100 -0.518400 0.736200
vn 0.046900 0.436300 0.898600
vn 0.211500 0.315200 0.925200
vn 0.154800 0.416400 0.895900
vn 0.199400 0.630300 0.750300
vn 0.400300 0.251400 0.881200
vn 0.424600 0.512100 0.746600
vn 0.381000 0.584800 0.716100
vn 0.390100 0.715100 0.580100
vn 0.000900 1.000000 0.000200
vn 0.163100 0.973800 0.158400
vn 0.086900 0.996200 0.000200
vn 0.163000 0.973900 -0.158200
vn 0.333600 0.928700 0.162200
vn 0.401300 0.915900 0.000000
vn 0.333500 0.928700 -0.162000
vn 0.370200 0.893500 -0.254200
vn 0.045900 0.436600 -0.898500
vn 0.198300 0.630600 -0.750300
vn 0.153400 0.416800 -0.895900
vn 0.210200 0.315700 -0.925300
vn 0.379700 0.585300 -0.716400
vn 0.423400 0.512600 -0.747000
vn 0.398900 0.252000 -0.881700
vn 0.397900 0.254100 -0.881500
vn 0.108200 -0.835900 -0.538100
vn 0.226800 -0.679600 -0.697600
vn 0.093100 -0.836800 -0.539600
vn 0.215200 -0.909700 -0.355100
vn 0.374400 -0.641100 -0.669900
vn 0.476300 -0.731100 -0.488500
vn 0.358900 -0.876100 -0.321900
vn 0.395400 -0.885700 -0.243300
usemtl ColobotMesh_mat_1
s off
f 2/1/1 78/2/1 42/3/1
f 5/4/2 63/5/2 36/6/2
f 7/7/3 21/8/3 54/9/3
f 9/10/4 65/11/4 38/12/4
f 3/13/5 102/14/5 32/15/5
f 4/16/6 60/17/6 43/18/6
f 6/19/7 80/20/7 37/21/7
f 8/22/8 30/23/8 55/24/8
f 10/25/9 92/26/9 39/27/9
f 11/28/10 85/29/10 33/30/10
f 2/1/11 62/31/11 18/32/11
f 5/4/12 20/33/12 50/34/12
f 7/7/13 64/35/13 22/36/13
f 9/10/14 103/37/14 104/38/14
f 3/13/15 79/39/15 76/40/15
f 13/41/16 100/42/16 88/43/16
f 16/44/17 27/45/17 45/46/17
f 17/47/18 87/48/18 59/49/18
f 1/50/19 56/51/19 82/52/19
f 14/53/20 99/54/20 106/55/20
f 10/25/21 31/56/21 70/57/21
f 11/28/22 93/58/22 74/59/22
f 4/16/23 84/60/23 48/61/23
f 6/19/24 61/62/24 40/63/24
f 8/22/25 81/64/25 95/65/25
f 14/53/26 101/66/26 71/67/26
f 13/41/27 26/68/27 75/69/27
f 16/44/28 86/70/28 49/71/28
f 17/47/29 57/72/29 41/73/29
f 1/50/30 98/74/30 94/75/30
f 43/18/31 73/76/31 4/16/31
f 42/3/32 108/77/32 43/18/32
f 43/18/33 108/77/33 73/76/33
f 108/77/34 72/78/34 73/76/34
f 42/3/35 78/2/35 108/77/35
f 78/2/36 79/39/36 108/77/36
f 108/77/37 79/39/37 72/78/37
f 79/39/38 3/13/38 72/78/38
f 37/21/39 25/79/39 6/19/39
f 36/6/40 109/80/40 37/21/40
f 37/21/41 109/80/41 25/79/41
f 109/80/42 24/81/42 25/79/42
f 36/6/43 63/5/43 109/80/43
f 63/5/44 62/31/44 109/80/44
f 109/80/45 62/31/45 24/81/45
f 62/31/46 2/1/46 24/81/46
f 55/24/47 97/82/47 8/22/47
f 54/9/48 110/83/48 55/24/48
f 55/24/49 110/83/49 97/82/49
f 110/83/50 96/84/50 97/82/50
f 54/9/51 21/8/51 110/83/51
f 21/8/52 20/33/52 110/83/52
f 110/83/53 20/33/53 96/84/53
f 20/33/54 5/4/54 96/84/54
f 39/27/55 91/85/55 10/25/55
f 38/12/56 111/86/56 39/27/56
f 39/27/57 111/86/57 91/85/57
f 111/86/58 90/87/58 91/85/58
f 38/12/59 65/11/59 111/86/59
f 65/11/60 64/35/60 111/86/60
f 111/86/61 64/35/61 90/87/61
f 64/35/62 7/7/62 90/87/62
f 33/30/63 53/88/63 11/28/63
f 32/15/64 112/89/64 33/30/64
f 33/30/65 112/89/65 53/88/65
f 112/89/66 52/90/66 53/88/66
f 32/15/67 102/14/67 112/89/67
f 102/14/68 103/37/68 112/89/68
f 112/89/69 103/37/69 52/90/69
f 103/37/70 9/10/70 52/90/70
f 42/3/71 24/81/71 2/1/71
f 43/18/72 113/91/72 42/3/72
f 42/3/73 113/91/73 24/81/73
f 113/91/74 25/79/74 24/81/74
f 43/18/75 60/17/75 113/91/75
f 60/17/76 61/62/76 113/91/76
f 113/91/77 61/62/77 25/79/77
f 61/62/78 6/19/78 25/79/78
f 36/6/79 96/84/79 5/4/79
f 37/21/80 114/92/80 36/6/80
f 36/6/81 114/92/81 96/84/81
f 114/92/82 97/82/82 96/84/82
f 37/21/83 80/20/83 114/92/83
f 80/20/84 81/64/84 114/92/84
f 114/92/85 81/64/85 97/82/85
f 81/64/86 8/22/86 97/82/86
f 54/9/87 90/87/87 7/7/87
f 55/24/88 115/93/88 54/9/88
f 54/9/89 115/93/89 90/87/89
f 115/93/90 91/85/90 90/87/90
f 55/24/91 30/23/91 115/93/91
f 30/23/92 31/56/92 115/93/92
f 115/93/93 31/56/93 91/85/93
f 31/56/94 10/25/94 91/85/94
f 38/12/95 52/90/95 9/10/95
f 39/27/96 116/94/96 38/12/96
f 38/12/97 116/94/97 52/90/97
f 116/94/98 53/88/98 52/90/98
f 39/27/99 92/26/99 116/94/99
f 92/26/100 93/58/100 116/94/100
f 116/94/101 93/58/101 53/88/101
f 93/58/102 11/28/102 53/88/102
f 32/15/103 72/78/103 3/13/103
f 33/30/104 117/95/104 32/15/104
f 32/15/105 117/95/105 72/78/105
f 117/95/106 73/76/106 72/78/106
f 33/30/107 85/29/107 117/95/107
f 85/29/108 84/60/108 117/95/108
f 117/95/109 84/60/109 73/76/109
f 84/60/110 4/16/110 73/76/110
f 19/96/111 51/97/111 12/98/111
f 18/32/112 118/99/112 19/96/112
f 19/96/113 118/99/113 51/97/113
f 118/99/114 50/34/114 51/97/114
f 18/32/115 62/31/115 118/99/115
f 62/31/116 63/5/116 118/99/116
f 118/99/117 63/5/117 50/34/117
f 63/5/118 5/4/118 50/34/118
f 51/97/119 23/100/119 12/98/119
f 50/34/120 119/101/120 51/97/120
f 51/97/121 119/101/121 23/100/121
f 119/101/122 22/36/122 23/100/122
f 50/34/123 20/33/123 119/101/123
f 20/33/124 21/8/124 119/101/124
f 119/101/125 21/8/125 22/36/125
f 21/8/126 7/7/126 22/36/126
f 23/100/127 105/102/127 12/98/127
f 22/36/128 120/103/128 23/100/128
f 23/100/129 120/103/129 105/102/129
f 120/103/130 104/38/130 105/102/130
f 22/36/131 64/35/131 120/103/131
f 64/35/132 65/11/132 120/103/132
f 120/103/133 65/11/133 104/38/133
f 65/11/134 9/10/134 104/38/134
f 105/102/135 77/104/135 12/98/135
f 104/38/136 121/105/136 105/102/136
f 105/102/137 121/105/137 77/104/137
f 121/105/138 76/40/138 77/104/138
f 104/38/139 103/37/139 121/105/139
f 103/37/140 102/14/140 121/105/140
f 121/105/141 102/14/141 76/40/141
f 102/14/142 3/13/142 76/40/142
f 77/104/143 19/96/143 12/98/143
f 76/40/144 122/106/144 77/104/144
f 77/104/145 122/106/145 19/96/145
f 122/106/146 18/32/146 19/96/146
f 76/40/147 79/39/147 122/106/147
f 79/39/148 78/2/148 122/106/148
f 122/106/149 78/2/149 18/32/149
f 78/2/150 2/1/150 18/32/150
f 89/107/151 107/108/151 15/109/151
f 88/43/152 123/110/152 89/107/152
f 89/107/153 123/110/153 107/108/153
f 123/110/154 106/55/154 107/108/154
f 88/43/155 100/42/155 123/110/155
f 100/42/156 101/66/156 123/110/156
f 123/110/157 101/66/157 106/55/157
f 101/66/158 14/53/158 106/55/158
f 44/111/159 89/107/159 15/109/159
f 45/46/160 124/112/160 44/111/160
f 44/111/161 124/112/161 89/107/161
f 124/112/162 88/43/162 89/107/162
f 45/46/163 27/45/163 124/112/163
f 27/45/164 26/68/164 124/112/164
f 124/112/165 26/68/165 88/43/165
f 26/68/166 13/41/166 88/43/166
f 58/113/167 44/111/167 15/109/167
f 59/49/168 125/114/168 58/113/168
f 58/113/169 125/114/169 44/111/169
f 125/114/170 45/46/170 44/111/170
f 59/49/171 87/48/171 125/114/171
f 87/48/172 86/70/172 125/114/172
f 125/114/173 86/70/173 45/46/173
f 86/70/174 16/44/174 45/46/174
f 83/115/175 58/113/175 15/109/175
f 82/52/176 126/116/176 83/115/176
f 83/115/177 126/116/177 58/113/177
f 126/116/178 59/49/178 58/113/178
f 82/52/179 56/51/179 126/116/179
f 56/51/180 57/72/180 126/116/180
f 126/116/181 57/72/181 59/49/181
f 57/72/182 17/47/182 59/49/182
f 107/108/183 83/115/183 15/109/183
f 106/55/184 127/117/184 107/108/184
f 107/108/185 127/117/185 83/115/185
f 127/117/186 82/52/186 83/115/186
f 106/55/187 99/54/187 127/117/187
f 99/54/188 98/74/188 127/117/188
f 127/117/189 98/74/189 82/52/189
f 98/74/190 1/50/190 82/52/190
f 71/67/191 69/118/191 14/53/191
f 70/57/192 128/119/192 71/67/192
f 71/67/193 128/119/193 69/118/193
f 128/119/194 68/120/194 69/118/194
f 70/57/195 31/56/195 128/119/195
f 31/56/196 30/23/196 128/119/196
f 128/119/197 30/23/197 68/120/197
f 30/23/198 8/22/198 68/120/198
f 75/69/199 29/121/199 13/41/199
f 74/59/200 129/122/200 75/69/200
f 75/69/201 129/122/201 29/121/201
f 129/122/202 28/123/202 29/121/202
f 74/59/203 93/58/203 129/122/203
f 93/58/204 92/26/204 129/122/204
f 129/122/205 92/26/205 28/123/205
f 92/26/206 10/25/206 28/123/206
f 49/71/207 47/124/207 16/44/207
f 48/61/208 130/125/208 49/71/208
f 49/71/209 130/125/209 47/124/209
f 130/125/210 46/126/210 47/124/210
f 48/61/211 84/60/211 130/125/211
f 84/60/212 85/29/212 130/125/212
f 130/125/213 85/29/213 46/126/213
f 85/29/214 11/28/214 46/126/214
f 41/73/215 67/127/215 17/47/215
f 40/63/216 131/128/216 41/73/216
f 41/73/217 131/128/217 67/127/217
f 131/128/218 66/129/218 67/127/218
f 40/63/219 61/62/219 131/128/219
f 61/62/220 60/17/220 131/128/220
f 131/128/221 60/17/221 66/129/221
f 60/17/222 4/16/222 66/129/222
f 94/75/223 34/130/223 1/50/223
f 95/65/224 132/131/224 94/75/224
f 94/75/225 132/131/225 34/130/225
f 132/131/226 35/132/226 34/130/226
f 95/65/227 81/64/227 132/131/227
f 81/64/228 80/20/228 132/131/228
f 132/131/229 80/20/229 35/132/229
f 80/20/230 6/19/230 35/132/230
f 70/57/231 28/123/231 10/25/231
f 71/67/232 133/133/232 70/57/232
f 70/57/233 133/133/233 28/123/233
f 133/133/234 29/121/234 28/123/234
f 71/67/235 101/66/235 133/133/235
f 101/66/236 100/42/236 133/133/236
f 133/133/237 100/42/237 29/121/237
f 100/42/238 13/41/238 29/121/238
f 74/59/239 46/126/239 11/28/239
f 75/69/240 134/134/240 74/59/240
f 74/59/241 134/134/241 46/126/241
f 134/134/242 47/124/242 46/126/242
f 75/69/243 26/68/243 134/134/243
f 26/68/244 27/45/244 134/134/244
f 134/134/245 27/45/245 47/124/245
f 27/45/246 16/44/246 47/124/246
f 48/61/247 66/129/247 4/16/247
f 49/71/248 135/135/248 48/61/248
f 48/61/249 135/135/249 66/129/249
f 135/135/250 67/127/250 66/129/250
f 49/71/251 86/70/251 135/135/251
f 86/70/252 87/48/252 135/135/252
f 135/135/253 87/48/253 67/127/253
f 87/48/254 17/47/254 67/127/254
f 40/63/255 35/132/255 6/19/255
f 41/73/256 136/136/256 40/63/256
f 40/63/257 136/136/257 35/132/257
f 136/136/258 34/130/258 35/132/258
f 41/73/259 57/72/259 136/136/259
f 57/72/260 56/51/260 136/136/260
f 136/136/261 56/51/261 34/130/261
f 56/51/262 1/50/262 34/130/262
f 95/65/263 68/120/263 8/22/263
f 94/75/264 137/137/264 95/65/264
f 95/65/265 137/137/265 68/120/265
f 137/137/266 69/118/266 68/120/266
f 94/75/267 98/74/267 137/137/267
f 98/74/268 99/54/268 137/137/268
f 137/137/269 99/54/269 69/118/269
f 99/54/270 14/53/270 69/118/270
