# Blender v2.71 (sub 0) OBJ File: 'bee7.blend'
# www.blender.org
mtllib bee7.mtl
o ColobotMesh_1_ColobotMesh_
v -4.887840 -0.043205 -4.170870
v 0.301842 -0.043205 0.072012
v -0.066968 -0.043205 0.070449
v -2.200800 -0.043205 -0.983294
v -5.829630 -0.043205 -1.610710
v -5.572780 -0.043205 -3.881090
v 0.301842 0.056795 0.072012
v -4.887840 0.056795 -4.170870
v -0.066968 0.056795 0.070449
v -2.200800 0.056795 -0.983294
v -5.829630 0.056795 -1.610710
v -5.572780 0.056795 -3.881090
v -5.230310 -0.043205 -4.025980
v -5.230310 0.056795 -4.025980
v -5.701205 0.056795 -2.745900
v -1.133884 0.056795 -0.456423
v -5.358735 -0.043205 -2.890790
v 0.117437 -0.043205 0.071231
v -2.477404 0.056795 -2.050210
v -3.544320 -0.043205 -2.577082
v -5.358735 0.056795 -2.890790
v -4.015215 0.056795 -1.297002
v -3.544320 0.056795 -2.577082
v -2.292999 0.056795 -2.049429
v 0.117437 0.056795 0.071231
v -5.701205 -0.043205 -2.745900
v -2.477404 -0.043205 -2.050210
v -1.133884 -0.043205 -0.456423
v -4.015215 -0.043205 -1.297002
v -2.292999 -0.043205 -2.049429
vt 0.556553 0.623047
vt 0.706988 0.500000
vt 0.696297 0.500046
vt 0.634443 0.530605
vt 0.529253 0.548800
vt 0.536698 0.614643
vt 0.857422 0.376953
vt 0.846731 0.376999
vt 0.836040 0.377044
vt 0.774186 0.407604
vt 0.712333 0.438163
vt 0.607143 0.456358
vt 0.501953 0.474554
vt 0.509398 0.540396
vt 0.516844 0.606239
vn 0.000000 -1.000000 -0.000000
vn -0.000000 1.000000 0.000000
usemtl ColobotMesh_mat_1
s off
f 1/1/1 30/2/1 27/3/1
f 1/1/1 27/3/1 20/4/1
f 1/1/1 20/4/1 17/5/1
f 1/1/1 17/5/1 13/6/1
f 7/7/2 24/2/2 25/8/2
f 9/9/2 19/3/2 16/10/2
f 10/11/2 23/4/2 22/12/2
f 11/13/2 21/5/2 15/14/2
f 27/3/1 18/8/1 3/9/1
f 27/3/1 30/2/1 18/8/1
f 30/2/1 2/7/1 18/8/1
f 20/4/1 28/10/1 4/11/1
f 20/4/1 27/3/1 28/10/1
f 27/3/1 3/9/1 28/10/1
f 17/5/1 29/12/1 5/13/1
f 17/5/1 20/4/1 29/12/1
f 20/4/1 4/11/1 29/12/1
f 13/6/1 26/14/1 6/15/1
f 13/6/1 17/5/1 26/14/1
f 17/5/1 5/13/1 26/14/1
f 25/8/2 19/3/2 9/9/2
f 25/8/2 24/2/2 19/3/2
f 24/2/2 8/1/2 19/3/2
f 16/10/2 23/4/2 10/11/2
f 16/10/2 19/3/2 23/4/2
f 19/3/2 8/1/2 23/4/2
f 22/12/2 21/5/2 11/13/2
f 22/12/2 23/4/2 21/5/2
f 23/4/2 8/1/2 21/5/2
f 15/14/2 14/6/2 12/15/2
f 15/14/2 21/5/2 14/6/2
f 21/5/2 8/1/2 14/6/2
