# Blender v2.71 (sub 0) OBJ File: 'bullet.blend'
# www.blender.org
mtllib bullet.mtl
o ColobotMesh_1_ColobotMesh_
v -0.586097 2.020780 -0.233444
v -0.714882 1.000000 -0.963817
v -1.181770 1.000000 0.208378
v -0.377720 1.630880 0.948326
v -0.377720 0.369123 0.948325
v -0.586098 -0.020781 -0.233444
v 0.377720 1.630880 -0.948326
v 0.377720 0.369123 -0.948326
v 0.586097 2.020780 0.233444
v 0.714882 1.000000 0.963817
v 0.586097 -0.020781 0.233444
v 1.181770 1.000000 -0.208378
v 0.748501 0.537845 -0.777895
v 1.016518 0.748137 -0.531246
v 0.427498 1.210291 -1.073305
v 0.427498 0.789706 -1.073305
v -0.042716 0.130323 0.787899
v 0.278557 0.000355 0.549605
v 0.510688 1.869683 -0.601513
v 0.580147 1.999649 -0.207589
v -0.757680 0.592474 -0.799250
v -0.714752 0.252213 -0.555793
v -1.016518 1.251864 0.531246
v -0.748501 1.462157 0.777895
v 0.757682 0.592473 0.799251
v 0.714753 0.252213 0.555793
v 0.008699 0.537842 1.079493
v 0.372899 0.748135 1.084657
v -0.372899 1.251866 -1.084658
v -0.008699 1.462160 -1.079494
v 0.748502 1.462160 -0.777900
v 1.016519 1.251866 -0.531250
v 0.510692 0.130316 -0.601511
v 0.580151 0.000348 -0.207588
v -0.042716 1.869686 0.787907
v 0.278556 1.999652 0.549613
v 0.901152 0.252213 0.087822
v 1.099709 0.592473 -0.059452
v 0.901152 1.747786 0.087822
v 1.099709 1.407526 -0.059452
v -0.510692 0.130316 0.601510
v -0.580151 0.000348 0.207587
v -0.195366 -0.155313 -0.077815
v 0.195365 -0.155313 0.077815
v -0.580147 1.999649 0.207589
v -0.510688 1.869683 0.601513
v -0.995495 1.000000 -0.622866
v -1.151124 1.000000 -0.232135
v -0.278557 0.000348 -0.549613
v 0.042716 0.130316 -0.787907
v -1.099710 0.592473 0.059452
v -0.901152 0.252213 -0.087822
v -0.427501 1.210294 1.073309
v -0.427501 0.789709 1.073309
v 0.995495 1.000000 0.622866
v 1.151124 1.000000 0.232135
v -0.195366 2.155313 -0.077815
v 0.195366 2.155313 0.077815
v -0.901152 1.747786 -0.087822
v -1.099709 1.407526 0.059452
v 0.714756 1.747786 0.555797
v 0.757684 1.407526 0.799255
v 0.008699 1.462160 1.079494
v 0.372899 1.251866 1.084658
v -0.714756 1.747786 -0.555797
v -0.757684 1.407526 -0.799255
v -0.278556 1.999652 -0.549613
v 0.042716 1.869685 -0.787907
v -0.372899 0.748135 -1.084658
v -0.008699 0.537843 -1.079494
v -1.016519 0.748135 0.531250
v -0.748502 0.537843 0.777899
v -1.034810 1.409452 -0.389792
v -0.899568 1.662508 0.377198
v -0.815985 1.000000 0.851227
v -0.899569 0.337492 0.377201
v -1.034811 0.590547 -0.389792
v -0.007286 1.000001 -1.179139
v 0.132199 2.105594 -0.388081
v 0.357890 1.683295 0.891877
v 0.357890 0.316708 0.891874
v 0.132199 -0.105594 -0.388081
v -0.357890 1.683295 -0.891877
v -0.132199 2.105594 0.388081
v 0.007286 1.000001 1.179139
v -0.132199 -0.105590 0.388076
v -0.357890 0.316705 -0.891877
v 0.899569 1.662509 -0.377201
v 1.034810 1.409452 0.389792
v 1.034810 0.590547 0.389792
v 0.899568 0.337493 -0.377198
v 0.815985 1.000003 -0.851227
vt 0.793564 0.998047
vt 0.790110 0.993490
vt 0.795653 0.993490
vt 0.810327 0.992825
vt 0.804739 0.994565
vt 0.806828 0.990008
vt 0.810327 0.975925
vt 0.810327 0.981558
vt 0.806828 0.978742
vt 0.793564 0.970703
vt 0.799152 0.972444
vt 0.795653 0.975260
vt 0.783203 0.984375
vt 0.786657 0.979818
vt 0.788746 0.984375
vt 0.783423 0.992825
vt 0.783423 0.987191
vt 0.783350 0.990008
vt 0.800186 0.998047
vt 0.794598 0.996306
vt 0.797979 0.998047
vt 0.810547 0.984375
vt 0.807093 0.988932
vt 0.810474 0.987192
vt 0.800186 0.970703
vt 0.803640 0.975260
vt 0.803566 0.972444
vt 0.783423 0.975925
vt 0.789011 0.974185
vt 0.786803 0.974185
vt 0.786657 0.988932
vt 0.783276 0.987191
vt 0.799152 0.996306
vt 0.795771 0.998047
vt 0.810327 0.987191
vt 0.810400 0.990008
vt 0.804739 0.974185
vt 0.806947 0.974185
vt 0.790110 0.975260
vt 0.790184 0.972444
vt 0.789011 0.994565
vt 0.786922 0.990008
vt 0.803640 0.993490
vt 0.798097 0.993490
vt 0.807093 0.979818
vt 0.805004 0.984375
vt 0.794598 0.972444
vt 0.798097 0.975260
vt 0.783423 0.981558
vt 0.786922 0.978742
vt 0.797742 0.988932
vt 0.794288 0.984375
vt 0.799831 0.984375
vt 0.792199 0.988932
vt 0.803330 0.987191
vt 0.801241 0.991749
vt 0.803330 0.981558
vt 0.806828 0.984375
vt 0.797742 0.979818
vt 0.801241 0.977001
vt 0.792199 0.979818
vt 0.783276 0.981558
vt 0.783350 0.984375
vt 0.783350 0.978742
vt 0.790184 0.996306
vt 0.792391 0.996306
vt 0.786803 0.994565
vt 0.806947 0.994565
vt 0.807020 0.991749
vt 0.803566 0.996306
vt 0.810400 0.978742
vt 0.807020 0.977001
vt 0.810474 0.981558
vt 0.795771 0.970703
vt 0.792391 0.972444
vt 0.797979 0.970703
vt 0.786730 0.991749
vt 0.801359 0.996306
vt 0.810400 0.984375
vt 0.801359 0.972444
vt 0.786730 0.977001
vt 0.790420 0.987192
vt 0.796008 0.988932
vt 0.793919 0.984375
vt 0.792509 0.991749
vt 0.799462 0.984375
vt 0.801551 0.988932
vt 0.796008 0.979818
vt 0.801551 0.979818
vt 0.790420 0.981558
vt 0.792509 0.977001
vt 0.786922 0.984375
vn -0.699200 0.658400 -0.278500
vn -0.543000 0.579800 0.607400
vn -0.507700 -0.300100 0.807600
vn -0.642100 -0.765200 0.045300
vn -0.760500 -0.172900 -0.625900
vn 0.186500 0.300100 -0.935500
vn 0.342700 0.938100 -0.049600
vn 0.496400 0.279700 0.821800
vn 0.435100 -0.765200 0.474400
vn 0.243600 -0.752700 -0.611700
vn -0.496400 0.279700 -0.821800
vn -0.342700 0.938100 0.049600
vn -0.186500 0.300100 0.935500
vn -0.243600 -0.752700 0.611700
vn -0.435100 -0.765200 -0.474400
vn 0.543000 0.579800 -0.607400
vn 0.699200 0.658400 0.278500
vn 0.760500 -0.172900 0.625900
vn 0.642100 -0.765200 -0.045300
vn 0.507700 -0.300100 -0.807600
vn -0.982600 0.172900 -0.068400
vn -0.879500 0.459100 -0.125100
vn -0.965400 0.220900 -0.138500
vn -0.922200 0.120500 -0.367300
vn -0.762100 0.572000 -0.303500
vn -0.737800 0.451900 -0.501500
vn -0.804800 0.233400 -0.545800
vn -0.760500 0.172900 -0.625900
vn -0.925500 0.279700 0.255500
vn -0.770600 0.404300 0.492700
vn -0.892400 0.357400 0.275300
vn -0.839700 0.533600 0.100700
vn -0.615900 0.586900 0.525600
vn -0.588500 0.731200 0.345000
vn -0.685000 0.716200 0.133700
vn -0.642100 0.765200 0.045300
vn -0.890200 0.000000 0.455600
vn -0.746000 -0.209200 0.632200
vn -0.847300 0.000000 0.531000
vn -0.746000 0.209200 0.632200
vn -0.568200 -0.209200 0.795800
vn -0.496300 -0.000000 0.868200
vn -0.568200 0.209200 0.795800
vn -0.507700 0.300100 0.807600
vn -0.925500 -0.279700 0.255500
vn -0.839700 -0.533600 0.100700
vn -0.892400 -0.357400 0.275300
vn -0.770600 -0.404300 0.492700
vn -0.685000 -0.716200 0.133700
vn -0.588500 -0.731200 0.345000
vn -0.615900 -0.586900 0.525600
vn -0.543000 -0.579800 0.607400
vn -0.982600 -0.172900 -0.068400
vn -0.922200 -0.120500 -0.367300
vn -0.965400 -0.220900 -0.138500
vn -0.879500 -0.459100 -0.125100
vn -0.804800 -0.233400 -0.545800
vn -0.737800 -0.451900 -0.501500
vn -0.762100 -0.572000 -0.303500
vn -0.699200 -0.658400 -0.278500
vn -0.333200 -0.000000 -0.942900
vn -0.107000 0.209200 -0.972000
vn -0.250200 -0.000000 -0.968200
vn -0.107000 -0.209200 -0.972000
vn 0.134600 0.209200 -0.968600
vn 0.236500 0.000000 -0.971600
vn 0.134600 -0.209200 -0.968600
vn 0.186500 -0.300100 -0.935500
vn -0.214800 0.938100 -0.271600
vn 0.044600 0.992700 -0.112000
vn -0.130600 0.948100 -0.289800
vn -0.024500 0.863400 -0.503900
vn 0.280800 0.949600 -0.139400
vn 0.346400 0.871000 -0.348400
vn 0.211600 0.820300 -0.531400
vn 0.243600 0.752700 -0.611700
vn -0.023300 0.579800 0.814400
vn 0.220900 0.404300 0.887600
vn 0.063000 0.586000 0.807900
vn 0.178100 0.742800 0.645300
vn 0.448200 0.377600 0.810200
vn 0.524200 0.538300 0.659900
vn 0.405500 0.716200 0.568000
vn 0.435100 0.765200 0.474400
vn -0.023300 -0.579800 0.814400
vn 0.178100 -0.742900 0.645300
vn 0.063000 -0.586000 0.807900
vn 0.220900 -0.404300 0.887600
vn 0.405500 -0.716200 0.568000
vn 0.524200 -0.538300 0.659900
vn 0.448200 -0.377600 0.810200
vn 0.496400 -0.279700 0.821800
vn -0.214800 -0.938100 -0.271600
vn -0.024500 -0.863400 -0.503900
vn -0.130600 -0.948100 -0.289800
vn 0.044600 -0.992700 -0.112000
vn 0.211600 -0.820300 -0.531400
vn 0.346400 -0.871000 -0.348400
vn 0.280800 -0.949600 -0.139400
vn 0.342700 -0.938100 -0.049600
vn 0.023300 0.579800 -0.814400
vn -0.220900 0.404300 -0.887600
vn -0.063000 0.586000 -0.807900
vn -0.178100 0.742800 -0.645300
vn -0.448200 0.377600 -0.810200
vn -0.524200 0.538300 -0.659900
vn -0.405500 0.716200 -0.568000
vn -0.435100 0.765200 -0.474400
vn 0.214800 0.938100 0.271600
vn -0.044600 0.992700 0.112000
vn 0.130600 0.948100 0.289800
vn 0.024500 0.863400 0.503900
vn -0.280800 0.949600 0.139400
vn -0.346400 0.871000 0.348400
vn -0.211600 0.820300 0.531400
vn -0.243600 0.752700 0.611700
vn 0.333200 -0.000000 0.942900
vn 0.107000 0.209200 0.972000
vn 0.250200 -0.000000 0.968200
vn 0.107000 -0.209200 0.972000
vn -0.134600 0.209200 0.968600
vn -0.236500 -0.000000 0.971600
vn -0.134600 -0.209200 0.968600
vn -0.186500 -0.300100 0.935500
vn 0.214800 -0.938100 0.271700
vn 0.024500 -0.863400 0.503900
vn 0.130600 -0.948100 0.289800
vn -0.044600 -0.992700 0.112000
vn -0.211600 -0.820300 0.531400
vn -0.346400 -0.871000 0.348400
vn -0.280700 -0.949600 0.139400
vn -0.342700 -0.938100 0.049600
vn 0.023300 -0.579800 -0.814400
vn -0.178100 -0.742800 -0.645300
vn -0.063000 -0.586000 -0.807900
vn -0.220900 -0.404300 -0.887600
vn -0.405500 -0.716200 -0.568000
vn -0.524200 -0.538300 -0.659900
vn -0.448200 -0.377600 -0.810200
vn -0.496400 -0.279700 -0.821800
vn 0.925500 0.279700 -0.255500
vn 0.770600 0.404300 -0.492700
vn 0.892400 0.357400 -0.275300
vn 0.839700 0.533600 -0.100700
vn 0.615900 0.586900 -0.525600
vn 0.588500 0.731200 -0.345000
vn 0.685000 0.716200 -0.133700
vn 0.642100 0.765200 -0.045300
vn 0.982600 0.172900 0.068400
vn 0.879500 0.459100 0.125100
vn 0.965400 0.220900 0.138500
vn 0.922200 0.120500 0.367300
vn 0.762100 0.572000 0.303500
vn 0.737800 0.451900 0.501500
vn 0.804800 0.233400 0.545800
vn 0.760500 0.172900 0.625900
vn 0.982600 -0.172900 0.068400
vn 0.922200 -0.120500 0.367300
vn 0.965400 -0.220900 0.138500
vn 0.879500 -0.459100 0.125100
vn 0.804800 -0.233400 0.545800
vn 0.737800 -0.451900 0.501500
vn 0.762100 -0.572000 0.303500
vn 0.699200 -0.658400 0.278500
vn 0.925500 -0.279700 -0.255500
vn 0.839700 -0.533600 -0.100700
vn 0.892400 -0.357400 -0.275300
vn 0.770600 -0.404300 -0.492700
vn 0.685000 -0.716200 -0.133700
vn 0.588500 -0.731200 -0.345000
vn 0.615900 -0.586900 -0.525600
vn 0.543000 -0.579800 -0.607400
vn 0.890200 -0.000000 -0.455600
vn 0.746000 -0.209200 -0.632200
vn 0.847300 -0.000000 -0.531000
vn 0.746000 0.209200 -0.632200
vn 0.568200 -0.209200 -0.795800
vn 0.496300 0.000000 -0.868200
vn 0.568200 0.209200 -0.795800
vn 0.507700 0.300100 -0.807600
usemtl ColobotMesh_mat_1
s off
f 1/1/1 65/2/1 59/3/1
f 4/4/2 46/5/2 24/6/2
f 5/7/3 54/8/3 72/9/3
f 6/10/4 42/11/4 52/12/4
f 2/13/5 21/14/5 47/15/5
f 7/16/6 15/17/6 30/18/6
f 9/19/7 20/20/7 58/21/7
f 10/22/8 62/23/8 64/24/8
f 11/25/9 26/26/9 18/27/9
f 8/28/10 33/29/10 50/30/10
f 2/13/11 66/31/11 29/32/11
f 1/1/12 45/33/12 57/34/12
f 4/4/13 53/35/13 63/36/13
f 5/7/14 41/37/14 17/38/14
f 6/10/15 22/39/15 49/40/15
f 7/16/16 19/41/16 31/42/16
f 9/19/17 61/43/17 39/44/17
f 10/22/18 25/45/18 55/46/18
f 11/25/19 34/47/19 37/48/19
f 8/28/20 16/49/20 13/50/20
f 60/51/21 48/52/21 3/53/21
f 59/3/22 73/54/22 60/51/22
f 60/51/23 73/54/23 48/52/23
f 73/54/24 47/15/24 48/52/24
f 59/3/25 65/2/25 73/54/25
f 65/2/26 66/31/26 73/54/26
f 73/54/27 66/31/27 47/15/27
f 66/31/28 2/13/28 47/15/28
f 23/55/29 60/51/29 3/53/29
f 24/6/30 74/56/30 23/55/30
f 23/55/31 74/56/31 60/51/31
f 74/56/32 59/3/32 60/51/32
f 24/6/33 46/5/33 74/56/33
f 46/5/34 45/33/34 74/56/34
f 74/56/35 45/33/35 59/3/35
f 45/33/36 1/1/36 59/3/36
f 71/57/37 23/55/37 3/53/37
f 72/9/38 75/58/38 71/57/38
f 71/57/39 75/58/39 23/55/39
f 75/58/40 24/6/40 23/55/40
f 72/9/41 54/8/41 75/58/41
f 54/8/42 53/35/42 75/58/42
f 75/58/43 53/35/43 24/6/43
f 53/35/44 4/4/44 24/6/44
f 51/59/45 71/57/45 3/53/45
f 52/12/46 76/60/46 51/59/46
f 51/59/47 76/60/47 71/57/47
f 76/60/48 72/9/48 71/57/48
f 52/12/49 42/11/49 76/60/49
f 42/11/50 41/37/50 76/60/50
f 76/60/51 41/37/51 72/9/51
f 41/37/52 5/7/52 72/9/52
f 48/52/53 51/59/53 3/53/53
f 47/15/54 77/61/54 48/52/54
f 48/52/55 77/61/55 51/59/55
f 77/61/56 52/12/56 51/59/56
f 47/15/57 21/14/57 77/61/57
f 21/14/58 22/39/58 77/61/58
f 77/61/59 22/39/59 52/12/59
f 22/39/60 6/10/60 52/12/60
f 29/32/61 69/62/61 2/13/61
f 30/18/62 78/63/62 29/32/62
f 29/32/63 78/63/63 69/62/63
f 78/63/64 70/64/64 69/62/64
f 30/18/65 15/17/65 78/63/65
f 15/17/66 16/49/66 78/63/66
f 78/63/67 16/49/67 70/64/67
f 16/49/68 8/28/68 70/64/68
f 57/34/69 67/65/69 1/1/69
f 58/21/70 79/66/70 57/34/70
f 57/34/71 79/66/71 67/65/71
f 79/66/72 68/67/72 67/65/72
f 58/21/73 20/20/73 79/66/73
f 20/20/74 19/41/74 79/66/74
f 79/66/75 19/41/75 68/67/75
f 19/41/76 7/16/76 68/67/76
f 63/36/77 35/68/77 4/4/77
f 64/24/78 80/69/78 63/36/78
f 63/36/79 80/69/79 35/68/79
f 80/69/80 36/70/80 35/68/80
f 64/24/81 62/23/81 80/69/81
f 62/23/82 61/43/82 80/69/82
f 80/69/83 61/43/83 36/70/83
f 61/43/84 9/19/84 36/70/84
f 17/38/85 27/71/85 5/7/85
f 18/27/86 81/72/86 17/38/86
f 17/38/87 81/72/87 27/71/87
f 81/72/88 28/73/88 27/71/88
f 18/27/89 26/26/89 81/72/89
f 26/26/90 25/45/90 81/72/90
f 81/72/91 25/45/91 28/73/91
f 25/45/92 10/22/92 28/73/92
f 49/40/93 43/74/93 6/10/93
f 50/30/94 82/75/94 49/40/94
f 49/40/95 82/75/95 43/74/95
f 82/75/96 44/76/96 43/74/96
f 50/30/97 33/29/97 82/75/97
f 33/29/98 34/47/98 82/75/98
f 82/75/99 34/47/99 44/76/99
f 34/47/100 11/25/100 44/76/100
f 30/18/101 68/67/101 7/16/101
f 29/32/102 83/77/102 30/18/102
f 30/18/103 83/77/103 68/67/103
f 83/77/104 67/65/104 68/67/104
f 29/32/105 66/31/105 83/77/105
f 66/31/106 65/2/106 83/77/106
f 83/77/107 65/2/107 67/65/107
f 65/2/108 1/1/108 67/65/108
f 58/21/109 36/70/109 9/19/109
f 57/34/110 84/78/110 58/21/110
f 58/21/111 84/78/111 36/70/111
f 84/78/112 35/68/112 36/70/112
f 57/34/113 45/33/113 84/78/113
f 45/33/114 46/5/114 84/78/114
f 84/78/115 46/5/115 35/68/115
f 46/5/116 4/4/116 35/68/116
f 64/24/117 28/73/117 10/22/117
f 63/36/118 85/79/118 64/24/118
f 64/24/119 85/79/119 28/73/119
f 85/79/120 27/71/120 28/73/120
f 63/36/121 53/35/121 85/79/121
f 53/35/122 54/8/122 85/79/122
f 85/79/123 54/8/123 27/71/123
f 54/8/124 5/7/124 27/71/124
f 18/27/125 44/76/125 11/25/125
f 17/38/126 86/80/126 18/27/126
f 18/27/127 86/80/127 44/76/127
f 86/80/128 43/74/128 44/76/128
f 17/38/129 41/37/129 86/80/129
f 41/37/130 42/11/130 86/80/130
f 86/80/131 42/11/131 43/74/131
f 42/11/132 6/10/132 43/74/132
f 50/30/133 70/64/133 8/28/133
f 49/40/134 87/81/134 50/30/134
f 50/30/135 87/81/135 70/64/135
f 87/81/136 69/62/136 70/64/136
f 49/40/137 22/39/137 87/81/137
f 22/39/138 21/14/138 87/81/138
f 87/81/139 21/14/139 69/62/139
f 21/14/140 2/13/140 69/62/140
f 32/82/141 40/83/141 12/84/141
f 31/42/142 88/85/142 32/82/142
f 32/82/143 88/85/143 40/83/143
f 88/85/144 39/44/144 40/83/144
f 31/42/145 19/41/145 88/85/145
f 19/41/146 20/20/146 88/85/146
f 88/85/147 20/20/147 39/44/147
f 20/20/148 9/19/148 39/44/148
f 40/83/149 56/86/149 12/84/149
f 39/44/150 89/87/150 40/83/150
f 40/83/151 89/87/151 56/86/151
f 89/87/152 55/46/152 56/86/152
f 39/44/153 61/43/153 89/87/153
f 61/43/154 62/23/154 89/87/154
f 89/87/155 62/23/155 55/46/155
f 62/23/156 10/22/156 55/46/156
f 56/86/157 38/88/157 12/84/157
f 55/46/158 90/89/158 56/86/158
f 56/86/159 90/89/159 38/88/159
f 90/89/160 37/48/160 38/88/160
f 55/46/161 25/45/161 90/89/161
f 25/45/162 26/26/162 90/89/162
f 90/89/163 26/26/163 37/48/163
f 26/26/164 11/25/164 37/48/164
f 38/88/165 14/90/165 12/84/165
f 37/48/166 91/91/166 38/88/166
f 38/88/167 91/91/167 14/90/167
f 91/91/168 13/50/168 14/90/168
f 37/48/169 34/47/169 91/91/169
f 34/47/170 33/29/170 91/91/170
f 91/91/171 33/29/171 13/50/171
f 33/29/172 8/28/172 13/50/172
f 14/90/173 32/82/173 12/84/173
f 13/50/174 92/92/174 14/90/174
f 14/90/175 92/92/175 32/82/175
f 92/92/176 31/42/176 32/82/176
f 13/50/177 16/49/177 92/92/177
f 16/49/178 15/17/178 92/92/178
f 92/92/179 15/17/179 31/42/179
f 15/17/180 7/16/180 31/42/180
