# Blender v2.77 (sub 0) OBJ File: 'canoni2.blend'
# www.blender.org
mtllib canoni2.mtl
o ColobotMesh_1_ColobotMesh_
v 0.304985 -0.855736 -0.444109
v 1.557430 -0.020444 -0.660904
v 1.173010 0.517094 -0.720364
v 1.668640 0.357614 0.000103
v 1.549250 -0.461569 -0.384649
v 1.029960 -0.394239 -1.105120
v 1.549250 -0.461570 0.385785
v 1.030500 -0.828009 0.000723
v 1.557430 -0.020445 0.661730
v 1.029960 -0.394240 1.106670
v 1.173010 0.517093 0.720984
v 0.604806 1.086770 -0.474201
v -0.135835 1.202910 -0.000103
v 0.604806 1.086770 0.474304
v 0.426250 0.037209 -1.529870
v -0.813770 0.051775 0.868963
v -0.755141 0.715918 0.533558
v 1.913790 -0.007658 -0.000000
v 1.211200 0.819268 0.000000
v 0.879124 -0.011321 -1.215850
v 0.938315 -0.728321 -0.660432
v 0.938315 -0.728321 0.662084
v -0.755141 0.715919 -0.533661
v -0.813769 0.051776 -0.869170
v -0.935574 -0.407400 -0.000103
v -0.203179 0.531414 -1.343270
v -0.359945 -0.499755 0.809709
v 0.304985 -0.855736 0.445039
v -0.359945 -0.499754 -0.809709
v 0.403122 -0.488710 -1.194460
v 0.403122 -0.488711 1.195390
v 0.469927 0.616558 -1.253920
v 0.469927 0.616557 1.254640
v -0.203179 0.531414 1.343370
v 0.426250 0.037208 1.530900
v 0.879124 -0.011322 1.217500
v -0.029232 1.091210 0.898686
v -0.029233 1.091210 -0.898686
v -0.064712 0.005609 -1.454100
v -0.361920 -0.795560 -0.000000
v -0.064712 0.005608 1.454100
v -1.249600 0.068678 0.000000
v -0.672643 -0.634781 -0.000053
v 1.456551 0.604660 0.000049
v -0.559279 0.306241 -1.172230
v -0.153384 0.271429 -1.443916
v -0.851786 0.399299 -0.742831
v 1.324999 -0.692942 -0.203021
v -0.041372 -0.869566 -0.226239
v -0.699513 -0.511235 -0.419780
v 0.565288 0.909810 0.905546
v 1.801996 -0.245174 0.198928
v 0.237807 1.224488 0.247736
v 1.233369 0.713636 -0.375095
v 0.750298 -0.193567 1.378365
v -0.480358 0.013486 1.216882
v 1.270176 -0.632752 0.540556
v 0.422815 -0.245332 1.422820
v 0.660394 0.011779 1.406654
v 0.154069 -0.270453 1.377294
v 1.681557 0.200176 0.354283
v 1.327753 -0.462110 -0.778451
v -0.699519 -0.511222 0.419662
v 0.677053 -0.652564 -0.956642
v -0.094558 1.206211 0.471419
v -0.480368 0.013460 -1.217123
v -0.153423 0.271440 1.443941
v -1.145986 -0.180681 -0.000051
v 0.677033 -0.652582 0.957945
v 0.841956 0.593249 1.020092
v -0.133611 0.854791 1.164033
v 1.246068 -0.012447 0.961742
v 0.105223 0.298475 1.519464
v 0.126905 0.608633 1.358542
v 0.126924 0.608616 -1.358147
v 0.463107 0.335373 -1.447752
v 1.400143 0.258563 0.718040
v 1.270154 -0.632717 -0.539143
v 1.245998 -0.012478 -0.960427
v -0.851787 0.399302 0.742667
v 0.422881 -0.245349 -1.421810
v 0.917470 0.848139 -0.619892
v -0.421614 0.970137 -0.752067
v 1.799878 -0.010613 -0.339550
v 0.675506 -0.897697 -0.228551
v 0.237812 1.224494 -0.247796
v 0.626751 -0.828151 -0.564550
v 1.004585 -0.589589 -0.911529
v -0.824648 0.773334 -0.000054
v 0.565305 0.909777 -0.905126
v 0.009147 -0.536590 1.037050
v 1.597553 -0.255963 0.549955
v 1.799956 -0.010604 0.339936
v 1.470081 0.476862 -0.372695
v 0.696127 0.324920 1.275221
v 0.287005 1.141840 -0.711761
v -0.242759 -0.280168 -1.190005
v 0.917463 0.848146 0.620236
v -1.098643 0.406350 -0.275319
v 0.995665 -0.811661 -0.336609
v -0.491645 1.031858 -0.281133
v 0.696111 0.324904 -1.273998
v 1.597556 -0.255979 -0.549000
v 0.105275 0.298499 -1.518928
v 1.400122 0.258541 -0.717325
v -0.958421 -0.225693 -0.465511
v -0.530053 0.670281 -0.997408
v -0.958422 -0.225699 0.465289
v 0.930786 0.991372 -0.242642
v -0.634080 -0.248701 -0.878772
v 0.731031 -0.471705 1.188060
v 0.731021 -0.471670 -1.186764
v 0.350930 -0.722415 -0.848713
v -0.242788 -0.280153 1.189896
v -0.133582 0.854778 -1.163982
v -0.041380 -0.869578 0.226703
v 1.827922 0.178777 0.000041
v -0.634069 -0.248683 0.878645
v 0.179675 0.015723 1.532226
v 0.300131 -0.917383 0.000466
v -1.115523 0.053972 -0.449993
v 0.750316 -0.193551 -1.376980
v -0.491650 1.031863 0.280977
v -0.559286 0.306229 1.172133
v 0.972470 -0.212885 1.187342
v 1.597144 -0.503729 0.000566
v -0.421622 0.970125 0.751996
v 0.154104 -0.270447 -1.376897
v 0.286999 1.141847 0.711802
v 0.841943 0.593186 -1.019378
v 0.350895 -0.722412 0.849644
v 1.327788 -0.462130 0.779837
v 1.004579 -0.589585 0.913131
v 0.930795 0.991390 0.242686
v 0.660401 0.011768 -1.405262
v 0.179691 0.015713 -1.531699
v -0.044905 -0.730699 0.651025
v 1.057042 0.273748 -0.999357
v 1.333099 -0.220579 0.925421
v -0.094552 1.206218 -0.471540
v 0.009169 -0.536612 -1.036596
v -1.115486 0.053976 0.449878
v 0.626752 -0.828180 0.565856
v 0.995669 -0.811680 0.338168
v 0.972465 -0.212899 -1.185729
v 1.325020 -0.692944 0.204316
v -0.388797 -0.704116 -0.418166
v 0.463061 0.335387 1.448696
v 0.222054 0.907915 1.117815
v 1.333050 -0.220552 -0.924180
v 1.470100 0.476885 0.373088
v 1.681536 0.200150 -0.353799
v 1.801946 -0.245167 -0.198390
v 0.222071 0.907919 -1.117476
v 1.057096 0.273769 1.000563
v 0.675496 -0.897710 0.229743
v -0.388810 -0.704122 0.418160
v 0.630293 1.151034 0.000041
v -1.098628 0.406345 0.275273
v -0.530063 0.670257 0.997357
v -0.044900 -0.730726 -0.650577
v 1.233379 0.713660 0.375380
vt 0.4703 0.8218
vt 0.4554 0.8194
vt 0.4746 0.8484
vt 0.4697 0.8440
vt 0.4495 0.8151
vt 0.4700 0.8329
vt 0.4697 0.9060
vt 0.4495 0.8905
vt 0.4697 0.8750
vt 0.4703 0.9282
vt 0.4498 0.9461
vt 0.4700 0.9171
vt 0.4790 0.8750
vt 0.4597 0.9039
vt 0.4746 0.9016
vt 0.3962 0.8368
vt 0.3674 0.8559
vt 0.3962 0.8750
vt 0.3823 0.7520
vt 0.3578 0.7595
vt 0.3840 0.7630
vt 0.3729 0.8393
vt 0.3470 0.8246
vt 0.3767 0.8091
vt 0.3805 0.9711
vt 0.3508 0.9556
vt 0.3767 0.9409
vt 0.3857 0.9758
vt 0.3595 0.9794
vt 0.3840 0.9869
vt 0.4183 0.8269
vt 0.3910 0.8055
vt 0.4058 0.7690
vt 0.3814 0.7654
vt 0.4011 0.8571
vt 0.3729 0.8750
vt 0.4049 0.9675
vt 0.3814 0.9846
vt 0.4131 0.9544
vt 0.3910 0.9445
vt 0.2904 0.8321
vt 0.3119 0.7995
vt 0.2881 0.8186
vt 0.2859 0.8051
vt 0.3035 0.8075
vt 0.2811 0.8400
vt 0.2764 0.8749
vt 0.2988 0.9075
vt 0.2811 0.9099
vt 0.2859 0.9448
vt 0.3096 0.9639
vt 0.2881 0.9313
vt 0.2904 0.9179
vt 0.3145 0.8964
vt 0.2904 0.8750
vt 0.4842 0.8484
vt 0.4404 0.8170
vt 0.4419 0.8460
vt 0.4597 0.8460
vt 0.4176 0.7772
vt 0.4290 0.7971
vt 0.4439 0.7995
vt 0.4839 0.8595
vt 0.4293 0.7861
vt 0.4234 0.7817
vt 0.4498 0.8040
vt 0.4222 0.8219
vt 0.4257 0.8040
vt 0.4459 0.8329
vt 0.4839 0.8905
vt 0.4293 0.8750
vt 0.4257 0.8484
vt 0.4495 0.8595
vt 0.4222 0.9282
vt 0.4257 0.9016
vt 0.4459 0.9171
vt 0.4842 0.9016
vt 0.4293 0.9639
vt 0.4257 0.9461
vt 0.4495 0.9350
vt 0.4176 0.9728
vt 0.4234 0.9684
vt 0.4439 0.9505
vt 0.4885 0.8750
vt 0.4404 0.9329
vt 0.4290 0.9529
vt 0.4554 0.9305
vt 0.4434 0.8750
vt 0.4419 0.9039
vt 0.4612 0.8750
vt 0.4198 0.8559
vt 0.3386 0.8749
vt 0.3427 0.9111
vt 0.3674 0.8940
vt 0.3469 0.8027
vt 0.3427 0.8388
vt 0.3716 0.8198
vt 0.3999 0.7646
vt 0.3334 0.7670
vt 0.3401 0.7848
vt 0.3595 0.7705
vt 0.3441 0.7580
vt 0.3387 0.7625
vt 0.3632 0.7550
vt 0.3975 0.8306
vt 0.3212 0.8099
vt 0.3326 0.7840
vt 0.3508 0.7944
vt 0.3210 0.8750
vt 0.3211 0.8424
vt 0.3470 0.8571
vt 0.4013 0.9496
vt 0.3212 0.9401
vt 0.3211 0.9075
vt 0.3470 0.9254
vt 0.3441 0.9919
vt 0.3326 0.9660
vt 0.3623 0.9815
vt 0.4016 0.9743
vt 0.3334 0.9830
vt 0.3387 0.9874
vt 0.3578 0.9905
vt 0.3469 0.9472
vt 0.3401 0.9651
vt 0.3663 0.9615
vt 0.4131 0.7956
vt 0.4049 0.7825
vt 0.4011 0.8929
vt 0.4058 0.9810
vt 0.4183 0.9230
vt 0.2712 0.8535
vt 0.3096 0.7860
vt 0.3187 0.8174
vt 0.2689 0.8400
vt 0.2988 0.8424
vt 0.3150 0.7816
vt 0.2642 0.8750
vt 0.3035 0.9424
vt 0.2987 0.8750
vt 0.2689 0.9099
vt 0.3119 0.9504
vt 0.3150 0.9683
vt 0.2712 0.8964
vt 0.3145 0.8535
vt 0.3187 0.9325
vt 0.3962 0.9131
vt 0.3857 0.7741
vt 0.3805 0.7789
vt 0.3729 0.9107
vt 0.3823 0.9980
vt 0.4980 0.8750
vt 0.4198 0.8940
vt 0.3716 0.9302
vt 0.4016 0.7757
vt 0.3663 0.7884
vt 0.4013 0.8004
vt 0.3623 0.7685
vt 0.3975 0.9195
vt 0.3470 0.8928
vt 0.3999 0.9854
vt 0.3632 0.9950
vt 0.2520 0.8750
vn 0.7764 0.1068 -0.6211
vn 0.6767 0.4135 -0.6091
vn 0.7767 0.4830 -0.4043
vn 0.6954 -0.6530 -0.2998
vn 0.6330 -0.5772 -0.5159
vn 0.7898 -0.3365 -0.5128
vn 0.6957 -0.6528 0.2998
vn 0.5102 -0.8513 0.1226
vn 0.6851 -0.7284 0.0000
vn 0.7767 0.1072 0.6207
vn 0.6934 -0.1308 0.7085
vn 0.7902 -0.3360 0.5125
vn 0.7665 0.6422 -0.0001
vn 0.7114 0.6107 0.3476
vn 0.7768 0.4831 0.4040
vn 0.3768 0.8913 -0.2520
vn 0.1075 0.9913 -0.0751
vn 0.3283 0.9445 0.0000
vn 0.2261 -0.0458 -0.9730
vn -0.0871 0.2382 -0.9673
vn 0.3670 0.3690 -0.8539
vn -0.0714 -0.9675 -0.2427
vn -0.2574 -0.8848 -0.3884
vn -0.0760 -0.8908 -0.4479
vn -0.0448 -0.7566 0.6524
vn -0.2721 -0.7807 0.5625
vn -0.0766 -0.8907 0.4480
vn 0.3797 0.5566 0.7389
vn 0.0363 0.5314 0.8463
vn 0.3661 0.3695 0.8540
vn 0.5449 0.7265 -0.4186
vn 0.4310 0.7358 -0.5223
vn 0.4604 -0.2100 -0.8625
vn 0.0528 -0.5250 -0.8495
vn 0.1089 -0.9876 -0.1128
vn -0.0422 -0.9991 0.0000
vn 0.2089 -0.6865 0.6964
vn 0.0514 -0.5251 0.8495
vn 0.5639 0.5229 0.6391
vn 0.4307 0.7361 0.5220
vn -0.7285 0.6177 -0.2960
vn -0.6520 0.5011 -0.5690
vn -0.7989 0.3221 -0.5078
vn -0.7800 -0.1589 -0.6052
vn -0.6150 -0.5574 -0.5577
vn -0.7418 -0.5449 -0.3908
vn -0.7043 -0.7099 0.0000
vn -0.5893 -0.7382 0.3282
vn -0.7418 -0.5449 0.3908
vn -0.7800 -0.1590 0.6052
vn -0.6776 0.1535 0.7192
vn -0.7990 0.3220 0.5078
vn -0.7285 0.6177 0.2960
vn -0.5586 0.8233 0.1007
vn -0.7151 0.6990 0.0000
vn 0.8829 0.1014 -0.4585
vn 0.6243 0.5576 -0.5471
vn 0.6369 0.7021 -0.3184
vn 0.7114 0.6106 -0.3479
vn 0.6169 0.1998 -0.7612
vn 0.6055 0.3349 -0.7219
vn 0.6174 0.2032 -0.7600
vn 0.8585 -0.4540 -0.2383
vn 0.5073 -0.4602 -0.7286
vn 0.6169 0.0002 -0.7870
vn 0.6930 -0.1310 -0.7089
vn 0.2769 -0.8955 -0.3482
vn 0.3669 -0.7757 -0.5134
vn 0.4995 -0.8062 -0.3170
vn 0.8587 -0.4537 0.2380
vn 0.3082 -0.9513 0.0000
vn 0.2990 -0.9358 -0.1867
vn 0.5101 -0.8513 -0.1227
vn 0.2768 -0.8956 0.3483
vn 0.2989 -0.9358 0.1866
vn 0.4997 -0.8061 0.3170
vn 0.8831 0.1017 0.4580
vn 0.5073 -0.4602 0.7286
vn 0.3668 -0.7757 0.5135
vn 0.6333 -0.5769 0.5158
vn 0.6168 0.2001 0.7613
vn 0.6168 -0.0001 0.7871
vn 0.6179 0.2035 0.7595
vn 0.8430 0.5380 -0.0002
vn 0.6243 0.5580 0.5466
vn 0.6056 0.3358 0.7214
vn 0.6770 0.4139 0.6085
vn 0.6222 0.7828 -0.0001
vn 0.6369 0.7023 0.3182
vn 0.7144 0.6997 -0.0001
vn 0.5052 0.8465 -0.1680
vn -0.2533 0.9673 0.0000
vn -0.2160 0.9641 0.1543
vn 0.1075 0.9913 0.0751
vn -0.1419 0.8743 -0.4642
vn -0.2160 0.9641 -0.1543
vn 0.2178 0.9174 -0.3331
vn 0.5621 0.1718 -0.8090
vn -0.3908 0.4034 -0.8273
vn -0.2831 0.6523 -0.7031
vn 0.0371 0.5311 -0.8465
vn -0.3721 -0.2840 -0.8837
vn -0.4151 0.0861 -0.9056
vn -0.1290 -0.2143 -0.9682
vn 0.0896 -0.9500 -0.2992
vn -0.4435 -0.7499 -0.4909
vn -0.4317 -0.5970 -0.6762
vn -0.2714 -0.7810 -0.5625
vn -0.3756 -0.9268 -0.0000
vn -0.4085 -0.8589 -0.3088
vn -0.1966 -0.9678 -0.1571
vn 0.1217 -0.8542 0.5055
vn -0.4438 -0.7497 0.4909
vn -0.4087 -0.8588 0.3087
vn -0.2579 -0.8846 0.3884
vn -0.3732 -0.2842 0.8831
vn -0.4322 -0.5966 0.6761
vn -0.2046 -0.5940 0.7780
vn 0.5789 0.3332 0.7442
vn -0.3914 0.4033 0.8271
vn -0.4161 0.0856 0.9052
vn -0.0885 0.2381 0.9672
vn -0.1420 0.8744 0.4640
vn -0.2835 0.6524 0.7028
vn 0.1874 0.7167 0.6717
vn 0.5641 0.5222 -0.6396
vn 0.2096 -0.6865 -0.6963
vn 0.1087 -0.9876 0.1127
vn 0.4596 -0.2103 0.8628
vn 0.5448 0.7267 0.4183
vn -0.8665 0.4435 -0.2290
vn -0.6774 0.1537 -0.7193
vn -0.5556 0.7498 -0.3591
vn -0.8959 -0.1112 -0.4300
vn -0.5892 -0.7383 -0.3282
vn -0.5996 -0.2702 -0.7533
vn -0.8466 -0.5322 0.0000
vn -0.6151 -0.5573 0.5578
vn -0.5635 -0.8261 0.0000
vn -0.8959 -0.1112 0.4301
vn -0.6521 0.5010 0.5690
vn -0.5997 -0.2703 0.7532
vn -0.8665 0.4435 0.2291
vn -0.5586 0.8233 -0.1007
vn -0.5557 0.7499 0.3591
vn 0.3768 0.8914 0.2519
vn 0.3803 0.5560 -0.7390
vn -0.0439 -0.7566 -0.6523
vn -0.0717 -0.9674 0.2427
vn 0.2247 -0.0457 0.9733
vn 0.9982 0.0598 -0.0003
vn 0.5051 0.8465 0.1679
vn 0.2177 0.9175 0.3329
vn 0.5793 0.3324 -0.7442
vn 0.1879 0.7164 -0.6719
vn 0.1223 -0.8541 -0.5054
vn -0.2032 -0.5942 -0.7782
vn 0.0892 -0.9500 0.2991
vn -0.1968 -0.9678 0.1571
vn 0.5613 0.1718 0.8095
vn -0.1309 -0.2146 0.9679
vn -0.9992 -0.0399 0.0001
usemtl ColobotMesh_mat_1
s 1
f 2/1/1 105/2/2 152/3/3
f 5/4/4 62/5/5 103/6/6
f 7/7/7 146/8/8 126/9/9
f 9/10/10 139/11/11 92/12/12
f 4/13/13 151/14/14 61/15/15
f 12/16/16 86/17/17 158/18/18
f 15/19/19 104/20/20 76/21/21
f 1/22/22 161/23/23 113/24/24
f 31/25/25 91/26/26 131/27/27
f 33/28/28 74/29/29 148/30/30
f 12/16/16 82/31/31 90/32/32
f 15/19/19 122/33/33 81/34/34
f 1/22/22 85/35/35 120/36/36
f 31/25/25 111/37/37 58/38/38
f 33/28/28 70/39/39 51/40/40
f 23/41/41 107/42/42 47/43/43
f 24/44/44 110/45/45 106/46/46
f 25/47/47 63/48/48 108/49/49
f 16/50/50 124/51/51 80/52/52
f 17/53/53 123/54/54 89/55/55
f 2/1/1 152/3/3 84/56/56
f 3/57/57 54/58/58 94/59/59
f 20/60/60 138/61/61 79/62/62
f 5/4/4 103/6/6 153/63/63
f 6/64/64 145/65/65 150/66/66
f 21/67/67 88/68/68 78/69/69
f 7/7/7 126/9/9 52/70/70
f 8/71/71 100/72/72 48/73/73
f 22/74/74 144/75/75 57/76/76
f 9/10/10 92/12/12 93/77/77
f 10/78/78 133/79/79 132/80/80
f 36/81/81 125/82/82 72/83/83
f 4/13/13 61/15/15 117/84/84
f 11/85/85 155/86/86 77/87/87
f 19/88/88 162/89/89 44/90/90
f 12/16/16 158/18/18 109/91/91
f 13/92/92 65/93/93 53/94/94
f 38/95/95 140/96/96 96/97/97
f 15/19/19 76/21/21 135/98/98
f 26/99/99 115/100/100 75/101/101
f 39/102/102 46/103/103 136/104/104
f 1/22/22 113/24/24 87/105/105
f 29/106/106 97/107/107 141/108/108
f 40/109/109 147/110/110 49/111/111
f 31/25/25 131/27/27 69/112/112
f 27/113/113 157/114/114 137/115/115
f 41/116/116 114/117/117 60/118/118
f 33/28/28 148/30/30 95/119/119
f 34/120/120 67/121/121 73/122/122
f 37/123/123 71/124/124 149/125/125
f 12/16/16 90/32/32 96/97/97
f 3/57/57 138/61/61 130/126/126
f 19/88/88 54/58/58 109/91/91
f 15/19/19 81/34/34 136/104/104
f 6/64/64 88/68/68 112/127/127
f 20/60/60 145/65/65 135/98/98
f 1/22/22 120/36/36 49/111/111
f 8/71/71 144/75/75 156/128/128
f 21/67/67 100/72/72 87/105/105
f 31/25/25 58/38/38 60/118/118
f 10/78/78 125/82/82 55/129/129
f 22/74/74 133/79/79 69/112/112
f 33/28/28 51/40/40 149/125/125
f 11/85/85 162/89/89 98/130/130
f 36/81/81 155/86/86 95/119/119
f 23/41/41 47/43/43 99/131/131
f 26/99/99 46/103/103 45/132/132
f 38/95/95 115/100/100 83/133/133
f 24/44/44 106/46/46 121/134/134
f 29/106/106 147/110/110 50/135/135
f 39/102/102 97/107/107 66/136/136
f 25/47/47 108/49/49 68/137/137
f 27/113/113 114/117/117 118/138/138
f 40/109/109 157/114/114 43/139/139
f 16/50/50 80/52/52 142/140/140
f 34/120/120 71/124/124 160/141/141
f 41/116/116 67/121/121 56/142/142
f 17/53/53 89/55/55 159/143/143
f 13/92/92 140/96/96 101/144/144
f 37/123/123 65/93/93 127/145/145
f 152/3/3 94/59/59 4/13/13
f 152/3/3 105/2/2 94/59/59
f 105/2/2 3/57/57 94/59/59
f 103/6/6 150/66/66 2/1/1
f 103/6/6 62/5/5 150/66/66
f 62/5/5 6/64/64 150/66/66
f 126/9/9 48/73/73 5/4/4
f 126/9/9 146/8/8 48/73/73
f 146/8/8 8/71/71 48/73/73
f 92/12/12 132/80/80 7/7/7
f 92/12/12 139/11/11 132/80/80
f 139/11/11 10/78/78 132/80/80
f 61/15/15 77/87/87 9/10/10
f 61/15/15 151/14/14 77/87/87
f 151/14/14 11/85/85 77/87/87
f 158/18/18 53/94/94 14/146/146
f 158/18/18 86/17/17 53/94/94
f 86/17/17 13/92/92 53/94/94
f 76/21/21 75/101/101 32/147/147
f 76/21/21 104/20/20 75/101/101
f 104/20/20 26/99/99 75/101/101
f 113/24/24 141/108/108 30/148/148
f 113/24/24 161/23/23 141/108/108
f 161/23/23 29/106/106 141/108/108
f 131/27/27 137/115/115 28/149/149
f 131/27/27 91/26/26 137/115/115
f 91/26/26 27/113/113 137/115/115
f 148/30/30 73/122/122 35/150/150
f 148/30/30 74/29/29 73/122/122
f 74/29/29 34/120/120 73/122/122
f 90/32/32 130/126/126 32/147/147
f 90/32/32 82/31/31 130/126/126
f 82/31/31 3/57/57 130/126/126
f 81/34/34 112/127/127 30/148/148
f 81/34/34 122/33/33 112/127/127
f 122/33/33 6/64/64 112/127/127
f 120/36/36 156/128/128 28/149/149
f 120/36/36 85/35/35 156/128/128
f 85/35/35 8/71/71 156/128/128
f 58/38/38 55/129/129 35/150/150
f 58/38/38 111/37/37 55/129/129
f 111/37/37 10/78/78 55/129/129
f 51/40/40 98/130/130 14/146/146
f 51/40/40 70/39/39 98/130/130
f 70/39/39 11/85/85 98/130/130
f 47/43/43 45/132/132 24/44/44
f 47/43/43 107/42/42 45/132/132
f 107/42/42 26/99/99 45/132/132
f 106/46/46 50/135/135 25/47/47
f 106/46/46 110/45/45 50/135/135
f 110/45/45 29/106/106 50/135/135
f 108/49/49 118/138/138 16/50/50
f 108/49/49 63/48/48 118/138/138
f 63/48/48 27/113/113 118/138/138
f 80/52/52 160/141/141 17/53/53
f 80/52/52 124/51/51 160/141/141
f 124/51/51 34/120/120 160/141/141
f 89/55/55 101/144/144 23/41/41
f 89/55/55 123/54/54 101/144/144
f 123/54/54 13/92/92 101/144/144
f 84/56/56 117/84/84 18/151/151
f 84/56/56 152/3/3 117/84/84
f 152/3/3 4/13/13 117/84/84
f 94/59/59 44/90/90 4/13/13
f 94/59/59 54/58/58 44/90/90
f 54/58/58 19/88/88 44/90/90
f 79/62/62 105/2/2 2/1/1
f 79/62/62 138/61/61 105/2/2
f 138/61/61 3/57/57 105/2/2
f 153/63/63 84/56/56 18/151/151
f 153/63/63 103/6/6 84/56/56
f 103/6/6 2/1/1 84/56/56
f 150/66/66 79/62/62 2/1/1
f 150/66/66 145/65/65 79/62/62
f 145/65/65 20/60/60 79/62/62
f 78/69/69 62/5/5 5/4/4
f 78/69/69 88/68/68 62/5/5
f 88/68/68 6/64/64 62/5/5
f 52/70/70 153/63/63 18/151/151
f 52/70/70 126/9/9 153/63/63
f 126/9/9 5/4/4 153/63/63
f 48/73/73 78/69/69 5/4/4
f 48/73/73 100/72/72 78/69/69
f 100/72/72 21/67/67 78/69/69
f 57/76/76 146/8/8 7/7/7
f 57/76/76 144/75/75 146/8/8
f 144/75/75 8/71/71 146/8/8
f 93/77/77 52/70/70 18/151/151
f 93/77/77 92/12/12 52/70/70
f 92/12/12 7/7/7 52/70/70
f 132/80/80 57/76/76 7/7/7
f 132/80/80 133/79/79 57/76/76
f 133/79/79 22/74/74 57/76/76
f 72/83/83 139/11/11 9/10/10
f 72/83/83 125/82/82 139/11/11
f 125/82/82 10/78/78 139/11/11
f 117/84/84 93/77/77 18/151/151
f 117/84/84 61/15/15 93/77/77
f 61/15/15 9/10/10 93/77/77
f 77/87/87 72/83/83 9/10/10
f 77/87/87 155/86/86 72/83/83
f 155/86/86 36/81/81 72/83/83
f 44/90/90 151/14/14 4/13/13
f 44/90/90 162/89/89 151/14/14
f 162/89/89 11/85/85 151/14/14
f 109/91/91 134/152/152 19/88/88
f 109/91/91 158/18/18 134/152/152
f 158/18/18 14/146/146 134/152/152
f 53/94/94 129/153/153 14/146/146
f 53/94/94 65/93/93 129/153/153
f 65/93/93 37/123/123 129/153/153
f 96/97/97 86/17/17 12/16/16
f 96/97/97 140/96/96 86/17/17
f 140/96/96 13/92/92 86/17/17
f 135/98/98 102/154/154 20/60/60
f 135/98/98 76/21/21 102/154/154
f 76/21/21 32/147/147 102/154/154
f 75/101/101 154/155/155 32/147/147
f 75/101/101 115/100/100 154/155/155
f 115/100/100 38/95/95 154/155/155
f 136/104/104 104/20/20 15/19/19
f 136/104/104 46/103/103 104/20/20
f 46/103/103 26/99/99 104/20/20
f 87/105/105 64/156/156 21/67/67
f 87/105/105 113/24/24 64/156/156
f 113/24/24 30/148/148 64/156/156
f 141/108/108 128/157/157 30/148/148
f 141/108/108 97/107/107 128/157/157
f 97/107/107 39/102/102 128/157/157
f 49/111/111 161/23/23 1/22/22
f 49/111/111 147/110/110 161/23/23
f 147/110/110 29/106/106 161/23/23
f 69/112/112 143/158/158 22/74/74
f 69/112/112 131/27/27 143/158/158
f 131/27/27 28/149/149 143/158/158
f 137/115/115 116/159/159 28/149/149
f 137/115/115 157/114/114 116/159/159
f 157/114/114 40/109/109 116/159/159
f 60/118/118 91/26/26 31/25/25
f 60/118/118 114/117/117 91/26/26
f 114/117/117 27/113/113 91/26/26
f 95/119/119 59/160/160 36/81/81
f 95/119/119 148/30/30 59/160/160
f 148/30/30 35/150/150 59/160/160
f 73/122/122 119/161/161 35/150/150
f 73/122/122 67/121/121 119/161/161
f 67/121/121 41/116/116 119/161/161
f 149/125/125 74/29/29 33/28/28
f 149/125/125 71/124/124 74/29/29
f 71/124/124 34/120/120 74/29/29
f 96/97/97 154/155/155 38/95/95
f 96/97/97 90/32/32 154/155/155
f 90/32/32 32/147/147 154/155/155
f 130/126/126 102/154/154 32/147/147
f 130/126/126 138/61/61 102/154/154
f 138/61/61 20/60/60 102/154/154
f 109/91/91 82/31/31 12/16/16
f 109/91/91 54/58/58 82/31/31
f 54/58/58 3/57/57 82/31/31
f 136/104/104 128/157/157 39/102/102
f 136/104/104 81/34/34 128/157/157
f 81/34/34 30/148/148 128/157/157
f 112/127/127 64/156/156 30/148/148
f 112/127/127 88/68/68 64/156/156
f 88/68/68 21/67/67 64/156/156
f 135/98/98 122/33/33 15/19/19
f 135/98/98 145/65/65 122/33/33
f 145/65/65 6/64/64 122/33/33
f 49/111/111 116/159/159 40/109/109
f 49/111/111 120/36/36 116/159/159
f 120/36/36 28/149/149 116/159/159
f 156/128/128 143/158/158 28/149/149
f 156/128/128 144/75/75 143/158/158
f 144/75/75 22/74/74 143/158/158
f 87/105/105 85/35/35 1/22/22
f 87/105/105 100/72/72 85/35/35
f 100/72/72 8/71/71 85/35/35
f 60/118/118 119/161/161 41/116/116
f 60/118/118 58/38/38 119/161/161
f 58/38/38 35/150/150 119/161/161
f 55/129/129 59/160/160 35/150/150
f 55/129/129 125/82/82 59/160/160
f 125/82/82 36/81/81 59/160/160
f 69/112/112 111/37/37 31/25/25
f 69/112/112 133/79/79 111/37/37
f 133/79/79 10/78/78 111/37/37
f 149/125/125 129/153/153 37/123/123
f 149/125/125 51/40/40 129/153/153
f 51/40/40 14/146/146 129/153/153
f 98/130/130 134/152/152 14/146/146
f 98/130/130 162/89/89 134/152/152
f 162/89/89 19/88/88 134/152/152
f 95/119/119 70/39/39 33/28/28
f 95/119/119 155/86/86 70/39/39
f 155/86/86 11/85/85 70/39/39
f 99/131/131 121/134/134 42/162/162
f 99/131/131 47/43/43 121/134/134
f 47/43/43 24/44/44 121/134/134
f 45/132/132 66/136/136 24/44/44
f 45/132/132 46/103/103 66/136/136
f 46/103/103 39/102/102 66/136/136
f 83/133/133 107/42/42 23/41/41
f 83/133/133 115/100/100 107/42/42
f 115/100/100 26/99/99 107/42/42
f 121/134/134 68/137/137 42/162/162
f 121/134/134 106/46/46 68/137/137
f 106/46/46 25/47/47 68/137/137
f 50/135/135 43/139/139 25/47/47
f 50/135/135 147/110/110 43/139/139
f 147/110/110 40/109/109 43/139/139
f 66/136/136 110/45/45 24/44/44
f 66/136/136 97/107/107 110/45/45
f 97/107/107 29/106/106 110/45/45
f 68/137/137 142/140/140 42/162/162
f 68/137/137 108/49/49 142/140/140
f 108/49/49 16/50/50 142/140/140
f 118/138/138 56/142/142 16/50/50
f 118/138/138 114/117/117 56/142/142
f 114/117/117 41/116/116 56/142/142
f 43/139/139 63/48/48 25/47/47
f 43/139/139 157/114/114 63/48/48
f 157/114/114 27/113/113 63/48/48
f 142/140/140 159/143/143 42/162/162
f 142/140/140 80/52/52 159/143/143
f 80/52/52 17/53/53 159/143/143
f 160/141/141 127/145/145 17/53/53
f 160/141/141 71/124/124 127/145/145
f 71/124/124 37/123/123 127/145/145
f 56/142/142 124/51/51 16/50/50
f 56/142/142 67/121/121 124/51/51
f 67/121/121 34/120/120 124/51/51
f 159/143/143 99/131/131 42/162/162
f 159/143/143 89/55/55 99/131/131
f 89/55/55 23/41/41 99/131/131
f 101/144/144 83/133/133 23/41/41
f 101/144/144 140/96/96 83/133/133
f 140/96/96 38/95/95 83/133/133
f 127/145/145 123/54/54 17/53/53
f 127/145/145 65/93/93 123/54/54
f 65/93/93 13/92/92 123/54/54
