# Blender v2.70 (sub 5) OBJ File: 'convert3.blend'
# www.blender.org
mtllib convert3.mtl
o ColobotMesh_1.001_ColobotMesh_.001
v -0.000003 -3.505226 -0.000001
v 5.756959 -10.505200 1.690392
v 5.570210 -10.505200 2.229970
v 5.333017 -10.505200 2.749353
v 5.047528 -10.505200 3.243838
v 4.716327 -10.505200 3.708948
v 4.342413 -10.505200 4.140469
v 3.929175 -10.505200 4.534492
v 3.480353 -10.505200 4.887452
v 3.000013 -10.505200 5.196148
v 2.492504 -10.505200 5.457790
v 1.962423 -10.505200 5.670003
v 1.414569 -10.505200 5.830870
v 0.853905 -10.505200 5.938930
v 0.285508 -10.505200 5.993207
v -0.285474 -10.505200 5.993208
v -0.853871 -10.505200 5.938934
v -5.999999 -3.505226 0.000008
v -5.972830 -3.505226 0.570345
v -5.891570 -3.505226 1.135516
v -5.756955 -3.505226 1.690403
v -5.570203 -3.505226 2.229982
v -5.333008 -3.505226 2.749366
v -5.047516 -3.505226 3.243850
v -4.716312 -3.505226 3.708959
v -4.342397 -3.505226 4.140479
v -3.929156 -3.505226 4.534501
v -3.480333 -3.505226 4.887458
v -2.999991 -3.505226 5.196155
v -2.492481 -3.505226 5.457793
v -1.962398 -3.505226 5.670005
v -1.414544 -3.505226 5.830868
v -0.853879 -3.505226 5.938926
v -0.285481 -3.505226 5.993200
v 0.285501 -3.505226 5.993199
v 0.853899 -3.505226 5.938922
v 1.414563 -3.505226 5.830862
v 1.962417 -3.505226 5.669996
v 2.492498 -3.505226 5.457782
v 3.000007 -3.505226 5.196141
v 3.480348 -3.505226 4.887444
v 3.929170 -3.505226 4.534484
v 4.342409 -3.505226 4.140460
v 4.716322 -3.505226 3.708939
v 5.047523 -3.505226 3.243829
v 5.333013 -3.505226 2.749344
v 5.570206 -3.505226 2.229960
v 5.756955 -3.505226 1.690382
v 5.891568 -3.505226 1.135495
v 5.972826 -3.505226 0.570325
v 5.999993 -3.505226 -0.000009
v -1.414536 -10.505200 5.830876
v -1.962390 -10.505200 5.670013
v -2.492472 -10.505200 5.457800
v -2.999982 -10.505200 5.196163
v -3.480324 -10.505200 4.887466
v -3.929147 -10.505200 4.534510
v -4.342388 -10.505200 4.140487
v -4.716303 -10.505200 3.708968
v -5.047506 -10.505200 3.243860
v -5.332998 -10.505200 2.749375
v -5.570193 -10.505200 2.229992
v -5.756945 -10.505200 1.690413
v -5.891560 -10.505200 1.135526
v -5.972819 -10.505200 0.570355
v -5.999989 -10.505200 0.000019
v 5.891572 -10.505200 1.135505
v 5.972829 -10.505200 0.570336
v 5.999997 -10.505200 0.000001
v -4.800005 -10.505200 -0.000015
v 4.778265 -10.505200 0.456275
v 4.713257 -10.505200 0.908411
v 4.605565 -10.505200 1.352321
v 4.456164 -10.505200 1.783983
v 4.266408 -10.505200 2.199490
v 4.038014 -10.505200 2.595078
v 3.773052 -10.505200 2.967165
v 3.473919 -10.505200 3.312381
v 3.143327 -10.505200 3.627600
v 2.784267 -10.505200 3.909966
v 2.399994 -10.505200 4.156924
v 1.993985 -10.505200 4.366235
v 1.569919 -10.505200 4.536005
v 1.131634 -10.505200 4.664696
v 0.683102 -10.505200 4.751143
v 0.228384 -10.505200 4.794562
v -4.799999 -4.602929 -0.000011
v -4.778265 -4.602929 0.456258
v -4.713259 -4.602929 0.908395
v -4.605568 -4.602929 1.352305
v -4.456169 -4.602929 1.783969
v -4.266414 -4.602929 2.199476
v -4.038022 -4.602929 2.595065
v -3.773061 -4.602929 2.967153
v -3.473930 -4.602929 3.312369
v -3.143339 -4.602929 3.627589
v -2.784281 -4.602929 3.909956
v -2.400008 -4.602929 4.156914
v -1.994001 -4.602929 4.366227
v -1.569935 -4.602929 4.535997
v -1.131652 -4.602929 4.664690
v -0.683121 -4.602929 4.751138
v -0.228403 -4.602929 4.794559
v 0.228383 -4.602929 4.794560
v 0.683101 -4.602929 4.751141
v 1.131633 -4.602929 4.664694
v -0.228403 -10.505200 4.794562
v -0.683122 -10.505200 4.751141
v -1.131654 -10.505200 4.664692
v -1.569937 -10.505200 4.535999
v -1.994004 -10.505200 4.366229
v -2.400012 -10.505200 4.156916
v -2.784285 -10.505200 3.909957
v -3.143343 -10.505200 3.627589
v -3.473935 -10.505200 3.312370
v -3.773066 -10.505200 2.967153
v -4.038027 -10.505200 2.595064
v -4.266420 -10.505200 2.199476
v -4.456174 -10.505200 1.783967
v -4.605575 -10.505200 1.352303
v -4.713265 -10.505200 0.908392
v -4.778272 -10.505200 0.456255
v 4.800000 -10.505200 0.000006
v -0.000002 -4.602929 -0.000001
v 1.569925 -4.602929 4.535993
v 1.993990 -4.602929 4.366222
v 2.399997 -4.602929 4.156911
v 2.784269 -4.602929 3.909953
v 3.143327 -4.602929 3.627587
v 3.473918 -4.602929 3.312368
v 3.773049 -4.602929 2.967152
v 4.038009 -4.602929 2.595066
v 4.266402 -4.602929 2.199479
v 4.456156 -4.602929 1.783973
v 4.605556 -4.602929 1.352311
v 4.713246 -4.602929 0.908403
v 4.778254 -4.602929 0.456267
v 4.799988 -4.602929 0.000000
vt 0.976975 0.530969
vt 0.954311 0.281530
vt 0.954314 0.530969
vt 0.841009 0.530971
vt 0.818348 0.281529
vt 0.818348 0.530971
vt 0.818347 0.530969
vt 0.795687 0.281531
vt 0.795686 0.530969
vt 0.954314 0.530971
vt 0.931652 0.281529
vt 0.931653 0.530971
vt 0.818348 0.530970
vt 0.795686 0.281530
vt 0.795687 0.530970
vt 0.931652 0.530969
vt 0.908991 0.281532
vt 0.908991 0.530969
vt 0.795687 0.530971
vt 0.773025 0.281530
vt 0.773026 0.530971
vt 0.931653 0.530970
vt 0.908989 0.281530
vt 0.908992 0.530970
vt 0.773025 0.530968
vt 0.750365 0.281531
vt 0.750364 0.530968
vt 0.908992 0.530971
vt 0.886331 0.281529
vt 0.886331 0.530971
vt 0.773026 0.530970
vt 0.750364 0.281530
vt 0.750365 0.530970
vt 0.886330 0.530969
vt 0.863670 0.281532
vt 0.863669 0.530969
vt 0.999636 0.530969
vt 0.976974 0.281531
vt 0.886331 0.530970
vt 0.863668 0.281530
vt 0.863670 0.530970
vt 0.976971 0.281530
vt 0.863670 0.530971
vt 0.841009 0.281529
vt 0.976975 0.530971
vt 0.954313 0.281529
vt 0.841008 0.530969
vt 0.818348 0.281532
vt 0.954313 0.530969
vt 0.931652 0.281531
vt 0.841009 0.530970
vt 0.818346 0.281530
vt 0.931650 0.281530
vt 0.773026 0.281531
vt 0.908992 0.281529
vt 0.886330 0.281532
vt 0.750365 0.530971
vt 0.886329 0.281530
vt 0.863670 0.281529
vt 0.999636 0.530970
vt 0.976973 0.281529
vt 0.841009 0.281532
vt 0.954313 0.281531
vt 0.841007 0.281530
vt 0.999635 0.281531
vt 0.999632 0.281530
vt 0.999634 0.281529
vt 0.581824 0.989154
vt 0.577290 0.989154
vt 0.577310 0.989585
vt 0.577372 0.990012
vt 0.577473 0.990431
vt 0.577615 0.990839
vt 0.577794 0.991232
vt 0.578010 0.991605
vt 0.578260 0.991957
vt 0.578542 0.992283
vt 0.578855 0.992581
vt 0.579194 0.992847
vt 0.579557 0.993081
vt 0.579941 0.993279
vt 0.580341 0.993439
vt 0.580755 0.993560
vt 0.581179 0.993642
vt 0.581608 0.993683
vt 0.582040 0.993683
vt 0.582470 0.993642
vt 0.582893 0.993560
vt 0.583307 0.993439
vt 0.583708 0.993278
vt 0.584092 0.993081
vt 0.584454 0.992847
vt 0.584794 0.992581
vt 0.585106 0.992283
vt 0.585389 0.991957
vt 0.585639 0.991605
vt 0.585855 0.991232
vt 0.586034 0.990839
vt 0.586175 0.990431
vt 0.586277 0.990012
vt 0.586338 0.989585
vt 0.586359 0.989154
vt 0.609040 0.988210
vt 0.609175 0.988490
vt 0.609167 0.988206
vt 0.607628 0.988551
vt 0.607892 0.988784
vt 0.607761 0.988494
vt 0.608913 0.988219
vt 0.609058 0.988494
vt 0.607494 0.988618
vt 0.607778 0.988841
vt 0.608786 0.988232
vt 0.608941 0.988503
vt 0.607359 0.988695
vt 0.607666 0.988903
vt 0.608660 0.988250
vt 0.608825 0.988516
vt 0.607225 0.988788
vt 0.607557 0.988971
vt 0.608533 0.988271
vt 0.608708 0.988534
vt 0.607098 0.988899
vt 0.607454 0.989045
vt 0.608883 0.989703
vt 0.608949 0.989681
vt 0.608212 0.990277
vt 0.608268 0.990196
vt 0.609015 0.989663
vt 0.608324 0.990122
vt 0.609082 0.989649
vt 0.608382 0.990054
vt 0.609148 0.989640
vt 0.608441 0.989992
vt 0.609215 0.989634
vt 0.608501 0.989935
vt 0.608563 0.989884
vt 0.608008 0.988734
vt 0.609282 0.989632
vt 0.609291 0.988489
vt 0.608625 0.989838
vt 0.608124 0.988689
vt 0.609349 0.989635
vt 0.609408 0.988494
vt 0.608689 0.989797
vt 0.608241 0.988648
vt 0.609415 0.989642
vt 0.609524 0.988502
vt 0.608753 0.989761
vt 0.608357 0.988613
vt 0.608818 0.989730
vt 0.608474 0.988582
vt 0.608591 0.988556
vt 0.608406 0.988297
vt 0.608279 0.988327
vt 0.608151 0.988362
vt 0.608023 0.988401
vt 0.609293 0.988206
vt 0.609419 0.988210
vt 0.607893 0.988445
vt 0.609546 0.988219
vt 0.609640 0.988514
vt 0.609671 0.988232
vt 0.609755 0.988531
vt 0.609797 0.988250
vt 0.609871 0.988552
vt 0.609922 0.988271
vt 0.609986 0.988577
vt 0.610046 0.988296
vt 0.610100 0.988607
vt 0.610171 0.988326
vt 0.610215 0.988641
vt 0.610296 0.988359
vt 0.610329 0.988680
vt 0.610421 0.988397
vt 0.610442 0.988723
vt 0.610547 0.988440
vt 0.610555 0.988772
vt 0.610675 0.988488
vt 0.610666 0.988827
vt 0.610804 0.988542
vt 0.610775 0.988887
vt 0.610935 0.988605
vt 0.610880 0.988954
vt 0.611067 0.988680
vt 0.610979 0.989026
vt 0.611198 0.988769
vt 0.611070 0.989103
vt 0.611324 0.988878
vt 0.609272 0.990492
vt 0.609548 0.989668
vt 0.609482 0.989653
vt 0.609614 0.989687
vt 0.609680 0.989710
vt 0.609745 0.989738
vt 0.609810 0.989770
vt 0.609874 0.989807
vt 0.609937 0.989849
vt 0.609999 0.989896
vt 0.610061 0.989948
vt 0.610121 0.990005
vt 0.610181 0.990067
vt 0.610240 0.990136
vt 0.610296 0.990211
vt 0.578197 0.983864
vt 0.577290 0.983864
vt 0.578197 0.988324
vt 0.581824 0.988324
vt 0.585452 0.988324
vt 0.585452 0.983863
vt 0.586359 0.983863
vt 0.607359 0.989124
vn -0.989821 -0.000001 0.142315
vn 0.189253 0.000001 0.981928
vn 0.971812 0.000001 0.235757
vn -0.281730 0.000001 0.959494
vn -0.690077 -0.000000 0.723736
vn 0.755751 0.000001 0.654859
vn 0.371664 0.000001 0.928367
vn -0.945000 -0.000001 0.327070
vn 0.998867 0.000001 0.047580
vn -0.095054 0.000001 0.995472
vn -0.540639 0.000000 0.841254
vn 0.866027 0.000001 0.499998
vn 0.540642 0.000001 0.841253
vn -0.866025 -0.000001 0.500001
vn -0.998867 -0.000001 0.047583
vn 0.095058 0.000001 0.995472
vn -0.371660 0.000001 0.928369
vn 0.945001 0.000001 0.327067
vn 0.690081 0.000001 0.723732
vn -0.755749 -0.000000 0.654862
vn 0.281735 0.000001 0.959492
vn -0.971811 -0.000001 0.235761
vn 0.989822 0.000001 0.142313
vn -0.189250 0.000001 0.981929
vn -0.618157 0.000000 0.786054
vn 0.814577 0.000001 0.580055
vn 0.458230 0.000001 0.888834
vn -0.909631 -0.000001 0.415416
vn 0.000002 0.000001 1.000000
vn -0.458225 0.000000 0.888836
vn 0.909633 0.000001 0.415412
vn 0.618161 0.000001 0.786052
vn -0.814575 -0.000000 0.580058
vn -0.989821 -0.000001 0.142316
vn 0.189252 0.000001 0.981928
vn -0.281731 0.000001 0.959493
vn -0.690078 -0.000000 0.723735
vn 0.371663 0.000001 0.928367
vn -0.095055 0.000001 0.995472
vn -0.540641 0.000000 0.841253
vn -0.866024 -0.000001 0.500002
vn 0.095060 0.000001 0.995472
vn -0.371661 0.000001 0.928369
vn -0.755748 -0.000000 0.654863
vn 0.281737 0.000001 0.959492
vn -0.971811 -0.000001 0.235760
vn -0.189249 0.000001 0.981929
vn -0.618157 0.000000 0.786055
vn 0.814578 0.000001 0.580055
vn 0.000001 0.000001 1.000000
vn -0.458223 0.000000 0.888837
vn 0.618160 0.000001 0.786052
vn 0.000000 1.000000 0.000000
vn 0.000000 1.000000 0.000001
vn 0.000000 -1.000000 -0.000000
vn 0.000000 -1.000000 0.000001
vn 0.000000 -1.000000 -0.000001
vn 0.458228 -0.000000 -0.888834
vn 0.998868 -0.000001 -0.047579
vn 0.371663 -0.000000 -0.928368
vn 0.989822 -0.000001 -0.142313
vn 0.281735 -0.000000 -0.959492
vn 0.971812 -0.000001 -0.235757
vn 0.189253 -0.000000 -0.981928
vn 0.945001 -0.000001 -0.327067
vn 0.095058 -0.000000 -0.995472
vn 0.909633 -0.000001 -0.415412
vn 0.866026 -0.000001 -0.499999
vn 0.000001 -0.000000 -1.000000
vn 0.814577 -0.000001 -0.580055
vn -0.095054 -0.000000 -0.995472
vn 0.755751 -0.000001 -0.654859
vn -0.189249 -0.000000 -0.981929
vn 0.690080 -0.000001 -0.723733
vn 0.618161 -0.000001 -0.786051
vn 0.540643 -0.000000 -0.841252
vn -0.000029 0.000001 -1.000000
vn -0.000018 -0.000002 -1.000000
vn -0.000002 0.000016 -1.000000
vn 0.000002 0.000000 -1.000000
vn 0.000000 0.000000 -1.000000
vn -0.540642 -0.000002 -0.841253
vn -0.618160 -0.000002 -0.786053
vn -0.690080 -0.000002 -0.723733
vn -0.755750 -0.000002 -0.654860
vn -0.814577 -0.000002 -0.580056
vn -0.866025 -0.000002 -0.500000
vn -0.909633 -0.000002 -0.415414
vn -0.945001 -0.000002 -0.327067
vn -0.281748 -0.000002 -0.959489
vn -0.971812 -0.000002 -0.235758
vn -0.371663 -0.000002 -0.928368
vn -0.989821 -0.000002 -0.142315
vn -0.458227 -0.000002 -0.888835
vn -0.998867 -0.000002 -0.047582
vn -0.000004 -0.000001 -1.000000
vn -0.000007 -0.000002 -1.000000
vn -0.000001 -0.000007 -1.000000
vn 0.000000 -1.000000 0.000002
vn 0.000000 -1.000000 -0.000002
vn 0.971812 -0.000001 -0.235756
vn 0.945001 -0.000001 -0.327068
vn 0.095059 -0.000000 -0.995472
vn 0.814578 -0.000001 -0.580055
vn -0.095055 -0.000000 -0.995472
vn -0.189250 -0.000000 -0.981929
vn 0.618161 -0.000001 -0.786052
vn 0.000000 -1.000000 -0.000003
vn -0.540641 -0.000002 -0.841253
vn -0.618157 -0.000002 -0.786055
vn -0.690078 -0.000002 -0.723735
vn -0.755749 -0.000002 -0.654862
vn -0.814575 -0.000002 -0.580058
vn -0.866024 -0.000002 -0.500002
vn -0.909632 -0.000002 -0.415416
vn -0.945000 -0.000002 -0.327070
vn -0.281732 -0.000000 -0.959493
vn -0.971811 -0.000002 -0.235762
vn -0.371661 -0.000001 -0.928369
vn -0.989821 -0.000002 -0.142316
vn -0.458225 -0.000001 -0.888836
vn -0.998867 -0.000002 -0.047583
usemtl ColobotMesh_mat_1
s off
f 19/1/1 64/2/1 20/3/1
f 36/4/2 13/5/2 37/6/2
f 48/7/3 67/8/3 49/9/3
f 31/10/4 52/11/4 32/12/4
f 26/13/5 57/14/5 27/15/5
f 43/16/6 6/17/6 44/18/6
f 38/19/7 11/20/7 39/21/7
f 21/22/8 62/23/8 22/24/8
f 50/25/9 69/26/9 51/27/9
f 33/28/10 16/29/10 34/30/10
f 28/31/11 55/32/11 29/33/11
f 45/34/12 4/35/12 46/36/12
f 40/37/13 9/38/13 41/1/13
f 23/39/14 60/40/14 24/41/14
f 18/37/15 65/42/15 19/1/15
f 35/43/16 14/44/16 36/4/16
f 30/45/17 53/46/17 31/10/17
f 47/47/18 2/48/18 48/7/18
f 42/49/19 7/50/19 43/16/19
f 25/51/20 58/52/20 26/13/20
f 37/6/21 12/14/21 38/19/21
f 20/3/22 63/53/22 21/22/22
f 49/9/23 68/54/23 50/25/23
f 32/12/24 17/55/24 33/28/24
f 27/15/25 56/20/25 28/31/25
f 44/18/26 5/56/26 45/34/26
f 39/21/27 10/32/27 40/57/27
f 22/24/28 61/58/28 23/39/28
f 34/30/29 15/59/29 35/43/29
f 29/60/30 54/61/30 30/45/30
f 46/36/31 3/62/31 47/47/31
f 41/1/32 8/63/32 42/49/32
f 24/41/33 59/64/33 25/51/33
f 65/42/34 64/2/34 19/1/34
f 14/44/35 13/5/35 36/4/35
f 2/48/3 67/8/3 48/7/3
f 53/46/36 52/11/36 31/10/36
f 58/52/37 57/14/37 26/13/37
f 7/50/6 6/17/6 43/16/6
f 12/14/38 11/20/38 38/19/38
f 63/53/8 62/23/8 21/22/8
f 68/54/9 69/26/9 50/25/9
f 17/55/39 16/29/39 33/28/39
f 56/20/40 55/32/40 28/31/40
f 5/56/12 4/35/12 45/34/12
f 10/65/13 9/38/13 40/37/13
f 61/58/41 60/40/41 23/39/41
f 66/66/15 65/42/15 18/37/15
f 15/59/42 14/44/42 35/43/42
f 54/61/43 53/46/43 30/45/43
f 3/62/18 2/48/18 47/47/18
f 8/63/19 7/50/19 42/49/19
f 59/64/44 58/52/44 25/51/44
f 13/5/45 12/14/45 37/6/45
f 64/2/46 63/53/46 20/3/46
f 67/8/23 68/54/23 49/9/23
f 52/11/47 17/55/47 32/12/47
f 57/14/48 56/20/48 27/15/48
f 6/17/49 5/56/49 44/18/49
f 11/20/27 10/32/27 39/21/27
f 62/23/28 61/58/28 22/24/28
f 16/29/50 15/59/50 34/30/50
f 55/67/51 54/61/51 29/60/51
f 4/35/31 3/62/31 46/36/31
f 9/38/52 8/63/52 41/1/52
f 60/40/33 59/64/33 24/41/33
usemtl ColobotMesh_mat_1_lemt.png
f 1/68/53 18/69/53 19/70/53
f 1/68/53 19/70/53 20/71/53
f 1/68/53 20/71/53 21/72/53
f 1/68/53 21/72/53 22/73/53
f 1/68/54 22/73/54 23/74/54
f 1/68/53 23/74/53 24/75/53
f 1/68/53 24/75/53 25/76/53
f 1/68/53 25/76/53 26/77/53
f 1/68/53 26/77/53 27/78/53
f 1/68/53 27/78/53 28/79/53
f 1/68/53 28/79/53 29/80/53
f 1/68/53 29/80/53 30/81/53
f 1/68/53 30/81/53 31/82/53
f 1/68/53 31/82/53 32/83/53
f 1/68/53 32/83/53 33/84/53
f 1/68/53 33/84/53 34/85/53
f 1/68/53 34/85/53 35/86/53
f 1/68/53 35/86/53 36/87/53
f 1/68/53 36/87/53 37/88/53
f 1/68/53 37/88/53 38/89/53
f 1/68/53 38/89/53 39/90/53
f 1/68/53 39/90/53 40/91/53
f 1/68/53 40/91/53 41/92/53
f 1/68/53 41/92/53 42/93/53
f 1/68/53 42/93/53 43/94/53
f 1/68/53 43/94/53 44/95/53
f 1/68/53 44/95/53 45/96/53
f 1/68/53 45/96/53 46/97/53
f 1/68/53 46/97/53 47/98/53
f 1/68/53 47/98/53 48/99/53
f 1/68/53 48/99/53 49/100/53
f 1/68/53 49/100/53 50/101/53
f 1/68/54 50/101/54 51/102/54
f 17/103/55 107/104/55 16/105/55
f 62/106/55 118/107/55 61/108/55
f 52/109/56 108/110/56 17/103/56
f 63/111/57 119/112/57 62/106/57
f 53/113/55 109/114/55 52/109/55
f 64/115/55 120/116/55 63/111/55
f 54/117/55 110/118/55 53/113/55
f 65/119/55 121/120/55 64/115/55
f 55/121/55 111/122/55 54/117/55
f 66/123/55 122/124/55 65/119/55
f 98/125/58 99/126/58 111/122/58
f 87/127/59 88/128/59 122/124/59
f 99/126/60 100/129/60 110/118/60
f 88/128/61 89/130/61 121/120/61
f 100/129/62 101/131/62 109/114/62
f 89/130/63 90/132/63 120/116/63
f 101/131/64 102/133/64 108/110/64
f 90/132/65 91/134/65 119/112/65
f 102/133/66 103/135/66 107/104/66
f 91/134/67 92/136/67 118/107/67
f 92/136/68 93/137/68 117/138/68
f 103/135/69 104/139/69 86/140/69
f 93/137/70 94/141/70 116/142/70
f 104/139/71 105/143/71 85/144/71
f 94/141/72 95/145/72 115/146/72
f 105/143/73 106/147/73 84/148/73
f 95/145/74 96/149/74 114/150/74
f 96/149/75 97/151/75 113/152/75
f 97/151/76 98/125/76 112/153/76
f 56/154/56 112/153/56 55/121/56
f 57/155/55 113/152/55 56/154/55
f 58/156/56 114/150/56 57/155/56
f 59/157/55 115/146/55 58/156/55
f 15/158/56 85/144/56 14/159/56
f 60/160/55 116/142/55 59/157/55
f 16/105/55 86/140/55 15/158/55
f 61/108/57 117/138/57 60/160/57
f 14/159/55 84/148/55 13/161/55
f 13/161/55 83/162/55 12/163/55
f 12/163/55 82/164/55 11/165/55
f 11/165/57 81/166/57 10/167/57
f 10/167/56 80/168/56 9/169/56
f 9/169/55 79/170/55 8/171/55
f 8/171/55 78/172/55 7/173/55
f 7/173/55 77/174/55 6/175/55
f 6/175/55 76/176/55 5/177/55
f 5/177/57 75/178/57 4/179/57
f 4/179/55 74/180/55 3/181/55
f 3/181/57 73/182/57 2/183/57
f 2/183/56 72/184/56 67/185/56
f 67/185/57 71/186/57 68/187/57
f 68/187/56 123/188/56 69/189/56
f 124/190/55 126/191/55 125/192/55
f 124/190/55 127/193/55 126/191/55
f 124/190/55 128/194/55 127/193/55
f 124/190/55 129/195/55 128/194/55
f 124/190/55 130/196/55 129/195/55
f 124/190/55 131/197/55 130/196/55
f 124/190/57 132/198/57 131/197/57
f 124/190/55 133/199/55 132/198/55
f 124/190/55 134/200/55 133/199/55
f 124/190/55 135/201/55 134/200/55
f 124/190/57 136/202/57 135/201/57
f 124/190/56 137/203/56 136/202/56
f 124/190/55 138/204/55 137/203/55
f 70/205/77 66/206/77 87/207/77
f 66/206/78 18/69/78 87/207/78
f 1/68/79 87/207/79 18/69/79
f 1/68/80 124/208/80 87/207/80
f 138/209/81 124/208/81 1/68/81
f 127/193/82 128/194/82 80/168/82
f 128/194/83 129/195/83 79/170/83
f 129/195/84 130/196/84 78/172/84
f 130/196/85 131/197/85 77/174/85
f 131/197/86 132/198/86 76/176/86
f 132/198/87 133/199/87 75/178/87
f 133/199/88 134/200/88 74/180/88
f 134/200/89 135/201/89 73/182/89
f 106/147/90 125/192/90 83/162/90
f 135/201/91 136/202/91 72/184/91
f 125/192/92 126/191/92 82/164/92
f 136/202/93 137/203/93 71/186/93
f 126/191/94 127/193/94 81/166/94
f 137/203/95 138/204/95 123/188/95
f 123/210/96 138/209/96 69/211/96
f 69/211/97 138/209/97 51/102/97
f 1/68/98 51/102/98 138/209/98
f 124/190/55 88/128/55 87/127/55
f 124/190/55 89/130/55 88/128/55
f 124/190/55 90/132/55 89/130/55
f 124/190/55 91/134/55 90/132/55
f 124/190/56 92/136/56 91/134/56
f 124/190/56 93/137/56 92/136/56
f 124/190/55 94/141/55 93/137/55
f 124/190/57 95/145/57 94/141/57
f 124/190/55 96/149/55 95/145/55
f 124/190/55 97/151/55 96/149/55
f 124/190/55 98/125/55 97/151/55
f 124/190/55 99/126/55 98/125/55
f 124/190/55 100/129/55 99/126/55
f 124/190/55 101/131/55 100/129/55
f 124/190/55 102/133/55 101/131/55
f 124/190/55 103/135/55 102/133/55
f 124/190/55 104/139/55 103/135/55
f 124/190/55 105/143/55 104/139/55
f 124/190/55 106/147/55 105/143/55
f 124/190/55 125/192/55 106/147/55
f 108/110/55 107/104/55 17/103/55
f 119/112/57 118/107/57 62/106/57
f 109/114/55 108/110/55 52/109/55
f 120/116/57 119/112/57 63/111/57
f 110/118/99 109/114/99 53/113/99
f 121/120/55 120/116/55 64/115/55
f 111/122/100 110/118/100 54/117/100
f 122/124/56 121/120/56 65/119/56
f 112/153/57 111/122/57 55/121/57
f 70/212/99 122/124/99 66/123/99
f 112/153/58 98/125/58 111/122/58
f 70/212/59 87/127/59 122/124/59
f 111/122/60 99/126/60 110/118/60
f 122/124/61 88/128/61 121/120/61
f 110/118/62 100/129/62 109/114/62
f 121/120/101 89/130/101 120/116/101
f 109/114/64 101/131/64 108/110/64
f 120/116/102 90/132/102 119/112/102
f 108/110/103 102/133/103 107/104/103
f 119/112/67 91/134/67 118/107/67
f 118/107/68 92/136/68 117/138/68
f 107/104/69 103/135/69 86/140/69
f 117/138/104 93/137/104 116/142/104
f 86/140/105 104/139/105 85/144/105
f 116/142/72 94/141/72 115/146/72
f 85/144/106 105/143/106 84/148/106
f 115/146/74 95/145/74 114/150/74
f 114/150/107 96/149/107 113/152/107
f 113/152/76 97/151/76 112/153/76
f 113/152/57 112/153/57 56/154/57
f 114/150/100 113/152/100 57/155/100
f 115/146/55 114/150/55 58/156/55
f 116/142/99 115/146/99 59/157/99
f 86/140/55 85/144/55 15/158/55
f 117/138/100 116/142/100 60/160/100
f 107/104/57 86/140/57 16/105/57
f 118/107/55 117/138/55 61/108/55
f 85/144/55 84/148/55 14/159/55
f 84/148/55 83/162/55 13/161/55
f 83/162/55 82/164/55 12/163/55
f 82/164/55 81/166/55 11/165/55
f 81/166/57 80/168/57 10/167/57
f 80/168/57 79/170/57 9/169/57
f 79/170/57 78/172/57 8/171/57
f 78/172/57 77/174/57 7/173/57
f 77/174/55 76/176/55 6/175/55
f 76/176/56 75/178/56 5/177/56
f 75/178/108 74/180/108 4/179/108
f 74/180/56 73/182/56 3/181/56
f 73/182/100 72/184/100 2/183/100
f 72/184/55 71/186/55 67/185/55
f 71/186/57 123/188/57 68/187/57
f 81/166/109 127/193/109 80/168/109
f 80/168/110 128/194/110 79/170/110
f 79/170/111 129/195/111 78/172/111
f 78/172/112 130/196/112 77/174/112
f 77/174/113 131/197/113 76/176/113
f 76/176/114 132/198/114 75/178/114
f 75/178/115 133/199/115 74/180/115
f 74/180/116 134/200/116 73/182/116
f 84/148/117 106/147/117 83/162/117
f 73/182/118 135/201/118 72/184/118
f 83/162/119 125/192/119 82/164/119
f 72/184/120 136/202/120 71/186/120
f 82/164/121 126/191/121 81/166/121
f 71/186/122 137/203/122 123/188/122
o ColobotMesh_1_ColobotMesh_
v -1.000000 0.494780 0.000000
v 1.000000 -3.505220 -0.000000
v -1.000000 0.494780 1.000000
v -1.000000 -3.505220 -0.000000
v 1.000000 0.494780 1.000000
v -1.000000 -3.505220 1.000000
v 1.000000 -3.505220 1.000000
v 1.000000 0.494780 0.000000
vt 0.583984 0.986328
vt 0.576172 0.994141
vt 0.583984 0.994141
vt 0.576172 0.986328
vn 0.000000 1.000000 0.000000
vn 0.000000 -0.000000 1.000000
vn 1.000000 -0.000000 0.000000
vn -0.000000 0.000000 -1.000000
vn -1.000000 -0.000000 0.000000
usemtl ColobotMesh_mat_1_lemt.png
s off
f 146/213/123 141/214/123 143/215/123
f 141/214/123 146/213/123 139/216/123
f 143/215/124 144/216/124 145/213/124
f 144/216/124 143/215/124 141/214/124
f 146/214/125 145/213/125 140/216/125
f 145/213/125 146/214/125 143/215/125
f 139/214/126 140/213/126 142/216/126
f 140/213/126 139/214/126 146/215/126
f 141/215/127 142/216/127 144/213/127
f 142/216/127 141/215/127 139/214/127
