# Blender v2.71 (sub 0) OBJ File: 'convert1.blend'
# www.blender.org
mtllib convert1.mtl
o Platform_new_Circle
v -0.004426 1.000000 -8.009626
v -1.565096 1.000000 -7.855370
v -3.065683 1.000000 -7.399605
v -4.448522 1.000000 -6.659849
v -5.660471 1.000000 -5.664527
v -6.654955 1.000000 -4.451891
v -7.393757 1.000000 -3.068542
v -7.848485 1.000000 -1.567640
v -8.001663 1.000000 -0.006865
v -7.847407 1.000000 1.553804
v -7.391643 1.000000 3.054391
v -6.651886 1.000000 4.437231
v -5.656565 1.000000 5.649180
v -4.443929 1.000000 6.643664
v -3.060578 1.000000 7.382467
v -1.559676 1.000000 7.837194
v 0.001101 1.000000 7.990372
v 1.561771 1.000000 7.836115
v 3.062358 1.000000 7.380350
v 4.445198 1.000000 6.640593
v 5.657146 1.000000 5.645270
v 6.651630 1.000000 4.432633
v 7.390431 1.000000 3.049283
v 7.845158 1.000000 1.548380
v 7.998335 1.000000 -0.012397
v 7.844077 1.000000 -1.573066
v 7.388311 1.000000 -3.073654
v 6.648552 1.000000 -4.456493
v 5.653229 1.000000 -5.668441
v 4.440592 1.000000 -6.662924
v 3.057240 1.000000 -7.401724
v 1.556337 1.000000 -7.856450
v -0.001665 1.000000 -0.009629
v -0.005117 -1.000000 -10.009625
v -1.955953 -1.000000 -9.816804
v -3.831688 -1.000000 -9.247099
v -5.560236 -1.000000 -8.322403
v -7.075172 -1.000000 -7.078252
v -8.318278 -1.000000 -5.562457
v -9.241779 -1.000000 -3.833270
v -9.810189 -1.000000 -1.957143
v -10.001663 -1.000000 -0.006174
v -9.808843 -1.000000 1.944662
v -9.239138 -1.000000 3.820396
v -8.314442 -1.000000 5.548946
v -7.070290 -1.000000 7.063882
v -5.554495 -1.000000 8.306989
v -3.825307 -1.000000 9.230492
v -1.949178 -1.000000 9.798901
v 0.001792 -1.000000 9.990373
v 1.952629 -1.000000 9.797552
v 3.828364 -1.000000 9.227845
v 5.556913 -1.000000 8.303148
v 7.071849 -1.000000 7.058995
v 8.314954 -1.000000 5.543199
v 9.238456 -1.000000 3.814011
v 9.806864 -1.000000 1.937882
v 9.998335 -1.000000 -0.013088
v 9.805512 -1.000000 -1.963926
v 9.235805 -1.000000 -3.839660
v 8.311107 -1.000000 -5.568209
v 7.066953 -1.000000 -7.083144
v 5.551156 -1.000000 -8.326247
v 3.821967 -1.000000 -9.249747
v 1.945838 -1.000000 -9.818154
v -3.925075 1.000000 -0.788635
v 3.694383 1.000000 1.519827
v 3.921746 1.000000 0.769375
v -0.003046 1.000000 -4.009628
v -0.783380 1.000000 -3.932499
v -3.326776 1.000000 2.213801
v -2.829115 1.000000 2.819775
v 0.777336 1.000000 -3.933039
v 2.827741 1.000000 2.817820
v 3.324982 1.000000 2.211502
v -3.924536 1.000000 0.772087
v -3.696654 1.000000 1.522381
v 2.219463 1.000000 -3.336277
v 1.527788 1.000000 -3.705677
v 1.530347 1.000000 3.685360
v 2.221766 1.000000 3.315482
v -4.001664 1.000000 -0.008247
v 3.323444 1.000000 -2.233061
v 2.825782 1.000000 -2.839035
v -0.000282 1.000000 3.990371
v 0.780053 1.000000 3.913243
v -3.328310 1.000000 -2.230760
v -3.697711 1.000000 -1.539086
v 3.921206 1.000000 -0.791348
v 3.693323 1.000000 -1.541642
v -2.225094 1.000000 -3.334739
v -2.831068 1.000000 -2.837079
v -1.531122 1.000000 3.686419
v -0.780670 1.000000 3.913782
v 3.998335 1.000000 -0.011013
v -1.533674 1.000000 -3.704618
v -2.222797 1.000000 3.317018
vt 0.336925 0.723156
vt 0.343240 0.743979
vt 0.234375 0.765625
vt 0.234367 0.876621
vt 0.212713 0.874487
vt 0.142090 0.703952
vt 0.155895 0.687133
vt 0.256021 0.874490
vt 0.312867 0.687145
vt 0.326669 0.703966
vt 0.125513 0.743963
vt 0.131831 0.723141
vt 0.296034 0.857919
vt 0.276844 0.868175
vt 0.276859 0.663081
vt 0.296048 0.673340
vt 0.125510 0.787271
vt 0.123379 0.765617
vt 0.326660 0.827298
vt 0.312855 0.844117
vt 0.234383 0.654629
vt 0.256037 0.656763
vt 0.142081 0.827284
vt 0.131825 0.808094
vt 0.343237 0.787287
vt 0.336919 0.808109
vt 0.172702 0.857910
vt 0.155883 0.844105
vt 0.191906 0.663075
vt 0.212729 0.656760
vt 0.345371 0.765633
vt 0.191891 0.868169
vt 0.172716 0.673331
vt 0.454064 0.673136
vt 0.454064 0.718484
vt 0.341796 0.744266
vt 0.187202 0.985305
vt 0.213000 0.873043
vt 0.234367 0.875149
vt 0.078326 0.609486
vt 0.156935 0.688174
vt 0.143313 0.704770
vt 0.234358 0.985305
vt 0.255734 0.873046
vt 0.420674 0.639741
vt 0.325446 0.704783
vt 0.311826 0.688185
vt 0.014686 0.718449
vt 0.014686 0.673103
vt 0.133191 0.723704
vt 0.326859 0.985305
vt 0.276281 0.866815
vt 0.295217 0.856696
vt 0.360245 0.579303
vt 0.295230 0.674563
vt 0.276296 0.664441
vt 0.014686 0.765607
vt 0.124851 0.765617
vt 0.126954 0.786984
vt 0.390424 0.921764
vt 0.311815 0.843076
vt 0.325437 0.826480
vt 0.281549 0.545945
vt 0.255750 0.658207
vt 0.234383 0.656101
vt 0.014686 0.858114
vt 0.133185 0.807531
vt 0.143305 0.826467
vt 0.454064 0.812801
vt 0.454064 0.858147
vt 0.335559 0.807545
vt 0.078303 0.921740
vt 0.156924 0.843065
vt 0.173520 0.856687
vt 0.141891 0.545945
vt 0.187236 0.545945
vt 0.213016 0.658204
vt 0.454064 0.765643
vt 0.343899 0.765633
vt 0.141859 0.985305
vt 0.192455 0.866809
vt 0.108537 0.579287
vt 0.173533 0.674554
vt 0.335565 0.723719
vt 0.048091 0.639710
vt 0.281514 0.985305
vt 0.390460 0.609522
vt 0.126957 0.744250
vt 0.360213 0.951963
vt 0.326891 0.545945
vt 0.014686 0.812767
vt 0.420659 0.891540
vt 0.048076 0.891509
vt 0.234393 0.545945
vt 0.341793 0.787000
vt 0.108506 0.951947
vt 0.192469 0.664435
vt 0.717671 0.999237
vt 0.655478 0.938263
vt 0.655478 0.999237
vt 0.593938 0.938264
vt 0.593938 0.999237
vt 0.841404 0.999236
vt 0.779864 0.938263
vt 0.779864 0.999237
vt 0.717671 0.938263
vt 0.841404 0.938263
vn 0.000000 1.000000 0.000000
vn 0.449500 0.705400 -0.548100
vn 0.206000 0.705400 0.678200
vn -0.678400 0.705400 -0.205500
vn 0.625000 0.705400 -0.334300
vn -0.548100 0.705400 -0.449500
vn -0.069200 0.705400 0.705400
vn 0.705400 0.705400 -0.069700
vn -0.334300 0.705400 -0.625000
vn -0.333900 0.705400 0.625200
vn 0.678400 0.705400 0.205500
vn -0.069700 0.705400 -0.705400
vn -0.547800 0.705400 0.449900
vn 0.069200 0.705400 -0.705400
vn 0.548100 0.705400 0.449500
vn -0.678200 0.705400 0.206000
vn 0.333900 0.705400 -0.625200
vn 0.334300 0.705400 0.625000
vn -0.705400 0.705400 -0.069200
vn 0.547800 0.705400 -0.449900
vn 0.069700 0.705400 0.705400
vn -0.625200 0.705400 -0.333900
vn 0.678200 0.705400 -0.206000
vn -0.449900 0.705400 -0.547800
vn -0.205500 0.705400 0.678400
vn 0.705400 0.705400 0.069200
vn -0.206000 0.705400 -0.678200
vn -0.449500 0.705400 0.548100
vn 0.625200 0.705400 0.333900
vn -0.625000 0.705400 0.334300
vn 0.205500 0.705400 -0.678400
vn 0.449900 0.705400 0.547800
vn -0.705400 0.705400 0.069700
usemtl None
s off
f 67/1/1 68/2/1 33/3/1
f 69/4/1 70/5/1 33/3/1
f 71/6/1 72/7/1 33/3/1
f 73/8/1 69/4/1 33/3/1
f 74/9/1 75/10/1 33/3/1
f 76/11/1 77/12/1 33/3/1
f 78/13/1 79/14/1 33/3/1
f 80/15/1 81/16/1 33/3/1
f 66/17/1 82/18/1 33/3/1
f 83/19/1 84/20/1 33/3/1
f 85/21/1 86/22/1 33/3/1
f 87/23/1 88/24/1 33/3/1
f 89/25/1 90/26/1 33/3/1
f 91/27/1 92/28/1 33/3/1
f 93/29/1 94/30/1 33/3/1
f 68/2/1 95/31/1 33/3/1
f 70/5/1 96/32/1 33/3/1
f 72/7/1 97/33/1 33/3/1
f 75/10/1 67/1/1 33/3/1
f 77/12/1 71/6/1 33/3/1
f 79/14/1 73/8/1 33/3/1
f 81/16/1 74/9/1 33/3/1
f 82/18/1 76/11/1 33/3/1
f 84/20/1 78/13/1 33/3/1
f 86/22/1 80/15/1 33/3/1
f 88/24/1 66/17/1 33/3/1
f 90/26/1 83/19/1 33/3/1
f 92/28/1 87/23/1 33/3/1
f 94/30/1 85/21/1 33/3/1
f 95/31/1 89/25/1 33/3/1
f 96/32/1 91/27/1 33/3/1
f 97/33/1 93/29/1 33/3/1
f 23/34/1 24/35/1 68/36/1
f 2/37/1 70/38/1 69/39/1
f 13/40/1 72/41/1 71/42/1
f 1/43/1 69/39/1 73/44/1
f 22/45/1 75/46/1 74/47/1
f 10/48/1 11/49/1 77/50/1
f 31/51/1 79/52/1 78/53/1
f 20/54/1 81/55/1 80/56/1
f 9/57/1 82/58/1 66/59/1
f 29/60/1 84/61/1 83/62/1
f 18/63/1 86/64/1 85/65/1
f 7/66/1 88/67/1 87/68/1
f 26/69/1 27/70/1 90/71/1
f 5/72/1 92/73/1 91/74/1
f 15/75/1 16/76/1 94/77/1
f 24/35/1 25/78/1 95/79/1
f 3/80/1 96/81/1 70/38/1
f 14/82/1 97/83/1 72/41/1
f 22/45/1 23/34/1 67/84/1
f 12/85/1 71/42/1 77/50/1
f 31/51/1 32/86/1 73/44/1
f 20/54/1 21/87/1 74/47/1
f 10/48/1 76/88/1 82/58/1
f 29/60/1 30/89/1 78/53/1
f 18/63/1 19/90/1 80/56/1
f 8/91/1 66/59/1 88/67/1
f 28/92/1 83/62/1 90/71/1
f 6/93/1 87/68/1 92/73/1
f 16/76/1 17/94/1 85/65/1
f 26/69/1 89/95/1 95/79/1
f 4/96/1 91/74/1 96/81/1
f 15/75/1 93/97/1 97/83/1
f 67/84/1 23/34/1 68/36/1
f 1/43/1 2/37/1 69/39/1
f 12/85/1 13/40/1 71/42/1
f 32/86/1 1/43/1 73/44/1
f 21/87/1 22/45/1 74/47/1
f 76/88/1 10/48/1 77/50/1
f 30/89/1 31/51/1 78/53/1
f 19/90/1 20/54/1 80/56/1
f 8/91/1 9/57/1 66/59/1
f 28/92/1 29/60/1 83/62/1
f 17/94/1 18/63/1 85/65/1
f 6/93/1 7/66/1 87/68/1
f 89/95/1 26/69/1 90/71/1
f 4/96/1 5/72/1 91/74/1
f 93/97/1 15/75/1 94/77/1
f 68/36/1 24/35/1 95/79/1
f 2/37/1 3/80/1 70/38/1
f 13/40/1 14/82/1 72/41/1
f 75/46/1 22/45/1 67/84/1
f 11/49/1 12/85/1 77/50/1
f 79/52/1 31/51/1 73/44/1
f 81/55/1 20/54/1 74/47/1
f 9/57/1 10/48/1 82/58/1
f 84/61/1 29/60/1 78/53/1
f 86/64/1 18/63/1 80/56/1
f 7/66/1 8/91/1 88/67/1
f 27/70/1 28/92/1 90/71/1
f 5/72/1 6/93/1 92/73/1
f 94/77/1 16/76/1 85/65/1
f 25/78/1 26/69/1 95/79/1
f 3/80/1 4/96/1 96/81/1
f 14/82/1 15/75/1 97/83/1
usemtl None_factory.png
f 29/98/2 63/99/2 30/100/2
f 18/100/3 52/101/3 19/102/3
f 7/103/4 41/104/4 8/105/4
f 27/103/5 61/104/5 28/105/5
f 5/98/6 39/99/6 6/100/6
f 16/105/7 50/106/7 17/98/7
f 25/98/8 59/99/8 26/100/8
f 3/103/9 37/104/9 4/105/9
f 14/100/10 48/101/10 15/102/10
f 23/103/11 57/104/11 24/105/11
f 1/98/12 35/99/12 2/100/12
f 12/105/13 46/106/13 13/98/13
f 32/105/14 34/106/14 1/98/14
f 21/98/15 55/99/15 22/100/15
f 10/100/16 44/101/16 11/102/16
f 30/100/17 64/101/17 31/102/17
f 19/103/18 53/104/18 20/105/18
f 8/105/19 42/106/19 9/98/19
f 28/105/20 62/106/20 29/98/20
f 17/98/21 51/99/21 18/100/21
f 6/100/22 40/101/22 7/102/22
f 26/100/23 60/101/23 27/102/23
f 4/105/24 38/106/24 5/98/24
f 15/103/25 49/104/25 16/105/25
f 24/105/26 58/106/26 25/98/26
f 2/100/27 36/101/27 3/102/27
f 13/98/28 47/99/28 14/100/28
f 22/100/29 56/101/29 23/102/29
f 11/103/30 45/104/30 12/105/30
f 31/103/31 65/104/31 32/105/31
f 20/105/32 54/106/32 21/98/32
f 9/98/33 43/99/33 10/100/33
f 62/106/2 63/99/2 29/98/2
f 51/99/3 52/101/3 18/100/3
f 40/107/4 41/104/4 7/103/4
f 60/107/5 61/104/5 27/103/5
f 38/106/6 39/99/6 5/98/6
f 49/104/7 50/106/7 16/105/7
f 58/106/8 59/99/8 25/98/8
f 36/107/9 37/104/9 3/103/9
f 47/99/10 48/101/10 14/100/10
f 56/107/11 57/104/11 23/103/11
f 34/106/12 35/99/12 1/98/12
f 45/104/13 46/106/13 12/105/13
f 65/104/14 34/106/14 32/105/14
f 54/106/15 55/99/15 21/98/15
f 43/99/16 44/101/16 10/100/16
f 63/99/17 64/101/17 30/100/17
f 52/107/18 53/104/18 19/103/18
f 41/104/19 42/106/19 8/105/19
f 61/104/20 62/106/20 28/105/20
f 50/106/21 51/99/21 17/98/21
f 39/99/22 40/101/22 6/100/22
f 59/99/23 60/101/23 26/100/23
f 37/104/24 38/106/24 4/105/24
f 48/107/25 49/104/25 15/103/25
f 57/104/26 58/106/26 24/105/26
f 35/99/27 36/101/27 2/100/27
f 46/106/28 47/99/28 13/98/28
f 55/99/29 56/101/29 22/100/29
f 44/107/30 45/104/30 11/103/30
f 64/107/31 65/104/31 31/103/31
f 53/104/32 54/106/32 20/105/32
f 42/106/33 43/99/33 9/98/33
o Case_ColobotMesh_
v -6.000000 6.000000 8.000000
v -6.000000 6.000000 -8.000000
v -14.000000 6.000000 -8.000000
v -6.000000 -1.000000 -8.000000
v -14.000000 -1.000000 -8.000000
v -6.000000 -1.000000 8.000000
v 1.959750 14.000000 -1.999999
v -12.000000 6.000000 6.000000
v -8.000000 6.000000 6.000000
v -8.000000 6.000000 -6.000000
v -8.000000 14.000000 2.000001
v -12.040200 16.000000 -1.999999
v 1.959750 16.000000 -1.999999
v -12.040200 14.000000 2.000001
v 1.959750 14.000000 2.000001
v -12.040200 16.000000 2.000001
v -14.000000 -1.000000 8.000000
v -14.000000 6.000000 8.000000
v -12.040200 14.000000 -1.999999
v 1.959750 16.000000 2.000001
v -8.000000 14.000000 -1.999999
v -12.000000 14.000000 2.000001
v -12.000000 6.000000 -6.000000
v -12.000000 14.000000 -1.999999
vt 0.470703 0.751953
vt 0.718099 0.998047
vt 0.594401 0.998047
vt 0.748047 0.529297
vt 0.748047 0.314453
vt 0.501953 0.314453
vt 0.501953 0.529297
vt 0.498047 0.529297
vt 0.498047 0.314453
vt 0.001953 0.314453
vt 0.001953 0.529297
vt 0.845703 0.998047
vt 0.966797 0.751953
vt 0.845703 0.751953
vt 0.966797 0.998047
vt 0.841797 0.751953
vt 0.583984 0.994141
vt 0.583984 0.986328
vt 0.576172 0.986328
vt 0.576172 0.994141
vn -1.000000 0.000000 0.000000
vn 0.000000 0.000000 -1.000000
vn 1.000000 0.000000 0.000000
vn 0.000000 0.000000 1.000000
vn 0.000000 0.447200 0.894400
vn 0.000000 0.447200 -0.894400
vn 0.000000 1.000000 0.000000
vn 0.000000 -1.000000 0.000000
usemtl ColobotMesh_mat_1
s off
f 120/108/34 119/109/34 121/110/34
f 99/111/35 101/112/35 102/113/35
f 102/113/35 100/114/35 99/111/35
f 98/115/36 103/116/36 101/117/36
f 101/117/36 99/118/36 98/115/36
f 115/114/37 114/113/37 103/112/37
f 103/112/37 98/111/37 115/114/37
f 100/114/34 102/113/34 114/112/34
f 114/112/34 115/111/34 100/114/34
f 108/119/38 105/120/38 106/121/38
f 105/120/38 108/119/38 119/122/38
f 118/109/36 106/108/36 107/123/36
f 106/108/36 118/109/36 108/110/36
f 121/119/39 107/120/39 120/121/39
f 107/120/39 121/119/39 118/122/39
f 119/109/34 120/108/34 105/123/34
usemtl ColobotMesh_mat_3
f 98/124/40 99/125/40 100/126/40
f 100/126/40 115/127/40 98/124/40
f 104/125/41 111/127/41 116/126/41
f 111/127/41 104/125/41 112/124/41
f 110/125/40 113/127/40 117/124/40
f 113/127/40 110/125/40 109/126/40
f 117/124/37 111/126/37 112/125/37
f 111/126/37 117/124/37 113/127/37
f 110/127/36 112/125/36 104/126/36
f 112/125/36 110/127/36 117/124/36
f 109/127/35 104/125/35 116/126/35
f 104/125/35 109/127/35 110/124/35
f 113/124/34 116/126/34 111/125/34
f 116/126/34 113/124/34 109/127/34
