# Blender v2.77 (sub 0) OBJ File: 'convert3.blend'
# www.blender.org
mtllib convert3.mtl
o ColobotMesh_1.001_ColobotMesh_.001
v -0.000003 -3.505226 -0.000001
v 5.756959 -10.505200 1.690392
v 5.570210 -10.505200 2.229970
v 5.333017 -10.505200 2.749353
v 5.047528 -10.505200 3.243838
v 4.716327 -10.505200 3.708948
v 4.342413 -10.505200 4.140469
v 3.929175 -10.505200 4.534492
v 3.480353 -10.505200 4.887452
v 3.000013 -10.505200 5.196148
v 2.492504 -10.505200 5.457790
v 1.962423 -10.505200 5.670003
v 1.414569 -10.505200 5.830870
v 0.853905 -10.505200 5.938930
v 0.285508 -10.505200 5.993207
v -0.285474 -10.505200 5.993208
v -0.853871 -10.505200 5.938934
v -5.999999 -3.505226 0.000008
v -5.972830 -3.505226 0.570345
v -5.891570 -3.505226 1.135516
v -5.756955 -3.505226 1.690403
v -5.570203 -3.505226 2.229982
v -5.333008 -3.505226 2.749366
v -5.047516 -3.505226 3.243850
v -4.716312 -3.505226 3.708959
v -4.342397 -3.505226 4.140479
v -3.929156 -3.505226 4.534501
v -3.480333 -3.505226 4.887458
v -2.999991 -3.505226 5.196155
v -2.492481 -3.505226 5.457793
v -1.962398 -3.505226 5.670005
v -1.414544 -3.505226 5.830868
v -0.853879 -3.505226 5.938926
v -0.285481 -3.505226 5.993200
v 0.285501 -3.505226 5.993199
v 0.853899 -3.505226 5.938922
v 1.414563 -3.505226 5.830862
v 1.962417 -3.505226 5.669996
v 2.492498 -3.505226 5.457782
v 3.000007 -3.505226 5.196141
v 3.480348 -3.505226 4.887444
v 3.929170 -3.505226 4.534484
v 4.342409 -3.505226 4.140460
v 4.716322 -3.505226 3.708939
v 5.047523 -3.505226 3.243829
v 5.333013 -3.505226 2.749344
v 5.570206 -3.505226 2.229960
v 5.756955 -3.505226 1.690382
v 5.891568 -3.505226 1.135495
v 5.972826 -3.505226 0.570325
v 5.999993 -3.505226 -0.000009
v -1.414536 -10.505200 5.830876
v -1.962390 -10.505200 5.670013
v -2.492472 -10.505200 5.457800
v -2.999982 -10.505200 5.196163
v -3.480324 -10.505200 4.887466
v -3.929147 -10.505200 4.534510
v -4.342388 -10.505200 4.140487
v -4.716303 -10.505200 3.708968
v -5.047506 -10.505200 3.243860
v -5.332998 -10.505200 2.749375
v -5.570193 -10.505200 2.229992
v -5.756945 -10.505200 1.690413
v -5.891560 -10.505200 1.135526
v -5.972819 -10.505200 0.570355
v -5.999989 -10.505200 0.000019
v 5.891572 -10.505200 1.135505
v 5.972829 -10.505200 0.570336
v 5.999997 -10.505200 0.000001
v -4.800005 -10.505200 -0.000015
v 4.778265 -10.505200 0.456275
v 4.713257 -10.505200 0.908411
v 4.605565 -10.505200 1.352321
v 4.456164 -10.505200 1.783983
v 4.266408 -10.505200 2.199490
v 4.038014 -10.505200 2.595078
v 3.773052 -10.505200 2.967165
v 3.473919 -10.505200 3.312381
v 3.143327 -10.505200 3.627600
v 2.784267 -10.505200 3.909966
v 2.399994 -10.505200 4.156924
v 1.993985 -10.505200 4.366235
v 1.569919 -10.505200 4.536005
v 1.131634 -10.505200 4.664696
v 0.683102 -10.505200 4.751143
v 0.228384 -10.505200 4.794562
v -4.799999 -4.602929 -0.000011
v -4.778265 -4.602929 0.456258
v -4.713259 -4.602929 0.908395
v -4.605568 -4.602929 1.352305
v -4.456169 -4.602929 1.783969
v -4.266414 -4.602929 2.199476
v -4.038022 -4.602929 2.595065
v -3.773061 -4.602929 2.967153
v -3.473930 -4.602929 3.312369
v -3.143339 -4.602929 3.627589
v -2.784281 -4.602929 3.909956
v -2.400008 -4.602929 4.156914
v -1.994001 -4.602929 4.366227
v -1.569935 -4.602929 4.535997
v -1.131652 -4.602929 4.664690
v -0.683121 -4.602929 4.751138
v -0.228403 -4.602929 4.794559
v 0.228383 -4.602929 4.794560
v 0.683101 -4.602929 4.751141
v 1.131633 -4.602929 4.664694
v -0.228403 -10.505200 4.794562
v -0.683122 -10.505200 4.751141
v -1.131654 -10.505200 4.664692
v -1.569937 -10.505200 4.535999
v -1.994004 -10.505200 4.366229
v -2.400012 -10.505200 4.156916
v -2.784285 -10.505200 3.909957
v -3.143343 -10.505200 3.627589
v -3.473935 -10.505200 3.312370
v -3.773066 -10.505200 2.967153
v -4.038027 -10.505200 2.595064
v -4.266420 -10.505200 2.199476
v -4.456174 -10.505200 1.783967
v -4.605575 -10.505200 1.352303
v -4.713265 -10.505200 0.908392
v -4.778272 -10.505200 0.456255
v 4.800000 -10.505200 0.000006
v -0.000002 -4.602929 -0.000001
v 1.569925 -4.602929 4.535993
v 1.993990 -4.602929 4.366222
v 2.399997 -4.602929 4.156911
v 2.784269 -4.602929 3.909953
v 3.143327 -4.602929 3.627587
v 3.473918 -4.602929 3.312368
v 3.773049 -4.602929 2.967152
v 4.038009 -4.602929 2.595066
v 4.266402 -4.602929 2.199479
v 4.456156 -4.602929 1.783973
v 4.605556 -4.602929 1.352311
v 4.713246 -4.602929 0.908403
v 4.778254 -4.602929 0.456267
v 4.799988 -4.602929 0.000000
vt 0.5818 0.9892
vt 0.5773 0.9892
vt 0.5773 0.9896
vt 0.5774 0.9900
vt 0.5775 0.9904
vt 0.5776 0.9908
vt 0.5778 0.9912
vt 0.5780 0.9916
vt 0.5783 0.9920
vt 0.5785 0.9923
vt 0.5789 0.9926
vt 0.5792 0.9928
vt 0.5796 0.9931
vt 0.5799 0.9933
vt 0.5803 0.9934
vt 0.5808 0.9936
vt 0.5812 0.9936
vt 0.5816 0.9937
vt 0.5820 0.9937
vt 0.5825 0.9936
vt 0.5829 0.9936
vt 0.5833 0.9934
vt 0.5837 0.9933
vt 0.5841 0.9931
vt 0.5845 0.9928
vt 0.5848 0.9926
vt 0.5851 0.9923
vt 0.5854 0.9920
vt 0.5856 0.9916
vt 0.5859 0.9912
vt 0.5860 0.9908
vt 0.5862 0.9904
vt 0.5863 0.9900
vt 0.5863 0.9896
vt 0.5864 0.9892
vt 0.6108 0.9889
vt 0.6108 0.9885
vt 0.6107 0.9888
vt 0.6077 0.9889
vt 0.6074 0.9887
vt 0.6076 0.9890
vt 0.6103 0.9887
vt 0.6103 0.9884
vt 0.6102 0.9886
vt 0.6086 0.9886
vt 0.6084 0.9883
vt 0.6085 0.9886
vt 0.6100 0.9886
vt 0.6099 0.9883
vt 0.6099 0.9886
vt 0.6084 0.9886
vt 0.6082 0.9884
vt 0.6082 0.9886
vt 0.6079 0.9888
vt 0.6076 0.9886
vt 0.6078 0.9888
vt 0.6075 0.9890
vt 0.6071 0.9889
vt 0.6074 0.9891
vt 0.6095 0.9885
vt 0.6094 0.9882
vt 0.6094 0.9885
vt 0.5782 0.9883
vt 0.5818 0.9883
vt 0.6072 0.9888
vt 0.6096 0.9885
vt 0.6095 0.9882
vt 0.6075 0.9886
vt 0.6081 0.9887
vt 0.6079 0.9884
vt 0.6080 0.9887
vt 0.6109 0.9890
vt 0.6109 0.9886
vt 0.6078 0.9885
vt 0.6098 0.9885
vt 0.6097 0.9882
vt 0.6111 0.9891
vt 0.6112 0.9888
vt 0.6110 0.9890
vt 0.6093 0.9885
vt 0.6092 0.9882
vt 0.6092 0.9885
vt 0.6091 0.9885
vt 0.6089 0.9882
vt 0.6089 0.9885
vt 0.6083 0.9883
vt 0.6104 0.9887
vt 0.6104 0.9884
vt 0.6093 0.9882
vt 0.6098 0.9882
vt 0.6106 0.9888
vt 0.6105 0.9884
vt 0.6107 0.9885
vt 0.6090 0.9882
vt 0.6088 0.9882
vt 0.6088 0.9885
vt 0.6111 0.9887
vt 0.6080 0.9884
vt 0.6087 0.9885
vt 0.6085 0.9883
vt 0.6101 0.9886
vt 0.6100 0.9883
vt 0.6087 0.9882
vt 0.6093 0.9905
vt 0.6095 0.9897
vt 0.6095 0.9897
vt 0.6096 0.9897
vt 0.6097 0.9897
vt 0.6097 0.9897
vt 0.6098 0.9898
vt 0.6099 0.9898
vt 0.6099 0.9898
vt 0.6100 0.9899
vt 0.6101 0.9899
vt 0.6101 0.9900
vt 0.6102 0.9901
vt 0.6102 0.9901
vt 0.6103 0.9902
vt 0.5855 0.9883
vt 0.5864 0.9839
vt 0.5855 0.9839
vt 0.6102 0.9883
vt 0.5773 0.9839
vt 0.5782 0.9839
vt 0.6083 0.9902
vt 0.6082 0.9903
vt 0.6083 0.9901
vt 0.6084 0.9901
vt 0.6084 0.9900
vt 0.6085 0.9899
vt 0.6086 0.9899
vt 0.6086 0.9898
vt 0.6087 0.9898
vt 0.6088 0.9898
vt 0.6088 0.9897
vt 0.6089 0.9897
vt 0.6089 0.9897
vt 0.6090 0.9897
vt 0.6091 0.9896
vt 0.6091 0.9896
vt 0.6092 0.9896
vt 0.6093 0.9896
vt 0.6093 0.9896
vt 0.6094 0.9896
vt 0.6113 0.9889
vt 0.9312 0.2813
vt 0.9087 0.5313
vt 0.9312 0.5313
vt 0.8638 0.2813
vt 0.8862 0.5312
vt 0.8862 0.2813
vt 0.9537 0.2813
vt 0.9761 0.5312
vt 0.9761 0.2813
vt 0.8862 0.2813
vt 0.8638 0.5312
vt 0.8862 0.5312
vt 0.9537 0.5313
vt 0.9537 0.2813
vt 1.0000 0.2812
vt 1.0000 0.5312
vt 0.8413 0.2813
vt 0.8188 0.5313
vt 0.8413 0.5313
vt 0.8862 0.2813
vt 0.8638 0.5313
vt 0.8862 0.5313
vt 0.9761 0.2813
vt 0.9761 0.5313
vt 0.7963 0.2813
vt 0.8188 0.5312
vt 0.8188 0.2813
vt 0.8413 0.2813
vt 0.8413 0.5312
vt 0.7739 0.2813
vt 0.7963 0.5312
vt 0.7963 0.2813
vt 0.7739 0.5313
vt 0.7963 0.5313
vt 0.8638 0.5312
vt 0.8638 0.2813
vt 0.8188 0.2813
vt 0.8413 0.5313
vt 0.8413 0.2813
vt 1.0000 0.5313
vt 1.0000 0.2813
vt 0.7963 0.5313
vt 0.8188 0.5313
vt 0.9312 0.2813
vt 0.9087 0.5312
vt 0.9312 0.5312
vt 0.8638 0.2813
vt 0.7739 0.2813
vt 0.7500 0.5313
vt 0.9312 0.2813
vt 0.9537 0.5312
vt 0.9537 0.2813
vt 0.9087 0.2813
vt 0.9312 0.5312
vt 0.9761 0.2813
vt 1.0000 0.5312
vt 1.0000 0.2813
vt 0.9087 0.5312
vt 0.7500 0.2813
vt 0.7739 0.5313
vt 0.7739 0.2813
vt 0.9761 0.5312
vt 0.7963 0.2813
vt 0.9087 0.2813
vt 0.9537 0.5312
vt 0.8188 0.2813
vt 0.7500 0.2813
vt 0.7739 0.5312
vt 0.9087 0.2813
vt 0.7500 0.2813
vt 0.7500 0.5313
vt 0.7500 0.5312
vn 0.0000 1.0000 0.0000
vn 0.0000 -1.0000 0.0000
vn 0.0000 0.0000 -1.0000
vn -0.7143 -0.6965 -0.0682
vn -0.5622 -0.5799 -0.5896
vn -0.6929 -0.7179 -0.0662
vn -0.5193 -0.6965 -0.4951
vn -0.5471 -0.7179 -0.4303
vn -0.5037 -0.7179 -0.4803
vn 0.6377 -0.6965 -0.3288
vn 0.5856 -0.7179 -0.3763
vn 0.6187 -0.7179 -0.3189
vn 0.6036 -0.6965 -0.3879
vn 0.5471 -0.7179 -0.4302
vn 0.5038 -0.7179 -0.4803
vn 0.4699 -0.6965 -0.5423
vn 0.4558 -0.7179 -0.5260
vn -0.6036 -0.6965 -0.3879
vn -0.6187 -0.7179 -0.3189
vn -0.5856 -0.7179 -0.3763
vn 0.2347 -0.6965 -0.6780
vn 0.1641 -0.7179 -0.6764
vn 0.2276 -0.7179 -0.6578
vn -0.7045 -0.6965 -0.1358
vn -0.6835 -0.7179 -0.1317
vn -0.3587 -0.6965 -0.6214
vn -0.4037 -0.7179 -0.5670
vn -0.3480 -0.7179 -0.6028
vn -0.6661 -0.6965 -0.2666
vn -0.6679 -0.7179 -0.1961
vn -0.6462 -0.7179 -0.2587
vn 0.7045 -0.6965 -0.1358
vn 0.6679 -0.7179 -0.1961
vn 0.6835 -0.7179 -0.1317
vn 0.5640 -0.6965 -0.4435
vn 0.2981 -0.2894 -0.9096
vn 0.6929 -0.7179 -0.0661
vn 0.5622 -0.5799 -0.5896
vn 0.4162 -0.6965 -0.5845
vn 0.3480 -0.7179 -0.6028
vn 0.4038 -0.7179 -0.5670
vn 0.6661 -0.6965 -0.2666
vn 0.6462 -0.7179 -0.2587
vn 0.3587 -0.6965 -0.6214
vn 0.2891 -0.7179 -0.6331
vn 0.0331 -0.7179 -0.6953
vn -0.0341 -0.6965 -0.7167
vn -0.0331 -0.7179 -0.6953
vn 0.6884 -0.6965 -0.2021
vn 0.7143 -0.6965 -0.0682
vn -0.0990 -0.7179 -0.6890
vn -0.1691 -0.6965 -0.6973
vn -0.1641 -0.7179 -0.6764
vn 0.1021 -0.6965 -0.7102
vn 0.0990 -0.7179 -0.6890
vn 0.2980 -0.6965 -0.6526
vn 0.1691 -0.6965 -0.6973
vn -0.4699 -0.6965 -0.5423
vn -0.4558 -0.7179 -0.5260
vn -0.6884 -0.6965 -0.2021
vn -0.2347 -0.6966 -0.6780
vn -0.2891 -0.7179 -0.6331
vn -0.2276 -0.7179 -0.6578
vn -0.6377 -0.6965 -0.3288
vn -0.5640 -0.6965 -0.4435
vn -0.2980 -0.6965 -0.6526
vn -0.4162 -0.6965 -0.5845
vn -0.2981 -0.2894 -0.9096
vn 0.5193 -0.6965 -0.4951
vn 0.0341 -0.6965 -0.7167
vn -0.1021 -0.6965 -0.7102
vn -0.1691 -0.6965 0.6973
vn -0.1021 0.6965 0.7102
vn -0.1691 0.6965 0.6973
vn 0.6377 -0.6965 0.3288
vn 0.6036 0.6965 0.3879
vn 0.6036 -0.6965 0.3879
vn -0.7045 -0.6965 0.1358
vn -0.7143 0.6965 0.0682
vn -0.7143 -0.6965 0.0682
vn -0.6377 -0.6965 0.3288
vn -0.6036 0.6965 0.3879
vn -0.6377 0.6965 0.3288
vn -0.2347 0.6965 0.6780
vn -0.2347 -0.6965 0.6780
vn -0.5922 -0.5749 -0.5646
vn -0.5922 0.5749 -0.5646
vn -0.5640 -0.6965 0.4435
vn -0.5193 0.6965 0.4951
vn -0.5640 0.6965 0.4435
vn -0.0341 -0.6965 0.7167
vn 0.0341 0.6965 0.7167
vn -0.0341 0.6965 0.7167
vn -0.2980 -0.6965 0.6526
vn -0.2980 0.6965 0.6526
vn 0.7045 -0.6965 0.1358
vn 0.6884 0.6965 0.2021
vn 0.6884 -0.6965 0.2021
vn 0.6661 -0.6965 0.2666
vn 0.6661 0.6965 0.2666
vn 0.7143 -0.6965 0.0682
vn 0.7045 0.6965 0.1358
vn -0.4699 -0.6965 0.5423
vn -0.4162 0.6965 0.5845
vn -0.4699 0.6965 0.5423
vn 0.6377 0.6965 0.3288
vn -0.6036 -0.6965 0.3879
vn 0.1691 -0.6965 0.6973
vn 0.1021 0.6965 0.7102
vn 0.1021 -0.6965 0.7102
vn -0.3587 0.6965 0.6214
vn -0.3587 -0.6965 0.6214
vn 0.2347 0.6965 0.6780
vn 0.1691 0.6965 0.6973
vn -0.6884 -0.6965 0.2021
vn -0.6661 0.6965 0.2667
vn -0.6884 0.6965 0.2021
vn 0.0341 -0.6965 0.7167
vn -0.4162 -0.6965 0.5845
vn 0.5193 -0.6965 0.4951
vn 0.4699 0.6965 0.5423
vn 0.4699 -0.6965 0.5423
vn 0.5640 -0.6965 0.4435
vn 0.5193 0.6965 0.4951
vn 0.4162 -0.6965 0.5845
vn 0.3587 0.6965 0.6214
vn 0.3587 -0.6965 0.6214
vn 0.5640 0.6965 0.4435
vn 0.2980 0.6965 0.6526
vn 0.2980 -0.6965 0.6526
vn 0.4162 0.6965 0.5845
vn 0.2347 -0.6965 0.6780
vn -0.6661 -0.6965 0.2667
vn -0.7045 0.6965 0.1358
vn -0.5193 -0.6965 0.4951
vn 0.5922 -0.5749 -0.5646
vn 0.7143 0.6965 0.0682
vn -0.1021 -0.6965 0.7102
vn 0.5922 0.5749 -0.5646
usemtl ColobotMesh_mat_1
s off
f 1/1/1 18/2/1 19/3/1
f 1/1/1 19/3/1 20/4/1
f 1/1/1 20/4/1 21/5/1
f 1/1/1 21/5/1 22/6/1
f 1/1/1 22/6/1 23/7/1
f 1/1/1 23/7/1 24/8/1
f 1/1/1 24/8/1 25/9/1
f 1/1/1 25/9/1 26/10/1
f 1/1/1 26/10/1 27/11/1
f 1/1/1 27/11/1 28/12/1
f 1/1/1 28/12/1 29/13/1
f 1/1/1 29/13/1 30/14/1
f 1/1/1 30/14/1 31/15/1
f 1/1/1 31/15/1 32/16/1
f 1/1/1 32/16/1 33/17/1
f 1/1/1 33/17/1 34/18/1
f 1/1/1 34/18/1 35/19/1
f 1/1/1 35/19/1 36/20/1
f 1/1/1 36/20/1 37/21/1
f 1/1/1 37/21/1 38/22/1
f 1/1/1 38/22/1 39/23/1
f 1/1/1 39/23/1 40/24/1
f 1/1/1 40/24/1 41/25/1
f 1/1/1 41/25/1 42/26/1
f 1/1/1 42/26/1 43/27/1
f 1/1/1 43/27/1 44/28/1
f 1/1/1 44/28/1 45/29/1
f 1/1/1 45/29/1 46/30/1
f 1/1/1 46/30/1 47/31/1
f 1/1/1 47/31/1 48/32/1
f 1/1/1 48/32/1 49/33/1
f 1/1/1 49/33/1 50/34/1
f 1/1/1 50/34/1 51/35/1
f 73/36/2 3/37/2 74/38/2
f 120/39/2 64/40/2 121/41/2
f 77/42/2 7/43/2 78/44/2
f 112/45/2 56/46/2 113/47/2
f 80/48/2 10/49/2 81/50/2
f 114/51/2 58/52/2 115/53/2
f 118/54/2 62/55/2 119/56/2
f 122/57/2 66/58/2 70/59/2
f 84/60/2 14/61/2 85/62/2
f 87/63/3 1/1/3 124/64/3
f 121/41/2 65/65/2 122/57/2
f 83/66/2 13/67/2 84/60/2
f 119/56/2 63/68/2 120/39/2
f 116/69/2 60/70/2 117/71/2
f 72/72/2 2/73/2 73/36/2
f 117/71/2 61/74/2 118/54/2
f 82/75/2 12/76/2 83/66/2
f 123/77/2 68/78/2 71/79/2
f 86/80/2 16/81/2 107/82/2
f 108/83/2 52/84/2 109/85/2
f 113/47/2 57/86/2 114/51/2
f 76/87/2 6/88/2 77/42/2
f 85/62/2 15/89/2 86/80/2
f 81/50/2 11/90/2 82/75/2
f 75/91/2 5/92/2 76/87/2
f 74/38/2 4/93/2 75/91/2
f 107/82/2 17/94/2 108/83/2
f 109/85/2 53/95/2 110/96/2
f 71/79/2 67/97/2 72/72/2
f 115/53/2 59/98/2 116/69/2
f 111/99/2 55/100/2 112/45/2
f 79/101/2 9/102/2 80/48/2
f 110/96/2 54/103/2 111/99/2
f 124/104/2 126/105/2 125/106/2
f 124/104/2 127/107/2 126/105/2
f 124/104/2 128/108/2 127/107/2
f 124/104/2 129/109/2 128/108/2
f 124/104/2 130/110/2 129/109/2
f 124/104/2 131/111/2 130/110/2
f 124/104/2 132/112/2 131/111/2
f 124/104/2 133/113/2 132/112/2
f 124/104/2 134/114/2 133/113/2
f 124/104/2 135/115/2 134/114/2
f 124/104/2 136/116/2 135/115/2
f 124/104/2 137/117/2 136/116/2
f 124/104/2 138/118/2 137/117/2
f 138/119/3 69/120/3 123/121/3
f 78/44/2 8/122/2 79/101/2
f 66/123/3 87/63/3 70/124/3
f 124/104/2 88/125/2 87/126/2
f 124/104/2 89/127/2 88/125/2
f 124/104/2 90/128/2 89/127/2
f 124/104/2 91/129/2 90/128/2
f 124/104/2 92/130/2 91/129/2
f 124/104/2 93/131/2 92/130/2
f 124/104/2 94/132/2 93/131/2
f 124/104/2 95/133/2 94/132/2
f 124/104/2 96/134/2 95/133/2
f 124/104/2 97/135/2 96/134/2
f 124/104/2 98/136/2 97/135/2
f 124/104/2 99/137/2 98/136/2
f 124/104/2 100/138/2 99/137/2
f 124/104/2 101/139/2 100/138/2
f 124/104/2 102/140/2 101/139/2
f 124/104/2 103/141/2 102/140/2
f 124/104/2 104/142/2 103/141/2
f 124/104/2 105/143/2 104/142/2
f 124/104/2 106/144/2 105/143/2
f 124/104/2 125/106/2 106/144/2
f 138/119/3 1/1/3 51/35/3
f 73/36/2 2/73/2 3/37/2
f 120/39/2 63/68/2 64/40/2
f 77/42/2 6/88/2 7/43/2
f 112/45/2 55/100/2 56/46/2
f 80/48/2 9/102/2 10/49/2
f 114/51/2 57/86/2 58/52/2
f 118/54/2 61/74/2 62/55/2
f 122/57/2 65/65/2 66/58/2
f 84/60/2 13/67/2 14/61/2
f 87/63/3 18/2/3 1/1/3
f 121/41/2 64/40/2 65/65/2
f 83/66/2 12/76/2 13/67/2
f 119/56/2 62/55/2 63/68/2
f 116/69/2 59/98/2 60/70/2
f 72/72/2 67/97/2 2/73/2
f 117/71/2 60/70/2 61/74/2
f 82/75/2 11/90/2 12/76/2
f 123/77/2 69/145/2 68/78/2
f 86/80/2 15/89/2 16/81/2
f 108/83/2 17/94/2 52/84/2
f 113/47/2 56/46/2 57/86/2
f 76/87/2 5/92/2 6/88/2
f 85/62/2 14/61/2 15/89/2
f 81/50/2 10/49/2 11/90/2
f 75/91/2 4/93/2 5/92/2
f 74/38/2 3/37/2 4/93/2
f 107/82/2 16/81/2 17/94/2
f 109/85/2 52/84/2 53/95/2
f 71/79/2 68/78/2 67/97/2
f 115/53/2 58/52/2 59/98/2
f 111/99/2 54/103/2 55/100/2
f 79/101/2 8/122/2 9/102/2
f 110/96/2 53/95/2 54/103/2
f 138/119/3 51/35/3 69/120/3
f 78/44/2 7/43/2 8/122/2
f 66/123/3 18/2/3 87/63/3
f 138/119/3 124/64/3 1/1/3
s 1
f 137/117/4 123/77/5 71/79/6
f 130/110/7 77/42/8 78/44/9
f 92/130/10 117/71/11 118/54/12
f 93/131/13 116/69/14 117/71/11
f 115/53/15 96/134/16 114/51/17
f 132/112/18 75/91/19 76/87/20
f 100/138/21 109/85/22 110/96/23
f 136/116/24 71/79/6 72/72/25
f 127/107/26 80/48/27 81/50/28
f 134/114/29 73/36/30 74/38/31
f 89/127/32 120/39/33 121/41/34
f 94/132/35 115/53/15 116/69/14
f 87/126/36 122/57/37 70/59/38
f 97/135/39 112/45/40 113/47/41
f 91/129/42 118/54/12 119/56/43
f 98/136/44 111/99/45 112/45/40
f 107/82/46 104/142/47 86/80/48
f 90/128/49 119/56/43 120/39/33
f 88/125/50 121/41/34 122/57/37
f 85/62/51 106/144/52 84/60/53
f 102/140/54 107/82/46 108/83/55
f 99/137/56 110/96/23 111/99/45
f 101/139/57 108/83/55 109/85/22
f 114/51/17 97/135/39 113/47/41
f 129/109/58 78/44/9 79/101/59
f 135/115/60 72/72/25 73/36/30
f 125/106/61 82/75/62 83/66/63
f 133/113/64 74/38/31 75/91/19
f 131/111/65 76/87/20 77/42/8
f 126/105/66 81/50/28 82/75/62
f 128/108/67 79/101/59 80/48/27
f 106/144/52 83/66/63 84/60/53
f 104/142/47 85/62/51 86/80/48
f 137/117/4 138/118/68 123/77/5
f 130/110/7 131/111/65 77/42/8
f 92/130/10 93/131/13 117/71/11
f 93/131/13 94/132/35 116/69/14
f 115/53/15 95/133/69 96/134/16
f 132/112/18 133/113/64 75/91/19
f 100/138/21 101/139/57 109/85/22
f 136/116/24 137/117/4 71/79/6
f 127/107/26 128/108/67 80/48/27
f 134/114/29 135/115/60 73/36/30
f 89/127/32 90/128/49 120/39/33
f 94/132/35 95/133/69 115/53/15
f 87/126/36 88/125/50 122/57/37
f 97/135/39 98/136/44 112/45/40
f 91/129/42 92/130/10 118/54/12
f 98/136/44 99/137/56 111/99/45
f 107/82/46 103/141/70 104/142/47
f 90/128/49 91/129/42 119/56/43
f 88/125/50 89/127/32 121/41/34
f 85/62/51 105/143/71 106/144/52
f 102/140/54 103/141/70 107/82/46
f 99/137/56 100/138/21 110/96/23
f 101/139/57 102/140/54 108/83/55
f 114/51/17 96/134/16 97/135/39
f 129/109/58 130/110/7 78/44/9
f 135/115/60 136/116/24 72/72/25
f 125/106/61 126/105/66 82/75/62
f 133/113/64 134/114/29 74/38/31
f 131/111/65 132/112/18 76/87/20
f 126/105/66 127/107/26 81/50/28
f 128/108/67 129/109/58 79/101/59
f 106/144/52 125/106/61 83/66/63
f 104/142/47 105/143/71 85/62/51
usemtl ColobotMesh_mat_1_convert.png
f 52/146/72 33/147/73 32/148/74
f 4/149/75 45/150/76 5/151/77
f 64/152/78 19/153/79 65/154/80
f 61/155/81 24/156/82 23/157/83
f 52/146/72 31/158/84 53/159/85
f 66/160/86 19/153/79 18/161/87
f 59/162/88 26/163/89 25/164/90
f 16/165/91 35/166/92 34/167/93
f 54/168/94 31/158/84 30/169/95
f 67/170/96 48/171/97 2/172/98
f 3/173/99 48/171/97 47/174/100
f 68/175/101 49/176/102 67/170/96
f 57/177/103 28/178/104 27/179/105
f 3/173/99 46/180/106 4/149/75
f 60/181/107 25/164/90 24/156/82
f 13/182/108 36/183/109 14/184/110
f 54/168/94 29/185/111 55/186/112
f 13/182/108 38/187/113 37/188/114
f 63/189/115 22/190/116 21/191/117
f 14/184/110 35/166/92 15/192/118
f 56/193/119 29/194/111 28/178/104
f 7/195/120 42/196/121 8/197/122
f 6/198/123 43/199/124 7/195/120
f 9/200/125 40/201/126 10/202/127
f 5/151/77 44/203/128 6/198/123
f 10/204/127 39/205/129 11/206/130
f 8/197/122 41/207/131 9/200/125
f 12/208/132 39/205/129 38/187/113
f 62/209/133 23/157/83 22/190/116
f 63/189/115 20/210/134 64/152/78
f 58/211/135 27/179/105 26/163/89
f 69/212/136 50/213/137 68/175/101
f 16/165/91 33/147/73 17/214/138
f 52/146/72 17/214/138 33/147/73
f 4/149/75 46/180/106 45/150/76
f 64/152/78 20/210/134 19/153/79
f 61/155/81 60/181/107 24/156/82
f 52/146/72 32/148/74 31/158/84
f 66/160/86 65/154/80 19/153/79
f 59/162/88 58/211/135 26/163/89
f 16/165/91 15/192/118 35/166/92
f 54/168/94 53/159/85 31/158/84
f 67/170/96 49/176/102 48/171/97
f 3/173/99 2/172/98 48/171/97
f 68/175/101 50/213/137 49/176/102
f 57/177/103 56/193/119 28/178/104
f 3/173/99 47/174/100 46/180/106
f 60/181/107 59/162/88 25/164/90
f 13/182/108 37/188/114 36/183/109
f 54/168/94 30/169/95 29/185/111
f 13/182/108 12/208/132 38/187/113
f 63/189/115 62/209/133 22/190/116
f 14/184/110 36/183/109 35/166/92
f 56/193/119 55/215/112 29/194/111
f 7/195/120 43/199/124 42/196/121
f 6/198/123 44/203/128 43/199/124
f 9/200/125 41/207/131 40/201/126
f 5/151/77 45/150/76 44/203/128
f 10/204/127 40/216/126 39/205/129
f 8/197/122 42/196/121 41/207/131
f 12/208/132 11/206/130 39/205/129
f 62/209/133 61/155/81 23/157/83
f 63/189/115 21/191/117 20/210/134
f 58/211/135 57/177/103 27/179/105
f 69/212/136 51/217/139 50/213/137
f 16/165/91 34/167/93 33/147/73
o ColobotMesh_1_ColobotMesh_
v -1.000000 0.494780 0.000000
v 1.000000 -3.505220 -0.000000
v -1.000000 0.494780 1.000000
v -1.000000 -3.505220 -0.000000
v 1.000000 0.494780 1.000000
v -1.000000 -3.505220 1.000000
v 1.000000 -3.505220 1.000000
v 1.000000 0.494780 0.000000
vt 0.5840 0.9863
vt 0.5762 0.9941
vt 0.5840 0.9941
vt 0.5762 0.9863
vt 0.5762 0.9863
vt 0.5840 0.9863
vt 0.5762 0.9941
vt 0.5762 0.9863
vt 0.5762 0.9941
vt 0.5840 0.9863
vt 0.5762 0.9863
vt 0.5840 0.9941
vt 0.5840 0.9941
vt 0.5840 0.9863
vn 0.0000 1.0000 0.0000
vn 0.0000 -0.0000 1.0000
vn 1.0000 0.0000 0.0000
vn 0.0000 0.0000 -1.0000
vn -1.0000 0.0000 0.0000
usemtl ColobotMesh_mat_1
s off
f 146/218/140 141/219/140 143/220/140
f 141/219/140 146/218/140 139/221/140
f 143/220/141 144/222/141 145/223/141
f 144/222/141 143/220/141 141/219/141
f 146/224/142 145/223/142 140/225/142
f 145/223/142 146/224/142 143/220/142
f 139/226/143 140/227/143 142/228/143
f 140/227/143 139/226/143 146/229/143
f 141/230/144 142/228/144 144/231/144
f 142/228/144 141/230/144 139/226/144
