# Blender v2.70 (sub 5) OBJ File: 'convert1.blend'
# www.blender.org
mtllib convert1.mtl
o Platform_new_Circle
v -0.004426 1.000000 -8.009626
v -1.565096 1.000000 -7.855370
v -3.065683 1.000000 -7.399605
v -4.448522 1.000000 -6.659849
v -5.660471 1.000000 -5.664527
v -6.654955 1.000000 -4.451891
v -7.393757 1.000000 -3.068542
v -7.848485 1.000000 -1.567640
v -8.001663 1.000000 -0.006865
v -7.847407 1.000000 1.553804
v -7.391643 1.000000 3.054391
v -6.651886 1.000000 4.437231
v -5.656565 1.000000 5.649180
v -4.443929 1.000000 6.643664
v -3.060578 1.000000 7.382467
v -1.559676 1.000000 7.837194
v 0.001101 1.000000 7.990372
v 1.561771 1.000000 7.836115
v 3.062358 1.000000 7.380350
v 4.445198 1.000000 6.640593
v 5.657146 1.000000 5.645270
v 6.651630 1.000000 4.432633
v 7.390431 1.000000 3.049283
v 7.845158 1.000000 1.548380
v 7.998335 1.000000 -0.012397
v 7.844077 1.000000 -1.573066
v 7.388311 1.000000 -3.073654
v 6.648552 1.000000 -4.456493
v 5.653229 1.000000 -5.668441
v 4.440592 1.000000 -6.662924
v 3.057240 1.000000 -7.401724
v 1.556337 1.000000 -7.856450
v -0.001665 1.000000 -0.009629
v -0.005117 -1.000000 -10.009625
v -1.955953 -1.000000 -9.816804
v -3.831688 -1.000000 -9.247099
v -5.560236 -1.000000 -8.322403
v -7.075172 -1.000000 -7.078252
v -8.318278 -1.000000 -5.562457
v -9.241779 -1.000000 -3.833270
v -9.810189 -1.000000 -1.957143
v -10.001663 -1.000000 -0.006174
v -9.808843 -1.000000 1.944662
v -9.239138 -1.000000 3.820396
v -8.314442 -1.000000 5.548946
v -7.070290 -1.000000 7.063882
v -5.554495 -1.000000 8.306989
v -3.825307 -1.000000 9.230492
v -1.949178 -1.000000 9.798901
v 0.001792 -1.000000 9.990373
v 1.952629 -1.000000 9.797552
v 3.828364 -1.000000 9.227845
v 5.556913 -1.000000 8.303148
v 7.071849 -1.000000 7.058995
v 8.314954 -1.000000 5.543199
v 9.238456 -1.000000 3.814011
v 9.806864 -1.000000 1.937882
v 9.998335 -1.000000 -0.013088
v 9.805512 -1.000000 -1.963926
v 9.235805 -1.000000 -3.839660
v 8.311107 -1.000000 -5.568209
v 7.066953 -1.000000 -7.083144
v 5.551156 -1.000000 -8.326247
v 3.821967 -1.000000 -9.249747
v 1.945838 -1.000000 -9.818154
vt 0.717671 0.999237
vt 0.655478 0.938263
vt 0.655478 0.999237
vt 0.593938 0.938264
vt 0.593938 0.999237
vt 0.841404 0.999236
vt 0.779864 0.938263
vt 0.779864 0.999237
vt 0.717671 0.938263
vt 0.841404 0.938263
vt 0.439475 0.680687
vt 0.452105 0.722333
vt 0.234375 0.765625
vt 0.234359 0.987617
vt 0.191051 0.983348
vt 0.049804 0.642279
vt 0.077414 0.608641
vt 0.277667 0.983355
vt 0.391359 0.608664
vt 0.418964 0.642306
vt 0.016651 0.722301
vt 0.029287 0.680657
vt 0.357694 0.950214
vt 0.319313 0.970725
vt 0.319343 0.560537
vt 0.357721 0.581054
vt 0.016645 0.808918
vt 0.012383 0.765609
vt 0.418946 0.888971
vt 0.391336 0.922609
vt 0.234391 0.543633
vt 0.277700 0.547901
vt 0.049786 0.888944
vt 0.029275 0.850563
vt 0.452099 0.808950
vt 0.439463 0.850593
vt 0.111029 0.950196
vt 0.077392 0.922585
vt 0.149437 0.560525
vt 0.191082 0.547895
vt 0.456367 0.765641
vt 0.149407 0.970713
vt 0.111056 0.581036
vn 0.449475 0.705398 -0.548074
vn 0.205991 0.705398 0.678219
vn -0.678361 0.705398 -0.205523
vn 0.625000 0.705398 -0.334348
vn -0.548074 0.705398 -0.449476
vn -0.069232 0.705398 0.705422
vn 0.705374 0.705398 -0.069720
vn -0.334347 0.705398 -0.625001
vn -0.333916 0.705398 0.625231
vn 0.678361 0.705398 0.205522
vn -0.069719 0.705398 -0.705374
vn -0.547763 0.705398 0.449854
vn 0.069232 0.705398 -0.705422
vn 0.548074 0.705398 0.449475
vn -0.678219 0.705398 0.205991
vn 0.333915 0.705398 -0.625232
vn 0.334347 0.705398 0.625000
vn -0.705422 0.705398 -0.069232
vn 0.547763 0.705398 -0.449855
vn 0.069719 0.705398 0.705374
vn -0.625231 0.705398 -0.333916
vn 0.678219 0.705398 -0.205992
vn -0.449854 0.705398 -0.547763
vn -0.205523 0.705398 0.678361
vn 0.705422 0.705398 0.069231
vn -0.205992 0.705398 -0.678219
vn -0.449476 0.705398 0.548073
vn 0.625231 0.705398 0.333915
vn -0.625001 0.705398 0.334347
vn 0.205522 0.705398 -0.678362
vn 0.449855 0.705398 0.547763
vn -0.705374 0.705398 0.069719
vn 0.205992 0.705398 0.678219
vn -0.334347 0.705398 -0.625000
vn -0.333915 0.705398 0.625231
vn -0.625231 0.705398 -0.333915
vn -0.449854 0.705398 -0.547764
vn -0.205991 0.705398 -0.678219
vn -0.625000 0.705398 0.334347
vn 0.000000 1.000000 -0.000000
usemtl None
s off
f 29/1/1 63/2/1 30/3/1
f 18/3/2 52/4/2 19/5/2
f 7/6/3 41/7/3 8/8/3
f 27/6/4 61/7/4 28/8/4
f 5/1/5 39/2/5 6/3/5
f 16/8/6 50/9/6 17/1/6
f 25/1/7 59/2/7 26/3/7
f 3/6/8 37/7/8 4/8/8
f 14/3/9 48/4/9 15/5/9
f 23/6/10 57/7/10 24/8/10
f 1/1/11 35/2/11 2/3/11
f 12/8/12 46/9/12 13/1/12
f 32/8/13 34/9/13 1/1/13
f 21/1/14 55/2/14 22/3/14
f 10/3/15 44/4/15 11/5/15
f 30/3/16 64/4/16 31/5/16
f 19/6/17 53/7/17 20/8/17
f 8/8/18 42/9/18 9/1/18
f 28/8/19 62/9/19 29/1/19
f 17/1/20 51/2/20 18/3/20
f 6/3/21 40/4/21 7/5/21
f 26/3/22 60/4/22 27/5/22
f 4/8/23 38/9/23 5/1/23
f 15/6/24 49/7/24 16/8/24
f 24/8/25 58/9/25 25/1/25
f 2/3/26 36/4/26 3/5/26
f 13/1/27 47/2/27 14/3/27
f 22/3/28 56/4/28 23/5/28
f 11/6/29 45/7/29 12/8/29
f 31/6/30 65/7/30 32/8/30
f 20/8/31 54/9/31 21/1/31
f 9/1/32 43/2/32 10/3/32
f 62/9/1 63/2/1 29/1/1
f 51/2/33 52/4/33 18/3/33
f 40/10/3 41/7/3 7/6/3
f 60/10/4 61/7/4 27/6/4
f 38/9/5 39/2/5 5/1/5
f 49/7/6 50/9/6 16/8/6
f 58/9/7 59/2/7 25/1/7
f 36/10/34 37/7/34 3/6/34
f 47/2/35 48/4/35 14/3/35
f 56/10/10 57/7/10 23/6/10
f 34/9/11 35/2/11 1/1/11
f 45/7/12 46/9/12 12/8/12
f 65/7/13 34/9/13 32/8/13
f 54/9/14 55/2/14 21/1/14
f 43/2/15 44/4/15 10/3/15
f 63/2/16 64/4/16 30/3/16
f 52/10/17 53/7/17 19/6/17
f 41/7/18 42/9/18 8/8/18
f 61/7/19 62/9/19 28/8/19
f 50/9/20 51/2/20 17/1/20
f 39/2/36 40/4/36 6/3/36
f 59/2/22 60/4/22 26/3/22
f 37/7/37 38/9/37 4/8/37
f 48/10/24 49/7/24 15/6/24
f 57/7/25 58/9/25 24/8/25
f 35/2/38 36/4/38 2/3/38
f 46/9/27 47/2/27 13/1/27
f 55/2/28 56/4/28 22/3/28
f 44/10/39 45/7/39 11/6/39
f 64/10/30 65/7/30 31/6/30
f 53/7/31 54/9/31 20/8/31
f 42/9/32 43/2/32 9/1/32
usemtl None_convert.png
f 23/11/40 24/12/40 33/13/40
f 1/14/40 2/15/40 33/13/40
f 12/16/40 13/17/40 33/13/40
f 32/18/40 1/14/40 33/13/40
f 21/19/40 22/20/40 33/13/40
f 10/21/40 11/22/40 33/13/40
f 30/23/40 31/24/40 33/13/40
f 19/25/40 20/26/40 33/13/40
f 8/27/40 9/28/40 33/13/40
f 28/29/40 29/30/40 33/13/40
f 17/31/40 18/32/40 33/13/40
f 6/33/40 7/34/40 33/13/40
f 26/35/40 27/36/40 33/13/40
f 4/37/40 5/38/40 33/13/40
f 15/39/40 16/40/40 33/13/40
f 24/12/40 25/41/40 33/13/40
f 2/15/40 3/42/40 33/13/40
f 13/17/40 14/43/40 33/13/40
f 22/20/40 23/11/40 33/13/40
f 11/22/40 12/16/40 33/13/40
f 31/24/40 32/18/40 33/13/40
f 20/26/40 21/19/40 33/13/40
f 9/28/40 10/21/40 33/13/40
f 29/30/40 30/23/40 33/13/40
f 18/32/40 19/25/40 33/13/40
f 7/34/40 8/27/40 33/13/40
f 27/36/40 28/29/40 33/13/40
f 5/38/40 6/33/40 33/13/40
f 16/40/40 17/31/40 33/13/40
f 25/41/40 26/35/40 33/13/40
f 3/42/40 4/37/40 33/13/40
f 14/43/40 15/39/40 33/13/40
o Case_ColobotMesh_
v -6.000000 6.000000 8.000000
v -6.000000 6.000000 -8.000000
v -14.000000 6.000000 -8.000000
v -6.000000 -1.000000 -8.000000
v -14.000000 -1.000000 -8.000000
v -6.000000 -1.000000 8.000000
v 1.959750 14.000000 -1.999999
v -12.000000 6.000000 6.000000
v -8.000000 6.000000 6.000000
v -8.000000 6.000000 -6.000000
v -8.000000 14.000000 2.000001
v -12.040200 16.000000 -1.999999
v 1.959750 16.000000 -1.999999
v -12.040200 14.000000 2.000001
v 1.959750 14.000000 2.000001
v -12.040200 16.000000 2.000001
v -14.000000 -1.000000 8.000000
v -14.000000 6.000000 8.000000
v -12.040200 14.000000 -1.999999
v 1.959750 16.000000 2.000001
v -8.000000 14.000000 -1.999999
v -12.000000 14.000000 2.000001
v -12.000000 6.000000 -6.000000
v -12.000000 14.000000 -1.999999
vt 0.470703 0.751953
vt 0.718099 0.998047
vt 0.594401 0.998047
vt 0.748047 0.529297
vt 0.748047 0.314453
vt 0.501953 0.314453
vt 0.501953 0.529297
vt 0.498047 0.529297
vt 0.498047 0.314453
vt 0.001953 0.314453
vt 0.001953 0.529297
vt 0.845703 0.998047
vt 0.966797 0.751953
vt 0.845703 0.751953
vt 0.966797 0.998047
vt 0.841797 0.751953
vt 0.583984 0.994141
vt 0.583984 0.986328
vt 0.576172 0.986328
vt 0.576172 0.994141
vn -1.000000 0.000000 0.000000
vn 0.000000 0.000000 -1.000000
vn 1.000000 0.000000 0.000000
vn -0.000000 0.000000 1.000000
vn -0.000000 0.447214 0.894427
vn 0.000000 0.447214 -0.894427
vn 0.000000 1.000000 0.000000
vn 0.000000 -1.000000 0.000000
usemtl ColobotMesh_mat_1
s off
f 88/44/41 87/45/41 89/46/41
f 67/47/42 69/48/42 70/49/42
f 70/49/42 68/50/42 67/47/42
f 66/51/43 71/52/43 69/53/43
f 69/53/43 67/54/43 66/51/43
f 83/50/44 82/49/44 71/48/44
f 71/48/44 66/47/44 83/50/44
f 68/50/41 70/49/41 82/48/41
f 82/48/41 83/47/41 68/50/41
f 76/55/45 73/56/45 74/57/45
f 73/56/45 76/55/45 87/58/45
f 86/45/43 74/44/43 75/59/43
f 74/44/43 86/45/43 76/46/43
f 89/55/46 75/56/46 88/57/46
f 75/56/46 89/55/46 86/58/46
f 87/45/41 88/44/41 73/59/41
usemtl ColobotMesh_mat_3
f 66/60/47 67/61/47 68/62/47
f 68/62/47 83/63/47 66/60/47
f 72/61/48 79/63/48 84/62/48
f 79/63/48 72/61/48 80/60/48
f 78/61/47 81/63/47 85/60/47
f 81/63/47 78/61/47 77/62/47
f 85/60/44 79/62/44 80/61/44
f 79/62/44 85/60/44 81/63/44
f 78/63/43 80/61/43 72/62/43
f 80/61/43 78/63/43 85/60/43
f 77/63/42 72/61/42 84/62/42
f 72/61/42 77/63/42 78/60/42
f 81/60/41 84/62/41 79/61/41
f 84/62/41 81/60/41 77/63/41
