# Blender v2.77 (sub 0) OBJ File: 'courge1.blend'
# www.blender.org
mtllib courge1.mtl
o ColobotMesh_1_ColobotMesh_
v 3.427860 4.505320 -0.924812
v -1.245816 11.807367 -2.336985
v 2.267820 5.678340 2.542180
v 1.498583 12.876942 0.104673
v 1.037254 14.145956 -0.774473
v -1.387960 5.000000 2.907980
v 0.564439 -1.992680 1.470230
v -1.490510 -1.992680 1.065790
v -0.996869 1.437022 -2.568017
v -3.041260 4.226040 -0.976433
v -1.728517 8.545807 2.173949
v 0.478249 5.375884 3.222324
v -1.609579 1.498922 2.256312
v 0.489026 5.000000 -3.099430
v -1.927910 -1.992680 -1.094920
v -1.149244 13.812012 -1.014943
v 0.226822 9.047055 2.399222
v 1.674263 1.854859 2.370268
v 0.171639 15.000000 -0.394102
v 1.726550 9.399433 2.128105
v -0.451588 12.591576 1.247800
v 2.930498 1.230421 -0.529156
v -0.827348 -2.089270 -1.945171
v -0.070322 11.952900 -2.688210
v 0.564439 -1.992680 -2.122300
v -0.538192 -2.071153 1.518433
v 0.762735 12.911800 1.069471
v -0.531556 1.469914 2.656618
v 1.834470 -1.992680 -0.014562
v 1.711260 12.505400 -1.111989
v 0.561602 1.480074 -2.832304
v -1.605070 11.952900 0.841480
v -2.872852 7.883492 -1.341731
v -2.119930 11.444100 -1.480890
v 0.067046 13.983167 -1.698095
v 2.293866 4.742712 -2.385901
v 0.506911 14.286413 0.402077
v -1.898973 8.276456 -2.510935
v 3.006832 8.578897 -1.149906
v -2.510769 8.397492 0.892862
v 1.392839 -2.076487 0.868482
v -0.803139 13.974945 0.319848
v 1.543118 8.924357 -2.530877
v -2.780874 4.617710 1.183222
v -2.638900 1.107961 -1.089654
v -2.149882 11.809064 -0.276846
v 0.994411 12.361148 -2.134438
v 2.544501 1.810156 1.618472
v 2.388595 1.189307 -1.866871
v 2.803645 8.963853 0.430965
v 3.329532 5.112527 0.962080
v 1.455649 -2.106901 -1.276454
v -2.003673 -2.067543 -0.001153
v -2.710930 1.055453 0.126710
v -1.639546 4.600547 -2.499312
v 0.217991 8.562084 -3.225815
vt 0.5073 0.6986
vt 0.5382 0.6986
vt 0.4849 0.6113
vt 0.4540 0.6113
vt 0.5605 0.7859
vt 0.4886 0.7782
vt 0.5270 0.6986
vt 0.4167 0.7705
vt 0.4147 0.6909
vt 0.4551 0.6909
vt 0.4883 0.7726
vt 0.4350 0.6853
vt 0.5574 0.7705
vt 0.5590 0.6909
vt 0.5063 0.6909
vt 0.4125 0.8496
vt 0.4844 0.8573
vt 0.4548 0.9396
vt 0.4082 0.9287
vt 0.5013 0.9505
vt 0.5309 0.8682
vt 0.5605 0.6113
vt 0.5079 0.6113
vt 0.4552 0.6113
vt 0.4127 0.6113
vt 0.4531 0.6113
vt 0.4935 0.6113
vt 0.4160 0.7592
vt 0.5605 0.7705
vt 0.4931 0.7617
vt 0.5286 0.6909
vt 0.4257 0.7529
vt 0.4237 0.6821
vt 0.4612 0.6821
vt 0.4082 0.7529
vt 0.4828 0.7617
vt 0.4317 0.6821
vt 0.4326 0.7705
vt 0.4966 0.7648
vt 0.4342 0.6909
vt 0.5605 0.7592
vt 0.5259 0.6853
vt 0.4982 0.6853
vt 0.4082 0.9413
vt 0.4537 0.9459
vt 0.4121 0.8502
vt 0.4991 0.9505
vt 0.5298 0.8682
vt 0.4576 0.8549
vt 0.4888 0.9287
vt 0.4485 0.9229
vt 0.5247 0.8496
vt 0.4082 0.9171
vt 0.4170 0.8350
vt 0.4844 0.8438
vt 0.4471 0.9171
vt 0.4904 0.9229
vt 0.4277 0.8350
vt 0.5337 0.9287
vt 0.5455 0.8496
vt 0.4710 0.8408
vt 0.4082 0.9287
vt 0.4470 0.9350
vt 0.4204 0.8496
vt 0.4858 0.9413
vt 0.5232 0.8502
vt 0.4592 0.8559
vt 0.4381 0.9980
vt 0.4686 0.9743
vt 0.4232 0.9697
vt 0.4781 0.9980
vt 0.4431 0.9634
vt 0.4897 0.9743
vt 0.4459 0.9980
vt 0.4271 0.9576
vt 0.4674 0.9634
vt 0.5440 0.9980
vt 0.5388 0.9634
vt 0.4955 0.9576
vt 0.4187 0.9980
vt 0.4523 0.9697
vt 0.4135 0.9634
vt 0.5159 0.6113
vt 0.4966 0.6113
vt 0.4591 0.6113
vt 0.4216 0.6113
vt 0.4358 0.6113
vt 0.4635 0.6113
vt 0.4912 0.6113
vn 0.8209 -0.2283 0.5234
vn 0.4249 -0.2237 0.8771
vn 0.7180 -0.3419 0.6063
vn 0.9343 -0.3453 0.0881
vn 0.6163 0.0726 0.7842
vn 0.0949 0.0480 0.9943
vn -0.4924 0.0184 0.8702
vn -0.6290 -0.1993 0.7514
vn -0.1005 -0.2273 0.9686
vn 0.9517 0.0212 0.3062
vn 0.9658 -0.2497 -0.0702
vn 0.0726 -0.0327 -0.9968
vn 0.1427 -0.1386 -0.9800
vn -0.4111 -0.1292 -0.9024
vn -0.5728 0.2160 0.7907
vn -0.0246 0.2571 0.9661
vn -0.2310 0.3619 0.9031
vn -0.7003 0.3197 0.6383
vn 0.4213 0.4023 0.8128
vn 0.5331 0.2839 0.7969
vn 0.2651 -0.2521 -0.9307
vn -0.3848 -0.1863 -0.9040
vn -0.8527 -0.2049 -0.4804
vn -0.7044 -0.2627 0.6594
vn -0.1894 -0.3128 0.9308
vn 0.2999 -0.3223 0.8979
vn 0.9614 -0.0305 -0.2733
vn -0.9180 -0.0012 0.3964
vn -0.9543 -0.0386 -0.2962
vn -0.8873 -0.1589 -0.4330
vn -0.9625 -0.1741 0.2077
vn -0.5194 -0.0564 -0.8527
vn 0.6010 -0.0129 -0.7991
vn 0.7258 -0.2098 -0.6551
vn 0.8920 0.3415 -0.2962
vn 0.8684 0.3748 0.3246
vn 0.9248 0.1881 -0.3306
vn 0.9307 0.2468 0.2698
vn -0.9459 0.2971 0.1305
vn -0.8909 0.2459 -0.3818
vn -0.9544 0.0964 -0.2823
vn -0.9301 0.1493 0.3357
vn -0.5275 0.2889 -0.7989
vn 0.0129 0.2842 -0.9586
vn 0.0687 0.0656 -0.9955
vn -0.5833 0.0656 -0.8096
vn 0.5696 0.3190 -0.7574
vn 0.5735 0.1375 -0.8076
vn 0.0450 0.9986 0.0278
vn 0.3590 0.6508 0.6690
vn 0.7612 0.6103 -0.2192
vn -0.5763 0.6230 0.5289
vn -0.7242 0.6185 -0.3048
vn 0.0258 0.6430 -0.7654
vn -0.9561 -0.2265 0.1855
vn 0.7957 -0.3340 -0.5052
usemtl ColobotMesh_mat_1
s 1
f 48/1/1 18/2/2 41/3/3
f 48/1/1 41/3/3 29/4/4
f 3/5/5 12/6/6 18/7/2
f 6/8/7 13/9/8 28/10/9
f 51/11/10 3/5/5 48/1/1
f 22/12/11 51/11/10 48/1/1
f 22/12/11 48/1/1 29/4/4
f 14/13/12 31/14/13 9/15/14
f 11/16/15 6/8/7 12/6/6
f 17/17/16 11/16/15 12/6/6
f 17/17/16 12/6/6 3/5/5
f 21/18/17 32/19/18 17/17/16
f 27/20/19 21/18/17 20/21/20
f 32/19/18 11/16/15 17/17/16
f 20/21/20 21/18/17 17/17/16
f 20/21/20 17/17/16 3/5/5
f 31/14/13 25/22/21 23/23/22
f 9/15/14 31/14/13 23/23/22
f 9/15/14 23/23/22 15/24/23
f 13/9/8 8/25/24 26/26/25
f 28/10/9 13/9/8 26/26/25
f 28/10/9 26/26/25 7/27/26
f 12/6/6 6/8/7 28/10/9
f 18/7/2 12/6/6 28/10/9
f 18/7/2 28/10/9 7/27/26
f 1/28/27 51/11/10 22/12/11
f 3/5/5 18/2/2 48/1/1
f 6/29/7 44/30/28 13/31/8
f 10/32/29 45/33/30 54/34/31
f 10/35/29 55/36/32 45/37/30
f 14/38/12 36/39/33 31/40/13
f 1/41/27 22/42/11 49/43/34
f 30/44/35 4/45/36 39/46/37
f 27/47/19 20/48/20 50/49/38
f 32/50/18 46/51/39 11/52/15
f 34/53/40 33/54/41 40/55/42
f 34/56/40 2/57/43 33/58/41
f 24/59/44 56/60/45 38/61/46
f 24/62/44 47/63/47 56/64/45
f 30/65/35 39/66/37 43/67/48
f 19/68/49 37/69/50 5/70/51
f 19/71/49 42/72/52 37/73/50
f 19/74/49 16/75/53 42/76/52
f 19/77/49 35/78/54 16/79/53
f 19/80/49 5/81/51 35/82/54
f 18/2/2 7/83/26 41/3/3
f 13/31/8 54/34/31 8/84/24
f 13/31/8 44/30/28 54/34/31
f 44/30/28 10/32/29 54/34/31
f 54/34/31 53/85/55 8/84/24
f 54/34/31 45/33/30 53/85/55
f 45/33/30 15/86/23 53/85/55
f 45/37/30 9/15/14 15/24/23
f 45/37/30 55/36/32 9/15/14
f 55/36/32 14/13/12 9/15/14
f 31/40/13 49/43/34 25/87/21
f 31/40/13 36/39/33 49/43/34
f 36/39/33 1/41/27 49/43/34
f 49/43/34 52/88/56 25/87/21
f 49/43/34 22/42/11 52/88/56
f 22/42/11 29/89/4 52/88/56
f 39/46/37 50/49/38 1/28/27
f 39/46/37 4/45/36 50/49/38
f 4/45/36 27/47/19 50/49/38
f 50/49/38 51/11/10 1/28/27
f 50/49/38 20/48/20 51/11/10
f 20/48/20 3/5/5 51/11/10
f 11/52/15 40/55/42 6/29/7
f 11/52/15 46/51/39 40/55/42
f 46/51/39 34/53/40 40/55/42
f 40/55/42 44/30/28 6/29/7
f 40/55/42 33/54/41 44/30/28
f 33/54/41 10/32/29 44/30/28
f 33/58/41 38/61/46 10/35/29
f 33/58/41 2/57/43 38/61/46
f 2/57/43 24/59/44 38/61/46
f 38/61/46 55/36/32 10/35/29
f 38/61/46 56/60/45 55/36/32
f 56/60/45 14/13/12 55/36/32
f 56/64/45 43/67/48 14/38/12
f 56/64/45 47/63/47 43/67/48
f 47/63/47 30/65/35 43/67/48
f 43/67/48 36/39/33 14/38/12
f 43/67/48 39/66/37 36/39/33
f 39/66/37 1/41/27 36/39/33
f 5/70/51 4/45/36 30/44/35
f 5/70/51 37/69/50 4/45/36
f 37/69/50 27/47/19 4/45/36
f 37/73/50 21/18/17 27/20/19
f 37/73/50 42/72/52 21/18/17
f 42/72/52 32/19/18 21/18/17
f 42/76/52 46/51/39 32/50/18
f 42/76/52 16/75/53 46/51/39
f 16/75/53 34/53/40 46/51/39
f 16/79/53 2/57/43 34/56/40
f 16/79/53 35/78/54 2/57/43
f 35/78/54 24/59/44 2/57/43
f 35/82/54 47/63/47 24/62/44
f 35/82/54 5/81/51 47/63/47
f 5/81/51 30/65/35 47/63/47
