# Blender v2.77 (sub 0) OBJ File: 'courge2.blend'
# www.blender.org
mtllib courge2.mtl
o ColobotMesh_1_ColobotMesh_
v 2.181050 3.611840 -3.111890
v 3.491210 3.117160 0.887243
v 0.650033 4.290180 3.187990
v 1.834470 -1.992680 -0.014562
v 0.383060 13.996378 -1.529981
v -0.754608 11.828489 -2.532819
v -2.629760 3.611840 1.532250
v 0.564439 -1.992680 1.093910
v 1.506244 13.738476 -0.377209
v -2.321546 7.819769 1.223223
v -1.937050 2.837870 -2.632150
v -1.490510 -1.992680 0.689470
v -1.143630 -1.992680 -1.528560
v -1.618947 -2.083266 -0.410629
v 3.390920 3.279384 -1.305363
v 0.454179 7.629522 2.526045
v -2.238525 0.285207 -0.977410
v 2.393699 3.668672 2.417959
v 0.171639 15.000000 -0.394102
v -0.950583 13.821573 -1.235667
v 2.416923 7.063558 1.614688
v -1.579999 0.419011 -2.129418
v 0.526377 11.952900 -2.536659
v 1.655942 1.044986 2.086028
v -1.302050 0.713770 1.752029
v 0.190921 10.948800 1.297601
v 2.800737 0.547585 0.487491
v 3.634435 7.284230 0.329517
v -2.286298 7.219467 -2.659105
v 2.587990 11.325200 -0.497669
v 0.564439 -1.992680 -2.122300
v -1.156940 11.952900 0.368149
v 1.702558 11.314075 0.624988
v -1.791420 11.444100 -2.001559
v 0.191837 13.550797 0.568931
v -3.012070 7.669307 -0.295020
v -0.596126 -2.077460 1.122046
v 1.373099 -2.067709 0.659972
v -0.525625 13.924298 0.062556
v 1.604137 7.869878 -3.382389
v -2.196560 0.798150 1.189876
v -0.337805 -2.047812 -2.050396
v -1.772958 11.827176 -0.843853
v -1.213881 3.936259 2.806561
v 0.635576 1.165609 2.416826
v 1.452743 0.801138 -2.717240
v 2.569843 0.419133 -0.888164
v 0.456429 0.698455 -2.873086
v 1.863770 11.825105 -1.701684
v -0.561139 11.522125 0.997635
v 3.065056 7.610854 -2.087793
v 1.468158 -2.101435 -1.264424
v -0.458224 8.250464 2.399466
v -2.876070 3.153659 -0.641360
v -0.855583 7.555619 -3.392110
v 0.078493 3.143245 -3.452921
vt 0.5605 0.7276
vt 0.4954 0.7410
vt 0.5225 0.6695
vt 0.4347 0.6751
vt 0.4611 0.6113
vt 0.5088 0.6113
vt 0.4824 0.6751
vt 0.5566 0.6113
vt 0.4844 0.7466
vt 0.4082 0.7389
vt 0.4082 0.7213
vt 0.4284 0.6663
vt 0.4690 0.6663
vt 0.5586 0.6828
vt 0.4282 0.6828
vt 0.4262 0.6113
vt 0.4554 0.6113
vt 0.4573 0.6828
vt 0.5191 0.9144
vt 0.4641 0.9101
vt 0.5398 0.8210
vt 0.4091 0.9058
vt 0.4196 0.8301
vt 0.4848 0.8167
vt 0.4845 0.6113
vt 0.4302 0.7543
vt 0.4486 0.6113
vt 0.4891 0.6113
vt 0.5297 0.6113
vt 0.5605 0.7543
vt 0.5605 0.7389
vt 0.4844 0.7301
vt 0.5451 0.6751
vt 0.4082 0.6796
vt 0.4844 0.6455
vt 0.4229 0.7581
vt 0.5605 0.6113
vt 0.5306 0.6817
vt 0.4991 0.7240
vt 0.4082 0.7389
vt 0.4844 0.7332
vt 0.4271 0.6751
vt 0.5434 0.6695
vt 0.5032 0.6695
vt 0.5392 0.9058
vt 0.5079 0.9173
vt 0.5499 0.8301
vt 0.4766 0.9287
vt 0.4424 0.8338
vt 0.5186 0.8415
vt 0.5180 0.9287
vt 0.4746 0.9229
vt 0.5393 0.8338
vt 0.4313 0.9171
vt 0.4197 0.8192
vt 0.4959 0.8280
vt 0.4136 0.7693
vt 0.4565 0.7312
vt 0.4109 0.7245
vt 0.4993 0.6932
vt 0.5299 0.6523
vt 0.4538 0.6864
vt 0.4301 0.9287
vt 0.4690 0.9216
vt 0.4192 0.8338
vt 0.5078 0.9144
vt 0.5342 0.8210
vt 0.4580 0.8266
vt 0.4082 0.9980
vt 0.4086 0.9519
vt 0.4636 0.9562
vt 0.5383 0.9980
vt 0.5075 0.9634
vt 0.5388 0.9519
vt 0.4901 0.9980
vt 0.4607 0.9576
vt 0.5040 0.9634
vt 0.4862 0.9980
vt 0.4928 0.8456
vt 0.4499 0.8837
vt 0.5117 0.9980
vt 0.5098 0.9562
vt 0.4709 0.9634
vt 0.4376 0.8366
vt 0.4691 0.7944
vt 0.5007 0.7521
vt 0.4459 0.6113
vt 0.4860 0.6113
vt 0.5262 0.6113
vn 0.9359 -0.1495 0.3189
vn 0.6195 -0.0464 0.7836
vn 0.9032 -0.3432 0.2578
vn -0.8260 -0.2540 0.5031
vn -0.7900 -0.2827 0.5440
vn -0.1869 -0.2480 0.9506
vn -0.3972 -0.2913 0.8703
vn 0.1945 -0.3293 0.9239
vn -0.4352 -0.0616 0.8982
vn -0.8637 -0.0808 0.4975
vn -0.6681 -0.1519 -0.7284
vn -0.6041 -0.2817 -0.7454
vn -0.9354 -0.2634 -0.2358
vn 0.0280 -0.3237 0.9457
vn 0.6407 -0.3495 0.6836
vn 0.4937 -0.3346 0.8026
vn 0.9309 0.3516 0.0985
vn 0.5603 0.3002 0.7719
vn 0.9482 0.1556 0.2769
vn 0.1137 0.3058 0.9452
vn 0.2519 0.2718 0.9288
vn 0.6000 0.2096 0.7721
vn 0.9274 -0.3468 0.1400
vn 0.1220 0.0052 0.9925
vn -0.7126 -0.2299 -0.6628
vn -0.9582 -0.2588 -0.1223
vn -0.9840 -0.1160 -0.1347
vn -0.0901 -0.1382 -0.9863
vn 0.5468 -0.1285 -0.8273
vn 0.5007 -0.2972 -0.8130
vn -0.0397 -0.2676 -0.9627
vn 0.9312 -0.1634 -0.3258
vn 0.8856 -0.3285 -0.3283
vn -0.3888 0.3100 0.8676
vn -0.7372 0.3267 0.5914
vn -0.7627 0.2230 0.6071
vn -0.2348 0.3050 0.9229
vn -0.9281 0.3421 0.1468
vn -0.8010 0.3064 -0.5143
vn -0.7594 0.0593 -0.6479
vn -0.9879 0.1455 0.0527
vn -0.2879 0.3344 -0.8974
vn 0.2323 0.3503 -0.9073
vn 0.3589 0.1419 -0.9225
vn -0.2529 0.0904 -0.9633
vn 0.7149 0.3695 -0.5936
vn 0.8568 0.1345 -0.4977
vn 0.0113 0.9914 0.1303
vn 0.0548 0.4277 0.9022
vn 0.7880 0.5942 0.1609
vn -0.6452 0.4997 0.5779
vn -0.7000 0.6203 -0.3539
vn 0.2247 0.6338 -0.7401
vn -0.3497 -0.1486 -0.9250
vn 0.3117 -0.2430 -0.9185
vn 0.8031 -0.2522 -0.5398
usemtl ColobotMesh_mat_1
s 1
f 2/1/1 18/2/2 27/3/3
f 41/4/4 12/5/5 37/6/6
f 25/7/7 41/4/4 37/6/6
f 25/7/7 37/6/6 8/8/8
f 44/9/9 7/10/10 25/7/7
f 11/11/11 22/12/12 17/13/13
f 45/14/14 44/9/9 25/7/7
f 45/14/14 25/7/7 8/8/8
f 45/15/14 8/16/8 38/17/15
f 24/18/16 45/15/14 38/17/15
f 30/19/17 33/20/18 28/21/19
f 26/22/20 16/23/21 21/24/22
f 24/18/16 38/17/15 4/25/23
f 16/23/21 3/26/24 18/2/2
f 21/24/22 16/23/21 18/2/2
f 21/24/22 18/2/2 2/1/1
f 33/20/18 26/22/20 21/24/22
f 28/21/19 33/20/18 21/24/22
f 28/21/19 21/24/22 2/1/1
f 22/12/12 13/27/25 14/28/26
f 17/13/13 22/12/12 14/28/26
f 17/13/13 14/28/26 12/29/5
f 18/2/2 3/26/24 24/18/16
f 27/3/3 18/2/2 24/18/16
f 27/3/3 24/18/16 4/25/23
f 3/26/24 45/15/14 24/18/16
f 3/30/24 44/9/9 45/14/14
f 7/10/10 41/4/4 25/7/7
f 7/31/10 54/32/27 41/33/4
f 11/34/11 56/35/28 22/36/12
f 1/37/29 46/38/30 48/39/31
f 1/40/29 15/41/32 46/42/30
f 2/1/1 27/43/3 47/44/33
f 26/45/20 50/46/34 16/47/21
f 32/48/35 10/49/36 53/50/37
f 32/51/35 43/52/38 10/53/36
f 34/54/39 29/55/40 36/56/41
f 34/57/39 6/58/42 29/59/40
f 23/60/43 40/61/44 55/62/45
f 23/63/43 49/64/46 40/65/44
f 30/66/17 28/67/19 51/68/47
f 19/69/48 35/70/49 9/71/50
f 19/72/48 39/73/51 35/74/49
f 19/75/48 20/76/52 39/77/51
f 19/78/48 5/79/53 20/80/52
f 19/81/48 9/82/50 5/83/53
f 41/33/4 17/13/13 12/29/5
f 41/33/4 54/32/27 17/13/13
f 54/32/27 11/11/11 17/13/13
f 22/36/12 48/39/31 13/84/25
f 22/36/12 56/35/28 48/39/31
f 56/35/28 1/37/29 48/39/31
f 48/39/31 42/85/54 13/84/25
f 48/39/31 46/38/30 42/85/54
f 46/38/30 31/86/55 42/85/54
f 46/42/30 47/44/33 31/87/55
f 46/42/30 15/41/32 47/44/33
f 15/41/32 2/1/1 47/44/33
f 47/44/33 52/88/56 31/87/55
f 47/44/33 27/43/3 52/88/56
f 27/43/3 4/89/23 52/88/56
f 16/47/21 53/50/37 3/30/24
f 16/47/21 50/46/34 53/50/37
f 50/46/34 32/48/35 53/50/37
f 53/50/37 44/9/9 3/30/24
f 53/50/37 10/49/36 44/9/9
f 10/49/36 7/10/10 44/9/9
f 10/53/36 36/56/41 7/31/10
f 10/53/36 43/52/38 36/56/41
f 43/52/38 34/54/39 36/56/41
f 36/56/41 54/32/27 7/31/10
f 36/56/41 29/55/40 54/32/27
f 29/55/40 11/11/11 54/32/27
f 29/59/40 55/62/45 11/34/11
f 29/59/40 6/58/42 55/62/45
f 6/58/42 23/60/43 55/62/45
f 55/62/45 56/35/28 11/34/11
f 55/62/45 40/61/44 56/35/28
f 40/61/44 1/37/29 56/35/28
f 40/65/44 51/68/47 1/40/29
f 40/65/44 49/64/46 51/68/47
f 49/64/46 30/66/17 51/68/47
f 51/68/47 15/41/32 1/40/29
f 51/68/47 28/67/19 15/41/32
f 28/67/19 2/1/1 15/41/32
f 9/71/50 33/20/18 30/19/17
f 9/71/50 35/70/49 33/20/18
f 35/70/49 26/22/20 33/20/18
f 35/74/49 50/46/34 26/45/20
f 35/74/49 39/73/51 50/46/34
f 39/73/51 32/48/35 50/46/34
f 39/77/51 43/52/38 32/51/35
f 39/77/51 20/76/52 43/52/38
f 20/76/52 34/54/39 43/52/38
f 20/80/52 6/58/42 34/57/39
f 20/80/52 5/79/53 6/58/42
f 5/79/53 23/60/43 6/58/42
f 5/83/53 49/64/46 23/63/43
f 5/83/53 9/82/50 49/64/46
f 9/82/50 30/66/17 49/64/46
