# Blender v2.70 (sub 5) OBJ File: ''
# www.blender.org
mtllib cross1.mtl
o ColobotMesh_1_ColobotMesh_
v -0.495050 0.500820 0.495050
v 1.485150 0.500820 -0.495049
v -0.495050 0.500820 -0.495049
v -0.495050 -0.489279 -0.495049
v -1.485150 -0.489279 -0.495049
v -1.485150 0.500820 -0.495049
v -0.495050 0.500820 -1.485150
v -0.495050 -0.489279 -1.485150
v 0.495050 0.500820 -1.485150
v 0.495050 -0.489279 -1.485150
v 0.495050 0.500820 -0.495049
v 0.495050 -0.489279 -0.495049
v 0.495050 0.500820 1.485150
v 0.495050 -0.489279 1.485150
v 0.495050 -0.489279 0.495050
v 0.495050 0.500820 0.495050
v -0.495050 0.500820 1.485150
v -0.495050 -0.489279 1.485150
v 1.485150 -0.489279 0.495050
v 1.485150 0.500820 0.495050
v 1.485150 -0.489279 -0.495049
v -0.495050 -0.489279 0.495050
v -1.485150 0.500820 0.495050
v -1.485150 -0.489279 0.495050
vn 0.000000 0.000000 -1.000000
vn 1.000000 -0.000000 0.000000
vn -1.000000 -0.000000 0.000000
vn 0.000000 -0.000000 1.000000
vn 0.000000 -1.000000 -0.000000
vn 0.000000 1.000000 0.000000
usemtl ColobotMesh_mat_1
s off
f 3//1 4//1 5//1
f 6//1 3//1 5//1
f 13//2 14//2 15//2
f 16//2 13//2 15//2
f 7//3 8//3 4//3
f 3//3 7//3 4//3
f 9//1 10//1 8//1
f 7//1 9//1 8//1
f 11//2 12//2 10//2
f 9//2 11//2 10//2
f 2//1 21//1 12//1
f 11//1 2//1 12//1
f 20//2 19//2 21//2
f 2//2 20//2 21//2
f 16//4 15//4 19//4
f 20//4 16//4 19//4
f 17//4 18//4 14//4
f 13//4 17//4 14//4
f 1//3 22//3 18//3
f 17//3 1//3 18//3
f 23//4 24//4 22//4
f 1//4 23//4 22//4
f 6//3 5//3 24//3
f 23//3 6//3 24//3
f 24//5 5//5 22//5
f 5//5 4//5 22//5
f 18//5 22//5 14//5
f 14//5 22//5 15//5
f 22//5 4//5 15//5
f 19//5 15//5 21//5
f 21//5 15//5 12//5
f 15//5 4//5 12//5
f 12//5 4//5 10//5
f 10//5 4//5 8//5
f 6//6 23//6 1//6
f 3//6 6//6 1//6
f 1//6 17//6 13//6
f 1//6 13//6 16//6
f 3//6 1//6 16//6
f 16//6 20//6 2//6
f 16//6 2//6 11//6
f 3//6 16//6 11//6
f 3//6 11//6 9//6
f 3//6 9//6 7//6
