# Blender v2.70 (sub 5) OBJ File: 'cross3.blend'
# www.blender.org
mtllib cross3.mtl
o Circle
v -0.000000 0.497050 -0.000000
v 0.069564 0.497050 -1.498386
v -0.073182 0.497050 -1.498214
v -0.215265 0.497050 -1.484473
v -0.355398 0.497050 -1.457289
v -0.492313 0.497050 -1.416908
v -0.624770 0.497050 -1.363695
v -0.751568 0.497050 -1.298132
v -0.871560 0.497050 -1.220813
v -0.983659 0.497050 -1.132438
v -1.086850 0.497050 -1.033807
v -1.180198 0.497050 -0.925814
v -1.262858 0.497050 -0.809437
v -1.334082 0.497050 -0.685730
v -1.393224 0.497050 -0.555812
v -1.439749 0.497050 -0.420861
v -1.473235 0.497050 -0.282098
v -1.493379 0.497050 -0.140781
v -1.499999 0.497050 0.001811
v -1.493035 0.497050 0.144387
v -1.472549 0.497050 0.285655
v -1.438728 0.497050 0.424336
v -1.391878 0.497050 0.559175
v -1.332422 0.497050 0.688949
v -1.260900 0.497050 0.812484
v -1.177959 0.497050 0.928662
v -1.084350 0.497050 1.036429
v -0.980921 0.497050 1.134810
v -0.868609 0.497050 1.222914
v -0.748431 0.497050 1.299943
v -0.621474 0.497050 1.365199
v -0.488889 0.497050 1.418092
v -0.351877 0.497050 1.458143
v -0.211679 0.497050 1.484989
v -0.069563 0.497050 1.498386
v 0.073183 0.497050 1.498213
v 0.215266 0.497050 1.484473
v 0.355399 0.497050 1.457289
v 0.492314 0.497050 1.416907
v 0.624770 0.497050 1.363694
v 0.751569 0.497050 1.298131
v 0.871561 0.497050 1.220811
v 0.983660 0.497050 1.132436
v 1.086851 0.497050 1.033806
v 1.180199 0.497050 0.925813
v 1.262859 0.497050 0.809436
v 1.334082 0.497050 0.685728
v 1.393224 0.497050 0.555811
v 1.439748 0.497050 0.420860
v 1.473234 0.497050 0.282098
v 1.493379 0.497050 0.140781
v 1.499998 0.497050 -0.001811
v 1.493034 0.497050 -0.144386
v 1.472549 0.497050 -0.285654
v 1.438728 0.497050 -0.424335
v 1.391878 0.497050 -0.559173
v 1.332423 0.497050 -0.688948
v 1.260901 0.497050 -0.812483
v 1.177960 0.497050 -0.928660
v 1.084352 0.497050 -1.036427
v 0.980923 0.497050 -1.134808
v 0.868612 0.497050 -1.222912
v 0.748434 0.497050 -1.299941
v 0.621478 0.497050 -1.365198
v 0.488894 0.497050 -1.418091
v 0.351882 0.497050 -1.458142
v 0.211684 0.497050 -1.484988
v 0.000001 -0.502950 0.001811
v 0.069565 -0.502950 -1.496575
v -0.073180 -0.502950 -1.496403
v -0.215263 -0.502950 -1.482662
v -0.355397 -0.502950 -1.455478
v -0.492312 -0.502950 -1.415097
v -0.624768 -0.502950 -1.361884
v -0.751566 -0.502950 -1.296321
v -0.871558 -0.502950 -1.219002
v -0.983657 -0.502950 -1.130627
v -1.086848 -0.502950 -1.031996
v -1.180197 -0.502950 -0.924003
v -1.262857 -0.502950 -0.807626
v -1.334080 -0.502950 -0.683919
v -1.393222 -0.502950 -0.554001
v -1.439747 -0.502950 -0.419050
v -1.473233 -0.502950 -0.280287
v -1.493377 -0.502950 -0.138970
v -1.499997 -0.502950 0.003622
v -1.493033 -0.502950 0.146198
v -1.472548 -0.502950 0.287466
v -1.438727 -0.502950 0.426147
v -1.391876 -0.502950 0.560986
v -1.332421 -0.502950 0.690760
v -1.260898 -0.502950 0.814295
v -1.177957 -0.502950 0.930472
v -1.084349 -0.502950 1.038240
v -0.980920 -0.502950 1.136621
v -0.868607 -0.502950 1.224725
v -0.748429 -0.502950 1.301754
v -0.621472 -0.502950 1.367010
v -0.488888 -0.502950 1.419903
v -0.351876 -0.502950 1.459954
v -0.211677 -0.502950 1.486800
v -0.069561 -0.502950 1.500197
v 0.073184 -0.502950 1.500024
v 0.215267 -0.502950 1.486284
v 0.355401 -0.502950 1.459100
v 0.492316 -0.502950 1.418718
v 0.624772 -0.502950 1.365505
v 0.751570 -0.502950 1.299942
v 0.871563 -0.502950 1.222622
v 0.983662 -0.502950 1.134247
v 1.086852 -0.502950 1.035617
v 1.180201 -0.502950 0.927623
v 1.262860 -0.502950 0.811247
v 1.334084 -0.502950 0.687539
v 1.393225 -0.502950 0.557622
v 1.439750 -0.502950 0.422671
v 1.473236 -0.502950 0.283909
v 1.493380 -0.502950 0.142592
v 1.500000 -0.502950 -0.000000
v 1.493036 -0.502950 -0.142575
v 1.472551 -0.502950 -0.283843
v 1.438730 -0.502950 -0.422524
v 1.391879 -0.502950 -0.557362
v 1.332424 -0.502950 -0.687137
v 1.260903 -0.502950 -0.810672
v 1.177962 -0.502950 -0.926849
v 1.084353 -0.502950 -1.034616
v 0.980925 -0.502950 -1.132997
v 0.868613 -0.502950 -1.221101
v 0.748435 -0.502950 -1.298130
v 0.621479 -0.502950 -1.363387
v 0.488895 -0.502950 -1.416280
v 0.351884 -0.502950 -1.456331
v 0.211685 -0.502950 -1.483177
vt 0.625000 0.624023
vt 0.673366 0.589652
vt 0.676414 0.594405
vt 0.669880 0.585210
vt 0.665987 0.581119
vt 0.661723 0.577418
vt 0.657126 0.574138
vt 0.652239 0.571310
vt 0.647105 0.568959
vt 0.641771 0.567107
vt 0.636285 0.565771
vt 0.630696 0.564962
vt 0.625056 0.564688
vt 0.619416 0.564951
vt 0.613826 0.565750
vt 0.608337 0.567076
vt 0.603000 0.568917
vt 0.597861 0.571258
vt 0.592968 0.574077
vt 0.588366 0.577348
vt 0.584095 0.581041
vt 0.580194 0.585124
vt 0.576700 0.589559
vt 0.573642 0.594307
vt 0.571050 0.599323
vt 0.568946 0.604563
vt 0.567351 0.609980
vt 0.566277 0.615523
vt 0.565735 0.621144
vt 0.565729 0.626790
vt 0.566261 0.632412
vt 0.567324 0.637957
vt 0.568910 0.643377
vt 0.571003 0.648621
vt 0.573586 0.653642
vt 0.576634 0.658395
vt 0.580120 0.662837
vt 0.584013 0.666927
vt 0.588277 0.670629
vt 0.592873 0.673909
vt 0.597761 0.676737
vt 0.602895 0.679087
vt 0.608229 0.680939
vt 0.613715 0.682276
vt 0.619303 0.683085
vt 0.624943 0.683359
vt 0.630584 0.683095
vt 0.636174 0.682297
vt 0.641663 0.680971
vt 0.647000 0.679129
vt 0.652139 0.676789
vt 0.657032 0.673970
vt 0.661634 0.670699
vt 0.665905 0.667005
vt 0.669806 0.662923
vt 0.673300 0.658487
vt 0.676358 0.653740
vt 0.678950 0.648724
vt 0.681054 0.643484
vt 0.682649 0.638067
vt 0.683723 0.632524
vt 0.684265 0.626903
vt 0.684271 0.621256
vt 0.683739 0.615635
vt 0.682676 0.610089
vt 0.681090 0.604670
vt 0.678997 0.599426
vt 0.574675 0.665407
vt 0.574675 0.664332
vt 0.583445 0.664315
vt 0.583445 0.650536
vt 0.583445 0.651914
vt 0.574675 0.651896
vt 0.583445 0.658025
vt 0.583445 0.659368
vt 0.574675 0.659369
vt 0.574675 0.662995
vt 0.574675 0.661719
vt 0.583445 0.661721
vt 0.574675 0.646587
vt 0.574675 0.645597
vt 0.583445 0.645580
vt 0.574675 0.660697
vt 0.574675 0.659385
vt 0.583445 0.656188
vt 0.583445 0.657617
vt 0.574675 0.657599
vt 0.583445 0.663164
vt 0.574675 0.664317
vt 0.574675 0.653305
vt 0.583445 0.651898
vt 0.574675 0.656170
vt 0.583445 0.656173
vt 0.583445 0.648795
vt 0.583445 0.650010
vt 0.574675 0.650012
vt 0.583445 0.661737
vt 0.583445 0.663013
vt 0.574675 0.655313
vt 0.574675 0.653952
vt 0.583445 0.653935
vt 0.574675 0.647909
vt 0.574675 0.646702
vt 0.583445 0.646704
vt 0.583445 0.646720
vt 0.583445 0.647927
vt 0.583445 0.655296
vt 0.574675 0.655298
vt 0.574675 0.666370
vt 0.574675 0.665331
vt 0.583445 0.665334
vt 0.574675 0.650028
vt 0.574675 0.648812
vt 0.574675 0.663182
vt 0.583445 0.653323
vt 0.583445 0.660680
vt 0.574675 0.660681
vt 0.574675 0.660386
vt 0.583445 0.660389
vt 0.583445 0.646570
vt 0.574675 0.646571
vt 0.574675 0.658042
vt 0.583445 0.659027
vt 0.574675 0.659009
vt 0.574675 0.650518
vt 0.583445 0.650521
vt 0.583445 0.665390
vt 0.574675 0.665391
vt 0.574675 0.654734
vt 0.583445 0.654737
vt 0.583445 0.651280
vt 0.574675 0.651282
vt 0.583445 0.664221
vt 0.574675 0.664202
vt 0.574675 0.652609
vt 0.583445 0.652592
vt 0.583445 0.649203
vt 0.574675 0.649185
vt 0.574675 0.645573
vt 0.583445 0.645576
vt 0.583445 0.656664
vt 0.574675 0.656665
vt 0.574675 0.664203
vt 0.583445 0.664205
vt 0.574675 0.647662
vt 0.583445 0.647645
vt 0.574675 0.661966
vt 0.583445 0.661949
vt 0.583445 0.654752
vt 0.574675 0.661951
vt 0.583445 0.659011
vt 0.574675 0.647646
vt 0.574675 0.656681
vt 0.583445 0.660404
vt 0.583445 0.649188
vt 0.583445 0.666388
vt 0.574675 0.666388
vt 0.574675 0.652594
vt 0.583445 0.665349
vt 0.583445 0.653308
vt 0.574675 0.651297
vt 0.574675 0.658026
vt 0.583445 0.662997
vt 0.574675 0.663166
vt 0.583445 0.657602
vt 0.574675 0.648797
vt 0.583445 0.647912
vt 0.583445 0.645591
vt 0.574675 0.653936
vt 0.583445 0.666373
vt 0.574675 0.645582
vn 0.000000 -1.000000 -0.000000
vn 0.000000 1.000000 0.000000
vn 0.690952 0.001310 0.722900
vn -0.910133 -0.000752 -0.414315
vn -0.096258 -0.001803 -0.995355
vn -0.539625 0.001524 0.841904
vn 0.813874 -0.001051 -0.581040
vn 0.910132 0.000752 0.414317
vn -0.998924 -0.000086 -0.046376
vn -0.459299 -0.001609 -0.888280
vn 0.096258 0.001803 0.995355
vn -0.188067 0.001778 0.982154
vn 0.539624 -0.001524 -0.841905
vn -0.944605 0.000593 0.328209
vn 0.998924 0.000086 0.046376
vn 0.459299 0.001609 0.888280
vn -0.756540 -0.001185 -0.653946
vn 0.188065 -0.001778 -0.982155
vn -0.754958 0.001186 0.655772
vn 0.944605 -0.000593 -0.328209
vn 0.756540 0.001185 0.653947
vn -0.945395 -0.000592 -0.325927
vn -0.190439 -0.001778 -0.981697
vn -0.457154 0.001610 0.889386
vn 0.754958 -0.001186 -0.655773
vn 0.945395 0.000592 0.325927
vn -0.998809 0.000087 0.048788
vn 0.190435 0.001778 0.981698
vn -0.541658 -0.001523 -0.840598
vn -0.093855 0.001803 0.995584
vn 0.457152 -0.001610 -0.889387
vn -0.909130 0.000753 0.416512
vn 0.998809 -0.000087 -0.048787
vn -0.815276 -0.001050 -0.579071
vn 0.541655 0.001523 0.840600
vn 0.093853 -0.001803 -0.995584
vn -0.689206 0.001311 0.724564
vn 0.909129 -0.000753 -0.416513
vn 0.815275 0.001050 0.579073
vn -0.972095 -0.000426 -0.234585
vn -0.282891 -0.001737 -0.959150
vn -0.370544 0.001681 0.928814
vn 0.689204 -0.001311 -0.724567
vn 0.972096 0.000426 0.234585
vn -0.989649 0.000258 0.143509
vn 0.282890 0.001737 0.959151
vn -0.619107 -0.001423 -0.785305
vn 0.370540 -0.001681 -0.928815
vn -0.865422 0.000906 0.501044
vn 0.001207 0.001811 0.999998
vn 0.989649 -0.000258 -0.143511
vn 0.619107 0.001423 0.785305
vn -0.866628 -0.000905 -0.498954
vn -0.001208 -0.001811 -0.999998
vn -0.617211 0.001424 0.786797
vn 0.865420 -0.000906 -0.501046
vn -0.989993 -0.000257 -0.141119
vn 0.866628 0.000905 0.498954
vn -0.372783 -0.001681 -0.927917
vn -0.280575 0.001738 0.959831
vn 0.617209 -0.001424 -0.786798
vn -0.971526 0.000428 0.236931
vn 0.989993 0.000257 0.141119
vn 0.372781 0.001681 0.927918
vn -0.690952 -0.001310 -0.722899
vn 0.280573 -0.001738 -0.959831
vn -0.813875 0.001051 0.581039
vn 0.971526 -0.000428 -0.236932
vn 0.096259 0.001803 0.995355
vn 0.539623 -0.001524 -0.841905
vn 0.998924 0.000085 0.046376
vn -0.756541 -0.001185 -0.653946
vn 0.188066 -0.001778 -0.982155
vn 0.756540 0.001185 0.653946
vn -0.190437 -0.001778 -0.981698
vn -0.541656 -0.001523 -0.840599
vn -0.093854 0.001803 0.995584
vn -0.815276 -0.001050 -0.579072
vn 0.541656 0.001523 0.840599
vn 0.093852 -0.001803 -0.995585
vn -0.282890 -0.001737 -0.959151
vn -0.370544 0.001681 0.928813
vn 0.001206 0.001811 0.999998
vn 0.619107 0.001423 0.785306
vn -0.866628 -0.000905 -0.498953
vn -0.001207 -0.001811 -0.999998
vn -0.617211 0.001424 0.786796
vn -0.372784 -0.001681 -0.927916
vn 0.617208 -0.001424 -0.786799
vn -0.971526 0.000427 0.236931
vn -0.690952 -0.001310 -0.722900
vn 0.280572 -0.001738 -0.959831
usemtl None
s off
f 1/1/1 3/2/1 2/3/1
f 1/1/1 4/4/1 3/2/1
f 1/1/1 5/5/1 4/4/1
f 1/1/1 6/6/1 5/5/1
f 1/1/1 7/7/1 6/6/1
f 1/1/1 8/8/1 7/7/1
f 1/1/1 9/9/1 8/8/1
f 1/1/1 10/10/1 9/9/1
f 1/1/1 11/11/1 10/10/1
f 1/1/1 12/12/1 11/11/1
f 1/1/1 13/13/1 12/12/1
f 1/1/1 14/14/1 13/13/1
f 1/1/1 15/15/1 14/14/1
f 1/1/1 16/16/1 15/15/1
f 1/1/1 17/17/1 16/16/1
f 1/1/1 18/18/1 17/17/1
f 1/1/1 19/19/1 18/18/1
f 1/1/1 20/20/1 19/19/1
f 1/1/1 21/21/1 20/20/1
f 1/1/1 22/22/1 21/21/1
f 1/1/1 23/23/1 22/22/1
f 1/1/1 24/24/1 23/23/1
f 1/1/1 25/25/1 24/24/1
f 1/1/1 26/26/1 25/25/1
f 1/1/1 27/27/1 26/26/1
f 1/1/1 28/28/1 27/27/1
f 1/1/1 29/29/1 28/28/1
f 1/1/1 30/30/1 29/29/1
f 1/1/1 31/31/1 30/30/1
f 1/1/1 32/32/1 31/31/1
f 1/1/1 33/33/1 32/32/1
f 1/1/1 34/34/1 33/33/1
f 1/1/1 35/35/1 34/34/1
f 1/1/1 36/36/1 35/35/1
f 1/1/1 37/37/1 36/36/1
f 1/1/1 38/38/1 37/37/1
f 1/1/1 39/39/1 38/38/1
f 1/1/1 40/40/1 39/39/1
f 1/1/1 41/41/1 40/40/1
f 1/1/1 42/42/1 41/41/1
f 1/1/1 43/43/1 42/42/1
f 1/1/1 44/44/1 43/43/1
f 1/1/1 45/45/1 44/44/1
f 1/1/1 46/46/1 45/45/1
f 1/1/1 47/47/1 46/46/1
f 1/1/1 48/48/1 47/47/1
f 1/1/1 49/49/1 48/48/1
f 1/1/1 50/50/1 49/49/1
f 1/1/1 51/51/1 50/50/1
f 1/1/1 52/52/1 51/51/1
f 1/1/1 53/53/1 52/52/1
f 1/1/1 54/54/1 53/53/1
f 1/1/1 55/55/1 54/54/1
f 1/1/1 56/56/1 55/55/1
f 1/1/1 57/57/1 56/56/1
f 1/1/1 58/58/1 57/57/1
f 1/1/1 59/59/1 58/58/1
f 1/1/1 60/60/1 59/59/1
f 1/1/1 61/61/1 60/60/1
f 1/1/1 62/62/1 61/61/1
f 1/1/1 63/63/1 62/62/1
f 1/1/1 64/64/1 63/63/1
f 1/1/1 65/65/1 64/64/1
f 1/1/1 66/66/1 65/65/1
f 1/1/1 67/67/1 66/66/1
f 1/1/1 2/3/1 67/67/1
f 68/1/2 69/46/2 70/45/2
f 68/1/2 70/45/2 71/44/2
f 68/1/2 71/44/2 72/43/2
f 68/1/2 72/43/2 73/42/2
f 68/1/2 73/42/2 74/41/2
f 68/1/2 74/41/2 75/40/2
f 68/1/2 75/40/2 76/39/2
f 68/1/2 76/39/2 77/38/2
f 68/1/2 77/38/2 78/37/2
f 68/1/2 78/37/2 79/36/2
f 68/1/2 79/36/2 80/35/2
f 68/1/2 80/35/2 81/34/2
f 68/1/2 81/34/2 82/33/2
f 68/1/2 82/33/2 83/32/2
f 68/1/2 83/32/2 84/31/2
f 68/1/2 84/31/2 85/30/2
f 68/1/2 85/30/2 86/29/2
f 68/1/2 86/29/2 87/28/2
f 68/1/2 87/28/2 88/27/2
f 68/1/2 88/27/2 89/26/2
f 68/1/2 89/26/2 90/25/2
f 68/1/2 90/25/2 91/24/2
f 68/1/2 91/24/2 92/23/2
f 68/1/2 92/23/2 93/22/2
f 68/1/2 93/22/2 94/21/2
f 68/1/2 94/21/2 95/20/2
f 68/1/2 95/20/2 96/19/2
f 68/1/2 96/19/2 97/18/2
f 68/1/2 97/18/2 98/17/2
f 68/1/2 98/17/2 99/16/2
f 68/1/2 99/16/2 100/15/2
f 68/1/2 100/15/2 101/14/2
f 68/1/2 101/14/2 102/13/2
f 68/1/2 102/13/2 103/12/2
f 68/1/2 103/12/2 104/11/2
f 68/1/2 104/11/2 105/10/2
f 68/1/2 105/10/2 106/9/2
f 68/1/2 106/9/2 107/8/2
f 68/1/2 107/8/2 108/7/2
f 68/1/2 108/7/2 109/6/2
f 68/1/2 109/6/2 110/5/2
f 68/1/2 110/5/2 111/4/2
f 68/1/2 111/4/2 112/2/2
f 68/1/2 112/2/2 113/3/2
f 68/1/2 113/3/2 114/67/2
f 68/1/2 114/67/2 115/66/2
f 68/1/2 115/66/2 116/65/2
f 68/1/2 116/65/2 117/64/2
f 68/1/2 117/64/2 118/63/2
f 68/1/2 118/63/2 119/62/2
f 68/1/2 119/62/2 120/61/2
f 68/1/2 120/61/2 121/60/2
f 68/1/2 121/60/2 122/59/2
f 68/1/2 122/59/2 123/58/2
f 68/1/2 123/58/2 124/57/2
f 68/1/2 124/57/2 125/56/2
f 68/1/2 125/56/2 126/55/2
f 68/1/2 126/55/2 127/54/2
f 68/1/2 127/54/2 128/53/2
f 68/1/2 128/53/2 129/52/2
f 68/1/2 129/52/2 130/51/2
f 68/1/2 130/51/2 131/50/2
f 68/1/2 131/50/2 132/49/2
f 68/1/2 132/49/2 133/48/2
f 68/1/2 133/48/2 134/47/2
f 68/1/2 134/47/2 69/46/2
f 10/68/3 11/69/3 78/70/3
f 47/71/4 48/72/4 115/73/4
f 36/74/5 37/75/5 104/76/5
f 62/77/6 63/78/6 130/79/6
f 25/80/7 26/81/7 93/82/7
f 14/83/8 15/84/8 82/75/8
f 51/85/9 52/86/9 119/87/9
f 40/88/10 41/70/10 108/89/10
f 3/90/11 4/73/11 71/91/11
f 66/87/12 67/92/12 134/93/12
f 29/94/13 30/95/13 97/96/13
f 55/97/14 56/98/14 123/77/14
f 18/99/15 19/100/15 86/101/15
f 7/102/16 8/103/16 75/104/16
f 44/105/17 45/106/17 112/102/17
f 33/101/18 34/107/18 101/108/18
f 59/109/19 60/110/19 127/111/19
f 22/112/20 23/113/20 90/94/20
f 11/69/21 12/114/21 79/88/21
f 48/72/22 49/115/22 116/90/22
f 37/75/23 38/116/23 105/117/23
f 63/78/24 64/118/24 131/119/24
f 26/82/25 27/120/25 94/121/25
f 15/84/26 16/122/26 83/74/26
f 52/86/27 53/123/27 120/124/27
f 4/73/28 5/125/28 72/126/28
f 41/70/29 42/127/29 109/128/29
f 67/92/30 2/129/30 69/130/30
f 30/95/31 31/131/31 98/132/31
f 56/98/32 57/133/32 124/134/32
f 19/100/33 20/135/33 87/136/33
f 45/106/34 46/137/34 113/138/34
f 8/103/35 9/139/35 76/140/35
f 34/107/36 35/141/36 102/142/36
f 60/110/37 61/143/37 128/144/37
f 23/113/38 24/145/38 91/146/38
f 12/114/39 13/147/39 80/148/39
f 49/115/40 50/149/40 117/129/40
f 38/116/41 39/148/41 106/150/41
f 64/118/42 65/124/42 132/151/42
f 27/120/43 28/146/43 95/152/43
f 16/122/44 17/153/44 84/141/44
f 53/123/45 54/154/45 121/118/45
f 5/125/46 6/138/46 73/155/46
f 42/127/47 43/156/47 110/157/47
f 31/131/48 32/136/48 99/158/48
f 57/133/49 58/159/49 125/110/49
f 2/129/50 3/90/50 70/160/50
f 20/135/51 21/161/51 88/131/51
f 9/157/52 10/68/52 77/127/52
f 46/137/53 47/71/53 114/125/53
f 35/141/54 36/74/54 103/162/54
f 61/143/55 62/77/55 129/163/55
f 24/145/56 25/80/56 92/120/56
f 50/149/57 51/85/57 118/92/57
f 13/147/58 14/83/58 81/116/58
f 39/148/59 40/88/59 107/164/59
f 65/124/60 66/87/60 133/165/60
f 28/146/61 29/94/61 96/166/61
f 54/154/62 55/97/62 122/78/62
f 17/153/63 18/99/63 85/107/63
f 6/138/64 7/102/64 74/167/64
f 43/168/65 44/105/65 111/103/65
f 32/136/66 33/101/66 100/169/66
f 58/159/67 59/156/67 126/109/67
f 21/161/68 22/112/68 89/95/68
f 77/127/3 10/68/3 78/70/3
f 114/125/4 47/71/4 115/73/4
f 103/162/5 36/74/5 104/76/5
f 129/163/6 62/77/6 130/79/6
f 92/120/7 25/80/7 93/82/7
f 81/116/8 14/83/8 82/75/8
f 118/92/9 51/85/9 119/87/9
f 107/164/10 40/88/10 108/89/10
f 70/160/69 3/90/69 71/91/69
f 133/165/12 66/87/12 134/93/12
f 96/166/70 29/94/70 97/96/70
f 122/78/14 55/97/14 123/77/14
f 85/107/71 18/99/71 86/101/71
f 74/167/16 7/102/16 75/104/16
f 111/103/72 44/105/72 112/102/72
f 100/169/73 33/101/73 101/108/73
f 126/170/19 59/109/19 127/111/19
f 89/95/20 22/112/20 90/94/20
f 78/70/74 11/69/74 79/88/74
f 115/73/22 48/72/22 116/90/22
f 104/76/75 37/75/75 105/117/75
f 130/79/24 63/78/24 131/119/24
f 93/171/25 26/82/25 94/121/25
f 82/75/26 15/84/26 83/74/26
f 119/87/27 52/86/27 120/124/27
f 71/91/28 4/73/28 72/126/28
f 108/89/76 41/70/76 109/128/76
f 134/93/77 67/92/77 69/130/77
f 97/96/31 30/95/31 98/132/31
f 123/77/32 56/98/32 124/134/32
f 86/101/33 19/100/33 87/136/33
f 112/102/78 45/106/78 113/138/78
f 75/104/79 8/103/79 76/140/79
f 101/108/80 34/107/80 102/142/80
f 127/111/37 60/110/37 128/144/37
f 90/94/38 23/113/38 91/146/38
f 79/88/39 12/114/39 80/148/39
f 116/90/40 49/115/40 117/129/40
f 105/117/81 38/116/81 106/150/81
f 131/119/82 64/118/82 132/151/82
f 94/121/43 27/120/43 95/152/43
f 83/74/44 16/122/44 84/141/44
f 120/124/45 53/123/45 121/118/45
f 72/126/46 5/125/46 73/155/46
f 109/128/47 42/127/47 110/157/47
f 98/132/48 31/131/48 99/158/48
f 124/134/49 57/133/49 125/110/49
f 69/130/83 2/129/83 70/160/83
f 87/136/51 20/135/51 88/131/51
f 76/156/84 9/157/84 77/127/84
f 113/138/85 46/137/85 114/125/85
f 102/142/86 35/141/86 103/162/86
f 128/144/87 61/143/87 129/163/87
f 91/146/56 24/145/56 92/120/56
f 117/129/57 50/149/57 118/92/57
f 80/148/58 13/147/58 81/116/58
f 106/150/88 39/148/88 107/164/88
f 132/151/60 65/124/60 133/165/60
f 95/152/89 28/146/89 96/166/89
f 121/118/90 54/154/90 122/78/90
f 84/141/63 17/153/63 85/107/63
f 73/155/64 6/138/64 74/167/64
f 110/139/91 43/168/91 111/103/91
f 99/158/92 32/136/92 100/169/92
f 125/110/67 58/159/67 126/109/67
f 88/131/68 21/161/68 89/95/68
