# Blender v2.71 (sub 0) OBJ File: 'derrick2.blend'
# www.blender.org
mtllib derrick2.mtl
o ColobotMesh_1_ColobotMesh_.002
v 0.767657 10.117600 0.566675
v -0.809331 10.098700 -0.000001
v 0.759297 29.706499 0.000001
v 0.529577 29.706499 0.554594
v 0.759297 10.098700 0.000000
v 0.529577 10.098700 0.554593
v -0.025017 29.706499 0.784314
v -0.025017 10.098700 0.784313
v -0.579610 29.706499 0.554594
v -0.579610 10.098700 0.554593
v -0.809331 29.706499 0.000000
v -0.025017 29.706499 0.000001
v -0.579610 29.706499 -0.554593
v 0.529577 10.098700 -0.554594
v -0.025017 10.098700 -0.784314
v -0.025017 29.706499 -0.784313
v 0.529577 29.706499 -0.554593
v -1.634000 10.117600 -1.178230
v -0.315289 10.117600 -0.923873
v -0.015969 6.117580 -0.002663
v -0.984587 10.117600 -0.002664
v -1.634000 10.117600 1.172910
v -0.015970 10.117600 -0.002664
v -0.315289 10.117600 0.918546
v 0.602064 10.117600 1.899450
v 1.984030 10.117600 -0.002664
v 0.767657 10.117600 -0.572002
v 0.602064 10.117600 -1.904780
v -0.522580 10.098701 -0.606283
v -0.101893 29.706499 -0.780536
v -0.178029 29.706499 -0.769242
v -0.252691 29.706499 -0.750540
v -0.325161 29.706499 -0.724610
v -0.394740 29.706499 -0.691702
v -0.460758 29.706499 -0.652132
v -0.522580 29.706499 -0.606282
v -0.460758 10.098701 -0.652134
v -0.631300 29.706499 -0.497562
v -0.677150 29.706499 -0.435740
v -0.716720 29.706499 -0.369722
v -0.749628 29.706499 -0.300143
v -0.775558 29.706499 -0.227673
v -0.794260 29.706499 -0.153011
v -0.805554 29.706499 -0.076875
v -0.394740 10.098701 -0.691704
v -0.805554 29.706499 0.076877
v -0.794260 29.706499 0.153013
v -0.775558 29.706499 0.227676
v -0.749628 29.706499 0.300145
v -0.716720 29.706499 0.369724
v -0.677150 29.706499 0.435743
v -0.631299 29.706499 0.497565
v -0.325161 10.098701 -0.724612
v -0.522580 29.706499 0.606284
v -0.460758 29.706499 0.652134
v -0.394739 29.706499 0.691704
v -0.325160 29.706499 0.724613
v -0.252691 29.706499 0.750543
v -0.178028 29.706499 0.769245
v -0.101892 29.706499 0.780538
v -0.252691 10.098701 -0.750542
v 0.051860 29.706499 0.780538
v 0.127996 29.706499 0.769244
v 0.202658 29.706499 0.750542
v 0.275128 29.706499 0.724612
v 0.344707 29.706499 0.691704
v 0.410725 29.706499 0.652134
v 0.472547 29.706499 0.606283
v -0.178029 10.098701 -0.769244
v 0.581266 29.706499 0.497564
v 0.627116 29.706499 0.435742
v 0.666686 29.706499 0.369724
v 0.699595 29.706499 0.300145
v 0.725524 29.706499 0.227675
v 0.744226 29.706499 0.153013
v 0.755520 29.706499 0.076878
v -0.101893 10.098701 -0.780538
v 0.755520 29.706499 -0.076875
v 0.744227 29.706499 -0.153010
v 0.725525 29.706499 -0.227672
v 0.699595 29.706499 -0.300142
v 0.666687 29.706499 -0.369721
v 0.627117 29.706499 -0.435739
v 0.581267 29.706499 -0.497561
v 0.472548 29.706499 -0.606280
v 0.410726 29.706499 -0.652131
v 0.344708 29.706499 -0.691701
v 0.275129 29.706499 -0.724609
v 0.202660 29.706499 -0.750540
v 0.127998 29.706499 -0.769242
v 0.051862 29.706499 -0.780536
v -0.579611 10.098701 -0.554594
v -0.631300 10.098701 -0.497564
v -0.677150 10.098701 -0.435742
v -0.716720 10.098701 -0.369723
v -0.749629 10.098701 -0.300144
v -0.775559 10.098701 -0.227675
v -0.794261 10.098701 -0.153012
v -0.805554 10.098701 -0.076876
v -0.805554 10.098701 0.076876
v -0.794261 10.098701 0.153012
v -0.775559 10.098701 0.227675
v -0.749628 10.098701 0.300144
v -0.716720 10.098701 0.369723
v -0.677150 10.098701 0.435742
v -0.631300 10.098701 0.497564
v -0.522580 10.098701 0.606283
v -0.460758 10.098701 0.652134
v -0.394739 10.098701 0.691704
v -0.325160 10.098701 0.724612
v -0.252691 10.098701 0.750542
v -0.178028 10.098701 0.769244
v -0.101892 10.098701 0.780538
v 0.051860 10.098701 0.780537
v 0.127996 10.098701 0.769244
v 0.202659 10.098701 0.750542
v 0.275128 10.098701 0.724612
v 0.344707 10.098701 0.691703
v 0.410726 10.098701 0.652133
v 0.472548 10.098701 0.606283
v 0.581267 10.098701 0.497563
v 0.627117 10.098701 0.435741
v 0.666687 10.098701 0.369723
v 0.699596 10.098701 0.300144
v 0.725525 10.098701 0.227674
v 0.744227 10.098701 0.153012
v 0.755521 10.098701 0.076876
v 0.755521 10.098701 -0.076876
v 0.744227 10.098701 -0.153012
v 0.725526 10.098701 -0.227674
v 0.699596 10.098701 -0.300143
v 0.666687 10.098701 -0.369722
v 0.627118 10.098701 -0.435741
v 0.581267 10.098701 -0.497563
v 0.472548 10.098701 -0.606282
v 0.410727 10.098701 -0.652133
v 0.344708 10.098701 -0.691703
v 0.275130 10.098701 -0.724611
v 0.202660 10.098701 -0.750541
v 0.127998 10.098701 -0.769244
v 0.051862 10.098701 -0.780537
vt 0.054838 0.523282
vt 0.052580 0.523282
vt 0.044400 0.523282
vt 0.061290 0.523282
vt 0.047563 0.523282
vt 0.043471 0.523282
vt 0.033891 0.523282
vt 0.047563 0.502748
vt 0.039114 0.523282
vt 0.046875 0.522487
vt 0.055325 0.522487
vt 0.049456 0.523282
vt 0.051656 0.523282
vt 0.040942 0.523282
vt 0.033962 0.523282
vt 0.056013 0.523282
vt 0.054185 0.523282
vt 0.061235 0.523282
vt 0.117704 0.379404
vt 0.116567 0.379404
vt 0.117663 0.870624
vt 0.116529 0.870624
vt 0.115362 0.379404
vt 0.115328 0.870624
vt 0.114099 0.379404
vt 0.114069 0.870624
vt 0.112790 0.379404
vt 0.112765 0.870624
vt 0.111449 0.379404
vt 0.111428 0.870624
vt 0.110089 0.379404
vt 0.110072 0.870624
vt 0.108721 0.379404
vt 0.108709 0.870624
vt 0.107361 0.379404
vt 0.107353 0.870624
vt 0.106020 0.379404
vt 0.106017 0.870624
vt 0.104712 0.379404
vt 0.104713 0.870624
vt 0.103448 0.379404
vt 0.103454 0.870624
vt 0.102243 0.379404
vt 0.102252 0.870624
vt 0.101106 0.379404
vt 0.101119 0.870624
vt 0.100066 0.870624
vt 0.100049 0.379404
vt 0.108420 0.379404
vt 0.110017 0.379404
vt 0.108420 0.870624
vt 0.110017 0.870624
vt 0.118761 0.379404
vt 0.118716 0.870624
vt 0.100053 0.379404
vt 0.101016 0.379404
vt 0.101021 0.870624
vt 0.102059 0.379404
vt 0.102061 0.870624
vt 0.103173 0.379404
vt 0.103173 0.870624
vt 0.104348 0.379404
vt 0.104344 0.870624
vt 0.105571 0.379404
vt 0.105564 0.870624
vt 0.106831 0.379404
vt 0.106821 0.870624
vt 0.108116 0.379404
vt 0.108103 0.870624
vt 0.109413 0.379404
vt 0.109397 0.870624
vt 0.110711 0.379404
vt 0.110692 0.870624
vt 0.111996 0.379404
vt 0.111973 0.870624
vt 0.113256 0.379404
vt 0.113230 0.870624
vt 0.114479 0.379404
vt 0.114450 0.870624
vt 0.115653 0.379404
vt 0.115622 0.870624
vt 0.116768 0.379404
vt 0.116733 0.870624
vt 0.117811 0.379404
vt 0.117774 0.870624
vt 0.048175 0.621163
vt 0.047814 0.562096
vt 0.049544 0.619973
vt 0.050867 0.618257
vt 0.052134 0.616047
vt 0.053334 0.613378
vt 0.054459 0.610289
vt 0.055502 0.606817
vt 0.056457 0.603001
vt 0.057317 0.598881
vt 0.058079 0.594497
vt 0.058739 0.589887
vt 0.059295 0.585090
vt 0.059743 0.580144
vt 0.060083 0.575086
vt 0.060314 0.569954
vt 0.060434 0.564783
vt 0.060445 0.559608
vt 0.060346 0.554466
vt 0.060138 0.549391
vt 0.059823 0.544416
vt 0.059402 0.539578
vt 0.058877 0.534909
vt 0.058251 0.530444
vt 0.057528 0.526217
vt 0.056710 0.522262
vt 0.055803 0.518613
vt 0.054811 0.515304
vt 0.053739 0.512367
vt 0.052596 0.509835
vt 0.051387 0.507740
vt 0.050122 0.506111
vt 0.048810 0.504977
vt 0.047460 0.504363
vt 0.046085 0.504292
vt 0.044697 0.504782
vt 0.043309 0.505846
vt 0.041936 0.507492
vt 0.040592 0.509723
vt 0.039292 0.512532
vt 0.038054 0.515907
vt 0.036893 0.519825
vt 0.035825 0.524256
vt 0.034865 0.529159
vt 0.034027 0.534486
vt 0.033326 0.540178
vt 0.032771 0.546171
vt 0.032374 0.552391
vt 0.032140 0.558760
vt 0.032074 0.565196
vt 0.032179 0.571616
vt 0.032453 0.577933
vt 0.032892 0.584064
vt 0.033490 0.589932
vt 0.034237 0.595460
vt 0.035123 0.600583
vt 0.036133 0.605240
vt 0.037253 0.609383
vt 0.038467 0.612970
vt 0.039758 0.615972
vt 0.041108 0.618368
vt 0.042502 0.620146
vt 0.043921 0.621306
vt 0.045350 0.621852
vt 0.046773 0.621798
vn 0.000000 1.000000 0.000000
vn -0.856300 -0.207400 0.473000
vn -0.856300 -0.207400 -0.473000
vn 0.185300 -0.207400 0.960600
vn -0.714500 -0.207400 0.668200
vn 0.970800 -0.207400 0.120600
vn 0.414700 -0.207400 -0.886000
vn 0.970800 -0.207400 -0.120600
vn -0.714500 -0.207400 -0.668200
vn 0.185300 -0.207400 -0.960600
vn 0.595700 0.000000 -0.803200
vn 0.514100 0.000000 -0.857700
vn 0.427600 0.000000 -0.904000
vn 0.336900 0.000000 -0.941500
vn 0.243000 0.000000 -0.970000
vn 0.146700 0.000000 -0.989200
vn 0.049100 0.000000 -0.998800
vn -0.049100 0.000000 -0.998800
vn -0.146700 0.000000 -0.989200
vn -0.243000 0.000000 -0.970000
vn -0.336900 0.000000 -0.941500
vn -0.427600 0.000000 -0.904000
vn -0.514100 0.000000 -0.857700
vn -0.595700 0.000000 -0.803200
vn -0.671600 0.000000 -0.741000
vn -0.741000 0.000000 -0.671600
vn -0.803200 0.000000 -0.595700
vn -0.857700 0.000000 -0.514100
vn -0.904000 0.000000 -0.427600
vn -0.941500 0.000000 -0.336900
vn -0.970000 0.000000 -0.243000
vn -0.989200 0.000000 -0.146700
vn -0.998800 0.000000 -0.049100
vn -0.998800 0.000000 0.049100
vn -0.989200 0.000000 0.146700
vn -0.970000 0.000000 0.243000
vn -0.941500 0.000000 0.336900
vn -0.904000 -0.000000 0.427600
vn -0.857700 -0.000000 0.514100
vn -0.803200 -0.000000 0.595700
vn -0.740900 -0.000000 0.671600
vn -0.671600 -0.000000 0.740900
vn -0.595700 -0.000000 0.803200
vn -0.514100 -0.000000 0.857700
vn -0.427600 -0.000000 0.904000
vn -0.336900 -0.000000 0.941500
vn -0.243000 -0.000000 0.970000
vn -0.146700 -0.000000 0.989200
vn -0.049100 -0.000000 0.998800
vn 0.049100 -0.000000 0.998800
vn 0.146700 -0.000000 0.989200
vn 0.243000 -0.000000 0.970000
vn 0.336900 -0.000000 0.941500
vn 0.427600 -0.000000 0.904000
vn 0.514100 -0.000000 0.857700
vn 0.595700 -0.000000 0.803200
vn 0.671600 -0.000000 0.740900
vn 0.740900 -0.000000 0.671600
vn 0.741000 0.000000 0.671600
vn 0.803200 0.000000 0.595700
vn 0.857700 0.000000 0.514100
vn 0.904000 0.000000 0.427600
vn 0.941500 0.000000 0.336900
vn 0.970000 0.000000 0.243000
vn 0.989200 0.000000 0.146700
vn 0.998800 0.000000 0.049100
vn 0.998800 -0.000000 -0.049100
vn 0.989200 0.000000 -0.146700
vn 0.970000 0.000000 -0.243000
vn 0.941500 0.000000 -0.336900
vn 0.904000 0.000000 -0.427600
vn 0.857700 0.000000 -0.514100
vn 0.803200 0.000000 -0.595700
vn 0.740900 0.000000 -0.671600
vn 0.741000 0.000000 -0.671600
vn 0.671600 0.000000 -0.740900
vn 0.671600 0.000000 -0.741000
vn 0.000000 1.000000 -0.000100
vn 0.000000 1.000000 0.000100
usemtl ColobotMesh_mat_1.002
s off
f 22/1/1 24/2/1 23/3/1
f 24/2/1 25/4/1 23/3/1
f 26/5/1 27/6/1 23/5/1
f 27/6/1 28/7/1 23/5/1
f 20/8/2 21/5/2 18/9/2
f 21/10/1 22/11/1 23/10/1
f 25/4/1 1/12/1 23/3/1
f 1/13/1 26/5/1 23/5/1
f 28/7/1 19/14/1 23/5/1
f 19/14/1 18/9/1 23/5/1
f 18/15/1 21/3/1 23/3/1
f 20/8/3 22/16/3 21/5/3
f 20/8/4 24/17/4 22/16/4
f 20/8/5 25/18/5 24/17/5
f 20/8/6 1/13/6 25/18/6
f 20/8/7 27/6/7 26/5/7
f 20/8/8 28/7/8 27/6/8
f 20/8/9 19/14/9 28/7/9
f 20/8/10 18/9/10 19/14/10
f 135/19/11 136/20/11 85/21/11
f 85/21/11 136/20/11 86/22/11
f 136/20/12 137/23/12 86/22/12
f 86/22/12 137/23/12 87/24/12
f 137/23/13 138/25/13 87/24/13
f 87/24/13 138/25/13 88/26/13
f 138/25/14 139/27/14 88/26/14
f 88/26/14 139/27/14 89/28/14
f 139/27/15 140/29/15 89/28/15
f 89/28/15 140/29/15 90/30/15
f 140/29/16 141/31/16 90/30/16
f 90/30/16 141/31/16 91/32/16
f 141/31/17 15/33/17 91/32/17
f 16/34/17 91/32/17 15/33/17
f 15/33/18 77/35/18 16/34/18
f 16/34/18 77/35/18 30/36/18
f 77/35/19 69/37/19 30/36/19
f 30/36/19 69/37/19 31/38/19
f 69/37/20 61/39/20 31/38/20
f 31/38/20 61/39/20 32/40/20
f 61/39/21 53/41/21 32/40/21
f 32/40/21 53/41/21 33/42/21
f 53/41/22 45/43/22 33/42/22
f 33/42/22 45/43/22 34/44/22
f 45/43/23 37/45/23 34/44/23
f 34/44/23 37/45/23 35/46/23
f 36/47/24 35/46/24 29/48/24
f 29/48/24 35/46/24 37/45/24
f 29/49/25 92/50/25 36/51/25
f 13/52/25 36/51/25 92/50/25
f 92/48/26 93/45/26 13/47/26
f 93/45/26 38/46/26 13/47/26
f 93/45/27 94/43/27 38/46/27
f 94/43/27 39/44/27 38/46/27
f 94/43/28 95/41/28 39/44/28
f 95/41/28 40/42/28 39/44/28
f 95/41/29 96/39/29 40/42/29
f 96/39/29 41/40/29 40/42/29
f 96/39/30 97/37/30 41/40/30
f 97/37/30 42/38/30 41/40/30
f 97/37/31 98/35/31 42/38/31
f 98/35/31 43/36/31 42/38/31
f 98/35/32 99/33/32 43/36/32
f 99/33/32 44/34/32 43/36/32
f 99/33/33 2/31/33 44/34/33
f 2/31/33 11/32/33 44/34/33
f 2/31/34 100/29/34 11/32/34
f 100/29/34 46/30/34 11/32/34
f 100/29/35 101/27/35 46/30/35
f 46/30/35 101/27/35 47/28/35
f 101/27/36 102/25/36 47/28/36
f 47/28/36 102/25/36 48/26/36
f 102/25/37 103/23/37 48/26/37
f 48/26/37 103/23/37 49/24/37
f 103/23/38 104/20/38 49/24/38
f 49/24/38 104/20/38 50/22/38
f 104/20/39 105/19/39 50/22/39
f 50/22/39 105/19/39 51/21/39
f 105/19/40 106/53/40 51/21/40
f 51/21/40 106/53/40 52/54/40
f 106/55/41 10/56/41 52/47/41
f 10/56/41 9/57/41 52/47/41
f 10/56/42 107/58/42 9/57/42
f 9/57/42 107/58/42 54/59/42
f 107/58/43 108/60/43 54/59/43
f 54/59/43 108/60/43 55/61/43
f 108/60/44 109/62/44 55/61/44
f 55/61/44 109/62/44 56/63/44
f 109/62/45 110/64/45 56/63/45
f 56/63/45 110/64/45 57/65/45
f 110/64/46 111/66/46 57/65/46
f 111/66/46 58/67/46 57/65/46
f 111/66/47 112/68/47 58/67/47
f 112/68/47 59/69/47 58/67/47
f 112/68/48 113/70/48 59/69/48
f 113/70/48 60/71/48 59/69/48
f 113/70/49 8/72/49 60/71/49
f 8/72/49 7/73/49 60/71/49
f 8/72/50 114/74/50 7/73/50
f 114/74/50 62/75/50 7/73/50
f 114/74/51 115/76/51 62/75/51
f 62/75/51 115/76/51 63/77/51
f 115/76/52 116/78/52 63/77/52
f 63/77/52 116/78/52 64/79/52
f 116/78/53 117/80/53 64/79/53
f 64/79/53 117/80/53 65/81/53
f 117/80/54 118/82/54 65/81/54
f 65/81/54 118/82/54 66/83/54
f 118/82/55 119/84/55 66/83/55
f 66/83/55 119/84/55 67/85/55
f 119/84/56 120/53/56 67/85/56
f 67/85/56 120/53/56 68/54/56
f 120/53/57 6/84/57 68/54/57
f 6/84/57 4/85/57 68/54/57
f 6/84/58 121/82/58 4/85/58
f 4/85/59 121/82/59 70/83/59
f 121/82/60 122/80/60 70/83/60
f 70/83/60 122/80/60 71/81/60
f 122/80/61 123/78/61 71/81/61
f 71/81/61 123/78/61 72/79/61
f 123/78/62 124/76/62 72/79/62
f 72/79/62 124/76/62 73/77/62
f 124/76/63 125/74/63 73/77/63
f 73/77/63 125/74/63 74/75/63
f 125/74/64 126/72/64 74/75/64
f 74/75/64 126/72/64 75/73/64
f 126/72/65 127/70/65 75/73/65
f 75/73/65 127/70/65 76/71/65
f 127/70/66 5/68/66 76/71/66
f 5/68/66 3/69/66 76/71/66
f 5/68/67 128/66/67 3/69/67
f 3/69/67 128/66/67 78/67/67
f 128/66/68 129/64/68 78/67/68
f 78/67/68 129/64/68 79/65/68
f 129/64/69 130/62/69 79/65/69
f 79/65/69 130/62/69 80/63/69
f 130/62/70 131/60/70 80/63/70
f 80/63/70 131/60/70 81/61/70
f 131/60/71 132/58/71 81/61/71
f 81/61/71 132/58/71 82/59/71
f 132/58/72 133/56/72 82/59/72
f 82/59/72 133/56/72 83/57/72
f 133/56/73 134/55/73 83/57/73
f 83/57/73 134/55/73 84/47/73
f 134/49/74 14/50/74 84/51/74
f 17/52/75 84/51/75 14/50/75
f 14/53/76 135/19/76 17/54/76
f 17/54/77 135/19/77 85/21/77
f 80/86/1 12/87/1 79/88/1
f 79/88/1 12/87/1 78/89/1
f 3/90/1 78/89/1 12/87/1
f 12/87/1 76/91/1 3/90/1
f 76/91/1 12/87/1 75/92/1
f 74/93/78 75/92/78 12/87/78
f 73/94/79 74/93/79 12/87/79
f 72/95/1 73/94/1 12/87/1
f 71/96/1 72/95/1 12/87/1
f 70/97/1 71/96/1 12/87/1
f 4/98/1 70/97/1 12/87/1
f 12/87/79 68/99/79 4/98/79
f 68/99/1 12/87/1 67/100/1
f 66/101/1 67/100/1 12/87/1
f 65/102/1 66/101/1 12/87/1
f 64/103/1 65/102/1 12/87/1
f 63/104/1 64/103/1 12/87/1
f 62/105/1 63/104/1 12/87/1
f 12/87/1 7/106/1 62/105/1
f 7/106/1 12/87/1 60/107/1
f 60/107/1 12/87/1 59/108/1
f 58/109/1 59/108/1 12/87/1
f 57/110/1 58/109/1 12/87/1
f 56/111/1 57/110/1 12/87/1
f 55/112/1 56/111/1 12/87/1
f 54/113/1 55/112/1 12/87/1
f 12/87/1 9/114/1 54/113/1
f 9/114/1 12/87/1 52/115/1
f 52/115/1 12/87/1 51/116/1
f 50/117/1 51/116/1 12/87/1
f 49/118/1 50/117/1 12/87/1
f 48/119/1 49/118/1 12/87/1
f 47/120/1 48/119/1 12/87/1
f 46/121/1 47/120/1 12/87/1
f 12/87/1 11/122/1 46/121/1
f 11/122/1 12/87/1 44/123/1
f 44/123/1 12/87/1 43/124/1
f 42/125/1 43/124/1 12/87/1
f 41/126/1 42/125/1 12/87/1
f 40/127/1 41/126/1 12/87/1
f 39/128/1 40/127/1 12/87/1
f 38/129/1 39/128/1 12/87/1
f 12/87/1 13/130/1 38/129/1
f 13/130/1 12/87/1 36/131/1
f 36/131/1 12/87/1 35/132/1
f 34/133/1 35/132/1 12/87/1
f 33/134/1 34/133/1 12/87/1
f 32/135/1 33/134/1 12/87/1
f 31/136/1 32/135/1 12/87/1
f 30/137/1 31/136/1 12/87/1
f 12/87/1 16/138/1 30/137/1
f 16/138/1 12/87/1 91/139/1
f 91/139/1 12/87/1 90/140/1
f 89/141/1 90/140/1 12/87/1
f 88/142/1 89/141/1 12/87/1
f 87/143/1 88/142/1 12/87/1
f 86/144/1 87/143/1 12/87/1
f 85/145/1 86/144/1 12/87/1
f 12/87/1 17/146/1 85/145/1
f 17/146/1 12/87/1 84/147/1
f 84/147/1 12/87/1 83/148/1
f 83/148/78 12/87/78 82/149/78
f 82/149/1 12/87/1 81/150/1
f 81/150/1 12/87/1 80/86/1
