# Blender v2.71 (sub 0) OBJ File: 'end_alt.blend'
# www.blender.org
mtllib end_alt.mtl
o ColobotMesh_1_ColobotMesh_
v 7.389370 1.000000 3.051840
v 7.389370 1.000000 -3.071100
v -0.001666 1.000000 -0.009629
v 3.059800 1.000000 -7.400660
v 3.825170 -1.000000 9.229170
v -7.392700 1.000000 -3.071100
v -3.063130 1.000000 -7.400670
v 3.825170 -1.000000 -9.248420
v -3.828500 -1.000000 -9.248420
v -9.240460 -1.000000 -3.836460
v -9.240460 -1.000000 3.817200
v -7.392700 1.000000 3.051840
v 9.237130 -1.000000 3.817200
v -3.063130 1.000000 7.381410
v 3.059800 1.000000 7.381410
v -3.828500 -1.000000 9.229170
v 9.237130 -1.000000 -3.836460
vt 0.532812 0.800854
vt 0.532812 0.605397
vt 0.296875 0.703125
vt 0.394604 0.467188
vt 0.001953 0.580964
vt 0.001953 0.825286
vt 0.060938 0.800853
vt 0.060938 0.605396
vt 0.394604 0.939062
vt 0.199146 0.939062
vt 0.199147 0.467187
vt 0.591797 0.825286
vt 0.591797 0.580964
vt 0.419036 0.998047
vt 0.174714 0.998047
vt 0.174714 0.408203
vt 0.419036 0.408203
vn 0.000000 1.000000 0.000000
vn -0.734500 0.678600 0.000000
vn 0.734500 0.678600 0.000000
vn 0.519400 0.678600 0.519400
vn 0.000000 0.678600 0.734500
vn -0.519400 0.678600 0.519400
vn -0.519400 0.678600 -0.519400
vn 0.000000 0.678600 -0.734500
vn 0.519400 0.678600 -0.519400
usemtl ColobotMesh_mat_1
s off
f 1/1/1 2/2/1 3/3/1
f 2/2/1 4/4/1 3/3/1
f 10/5/2 11/6/2 12/7/2
f 6/8/2 10/5/2 12/7/2
f 15/9/1 1/1/1 3/3/1
f 14/10/1 15/9/1 3/3/1
f 12/7/1 14/10/1 3/3/1
f 6/8/1 12/7/1 3/3/1
f 7/11/1 6/8/1 3/3/1
f 4/4/1 7/11/1 3/3/1
f 13/12/3 17/13/3 2/2/3
f 1/1/3 13/12/3 2/2/3
f 5/14/4 13/12/4 1/1/4
f 15/9/4 5/14/4 1/1/4
f 16/15/5 5/14/5 15/9/5
f 14/10/5 16/15/5 15/9/5
f 11/6/6 16/15/6 14/10/6
f 12/7/6 11/6/6 14/10/6
f 9/16/7 10/5/7 6/8/7
f 7/11/7 9/16/7 6/8/7
f 8/17/8 9/16/8 7/11/8
f 4/4/8 8/17/8 7/11/8
f 17/13/9 8/17/9 4/4/9
f 2/2/9 17/13/9 4/4/9
