# Blender v2.77 (sub 0) OBJ File: 'factory2.blend'
# www.blender.org
mtllib factory2.mtl
o ColobotMesh_1_ColobotMesh_
v -0.300391 1.000000 -10.000000
v 0.299609 -1.000000 -0.000000
v -0.300391 -1.000000 -0.000000
v -0.300391 -1.000000 -10.000000
v 0.299609 -1.000000 -10.000000
v 0.299609 1.000000 0.000000
v 0.299609 1.000000 -10.000000
v -0.300391 1.000000 0.000000
vt 0.7520 0.2480
vt 0.8340 0.1660
vt 0.7520 0.1660
vt 0.9668 0.1582
vt 0.9395 0.4043
vt 0.9395 0.1582
vt 0.8340 0.2480
vt 0.7520 0.1660
vt 0.8340 0.1660
vt 0.6035 0.9941
vt 0.6113 0.9863
vt 0.6035 0.9863
vt 0.9395 0.4043
vt 0.9668 0.1582
vt 0.9395 0.1582
vt 0.8340 0.2480
vt 0.9668 0.4043
vt 0.7520 0.2480
vt 0.6113 0.9941
vt 0.9668 0.4043
vn 1.0000 0.0000 0.0000
vn 0.0000 -1.0000 -0.0000
vn -1.0000 0.0000 0.0000
vn 0.0000 0.0000 -1.0000
vn 0.0000 1.0000 0.0000
usemtl ColobotMesh_mat_1
s off
f 7/1/1 2/2/1 5/3/1
f 5/4/2 3/5/2 4/6/2
f 8/7/3 4/8/3 3/9/3
f 1/10/4 5/11/4 4/12/4
f 8/13/5 7/14/5 1/15/5
f 7/1/1 6/16/1 2/2/1
f 5/4/2 2/17/2 3/5/2
f 8/7/3 1/18/3 4/8/3
f 1/10/4 7/19/4 5/11/4
f 8/13/5 6/20/5 7/14/5
