# Blender v2.70 (sub 5) OBJ File: 'flag1bgrvy.blend'
# www.blender.org
mtllib flag1v.mtl
o ColobotMesh_1_ColobotMesh_
v -0.014274 -1.000000 -0.299660
v -0.014274 6.991850 -0.299660
v -0.070727 6.991850 -0.291543
v -0.124624 6.991850 -0.272890
v -0.174017 6.991850 -0.244373
v -0.217120 6.991850 -0.207024
v -0.252376 6.991850 -0.162192
v -0.278510 6.991850 -0.111499
v -0.294579 6.991850 -0.056776
v -0.300000 6.991850 -0.000000
v -0.294579 6.991850 0.056775
v -0.278511 6.991850 0.111498
v -0.252376 6.991850 0.162192
v -0.217121 6.991850 0.207024
v -0.174017 6.991850 0.244373
v -0.124625 6.991850 0.272890
v -0.070728 6.991850 0.291543
v -0.014275 6.991850 0.299660
v 0.042694 6.991850 0.296947
v 0.098120 6.991850 0.283500
v 0.150000 6.991850 0.259808
v 0.196458 6.991850 0.226725
v 0.235816 6.991850 0.185448
v 0.266651 6.991850 0.137468
v 0.287848 6.991850 0.084520
v 0.298641 6.991850 0.028517
v 0.298642 6.991850 -0.028517
v 0.287848 6.991850 -0.084520
v 0.266651 6.991850 -0.137468
v 0.235816 6.991850 -0.185448
v 0.196458 6.991850 -0.226725
v 0.150000 6.991850 -0.259808
v 0.098120 6.991850 -0.283500
v 0.042694 6.991850 -0.296946
v -0.070727 -1.000000 -0.291543
v -0.124624 -1.000000 -0.272889
v -0.174017 -1.000000 -0.244373
v -0.217120 -1.000000 -0.207024
v -0.252376 -1.000000 -0.162192
v -0.278510 -1.000000 -0.111499
v -0.294578 -1.000000 -0.056775
v -0.300000 -1.000000 -0.000000
v -0.294579 -1.000000 0.056775
v -0.278510 -1.000000 0.111499
v -0.252376 -1.000000 0.162192
v -0.217120 -1.000000 0.207024
v -0.174017 -1.000000 0.244373
v -0.124625 -1.000000 0.272890
v -0.070728 -1.000000 0.291544
v -0.014275 -1.000000 0.299661
v 0.042694 -1.000000 0.296947
v 0.098120 -1.000000 0.283501
v 0.150000 -1.000000 0.259808
v 0.196458 -1.000000 0.226725
v 0.235816 -1.000000 0.185448
v 0.266651 -1.000000 0.137468
v 0.287848 -1.000000 0.084520
v 0.298642 -1.000000 0.028517
v 0.298642 -1.000000 -0.028516
v 0.287848 -1.000000 -0.084519
v 0.266651 -1.000000 -0.137468
v 0.235816 -1.000000 -0.185447
v 0.196458 -1.000000 -0.226725
v 0.150000 -1.000000 -0.259807
v 0.098120 -1.000000 -0.283500
v 0.042694 -1.000000 -0.296946
vt 0.713956 0.498047
vt 0.712181 0.001956
vt 0.712181 0.498047
vt 0.715732 0.498047
vt 0.713956 0.001956
vt 0.708630 0.498047
vt 0.706854 0.001956
vt 0.706854 0.498047
vt 0.724609 0.498047
vt 0.722834 0.001956
vt 0.722834 0.498047
vt 0.721058 0.498047
vt 0.719283 0.001956
vt 0.719283 0.498047
vt 0.710405 0.498047
vt 0.708630 0.001956
vt 0.705079 0.001956
vt 0.705079 0.498047
vt 0.721058 0.001956
vt 0.717507 0.001956
vt 0.717507 0.498047
vt 0.710405 0.001956
vt 0.705078 0.001956
vt 0.715732 0.001956
vt 0.705294 0.478595
vt 0.714360 0.490183
vt 0.724535 0.481410
vt 0.724609 0.001956
vt 0.705284 0.482279
vt 0.705113 0.480437
vt 0.706671 0.475178
vt 0.705819 0.476820
vt 0.709220 0.472517
vt 0.707819 0.473726
vt 0.712576 0.470995
vt 0.710825 0.471596
vt 0.716256 0.470829
vt 0.714408 0.470736
vt 0.719735 0.472043
vt 0.718054 0.471270
vt 0.722514 0.474462
vt 0.721240 0.473120
vt 0.724194 0.477741
vt 0.723511 0.476022
vt 0.724540 0.479559
vt 0.723488 0.484943
vt 0.724180 0.483226
vt 0.721204 0.487833
vt 0.722484 0.486497
vt 0.718008 0.489667
vt 0.719694 0.488903
vt 0.716209 0.490099
vt 0.710782 0.489305
vt 0.712529 0.489915
vt 0.707786 0.487161
vt 0.709181 0.488376
vt 0.705801 0.484056
vt 0.706645 0.485703
vn -0.327068 0.000000 0.945001
vn -0.499999 -0.000000 -0.866026
vn -0.959493 -0.000000 -0.281734
vn -0.995472 -0.000000 0.095055
vn -0.888836 -0.000000 0.458226
vn 0.047582 0.000000 0.998867
vn 0.415416 0.000000 0.909632
vn 0.723734 0.000000 0.690079
vn 0.928368 0.000000 0.371661
vn 1.000000 0.000000 0.000002
vn 0.928368 0.000000 -0.371662
vn 0.723734 0.000000 -0.690079
vn 0.415414 -0.000000 -0.909632
vn 0.047582 -0.000000 -0.998867
vn -0.142313 -0.000000 -0.989822
vn -0.995472 -0.000000 -0.095057
vn -0.959494 -0.000000 0.281730
vn -0.786054 -0.000000 0.618158
vn -0.327067 -0.000000 -0.945001
vn -0.500001 0.000000 0.866025
vn -0.654860 -0.000000 -0.755750
vn -0.142316 0.000000 0.989821
vn -0.888835 -0.000000 -0.458228
vn 0.235757 0.000000 0.971812
vn 0.580056 0.000000 0.814577
vn 0.841253 0.000000 0.540642
vn 0.981929 0.000000 0.189251
vn 0.981929 0.000000 -0.189251
vn 0.841253 0.000000 -0.540642
vn 0.580057 -0.000000 -0.814576
vn 0.235760 -0.000000 -0.971811
vn -0.786052 -0.000000 -0.618160
vn 0.000000 1.000000 -0.000000
vn -0.654862 -0.000000 0.755749
vn -0.327069 0.000000 0.945001
vn -0.959492 -0.000000 -0.281734
vn -0.995472 -0.000000 0.095054
vn -0.888835 -0.000000 0.458227
vn 0.047581 0.000000 0.998867
vn 0.928368 0.000000 0.371662
vn 0.928368 0.000000 -0.371663
vn -0.995472 -0.000000 -0.095056
vn -0.654861 -0.000000 -0.755750
vn -0.142315 0.000000 0.989821
vn -0.888835 -0.000000 -0.458227
vn 0.841254 0.000000 -0.540640
vn 0.580056 -0.000000 -0.814577
vn 0.235759 -0.000000 -0.971812
vn 0.000000 1.000000 0.000065
vn 0.000000 1.000000 0.000036
vn 0.000000 1.000000 -0.000024
vn 0.000000 1.000000 0.000015
vn 0.000000 1.000000 0.000002
vn 0.000000 1.000000 -0.000015
vn 0.000000 1.000000 0.000021
vn 0.000000 1.000000 -0.000036
vn 0.000000 1.000000 -0.000053
vn 0.000000 1.000000 -0.000070
vn 0.000000 1.000000 -0.000049
vn 0.000000 1.000000 0.000008
vn 0.000000 1.000000 0.000011
vn 0.000000 1.000000 -0.000003
vn 0.000000 1.000000 0.000003
vn 0.000000 1.000000 -0.000004
vn 0.000000 1.000000 -0.000013
vn 0.000000 1.000000 0.000012
vn 0.000000 1.000000 -0.000007
vn 0.000000 1.000000 -0.000006
vn 0.000000 1.000000 -0.000001
usemtl ColobotMesh_mat_1
s off
f 16/1/1 49/2/1 17/3/1
f 4/4/2 37/5/2 5/1/2
f 8/6/3 41/7/3 9/8/3
f 10/9/4 43/10/4 11/11/4
f 12/12/5 45/13/5 13/14/5
f 18/15/6 51/16/6 19/6/6
f 20/8/7 53/17/7 21/18/7
f 22/11/8 55/19/8 23/12/8
f 24/14/9 57/20/9 25/21/9
f 26/4/10 59/5/10 27/1/10
f 28/3/11 61/22/11 29/15/11
f 30/6/12 63/7/12 31/8/12
f 32/9/13 65/10/13 33/11/13
f 34/12/14 1/13/14 2/14/14
f 2/14/15 35/20/15 3/21/15
f 9/8/16 42/23/16 10/18/16
f 11/11/17 44/19/17 12/12/17
f 13/14/18 46/20/18 14/21/18
f 3/21/19 36/24/19 4/4/19
f 15/4/20 48/5/20 16/1/20
f 5/1/21 38/2/21 6/3/21
f 17/3/22 50/22/22 18/15/22
f 7/15/23 40/16/23 8/6/23
f 19/6/24 52/7/24 20/8/24
f 21/9/25 54/10/25 22/11/25
f 23/12/26 56/13/26 24/14/26
f 25/21/27 58/24/27 26/4/27
f 27/1/28 60/2/28 28/3/28
f 29/15/29 62/16/29 30/6/29
f 31/8/30 64/17/30 32/18/30
f 33/11/31 66/19/31 34/12/31
f 6/3/32 39/22/32 7/15/32
f 34/25/33 10/26/33 18/27/33
f 14/21/34 47/24/34 15/4/34
f 48/5/35 49/2/35 16/1/35
f 36/24/2 37/5/2 4/4/2
f 40/16/36 41/7/36 8/6/36
f 42/28/37 43/10/37 10/9/37
f 44/19/38 45/13/38 12/12/38
f 50/22/39 51/16/39 18/15/39
f 52/7/7 53/17/7 20/8/7
f 54/10/8 55/19/8 22/11/8
f 56/13/40 57/20/40 24/14/40
f 58/24/10 59/5/10 26/4/10
f 60/2/41 61/22/41 28/3/41
f 62/16/12 63/7/12 30/6/12
f 64/28/13 65/10/13 32/9/13
f 66/19/14 1/13/14 34/12/14
f 1/13/15 35/20/15 2/14/15
f 41/7/42 42/23/42 9/8/42
f 43/10/17 44/19/17 11/11/17
f 45/13/18 46/20/18 13/14/18
f 35/20/19 36/24/19 3/21/19
f 47/24/20 48/5/20 15/4/20
f 37/5/43 38/2/43 5/1/43
f 49/2/44 50/22/44 17/3/44
f 39/22/45 40/16/45 7/15/45
f 51/16/24 52/7/24 19/6/24
f 53/28/25 54/10/25 21/9/25
f 55/19/26 56/13/26 23/12/26
f 57/20/27 58/24/27 25/21/27
f 59/5/28 60/2/28 27/1/28
f 61/22/46 62/16/46 29/15/46
f 63/7/47 64/17/47 31/8/47
f 65/10/48 66/19/48 33/11/48
f 38/2/32 39/22/32 6/3/32
f 3/29/49 34/25/49 2/30/49
f 34/25/50 32/31/50 33/32/50
f 32/31/51 30/33/51 31/34/51
f 30/33/52 28/35/52 29/36/52
f 28/35/53 26/37/53 27/38/53
f 26/37/54 24/39/54 25/40/54
f 24/39/55 22/41/55 23/42/55
f 22/41/56 20/43/56 21/44/56
f 20/43/57 18/27/57 19/45/57
f 18/27/58 16/46/58 17/47/58
f 16/46/59 14/48/59 15/49/59
f 14/48/33 12/50/33 13/51/33
f 12/50/60 10/26/60 11/52/60
f 10/26/53 8/53/53 9/54/53
f 8/53/33 6/55/33 7/56/33
f 6/55/59 4/57/59 5/58/59
f 4/57/61 34/25/61 3/29/61
f 34/25/62 30/33/62 32/31/62
f 30/33/63 26/37/63 28/35/63
f 26/37/64 22/41/64 24/39/64
f 22/41/65 18/27/65 20/43/65
f 18/27/66 14/48/66 16/46/66
f 14/48/62 10/26/62 12/50/62
f 10/26/67 6/55/67 8/53/67
f 6/55/68 34/25/68 4/57/68
f 34/25/53 26/37/53 30/33/53
f 26/37/69 18/27/69 22/41/69
f 18/27/53 10/26/53 14/48/53
f 10/26/33 34/25/33 6/55/33
f 34/25/33 18/27/33 26/37/33
f 46/20/34 47/24/34 14/21/34
