# Blender v2.77 (sub 0) OBJ File: 'human2g1.blend'
# www.blender.org
mtllib human2g1.mtl
o ColobotMesh_1.001_ColobotMesh_.001
v 0.497422 1.080662 -0.396070
v 0.609443 1.080616 -0.007771
v 0.603780 0.954149 -0.059677
v 0.570993 0.896869 -0.166920
v 0.514143 0.896445 -0.337544
v 0.532732 1.080582 -0.301194
v 0.563595 1.080586 -0.204985
v 0.591352 1.080589 -0.107844
v 0.594027 0.926115 -0.091009
v 0.583098 0.907022 -0.126757
v 0.544670 0.891426 -0.252805
v 0.611751 1.032761 -0.020620
v 0.608389 0.992291 -0.037479
v 0.495825 1.080680 -0.395589
v 0.607846 1.080633 -0.007290
v 0.602183 0.954166 -0.059196
v 0.569396 0.896886 -0.166439
v 0.512546 0.896463 -0.337063
v 0.531135 1.080599 -0.300713
v 0.561998 1.080603 -0.204504
v 0.589755 1.080606 -0.107363
v 0.592430 0.926133 -0.090528
v 0.581501 0.907039 -0.126276
v 0.543073 0.891444 -0.252324
v 0.610154 1.032778 -0.020139
v 0.606792 0.992308 -0.036998
v 0.497422 1.080662 0.396070
v 0.609443 1.080616 0.007771
v 0.603780 0.954149 0.059677
v 0.570993 0.896869 0.166920
v 0.514143 0.896445 0.337544
v 0.532732 1.080582 0.301194
v 0.563595 1.080586 0.204985
v 0.591352 1.080589 0.107844
v 0.594027 0.926115 0.091009
v 0.583098 0.907022 0.126757
v 0.544670 0.891426 0.252805
v 0.611751 1.032761 0.020620
v 0.608389 0.992291 0.037479
v 0.495825 1.080680 0.395589
v 0.607846 1.080633 0.007290
v 0.602183 0.954166 0.059196
v 0.569396 0.896886 0.166439
v 0.512546 0.896463 0.337063
v 0.531135 1.080599 0.300713
v 0.561998 1.080603 0.204504
v 0.589755 1.080606 0.107363
v 0.592430 0.926133 0.090528
v 0.581501 0.907039 0.126276
v 0.543073 0.891444 0.252324
v 0.610154 1.032778 0.020139
v 0.606792 0.992308 0.036998
vt 0.5393 0.6665
vt 0.5547 0.7480
vt 0.5244 0.7480
vt 0.5850 0.7480
vt 0.5999 0.6923
vt 0.5887 0.6839
vt 0.5393 0.6665
vt 0.5547 0.7480
vt 0.5663 0.6671
vt 0.6152 0.7480
vt 0.6101 0.7295
vt 0.5124 0.6660
vt 0.4941 0.7480
vt 0.5244 0.7480
vt 0.5124 0.6660
vt 0.4941 0.7480
vt 0.5999 0.6923
vt 0.5850 0.7480
vt 0.5887 0.6839
vt 0.5775 0.6755
vt 0.6050 0.7109
vt 0.6152 0.7480
vt 0.5663 0.6671
vt 0.5775 0.6755
vt 0.6101 0.7295
vt 0.6050 0.7109
vt 0.5547 0.7480
vt 0.5393 0.6665
vt 0.5244 0.7480
vt 0.5850 0.7480
vt 0.5887 0.6839
vt 0.5999 0.6923
vt 0.5547 0.7480
vt 0.5393 0.6665
vt 0.5663 0.6671
vt 0.6101 0.7295
vt 0.6152 0.7480
vt 0.5124 0.6660
vt 0.5244 0.7480
vt 0.5124 0.6660
vt 0.5999 0.6923
vt 0.5887 0.6839
vt 0.5850 0.7480
vt 0.5775 0.6755
vt 0.6050 0.7109
vt 0.4941 0.7480
vt 0.5663 0.6671
vt 0.5775 0.6755
vt 0.6101 0.7295
vt 0.6050 0.7109
vt 0.6152 0.7480
vt 0.4941 0.7480
vn -0.6648 -0.7135 0.2212
vn -0.6633 0.7207 0.2015
vn -0.6513 0.7238 0.2276
vn 0.6961 0.6952 -0.1793
vn 0.8048 -0.4749 0.3559
vn 0.7624 -0.6165 0.1965
vn 0.6536 -0.7259 -0.2139
vn 0.6894 0.6934 -0.2095
vn 0.6796 -0.7278 -0.0922
vn 0.6756 0.5329 0.5095
vn 0.8499 -0.1877 0.4922
vn -0.7341 -0.6238 -0.2682
vn -0.7411 0.4881 -0.4609
vn 0.6835 0.6900 -0.2382
vn 0.4033 -0.6466 -0.6475
vn 0.3269 0.4811 -0.8134
vn -0.4855 -0.4784 0.7317
vn -0.6726 0.7194 0.1734
vn -0.5436 -0.5996 0.5873
vn 0.7170 -0.6951 0.0526
vn -0.5065 -0.3402 0.7923
vn -0.4275 0.4819 0.7648
vn -0.6373 -0.7078 0.3046
vn -0.5900 -0.6769 0.4401
vn -0.4830 -0.2691 0.8332
vn 0.8355 -0.3112 0.4529
vn -0.6633 0.7207 -0.2015
vn -0.6648 -0.7135 -0.2212
vn -0.6513 0.7238 -0.2276
vn 0.6961 0.6952 0.1793
vn 0.7624 -0.6165 -0.1965
vn 0.8048 -0.4749 -0.3559
vn 0.6894 0.6934 0.2095
vn 0.6536 -0.7259 0.2139
vn 0.6796 -0.7278 0.0922
vn 0.8499 -0.1877 -0.4922
vn 0.6756 0.5329 -0.5095
vn -0.7341 -0.6238 0.2682
vn 0.6835 0.6900 0.2382
vn 0.4033 -0.6466 0.6475
vn -0.4855 -0.4784 -0.7317
vn -0.5436 -0.5996 -0.5874
vn -0.6726 0.7194 -0.1734
vn 0.7170 -0.6951 -0.0526
vn -0.5065 -0.3402 -0.7923
vn 0.3269 0.4811 0.8134
vn -0.6373 -0.7078 -0.3046
vn -0.5900 -0.6769 -0.4400
vn -0.4830 -0.2691 -0.8332
vn 0.8355 -0.3112 -0.4529
vn -0.4275 0.4819 -0.7648
vn -0.7411 0.4881 0.4609
usemtl ColobotMesh_mat_1_[4096]
s 1
f 24/1/1 20/2/2 19/3/3
f 8/4/4 3/5/5 9/6/6
f 11/7/7 7/8/8 4/9/9
f 8/4/4 2/10/10 12/11/11
f 18/12/12 19/3/3 14/13/13
f 6/14/14 5/15/15 1/16/16
f 16/17/17 21/18/18 22/19/19
f 10/20/20 7/8/8 8/4/4
f 21/18/18 16/17/17 26/21/21
f 1/16/16 18/12/12 14/13/13
f 2/10/10 21/18/18 15/22/22
f 5/15/15 24/1/1 18/12/12
f 10/20/20 17/23/23 4/9/9
f 8/4/4 20/2/2 21/18/18
f 9/6/6 23/24/24 10/20/20
f 2/10/10 25/25/25 12/11/11
f 13/26/26 16/17/17 3/5/5
f 6/14/14 20/2/2 7/8/8
f 1/16/16 19/3/3 6/14/14
f 23/24/24 20/2/2 17/23/23
f 12/11/11 26/21/21 13/26/26
f 11/7/7 17/23/23 24/1/1
f 8/4/4 9/6/6 10/20/20
f 13/26/26 8/4/4 12/11/11
f 13/26/26 3/5/5 8/4/4
f 25/25/25 21/18/18 26/21/21
f 21/18/18 23/24/24 22/19/19
f 25/25/25 15/22/22 21/18/18
f 9/6/6 16/17/17 22/19/19
f 46/27/27 50/28/28 45/29/29
f 34/30/30 35/31/31 29/32/32
f 33/33/33 37/34/34 30/35/35
f 34/30/30 38/36/36 28/37/37
f 44/38/38 45/29/29 50/28/28
f 32/39/39 31/40/40 37/34/34
f 42/41/41 48/42/42 47/43/43
f 36/44/44 33/33/33 30/35/35
f 47/43/43 52/45/45 42/41/41
f 27/46/46 44/38/38 31/40/40
f 28/37/37 47/43/43 34/30/30
f 31/40/40 50/28/28 37/34/34
f 43/47/47 36/44/44 30/35/35
f 34/30/30 46/27/27 33/33/33
f 49/48/48 35/31/31 36/44/44
f 51/49/49 28/37/37 38/36/36
f 42/41/41 39/50/50 29/32/32
f 46/27/27 32/39/39 33/33/33
f 45/29/29 27/46/46 32/39/39
f 46/27/27 49/48/48 43/47/47
f 52/45/45 38/36/36 39/50/50
f 37/34/34 43/47/47 30/35/35
f 34/30/30 36/44/44 35/31/31
f 39/50/50 38/36/36 34/30/30
f 39/50/50 34/30/30 29/32/32
f 51/49/49 52/45/45 47/43/43
f 47/43/43 48/42/42 49/48/48
f 51/49/49 47/43/43 41/51/51
f 35/31/31 42/41/41 29/32/32
f 24/1/1 17/23/23 20/2/2
f 11/7/7 6/14/14 7/8/8
f 18/12/12 24/1/1 19/3/3
f 6/14/14 11/7/7 5/15/15
f 10/20/20 4/9/9 7/8/8
f 1/16/16 5/15/15 18/12/12
f 2/10/10 8/4/4 21/18/18
f 5/15/15 11/7/7 24/1/1
f 10/20/20 23/24/24 17/23/23
f 8/4/4 7/8/8 20/2/2
f 9/6/6 22/19/19 23/24/24
f 2/10/10 15/22/22 25/25/25
f 13/26/26 26/21/21 16/17/17
f 6/14/14 19/3/3 20/2/2
f 1/16/16 14/13/13 19/3/3
f 23/24/24 21/18/18 20/2/2
f 12/11/11 25/25/25 26/21/21
f 11/7/7 4/9/9 17/23/23
f 9/6/6 3/5/5 16/17/17
f 46/27/27 43/47/47 50/28/28
f 33/33/33 32/39/39 37/34/34
f 44/38/38 40/52/52 45/29/29
f 32/39/39 27/46/46 31/40/40
f 36/44/44 34/30/30 33/33/33
f 27/46/46 40/52/52 44/38/38
f 28/37/37 41/51/51 47/43/43
f 31/40/40 44/38/38 50/28/28
f 43/47/47 49/48/48 36/44/44
f 34/30/30 47/43/43 46/27/27
f 49/48/48 48/42/42 35/31/31
f 51/49/49 41/51/51 28/37/37
f 42/41/41 52/45/45 39/50/50
f 46/27/27 45/29/29 32/39/39
f 45/29/29 40/52/52 27/46/46
f 46/27/27 47/43/43 49/48/48
f 52/45/45 51/49/49 38/36/36
f 37/34/34 50/28/28 43/47/47
f 35/31/31 48/42/42 42/41/41
o ColobotMesh_1_ColobotMesh_
v 0.195664 0.998406 0.503594
v 0.195664 1.022270 0.503594
v 0.195995 0.998407 -0.503357
v 0.195995 1.022270 -0.503357
v 0.196432 0.998632 0.501716
v 0.196432 1.022407 0.501716
v 0.196762 0.998633 -0.501480
v 0.196762 1.022407 -0.501480
v 0.596003 1.079370 -0.104127
v 0.567075 1.079370 -0.207182
v 0.533373 1.079370 -0.308776
v 0.596003 1.103230 -0.104127
v 0.567075 1.103230 -0.207182
v 0.533373 1.103230 -0.308776
v 0.595934 1.079370 0.103697
v 0.566918 1.079370 0.206975
v 0.533151 1.079370 0.308798
v 0.595934 1.103230 0.103697
v 0.566918 1.103230 0.206975
v 0.533151 1.103230 0.308798
v 0.612893 1.103012 0.011512
v 0.612894 1.103012 -0.012171
v 0.613107 1.103012 -0.000329
v 0.612894 1.079152 -0.012171
v 0.612893 1.079152 0.011512
v 0.613107 1.079152 -0.000329
v 0.488325 1.100915 0.412551
v 0.499980 1.103230 0.401380
v 0.495306 1.102552 0.408170
v 0.488630 1.077055 -0.412307
v 0.500285 1.079370 -0.401135
v 0.495611 1.078692 -0.407925
v 0.500285 1.103230 -0.401135
v 0.488630 1.100915 -0.412307
v 0.495611 1.102552 -0.407925
v 0.499980 1.079370 0.401380
v 0.488325 1.077055 0.412551
v 0.495306 1.078692 0.408170
v 0.601820 1.102847 -0.007665
v 0.601819 1.102847 0.007009
v 0.610591 1.103065 -0.000328
v 0.601960 1.102847 -0.000328
v 0.601819 1.079076 0.007009
v 0.601820 1.079076 -0.007665
v 0.609511 1.079023 -0.000329
v 0.601960 1.079076 -0.000328
v 0.489516 1.103065 0.406268
v 0.486835 1.102496 0.409002
v 0.488898 1.103065 0.408344
v 0.489820 1.079294 -0.406024
v 0.487139 1.078725 -0.408758
v 0.489202 1.079294 -0.408099
v 0.487139 1.102496 -0.408758
v 0.489820 1.103065 -0.406024
v 0.489202 1.103065 -0.408099
v 0.486835 1.078725 0.409002
v 0.489516 1.079294 0.406268
v 0.488898 1.079294 0.408344
v 0.574634 1.079294 -0.142165
v 0.535105 1.079294 -0.274951
v 0.574634 1.103065 -0.142165
v 0.535105 1.103065 -0.274951
v 0.574538 1.103065 0.141812
v 0.534908 1.103065 0.274898
v 0.574538 1.079294 0.141812
v 0.534908 1.079294 0.274898
vt 0.6609 0.9941
vt 0.6583 0.9941
vt 0.6583 0.9863
vt 0.6633 0.9863
vt 0.6659 0.9863
vt 0.6659 0.9941
vt 0.6584 0.9863
vt 0.6584 0.9941
vt 0.6602 0.9941
vt 0.6602 0.9941
vt 0.6602 0.9863
vt 0.6584 0.9863
vt 0.6582 0.9863
vt 0.6582 0.9863
vt 0.6582 0.9881
vt 0.6660 0.9881
vt 0.6660 0.9881
vt 0.6660 0.9863
vt 0.6660 0.9863
vt 0.6584 0.9922
vt 0.6641 0.9941
vt 0.6641 0.9863
vt 0.6621 0.9863
vt 0.6621 0.9941
vt 0.6582 0.9881
vt 0.6658 0.9940
vt 0.6602 0.9863
vt 0.6621 0.9941
vt 0.6621 0.9863
vt 0.6641 0.9941
vt 0.6584 0.9941
vt 0.6582 0.9863
vt 0.6660 0.9941
vt 0.6660 0.9863
vt 0.6658 0.9863
vt 0.6641 0.9863
vt 0.6658 0.9941
vt 0.6584 0.9940
vt 0.6582 0.9923
vt 0.6660 0.9939
vt 0.6660 0.9861
vt 0.6659 0.9863
vt 0.6658 0.9922
vt 0.6660 0.9941
vt 0.6582 0.9861
vt 0.6582 0.9939
vt 0.6659 0.9941
vt 0.6660 0.9941
vt 0.6660 0.9941
vt 0.6661 0.9941
vt 0.6582 0.9863
vt 0.6582 0.9863
vt 0.6581 0.9863
vt 0.6660 0.9863
vt 0.6582 0.9941
vt 0.6660 0.9923
vt 0.6660 0.9941
vt 0.6660 0.9941
vt 0.6660 0.9940
vt 0.6660 0.9941
vt 0.6582 0.9863
vt 0.6582 0.9861
vt 0.6582 0.9863
vt 0.6660 0.9941
vt 0.6660 0.9941
vt 0.6583 0.9923
vt 0.6582 0.9924
vt 0.6582 0.9924
vt 0.6660 0.9863
vt 0.6660 0.9861
vt 0.6582 0.9941
vt 0.6582 0.9940
vt 0.6583 0.9941
vt 0.6634 0.9941
vt 0.6660 0.9924
vt 0.6582 0.9941
vt 0.6633 0.9941
vt 0.6582 0.9941
vt 0.6583 0.9941
vt 0.6580 0.9941
vt 0.6582 0.9941
vt 0.6584 0.9941
vt 0.6581 0.9941
vt 0.6660 0.9923
vt 0.6658 0.9924
vt 0.6662 0.9924
vt 0.6582 0.9941
vt 0.6581 0.9934
vt 0.6660 0.9863
vt 0.6661 0.9856
vt 0.6608 0.9863
vt 0.6608 0.9941
vt 0.6634 0.9863
vt 0.6609 0.9863
vt 0.6660 0.9863
vt 0.6662 0.9863
vt 0.6582 0.9941
vn -0.6814 0.7117 -0.1704
vn -0.6887 0.7213 -0.0739
vn -0.6808 -0.7289 -0.0713
vn -0.6735 -0.7199 0.1677
vn -0.6808 -0.7289 0.0712
vn -0.6887 0.7212 0.0738
vn 0.6606 -0.6746 -0.3293
vn 0.6423 0.6873 -0.3391
vn 0.6651 0.7107 -0.2294
vn 0.6929 0.7031 0.1599
vn 0.7020 -0.6930 0.1637
vn 0.7231 -0.6866 0.0755
vn -0.5564 -0.6413 -0.5283
vn -0.4266 -0.6810 0.5951
vn -0.6203 0.5272 0.5806
vn -0.6613 0.4641 0.5893
vn -0.6201 0.5271 -0.5809
vn -0.4264 -0.6811 -0.5952
vn -0.5565 -0.6413 0.5282
vn 0.4195 -0.7793 0.4656
vn 0.6651 0.7106 0.2294
vn 0.6737 -0.7015 0.2323
vn 0.6833 -0.6995 0.2091
vn 0.6761 0.7071 0.2070
vn -0.6611 0.4640 -0.5896
vn 0.2382 0.5243 -0.8175
vn 0.6736 -0.7016 -0.2323
vn 0.6761 0.7071 -0.2070
vn 0.6833 -0.6995 -0.2091
vn 0.6929 0.7031 -0.1598
vn 0.7172 0.6931 0.0728
vn 0.7235 -0.6903 0.0000
vn 0.7183 0.6957 0.0000
vn 0.7231 -0.6866 -0.0754
vn 0.7021 -0.6930 -0.1635
vn 0.7172 0.6931 -0.0726
vn 0.2382 0.5244 0.8175
vn 0.5141 -0.7247 0.4587
vn 0.5198 0.6000 0.6081
vn 0.6606 -0.6746 0.3293
vn 0.4195 -0.7793 -0.4655
vn 0.5198 0.6000 -0.6081
vn 0.5141 -0.7247 -0.4587
vn 0.6423 0.6873 0.3391
vn -0.7118 0.7024 0.0000
vn -0.0026 1.0000 0.0000
vn -0.7053 -0.7089 0.0000
vn 0.0140 -0.9999 0.0000
vn -0.2091 -0.6038 0.7692
vn -0.5197 0.8088 0.2752
vn -0.5690 0.7530 -0.3304
vn -0.5197 0.8088 -0.2753
vn -0.0961 0.9762 0.1942
vn -0.5407 -0.7628 0.3544
vn 0.0895 -0.9751 0.2029
vn -0.5690 0.7530 0.3304
vn -0.0960 0.9762 -0.1942
vn -0.2090 -0.6038 -0.7692
vn -0.5407 -0.7628 -0.3545
vn 0.0894 -0.9751 -0.2028
vn -0.6746 0.7055 -0.2170
vn -0.6814 0.7117 0.1703
vn -0.6656 -0.7150 0.2139
vn -0.6746 0.7055 0.2170
vn -0.6656 -0.7150 -0.2139
vn -0.6735 -0.7199 -0.1678
usemtl ColobotMesh_mat_2_[4096]
s 1
f 115/53/53 92/54/54 95/55/55
f 111/56/56 96/57/57 91/58/58
f 83/59/59 85/60/60 66/61/61
f 70/62/62 67/63/63 77/64/64
f 55/65/65 59/66/66 60/67/67
f 54/68/68 58/69/69 57/70/70
f 54/68/68 53/71/71 89/72/72
f 72/73/73 69/74/74 68/75/75
f 71/76/76 68/75/75 67/63/63
f 55/65/65 56/77/77 86/78/78
f 63/79/79 66/61/61 65/80/80
f 62/81/81 65/80/80 64/82/82
f 73/83/83 77/64/64 78/84/84
f 75/85/85 78/86/84 76/87/86
f 61/88/87 64/82/82 74/89/88
f 79/90/89 89/72/72 90/91/90
f 81/92/91 90/93/90 88/94/92
f 82/95/93 86/78/78 87/96/94
f 84/97/95 87/98/94 85/60/60
f 80/99/96 88/94/92 69/74/74
f 91/58/58 94/100/97 93/101/98
f 94/100/97 92/102/54 93/101/98
f 95/55/55 98/103/99 97/104/100
f 98/103/99 96/105/57 97/104/100
f 91/58/58 96/57/57 98/106/99
f 94/107/97 98/103/99 95/55/55
f 59/66/66 103/108/101 105/109/102
f 99/110/103 100/111/104 101/112/105
f 102/113/106 103/114/101 104/115/107
f 105/109/102 106/116/108 107/117/109
f 108/118/110 109/119/111 110/120/112
f 99/110/103 109/121/111 108/122/110
f 102/113/106 106/123/108 105/124/102
f 58/69/69 100/125/104 108/118/110
f 72/73/73 71/76/76 116/126/113
f 110/120/112 89/72/72 108/118/110
f 107/117/109 86/78/78 105/109/102
f 82/95/93 104/127/107 103/108/101
f 79/90/89 101/128/105 100/125/104
f 64/82/82 65/80/80 113/129/114
f 73/83/83 75/130/85 93/131/98
f 75/130/85 74/132/88 93/131/98
f 79/90/89 81/133/91 101/134/105
f 81/133/91 80/135/96 101/134/105
f 82/95/93 84/136/95 104/137/107
f 84/136/95 83/138/59 104/137/107
f 85/60/60 87/98/94 107/139/109
f 87/98/94 86/140/78 107/139/109
f 88/94/92 90/93/90 110/141/112
f 90/93/90 89/142/72 110/141/112
f 102/113/106 112/143/115 114/144/116
f 112/143/115 111/56/56 113/129/114
f 99/110/103 116/126/113 118/145/117
f 116/126/113 115/53/53 117/146/118
f 76/87/86 78/86/84 97/147/100
f 78/86/84 77/148/64 97/147/100
f 63/79/79 62/81/81 112/143/115
f 67/63/63 68/75/75 117/146/118
f 117/146/118 115/53/53 95/55/55
f 113/129/114 111/56/56 91/58/58
f 63/79/79 83/59/59 66/61/61
f 73/83/83 70/62/62 77/64/64
f 56/77/77 55/65/65 60/67/67
f 53/71/71 54/68/68 57/70/70
f 79/90/89 54/68/68 89/72/72
f 71/76/76 72/73/73 68/75/75
f 70/62/62 71/76/76 67/63/63
f 82/95/93 55/65/65 86/78/78
f 62/81/81 63/79/79 65/80/80
f 61/88/87 62/81/81 64/82/82
f 75/130/85 73/83/83 78/84/84
f 74/89/88 75/85/85 76/87/86
f 76/87/86 61/88/87 74/89/88
f 81/133/91 79/90/89 90/91/90
f 80/99/96 81/92/91 88/94/92
f 84/136/95 82/95/93 87/96/94
f 83/59/59 84/97/95 85/60/60
f 72/73/73 80/99/96 69/74/74
f 94/100/97 91/58/58 98/106/99
f 92/54/54 94/107/97 95/55/55
f 60/67/67 59/66/66 105/109/102
f 100/111/104 99/110/103 108/122/110
f 103/114/101 102/113/106 105/124/102
f 57/70/70 58/69/69 108/118/110
f 93/149/98 92/54/54 73/83/83
f 115/53/53 70/62/62 92/54/54
f 86/78/78 56/77/77 60/67/67
f 72/73/73 99/110/103 80/99/96
f 70/62/62 115/53/53 71/76/76
f 92/54/54 70/62/62 73/83/83
f 99/110/103 101/112/105 80/99/96
f 71/76/76 115/53/53 116/126/113
f 89/72/72 53/71/71 57/70/70
f 72/73/73 116/126/113 99/110/103
f 58/69/69 79/90/89 100/125/104
f 89/72/72 57/70/70 108/118/110
f 59/66/66 82/95/93 103/108/101
f 86/78/78 60/67/67 105/109/102
f 114/144/116 66/61/61 106/123/108
f 59/66/66 55/65/65 82/95/93
f 107/139/109 106/123/108 85/60/60
f 58/69/69 54/68/68 79/90/89
f 114/144/116 112/143/115 113/129/114
f 64/82/82 91/58/58 74/89/88
f 66/61/61 114/144/116 65/80/80
f 106/123/108 66/61/61 85/60/60
f 91/58/58 93/101/98 74/89/88
f 65/80/80 114/144/116 113/129/114
f 106/123/108 102/113/106 114/144/116
f 64/82/82 113/129/114 91/58/58
f 109/121/111 99/110/103 118/145/117
f 118/145/117 116/126/113 117/146/118
f 97/147/100 96/57/57 76/87/86
f 111/56/56 61/88/87 96/57/57
f 118/145/117 69/74/74 109/121/111
f 63/79/79 102/113/106 83/59/59
f 61/88/87 111/56/56 62/81/81
f 96/57/57 61/88/87 76/87/86
f 102/113/106 104/115/107 83/59/59
f 62/81/81 111/56/56 112/143/115
f 110/141/112 109/121/111 88/94/92
f 63/79/79 112/143/115 102/113/106
f 67/63/63 95/55/55 77/64/64
f 69/74/74 118/145/117 68/75/75
f 109/121/111 69/74/74 88/94/92
f 95/55/55 97/104/100 77/64/64
f 68/75/75 118/145/117 117/146/118
f 67/63/63 117/146/118 95/55/55
