# Blender v2.70 (sub 5) OBJ File: 'human2g2.blend'
# www.blender.org
mtllib human2g2.mtl
o ColobotMesh_1_ColobotMesh_
v 0.597992 1.020640 0.003652
v 0.400183 1.069780 -0.433858
v 0.400183 0.959080 -0.433858
v 0.253998 0.963204 -0.503264
v 0.157443 1.023610 -0.503264
v 0.532056 1.108990 -0.295044
v 0.532056 0.938922 -0.295044
v 0.626602 1.108990 -0.069473
v 0.597992 0.921613 -0.069473
v 0.525115 1.108990 0.305323
v 0.525115 0.938922 0.305323
v 0.597992 0.921613 0.076281
v 0.626602 1.108990 0.076281
v 0.389772 1.069780 0.440666
v 0.389772 0.959080 0.440665
v 0.164383 1.023610 0.503132
v 0.260939 0.963204 0.503132
v 0.537715 1.023957 -0.295040
v 0.327445 0.961831 0.476459
v 0.474219 1.089575 -0.371906
v 0.572844 0.929518 0.196282
v 0.475055 0.949332 -0.373172
v 0.284747 1.047165 -0.475883
v 0.401203 1.014410 -0.433744
v 0.207176 0.993407 0.503132
v 0.592859 1.107237 -0.185994
v 0.618994 1.015502 -0.069176
v 0.598550 0.971335 -0.033529
v 0.465304 1.089545 0.380428
v 0.530532 1.023957 0.305319
v 0.390427 1.014410 0.440549
v 0.575938 0.929555 -0.187334
v 0.613953 1.064585 -0.033318
v 0.466110 0.949298 0.381692
v 0.618988 1.015504 0.075957
v 0.329708 0.961926 -0.473856
v 0.282271 1.047070 0.478440
v 0.199993 0.993407 -0.503264
v 0.590070 1.107133 0.194942
v 0.614052 1.064566 0.040422
v 0.598702 0.971318 0.040674
v 0.631975 1.108088 0.003461
v 0.302536 1.004440 0.477357
v 0.591076 1.018472 -0.186377
v 0.469000 1.019419 0.380999
v 0.304988 1.004535 -0.474779
v 0.588031 1.018401 0.195308
v 0.478242 1.019451 -0.372480
v 0.294506 0.962773 0.490738
v 0.505179 1.099261 -0.335050
v 0.589193 0.925204 0.137202
v 0.506191 0.944110 -0.336071
v 0.221422 1.035506 -0.490577
v 0.236893 0.978396 0.503265
v 0.613784 1.107423 -0.128573
v 0.599473 0.946336 -0.051640
v 0.429774 1.079731 0.413404
v 0.590562 0.925244 -0.129213
v 0.430042 0.954270 0.413698
v 0.292231 0.962844 -0.489657
v 0.223615 1.035440 0.491683
v 0.181604 1.008530 -0.503304
v 0.612659 1.107323 0.136568
v 0.596966 0.996296 0.022130
v 0.630553 1.108153 0.039938
v 0.359328 0.960677 0.460084
v 0.439564 1.079752 -0.405783
v 0.552294 0.934073 0.252462
v 0.439866 0.954295 -0.406124
v 0.344623 1.058714 -0.458811
v 0.188546 1.008532 0.503177
v 0.565631 1.107852 -0.241897
v 0.596860 0.996309 -0.014904
v 0.497211 1.099245 0.344497
v 0.557225 0.934098 -0.242710
v 0.498186 0.944092 0.345525
v 0.365853 0.960751 -0.455685
v 0.337899 1.058627 0.463074
v 0.229946 0.978390 -0.503387
v 0.560896 1.107787 0.251658
v 0.599613 0.946319 0.058642
v 0.630447 1.108177 -0.033058
v 0.347672 1.009628 0.461210
v 0.255275 0.999149 0.491508
v 0.567747 1.021030 -0.242230
v 0.610195 1.016381 -0.128574
v 0.502157 1.021671 0.345064
v 0.431901 1.017002 0.413520
v 0.252963 0.999222 -0.490423
v 0.354516 1.009712 -0.456882
v 0.608965 1.016307 0.136548
v 0.562744 1.020985 0.251981
v 0.612005 1.040208 -0.051347
v 0.442046 1.017024 -0.405928
v 0.510427 1.021688 -0.335617
v 0.612110 1.040188 0.058299
v 0.612704 1.064923 0.003551
v 0.596635 1.020640 0.003647
v 0.400804 1.069780 -0.429488
v 0.400804 0.959080 -0.429488
v 0.256081 0.963204 -0.498200
v 0.160492 1.023610 -0.498200
v 0.531358 1.108990 -0.292062
v 0.531358 0.938922 -0.292062
v 0.624959 1.108990 -0.068747
v 0.596635 0.921613 -0.068747
v 0.524487 1.108990 0.302301
v 0.524487 0.938922 0.302301
v 0.596635 0.921613 0.075550
v 0.624959 1.108990 0.075550
v 0.390497 1.069780 0.436291
v 0.390497 0.959080 0.436290
v 0.167362 1.023610 0.498132
v 0.262953 0.963204 0.498132
v 0.531347 1.023957 -0.292058
v 0.328793 0.961831 0.471726
v 0.474100 1.089575 -0.368155
v 0.571738 0.929518 0.194350
v 0.474928 0.949332 -0.369408
v 0.286522 1.047165 -0.471093
v 0.400761 1.014410 -0.429376
v 0.215157 0.993407 0.498132
v 0.591553 1.107237 -0.184103
v 0.609098 1.015502 -0.068453
v 0.597188 0.971335 -0.033163
v 0.465274 1.089545 0.376655
v 0.524476 1.023957 0.302297
v 0.390454 1.014410 0.436174
v 0.574802 0.929555 -0.185429
v 0.612436 1.064585 -0.032953
v 0.466072 0.949298 0.377907
v 0.609093 1.015504 0.075229
v 0.331033 0.961926 -0.469086
v 0.284072 1.047070 0.473687
v 0.208286 0.993407 -0.498200
v 0.588792 1.107133 0.193024
v 0.612534 1.064566 0.040049
v 0.597338 0.971318 0.040299
v 0.630278 1.108088 0.003458
v 0.306378 1.004440 0.472615
v 0.582392 1.018472 -0.184482
v 0.465615 1.019419 0.377220
v 0.308723 1.004535 -0.470000
v 0.579479 1.018401 0.193386
v 0.474456 1.019451 -0.368723
v 0.296184 0.962773 0.485862
v 0.504750 1.099261 -0.331668
v 0.587924 0.925204 0.135861
v 0.505752 0.944110 -0.332679
v 0.223830 1.035506 -0.485640
v 0.239147 0.978396 0.498264
v 0.612270 1.107423 -0.127256
v 0.598101 0.946336 -0.051092
v 0.430099 1.079731 0.409301
v 0.589279 0.925244 -0.127889
v 0.430365 0.954270 0.409593
v 0.293932 0.962844 -0.484729
v 0.226002 1.035440 0.486798
v 0.184411 1.008530 -0.498240
v 0.611155 1.107323 0.135234
v 0.595619 0.996296 0.021940
v 0.628870 1.108153 0.039570
v 0.360357 0.960677 0.455515
v 0.439791 1.079752 -0.401694
v 0.551394 0.934073 0.249969
v 0.440090 0.954295 -0.402031
v 0.345800 1.058714 -0.454191
v 0.191284 1.008532 0.498176
v 0.564597 1.107852 -0.239446
v 0.595514 0.996309 -0.014723
v 0.496862 1.099245 0.341083
v 0.556275 0.934098 -0.240252
v 0.497827 0.944092 0.342101
v 0.366818 0.960751 -0.451096
v 0.339143 1.058627 0.458475
v 0.232270 0.978390 -0.498322
v 0.559910 1.107787 0.249173
v 0.598239 0.946319 0.058087
v 0.628766 1.108177 -0.032696
v 0.349554 1.009628 0.456629
v 0.261168 0.999149 0.486625
v 0.560076 1.021030 -0.239776
v 0.600681 1.016381 -0.127257
v 0.497333 1.021671 0.341645
v 0.430127 1.017002 0.409416
v 0.258957 0.999222 -0.485488
v 0.356101 1.009712 -0.452282
v 0.599504 1.016307 0.135214
v 0.555290 1.020985 0.249493
v 0.610508 1.040208 -0.050802
v 0.439831 1.017024 -0.401837
v 0.505244 1.021688 -0.332230
v 0.610612 1.040188 0.057747
v 0.611200 1.064923 0.003547
vt 0.694943 0.401047
vt 0.701172 0.394681
vt 0.701172 0.399403
vt 0.631684 0.469427
vt 0.631684 0.440806
vt 0.651069 0.439453
vt 0.651069 0.468750
vt 0.662762 0.406723
vt 0.662762 0.387093
vt 0.676257 0.388669
vt 0.676257 0.405978
vt 0.519847 0.466834
vt 0.519847 0.451492
vt 0.525811 0.451169
vt 0.525811 0.468478
vt 0.599437 0.408280
vt 0.599437 0.381013
vt 0.622275 0.382366
vt 0.622275 0.408956
vt 0.676206 0.470420
vt 0.663638 0.484233
vt 0.663638 0.454937
vt 0.669922 0.462678
vt 0.561599 0.470712
vt 0.561599 0.446442
vt 0.573529 0.444866
vt 0.573529 0.471456
vt 0.530921 0.376953
vt 0.530921 0.406250
vt 0.516437 0.392437
vt 0.523679 0.384695
vt 0.701172 0.498047
vt 0.688646 0.498047
vt 0.676121 0.498047
vt 0.688689 0.484233
vt 0.682486 0.404334
vt 0.682486 0.388992
vt 0.688715 0.389314
vt 0.688715 0.402690
vt 0.682486 0.419677
vt 0.688715 0.416067
vt 0.694943 0.412457
vt 0.701172 0.404125
vt 0.701172 0.408847
vt 0.592914 0.470780
vt 0.592914 0.443513
vt 0.612299 0.442160
vt 0.612299 0.470103
vt 0.592914 0.498047
vt 0.612299 0.498047
vt 0.631684 0.498047
vt 0.651069 0.498047
vt 0.635770 0.408212
vt 0.635770 0.383942
vt 0.649266 0.385518
vt 0.649266 0.407467
vt 0.635770 0.432482
vt 0.649266 0.429417
vt 0.662762 0.426352
vt 0.676257 0.423287
vt 0.501953 0.457181
vt 0.501953 0.452459
vt 0.507918 0.452136
vt 0.501953 0.466625
vt 0.501953 0.461903
vt 0.507918 0.463547
vt 0.519847 0.482177
vt 0.525811 0.485787
vt 0.553759 0.406927
vt 0.553759 0.378306
vt 0.576598 0.379660
vt 0.576598 0.407603
vt 0.553759 0.435547
vt 0.576598 0.435547
vt 0.599437 0.435547
vt 0.622275 0.435547
vt 0.657353 0.476492
vt 0.657353 0.447195
vt 0.537740 0.469223
vt 0.537740 0.449593
vt 0.549670 0.448018
vt 0.549670 0.469967
vt 0.537740 0.488852
vt 0.549670 0.491917
vt 0.561599 0.494982
vt 0.573529 0.498047
vt 0.530921 0.435547
vt 0.516437 0.421733
vt 0.523679 0.413992
vt 0.501953 0.407920
vt 0.509195 0.400178
vt 0.663595 0.498047
vt 0.676163 0.484233
vt 0.694943 0.389636
vt 0.701172 0.389959
vt 0.513882 0.465190
vt 0.513882 0.451814
vt 0.507918 0.474957
vt 0.501953 0.471347
vt 0.513882 0.478567
vn -0.178163 -0.360834 -0.915455
vn -0.967281 0.211726 0.139784
vn -0.550949 0.009651 -0.834483
vn -0.483799 -0.038776 0.874320
vn -0.867603 0.078677 -0.490995
vn -0.954227 0.173114 -0.243890
vn -0.836099 0.049335 0.546356
vn -0.944821 0.199591 0.259764
vn -0.932986 0.352390 -0.073202
vn -0.379780 -0.131430 -0.915693
vn -0.288217 -0.063752 -0.955441
vn -0.140631 -0.228212 -0.963401
vn -0.924411 0.131972 0.357836
vn -0.911134 -0.003413 0.412096
vn -0.982061 0.059879 0.178806
vn -0.740636 0.029154 -0.671274
vn -0.736439 -0.048287 -0.674779
vn -0.553079 -0.013024 -0.833027
vn -0.300107 -0.468581 0.830883
vn -0.203029 -0.244359 0.948192
vn -0.422126 -0.026404 0.906153
vn -0.935201 0.178882 -0.305616
vn -0.936829 0.029212 -0.348567
vn -0.844098 -0.036684 -0.534932
vn -0.946206 0.121805 -0.299763
vn -0.951487 0.111714 -0.286692
vn -0.944099 0.200030 -0.262041
vn -0.680476 0.022589 0.732422
vn -0.684946 -0.037472 0.727630
vn -0.824610 -0.057259 0.562796
vn -0.946547 0.121252 0.298910
vn -0.951482 0.111874 0.286648
vn -0.953397 0.172222 0.247737
vn -0.932926 0.352572 0.073086
vn -0.913130 0.407666 0.001331
vn -0.948996 0.315286 0.001355
vn -0.275390 -0.277518 -0.920404
vn -0.308960 -0.481813 -0.820000
vn -0.313404 -0.235068 -0.920066
vn -0.941878 0.179375 0.284062
vn -0.660956 0.018697 -0.750192
vn -0.379712 -0.128294 0.916166
vn -0.915683 0.130395 -0.380160
vn -0.758566 0.033073 0.650756
vn -0.478438 -0.041985 -0.877117
vn -0.410819 -0.023740 -0.911408
vn -0.192135 -0.162943 -0.967747
vn -0.200218 -0.243836 -0.948924
vn -0.227916 -0.134580 -0.964335
vn -0.879967 0.081482 0.467994
vn -0.857369 -0.039771 0.513163
vn -0.944085 0.027506 0.328552
vn -0.820770 0.045758 -0.569423
vn -0.809131 -0.053595 -0.585179
vn -0.666265 -0.033052 -0.744982
vn -0.271726 -0.273892 0.922577
vn -0.180717 -0.367937 0.912121
vn -0.312134 -0.233162 0.920982
vn -0.196140 -0.166421 0.966350
vn -0.146373 -0.237073 0.960402
vn -0.232962 -0.137535 0.962711
vn -0.294728 -0.065375 0.953342
vn -0.964618 0.211748 -0.157080
vn -0.979198 0.060375 -0.193715
vn -0.901423 -0.000720 -0.432938
vn -0.567550 0.013219 0.823233
vn -0.569749 -0.017108 0.821641
vn -0.754223 -0.052400 0.654524
vn 0.192833 0.316340 0.928840
vn 0.982624 -0.126057 -0.136231
vn 0.557851 0.003381 0.829934
vn 0.490934 0.041696 -0.870199
vn 0.875855 -0.018444 0.482222
vn 0.954512 -0.171433 0.243963
vn 0.842309 0.004195 -0.538979
vn 0.982177 -0.117781 -0.146481
vn 0.934141 -0.349298 0.073292
vn 0.387259 0.120505 0.914062
vn 0.290464 0.073334 0.954072
vn 0.140705 0.226044 0.963902
vn 0.934803 -0.057720 -0.350444
vn 0.910567 -0.069312 -0.407510
vn 0.973922 -0.145152 -0.174377
vn 0.747455 0.009955 0.664237
vn 0.746275 0.009180 0.665575
vn 0.561182 -0.000083 0.827692
vn 0.300764 0.464908 -0.832707
vn 0.197770 0.309780 -0.930012
vn 0.427749 0.024538 -0.903564
vn 0.948788 -0.099165 0.299945
vn 0.933134 -0.108183 0.342867
vn 0.847307 -0.021856 0.530654
vn 0.975632 -0.168227 0.140862
vn 0.979550 -0.157326 0.125421
vn 0.981549 -0.118376 0.150161
vn 0.687501 0.008590 -0.726133
vn 0.694557 0.005923 -0.719413
vn 0.834018 0.004365 -0.551719
vn 0.976068 -0.167722 -0.138422
vn 0.979737 -0.157470 -0.123765
vn 0.953678 -0.170551 -0.247810
vn 0.934082 -0.349479 -0.073176
vn 0.914644 -0.404258 -0.001332
vn 0.949936 -0.312441 -0.001356
vn 0.268323 0.238729 0.933280
vn 0.309674 0.478099 0.821902
vn 0.321573 0.214538 0.922260
vn 0.955454 -0.098341 -0.278274
vn 0.667986 0.008332 0.744128
vn 0.386936 0.118587 -0.914450
vn 0.926063 -0.058246 0.372847
vn 0.765328 0.010021 -0.643562
vn 0.485770 0.042167 0.873069
vn 0.415968 0.024230 0.909056
vn 0.183176 0.172874 0.967761
vn 0.195047 0.305167 0.932110
vn 0.227896 0.150779 0.961940
vn 0.888193 -0.018289 -0.459106
vn 0.860416 -0.021731 -0.509129
vn 0.940147 -0.107812 -0.323265
vn 0.827075 0.004157 0.562076
vn 0.818533 0.004289 0.574443
vn 0.675567 0.005648 0.737277
vn 0.265513 0.235790 -0.934829
vn 0.195789 0.320218 -0.926891
vn 0.320103 0.212605 -0.923219
vn 0.187419 0.177399 -0.966128
vn 0.146455 0.234838 -0.960938
vn 0.233147 0.154231 -0.960133
vn 0.297328 0.074278 -0.951882
vn 0.979983 -0.126531 0.153697
vn 0.971221 -0.145202 0.188799
vn 0.901065 -0.069859 0.428020
vn 0.574548 0.003598 -0.818463
vn 0.578290 0.000196 -0.815832
vn 0.764226 0.009332 -0.644881
vn 0.217292 -0.968954 0.117951
vn 0.207783 -0.976000 -0.065186
vn 0.276363 -0.959808 0.048913
vn 0.151797 0.988376 -0.008360
vn 0.200599 -0.975865 -0.086299
vn -0.007380 -0.999724 0.022323
vn 0.141682 0.989899 0.005114
vn 0.523387 0.822307 0.223334
vn 0.214599 -0.975759 -0.042910
vn -0.267903 0.554002 0.788232
vn 0.074166 0.995696 0.055579
vn -0.166506 0.578409 0.798573
vn -0.051544 0.605192 -0.794409
vn 0.155108 0.987612 -0.023745
vn 0.010935 0.999932 -0.004137
vn 0.141922 0.989876 -0.001761
vn 0.014986 0.999872 0.005589
vn 0.100431 0.993786 0.047999
vn 0.152241 0.988270 0.012047
vn -0.057374 0.603204 0.795520
vn -0.023457 -0.999701 0.006876
vn 0.277083 -0.960735 -0.014622
vn 0.129193 0.991535 -0.012923
vn -0.011273 -0.999920 0.005793
vn 0.276374 -0.960994 0.010348
vn 0.115676 0.992770 -0.032050
vn 0.002634 -0.999994 -0.002245
vn 0.263292 -0.964164 0.032633
vn 0.491143 0.684880 -0.538254
vn 0.098901 0.994088 -0.044815
vn 0.129739 0.991418 0.016040
vn 0.117318 0.992459 0.035527
vn 0.072909 0.995934 -0.052908
vn 0.522588 0.821717 -0.227341
vn -0.161175 0.581110 -0.797706
vn 0.276753 -0.960706 0.021266
vn 0.203815 -0.972672 -0.111215
vn 0.432163 0.779788 -0.452953
vn 0.231893 -0.971410 0.050881
vn -0.263283 0.557728 -0.787161
vn 0.155178 0.987499 0.027674
vn 0.264240 -0.964093 -0.026500
vn 0.223021 -0.972106 0.072601
vn -0.022628 -0.999718 -0.007209
vn -0.350554 0.559782 -0.750837
vn 0.214803 -0.972191 0.093303
vn 0.277448 -0.960733 -0.003841
vn 0.508030 0.810904 0.290413
vn 0.015831 -0.999584 -0.024117
vn 0.041821 0.999068 0.010694
vn -0.010782 -0.999925 -0.005795
vn 0.033262 0.999392 0.010474
vn 0.055029 0.998437 -0.009750
vn 0.002619 -0.999994 0.002298
vn 0.507641 0.810046 -0.293471
vn 0.060152 0.998119 0.011801
vn 0.041871 0.997713 -0.053070
vn -0.007095 -0.999740 -0.021675
vn 0.037219 0.999265 -0.009128
vn 0.435191 0.782463 0.445377
vn -0.354037 0.556882 0.751359
vn 0.028354 0.999559 -0.008850
vn 0.015111 -0.999613 0.023360
vn -0.000261 -0.999997 -0.002457
vn 0.043145 0.997523 0.055559
vn -0.000199 -0.999998 0.001808
vn 0.492998 0.691181 0.528414
vn 0.277666 -0.959752 -0.042168
usemtl ColobotMesh_mat_1
s off
f 84/1/1 54/2/1 25/3/1
f 86/4/2 58/5/2 9/6/2 27/7/2
f 88/8/3 59/9/3 15/10/3 31/11/3
f 90/12/4 77/13/4 3/14/4 24/15/4
f 92/16/5 68/17/5 11/18/5 30/19/5
f 1/20/6 33/21/6 28/22/6 73/23/6
f 95/24/7 52/25/7 7/26/7 18/27/7
f 12/28/8 35/29/8 41/30/8 81/31/8
f 13/32/9 65/33/9 42/34/9 40/35/9
f 83/36/10 66/37/10 19/38/10 43/39/10
f 78/40/11 83/36/11 43/39/11 37/41/11
f 61/42/12 71/43/12 16/44/12
f 85/45/13 75/46/13 32/47/13 44/48/13
f 72/49/14 85/45/14 44/48/14 26/50/14
f 55/51/15 86/4/15 27/7/15 8/52/15
f 87/53/16 76/54/16 34/55/16 45/56/16
f 74/57/17 87/53/17 45/56/17 29/58/17
f 57/59/18 88/8/18 31/11/18 14/60/18
f 79/61/19 4/62/19 60/63/19
f 62/64/20 38/65/20 89/66/20
f 70/67/21 90/12/21 24/15/21 2/68/21
f 91/69/22 51/70/22 21/71/22 47/72/22
f 63/73/23 91/69/23 47/72/23 39/74/23
f 80/75/24 92/16/24 30/19/24 10/76/24
f 33/21/25 8/52/25 27/7/25 93/77/25
f 33/21/26 93/77/26 27/7/26 28/22/26
f 28/22/27 27/7/27 9/6/27 56/78/27
f 94/79/28 69/80/28 22/81/28 48/82/28
f 67/83/29 94/79/29 48/82/29 20/84/29
f 50/85/30 95/24/30 18/27/30 6/86/30
f 35/29/31 13/87/31 40/88/31 96/89/31
f 35/29/32 96/89/32 40/88/32 41/30/32
f 41/30/33 40/88/33 1/90/33 64/91/33
f 42/34/34 82/92/34 8/52/34 33/21/34
f 42/34/35 33/21/35 97/93/35 40/35/35
f 40/35/36 97/93/36 33/21/36 1/20/36
f 84/1/37 49/94/37 54/2/37
f 49/94/38 17/95/38 54/2/38
f 43/39/39 19/38/39 49/94/39 84/1/39
f 44/48/40 32/47/40 58/5/40 86/4/40
f 45/56/41 34/55/41 59/9/41 88/8/41
f 46/96/42 36/97/42 77/13/42 90/12/42
f 47/72/43 21/71/43 68/17/43 92/16/43
f 48/82/44 22/81/44 52/25/44 95/24/44
f 31/11/45 15/10/45 66/37/45 83/36/45
f 14/60/46 31/11/46 83/36/46 78/40/46
f 61/42/47 84/1/47 71/43/47
f 84/1/48 25/3/48 71/43/48
f 37/41/49 43/39/49 84/1/49 61/42/49
f 18/27/50 7/26/50 75/46/50 85/45/50
f 6/86/51 18/27/51 85/45/51 72/49/51
f 26/50/52 44/48/52 86/4/52 55/51/52
f 30/19/53 11/18/53 76/54/53 87/53/53
f 10/76/54 30/19/54 87/53/54 74/57/54
f 29/58/55 45/56/55 88/8/55 57/59/55
f 79/61/56 60/63/56 89/66/56
f 38/65/57 79/61/57 89/66/57
f 89/66/58 60/63/58 36/97/58 46/96/58
f 62/64/59 89/66/59 53/98/59
f 5/99/60 62/64/60 53/98/60
f 53/98/61 89/66/61 46/96/61 23/100/61
f 23/100/62 46/96/62 90/12/62 70/67/62
f 35/29/63 12/28/63 51/70/63 91/69/63
f 13/87/64 35/29/64 91/69/64 63/73/64
f 39/74/65 47/72/65 92/16/65 80/75/65
f 24/15/66 3/14/66 69/80/66 94/79/66
f 2/68/67 24/15/67 94/79/67 67/83/67
f 20/84/68 48/82/68 95/24/68 50/85/68
f 181/1/69 122/3/69 151/2/69
f 183/4/70 124/7/70 106/6/70 155/5/70
f 185/8/71 128/11/71 112/10/71 156/9/71
f 187/12/72 121/15/72 100/14/72 174/13/72
f 189/16/73 127/19/73 108/18/73 165/17/73
f 98/20/74 170/23/74 125/22/74 130/21/74
f 192/24/75 115/27/75 104/26/75 149/25/75
f 109/28/76 178/31/76 138/30/76 132/29/76
f 110/32/77 137/35/77 139/34/77 162/33/77
f 180/36/78 140/39/78 116/38/78 163/37/78
f 175/40/79 134/41/79 140/39/79 180/36/79
f 158/42/80 113/44/80 168/43/80
f 182/45/81 141/48/81 129/47/81 172/46/81
f 169/49/82 123/50/82 141/48/82 182/45/82
f 152/51/83 105/52/83 124/7/83 183/4/83
f 184/53/84 142/56/84 131/55/84 173/54/84
f 171/57/85 126/58/85 142/56/85 184/53/85
f 154/59/86 111/60/86 128/11/86 185/8/86
f 176/61/87 157/63/87 101/62/87
f 159/64/88 186/66/88 135/65/88
f 167/67/89 99/68/89 121/15/89 187/12/89
f 188/69/90 144/72/90 118/71/90 148/70/90
f 160/73/91 136/74/91 144/72/91 188/69/91
f 177/75/92 107/76/92 127/19/92 189/16/92
f 130/21/93 190/77/93 124/7/93 105/52/93
f 130/21/94 125/22/94 124/7/94 190/77/94
f 125/22/95 153/78/95 106/6/95 124/7/95
f 191/79/96 145/82/96 119/81/96 166/80/96
f 164/83/97 117/84/97 145/82/97 191/79/97
f 147/85/98 103/86/98 115/27/98 192/24/98
f 132/29/99 193/89/99 137/88/99 110/87/99
f 132/29/100 138/30/100 137/88/100 193/89/100
f 138/30/101 161/91/101 98/90/101 137/88/101
f 139/34/102 130/21/102 105/52/102 179/92/102
f 139/34/103 137/35/103 194/93/103 130/21/103
f 137/35/104 98/20/104 130/21/104 194/93/104
f 181/1/105 151/2/105 146/94/105
f 146/94/106 151/2/106 114/95/106
f 140/39/107 181/1/107 146/94/107 116/38/107
f 141/48/108 183/4/108 155/5/108 129/47/108
f 142/56/109 185/8/109 156/9/109 131/55/109
f 143/96/110 187/12/110 174/13/110 133/97/110
f 144/72/111 189/16/111 165/17/111 118/71/111
f 145/82/112 192/24/112 149/25/112 119/81/112
f 128/11/113 180/36/113 163/37/113 112/10/113
f 111/60/114 175/40/114 180/36/114 128/11/114
f 158/42/115 168/43/115 181/1/115
f 181/1/116 168/43/116 122/3/116
f 134/41/117 158/42/117 181/1/117 140/39/117
f 115/27/118 182/45/118 172/46/118 104/26/118
f 103/86/119 169/49/119 182/45/119 115/27/119
f 123/50/120 152/51/120 183/4/120 141/48/120
f 127/19/121 184/53/121 173/54/121 108/18/121
f 107/76/122 171/57/122 184/53/122 127/19/122
f 126/58/123 154/59/123 185/8/123 142/56/123
f 176/61/124 186/66/124 157/63/124
f 135/65/125 186/66/125 176/61/125
f 186/66/126 143/96/126 133/97/126 157/63/126
f 159/64/127 150/98/127 186/66/127
f 102/99/128 150/98/128 159/64/128
f 150/98/129 120/100/129 143/96/129 186/66/129
f 120/100/130 167/67/130 187/12/130 143/96/130
f 132/29/131 188/69/131 148/70/131 109/28/131
f 110/87/132 160/73/132 188/69/132 132/29/132
f 136/74/133 177/75/133 189/16/133 144/72/133
f 121/15/134 191/79/134 166/80/134 100/14/134
f 99/68/135 164/83/135 191/79/135 121/15/135
f 117/84/136 147/85/136 192/24/136 145/82/136
f 61/42/137 16/44/137 113/44/137 158/42/137
f 23/100/138 70/67/138 167/67/138 120/100/138
f 50/85/139 6/86/139 103/86/139 147/85/139
f 34/55/140 76/54/140 173/54/140 131/55/140
f 53/98/141 23/100/141 120/100/141 150/98/141
f 65/33/142 13/32/142 110/32/142 162/33/142
f 59/9/143 34/55/143 131/55/143 156/9/143
f 54/2/144 17/95/144 114/95/144 151/2/144
f 70/67/145 2/68/145 99/68/145 167/67/145
f 81/31/146 41/30/146 138/30/146 178/31/146
f 58/5/147 32/47/147 129/47/147 155/5/147
f 41/30/148 64/91/148 161/91/148 138/30/148
f 1/20/149 73/23/149 170/23/149 98/20/149
f 76/54/150 11/18/150 108/18/150 173/54/150
f 60/63/151 4/62/151 101/62/151 157/63/151
f 22/81/152 69/80/152 166/80/152 119/81/152
f 17/95/153 49/94/153 146/94/153 114/95/153
f 32/47/154 75/46/154 172/46/154 129/47/154
f 52/25/155 22/81/155 119/81/155 149/25/155
f 64/91/156 1/90/156 98/90/156 161/91/156
f 80/75/157 10/76/157 107/76/157 177/75/157
f 74/57/158 29/58/158 126/58/158 171/57/158
f 69/80/159 3/14/159 100/14/159 166/80/159
f 39/74/160 80/75/160 177/75/160 136/74/160
f 29/58/161 57/59/161 154/59/161 126/58/161
f 11/18/162 68/17/162 165/17/162 108/18/162
f 63/73/163 39/74/163 136/74/163 160/73/163
f 57/59/164 14/60/164 111/60/164 154/59/164
f 38/65/165 62/64/165 159/64/165 135/65/165
f 68/17/166 21/71/166 118/71/166 165/17/166
f 15/10/167 59/9/167 156/9/167 112/10/167
f 75/46/168 7/26/168 104/26/168 172/46/168
f 21/71/169 51/70/169 148/70/169 118/71/169
f 4/62/170 79/61/170 176/61/170 101/62/170
f 73/23/171 28/22/171 125/22/171 170/23/171
f 20/84/172 50/85/172 147/85/172 117/84/172
f 5/99/173 53/98/173 150/98/173 102/99/173
f 79/61/174 38/65/174 135/65/174 176/61/174
f 14/60/175 78/40/175 175/40/175 111/60/175
f 28/22/176 56/78/176 153/78/176 125/22/176
f 7/26/177 52/25/177 149/25/177 104/26/177
f 2/68/178 67/83/178 164/83/178 99/68/178
f 78/40/179 37/41/179 134/41/179 175/40/179
f 6/86/180 72/49/180 169/49/180 103/86/180
f 56/78/181 9/6/181 106/6/181 153/78/181
f 37/41/182 61/42/182 158/42/182 134/41/182
f 67/83/183 20/84/183 117/84/183 164/83/183
f 16/44/184 71/43/184 168/43/184 113/44/184
f 13/87/185 63/73/185 160/73/185 110/87/185
f 19/38/186 66/37/186 163/37/186 116/38/186
f 72/49/187 26/50/187 123/50/187 169/49/187
f 49/94/188 19/38/188 116/38/188 146/94/188
f 3/14/189 77/13/189 174/13/189 100/14/189
f 26/50/190 55/51/190 152/51/190 123/50/190
f 62/64/191 5/99/191 102/99/191 159/64/191
f 66/37/192 15/10/192 112/10/192 163/37/192
f 51/70/193 12/28/193 109/28/193 148/70/193
f 8/52/194 82/92/194 179/92/194 105/52/194
f 77/13/195 36/97/195 133/97/195 174/13/195
f 25/3/196 54/2/196 151/2/196 122/3/196
f 12/28/197 81/31/197 178/31/197 109/28/197
f 36/97/198 60/63/198 157/63/198 133/97/198
f 55/51/199 8/52/199 105/52/199 152/51/199
f 82/92/200 42/34/200 139/34/200 179/92/200
f 9/6/201 58/5/201 155/5/201 106/6/201
f 42/34/202 65/33/202 162/33/202 139/34/202
f 71/43/203 25/3/203 122/3/203 168/43/203
f 10/76/204 74/57/204 171/57/204 107/76/204
