# Blender v2.77 (sub 0) OBJ File: 'human2g4.blend'
# www.blender.org
mtllib human2g4.mtl
o ColobotMesh_1.002_ColobotMesh_.002
v 0.593957 0.962116 0.052065
v 0.593957 1.008039 0.061200
v 0.593957 1.046972 0.087214
v 0.593957 1.072985 0.126146
v 0.593957 1.082120 0.172069
v 0.593957 1.072985 0.217993
v 0.593957 1.046972 0.256925
v 0.593957 1.008040 0.282938
v 0.593957 0.962116 0.292073
v 0.593957 0.916193 0.282938
v 0.593956 0.877261 0.256925
v 0.593956 0.851247 0.217993
v 0.593956 0.842112 0.172069
v 0.593956 0.851247 0.126146
v 0.593956 0.877261 0.087213
v 0.593957 0.916193 0.061200
v 0.593896 0.962116 0.061250
v 0.593896 1.004524 0.069686
v 0.593896 1.040477 0.093708
v 0.593896 1.064499 0.129661
v 0.593896 1.072935 0.172069
v 0.593896 1.064499 0.214477
v 0.593896 1.040477 0.250430
v 0.593896 1.004524 0.274452
v 0.593896 0.962116 0.282888
v 0.593896 0.919708 0.274452
v 0.593896 0.883755 0.250430
v 0.593896 0.859733 0.214477
v 0.593896 0.851297 0.172069
v 0.593896 0.859733 0.129661
v 0.593896 0.883755 0.093708
v 0.593896 0.919708 0.069686
v 0.591851 0.962116 0.052065
v 0.591851 1.008039 0.061200
v 0.591852 1.046972 0.087214
v 0.591852 1.072985 0.126146
v 0.591852 1.082120 0.172069
v 0.591852 1.072985 0.217993
v 0.591852 1.046972 0.256925
v 0.591851 1.008040 0.282938
v 0.591851 0.962116 0.292073
v 0.591851 0.916193 0.282938
v 0.591851 0.877261 0.256925
v 0.591851 0.851247 0.217993
v 0.591851 0.842112 0.172069
v 0.591851 0.851247 0.126146
v 0.591851 0.877261 0.087213
v 0.591851 0.916193 0.061200
v 0.591912 0.962116 0.061250
v 0.591912 1.004524 0.069686
v 0.591912 1.040477 0.093708
v 0.591912 1.064499 0.129661
v 0.591912 1.072935 0.172069
v 0.591912 1.064499 0.214477
v 0.591912 1.040477 0.250430
v 0.591912 1.004524 0.274452
v 0.591912 0.962116 0.282888
v 0.591912 0.919708 0.274452
v 0.591912 0.883755 0.250430
v 0.591912 0.859733 0.214477
v 0.591912 0.851297 0.172069
v 0.591912 0.859733 0.129661
v 0.591912 0.883755 0.093708
v 0.591912 0.919708 0.069686
v 0.593957 0.962116 -0.052065
v 0.593957 1.008039 -0.061200
v 0.593957 1.046972 -0.087213
v 0.593957 1.072985 -0.126145
v 0.593957 1.082120 -0.172069
v 0.593957 1.072985 -0.217992
v 0.593957 1.046972 -0.256924
v 0.593957 1.008040 -0.282938
v 0.593957 0.962116 -0.292073
v 0.593957 0.916193 -0.282938
v 0.593956 0.877261 -0.256925
v 0.593956 0.851247 -0.217992
v 0.593956 0.842112 -0.172069
v 0.593956 0.851247 -0.126145
v 0.593956 0.877261 -0.087213
v 0.593957 0.916193 -0.061200
v 0.593896 0.962116 -0.061250
v 0.593896 1.004524 -0.069686
v 0.593896 1.040477 -0.093708
v 0.593896 1.064499 -0.129660
v 0.593896 1.072935 -0.172069
v 0.593896 1.064499 -0.214477
v 0.593896 1.040477 -0.250429
v 0.593896 1.004524 -0.274452
v 0.593896 0.962116 -0.282888
v 0.593896 0.919708 -0.274452
v 0.593896 0.883755 -0.250430
v 0.593896 0.859733 -0.214477
v 0.593896 0.851297 -0.172069
v 0.593896 0.859733 -0.129660
v 0.593896 0.883755 -0.093708
v 0.593896 0.919708 -0.069686
v 0.591851 0.962116 -0.052065
v 0.591851 1.008039 -0.061200
v 0.591852 1.046972 -0.087213
v 0.591852 1.072985 -0.126145
v 0.591852 1.082120 -0.172069
v 0.591852 1.072985 -0.217992
v 0.591852 1.046972 -0.256924
v 0.591851 1.008040 -0.282938
v 0.591851 0.962116 -0.292073
v 0.591851 0.916193 -0.282938
v 0.591851 0.877261 -0.256925
v 0.591851 0.851247 -0.217992
v 0.591851 0.842112 -0.172069
v 0.591851 0.851247 -0.126145
v 0.591851 0.877261 -0.087213
v 0.591851 0.916193 -0.061200
v 0.591912 0.962116 -0.061250
v 0.591912 1.004524 -0.069686
v 0.591912 1.040477 -0.093708
v 0.591912 1.064499 -0.129660
v 0.591912 1.072935 -0.172069
v 0.591912 1.064499 -0.214477
v 0.591912 1.040477 -0.250429
v 0.591912 1.004524 -0.274452
v 0.591912 0.962116 -0.282888
v 0.591912 0.919708 -0.274452
v 0.591912 0.883755 -0.250430
v 0.591912 0.859733 -0.214477
v 0.591912 0.851297 -0.172069
v 0.591912 0.859733 -0.129660
v 0.591912 0.883755 -0.093708
v 0.591912 0.919708 -0.069686
vt 0.6620 0.9934
vt 0.6620 0.9934
vt 0.6620 0.9934
vt 0.6620 0.9934
vt 0.6620 0.9934
vt 0.6620 0.9934
vt 0.6620 0.9934
vt 0.6620 0.9934
vt 0.6620 0.9934
vt 0.6620 0.9934
vt 0.6620 0.9934
vt 0.6620 0.9934
vt 0.6620 0.9934
vt 0.6620 0.9934
vt 0.6620 0.9934
vt 0.6620 0.9934
vt 0.6620 0.9934
vt 0.6620 0.9934
vt 0.6620 0.9934
vt 0.6620 0.9934
vt 0.6620 0.9934
vt 0.6620 0.9934
vt 0.6620 0.9934
vt 0.6620 0.9934
vt 0.6620 0.9934
vt 0.6620 0.9934
vt 0.6620 0.9934
vt 0.6620 0.9934
vt 0.6620 0.9934
vt 0.6620 0.9934
vt 0.6620 0.9934
vt 0.6620 0.9934
vt 0.6620 0.9934
vt 0.6620 0.9934
vt 0.6620 0.9934
vt 0.6620 0.9934
vt 0.6620 0.9934
vt 0.6620 0.9934
vt 0.6620 0.9934
vt 0.6620 0.9934
vt 0.6620 0.9934
vt 0.6620 0.9934
vt 0.6620 0.9934
vt 0.6620 0.9934
vt 0.6620 0.9934
vt 0.6620 0.9934
vt 0.6620 0.9934
vt 0.6620 0.9934
vt 0.6620 0.9934
vt 0.6620 0.9934
vt 0.6620 0.9934
vt 0.6620 0.9934
vt 0.6620 0.9934
vt 0.6620 0.9934
vt 0.6620 0.9934
vt 0.6620 0.9934
vt 0.6620 0.9934
vt 0.6620 0.9934
vt 0.6620 0.9934
vt 0.6620 0.9934
vt 0.6620 0.9934
vt 0.6620 0.9934
vt 0.6620 0.9934
vt 0.6620 0.9934
vt 0.6620 0.9934
vt 0.6620 0.9934
vt 0.6620 0.9934
vt 0.6620 0.9934
vt 0.6620 0.9934
vt 0.6620 0.9934
vt 0.6620 0.9934
vt 0.6620 0.9934
vt 0.6620 0.9934
vt 0.6620 0.9934
vt 0.6620 0.9934
vt 0.6620 0.9934
vt 0.6620 0.9934
vt 0.6620 0.9934
vt 0.6620 0.9934
vt 0.6620 0.9934
vt 0.6620 0.9934
vt 0.6620 0.9934
vt 0.6620 0.9934
vt 0.6620 0.9934
vt 0.6620 0.9934
vt 0.6620 0.9934
vt 0.6620 0.9934
vt 0.6620 0.9934
vt 0.6620 0.9934
vt 0.6620 0.9934
vt 0.6620 0.9934
vt 0.6620 0.9934
vt 0.6620 0.9934
vt 0.6620 0.9934
vt 0.6620 0.9934
vt 0.6620 0.9934
vt 0.6620 0.9934
vt 0.6620 0.9934
vt 0.6620 0.9934
vt 0.6620 0.9934
vt 0.6620 0.9934
vt 0.6620 0.9934
vt 0.6620 0.9934
vt 0.6620 0.9934
vt 0.6620 0.9934
vt 0.6620 0.9934
vt 0.6620 0.9934
vt 0.6620 0.9934
vt 0.6620 0.9934
vt 0.6620 0.9934
vt 0.6620 0.9934
vt 0.6620 0.9934
vt 0.6620 0.9934
vt 0.6620 0.9934
vt 0.6620 0.9934
vt 0.6620 0.9934
vt 0.6620 0.9934
vt 0.6620 0.9934
vt 0.6620 0.9934
vt 0.6620 0.9934
vt 0.6620 0.9934
vt 0.6620 0.9934
vt 0.6620 0.9934
vt 0.6620 0.9934
vt 0.6620 0.9934
vt 0.6620 0.9934
vt 0.6620 0.9934
vt 0.6620 0.9934
vn -0.6679 0.2848 0.6876
vn -0.7513 -0.4667 -0.4667
vn -0.7513 -0.2525 -0.6097
vn -0.6679 -0.6876 -0.2848
vn -0.7513 0.4667 0.4667
vn -0.6679 -0.5263 -0.5263
vn 0.6679 0.2848 0.6876
vn 0.7513 0.0000 -0.6600
vn 0.7513 -0.2525 -0.6097
vn 0.6679 0.5263 -0.5262
vn 0.7513 -0.6097 0.2525
vn 0.7513 -0.4667 0.4667
vn -0.6679 0.0000 0.7442
vn -0.7513 0.0000 -0.6600
vn 0.7513 -0.6600 0.0000
vn 0.6679 0.6876 0.2848
vn 0.7513 -0.6097 -0.2525
vn -0.6679 0.2848 -0.6876
vn -0.7513 -0.4667 0.4667
vn -0.6679 0.5263 -0.5263
vn -0.6679 0.7442 0.0000
vn -0.7513 -0.6097 0.2525
vn -0.7513 -0.6600 0.0000
vn 0.6679 -0.6876 0.2848
vn 0.7513 0.6600 0.0000
vn 0.7513 0.6097 -0.2525
vn -0.7513 0.2525 -0.6097
vn -0.6679 -0.2848 0.6876
vn -0.7513 -0.6097 -0.2525
vn -0.6679 0.6876 0.2848
vn -0.6679 -0.6876 0.2848
vn -0.7513 0.4667 -0.4667
vn -0.7513 0.6097 -0.2525
vn 0.6679 0.5262 0.5263
vn 0.7513 -0.4667 -0.4667
vn -0.6679 0.5262 0.5263
vn -0.6679 0.0000 -0.7442
vn -0.7513 0.2525 0.6097
vn -0.7513 0.0000 0.6600
vn -0.6679 -0.5263 0.5263
vn 0.6679 -0.5263 -0.5263
vn 0.7513 0.2525 0.6097
vn 0.7513 0.4667 0.4667
vn 0.7513 0.4667 -0.4667
vn -0.6679 0.6876 -0.2848
vn -0.7513 -0.2525 0.6097
vn 0.6679 0.6876 -0.2848
vn 0.6679 0.0000 -0.7442
vn 0.7513 0.0000 0.6600
vn 0.6679 -0.6876 -0.2848
vn 0.7513 0.6097 0.2525
vn -0.7513 0.6600 0.0000
vn -0.6679 -0.7442 0.0000
vn -0.6679 -0.2848 -0.6876
vn 0.6679 0.0000 0.7442
vn 0.7513 0.2525 -0.6097
vn 0.6679 0.2848 -0.6876
vn 0.7513 -0.2525 0.6097
vn 0.6679 -0.5262 0.5263
vn -0.7513 0.6097 0.2525
vn 0.6679 -0.2848 0.6876
vn 0.6679 -0.2848 -0.6876
vn 0.6679 0.7442 0.0000
vn 0.6679 -0.7442 0.0000
vn -0.6679 0.5262 -0.5263
vn 0.6679 0.5263 0.5262
vn -0.6679 0.5263 0.5263
vn 0.6679 0.5262 -0.5263
vn 0.6679 -0.5263 0.5263
vn 0.6679 -0.5262 -0.5263
usemtl ColobotMesh_mat_1_[4098]
s 1
f 40/1/1 55/2/2 56/3/3
f 46/4/4 63/5/5 47/6/6
f 8/7/7 25/8/8 24/9/9
f 3/10/10 20/11/11 19/12/12
f 41/13/13 56/3/3 57/14/14
f 21/15/15 6/16/16 22/17/17
f 34/18/18 51/19/19 35/20/20
f 37/21/21 52/22/22 53/23/23
f 12/24/24 29/25/25 28/26/26
f 41/13/13 58/27/27 42/28/28
f 37/21/21 54/29/29 38/30/30
f 44/31/31 59/32/32 60/33/33
f 22/17/17 7/34/34 23/35/35
f 39/36/36 54/29/29 55/2/2
f 33/37/37 64/38/38 49/39/39
f 43/40/40 58/27/27 59/32/32
f 15/41/41 32/42/42 31/43/43
f 27/44/44 12/24/24 28/26/26
f 35/20/20 52/22/22 36/45/45
f 33/37/37 50/46/46 34/18/18
f 4/47/47 21/15/15 20/11/11
f 32/42/42 1/48/48 17/49/49
f 29/25/25 14/50/50 30/51/51
f 44/31/31 61/52/52 45/53/53
f 47/6/6 64/38/38 48/54/54
f 9/55/55 26/56/56 25/8/8
f 17/49/49 2/57/57 18/58/58
f 14/50/50 31/43/43 30/51/51
f 26/56/56 11/59/59 27/44/44
f 45/53/53 62/60/60 46/4/4
f 23/35/35 8/7/7 24/9/9
f 10/61/61 43/40/40 11/59/59
f 15/41/41 48/54/54 16/62/62
f 2/57/57 19/12/12 18/58/58
f 14/50/50 47/6/6 15/41/41
f 23/35/35 54/29/29 22/17/17
f 32/42/42 63/5/5 31/43/43
f 31/43/43 62/60/60 30/51/51
f 24/9/9 55/2/2 23/35/35
f 28/26/26 59/32/32 27/44/44
f 30/51/51 61/52/52 29/25/25
f 17/49/49 64/38/38 32/42/42
f 25/8/8 56/3/3 24/9/9
f 21/15/15 52/22/22 20/11/11
f 8/7/7 41/13/13 9/55/55
f 4/47/47 37/21/21 5/63/63
f 16/62/62 33/37/37 1/48/48
f 12/24/24 45/53/53 13/64/64
f 6/16/16 39/36/36 7/34/34
f 29/25/25 60/33/33 28/26/26
f 22/17/17 53/23/23 21/15/15
f 18/58/58 49/39/39 17/49/49
f 13/64/64 46/4/4 14/50/50
f 9/55/55 42/28/28 10/61/61
f 5/63/63 38/30/30 6/16/16
f 1/48/48 34/18/18 2/57/57
f 18/58/58 51/19/19 50/46/46
f 11/59/59 44/31/31 12/24/24
f 2/57/57 35/20/20 3/10/10
f 3/10/10 36/45/45 4/47/47
f 27/44/44 58/27/27 26/56/56
f 20/11/11 51/19/19 19/12/12
f 7/34/34 40/1/1 8/7/7
f 26/56/56 57/14/14 25/8/8
f 104/65/18 119/66/19 103/67/65
f 111/68/40 126/69/33 110/70/31
f 89/71/49 72/72/57 88/73/58
f 84/74/17 67/75/66 83/76/35
f 105/77/37 120/78/46 104/65/18
f 85/79/15 70/80/47 69/81/63
f 115/82/2 98/83/1 99/84/67
f 101/85/21 116/86/29 100/87/30
f 93/88/25 76/89/50 92/90/51
f 122/91/38 105/77/37 106/92/54
f 118/93/22 101/85/21 102/94/45
f 108/95/4 123/96/5 107/97/6
f 86/98/11 71/99/68 70/80/47
f 103/67/65 118/93/22 102/94/45
f 97/100/13 128/101/27 112/102/28
f 107/97/6 122/91/38 106/92/54
f 96/103/56 79/104/69 95/105/44
f 91/106/43 76/89/50 75/107/70
f 116/86/29 99/84/67 100/87/30
f 114/108/3 97/100/13 98/83/1
f 84/74/17 69/81/63 68/109/16
f 96/103/56 65/110/55 80/111/61
f 93/88/25 78/112/24 77/113/64
f 125/114/52 108/95/4 109/115/53
f 128/101/27 111/68/40 112/102/28
f 90/116/42 73/117/48 89/71/49
f 81/118/8 66/119/7 65/110/55
f 95/105/44 78/112/24 94/120/26
f 90/116/42 75/107/70 74/121/62
f 110/70/31 125/114/52 109/115/53
f 87/122/12 72/72/57 71/99/68
f 107/97/6 74/121/62 75/107/70
f 112/102/28 79/104/69 80/111/61
f 83/76/35 66/119/7 82/123/9
f 111/68/40 78/112/24 79/104/69
f 118/93/22 87/122/12 86/98/11
f 127/124/32 96/103/56 95/105/44
f 126/69/33 95/105/44 94/120/26
f 119/66/19 88/73/58 87/122/12
f 123/96/5 92/90/51 91/106/43
f 125/114/52 94/120/26 93/88/25
f 128/101/27 81/118/8 96/103/56
f 120/78/46 89/71/49 88/73/58
f 116/86/29 85/79/15 84/74/17
f 105/77/37 72/72/57 73/117/48
f 101/85/21 68/109/16 69/81/63
f 97/100/13 80/111/61 65/110/55
f 109/115/53 76/89/50 77/113/64
f 103/67/65 70/80/47 71/99/68
f 124/125/60 93/88/25 92/90/51
f 117/126/23 86/98/11 85/79/15
f 113/127/14 82/123/9 81/118/8
f 110/70/31 77/113/64 78/112/24
f 106/92/54 73/117/48 74/121/62
f 102/94/45 69/81/63 70/80/47
f 98/83/1 65/110/55 66/119/7
f 82/123/9 115/82/2 83/76/35
f 108/95/4 75/107/70 76/89/50
f 99/84/67 66/119/7 67/75/66
f 100/87/30 67/75/66 68/109/16
f 122/91/38 91/106/43 90/116/42
f 115/82/2 84/74/17 83/76/35
f 104/65/18 71/99/68 72/72/57
f 121/128/39 90/116/42 89/71/49
f 40/1/1 39/36/36 55/2/2
f 46/4/4 62/60/60 63/5/5
f 8/7/7 9/55/55 25/8/8
f 3/10/10 4/47/47 20/11/11
f 41/13/13 40/1/1 56/3/3
f 21/15/15 5/63/63 6/16/16
f 34/18/18 50/46/46 51/19/19
f 37/21/21 36/45/45 52/22/22
f 12/24/24 13/64/64 29/25/25
f 41/13/13 57/14/14 58/27/27
f 37/21/21 53/23/23 54/29/29
f 44/31/31 43/40/40 59/32/32
f 22/17/17 6/16/16 7/34/34
f 39/36/36 38/30/30 54/29/29
f 33/37/37 48/54/54 64/38/38
f 43/40/40 42/28/28 58/27/27
f 15/41/41 16/62/62 32/42/42
f 27/44/44 11/59/59 12/24/24
f 35/20/20 51/19/19 52/22/22
f 33/37/37 49/39/39 50/46/46
f 4/47/47 5/63/63 21/15/15
f 32/42/42 16/62/62 1/48/48
f 29/25/25 13/64/64 14/50/50
f 44/31/31 60/33/33 61/52/52
f 47/6/6 63/5/5 64/38/38
f 9/55/55 10/61/61 26/56/56
f 17/49/49 1/48/48 2/57/57
f 14/50/50 15/41/41 31/43/43
f 26/56/56 10/61/61 11/59/59
f 45/53/53 61/52/52 62/60/60
f 23/35/35 7/34/34 8/7/7
f 10/61/61 42/28/28 43/40/40
f 15/41/41 47/6/6 48/54/54
f 2/57/57 3/10/10 19/12/12
f 14/50/50 46/4/4 47/6/6
f 23/35/35 55/2/2 54/29/29
f 32/42/42 64/38/38 63/5/5
f 31/43/43 63/5/5 62/60/60
f 24/9/9 56/3/3 55/2/2
f 28/26/26 60/33/33 59/32/32
f 30/51/51 62/60/60 61/52/52
f 17/49/49 49/39/39 64/38/38
f 25/8/8 57/14/14 56/3/3
f 21/15/15 53/23/23 52/22/22
f 8/7/7 40/1/1 41/13/13
f 4/47/47 36/45/45 37/21/21
f 16/62/62 48/54/54 33/37/37
f 12/24/24 44/31/31 45/53/53
f 6/16/16 38/30/30 39/36/36
f 29/25/25 61/52/52 60/33/33
f 22/17/17 54/29/29 53/23/23
f 18/58/58 50/46/46 49/39/39
f 13/64/64 45/53/53 46/4/4
f 9/55/55 41/13/13 42/28/28
f 5/63/63 37/21/21 38/30/30
f 1/48/48 33/37/37 34/18/18
f 18/58/58 19/12/12 51/19/19
f 11/59/59 43/40/40 44/31/31
f 2/57/57 34/18/18 35/20/20
f 3/10/10 35/20/20 36/45/45
f 27/44/44 59/32/32 58/27/27
f 20/11/11 52/22/22 51/19/19
f 7/34/34 39/36/36 40/1/1
f 26/56/56 58/27/27 57/14/14
f 104/65/18 120/78/46 119/66/19
f 111/68/40 127/124/32 126/69/33
f 89/71/49 73/117/48 72/72/57
f 84/74/17 68/109/16 67/75/66
f 105/77/37 121/128/39 120/78/46
f 85/79/15 86/98/11 70/80/47
f 115/82/2 114/108/3 98/83/1
f 101/85/21 117/126/23 116/86/29
f 93/88/25 77/113/64 76/89/50
f 122/91/38 121/128/39 105/77/37
f 118/93/22 117/126/23 101/85/21
f 108/95/4 124/125/60 123/96/5
f 86/98/11 87/122/12 71/99/68
f 103/67/65 119/66/19 118/93/22
f 97/100/13 113/127/14 128/101/27
f 107/97/6 123/96/5 122/91/38
f 96/103/56 80/111/61 79/104/69
f 91/106/43 92/90/51 76/89/50
f 116/86/29 115/82/2 99/84/67
f 114/108/3 113/127/14 97/100/13
f 84/74/17 85/79/15 69/81/63
f 96/103/56 81/118/8 65/110/55
f 93/88/25 94/120/26 78/112/24
f 125/114/52 124/125/60 108/95/4
f 128/101/27 127/124/32 111/68/40
f 90/116/42 74/121/62 73/117/48
f 81/118/8 82/123/9 66/119/7
f 95/105/44 79/104/69 78/112/24
f 90/116/42 91/106/43 75/107/70
f 110/70/31 126/69/33 125/114/52
f 87/122/12 88/73/58 72/72/57
f 107/97/6 106/92/54 74/121/62
f 112/102/28 111/68/40 79/104/69
f 83/76/35 67/75/66 66/119/7
f 111/68/40 110/70/31 78/112/24
f 118/93/22 119/66/19 87/122/12
f 127/124/32 128/101/27 96/103/56
f 126/69/33 127/124/32 95/105/44
f 119/66/19 120/78/46 88/73/58
f 123/96/5 124/125/60 92/90/51
f 125/114/52 126/69/33 94/120/26
f 128/101/27 113/127/14 81/118/8
f 120/78/46 121/128/39 89/71/49
f 116/86/29 117/126/23 85/79/15
f 105/77/37 104/65/18 72/72/57
f 101/85/21 100/87/30 68/109/16
f 97/100/13 112/102/28 80/111/61
f 109/115/53 108/95/4 76/89/50
f 103/67/65 102/94/45 70/80/47
f 124/125/60 125/114/52 93/88/25
f 117/126/23 118/93/22 86/98/11
f 113/127/14 114/108/3 82/123/9
f 110/70/31 109/115/53 77/113/64
f 106/92/54 105/77/37 73/117/48
f 102/94/45 101/85/21 69/81/63
f 98/83/1 97/100/13 65/110/55
f 82/123/9 114/108/3 115/82/2
f 108/95/4 107/97/6 75/107/70
f 99/84/67 98/83/1 66/119/7
f 100/87/30 99/84/67 67/75/66
f 122/91/38 123/96/5 91/106/43
f 115/82/2 116/86/29 84/74/17
f 104/65/18 103/67/65 71/99/68
f 121/128/39 122/91/38 90/116/42
o ColobotMesh_1.001_ColobotMesh_.001
v 0.592904 0.947935 0.287706
v 0.592904 0.976636 0.287706
v 0.244203 0.947935 0.511329
v 0.232406 0.976636 0.511329
v 0.244203 0.947935 -0.508417
v 0.232406 0.976636 -0.508417
v 0.592904 0.976636 -0.286744
v 0.593369 0.947935 -0.056550
v 0.593369 0.976636 -0.056550
v 0.593369 0.976636 0.059730
v 0.593369 0.947935 0.059730
v 0.592904 0.947935 -0.286744
v 0.591264 0.947935 -0.056550
v 0.591264 0.976636 -0.056550
v 0.591264 0.976636 0.059730
v 0.591264 0.947935 0.059730
v 0.592904 0.962286 0.289490
v 0.238304 0.962286 -0.508417
v 0.238304 0.962286 0.511329
v 0.592904 0.962286 -0.288528
v 0.234249 0.976492 -0.503293
v 0.245927 0.948079 -0.503293
v 0.234249 0.976492 0.506195
v 0.245927 0.948079 0.506195
v 0.591121 0.976492 0.284822
v 0.591121 0.948079 0.284822
v 0.591121 0.976492 -0.283850
v 0.591121 0.948079 -0.283850
v 0.591121 0.962286 0.286588
v 0.240088 0.962286 -0.503293
v 0.240088 0.962286 0.506195
v 0.591121 0.962286 -0.285616
vt 0.6599 0.9902
vt 0.6582 0.9863
vt 0.6599 0.9863
vt 0.6617 0.9941
vt 0.6626 0.9941
vt 0.6626 0.9941
vt 0.6643 0.9863
vt 0.6643 0.9902
vt 0.6643 0.9902
vt 0.6617 0.9863
vt 0.6617 0.9941
vt 0.6626 0.9863
vt 0.6617 0.9863
vt 0.6626 0.9863
vt 0.6660 0.9902
vt 0.6643 0.9941
vt 0.6599 0.9941
vt 0.6582 0.9902
vt 0.6599 0.9863
vt 0.6643 0.9941
vt 0.6660 0.9941
vt 0.6599 0.9902
vt 0.6582 0.9863
vt 0.6582 0.9902
vt 0.6660 0.9863
vt 0.6643 0.9863
vt 0.6660 0.9863
vt 0.6660 0.9902
vt 0.6582 0.9941
vt 0.6599 0.9941
vt 0.6582 0.9941
vt 0.6660 0.9941
vn 0.2418 -0.0026 0.9703
vn -0.5046 -0.7318 0.4580
vn 0.1770 -0.5174 0.8372
vn 0.5773 0.5773 -0.5773
vn -0.5773 0.5773 0.5773
vn 0.5773 0.5773 0.5773
vn 0.7906 -0.5989 0.1277
vn 0.2390 -0.0026 -0.9710
vn 0.9609 0.0028 0.2767
vn -0.5773 -0.5773 -0.5773
vn -0.5773 0.5773 -0.5773
vn 0.5773 -0.5773 0.5773
vn 0.5773 -0.5773 -0.5773
vn -0.5773 -0.5773 0.5773
vn -0.7394 -0.3033 -0.6011
vn 0.1793 0.5177 -0.8365
vn 0.1815 0.5179 0.8359
vn -0.7381 -0.3027 0.6029
vn 0.7902 -0.5988 -0.1299
vn 0.7902 0.5984 0.1321
vn -0.6960 0.4971 -0.5182
vn 0.9601 0.0028 -0.2794
vn -0.3452 -0.6102 -0.7130
vn -0.5570 -0.2308 -0.7978
vn -0.5054 -0.7323 -0.4563
vn 0.1748 -0.5173 -0.8377
vn -0.3435 -0.6098 0.7143
vn -0.5553 -0.2301 0.7992
vn -0.6950 0.4970 0.5195
vn 0.7898 0.5984 -0.1342
vn -0.6602 0.4448 -0.6052
vn -0.6591 0.4448 0.6064
usemtl ColobotMesh_mat_2_[4096]
s 1
f 160/129/71 150/130/72 156/131/73
f 137/132/74 143/133/75 138/134/76
f 129/135/77 157/136/78 145/137/79
f 141/138/80 143/133/75 142/139/81
f 139/140/82 141/138/80 136/141/83
f 138/134/76 144/142/84 139/140/82
f 136/141/83 142/139/81 137/132/74
f 159/143/85 153/144/86 157/136/78
f 155/145/87 158/146/88 160/129/71
f 140/147/89 160/129/71 156/131/73
f 130/148/90 153/144/86 151/149/91
f 148/150/92 133/151/93 146/152/94
f 130/148/90 157/136/78 153/144/86
f 152/153/95 157/136/78 154/154/96
f 158/146/88 133/151/93 150/130/72
f 145/137/79 131/155/97 129/135/77
f 130/148/90 147/156/98 145/137/79
f 131/155/97 159/143/85 152/153/95
f 133/151/93 140/147/89 156/131/73
f 149/157/99 146/152/94 158/146/88
f 131/155/97 152/153/95 154/154/96
f 147/156/98 151/149/91 159/143/85
f 160/129/71 135/158/100 155/145/87
f 135/158/100 134/159/101 149/157/99
f 135/158/100 146/152/94 134/159/101
f 132/160/102 130/148/90 151/149/91
f 150/130/72 133/151/93 156/131/73
f 129/135/77 131/155/97 154/154/96
f 155/145/87 135/158/100 149/157/99
f 136/141/83 138/134/76 139/140/82
f 160/129/71 158/146/88 150/130/72
f 137/132/74 142/139/81 143/133/75
f 129/135/77 154/154/96 157/136/78
f 141/138/80 144/142/84 143/133/75
f 139/140/82 144/142/84 141/138/80
f 138/134/76 143/133/75 144/142/84
f 136/141/83 141/138/80 142/139/81
f 159/143/85 151/149/91 153/144/86
f 155/145/87 149/157/99 158/146/88
f 140/147/89 148/150/92 160/129/71
f 148/150/92 140/147/89 133/151/93
f 130/148/90 145/137/79 157/136/78
f 152/153/95 159/143/85 157/136/78
f 158/146/88 146/152/94 133/151/93
f 145/137/79 147/156/98 131/155/97
f 130/148/90 132/160/102 147/156/98
f 131/155/97 147/156/98 159/143/85
f 149/157/99 134/159/101 146/152/94
f 147/156/98 132/160/102 151/149/91
f 160/129/71 148/150/92 135/158/100
f 135/158/100 148/150/92 146/152/94
f 136/141/83 137/132/74 138/134/76
o ColobotMesh_1_ColobotMesh_
v 0.592904 0.962116 0.172069
v 0.592904 0.962116 0.057393
v 0.592904 1.006001 0.066122
v 0.592904 1.043204 0.090981
v 0.592904 1.068063 0.128184
v 0.592904 1.076792 0.172069
v 0.592904 1.068063 0.215954
v 0.592904 1.043204 0.253157
v 0.592904 1.006001 0.278016
v 0.592904 0.962116 0.286745
v 0.592904 0.918232 0.278016
v 0.592904 0.881028 0.253157
v 0.592904 0.856170 0.215954
v 0.592904 0.847440 0.172069
v 0.592904 0.856170 0.128184
v 0.592904 0.881028 0.090981
v 0.592904 0.918232 0.066122
v 0.592904 0.962116 -0.172069
v 0.592904 0.962116 -0.057393
v 0.592904 1.006001 -0.066122
v 0.592904 1.043204 -0.090981
v 0.592904 1.068063 -0.128184
v 0.592904 1.076792 -0.172069
v 0.592904 1.068063 -0.215953
v 0.592904 1.043204 -0.253157
v 0.592904 1.006001 -0.278015
v 0.592904 0.962116 -0.286745
v 0.592904 0.918232 -0.278015
v 0.592904 0.881028 -0.253157
v 0.592904 0.856170 -0.215953
v 0.592904 0.847440 -0.172069
v 0.592904 0.856170 -0.128184
v 0.592904 0.881028 -0.090981
v 0.592904 0.918232 -0.066122
vt 0.4297 0.6875
vt 0.3777 0.6875
vt 0.3816 0.7074
vt 0.3929 0.7243
vt 0.4098 0.7355
vt 0.4297 0.7395
vt 0.4496 0.7356
vt 0.4665 0.7243
vt 0.4777 0.7074
vt 0.4817 0.6875
vt 0.4777 0.6676
vt 0.4665 0.6507
vt 0.4496 0.6395
vt 0.4297 0.6355
vt 0.4098 0.6394
vt 0.3929 0.6507
vt 0.3816 0.6676
vt 0.4297 0.6875
vt 0.3816 0.7074
vt 0.3777 0.6875
vt 0.3929 0.7243
vt 0.4098 0.7355
vt 0.4297 0.7395
vt 0.4496 0.7356
vt 0.4665 0.7243
vt 0.4777 0.7074
vt 0.4817 0.6875
vt 0.4777 0.6676
vt 0.4665 0.6507
vt 0.4496 0.6395
vt 0.4297 0.6355
vt 0.4098 0.6394
vt 0.3929 0.6507
vt 0.3816 0.6676
vn 1.0000 0.0000 0.0000
usemtl ColobotMesh_mat_1_[4098]_vegetal.png
s 1
f 161/161/103 162/162/103 163/163/103
f 161/161/103 163/163/103 164/164/103
f 161/161/103 164/164/103 165/165/103
f 161/161/103 165/165/103 166/166/103
f 161/161/103 166/166/103 167/167/103
f 161/161/103 167/167/103 168/168/103
f 161/161/103 168/168/103 169/169/103
f 161/161/103 169/169/103 170/170/103
f 161/161/103 170/170/103 171/171/103
f 161/161/103 171/171/103 172/172/103
f 161/161/103 172/172/103 173/173/103
f 161/161/103 173/173/103 174/174/103
f 161/161/103 174/174/103 175/175/103
f 161/161/103 175/175/103 176/176/103
f 161/161/103 176/176/103 177/177/103
f 161/161/103 177/177/103 162/162/103
f 178/178/103 180/179/103 179/180/103
f 178/178/103 181/181/103 180/179/103
f 178/178/103 182/182/103 181/181/103
f 178/178/103 183/183/103 182/182/103
f 178/178/103 184/184/103 183/183/103
f 178/178/103 185/185/103 184/184/103
f 178/178/103 186/186/103 185/185/103
f 178/178/103 187/187/103 186/186/103
f 178/178/103 188/188/103 187/187/103
f 178/178/103 189/189/103 188/188/103
f 178/178/103 190/190/103 189/189/103
f 178/178/103 191/191/103 190/190/103
f 178/178/103 192/192/103 191/191/103
f 178/178/103 193/193/103 192/192/103
f 178/178/103 194/194/103 193/193/103
f 178/178/103 179/180/103 194/194/103
