# Blender v2.77 (sub 0) OBJ File: 'human5.blend'
# www.blender.org
mtllib human5.mtl
o ColobotMesh_1_ColobotMesh_
v 0.037395 0.233718 0.198915
v 0.506218 0.273140 -0.261537
v 0.037395 -0.156349 0.134309
v 0.037395 -0.156349 -0.132126
v 0.506218 -0.278952 -0.226616
v 0.445706 -0.282399 0.045673
v 0.410032 0.441614 0.335776
v 0.594884 0.370413 0.335776
v 0.597854 0.429796 0.131141
v 0.410032 0.516163 0.102218
v 0.820053 0.190757 0.298294
v 0.798153 -0.193703 0.251684
v 0.940547 -0.193703 0.157953
v 0.962446 0.190757 0.204562
v 0.717187 0.237478 0.186085
v 0.519651 0.280035 0.140257
v 0.667138 -0.242016 0.108838
v 0.795544 -0.248910 -0.115915
v 0.795544 0.240925 -0.115915
v 0.037395 0.233718 -0.132126
v 0.594884 0.370413 0.335776
v 0.594884 0.370413 0.335776
v 0.597854 0.429796 0.131141
v 0.037395 -0.156349 -0.132126
v 0.506218 -0.278952 -0.226616
v 0.410032 0.441614 0.335776
v 0.410032 0.441614 0.335776
v 0.717187 0.237478 0.186085
v 0.519651 0.280035 0.140257
v 0.519651 0.280035 0.140257
v 0.820053 0.190757 0.298294
v 0.820053 0.190757 0.298294
v 0.962446 0.190757 0.204562
v 0.962446 0.190757 0.204562
v 0.798153 -0.193703 0.251684
v 0.798153 -0.193703 0.251684
v 0.037395 -0.156349 0.134309
v 0.445706 -0.282399 0.045673
v 0.506218 0.273140 -0.261537
v 0.506218 0.273140 -0.261537
v 0.506218 0.273140 -0.261537
v 0.795544 0.240925 -0.115915
v 0.940547 -0.193703 0.157953
v 0.940547 -0.193703 0.157953
v 0.037395 0.233718 -0.132126
v 0.667138 -0.242016 0.108838
v 0.037395 0.233718 0.198915
v 0.795544 -0.248910 -0.115915
vt 0.6362 0.0151
vt 0.6378 0.0605
vt 0.6543 0.0557
vt 0.2422 0.0207
vt 0.2036 0.1160
vt 0.2480 0.1050
vt 0.6403 0.0605
vt 0.6307 0.0062
vt 0.6543 0.0561
vt 0.5757 0.0605
vt 0.5969 0.0020
vt 0.6074 0.0605
vt 0.6288 0.0605
vt 0.6437 0.0079
vt 0.6543 0.0548
vt 0.6074 0.0605
vt 0.5645 0.0070
vt 0.5786 0.0505
vt 0.5907 0.0093
vt 0.5965 0.0605
vt 0.6074 0.0605
vt 0.1267 0.1230
vt 0.0020 0.0288
vt 0.0020 0.1144
vt 0.6543 0.0605
vt 0.6242 0.0020
vt 0.6113 0.0150
vt 0.6113 0.0020
vt 0.6543 0.0347
vt 0.5949 0.0605
vt 0.5645 0.0020
vt 0.6074 0.0020
vt 0.5822 0.0020
vt 0.6074 0.0451
vt 0.5645 0.0605
vt 0.6074 0.0605
vt 0.5645 0.0101
vt 0.5797 0.0020
vt 0.6043 0.0605
vt 0.6074 0.0397
vt 0.5645 0.0020
vt 0.5784 0.0067
vt 0.6030 0.0605
vt 0.6074 0.0020
vt 0.6074 0.0020
vt 0.5645 0.0605
vt 0.5715 0.0020
vt 0.6074 0.0306
vt 0.5698 0.0258
vt 0.5934 0.0061
vt 0.5927 0.0605
vt 0.6074 0.0605
vt 0.1267 0.0020
vt 0.6400 0.0020
vt 0.6256 0.0605
vt 0.6543 0.0605
vt 0.6113 0.0020
vt 0.2036 0.0085
vt 0.5645 0.0036
vt 0.6113 0.0020
vt 0.5993 0.0020
vt 0.5645 0.0020
vt 0.5645 0.0511
vt 0.6049 0.0565
vt 0.6074 0.0020
vt 0.5645 0.0020
vt 0.6113 0.0020
vn 0.1453 -0.1739 0.9740
vn -0.0586 -0.4292 0.9013
vn 0.1447 -0.3222 0.9355
vn 0.8852 0.0021 -0.4652
vn 0.6690 -0.0204 -0.7429
vn 0.8872 0.0054 -0.4612
vn -0.4483 -0.0963 0.8886
vn -0.5025 -0.0891 0.8600
vn -0.2854 -0.9581 -0.0237
vn -0.0751 -0.9970 -0.0161
vn -0.2950 -0.9555 0.0000
vn -0.7334 -0.0344 0.6789
vn -0.7445 -0.0384 0.6665
vn 0.1339 -0.9859 0.1003
vn -0.0544 -0.9985 -0.0042
vn 0.1073 -0.9900 0.0917
vn 0.1442 -0.9768 0.1579
vn 0.1346 -0.9696 0.2045
vn 0.1068 -0.0485 -0.9931
vn -0.2377 -0.0331 -0.9708
vn -0.2661 0.0000 -0.9639
vn -0.0363 -0.7802 0.6244
vn -0.3123 -0.8108 0.4950
vn -0.0580 0.9930 -0.1023
vn -0.4613 0.8416 -0.2807
vn -0.5905 0.8038 0.0722
vn -0.5409 0.8012 0.2557
vn -0.0390 0.8261 -0.5622
vn 0.4157 0.9090 -0.0298
vn 0.1566 0.9874 0.0214
vn 0.1613 0.9866 0.0231
vn 0.1852 0.9778 0.0978
vn 0.1755 0.9751 0.1357
vn 0.1632 0.9549 0.2480
vn 0.3551 0.8936 0.2743
vn 0.8830 -0.4649 -0.0634
vn 0.8822 -0.4651 -0.0735
vn 0.8767 -0.4652 -0.1223
vn 0.1116 -0.0423 -0.9928
vn 0.5450 -0.1314 0.8280
vn 0.5451 -0.1314 0.8280
vn -0.0376 -0.1609 0.9862
vn 0.6374 0.0000 -0.7705
vn 0.1211 0.9924 -0.0211
vn 0.3465 0.8995 0.2661
vn 0.8856 -0.4638 -0.0216
usemtl ColobotMesh_mat_1
s 1
f 3/1/1 29/2/2 1/3/3
f 44/4/4 42/5/5 34/6/6
f 29/7/2 46/8/7 28/9/8
f 24/10/9 38/11/10 37/12/11
f 28/13/8 35/14/12 32/15/13
f 17/16/14 25/17/15 18/18/16
f 17/19/14 43/20/17 36/21/18
f 40/22/19 4/23/20 45/24/21
f 26/25/22 1/26/3 29/27/2
f 29/28/2 22/29/23 26/25/22
f 10/30/24 20/31/25 47/32/26
f 47/33/26 27/34/27 10/35/24
f 10/36/24 41/37/28 20/38/25
f 10/39/24 23/40/29 41/41/28
f 19/42/30 30/43/31 15/44/32
f 33/45/33 15/46/32 31/47/34
f 7/48/35 23/49/29 10/35/24
f 16/50/36 9/51/37 8/52/38
f 42/5/5 5/53/39 40/22/19
f 12/54/40 14/55/40 11/56/41
f 3/1/1 6/57/42 29/2/2
f 44/4/4 48/58/43 42/5/5
f 29/7/2 6/57/42 46/8/7
f 24/10/9 25/59/15 38/11/10
f 28/13/8 46/60/7 35/14/12
f 17/16/14 38/61/10 25/17/15
f 17/19/14 18/62/16 43/20/17
f 40/22/19 5/53/39 4/23/20
f 19/42/30 39/63/44 30/43/31
f 33/45/33 19/64/30 15/46/32
f 7/48/35 21/65/45 23/49/29
f 16/50/36 2/66/46 9/51/37
f 42/5/5 48/58/43 5/53/39
f 12/54/40 13/67/40 14/55/40
