# Blender v2.77 (sub 0) OBJ File: 'human2g5.blend'
# www.blender.org
mtllib human2g5.mtl
o ColobotMesh_1.001_ColobotMesh_.001
v 0.593761 0.958464 -0.291945
v 0.593761 0.958464 -0.171945
v 0.593761 0.958464 -0.051945
v 0.589252 0.959259 -0.051945
v 0.589252 0.959259 -0.171945
v 0.589252 0.959259 -0.291945
v 0.584648 0.906783 -0.285723
v 0.580113 0.881065 -0.261555
v 0.583140 0.898230 -0.283089
v 0.581749 0.890340 -0.277572
v 0.580686 0.884312 -0.270010
v 0.580021 0.880541 -0.095051
v 0.584522 0.906070 -0.067436
v 0.580619 0.883934 -0.086368
v 0.581685 0.889977 -0.078071
v 0.583055 0.897750 -0.071423
v 0.580013 0.906865 -0.067436
v 0.575512 0.881336 -0.095051
v 0.578546 0.898545 -0.071423
v 0.577176 0.890773 -0.078071
v 0.576110 0.884730 -0.086368
v 0.575604 0.881860 -0.261555
v 0.580139 0.907578 -0.285723
v 0.576177 0.885107 -0.270010
v 0.577240 0.891135 -0.277572
v 0.578631 0.899025 -0.283089
v 0.577693 0.867339 -0.191138
v 0.577775 0.867805 -0.152851
v 0.577462 0.866032 -0.178984
v 0.577492 0.866203 -0.164970
v 0.573266 0.868600 -0.152851
v 0.573184 0.868134 -0.191138
v 0.572983 0.866998 -0.164970
v 0.572953 0.866827 -0.178984
v 0.593761 0.958464 0.291945
v 0.593761 0.958464 0.171945
v 0.593761 0.958464 0.051945
v 0.589252 0.959259 0.051945
v 0.589252 0.959259 0.171945
v 0.589252 0.959259 0.291945
v 0.584648 0.906783 0.285723
v 0.580113 0.881065 0.261555
v 0.583140 0.898230 0.283089
v 0.581749 0.890340 0.277572
v 0.580686 0.884312 0.270010
v 0.580021 0.880541 0.095051
v 0.584522 0.906070 0.067436
v 0.580619 0.883934 0.086368
v 0.581685 0.889977 0.078071
v 0.583055 0.897750 0.071423
v 0.580013 0.906865 0.067436
v 0.575512 0.881336 0.095051
v 0.578546 0.898545 0.071423
v 0.577176 0.890773 0.078071
v 0.576110 0.884730 0.086368
v 0.575604 0.881860 0.261555
v 0.580139 0.907578 0.285723
v 0.576177 0.885107 0.270010
v 0.577240 0.891135 0.277572
v 0.578631 0.899025 0.283089
v 0.577693 0.867339 0.191139
v 0.577775 0.867805 0.152851
v 0.577462 0.866032 0.178984
v 0.577492 0.866203 0.164970
v 0.573266 0.868600 0.152851
v 0.573184 0.868134 0.191139
v 0.572983 0.866998 0.164970
v 0.572953 0.866827 0.178984
vt 0.4211 0.6836
vt 0.4231 0.7246
vt 0.4231 0.7246
vt 0.4078 0.7246
vt 0.4078 0.7246
vt 0.3964 0.6641
vt 0.4054 0.6533
vt 0.4054 0.6533
vt 0.3941 0.6696
vt 0.3936 0.6774
vt 0.3941 0.6696
vt 0.4069 0.6515
vt 0.4087 0.6516
vt 0.4087 0.6516
vt 0.4176 0.6636
vt 0.4103 0.6537
vt 0.4176 0.6636
vt 0.3953 0.6658
vt 0.3953 0.6658
vt 0.4103 0.6537
vt 0.4211 0.6836
vt 0.4207 0.6769
vt 0.4207 0.6769
vt 0.4200 0.6692
vt 0.3964 0.6641
vt 0.4187 0.6656
vt 0.3936 0.6774
vt 0.3934 0.6842
vt 0.4200 0.6692
vt 0.3934 0.6842
vt 0.3926 0.7246
vt 0.3926 0.7246
vt 0.4231 0.7246
vt 0.4211 0.6836
vt 0.4231 0.7246
vt 0.4078 0.7246
vt 0.4078 0.7246
vt 0.4054 0.6533
vt 0.3964 0.6641
vt 0.3964 0.6641
vt 0.3936 0.6774
vt 0.3941 0.6696
vt 0.3941 0.6696
vt 0.4069 0.6515
vt 0.4087 0.6516
vt 0.4069 0.6515
vt 0.4176 0.6636
vt 0.4103 0.6537
vt 0.4103 0.6537
vt 0.3953 0.6658
vt 0.3953 0.6658
vt 0.4087 0.6516
vt 0.4054 0.6533
vt 0.4211 0.6836
vt 0.4207 0.6769
vt 0.4200 0.6692
vt 0.4207 0.6769
vt 0.4176 0.6636
vt 0.4187 0.6656
vt 0.4187 0.6656
vt 0.3934 0.6842
vt 0.3936 0.6774
vt 0.4200 0.6692
vt 0.3934 0.6842
vt 0.3926 0.7246
vt 0.3926 0.7246
vt 0.4086 0.6494
vt 0.4069 0.6515
vt 0.4187 0.6656
vt 0.4086 0.6494
vn -0.0615 -0.3489 0.9351
vn 0.6414 0.3902 0.6605
vn 0.1042 0.5911 0.7999
vn 0.8191 0.5736 0.0000
vn 0.1737 0.9848 0.0000
vn -0.1667 -0.9454 -0.2798
vn 0.5639 -0.8187 -0.1086
vn -0.1716 -0.9734 -0.1515
vn -0.1179 -0.6689 -0.7339
vn 0.6082 -0.4326 -0.6655
vn 0.5791 -0.6102 -0.5406
vn -0.1734 -0.9836 -0.0482
vn 0.5584 -0.8278 0.0525
vn -0.1732 -0.9822 0.0728
vn -0.1659 -0.9411 0.2945
vn 0.5644 -0.8158 0.1260
vn 0.5592 -0.8011 0.2132
vn -0.1502 -0.8516 -0.5022
vn 0.5529 -0.7461 -0.3709
vn -0.1709 -0.9695 0.1758
vn 0.6348 -0.3724 0.6770
vn -0.0938 -0.5318 0.8416
vn 0.6000 -0.5083 0.6177
vn 0.5788 -0.6437 0.5007
vn 0.5563 -0.8057 -0.2031
vn 0.5575 -0.7497 0.3566
vn -0.0753 -0.4272 -0.9010
vn 0.6515 -0.2658 -0.7105
vn -0.1266 -0.7180 0.6844
vn -0.0356 -0.2016 -0.9788
vn 0.6574 0.4375 -0.6135
vn 0.1153 0.6541 -0.7476
vn 0.6414 0.3902 -0.6605
vn -0.0615 -0.3489 -0.9351
vn 0.1042 0.5911 -0.7999
vn -0.1716 -0.9734 0.1515
vn 0.5563 -0.8057 0.2031
vn -0.1667 -0.9454 0.2798
vn 0.6082 -0.4326 0.6655
vn -0.1179 -0.6689 0.7339
vn 0.5791 -0.6102 0.5406
vn -0.1734 -0.9836 0.0482
vn 0.5584 -0.8278 -0.0525
vn 0.5582 -0.8289 0.0347
vn -0.1659 -0.9411 -0.2945
vn 0.5644 -0.8158 -0.1260
vn -0.1709 -0.9695 -0.1758
vn -0.1502 -0.8516 0.5022
vn 0.5529 -0.7461 0.3709
vn -0.1732 -0.9822 -0.0728
vn 0.5639 -0.8187 0.1086
vn 0.6348 -0.3724 -0.6770
vn -0.0938 -0.5318 -0.8416
vn 0.5788 -0.6437 -0.5007
vn 0.6000 -0.5083 -0.6177
vn 0.5592 -0.8011 -0.2132
vn -0.1518 -0.8608 -0.4858
vn 0.5575 -0.7497 -0.3566
vn 0.6515 -0.2658 0.7105
vn -0.0753 -0.4272 0.9010
vn -0.1266 -0.7180 -0.6844
vn -0.0355 -0.2016 0.9788
vn 0.6573 0.4375 0.6135
vn 0.1153 0.6541 0.7476
vn 0.5582 -0.8289 -0.0347
vn -0.1518 -0.8608 0.4858
usemtl ColobotMesh_mat_1_[4096]
s 1
f 17/1/1 3/2/2 4/3/3
f 4/3/3 2/4/4 5/5/5
f 22/6/6 27/7/7 32/8/8
f 25/9/9 9/10/10 10/11/11
f 34/12/12 30/13/13 33/14/14
f 18/15/15 28/16/16 12/17/17
f 24/18/18 10/11/11 11/19/19
f 30/13/13 31/20/20 33/14/14
f 27/7/7 34/12/12 32/8/8
f 13/21/21 19/22/22 16/23/23
f 19/22/22 15/24/24 16/23/23
f 8/25/25 24/18/18 11/19/19
f 14/26/26 18/15/15 12/17/17
f 26/27/27 7/28/28 9/10/10
f 20/29/29 14/26/26 15/24/24
f 23/30/30 1/31/31 7/28/28
f 12/17/17 2/4/4 13/21/21
f 5/5/5 1/31/31 6/32/32
f 37/33/33 51/34/34 38/35/35
f 36/36/4 38/35/35 39/37/5
f 66/38/36 42/39/37 56/40/38
f 43/41/39 59/42/40 44/43/41
f 68/44/42 64/45/43 63/46/44
f 52/47/45 62/48/46 65/49/47
f 44/43/41 58/50/48 45/51/49
f 65/49/47 64/45/43 67/52/50
f 68/44/42 61/53/51 66/38/36
f 47/54/52 53/55/53 51/34/34
f 49/56/54 53/55/53 50/57/55
f 42/39/37 58/50/48 56/40/38
f 46/58/56 55/59/57 48/60/58
f 41/61/59 60/62/60 43/41/39
f 48/60/58 54/63/61 49/56/54
f 57/64/62 35/65/63 40/66/64
f 36/36/4 64/67/43 62/48/46
f 35/65/63 39/37/5 40/66/64
f 17/1/1 13/21/21 3/2/2
f 4/3/3 3/2/2 2/4/4
f 22/6/6 8/25/25 27/7/7
f 25/9/9 26/27/27 9/10/10
f 34/12/12 29/68/65 30/13/13
f 18/15/15 31/20/20 28/16/16
f 24/18/18 25/9/9 10/11/11
f 30/13/13 28/16/16 31/20/20
f 27/7/7 29/68/65 34/12/12
f 13/21/21 17/1/1 19/22/22
f 19/22/22 20/29/29 15/24/24
f 8/25/25 22/6/6 24/18/18
f 14/26/26 21/69/66 18/15/15
f 26/27/27 23/30/30 7/28/28
f 20/29/29 21/69/66 14/26/26
f 23/30/30 6/32/32 1/31/31
f 13/21/21 16/23/23 15/24/24
f 15/24/24 14/26/26 12/17/17
f 12/17/17 28/16/16 2/4/4
f 30/70/13 29/68/65 2/4/4
f 27/7/7 8/25/25 2/4/4
f 11/19/19 10/11/11 8/25/25
f 9/10/10 7/28/28 10/11/11
f 2/4/4 3/2/2 13/21/21
f 7/28/28 1/31/31 2/4/4
f 8/25/25 7/28/28 2/4/4
f 28/16/16 30/70/13 2/4/4
f 13/21/21 15/24/24 12/17/17
f 7/28/28 8/25/25 10/11/11
f 29/68/65 27/7/7 2/4/4
f 5/5/5 2/4/4 1/31/31
f 37/33/33 47/54/52 51/34/34
f 36/36/4 37/33/33 38/35/35
f 66/38/36 61/53/51 42/39/37
f 43/41/39 60/62/60 59/42/40
f 68/44/42 67/52/50 64/45/43
f 52/47/45 46/58/56 62/48/46
f 44/43/41 59/42/40 58/50/48
f 65/49/47 62/48/46 64/45/43
f 68/44/42 63/46/44 61/53/51
f 47/54/52 50/57/55 53/55/53
f 49/56/54 54/63/61 53/55/53
f 42/39/37 45/51/49 58/50/48
f 46/58/56 52/47/45 55/59/57
f 41/61/59 57/64/62 60/62/60
f 48/60/58 55/59/57 54/63/61
f 57/64/62 41/61/59 35/65/63
f 49/56/54 50/57/55 47/54/52
f 47/54/52 37/33/33 36/36/4
f 36/36/4 35/65/63 41/61/59
f 41/61/59 43/41/39 44/43/41
f 44/43/41 45/51/49 42/39/37
f 42/39/37 61/53/51 36/36/4
f 63/46/44 64/67/43 36/36/4
f 62/48/46 46/58/56 36/36/4
f 48/60/58 49/56/54 46/58/56
f 47/54/52 46/58/56 49/56/54
f 41/61/59 44/43/41 42/39/37
f 61/53/51 63/46/44 36/36/4
f 46/58/56 47/54/52 36/36/4
f 36/36/4 41/61/59 42/39/37
f 35/65/63 36/36/4 39/37/5
o ColobotMesh_1_ColobotMesh_
v 0.593761 0.976636 -0.291945
v 0.594464 0.976636 0.059730
v 0.594464 0.947935 0.059730
v 0.232406 0.976636 0.511329
v 0.244203 0.947935 0.511329
v 0.593761 0.976636 0.291945
v 0.594464 0.947935 -0.056550
v 0.232406 0.976636 -0.508417
v 0.593761 0.947935 -0.291945
v 0.244203 0.947935 -0.508417
v 0.594464 0.976636 -0.056550
v 0.593761 0.947935 0.291945
v 0.592414 0.976636 0.059730
v 0.592414 0.947935 0.059730
v 0.592414 0.947935 -0.056550
v 0.592414 0.976636 -0.056550
v 0.589252 0.976512 -0.291945
v 0.233991 0.976512 0.506914
v 0.245686 0.948059 0.506914
v 0.589252 0.976512 0.291945
v 0.233991 0.976512 -0.504010
v 0.589252 0.948059 -0.291945
v 0.245686 0.948059 -0.504010
v 0.589252 0.948059 0.291945
vt 0.6617 0.9863
vt 0.6626 0.9863
vt 0.6626 0.9941
vt 0.6617 0.9941
vt 0.6617 0.9941
vt 0.6643 0.9863
vt 0.6643 0.9941
vt 0.6660 0.9941
vt 0.6617 0.9863
vt 0.6626 0.9941
vt 0.6626 0.9863
vt 0.6582 0.9863
vt 0.6582 0.9941
vt 0.6599 0.9941
vt 0.6643 0.9863
vt 0.6660 0.9863
vt 0.6660 0.9941
vt 0.6582 0.9863
vt 0.6599 0.9863
vt 0.6599 0.9941
vt 0.6660 0.9863
vt 0.6599 0.9863
vt 0.6582 0.9941
vt 0.6643 0.9941
vn -0.5773 -0.5773 -0.5773
vn -0.5773 -0.5773 0.5773
vn -0.5773 0.5773 0.5773
vn 0.5773 0.5773 -0.5773
vn -0.5773 0.5773 -0.5773
vn 0.8048 -0.5484 -0.2269
vn 0.8048 0.5486 -0.2266
vn -0.6580 0.4447 0.6077
vn 0.5773 -0.5773 -0.5773
vn 0.5773 0.5773 0.5773
vn 0.5773 -0.5773 0.5773
vn -0.3510 -0.6120 -0.7086
vn -0.6631 0.4447 -0.6021
vn 0.8036 0.5490 0.2298
vn -0.2156 -0.6319 -0.7444
vn -0.5051 -0.7326 -0.4563
vn -0.6962 0.4976 -0.5173
vn -0.5015 -0.7297 0.4647
vn -0.2187 -0.6308 0.7445
vn -0.2184 0.6302 0.7450
vn -0.3429 -0.6096 0.7146
vn 0.8036 -0.5488 0.2301
vn -0.6923 0.4967 0.5234
vn -0.2153 0.6313 -0.7450
usemtl ColobotMesh_mat_2_[4096]
s 1
f 83/71/67 82/72/68 81/73/69
f 79/74/70 84/75/71 81/73/69
f 80/76/72 74/77/73 72/78/74
f 75/79/75 79/74/70 70/80/76
f 70/80/76 81/73/69 82/72/68
f 71/81/77 82/72/68 83/71/67
f 78/82/78 76/83/79 69/84/80
f 75/79/75 83/71/67 84/75/71
f 92/85/81 87/86/82 86/87/83
f 91/88/84 90/89/85 85/90/86
f 73/91/87 87/86/82 92/85/81
f 69/84/80 85/90/86 90/89/85
f 77/92/88 90/89/85 91/88/84
f 76/83/79 89/93/89 85/90/86
f 72/78/74 86/87/83 87/86/82
f 80/76/72 92/85/81 88/94/90
f 78/82/78 91/88/84 89/93/89
f 74/77/73 88/94/90 86/87/83
f 84/75/71 83/71/67 81/73/69
f 70/80/76 79/74/70 81/73/69
f 73/91/87 80/76/72 72/78/74
f 71/81/77 75/79/75 70/80/76
f 71/81/77 70/80/76 82/72/68
f 75/79/75 71/81/77 83/71/67
f 77/92/88 78/82/78 69/84/80
f 79/74/70 75/79/75 84/75/71
f 88/94/90 92/85/81 86/87/83
f 89/93/89 91/88/84 85/90/86
f 80/76/72 73/91/87 92/85/81
f 77/92/88 69/84/80 90/89/85
f 78/82/78 77/92/88 91/88/84
f 69/84/80 76/83/79 85/90/86
f 73/91/87 72/78/74 87/86/82
f 74/77/73 80/76/72 88/94/90
f 76/83/79 78/82/78 89/93/89
f 72/78/74 74/77/73 86/87/83
