# Blender v2.77 (sub 0) OBJ File: 'human9.blend'
# www.blender.org
mtllib human9.mtl
o ColobotMesh_1.001_ColobotMesh_.001
v 0.001153 -0.427572 0.004171
v 0.172191 -0.427572 -0.037122
v 0.172254 -0.427572 0.045506
v 0.150716 -0.427572 0.004171
v 0.182800 -0.427572 -0.010938
v 0.182823 -0.427572 0.019306
v 0.130052 -0.427572 0.105866
v 0.049790 -0.427572 0.147201
v 0.072254 -0.427572 0.105866
v 0.108721 -0.427572 0.126534
v 0.079343 -0.427572 0.141663
v -0.048723 -0.427572 0.147201
v -0.127520 -0.427572 0.106190
v -0.070126 -0.427572 0.106121
v -0.077626 -0.427572 0.141707
v -0.106468 -0.427572 0.126695
v -0.170174 -0.427572 0.045182
v -0.170112 -0.427572 -0.036797
v -0.148806 -0.427572 0.004171
v -0.180661 -0.427572 0.019188
v -0.180638 -0.427572 -0.010819
v -0.127582 -0.427572 -0.097435
v -0.048723 -0.427572 -0.138403
v -0.070112 -0.427572 -0.097435
v -0.106499 -0.427572 -0.117919
v -0.077635 -0.427572 -0.132914
v 0.049790 -0.427572 -0.138403
v 0.130115 -0.427572 -0.097110
v 0.071659 -0.427572 -0.096353
v 0.079352 -0.427572 -0.132871
v 0.108753 -0.427572 -0.117757
v 0.383794 0.472428 0.045506
v 0.383731 0.472428 -0.037122
v 0.394363 0.472428 0.019306
v 0.394340 0.472428 -0.010938
v 0.261330 0.472428 0.147201
v 0.341592 0.472428 0.105866
v 0.290883 0.472428 0.141663
v 0.320261 0.472428 0.126534
v -0.190956 0.472428 0.106190
v -0.112159 0.472428 0.147201
v -0.169904 0.472428 0.126695
v -0.141062 0.472428 0.141707
v -0.233548 0.472428 -0.036797
v -0.233610 0.472428 0.045182
v -0.244074 0.472428 -0.010819
v -0.244097 0.472428 0.019188
v -0.112159 0.472428 -0.138403
v -0.191018 0.472428 -0.097435
v -0.141071 0.472428 -0.132914
v -0.169935 0.472428 -0.117919
v 0.341655 0.472428 -0.097110
v 0.261330 0.472428 -0.138403
v 0.320293 0.472428 -0.117757
v 0.290892 0.472428 -0.132871
v 0.172191 -0.427572 -0.037122
v 0.182800 -0.427572 -0.010938
v 0.182823 -0.427572 0.019306
v 0.172254 -0.427572 0.045506
v 0.130052 -0.427572 0.105866
v 0.108721 -0.427572 0.126534
v 0.079343 -0.427572 0.141663
v 0.049790 -0.427572 0.147201
v -0.048723 -0.427572 0.147201
v -0.077626 -0.427572 0.141707
v -0.106468 -0.427572 0.126695
v -0.127520 -0.427572 0.106190
v -0.170174 -0.427572 0.045182
v -0.180661 -0.427572 0.019188
v -0.180638 -0.427572 -0.010819
v -0.170112 -0.427572 -0.036797
v -0.127582 -0.427572 -0.097435
v -0.106499 -0.427572 -0.117919
v -0.077635 -0.427572 -0.132914
v -0.048723 -0.427572 -0.138403
v 0.049790 -0.427572 -0.138403
v 0.079352 -0.427572 -0.132871
v 0.108753 -0.427572 -0.117757
v 0.130115 -0.427572 -0.097110
vt 0.6046 0.9863
vt 0.6063 0.9863
vt 0.6074 0.9863
vt 0.6113 0.9941
vt 0.6113 0.9863
vt 0.6113 0.9863
vt 0.6085 0.9941
vt 0.6085 0.9863
vt 0.6102 0.9863
vt 0.6046 0.9863
vt 0.6035 0.9863
vt 0.6035 0.9863
vt 0.6035 0.9941
vt 0.6035 0.9863
vt 0.6035 0.9863
vt 0.6113 0.9863
vt 0.6113 0.9863
vt 0.6102 0.9863
vt 0.6074 0.9863
vt 0.6063 0.9863
vt 0.6046 0.9863
vt 0.6063 0.9941
vt 0.6063 0.9863
vt 0.6046 0.9863
vt 0.6085 0.9863
vt 0.6102 0.9863
vt 0.6102 0.9863
vt 0.6085 0.9863
vt 0.6046 0.9941
vt 0.6046 0.9863
vt 0.6063 0.9863
vt 0.6069 0.9863
vt 0.6075 0.9863
vt 0.6108 0.9863
vt 0.6102 0.9863
vt 0.6115 0.9863
vt 0.6113 0.9863
vt 0.6113 0.9863
vt 0.6079 0.9863
vt 0.6074 0.9863
vt 0.6040 0.9863
vt 0.6033 0.9863
vt 0.6035 0.9863
vt 0.6047 0.9863
vt 0.6035 0.9863
vt 0.6069 0.9941
vt 0.6069 0.9863
vt 0.6079 0.9941
vt 0.6079 0.9863
vt 0.6085 0.9941
vt 0.6035 0.9941
vt 0.6035 0.9863
vt 0.6040 0.9941
vt 0.6040 0.9863
vt 0.6046 0.9941
vt 0.6113 0.9941
vt 0.6113 0.9863
vt 0.6109 0.9941
vt 0.6109 0.9863
vt 0.6102 0.9941
vt 0.6079 0.9941
vt 0.6079 0.9863
vt 0.6069 0.9941
vt 0.6069 0.9863
vt 0.6063 0.9941
vt 0.6040 0.9941
vt 0.6040 0.9863
vt 0.6035 0.9941
vt 0.6035 0.9863
vt 0.6035 0.9941
vt 0.6102 0.9863
vt 0.6102 0.9941
vt 0.6108 0.9941
vt 0.6108 0.9863
vt 0.6113 0.9941
vt 0.6113 0.9863
vt 0.6113 0.9941
vt 0.6085 0.9863
vt 0.6074 0.9863
vn 0.0000 -1.0000 0.0000
vn -0.0979 -0.0069 0.9951
vn -0.0896 -0.0063 0.9959
vn 0.0790 -0.0186 0.9967
vn -0.8785 -0.0619 0.4736
vn -0.8762 -0.0617 0.4778
vn -0.7591 -0.0535 0.6487
vn 0.1057 -0.0248 -0.9941
vn 0.0789 -0.0185 -0.9967
vn -0.0895 -0.0063 -0.9959
vn 0.8637 -0.2030 -0.4613
vn 0.8566 -0.2013 -0.4751
vn 0.7427 -0.1746 -0.6464
vn -0.7618 -0.0537 -0.6456
vn -0.7583 -0.0534 -0.6497
vn -0.8755 -0.0617 -0.4791
vn 0.9572 -0.2250 -0.1818
vn 0.9553 -0.2245 -0.1921
vn 0.9575 -0.2250 0.1804
vn 0.9556 -0.2246 0.1906
vn 0.8643 -0.2031 0.4600
vn 0.3416 -0.0803 -0.9364
vn 0.3039 -0.0714 -0.9500
vn 0.5904 -0.1387 -0.7951
vn 0.5628 -0.1323 -0.8159
vn 0.7539 -0.1772 -0.6326
vn -0.3334 -0.0235 0.9425
vn -0.3218 -0.0227 0.9465
vn -0.5897 -0.0415 0.8065
vn -0.5811 -0.0410 0.8127
vn -0.7627 -0.0537 0.6445
vn -0.9797 -0.0690 0.1881
vn -0.9791 -0.0690 0.1913
vn -0.9794 -0.0690 -0.1896
vn -0.9788 -0.0690 -0.1928
vn -0.8778 -0.0619 -0.4749
vn -0.5889 -0.0415 -0.8071
vn -0.5803 -0.0409 -0.8133
vn -0.3329 -0.0234 -0.9427
vn -0.3213 -0.0226 -0.9467
vn -0.0978 -0.0069 -0.9952
vn 0.7436 -0.1747 0.6454
vn 0.7547 -0.1774 0.6316
vn 0.5911 -0.1389 0.7945
vn 0.5636 -0.1325 0.8153
vn 0.3421 -0.0804 0.9362
vn 0.3044 -0.0715 0.9499
vn 0.1059 -0.0249 0.9940
vn 0.8573 -0.2015 0.4737
usemtl ColobotMesh_mat_1
s 1
f 79/1/1 56/2/1 4/3/1
f 41/4/2 12/5/3 8/6/4
f 45/7/5 17/8/6 13/9/7
f 24/10/1 75/11/1 76/12/1
f 53/13/8 27/14/9 23/15/10
f 63/16/1 64/17/1 14/18/1
f 19/19/1 71/20/1 72/21/1
f 33/22/11 2/23/12 28/24/13
f 4/3/1 59/25/1 60/26/1
f 67/27/1 68/28/1 19/19/1
f 49/29/14 22/30/15 18/31/16
f 56/2/1 57/32/1 4/3/1
f 57/32/1 58/33/1 4/3/1
f 58/33/1 59/25/1 4/3/1
f 60/26/1 61/34/1 9/35/1
f 61/34/1 62/36/1 9/35/1
f 62/36/1 63/16/1 9/35/1
f 64/17/1 65/37/1 14/18/1
f 65/37/1 66/38/1 14/18/1
f 66/38/1 67/27/1 14/18/1
f 68/28/1 69/39/1 19/19/1
f 69/39/1 70/40/1 19/19/1
f 70/40/1 71/20/1 19/19/1
f 72/21/1 73/41/1 24/10/1
f 73/41/1 74/42/1 24/10/1
f 74/42/1 75/11/1 24/10/1
f 76/12/1 77/43/1 29/44/1
f 77/43/1 78/45/1 29/44/1
f 78/45/1 79/1/1 29/44/1
f 2/23/12 33/22/11 35/46/17
f 5/47/18 35/46/17 34/48/19
f 6/49/20 34/48/19 32/50/21
f 27/14/9 53/13/8 55/51/22
f 30/52/23 55/51/22 54/53/24
f 31/54/25 54/53/24 52/55/26
f 12/5/3 41/4/2 43/56/27
f 15/57/28 43/56/27 42/58/29
f 16/59/30 42/58/29 40/60/31
f 17/8/6 45/7/5 47/61/32
f 20/62/33 47/61/32 46/63/34
f 21/64/35 46/63/34 44/65/36
f 22/30/15 49/29/14 51/66/37
f 25/67/38 51/66/37 50/68/39
f 26/69/40 50/68/39 48/70/41
f 7/71/42 37/72/43 39/73/44
f 10/74/45 39/73/44 38/75/46
f 11/76/47 38/75/46 36/77/48
f 37/72/43 7/71/42 3/78/49
f 4/3/1 1/79/1 29/44/1
f 36/77/48 41/4/2 8/6/4
f 29/44/1 79/1/1 4/3/1
f 40/60/31 45/7/5 13/9/7
f 29/44/1 1/79/1 24/10/1
f 29/44/1 24/10/1 76/12/1
f 14/18/1 1/79/1 9/35/1
f 48/70/41 53/13/8 23/15/10
f 24/10/1 1/79/1 19/19/1
f 9/35/1 63/16/1 14/18/1
f 24/10/1 19/19/1 72/21/1
f 9/35/1 1/79/1 4/3/1
f 52/55/26 33/22/11 28/24/13
f 9/35/1 4/3/1 60/26/1
f 44/65/36 49/29/14 18/31/16
f 19/19/1 1/79/1 14/18/1
f 14/18/1 67/27/1 19/19/1
f 5/47/18 2/23/12 35/46/17
f 6/49/20 5/47/18 34/48/19
f 3/78/49 6/49/20 32/50/21
f 30/52/23 27/14/9 55/51/22
f 31/54/25 30/52/23 54/53/24
f 28/24/13 31/54/25 52/55/26
f 15/57/28 12/5/3 43/56/27
f 16/59/30 15/57/28 42/58/29
f 13/9/7 16/59/30 40/60/31
f 20/62/33 17/8/6 47/61/32
f 21/64/35 20/62/33 46/63/34
f 18/31/16 21/64/35 44/65/36
f 25/67/38 22/30/15 51/66/37
f 26/69/40 25/67/38 50/68/39
f 23/15/10 26/69/40 48/70/41
f 10/74/45 7/71/42 39/73/44
f 11/76/47 10/74/45 38/75/46
f 8/6/4 11/76/47 36/77/48
f 32/50/21 37/72/43 3/78/49
o ColobotMesh_1_ColobotMesh_
v 0.603734 0.489603 0.360212
v 0.603734 0.843156 0.506659
v -0.593054 1.196710 0.360212
v -0.593054 0.843156 0.506659
v 0.603734 1.196710 -0.346895
v 0.603734 1.196710 0.360212
v 0.603734 0.843158 -0.493343
v 0.603734 0.940703 -0.483736
v 0.603734 1.034500 -0.455283
v 0.603734 1.120944 -0.409078
v 0.603734 1.258894 -0.271127
v 0.603734 1.305099 -0.184684
v 0.603734 1.333552 -0.090887
v 0.603734 1.343160 0.006659
v 0.603734 1.333552 0.104204
v 0.603734 1.305099 0.198001
v 0.603734 1.258894 0.284445
v 0.603734 1.120944 0.422395
v 0.603734 1.034500 0.468601
v 0.603734 0.940703 0.497053
v 0.603734 0.745612 0.497053
v 0.603734 0.651815 0.468600
v 0.603734 0.565371 0.422395
v 0.603734 0.427421 0.284445
v 0.603734 0.381216 0.198001
v 0.603734 0.352763 0.104204
v 0.603734 0.343156 0.006658
v 0.603734 0.352763 -0.090887
v 0.603734 0.381217 -0.184684
v 0.603734 0.427422 -0.271128
v 0.603734 0.489604 -0.346896
v 0.603734 0.565372 -0.409078
v 0.603734 0.651816 -0.455283
v 0.603734 0.745613 -0.483736
v 1.200000 0.843157 0.006657
v -0.593054 0.843156 -0.493344
v -0.593054 0.940702 -0.483737
v -0.593054 1.034499 -0.455284
v -0.593054 1.120943 -0.409078
v -0.593054 1.196712 -0.346897
v -0.593054 1.258893 -0.271128
v -0.593054 1.305099 -0.184684
v -0.593054 1.333552 -0.090887
v -0.593054 1.343159 0.006659
v -0.593054 1.333552 0.104205
v -0.593054 1.305099 0.198002
v -0.593054 1.258893 0.284446
v -0.593054 1.120943 0.422396
v -0.593054 1.034499 0.468602
v -0.593054 0.940702 0.497055
v -0.593054 0.745610 0.497055
v -0.593054 0.651813 0.468601
v -0.593054 0.565369 0.422396
v -0.593054 0.489600 0.360214
v -0.593054 0.427418 0.284445
v -0.593054 0.381213 0.198001
v -0.593054 0.352760 0.104204
v -0.593054 0.343153 0.006658
v -0.593054 0.352760 -0.090887
v -0.593054 0.381213 -0.184685
v -0.593054 0.427419 -0.271128
v -0.593054 0.489601 -0.346897
v -0.593054 0.565370 -0.409079
v -0.593054 0.651814 -0.455284
v -0.593054 0.745611 -0.483737
v -0.425303 0.843156 0.006659
v 0.603734 0.940703 -0.483736
v 0.603734 0.843158 -0.493343
v 0.603734 1.034500 -0.455283
v 0.603734 1.120944 -0.409078
v 0.603734 1.305099 -0.184684
v 0.603734 1.258894 -0.271127
v 0.603734 1.333552 -0.090887
v 0.603734 1.343160 0.006659
v 0.603734 1.333552 0.104204
v 0.603734 1.305099 0.198001
v 0.603734 1.258894 0.284445
v 0.603734 1.034500 0.468601
v 0.603734 1.120944 0.422395
v 0.603734 0.940703 0.497053
v 0.603734 0.651815 0.468600
v 0.603734 0.745612 0.497053
v 0.603734 0.565371 0.422395
v 0.603734 0.381216 0.198001
v 0.603734 0.427421 0.284445
v 0.603734 0.352763 0.104204
v 0.603734 0.343156 0.006658
v 0.603734 0.352763 -0.090887
v 0.603734 0.381217 -0.184684
v 0.603734 0.427422 -0.271128
v 0.603734 0.489604 -0.346896
v 0.603734 0.565372 -0.409078
v 0.603734 0.651816 -0.455283
v 0.603734 0.745613 -0.483736
v -0.593054 0.940702 -0.483737
v -0.593054 0.843156 -0.493344
v -0.593054 1.034499 -0.455284
v -0.593054 1.120943 -0.409078
v -0.593054 1.196712 -0.346897
v -0.593054 1.258893 -0.271128
v -0.593054 1.305099 -0.184684
v -0.593054 1.333552 -0.090887
v -0.593054 1.343159 0.006659
v -0.593054 1.333552 0.104205
v -0.593054 1.305099 0.198002
v -0.593054 1.258893 0.284446
v -0.593054 1.034499 0.468602
v -0.593054 1.120943 0.422396
v -0.593054 0.940702 0.497055
v -0.593054 0.651813 0.468601
v -0.593054 0.745610 0.497055
v -0.593054 0.565369 0.422396
v -0.593054 0.489600 0.360214
v -0.593054 0.427418 0.284445
v -0.593054 0.381213 0.198001
v -0.593054 0.352760 0.104204
v -0.593054 0.343153 0.006658
v -0.593054 0.352760 -0.090887
v -0.593054 0.381213 -0.184685
v -0.593054 0.427419 -0.271128
v -0.593054 0.489601 -0.346897
v -0.593054 0.565370 -0.409079
v -0.593054 0.651814 -0.455284
v -0.593054 0.745611 -0.483737
v 0.603734 0.489603 0.360212
v 0.603734 0.843156 0.506659
v 0.603734 1.196710 0.360212
v 0.603734 1.196710 -0.346895
v -0.593054 0.843156 0.506659
v -0.593054 1.196710 0.360212
vt 0.7566 0.7893
vt 0.7622 0.7789
vt 0.8125 0.8125
vt 0.8243 0.8719
vt 0.8125 0.8730
vt 0.7520 0.8125
vt 0.7531 0.8007
vt 0.8357 0.7566
vt 0.8461 0.7622
vt 0.7566 0.8357
vt 0.7531 0.8243
vt 0.8628 0.8461
vt 0.8553 0.8553
vt 0.8007 0.7531
vt 0.8125 0.7520
vt 0.8719 0.8243
vt 0.8684 0.8357
vt 0.7789 0.7622
vt 0.7893 0.7566
vt 0.7893 0.8684
vt 0.7789 0.8628
vt 0.8719 0.8007
vt 0.8730 0.8125
vt 0.7697 0.7697
vt 0.8553 0.7697
vt 0.8357 0.8684
vt 0.8243 0.7531
vt 0.7697 0.8553
vt 0.8684 0.7893
vt 0.8628 0.7789
vt 0.8461 0.8628
vt 0.7622 0.8461
vt 0.8007 0.8719
vt 0.7520 0.3105
vt 0.7520 0.2959
vt 0.8730 0.2959
vt 0.7520 0.2959
vt 0.7520 0.3105
vt 0.8730 0.3105
vt 0.7520 0.2520
vt 0.7520 0.2666
vt 0.8730 0.2666
vt 0.7520 0.2813
vt 0.7520 0.2666
vt 0.8730 0.2666
vt 0.7520 0.2812
vt 0.7520 0.2959
vt 0.8730 0.2959
vt 0.7520 0.2959
vt 0.7520 0.2812
vt 0.8730 0.2813
vt 0.7520 0.2520
vt 0.7520 0.2666
vt 0.8730 0.2666
vt 0.7520 0.3105
vt 0.7520 0.2959
vt 0.8730 0.2959
vt 0.7520 0.2666
vt 0.7520 0.2520
vt 0.8730 0.2520
vt 0.7520 0.2813
vt 0.7520 0.2959
vt 0.8730 0.2959
vt 0.7520 0.2812
vt 0.7520 0.2666
vt 0.8730 0.2666
vt 0.7520 0.2666
vt 0.7520 0.2812
vt 0.8730 0.2812
vt 0.7520 0.2520
vt 0.7520 0.2666
vt 0.8730 0.2666
vt 0.7520 0.2959
vt 0.7520 0.2812
vt 0.8730 0.2812
vt 0.7520 0.2959
vt 0.8730 0.3105
vt 0.7520 0.2813
vt 0.8730 0.2959
vt 0.7520 0.2666
vt 0.8730 0.2520
vt 0.8730 0.2812
vt 0.8730 0.2812
vt 0.8730 0.2959
vt 0.8730 0.2520
vt 0.8730 0.3105
vt 0.8730 0.2666
vt 0.8730 0.2813
vt 0.8730 0.2812
vt 0.8730 0.2666
vt 0.7520 0.3105
vt 0.8730 0.3105
vt 0.8730 0.2520
vt 0.8730 0.2959
vt 0.8730 0.2959
vt 0.8730 0.2813
vt 0.8730 0.2666
vt 0.3673 0.7736
vt 0.2969 0.7031
vt 0.3522 0.7859
vt 0.3163 0.6054
vt 0.3350 0.6111
vt 0.2048 0.7412
vt 0.1992 0.7226
vt 0.3889 0.7412
vt 0.3797 0.7585
vt 0.2264 0.7736
vt 0.2141 0.7585
vt 0.3965 0.7031
vt 0.3946 0.7226
vt 0.2588 0.7952
vt 0.2415 0.7859
vt 0.2415 0.6203
vt 0.2588 0.6111
vt 0.3889 0.6650
vt 0.3946 0.6837
vt 0.2969 0.8027
vt 0.2774 0.8008
vt 0.3163 0.8008
vt 0.3673 0.6327
vt 0.3797 0.6478
vt 0.1992 0.6837
vt 0.2048 0.6650
vt 0.3350 0.7952
vt 0.3522 0.6203
vt 0.1973 0.7031
vt 0.2774 0.6054
vt 0.2141 0.6478
vt 0.2969 0.6035
vt 0.2264 0.6327
vn 0.6425 -0.7515 -0.1495
vn 0.6425 -0.7079 -0.2932
vn 1.0000 0.0000 0.0000
vn 0.6425 0.2932 0.7079
vn 0.6425 0.1494 0.7515
vn 0.6425 -0.7515 0.1495
vn 0.6425 -0.7662 0.0000
vn 0.6425 0.1495 -0.7515
vn 0.6425 0.2932 -0.7079
vn 0.6425 -0.6371 0.4257
vn 0.6425 -0.7079 0.2932
vn 0.6425 0.7079 0.2932
vn 0.6425 0.6371 0.4257
vn 0.6425 -0.2932 -0.7079
vn 0.6425 -0.1495 -0.7515
vn 0.6425 0.7662 0.0000
vn 0.6425 0.7515 0.1495
vn 0.6425 -0.5418 -0.5418
vn 0.6425 -0.4257 -0.6371
vn 0.6425 -0.1495 0.7515
vn 0.6425 -0.2932 0.7079
vn 0.6425 0.7079 -0.2932
vn 0.6425 0.7515 -0.1495
vn 0.6425 -0.6371 -0.4257
vn 0.6425 0.4257 -0.6371
vn 0.6425 0.4257 0.6371
vn 0.6425 0.0000 -0.7662
vn 0.6425 -0.4257 0.6371
vn 0.6425 0.6371 -0.4257
vn 0.6425 0.5418 -0.5418
vn 0.6425 0.5418 0.5418
vn 0.6425 -0.5418 0.5418
vn 0.6425 0.0000 0.7662
vn 0.0000 -1.0000 0.0000
vn 0.0000 -0.9808 -0.1951
vn 0.0000 0.1951 0.9808
vn 0.0000 0.0000 1.0000
vn 0.0000 0.7071 -0.7071
vn 0.0000 0.8314 -0.5556
vn 0.0000 -0.9239 -0.3827
vn 0.0000 -0.8314 -0.5556
vn 0.0000 0.9239 -0.3827
vn 0.0000 0.9808 -0.1951
vn 0.0000 -0.1951 0.9808
vn 0.0000 -0.3827 0.9239
vn 0.0000 -0.7071 -0.7071
vn 0.0000 -0.5556 -0.8314
vn 0.0000 1.0000 0.0000
vn 0.0000 0.9808 0.1951
vn 0.0000 -0.5556 0.8314
vn 0.0000 -0.7071 0.7071
vn 0.0000 -0.3827 -0.9239
vn 0.0000 -0.1951 -0.9808
vn 0.0000 0.9239 0.3827
vn 0.0000 0.8314 0.5556
vn 0.0000 -0.8314 0.5556
vn 0.0000 -0.9239 0.3827
vn 0.0000 0.7071 0.7071
vn 0.0000 0.5556 0.8314
vn 0.0000 0.1951 -0.9808
vn 0.0000 0.3827 -0.9239
vn 0.0000 -0.9808 0.1951
vn 0.0000 0.3827 0.9239
vn 0.0000 0.5556 -0.8314
vn 0.0000 0.0000 -1.0000
vn -0.9481 0.2249 0.2249
vn -1.0000 0.0000 0.0000
vn -0.9481 0.1767 0.2644
vn -0.9481 0.0620 -0.3120
vn -0.9481 0.1217 -0.2939
vn -0.9481 -0.2939 0.1217
vn -0.9481 -0.3120 0.0620
vn -0.9481 0.2939 0.1217
vn -0.9481 0.2644 0.1767
vn -0.9481 -0.2249 0.2249
vn -0.9481 -0.2644 0.1767
vn -0.9481 0.3181 0.0000
vn -0.9481 0.3120 0.0620
vn -0.9481 -0.1217 0.2939
vn -0.9481 -0.1767 0.2644
vn -0.9481 -0.1767 -0.2644
vn -0.9481 -0.1217 -0.2939
vn -0.9481 0.2939 -0.1217
vn -0.9481 0.3120 -0.0620
vn -0.9481 0.0000 0.3181
vn -0.9481 -0.0620 0.3120
vn -0.9481 0.0620 0.3120
vn -0.9481 0.2249 -0.2249
vn -0.9481 0.2644 -0.1767
vn -0.9481 -0.3120 -0.0620
vn -0.9481 -0.2939 -0.1217
vn -0.9481 0.1217 0.2939
vn -0.9481 0.1767 -0.2644
vn -0.9481 -0.3181 0.0000
vn -0.9481 -0.0620 -0.3120
vn -0.9481 -0.2644 -0.1767
vn -0.9481 0.0000 -0.3181
vn -0.9481 -0.2249 -0.2249
usemtl ColobotMesh_mat_1
s 1
f 167/80/50 168/81/51 114/82/52
f 157/83/53 159/84/54 114/82/52
f 165/85/55 106/86/56 114/82/52
f 146/87/57 148/88/58 114/82/52
f 164/89/59 163/90/60 114/82/52
f 155/91/61 156/92/62 114/82/52
f 172/93/63 173/94/64 114/82/52
f 153/95/65 154/96/66 114/82/52
f 170/97/67 171/98/68 114/82/52
f 161/99/69 160/100/70 114/82/52
f 150/101/71 152/102/72 114/82/52
f 168/81/51 169/103/73 114/82/52
f 106/86/56 167/80/50 114/82/52
f 148/88/58 149/104/74 114/82/52
f 158/105/75 157/83/53 114/82/52
f 163/90/60 165/85/55 114/82/52
f 147/106/76 146/87/57 114/82/52
f 173/94/64 147/106/76 114/82/52
f 154/96/66 155/91/61 114/82/52
f 171/98/68 172/93/63 114/82/52
f 160/100/70 162/107/77 114/82/52
f 152/102/72 153/95/65 114/82/52
f 169/103/73 170/97/67 114/82/52
f 151/108/78 150/101/71 114/82/52
f 149/104/74 207/109/79 114/82/52
f 85/110/80 158/105/75 114/82/52
f 162/107/77 204/111/81 114/82/52
f 207/109/79 151/108/78 114/82/52
f 159/84/54 81/112/82 114/82/52
f 156/92/62 85/110/80 114/82/52
f 204/111/81 164/89/59 114/82/52
f 81/112/82 161/99/69 114/82/52
usemtl ColobotMesh_mat_1_factory.png
f 196/113/83 197/114/84 107/115/84
f 188/116/85 208/117/86 205/118/86
f 178/119/87 179/120/88 90/121/88
f 198/122/89 199/123/90 109/124/90
f 180/125/91 181/126/92 92/127/92
f 190/128/93 189/129/94 101/130/94
f 200/131/95 201/132/96 111/133/96
f 182/134/97 183/135/98 94/136/98
f 191/137/99 192/138/100 80/139/100
f 202/140/101 203/141/102 113/142/102
f 184/143/103 185/144/104 96/145/104
f 193/146/105 194/147/106 104/148/106
f 209/149/107 187/150/108 97/151/108
f 174/152/109 176/153/110 88/154/110
f 195/155/111 196/113/83 166/156/83
f 186/157/112 188/116/85 99/158/85
f 177/159/113 178/119/87 84/160/87
f 197/114/84 198/122/89 108/161/89
f 179/120/88 180/125/91 91/162/91
f 208/117/86 190/128/93 100/163/93
f 199/123/90 200/131/95 110/164/95
f 181/126/92 182/134/97 93/165/97
f 189/129/94 191/137/99 102/166/99
f 201/132/96 202/140/101 112/167/101
f 183/135/98 184/143/103 95/168/103
f 192/138/100 193/146/105 103/169/105
f 203/141/102 175/170/114 86/171/114
f 185/144/104 209/149/107 206/172/107
f 175/170/114 174/152/109 87/173/109
f 194/147/106 195/155/111 105/174/111
f 187/150/108 186/157/112 98/175/112
f 176/153/110 177/159/113 89/176/113
f 141/177/115 145/178/116 142/179/117
f 130/180/118 145/178/116 131/181/119
f 121/182/120 145/178/116 122/183/121
f 139/184/122 145/178/116 140/185/123
f 119/186/124 145/178/116 120/187/125
f 137/188/126 145/178/116 138/189/127
f 117/190/128 145/178/116 118/191/129
f 127/192/130 145/178/116 128/193/131
f 135/194/132 145/178/116 136/195/133
f 115/196/134 145/178/116 116/197/135
f 144/198/136 145/178/116 115/196/134
f 133/199/137 145/178/116 134/200/138
f 124/201/139 145/178/116 125/202/140
f 142/179/117 145/178/116 143/203/141
f 131/181/119 145/178/116 132/204/142
f 122/183/121 145/178/116 123/205/143
f 140/185/123 145/178/116 141/177/115
f 120/187/125 145/178/116 121/182/120
f 138/189/127 145/178/116 139/184/122
f 118/191/129 145/178/116 119/186/124
f 128/193/131 145/178/116 129/206/144
f 136/195/133 145/178/116 137/188/126
f 116/197/135 145/178/116 117/190/128
f 134/200/138 145/178/116 135/194/132
f 125/202/140 145/178/116 126/207/145
f 143/203/141 145/178/116 144/198/136
f 132/204/142 145/178/116 133/199/137
f 123/205/143 145/178/116 124/201/139
f 129/206/144 145/178/116 83/208/146
f 126/207/145 145/178/116 82/209/147
f 83/208/146 145/178/116 130/180/118
f 82/209/147 145/178/116 127/192/130
f 166/156/83 196/113/83 107/115/84
f 99/158/85 188/116/85 205/118/86
f 84/160/87 178/119/87 90/121/88
f 108/161/89 198/122/89 109/124/90
f 91/162/91 180/125/91 92/127/92
f 100/163/93 190/128/93 101/130/94
f 110/164/95 200/131/95 111/133/96
f 93/165/97 182/134/97 94/136/98
f 102/166/99 191/137/99 80/139/100
f 112/167/101 202/140/101 113/142/102
f 95/168/103 184/143/103 96/145/104
f 103/169/105 193/146/105 104/148/106
f 206/172/107 209/149/107 97/151/108
f 87/173/109 174/152/109 88/154/110
f 105/174/111 195/155/111 166/156/83
f 98/175/112 186/157/112 99/158/85
f 89/176/113 177/159/113 84/160/87
f 107/115/84 197/114/84 108/161/89
f 90/121/88 179/120/88 91/162/91
f 205/118/86 208/117/86 100/163/93
f 109/124/90 199/123/90 110/164/95
f 92/127/92 181/126/92 93/165/97
f 101/130/94 189/129/94 102/166/99
f 111/133/96 201/132/96 112/167/101
f 94/136/98 183/135/98 95/168/103
f 80/139/100 192/138/100 103/169/105
f 113/142/102 203/141/102 86/171/114
f 96/145/104 185/144/104 206/172/107
f 86/171/114 175/170/114 87/173/109
f 104/148/106 194/147/106 105/174/111
f 97/151/108 187/150/108 98/175/112
f 88/154/110 176/153/110 89/176/113
