# Blender v2.77 (sub 0) OBJ File: 'huston3.blend'
# www.blender.org
mtllib huston3.mtl
o ColobotMesh_1_ColobotMesh_
v 2.000000 -1.861140 -0.911542
v -3.999130 1.527990 -1.488020
v -2.217940 -0.472012 -0.155960
v -4.283100 -0.472012 -1.232430
v -3.999130 -1.472010 -1.488020
v -2.217940 -1.861140 -0.411542
v 0.000000 -0.472012 0.322549
v 0.000000 -1.982660 0.066967
v 2.201370 -0.472012 -0.155960
v 2.201370 -1.861140 -0.411542
v 4.283530 -0.472012 -1.232430
v 4.000190 -1.472010 -1.488020
v -2.217940 0.527987 -0.155960
v -4.283100 0.527987 -1.232430
v 0.000000 0.527987 0.322549
v 2.201370 0.527987 -0.155960
v 4.000000 -0.472012 -1.613670
v 3.716670 -1.472010 -1.869260
v -2.000000 0.527987 -0.655960
v -4.000000 0.527987 -1.613670
v 0.000000 0.527987 -0.177451
v 2.000000 0.527987 -0.655960
v 4.000000 0.527987 -1.613670
v 2.201370 1.889400 -0.411542
v -3.716030 -1.472010 -1.869260
v -2.000000 -1.861140 -0.911542
v 0.000000 -1.982660 -0.433033
v -4.000000 -0.472012 -1.613670
v 2.000000 -0.472012 -0.655960
v 4.283530 0.527987 -1.232430
v -2.000000 -0.472012 -0.655960
v 0.000000 2.010910 0.066967
v 4.000190 1.527990 -1.488020
v -2.217940 1.889400 -0.411542
v 2.000000 1.889400 -0.911542
v 0.000000 2.010910 -0.433033
v -2.000000 1.889400 -0.911542
v -3.716030 1.527990 -1.869260
v 0.000000 -0.472012 -0.177451
v 3.716670 1.527990 -1.869260
vt 0.6250 0.1660
vt 0.6882 0.1970
vt 0.6250 0.1970
vt 0.5613 0.2176
vt 0.6250 0.2480
vt 0.5613 0.2456
vt 0.6882 0.2176
vt 0.6250 0.2176
vt 0.7399 0.1765
vt 0.6882 0.1685
vt 0.5101 0.2381
vt 0.5020 0.2176
vt 0.7480 0.1970
vt 0.5101 0.1765
vt 0.5613 0.1970
vt 0.5020 0.1970
vt 0.7399 0.2381
vt 0.7480 0.2176
vt 0.5613 0.1685
vt 0.6882 0.2456
vt 0.9443 0.6995
vt 0.9837 0.6799
vt 0.9443 0.6723
vt 0.9443 0.7190
vt 0.9837 0.7386
vt 0.9902 0.7190
vt 0.9902 0.6995
vt 0.8066 0.7190
vt 0.8525 0.6995
vt 0.8066 0.6995
vt 0.8984 0.7190
vt 0.8984 0.6995
vt 0.8984 0.6699
vt 0.8525 0.6723
vt 0.8984 0.7480
vt 0.8132 0.6799
vt 0.8525 0.7190
vt 0.8132 0.7386
vt 0.9443 0.7457
vt 0.8525 0.7457
vt 0.0000 1.0000
vt 0.0000 1.0000
vt 0.0000 1.0000
vt 0.0000 1.0000
vt 0.0000 1.0000
vt 0.0000 1.0000
vt 0.0000 1.0000
vt 0.0000 1.0000
vt 0.0000 1.0000
vt 0.0000 1.0000
vt 0.0000 1.0000
vt 0.0000 1.0000
vt 0.0000 1.0000
vt 0.0000 1.0000
vt 0.0000 1.0000
vt 0.0000 1.0000
vt 0.0000 1.0000
vt 0.0000 1.0000
vt 0.0000 1.0000
vt 0.0000 1.0000
vt 0.0000 1.0000
vt 0.0000 1.0000
vt 0.0000 1.0000
vt 0.0000 1.0000
vt 0.0000 1.0000
vt 0.0000 1.0000
vt 0.0000 1.0000
vt 0.0000 1.0000
vn 0.0006 -0.7341 0.6790
vn 0.3502 -0.0956 0.9318
vn 0.0008 -0.0828 0.9966
vn -0.3508 0.0971 0.9314
vn 0.0006 0.7352 0.6778
vn -0.3234 0.7399 0.5899
vn 0.3499 0.0970 0.9317
vn 0.0008 0.0843 0.9964
vn 0.7805 -0.6209 0.0728
vn 0.3258 -0.7390 0.5896
vn -0.7773 0.6250 0.0721
vn -0.9557 0.1541 0.2509
vn 0.9553 -0.1539 0.2522
vn -0.7806 -0.6210 0.0715
vn -0.3511 -0.0957 0.9314
vn -0.9557 -0.1541 0.2509
vn 0.7772 0.6249 0.0734
vn 0.9553 0.1539 0.2522
vn -0.3273 -0.7395 0.5882
vn 0.3219 0.7395 0.5912
vn -0.3463 0.0959 -0.9332
vn 0.1432 -0.4385 -0.8872
vn -0.1781 -0.6897 -0.7018
vn -0.3460 -0.0973 -0.9331
vn 0.1405 0.4435 -0.8852
vn 0.3094 -0.0670 -0.9485
vn 0.3094 0.0670 -0.9485
vn -0.3099 -0.0667 -0.9484
vn 0.3464 0.0960 -0.9332
vn -0.3099 0.0667 -0.9484
vn 0.0000 -0.0842 -0.9964
vn 0.0000 0.0827 -0.9966
vn 0.0002 -0.7189 -0.6951
vn 0.1792 -0.6887 -0.7026
vn 0.0002 0.7178 -0.6962
vn -0.1432 -0.4385 -0.8872
vn 0.3460 -0.0974 -0.9331
vn -0.1406 0.4435 -0.8851
vn -0.1841 0.6876 -0.7023
vn 0.1851 0.6866 -0.7031
vn 0.8024 0.0000 -0.5968
vn 0.8002 0.0746 -0.5951
vn -0.8029 0.0000 -0.5962
vn -0.1582 0.9850 -0.0690
vn 0.1595 0.9851 -0.0642
vn -0.0547 0.9985 0.0000
vn 0.0551 0.9985 0.0000
vn -0.8006 0.0754 -0.5945
vn 0.8002 -0.0746 -0.5951
vn 0.1713 -0.9828 -0.0690
vn 0.0551 -0.9985 0.0000
vn -0.0547 -0.9985 0.0000
vn -0.1699 -0.9827 -0.0741
vn -0.8006 -0.0754 -0.5945
vn -0.1464 0.9832 -0.1087
vn 0.1463 0.9832 -0.1088
vn -0.0549 0.9982 -0.0239
vn 0.0553 0.9982 -0.0223
vn 0.1571 -0.9806 -0.1168
vn 0.0553 -0.9982 -0.0223
vn -0.0549 -0.9982 -0.0239
vn -0.1572 -0.9806 -0.1167
usemtl ColobotMesh_mat_1
s 1
f 8/1/1 9/2/2 7/3/3
f 13/4/4 32/5/5 34/6/6
f 7/3/3 16/7/7 15/8/8
f 12/9/9 9/2/2 10/10/10
f 16/7/7 32/5/5 15/8/8
f 13/4/4 2/11/11 14/12/12
f 11/13/13 16/7/7 9/2/2
f 5/14/14 3/15/15 4/16/16
f 33/17/17 16/7/7 30/18/18
f 8/1/1 3/15/15 6/19/19
f 7/3/3 13/4/4 3/15/15
f 3/15/15 14/12/12 4/16/16
f 8/1/1 10/10/10 9/2/2
f 13/4/4 15/8/8 32/5/5
f 7/3/3 9/2/2 16/7/7
f 12/9/9 11/13/13 9/2/2
f 16/7/7 24/20/20 32/5/5
f 13/4/4 34/6/6 2/11/11
f 11/13/13 30/18/18 16/7/7
f 5/14/14 6/19/19 3/15/15
f 33/17/17 24/20/20 16/7/7
f 8/1/1 7/3/3 3/15/15
f 7/3/3 15/8/8 13/4/4
f 3/15/15 13/4/4 14/12/12
usemtl ColobotMesh_mat_2
f 29/21/21 18/22/22 1/23/23
f 22/24/24 40/25/25 23/26/26
f 29/21/21 23/26/26 17/27/27
f 20/28/28 31/29/29 28/30/30
f 21/31/31 29/21/21 39/32/32
f 31/29/29 21/31/31 39/32/32
f 31/29/29 27/33/33 26/34/34
f 27/33/33 29/21/21 1/23/23
f 36/35/35 22/24/24 21/31/31
f 25/36/36 31/29/29 26/34/34
f 19/37/37 36/35/35 21/31/31
f 38/38/38 19/37/37 20/28/28
f 29/21/21 17/27/27 18/22/22
f 22/24/24 35/39/39 40/25/25
f 29/21/21 22/24/24 23/26/26
f 20/28/28 19/37/37 31/29/29
f 21/31/31 22/24/24 29/21/21
f 31/29/29 19/37/37 21/31/31
f 31/29/29 39/32/32 27/33/33
f 27/33/33 39/32/32 29/21/21
f 36/35/35 35/39/39 22/24/24
f 25/36/36 28/30/30 31/29/29
f 19/37/37 37/40/40 36/35/35
f 38/38/38 37/40/40 19/37/37
usemtl ColobotMesh_mat_3
s off
f 17/41/41 30/42/41 11/43/41
f 23/44/42 33/45/42 30/42/42
f 20/46/43 4/47/43 14/48/43
f 37/49/44 2/50/44 34/51/44
f 33/45/45 35/52/45 24/53/45
f 36/54/46 34/51/46 32/55/46
f 24/53/47 36/54/47 32/55/47
f 2/50/48 20/46/48 14/48/48
f 12/56/49 17/41/49 11/43/49
f 1/57/50 12/56/50 10/58/50
f 27/59/51 10/58/51 8/60/51
f 6/61/52 27/59/52 8/60/52
f 5/62/53 26/63/53 6/61/53
f 28/64/54 5/62/54 4/47/54
f 17/41/41 23/44/41 30/42/41
f 23/44/42 40/65/42 33/45/42
f 20/46/43 28/64/43 4/47/43
f 37/49/55 38/66/55 2/50/55
f 33/45/56 40/65/56 35/52/56
f 36/54/57 37/49/57 34/51/57
f 24/53/58 35/52/58 36/54/58
f 2/50/48 38/66/48 20/46/48
f 12/56/49 18/67/49 17/41/49
f 1/57/59 18/67/59 12/56/59
f 27/59/60 1/57/60 10/58/60
f 6/61/61 26/63/61 27/59/61
f 5/62/62 25/68/62 26/63/62
f 28/64/54 25/68/54 5/62/54
