# Blender v2.70 (sub 5) OBJ File: 'info2.blend'
# www.blender.org
mtllib info2.mtl
o Cylinder
v 0.000000 6.000000 -0.000000
v 0.000000 0.000000 -1.499998
v 0.000000 6.000000 -1.499998
v 0.147026 0.000000 -1.492776
v 0.147026 6.000000 -1.492776
v 0.292635 0.000000 -1.471176
v 0.292635 6.000000 -1.471176
v 0.435427 0.000000 -1.435409
v 0.435427 6.000000 -1.435409
v 0.574025 0.000000 -1.385818
v 0.574025 6.000000 -1.385818
v 0.707095 0.000000 -1.322881
v 0.707095 6.000000 -1.322881
v 0.833355 0.000000 -1.247203
v 0.833355 6.000000 -1.247203
v 0.951589 0.000000 -1.159515
v 0.951589 6.000000 -1.159515
v 1.060659 0.000000 -1.060659
v 1.060659 6.000000 -1.060659
v 1.159515 0.000000 -0.951589
v 1.159515 6.000000 -0.951589
v 1.247203 0.000000 -0.833355
v 1.247203 6.000000 -0.833355
v 1.322881 0.000000 -0.707094
v 1.322881 6.000000 -0.707094
v 1.385818 0.000000 -0.574025
v 1.385818 6.000000 -0.574025
v 1.435409 0.000000 -0.435427
v 1.435409 6.000000 -0.435427
v 1.471177 0.000000 -0.292635
v 1.471177 6.000000 -0.292635
v 1.492776 0.000000 -0.147025
v 1.492776 6.000000 -0.147025
v 1.499999 0.000000 0.000000
v 1.499999 6.000000 0.000000
v 1.492776 0.000000 0.147026
v 1.492776 6.000000 0.147026
v 1.471177 0.000000 0.292635
v 1.471177 6.000000 0.292635
v 1.435409 0.000000 0.435427
v 1.435409 6.000000 0.435427
v 1.385818 0.000000 0.574025
v 1.385818 6.000000 0.574025
v 1.322881 0.000000 0.707095
v 1.322881 6.000000 0.707095
v 1.247203 0.000000 0.833355
v 1.247203 6.000000 0.833355
v 1.159514 0.000000 0.951589
v 1.159514 6.000000 0.951589
v 1.060659 0.000000 1.060659
v 1.060659 6.000000 1.060659
v 0.951589 0.000000 1.159515
v 0.951589 6.000000 1.159515
v 0.833354 0.000000 1.247203
v 0.833354 6.000000 1.247203
v 0.707094 0.000000 1.322881
v 0.707094 6.000000 1.322881
v 0.574024 0.000000 1.385818
v 0.574024 6.000000 1.385818
v 0.435426 0.000000 1.435409
v 0.435426 6.000000 1.435409
v 0.292634 0.000000 1.471176
v 0.292634 6.000000 1.471176
v 0.147025 0.000000 1.492775
v 0.147025 6.000000 1.492775
v -0.000001 0.000000 1.499998
v -0.000001 6.000000 1.499998
v -0.147027 0.000000 1.492775
v -0.147027 6.000000 1.492775
v -0.292636 0.000000 1.471176
v -0.292636 6.000000 1.471176
v -0.435428 0.000000 1.435408
v -0.435428 6.000000 1.435408
v -0.574026 0.000000 1.385817
v -0.574026 6.000000 1.385817
v -0.707095 0.000000 1.322880
v -0.707095 6.000000 1.322880
v -0.833355 0.000000 1.247202
v -0.833355 6.000000 1.247202
v -0.951590 0.000000 1.159513
v -0.951590 6.000000 1.159513
v -1.060660 0.000000 1.060658
v -1.060660 6.000000 1.060658
v -1.159515 0.000000 0.951588
v -1.159515 6.000000 0.951588
v -1.247203 0.000000 0.833353
v -1.247203 6.000000 0.833353
v -1.322881 0.000000 0.707093
v -1.322881 6.000000 0.707093
v -1.385818 0.000000 0.574024
v -1.385818 6.000000 0.574024
v -1.435409 0.000000 0.435426
v -1.435409 6.000000 0.435426
v -1.471176 0.000000 0.292635
v -1.471176 6.000000 0.292635
v -1.492775 0.000000 0.147026
v -1.492775 6.000000 0.147026
v -1.499998 0.000000 0.000001
v -1.499998 6.000000 0.000001
v -1.492775 0.000000 -0.147025
v -1.492775 6.000000 -0.147025
v -1.471176 0.000000 -0.292634
v -1.471176 6.000000 -0.292634
v -1.435409 0.000000 -0.435425
v -1.435409 6.000000 -0.435425
v -1.385818 0.000000 -0.574023
v -1.385818 6.000000 -0.574023
v -1.322881 0.000000 -0.707093
v -1.322881 6.000000 -0.707093
v -1.247204 0.000000 -0.833353
v -1.247204 6.000000 -0.833353
v -1.159516 0.000000 -0.951587
v -1.159516 6.000000 -0.951587
v -1.060661 0.000000 -1.060657
v -1.060661 6.000000 -1.060657
v -0.951591 0.000000 -1.159512
v -0.951591 6.000000 -1.159512
v -0.833357 0.000000 -1.247201
v -0.833357 6.000000 -1.247201
v -0.707098 0.000000 -1.322879
v -0.707098 6.000000 -1.322879
v -0.574028 0.000000 -1.385816
v -0.574028 6.000000 -1.385816
v -0.435431 0.000000 -1.435408
v -0.435431 6.000000 -1.435408
v -0.292640 0.000000 -1.471175
v -0.292640 6.000000 -1.471175
v -0.147030 0.000000 -1.492775
v -0.147030 6.000000 -1.492775
vt 0.581782 0.988883
vt 0.580261 0.994952
vt 0.579674 0.994774
vt 0.580863 0.995072
vt 0.581475 0.995132
vt 0.582089 0.995132
vt 0.582700 0.995072
vt 0.583302 0.994952
vt 0.583889 0.994774
vt 0.584457 0.994539
vt 0.584998 0.994250
vt 0.585509 0.993908
vt 0.585983 0.993519
vt 0.586418 0.993085
vt 0.586807 0.992610
vt 0.587148 0.992100
vt 0.587438 0.991558
vt 0.587673 0.990991
vt 0.587851 0.990403
vt 0.587971 0.989801
vt 0.588031 0.989190
vt 0.588031 0.988576
vt 0.587971 0.987965
vt 0.587851 0.987363
vt 0.587673 0.986775
vt 0.587438 0.986208
vt 0.587148 0.985666
vt 0.586807 0.985156
vt 0.586418 0.984681
vt 0.585983 0.984247
vt 0.585509 0.983857
vt 0.584998 0.983516
vt 0.584457 0.983227
vt 0.583889 0.982992
vt 0.583302 0.982813
vt 0.582700 0.982694
vt 0.582089 0.982633
vt 0.581475 0.982633
vt 0.580863 0.982694
vt 0.580261 0.982813
vt 0.579674 0.982992
vt 0.579106 0.983227
vt 0.578565 0.983516
vt 0.578054 0.983857
vt 0.577580 0.984247
vt 0.577146 0.984681
vt 0.576756 0.985156
vt 0.576415 0.985666
vt 0.576125 0.986208
vt 0.575890 0.986775
vt 0.575712 0.987363
vt 0.575592 0.987965
vt 0.575532 0.988576
vt 0.575532 0.989190
vt 0.575592 0.989801
vt 0.575712 0.990403
vt 0.575890 0.990991
vt 0.576125 0.991558
vt 0.576415 0.992100
vt 0.576756 0.992610
vt 0.577146 0.993085
vt 0.577580 0.993519
vt 0.578054 0.993908
vt 0.578565 0.994250
vt 0.579106 0.994539
vt 0.057228 0.628739
vt 0.057228 0.870951
vt 0.054175 0.870951
vt 0.054175 0.628739
vt 0.051121 0.870951
vt 0.051121 0.628739
vt 0.048068 0.870951
vt 0.048068 0.628739
vt 0.045015 0.870951
vt 0.045015 0.628739
vt 0.041962 0.870951
vt 0.041961 0.628739
vt 0.038908 0.870951
vt 0.038908 0.628739
vt 0.035855 0.870951
vt 0.035855 0.628739
vt 0.032802 0.870951
vt 0.032802 0.628739
vn 0.000000 1.000000 -0.000000
vn 0.000000 1.000000 0.000001
vn 0.000000 1.000000 0.000002
vn 0.000000 1.000000 -0.000001
vn 0.000000 1.000000 0.000003
vn 0.000000 1.000000 -0.000003
vn 0.000000 1.000000 -0.000004
vn 0.049068 0.000000 -0.998795
vn 0.146730 0.000000 -0.989177
vn 0.242980 -0.000000 -0.970031
vn 0.336889 0.000000 -0.941544
vn 0.427556 0.000000 -0.903989
vn 0.514103 0.000000 -0.857729
vn 0.595699 0.000000 -0.803208
vn 0.671560 -0.000000 -0.740951
vn 0.740951 -0.000000 -0.671559
vn 0.803207 0.000000 -0.595700
vn 0.857729 0.000000 -0.514102
vn 0.903989 -0.000000 -0.427555
vn 0.941544 0.000000 -0.336890
vn 0.970031 0.000000 -0.242980
vn 0.989177 -0.000000 -0.146730
vn 0.998795 -0.000000 -0.049068
vn 0.998795 0.000000 0.049068
vn 0.989177 -0.000000 0.146731
vn 0.970031 0.000000 0.242980
vn 0.941544 0.000000 0.336890
vn 0.903989 -0.000000 0.427555
vn 0.857728 0.000000 0.514103
vn 0.803207 -0.000000 0.595700
vn 0.740951 -0.000000 0.671559
vn 0.671559 0.000000 0.740952
vn 0.595699 0.000000 0.803208
vn 0.514102 -0.000000 0.857729
vn 0.427555 0.000000 0.903989
vn 0.336889 -0.000000 0.941544
vn 0.242979 0.000000 0.970031
vn 0.146729 -0.000000 0.989177
vn 0.049067 0.000000 0.998796
vn -0.049069 -0.000000 0.998795
vn -0.146731 0.000000 0.989176
vn -0.242980 0.000000 0.970031
vn -0.336890 0.000000 0.941544
vn -0.427556 0.000000 0.903989
vn -0.514104 -0.000000 0.857728
vn -0.595700 0.000000 0.803207
vn -0.671560 0.000000 0.740951
vn -0.740952 -0.000000 0.671558
vn -0.803208 0.000000 0.595699
vn -0.857729 0.000000 0.514102
vn -0.903989 -0.000000 0.427555
vn -0.941544 -0.000000 0.336889
vn -0.970031 0.000000 0.242980
vn -0.989176 0.000000 0.146731
vn -0.998795 -0.000000 0.049069
vn -0.998795 -0.000000 -0.049068
vn -0.989177 0.000000 -0.146729
vn -0.970031 0.000000 -0.242979
vn -0.941545 -0.000000 -0.336888
vn -0.903990 -0.000000 -0.427555
vn -0.857730 -0.000000 -0.514101
vn -0.803208 0.000000 -0.595698
vn -0.740953 -0.000000 -0.671557
vn -0.671560 -0.000000 -0.740950
vn -0.595701 -0.000000 -0.803206
vn -0.514105 0.000000 -0.857727
vn -0.427558 0.000000 -0.903988
vn -0.336893 0.000000 -0.941543
vn -0.242982 -0.000000 -0.970031
vn -0.146734 0.000000 -0.989176
vn -0.049070 -0.000000 -0.998795
vn 0.049067 0.000000 -0.998796
vn 0.336890 0.000000 -0.941544
vn 0.671559 -0.000000 -0.740951
vn 0.970031 0.000000 0.242981
vn 0.671558 0.000000 0.740952
vn 0.595700 0.000000 0.803207
vn 0.427554 0.000000 0.903990
vn 0.242981 0.000000 0.970031
vn 0.146730 -0.000000 0.989177
vn 0.049067 0.000000 0.998795
vn -0.049067 -0.000000 0.998795
vn -0.146732 0.000000 0.989176
vn -0.242982 0.000000 0.970031
vn -0.336891 0.000000 0.941544
vn -0.903990 -0.000000 -0.427554
vn -0.740952 -0.000000 -0.671558
vn -0.595702 -0.000000 -0.803206
vn -0.336894 0.000000 -0.941543
vn -0.242984 -0.000000 -0.970030
vn -0.146733 0.000000 -0.989176
vn -0.049069 -0.000000 -0.998795
usemtl None
s off
f 1/1/1 5/2/1 3/3/1
f 1/1/1 7/4/1 5/2/1
f 1/1/2 9/5/2 7/4/2
f 1/1/2 11/6/2 9/5/2
f 1/1/1 13/7/1 11/6/1
f 1/1/3 15/8/3 13/7/3
f 1/1/4 17/9/4 15/8/4
f 1/1/1 19/10/1 17/9/1
f 1/1/2 21/11/2 19/10/2
f 1/1/4 23/12/4 21/11/4
f 1/1/4 25/13/4 23/12/4
f 1/1/2 27/14/2 25/13/2
f 1/1/4 29/15/4 27/14/4
f 1/1/2 31/16/2 29/15/2
f 1/1/4 33/17/4 31/16/4
f 1/1/5 35/18/5 33/17/5
f 1/1/4 37/19/4 35/18/4
f 1/1/5 39/20/5 37/19/5
f 1/1/6 41/21/6 39/20/6
f 1/1/4 43/22/4 41/21/4
f 1/1/7 45/23/7 43/22/7
f 1/1/4 47/24/4 45/23/4
f 1/1/2 49/25/2 47/24/2
f 1/1/4 51/26/4 49/25/4
f 1/1/4 53/27/4 51/26/4
f 1/1/2 55/28/2 53/27/2
f 1/1/4 57/29/4 55/28/4
f 1/1/2 59/30/2 57/29/2
f 1/1/1 61/31/1 59/30/1
f 1/1/2 63/32/2 61/31/2
f 1/1/2 65/33/2 63/32/2
f 1/1/1 67/34/1 65/33/1
f 1/1/1 69/35/1 67/34/1
f 1/1/1 71/36/1 69/35/1
f 1/1/1 73/37/1 71/36/1
f 1/1/2 75/38/2 73/37/2
f 1/1/1 77/39/1 75/38/1
f 1/1/1 79/40/1 77/39/1
f 1/1/1 81/41/1 79/40/1
f 1/1/4 83/42/4 81/41/4
f 1/1/4 85/43/4 83/42/4
f 1/1/4 87/44/4 85/43/4
f 1/1/4 89/45/4 87/44/4
f 1/1/4 91/46/4 89/45/4
f 1/1/7 93/47/7 91/46/7
f 1/1/4 95/48/4 93/47/4
f 1/1/5 97/49/5 95/48/5
f 1/1/6 99/50/6 97/49/6
f 1/1/4 101/51/4 99/50/4
f 1/1/5 103/52/5 101/51/5
f 1/1/6 105/53/6 103/52/6
f 1/1/4 107/54/4 105/53/4
f 1/1/5 109/55/5 107/54/5
f 1/1/2 111/56/2 109/55/2
f 1/1/2 113/57/2 111/56/2
f 1/1/4 115/58/4 113/57/4
f 1/1/2 117/59/2 115/58/2
f 1/1/2 119/60/2 117/59/2
f 1/1/3 121/61/3 119/60/3
f 1/1/4 123/62/4 121/61/4
f 1/1/2 125/63/2 123/62/2
f 1/1/1 127/64/1 125/63/1
f 1/1/1 129/65/1 127/64/1
f 1/1/1 3/3/1 129/65/1
usemtl None_derrick.png
f 2/66/8 3/67/8 5/68/8
f 4/69/9 5/68/9 7/70/9
f 6/71/10 7/70/10 9/72/10
f 8/73/11 9/72/11 11/74/11
f 10/75/12 11/74/12 13/76/12
f 12/77/13 13/76/13 15/78/13
f 14/79/14 15/78/14 17/80/14
f 16/81/15 17/80/15 19/82/15
f 18/66/16 19/67/16 21/68/16
f 20/69/17 21/68/17 23/70/17
f 22/71/18 23/70/18 25/72/18
f 24/73/19 25/72/19 27/74/19
f 26/75/20 27/74/20 29/76/20
f 28/77/21 29/76/21 31/78/21
f 30/79/22 31/78/22 33/80/22
f 32/81/23 33/80/23 35/82/23
f 34/66/24 35/67/24 37/68/24
f 36/69/25 37/68/25 39/70/25
f 38/71/26 39/70/26 41/72/26
f 40/73/27 41/72/27 43/74/27
f 42/75/28 43/74/28 45/76/28
f 44/77/29 45/76/29 47/78/29
f 46/79/30 47/78/30 49/80/30
f 48/81/31 49/80/31 51/82/31
f 50/66/32 51/67/32 53/68/32
f 52/69/33 53/68/33 55/70/33
f 54/71/34 55/70/34 57/72/34
f 56/73/35 57/72/35 59/74/35
f 58/75/36 59/74/36 61/76/36
f 60/77/37 61/76/37 63/78/37
f 62/79/38 63/78/38 65/80/38
f 64/81/39 65/80/39 67/82/39
f 66/66/40 67/67/40 69/68/40
f 68/69/41 69/68/41 71/70/41
f 70/71/42 71/70/42 73/72/42
f 72/73/43 73/72/43 75/74/43
f 74/75/44 75/74/44 77/76/44
f 76/77/45 77/76/45 79/78/45
f 78/79/46 79/78/46 81/80/46
f 80/81/47 81/80/47 83/82/47
f 82/66/48 83/67/48 85/68/48
f 84/69/49 85/68/49 87/70/49
f 86/71/50 87/70/50 89/72/50
f 88/73/51 89/72/51 91/74/51
f 90/75/52 91/74/52 93/76/52
f 92/77/53 93/76/53 95/78/53
f 94/79/54 95/78/54 97/80/54
f 96/81/55 97/80/55 99/82/55
f 98/66/56 99/67/56 101/68/56
f 100/69/57 101/68/57 103/70/57
f 102/71/58 103/70/58 105/72/58
f 104/73/59 105/72/59 107/74/59
f 106/75/60 107/74/60 109/76/60
f 108/77/61 109/76/61 111/78/61
f 110/79/62 111/78/62 113/80/62
f 112/81/63 113/80/63 115/82/63
f 114/66/64 115/67/64 117/68/64
f 116/69/65 117/68/65 119/70/65
f 118/71/66 119/70/66 121/72/66
f 120/73/67 121/72/67 123/74/67
f 122/75/68 123/74/68 125/76/68
f 124/77/69 125/76/69 127/78/69
f 126/79/70 127/78/70 129/80/70
f 128/81/71 129/80/71 3/82/71
f 4/69/72 2/66/72 5/68/72
f 6/71/9 4/69/9 7/70/9
f 8/73/10 6/71/10 9/72/10
f 10/75/73 8/73/73 11/74/73
f 12/77/12 10/75/12 13/76/12
f 14/79/13 12/77/13 15/78/13
f 16/81/14 14/79/14 17/80/14
f 18/83/74 16/81/74 19/82/74
f 20/69/16 18/66/16 21/68/16
f 22/71/17 20/69/17 23/70/17
f 24/73/18 22/71/18 25/72/18
f 26/75/19 24/73/19 27/74/19
f 28/77/20 26/75/20 29/76/20
f 30/79/21 28/77/21 31/78/21
f 32/81/22 30/79/22 33/80/22
f 34/83/23 32/81/23 35/82/23
f 36/69/24 34/66/24 37/68/24
f 38/71/25 36/69/25 39/70/25
f 40/73/75 38/71/75 41/72/75
f 42/75/27 40/73/27 43/74/27
f 44/77/28 42/75/28 45/76/28
f 46/79/29 44/77/29 47/78/29
f 48/81/30 46/79/30 49/80/30
f 50/83/31 48/81/31 51/82/31
f 52/69/76 50/66/76 53/68/76
f 54/71/77 52/69/77 55/70/77
f 56/73/34 54/71/34 57/72/34
f 58/75/78 56/73/78 59/74/78
f 60/77/36 58/75/36 61/76/36
f 62/79/79 60/77/79 63/78/79
f 64/81/80 62/79/80 65/80/80
f 66/83/81 64/81/81 67/82/81
f 68/69/82 66/66/82 69/68/82
f 70/71/83 68/69/83 71/70/83
f 72/73/84 70/71/84 73/72/84
f 74/75/85 72/73/85 75/74/85
f 76/77/44 74/75/44 77/76/44
f 78/79/45 76/77/45 79/78/45
f 80/81/46 78/79/46 81/80/46
f 82/83/47 80/81/47 83/82/47
f 84/69/48 82/66/48 85/68/48
f 86/71/49 84/69/49 87/70/49
f 88/73/50 86/71/50 89/72/50
f 90/75/51 88/73/51 91/74/51
f 92/77/52 90/75/52 93/76/52
f 94/79/53 92/77/53 95/78/53
f 96/81/54 94/79/54 97/80/54
f 98/83/55 96/81/55 99/82/55
f 100/69/56 98/66/56 101/68/56
f 102/71/57 100/69/57 103/70/57
f 104/73/58 102/71/58 105/72/58
f 106/75/59 104/73/59 107/74/59
f 108/77/86 106/75/86 109/76/86
f 110/79/61 108/77/61 111/78/61
f 112/81/62 110/79/62 113/80/62
f 114/83/87 112/81/87 115/82/87
f 116/69/64 114/66/64 117/68/64
f 118/71/88 116/69/88 119/70/88
f 120/73/66 118/71/66 121/72/66
f 122/75/67 120/73/67 123/74/67
f 124/77/89 122/75/89 125/76/89
f 126/79/90 124/77/90 127/78/90
f 128/81/91 126/79/91 129/80/91
f 2/83/92 128/81/92 3/82/92
