# Blender v2.70 (sub 5) OBJ File: 'info1.blend'
# www.blender.org
mtllib info1.mtl
o ColobotMesh_1_ColobotMesh_
v -3.000000 5.000000 -3.000000
v 3.000000 5.000000 3.000000
v 3.000000 5.000000 -3.000000
v -3.000000 5.000000 3.000000
v 5.000000 -1.000000 -5.000000
v -5.000000 -1.000000 -5.000000
v 5.000000 -1.000000 5.000000
v -5.000000 -1.000000 5.000000
vt 0.373047 0.998047
vt 0.373047 0.908203
vt 0.251953 0.908203
vt 0.251953 0.998047
vt 0.698828 0.529297
vt 0.748047 0.314453
vt 0.501953 0.314453
vt 0.551172 0.529297
vn 0.000000 1.000000 0.000000
vn -0.000000 0.316228 -0.948683
vn 0.948683 0.316228 0.000000
vn -0.000000 0.316228 0.948683
vn -0.948683 0.316228 0.000000
usemtl ColobotMesh_mat_1
s off
f 2/1/1 3/2/1 1/3/1
f 1/3/1 4/4/1 2/1/1
usemtl ColobotMesh_mat_2
f 3/5/2 5/6/2 6/7/2
f 6/7/2 1/8/2 3/5/2
f 2/5/3 7/6/3 5/7/3
f 5/7/3 3/8/3 2/5/3
f 4/8/4 8/7/4 7/6/4
f 7/6/4 2/5/4 4/8/4
f 1/8/5 6/7/5 8/6/5
f 8/6/5 4/5/5 1/8/5
