# Blender v2.77 (sub 0) OBJ File: 'info2.blend'
# www.blender.org
mtllib info2.mtl
o Cylinder
v 0.000000 6.000000 -0.000000
v 0.000000 0.000000 -1.499998
v 0.000000 6.000000 -1.499998
v 0.147026 0.000000 -1.492776
v 0.147026 6.000000 -1.492776
v 0.292635 0.000000 -1.471176
v 0.292635 6.000000 -1.471176
v 0.435427 0.000000 -1.435409
v 0.435427 6.000000 -1.435409
v 0.574025 0.000000 -1.385818
v 0.574025 6.000000 -1.385818
v 0.707095 0.000000 -1.322881
v 0.707095 6.000000 -1.322881
v 0.833355 0.000000 -1.247203
v 0.833355 6.000000 -1.247203
v 0.951589 0.000000 -1.159515
v 0.951589 6.000000 -1.159515
v 1.060659 0.000000 -1.060659
v 1.060659 6.000000 -1.060659
v 1.159515 0.000000 -0.951589
v 1.159515 6.000000 -0.951589
v 1.247203 0.000000 -0.833355
v 1.247203 6.000000 -0.833355
v 1.322881 0.000000 -0.707094
v 1.322881 6.000000 -0.707094
v 1.385818 0.000000 -0.574025
v 1.385818 6.000000 -0.574025
v 1.435409 0.000000 -0.435427
v 1.435409 6.000000 -0.435427
v 1.471177 0.000000 -0.292635
v 1.471177 6.000000 -0.292635
v 1.492776 0.000000 -0.147025
v 1.492776 6.000000 -0.147025
v 1.499999 0.000000 0.000000
v 1.499999 6.000000 0.000000
v 1.492776 0.000000 0.147026
v 1.492776 6.000000 0.147026
v 1.471177 0.000000 0.292635
v 1.471177 6.000000 0.292635
v 1.435409 0.000000 0.435427
v 1.435409 6.000000 0.435427
v 1.385818 0.000000 0.574025
v 1.385818 6.000000 0.574025
v 1.322881 0.000000 0.707095
v 1.322881 6.000000 0.707095
v 1.247203 0.000000 0.833355
v 1.247203 6.000000 0.833355
v 1.159514 0.000000 0.951589
v 1.159514 6.000000 0.951589
v 1.060659 0.000000 1.060659
v 1.060659 6.000000 1.060659
v 0.951589 0.000000 1.159515
v 0.951589 6.000000 1.159515
v 0.833354 0.000000 1.247203
v 0.833354 6.000000 1.247203
v 0.707094 0.000000 1.322881
v 0.707094 6.000000 1.322881
v 0.574024 0.000000 1.385818
v 0.574024 6.000000 1.385818
v 0.435426 0.000000 1.435409
v 0.435426 6.000000 1.435409
v 0.292634 0.000000 1.471176
v 0.292634 6.000000 1.471176
v 0.147025 0.000000 1.492775
v 0.147025 6.000000 1.492775
v -0.000001 0.000000 1.499998
v -0.000001 6.000000 1.499998
v -0.147027 0.000000 1.492775
v -0.147027 6.000000 1.492775
v -0.292636 0.000000 1.471176
v -0.292636 6.000000 1.471176
v -0.435428 0.000000 1.435408
v -0.435428 6.000000 1.435408
v -0.574026 0.000000 1.385817
v -0.574026 6.000000 1.385817
v -0.707095 0.000000 1.322880
v -0.707095 6.000000 1.322880
v -0.833355 0.000000 1.247202
v -0.833355 6.000000 1.247202
v -0.951590 0.000000 1.159513
v -0.951590 6.000000 1.159513
v -1.060660 0.000000 1.060658
v -1.060660 6.000000 1.060658
v -1.159515 0.000000 0.951588
v -1.159515 6.000000 0.951588
v -1.247203 0.000000 0.833353
v -1.247203 6.000000 0.833353
v -1.322881 0.000000 0.707093
v -1.322881 6.000000 0.707093
v -1.385818 0.000000 0.574024
v -1.385818 6.000000 0.574024
v -1.435409 0.000000 0.435426
v -1.435409 6.000000 0.435426
v -1.471176 0.000000 0.292635
v -1.471176 6.000000 0.292635
v -1.492775 0.000000 0.147026
v -1.492775 6.000000 0.147026
v -1.499998 0.000000 0.000001
v -1.499998 6.000000 0.000001
v -1.492775 0.000000 -0.147025
v -1.492775 6.000000 -0.147025
v -1.471176 0.000000 -0.292634
v -1.471176 6.000000 -0.292634
v -1.435409 0.000000 -0.435425
v -1.435409 6.000000 -0.435425
v -1.385818 0.000000 -0.574023
v -1.385818 6.000000 -0.574023
v -1.322881 0.000000 -0.707093
v -1.322881 6.000000 -0.707093
v -1.247204 0.000000 -0.833353
v -1.247204 6.000000 -0.833353
v -1.159516 0.000000 -0.951587
v -1.159516 6.000000 -0.951587
v -1.060661 0.000000 -1.060657
v -1.060661 6.000000 -1.060657
v -0.951591 0.000000 -1.159512
v -0.951591 6.000000 -1.159512
v -0.833357 0.000000 -1.247201
v -0.833357 6.000000 -1.247201
v -0.707098 0.000000 -1.322879
v -0.707098 6.000000 -1.322879
v -0.574028 0.000000 -1.385816
v -0.574028 6.000000 -1.385816
v -0.435431 0.000000 -1.435408
v -0.435431 6.000000 -1.435408
v -0.292640 0.000000 -1.471175
v -0.292640 6.000000 -1.471175
v -0.147030 0.000000 -1.492775
v -0.147030 6.000000 -1.492775
vt 0.0389 0.6287
vt 0.0359 0.8710
vt 0.0359 0.6287
vt 0.0328 0.8710
vt 0.0328 0.6287
vt 0.0542 0.6287
vt 0.0511 0.8710
vt 0.0511 0.6287
vt 0.0481 0.8710
vt 0.0481 0.6287
vt 0.0450 0.8710
vt 0.0450 0.6287
vt 0.0420 0.8710
vt 0.0420 0.6287
vt 0.0389 0.8710
vt 0.0389 0.6287
vt 0.0359 0.8710
vt 0.0359 0.6287
vt 0.0328 0.8710
vt 0.0328 0.6287
vt 0.0572 0.6287
vt 0.0542 0.8710
vt 0.0542 0.6287
vt 0.0511 0.8710
vt 0.0511 0.6287
vt 0.0481 0.8710
vt 0.0481 0.6287
vt 0.0450 0.8710
vt 0.0450 0.6287
vt 0.0420 0.8710
vt 0.0420 0.6287
vt 0.0389 0.8710
vt 0.0389 0.6287
vt 0.0359 0.8710
vt 0.0359 0.6287
vt 0.0328 0.8710
vt 0.0328 0.6287
vt 0.0572 0.6287
vt 0.0542 0.8710
vt 0.0542 0.6287
vt 0.0511 0.8710
vt 0.0511 0.6287
vt 0.0481 0.6287
vt 0.0450 0.8710
vt 0.0450 0.6287
vt 0.0420 0.8710
vt 0.0420 0.6287
vt 0.0389 0.8710
vt 0.0389 0.6287
vt 0.0359 0.8710
vt 0.0359 0.6287
vt 0.0481 0.8710
vt 0.0328 0.8710
vt 0.0328 0.6287
vt 0.0542 0.6287
vt 0.0511 0.8710
vt 0.0511 0.6287
vt 0.0481 0.8710
vt 0.0481 0.6287
vt 0.0450 0.8710
vt 0.0450 0.6287
vt 0.0420 0.8710
vt 0.0420 0.6287
vt 0.0389 0.8710
vt 0.0389 0.6287
vt 0.0359 0.8710
vt 0.0359 0.6287
vt 0.0328 0.8710
vt 0.0328 0.6287
vt 0.0572 0.6287
vt 0.0542 0.8710
vt 0.0542 0.6287
vt 0.0511 0.8710
vt 0.0511 0.6287
vt 0.0481 0.8710
vt 0.0481 0.6287
vt 0.0450 0.8710
vt 0.0450 0.6287
vt 0.0420 0.8710
vt 0.0420 0.6287
vt 0.0389 0.8710
vt 0.0389 0.6287
vt 0.0359 0.8710
vt 0.0359 0.6287
vt 0.0328 0.8710
vt 0.0328 0.6287
vt 0.0572 0.6287
vt 0.0542 0.8710
vt 0.0542 0.6287
vt 0.0511 0.8710
vt 0.0511 0.6287
vt 0.0481 0.8710
vt 0.0481 0.6287
vt 0.0450 0.8710
vt 0.0450 0.6287
vt 0.0420 0.8710
vt 0.0420 0.6287
vt 0.0389 0.8710
vt 0.0389 0.6287
vt 0.0359 0.8710
vt 0.0359 0.6287
vt 0.0328 0.8710
vt 0.0328 0.6287
vt 0.0572 0.6287
vt 0.0542 0.8710
vt 0.0542 0.6287
vt 0.0511 0.8710
vt 0.0511 0.6287
vt 0.0481 0.8710
vt 0.0481 0.6287
vt 0.0450 0.8710
vt 0.0450 0.6287
vt 0.0420 0.8710
vt 0.0420 0.6287
vt 0.0389 0.8710
vt 0.0389 0.6287
vt 0.0359 0.8710
vt 0.0359 0.6287
vt 0.0328 0.8710
vt 0.0328 0.6287
vt 0.0572 0.6287
vt 0.0542 0.8710
vt 0.0542 0.6287
vt 0.0511 0.8710
vt 0.0511 0.6287
vt 0.0481 0.8710
vt 0.0481 0.6287
vt 0.0450 0.8710
vt 0.0450 0.6287
vt 0.0420 0.8710
vt 0.0420 0.6287
vt 0.0389 0.8710
vt 0.0572 0.6287
vt 0.0542 0.8710
vt 0.0572 0.6287
vt 0.0542 0.8710
vt 0.0572 0.8710
vt 0.0572 0.8710
vt 0.0572 0.8710
vt 0.0572 0.8710
vt 0.0572 0.8710
vt 0.0572 0.8710
vt 0.0572 0.8710
vt 0.0572 0.8710
vt 0.5818 0.9889
vt 0.5803 0.9950
vt 0.5797 0.9948
vt 0.5809 0.9951
vt 0.5815 0.9951
vt 0.5821 0.9951
vt 0.5827 0.9951
vt 0.5833 0.9950
vt 0.5839 0.9948
vt 0.5845 0.9945
vt 0.5850 0.9942
vt 0.5855 0.9939
vt 0.5860 0.9935
vt 0.5864 0.9931
vt 0.5868 0.9926
vt 0.5871 0.9921
vt 0.5874 0.9916
vt 0.5877 0.9910
vt 0.5879 0.9904
vt 0.5880 0.9898
vt 0.5880 0.9892
vt 0.5880 0.9886
vt 0.5880 0.9880
vt 0.5879 0.9874
vt 0.5877 0.9868
vt 0.5874 0.9862
vt 0.5871 0.9857
vt 0.5868 0.9852
vt 0.5864 0.9847
vt 0.5860 0.9842
vt 0.5855 0.9839
vt 0.5850 0.9835
vt 0.5845 0.9832
vt 0.5839 0.9830
vt 0.5833 0.9828
vt 0.5827 0.9827
vt 0.5821 0.9826
vt 0.5815 0.9826
vt 0.5809 0.9827
vt 0.5803 0.9828
vt 0.5797 0.9830
vt 0.5791 0.9832
vt 0.5786 0.9835
vt 0.5781 0.9839
vt 0.5776 0.9842
vt 0.5771 0.9847
vt 0.5768 0.9852
vt 0.5764 0.9857
vt 0.5761 0.9862
vt 0.5759 0.9868
vt 0.5757 0.9874
vt 0.5756 0.9880
vt 0.5755 0.9886
vt 0.5755 0.9892
vt 0.5756 0.9898
vt 0.5757 0.9904
vt 0.5759 0.9910
vt 0.5761 0.9916
vt 0.5764 0.9921
vt 0.5768 0.9926
vt 0.5771 0.9931
vt 0.5776 0.9935
vt 0.5781 0.9939
vt 0.5786 0.9942
vt 0.5791 0.9945
vn -0.1951 0.0000 -0.9808
vn -0.0703 0.6962 -0.7143
vn -0.0980 0.0000 -0.9952
vn 0.0000 0.6962 -0.7178
vn 0.0000 0.0000 -1.0000
vn 0.0980 0.0000 -0.9952
vn 0.1400 0.6962 -0.7040
vn 0.1951 0.0000 -0.9808
vn 0.2083 0.6962 -0.6869
vn 0.2903 0.0000 -0.9569
vn 0.2747 0.6962 -0.6632
vn 0.3827 0.0000 -0.9239
vn 0.3384 0.6962 -0.6330
vn 0.4714 0.0000 -0.8819
vn 0.3988 0.6962 -0.5968
vn 0.5556 0.0000 -0.8314
vn 0.4554 0.6962 -0.5549
vn 0.6344 0.0000 -0.7730
vn 0.5076 0.6962 -0.5076
vn 0.7071 0.0000 -0.7071
vn 0.5549 0.6962 -0.4554
vn 0.7730 0.0000 -0.6344
vn 0.5968 0.6962 -0.3988
vn 0.8314 0.0000 -0.5556
vn 0.6330 0.6962 -0.3384
vn 0.8819 0.0000 -0.4714
vn 0.6632 0.6962 -0.2747
vn 0.9239 0.0000 -0.3827
vn 0.6869 0.6962 -0.2083
vn 0.9569 0.0000 -0.2903
vn 0.7040 0.6962 -0.1400
vn 0.9808 0.0000 -0.1951
vn 0.7143 0.6962 -0.0703
vn 0.9952 0.0000 -0.0980
vn 0.7178 0.6962 0.0000
vn 1.0000 0.0000 0.0000
vn 0.7143 0.6962 0.0703
vn 0.9952 0.0000 0.0980
vn 0.7040 0.6962 0.1400
vn 0.9808 0.0000 0.1951
vn 0.9569 0.0000 0.2903
vn 0.6632 0.6962 0.2747
vn 0.9239 0.0000 0.3827
vn 0.6330 0.6962 0.3384
vn 0.8819 0.0000 0.4714
vn 0.5968 0.6962 0.3988
vn 0.8314 0.0000 0.5556
vn 0.5549 0.6962 0.4554
vn 0.7730 0.0000 0.6344
vn 0.6869 0.6962 0.2083
vn 0.5076 0.6962 0.5076
vn 0.7071 0.0000 0.7071
vn 0.6344 0.0000 0.7730
vn 0.3988 0.6962 0.5968
vn 0.5556 0.0000 0.8314
vn 0.3384 0.6962 0.6330
vn 0.4714 0.0000 0.8819
vn 0.2747 0.6962 0.6632
vn 0.3827 0.0000 0.9239
vn 0.2083 0.6962 0.6869
vn 0.2903 0.0000 0.9569
vn 0.1400 0.6962 0.7040
vn 0.1951 0.0000 0.9808
vn 0.0703 0.6962 0.7143
vn 0.0980 0.0000 0.9952
vn 0.0000 0.6962 0.7178
vn 0.0000 0.0000 1.0000
vn -0.0703 0.6962 0.7143
vn -0.0980 0.0000 0.9952
vn -0.1400 0.6962 0.7040
vn -0.1951 0.0000 0.9808
vn -0.2083 0.6962 0.6869
vn -0.2903 0.0000 0.9569
vn -0.2747 0.6962 0.6632
vn -0.3827 0.0000 0.9239
vn -0.3384 0.6962 0.6330
vn -0.4714 0.0000 0.8819
vn -0.3988 0.6962 0.5968
vn -0.5556 0.0000 0.8314
vn -0.4554 0.6962 0.5549
vn -0.6344 0.0000 0.7730
vn -0.5076 0.6962 0.5076
vn -0.7071 0.0000 0.7071
vn -0.5549 0.6962 0.4554
vn -0.7730 0.0000 0.6344
vn -0.5968 0.6962 0.3988
vn -0.8314 0.0000 0.5556
vn -0.6330 0.6962 0.3384
vn -0.8819 0.0000 0.4714
vn -0.6632 0.6962 0.2747
vn -0.9239 0.0000 0.3827
vn -0.6869 0.6962 0.2083
vn -0.9569 0.0000 0.2903
vn -0.7040 0.6962 0.1400
vn -0.9808 0.0000 0.1951
vn -0.7143 0.6962 0.0703
vn -0.9952 0.0000 0.0980
vn -0.7178 0.6962 0.0000
vn -1.0000 0.0000 0.0000
vn -0.7143 0.6962 -0.0703
vn -0.9952 0.0000 -0.0980
vn -0.7040 0.6962 -0.1400
vn -0.9808 0.0000 -0.1951
vn -0.6869 0.6962 -0.2083
vn -0.9569 0.0000 -0.2903
vn -0.6632 0.6962 -0.2747
vn -0.9239 0.0000 -0.3827
vn -0.6330 0.6962 -0.3384
vn -0.8819 0.0000 -0.4714
vn -0.5968 0.6962 -0.3988
vn -0.8314 0.0000 -0.5556
vn -0.5549 0.6962 -0.4554
vn -0.7730 0.0000 -0.6344
vn -0.5076 0.6962 -0.5076
vn -0.7071 0.0000 -0.7071
vn -0.4554 0.6962 -0.5549
vn -0.6344 0.0000 -0.7730
vn -0.3988 0.6962 -0.5968
vn -0.5556 0.0000 -0.8314
vn -0.3384 0.6962 -0.6330
vn -0.4714 0.0000 -0.8819
vn -0.2747 0.6962 -0.6632
vn -0.3827 0.0000 -0.9239
vn -0.2083 0.6962 -0.6869
vn -0.2903 0.0000 -0.9569
vn -0.1400 0.6962 -0.7040
vn 0.4554 0.6962 0.5549
vn 0.0703 0.6962 -0.7143
vn 0.0000 1.0000 0.0000
usemtl None
s 1
f 126/1/1 129/2/2 128/3/3
f 128/3/3 3/4/4 2/5/5
f 4/6/6 7/7/7 6/8/8
f 6/8/8 9/9/9 8/10/10
f 8/10/10 11/11/11 10/12/12
f 10/12/12 13/13/13 12/14/14
f 12/14/14 15/15/15 14/16/16
f 14/16/16 17/17/17 16/18/18
f 16/18/18 19/19/19 18/20/20
f 18/21/20 21/22/21 20/23/22
f 20/23/22 23/24/23 22/25/24
f 22/25/24 25/26/25 24/27/26
f 24/27/26 27/28/27 26/29/28
f 26/29/28 29/30/29 28/31/30
f 28/31/30 31/32/31 30/33/32
f 30/33/32 33/34/33 32/35/34
f 32/35/34 35/36/35 34/37/36
f 34/38/36 37/39/37 36/40/38
f 36/40/38 39/41/39 38/42/40
f 40/43/41 43/44/42 42/45/43
f 42/45/43 45/46/44 44/47/45
f 44/47/45 47/48/46 46/49/47
f 46/49/47 49/50/48 48/51/49
f 38/42/40 41/52/50 40/43/41
f 48/51/49 51/53/51 50/54/52
f 52/55/53 55/56/54 54/57/55
f 54/57/55 57/58/56 56/59/57
f 56/59/57 59/60/58 58/61/59
f 58/61/59 61/62/60 60/63/61
f 60/63/61 63/64/62 62/65/63
f 62/65/63 65/66/64 64/67/65
f 64/67/65 67/68/66 66/69/67
f 66/70/67 69/71/68 68/72/69
f 68/72/69 71/73/70 70/74/71
f 70/74/71 73/75/72 72/76/73
f 72/76/73 75/77/74 74/78/75
f 74/78/75 77/79/76 76/80/77
f 76/80/77 79/81/78 78/82/79
f 78/82/79 81/83/80 80/84/81
f 80/84/81 83/85/82 82/86/83
f 82/87/83 85/88/84 84/89/85
f 84/89/85 87/90/86 86/91/87
f 86/91/87 89/92/88 88/93/89
f 88/93/89 91/94/90 90/95/91
f 90/95/91 93/96/92 92/97/93
f 92/97/93 95/98/94 94/99/95
f 94/99/95 97/100/96 96/101/97
f 96/101/97 99/102/98 98/103/99
f 98/104/99 101/105/100 100/106/101
f 100/106/101 103/107/102 102/108/103
f 102/108/103 105/109/104 104/110/105
f 104/110/105 107/111/106 106/112/107
f 106/112/107 109/113/108 108/114/109
f 108/114/109 111/115/110 110/116/111
f 110/116/111 113/117/112 112/118/113
f 112/118/113 115/119/114 114/120/115
f 114/121/115 117/122/116 116/123/117
f 116/123/117 119/124/118 118/125/119
f 118/125/119 121/126/120 120/127/121
f 120/127/121 123/128/122 122/129/123
f 122/129/123 125/130/124 124/131/125
f 124/131/125 127/132/126 126/1/1
f 50/133/52 53/134/127 52/55/53
f 2/135/5 5/136/128 4/6/6
f 126/1/1 127/132/126 129/2/2
f 128/3/3 129/2/2 3/4/4
f 4/6/6 5/136/128 7/7/7
f 6/8/8 7/7/7 9/9/9
f 8/10/10 9/9/9 11/11/11
f 10/12/12 11/11/11 13/13/13
f 12/14/14 13/13/13 15/15/15
f 14/16/16 15/15/15 17/17/17
f 16/18/18 17/17/17 19/19/19
f 18/21/20 19/137/19 21/22/21
f 20/23/22 21/22/21 23/24/23
f 22/25/24 23/24/23 25/26/25
f 24/27/26 25/26/25 27/28/27
f 26/29/28 27/28/27 29/30/29
f 28/31/30 29/30/29 31/32/31
f 30/33/32 31/32/31 33/34/33
f 32/35/34 33/34/33 35/36/35
f 34/38/36 35/138/35 37/39/37
f 36/40/38 37/39/37 39/41/39
f 40/43/41 41/52/50 43/44/42
f 42/45/43 43/44/42 45/46/44
f 44/47/45 45/46/44 47/48/46
f 46/49/47 47/48/46 49/50/48
f 38/42/40 39/41/39 41/52/50
f 48/51/49 49/50/48 51/53/51
f 52/55/53 53/134/127 55/56/54
f 54/57/55 55/56/54 57/58/56
f 56/59/57 57/58/56 59/60/58
f 58/61/59 59/60/58 61/62/60
f 60/63/61 61/62/60 63/64/62
f 62/65/63 63/64/62 65/66/64
f 64/67/65 65/66/64 67/68/66
f 66/70/67 67/139/66 69/71/68
f 68/72/69 69/71/68 71/73/70
f 70/74/71 71/73/70 73/75/72
f 72/76/73 73/75/72 75/77/74
f 74/78/75 75/77/74 77/79/76
f 76/80/77 77/79/76 79/81/78
f 78/82/79 79/81/78 81/83/80
f 80/84/81 81/83/80 83/85/82
f 82/87/83 83/140/82 85/88/84
f 84/89/85 85/88/84 87/90/86
f 86/91/87 87/90/86 89/92/88
f 88/93/89 89/92/88 91/94/90
f 90/95/91 91/94/90 93/96/92
f 92/97/93 93/96/92 95/98/94
f 94/99/95 95/98/94 97/100/96
f 96/101/97 97/100/96 99/102/98
f 98/104/99 99/141/98 101/105/100
f 100/106/101 101/105/100 103/107/102
f 102/108/103 103/107/102 105/109/104
f 104/110/105 105/109/104 107/111/106
f 106/112/107 107/111/106 109/113/108
f 108/114/109 109/113/108 111/115/110
f 110/116/111 111/115/110 113/117/112
f 112/118/113 113/117/112 115/119/114
f 114/121/115 115/142/114 117/122/116
f 116/123/117 117/122/116 119/124/118
f 118/125/119 119/124/118 121/126/120
f 120/127/121 121/126/120 123/128/122
f 122/129/123 123/128/122 125/130/124
f 124/131/125 125/130/124 127/132/126
f 50/133/52 51/143/51 53/134/127
f 2/135/5 3/144/4 5/136/128
usemtl None_lemt.png
s off
f 1/145/129 5/146/129 3/147/129
f 1/145/129 7/148/129 5/146/129
f 1/145/129 9/149/129 7/148/129
f 1/145/129 11/150/129 9/149/129
f 1/145/129 13/151/129 11/150/129
f 1/145/129 15/152/129 13/151/129
f 1/145/129 17/153/129 15/152/129
f 1/145/129 19/154/129 17/153/129
f 1/145/129 21/155/129 19/154/129
f 1/145/129 23/156/129 21/155/129
f 1/145/129 25/157/129 23/156/129
f 1/145/129 27/158/129 25/157/129
f 1/145/129 29/159/129 27/158/129
f 1/145/129 31/160/129 29/159/129
f 1/145/129 33/161/129 31/160/129
f 1/145/129 35/162/129 33/161/129
f 1/145/129 37/163/129 35/162/129
f 1/145/129 39/164/129 37/163/129
f 1/145/129 41/165/129 39/164/129
f 1/145/129 43/166/129 41/165/129
f 1/145/129 45/167/129 43/166/129
f 1/145/129 47/168/129 45/167/129
f 1/145/129 49/169/129 47/168/129
f 1/145/129 51/170/129 49/169/129
f 1/145/129 53/171/129 51/170/129
f 1/145/129 55/172/129 53/171/129
f 1/145/129 57/173/129 55/172/129
f 1/145/129 59/174/129 57/173/129
f 1/145/129 61/175/129 59/174/129
f 1/145/129 63/176/129 61/175/129
f 1/145/129 65/177/129 63/176/129
f 1/145/129 67/178/129 65/177/129
f 1/145/129 69/179/129 67/178/129
f 1/145/129 71/180/129 69/179/129
f 1/145/129 73/181/129 71/180/129
f 1/145/129 75/182/129 73/181/129
f 1/145/129 77/183/129 75/182/129
f 1/145/129 79/184/129 77/183/129
f 1/145/129 81/185/129 79/184/129
f 1/145/129 83/186/129 81/185/129
f 1/145/129 85/187/129 83/186/129
f 1/145/129 87/188/129 85/187/129
f 1/145/129 89/189/129 87/188/129
f 1/145/129 91/190/129 89/189/129
f 1/145/129 93/191/129 91/190/129
f 1/145/129 95/192/129 93/191/129
f 1/145/129 97/193/129 95/192/129
f 1/145/129 99/194/129 97/193/129
f 1/145/129 101/195/129 99/194/129
f 1/145/129 103/196/129 101/195/129
f 1/145/129 105/197/129 103/196/129
f 1/145/129 107/198/129 105/197/129
f 1/145/129 109/199/129 107/198/129
f 1/145/129 111/200/129 109/199/129
f 1/145/129 113/201/129 111/200/129
f 1/145/129 115/202/129 113/201/129
f 1/145/129 117/203/129 115/202/129
f 1/145/129 119/204/129 117/203/129
f 1/145/129 121/205/129 119/204/129
f 1/145/129 123/206/129 121/205/129
f 1/145/129 125/207/129 123/206/129
f 1/145/129 127/208/129 125/207/129
f 1/145/129 129/209/129 127/208/129
f 1/145/129 3/147/129 129/209/129
