# Blender v2.70 (sub 5) OBJ File: 'keyb.blend'
# www.blender.org
mtllib keyb.mtl
o ColobotMesh_1_ColobotMesh_
v 1.200000 0.000000 0.000000
v 0.370820 0.000000 1.141270
v 0.000000 0.000000 0.000000
v -0.970820 -0.000000 -0.705342
v 0.370821 -0.000000 -1.141270
v 0.370821 2.000000 -1.141270
v -0.970820 2.000000 -0.705342
v 0.000000 2.000000 -0.000000
v -0.970820 0.000000 0.705342
v 1.200000 2.000000 -0.000000
v 0.370820 2.000000 1.141270
v -0.970820 2.000000 0.705342
vt 0.443359 0.876953
vt 0.466797 0.876953
vt 0.428874 0.876953
vt 0.419922 0.876953
vt 0.419922 0.998047
vt 0.428874 0.998047
vt 0.443359 0.998047
vt 0.457845 0.876953
vt 0.466797 0.998047
vt 0.457845 0.998047
vn -0.000000 -1.000000 0.000000
vn 0.000000 1.000000 -0.000000
vn 0.809017 0.000000 0.587785
vn -0.309019 0.000000 0.951056
vn -1.000000 -0.000000 0.000000
vn -0.309019 -0.000000 -0.951056
vn 0.809018 -0.000000 -0.587784
usemtl ColobotMesh_mat_1
s off
f 1/1/1 2/2/1 3/1/1
f 4/3/1 5/4/1 3/1/1
f 5/4/1 1/1/1 3/1/1
f 6/5/2 7/6/2 8/7/2
f 2/2/1 9/8/1 3/1/1
f 9/8/1 4/3/1 3/1/1
f 11/9/3 1/4/3 10/5/3
f 2/2/3 1/4/3 11/9/3
f 11/9/4 12/5/4 2/2/4
f 12/5/4 9/4/4 2/2/4
f 12/9/5 7/5/5 9/2/5
f 7/5/5 4/4/5 9/2/5
f 7/9/6 6/5/6 4/2/6
f 6/5/6 5/4/6 4/2/6
f 6/5/7 10/9/7 5/4/7
f 10/9/7 1/2/7 5/4/7
f 11/9/2 10/7/2 8/7/2
f 12/10/2 11/9/2 8/7/2
f 7/6/2 12/10/2 8/7/2
f 10/7/2 6/5/2 8/7/2
