# Blender v2.70 (sub 5) OBJ File: 'keyc.blend'
# www.blender.org
mtllib keyc.mtl
o ColobotMesh_1_ColobotMesh_
v 0.361630 2.000000 -0.626362
v -1.098460 2.000000 0.634198
v 1.098460 2.000000 0.634198
v 1.098460 -0.000000 0.634198
v 0.723261 0.000000 0.000000
v 0.723261 2.000000 0.000000
v 0.361630 2.000000 0.626362
v 0.361630 -0.000000 0.626362
v 0.000000 2.000000 1.268390
v 0.000000 -0.000000 1.268390
v -0.361630 2.000000 0.626362
v -0.361630 -0.000000 0.626362
v -0.361630 2.000000 -0.626362
v -0.361630 0.000000 -0.626362
v -1.098460 0.000000 -0.634198
v -1.098460 2.000000 -0.634198
v 0.000000 2.000000 -1.268390
v 0.000000 0.000000 -1.268390
v -0.723261 0.000000 0.000000
v -0.723261 2.000000 0.000000
v -1.098460 -0.000000 0.634198
v 0.361630 0.000000 -0.626362
v 1.098460 2.000000 -0.634197
v 1.098460 0.000000 -0.634197
vt 0.517578 0.998047
vt 0.517578 0.876953
vt 0.501567 0.876953
vt 0.501567 0.998047
vt 0.486425 0.998047
vt 0.486425 0.876953
vt 0.470703 0.876953
vt 0.470703 0.998047
vt 0.501857 0.998047
vt 0.501857 0.876953
vt 0.486135 0.876953
vt 0.486135 0.998047
vt 0.502146 0.998047
vt 0.502146 0.876953
vt 0.486714 0.998047
vt 0.486714 0.876953
vt 0.517578 0.907227
vt 0.509573 0.937500
vt 0.501857 0.907601
vt 0.470703 0.907227
vt 0.486425 0.907601
vt 0.478709 0.937500
vt 0.470703 0.967773
vt 0.486425 0.967399
vt 0.494141 0.998047
vt 0.501857 0.967399
vt 0.517578 0.967773
vt 0.494141 0.876953
vn 0.860662 -0.000000 -0.509177
vn 0.010634 0.000000 -0.999943
vn -0.010634 -0.000000 0.999943
vn 0.871292 -0.000000 0.490766
vn -0.871292 -0.000000 0.490766
vn -0.871292 -0.000000 0.490765
vn 0.010634 -0.000000 0.999943
vn -0.860662 0.000000 -0.509177
vn -0.860662 -0.000000 0.509177
vn -0.871292 0.000000 -0.490765
vn -0.871292 0.000000 -0.490766
vn 0.871292 0.000000 -0.490765
vn 0.871292 0.000000 -0.490766
vn -0.010633 0.000000 -0.999943
vn 0.860661 0.000000 0.509178
vn 0.000000 -1.000000 -0.000000
vn 0.000000 1.000000 -0.000000
vn 0.000000 1.000000 -0.000001
usemtl ColobotMesh_mat_1
s off
f 3/1/1 4/2/1 5/3/1
f 6/4/1 3/1/1 5/3/1
f 13/5/2 14/6/2 15/7/2
f 16/8/2 13/5/2 15/7/2
f 7/9/3 8/10/3 4/2/3
f 3/1/3 7/9/3 4/2/3
f 9/8/4 10/7/4 8/11/4
f 7/12/4 9/8/4 8/11/4
f 11/13/5 12/14/5 10/2/5
f 9/1/6 11/13/6 10/2/6
f 2/8/7 21/7/7 12/6/7
f 11/5/7 2/8/7 12/6/7
f 20/15/8 19/16/8 21/7/8
f 2/8/8 20/15/8 21/7/8
f 16/8/9 15/7/9 19/16/9
f 20/15/9 16/8/9 19/16/9
f 17/1/10 18/2/10 14/14/10
f 13/13/11 17/1/11 14/14/11
f 1/12/12 22/11/12 18/7/12
f 17/8/13 1/12/13 18/7/13
f 23/1/14 24/2/14 22/10/14
f 1/9/14 23/1/14 22/10/14
f 6/4/15 5/3/15 24/2/15
f 23/1/15 6/4/15 24/2/15
f 24/17/16 5/18/16 22/19/16
f 15/20/16 14/21/16 19/22/16
f 21/23/16 19/22/16 12/24/16
f 10/25/16 12/24/16 8/26/16
f 4/27/16 8/26/16 5/18/16
f 18/28/16 22/19/16 14/21/16
f 12/24/16 19/22/16 8/26/16
f 19/22/16 14/21/16 8/26/16
f 8/26/16 14/21/16 5/18/16
f 5/18/16 14/21/16 22/19/16
f 6/18/17 23/17/17 1/19/17
f 13/21/17 16/20/17 20/22/17
f 20/22/17 2/23/17 11/24/17
f 11/24/17 9/25/17 7/26/17
f 7/26/17 3/27/17 6/18/17
f 1/19/17 17/28/17 13/21/17
f 20/22/18 11/24/18 7/26/18
f 13/21/17 20/22/17 7/26/17
f 13/21/17 7/26/17 6/18/17
f 13/21/17 6/18/17 1/19/17
