# Blender v2.77 (sub 0) OBJ File: 'keyd.blend'
# www.blender.org
mtllib keyd.mtl
o ColobotMesh_1_ColobotMesh_
v -0.044864 0.000000 -0.998993
v -0.044864 2.000000 -0.998993
v -0.134233 2.000000 -0.990950
v -0.222520 2.000000 -0.974928
v -0.309016 2.000000 -0.951057
v -0.393024 2.000000 -0.919528
v -0.473868 2.000000 -0.880596
v -0.550897 2.000000 -0.834574
v -0.623489 2.000000 -0.781832
v -0.691062 2.000000 -0.722795
v -0.753071 2.000000 -0.657939
v -0.809016 2.000000 -0.587786
v -0.858448 2.000000 -0.512900
v -0.900969 2.000000 -0.433885
v -0.936234 2.000000 -0.351376
v -0.963963 2.000000 -0.266038
v -0.983930 2.000000 -0.178558
v -0.995974 2.000000 -0.089640
v -1.000000 2.000000 -0.000001
v -0.995975 2.000000 0.089639
v -0.983930 2.000000 0.178556
v -0.963963 2.000000 0.266036
v -0.936235 2.000000 0.351374
v -0.900969 2.000000 0.433883
v -0.858449 2.000000 0.512899
v -0.809017 2.000000 0.587785
v -0.753072 2.000000 0.657938
v -0.691063 2.000000 0.722795
v -0.623490 2.000000 0.781831
v -0.550897 2.000000 0.834573
v -0.473869 2.000000 0.880595
v -0.393025 2.000000 0.919528
v -0.309017 2.000000 0.951056
v -0.222521 2.000000 0.974928
v -0.134233 2.000000 0.990950
v -0.044865 2.000000 0.998993
v 0.044865 2.000000 0.998993
v 0.134233 2.000000 0.990950
v 0.222521 2.000000 0.974928
v 0.309017 2.000000 0.951057
v 0.393025 2.000000 0.919528
v 0.473869 2.000000 0.880596
v 0.550897 2.000000 0.834573
v 0.623489 2.000000 0.781832
v 0.691063 2.000000 0.722795
v 0.753072 2.000000 0.657939
v 0.809017 2.000000 0.587785
v 0.858449 2.000000 0.512899
v 0.900970 2.000000 0.433884
v 0.936234 2.000000 0.351375
v 0.963964 2.000000 0.266037
v 0.983930 2.000000 0.178557
v 0.995974 2.000000 0.089639
v 1.000000 2.000000 -0.000000
v 0.995975 2.000000 -0.089639
v 0.983930 2.000000 -0.178557
v 0.963963 2.000000 -0.266037
v 0.936234 2.000000 -0.351375
v 0.900969 2.000000 -0.433884
v 0.858449 2.000000 -0.512900
v 0.809017 2.000000 -0.587786
v 0.753071 2.000000 -0.657939
v 0.691062 2.000000 -0.722795
v 0.623489 2.000000 -0.781832
v 0.550897 2.000000 -0.834574
v 0.473868 2.000000 -0.880596
v 0.393024 2.000000 -0.919528
v 0.309016 2.000000 -0.951057
v 0.222521 2.000000 -0.974928
v 0.134233 2.000000 -0.990950
v 0.044864 2.000000 -0.998993
v -0.134233 0.000000 -0.990950
v -0.222520 0.000000 -0.974928
v -0.309016 0.000000 -0.951057
v -0.393024 0.000000 -0.919528
v -0.473868 0.000000 -0.880596
v -0.550897 0.000000 -0.834574
v -0.623489 0.000000 -0.781832
v -0.691062 0.000000 -0.722795
v -0.753071 0.000000 -0.657939
v -0.809016 0.000000 -0.587786
v -0.858448 0.000000 -0.512900
v -0.900969 0.000000 -0.433885
v -0.936234 0.000000 -0.351376
v -0.963963 0.000000 -0.266038
v -0.983930 0.000000 -0.178558
v -0.995974 0.000000 -0.089640
v -1.000000 0.000000 -0.000001
v -0.995975 -0.000000 0.089639
v -0.983930 -0.000000 0.178556
v -0.963963 -0.000000 0.266036
v -0.936235 -0.000000 0.351374
v -0.900969 -0.000000 0.433883
v -0.858449 -0.000000 0.512899
v -0.809017 -0.000000 0.587785
v -0.753072 -0.000000 0.657938
v -0.691063 -0.000000 0.722795
v -0.623490 -0.000000 0.781831
v -0.550897 -0.000000 0.834573
v -0.473869 -0.000000 0.880595
v -0.393025 -0.000000 0.919528
v -0.309017 -0.000000 0.951056
v -0.222521 -0.000000 0.974928
v -0.134233 -0.000000 0.990950
v -0.044865 -0.000000 0.998993
v 0.044865 -0.000000 0.998993
v 0.134233 -0.000000 0.990950
v 0.222521 -0.000000 0.974928
v 0.309017 -0.000000 0.951057
v 0.393025 -0.000000 0.919528
v 0.473869 -0.000000 0.880596
v 0.550897 -0.000000 0.834573
v 0.623489 -0.000000 0.781832
v 0.691063 -0.000000 0.722795
v 0.753072 -0.000000 0.657939
v 0.809017 -0.000000 0.587785
v 0.858449 -0.000000 0.512899
v 0.900970 -0.000000 0.433884
v 0.936234 -0.000000 0.351375
v 0.963964 -0.000000 0.266037
v 0.983930 -0.000000 0.178557
v 0.995974 -0.000000 0.089639
v 1.000000 0.000000 -0.000000
v 0.995975 0.000000 -0.089640
v 0.983930 0.000000 -0.178557
v 0.963963 0.000000 -0.266037
v 0.936234 0.000000 -0.351375
v 0.900969 0.000000 -0.433884
v 0.858449 0.000000 -0.512900
v 0.809017 0.000000 -0.587786
v 0.753071 0.000000 -0.657939
v 0.691062 0.000000 -0.722795
v 0.623489 0.000000 -0.781832
v 0.550897 0.000000 -0.834574
v 0.473868 0.000000 -0.880596
v 0.393024 0.000000 -0.919528
v 0.309016 0.000000 -0.951057
v 0.222521 0.000000 -0.974928
v 0.134233 0.000000 -0.990950
v 0.044864 0.000000 -0.998993
vt 0.5683 0.9430
vt 0.5595 0.8898
vt 0.5439 0.8766
vt 0.5669 0.9163
vt 0.5216 0.9427
vt 0.5438 0.9984
vt 0.5260 0.9017
vt 0.5248 0.9062
vt 0.5223 0.9213
vt 0.5238 0.9110
vt 0.5230 0.9161
vt 0.5219 0.9266
vt 0.5216 0.9320
vt 0.5215 0.9375
vt 0.5216 0.9430
vt 0.5219 0.9484
vt 0.5223 0.9537
vt 0.5230 0.9589
vt 0.5238 0.9640
vt 0.5248 0.9688
vt 0.5260 0.9733
vt 0.5273 0.9776
vt 0.5287 0.9816
vt 0.5303 0.9852
vt 0.5320 0.9884
vt 0.5338 0.9912
vt 0.5357 0.9936
vt 0.5377 0.9955
vt 0.5397 0.9969
vt 0.5418 0.9979
vt 0.5439 0.9984
vt 0.5460 0.9984
vt 0.5481 0.9979
vt 0.5501 0.9969
vt 0.5522 0.9955
vt 0.5541 0.9936
vt 0.5560 0.9912
vt 0.5578 0.9884
vt 0.5595 0.9852
vt 0.5611 0.9816
vt 0.5626 0.9776
vt 0.5639 0.9733
vt 0.5650 0.9688
vt 0.5660 0.9640
vt 0.5669 0.9589
vt 0.5675 0.9537
vt 0.5680 0.9484
vt 0.5684 0.9375
vt 0.5683 0.9320
vt 0.5680 0.9266
vt 0.5675 0.9213
vt 0.5669 0.9161
vt 0.5660 0.9110
vt 0.5650 0.9062
vt 0.5639 0.9017
vt 0.5626 0.8974
vt 0.5611 0.8934
vt 0.5578 0.8866
vt 0.5522 0.8795
vt 0.5560 0.8838
vt 0.5541 0.8814
vt 0.5501 0.8781
vt 0.5481 0.8771
vt 0.5460 0.8766
vt 0.5418 0.8771
vt 0.5397 0.8781
vt 0.5377 0.8795
vt 0.5357 0.8814
vt 0.5338 0.8838
vt 0.5320 0.8866
vt 0.5303 0.8898
vt 0.5287 0.8934
vt 0.5273 0.8974
vt 0.5625 0.9778
vt 0.5638 0.9736
vt 0.5650 0.9690
vt 0.5660 0.9642
vt 0.5668 0.9592
vt 0.5675 0.9540
vt 0.5684 0.9378
vt 0.5680 0.9486
vt 0.5683 0.9432
vt 0.5683 0.9323
vt 0.5680 0.9269
vt 0.5675 0.9215
vt 0.5661 0.9113
vt 0.5651 0.9065
vt 0.5639 0.9019
vt 0.5626 0.8976
vt 0.5612 0.8936
vt 0.5596 0.8900
vt 0.5579 0.8868
vt 0.5561 0.8839
vt 0.5542 0.8815
vt 0.5523 0.8796
vt 0.5502 0.8781
vt 0.5482 0.8771
vt 0.5461 0.8766
vt 0.5440 0.8766
vt 0.5419 0.8770
vt 0.5398 0.8780
vt 0.5378 0.8794
vt 0.5321 0.8865
vt 0.5358 0.8813
vt 0.5339 0.8837
vt 0.5304 0.8897
vt 0.5288 0.8932
vt 0.5273 0.8972
vt 0.5260 0.9014
vt 0.5249 0.9060
vt 0.5238 0.9108
vt 0.5230 0.9158
vt 0.5224 0.9210
vt 0.5219 0.9264
vt 0.5216 0.9318
vt 0.5215 0.9372
vt 0.5218 0.9481
vt 0.5223 0.9535
vt 0.5229 0.9587
vt 0.5238 0.9637
vt 0.5247 0.9685
vt 0.5259 0.9731
vt 0.5272 0.9774
vt 0.5287 0.9814
vt 0.5302 0.9850
vt 0.5319 0.9882
vt 0.5337 0.9911
vt 0.5356 0.9935
vt 0.5376 0.9954
vt 0.5396 0.9969
vt 0.5417 0.9979
vt 0.5459 0.9984
vt 0.5521 0.9956
vt 0.5480 0.9980
vt 0.5500 0.9970
vt 0.5540 0.9937
vt 0.5559 0.9913
vt 0.5577 0.9885
vt 0.5595 0.9853
vt 0.5610 0.9818
vt 0.5256 0.9980
vt 0.5215 0.8770
vt 0.5215 0.9980
vt 0.5298 0.9980
vt 0.5256 0.8770
vt 0.5516 0.9980
vt 0.5550 0.8770
vt 0.5550 0.9980
vt 0.5395 0.9980
vt 0.5424 0.8770
vt 0.5424 0.9980
vt 0.5416 0.9980
vt 0.5449 0.8770
vt 0.5449 0.9980
vt 0.5610 0.9980
vt 0.5647 0.8770
vt 0.5647 0.9980
vt 0.5394 0.9980
vt 0.5368 0.8770
vt 0.5368 0.9980
vt 0.5365 0.9980
vt 0.5335 0.8770
vt 0.5335 0.9980
vt 0.5518 0.9980
vt 0.5477 0.8770
vt 0.5477 0.9980
vt 0.5245 0.9980
vt 0.5275 0.8770
vt 0.5275 0.9980
vt 0.5461 0.9980
vt 0.5424 0.8770
vt 0.5424 0.9980
vt 0.5505 0.9980
vt 0.5463 0.8770
vt 0.5463 0.9980
vt 0.5617 0.9980
vt 0.5650 0.8770
vt 0.5650 0.9980
vt 0.5581 0.9980
vt 0.5556 0.8770
vt 0.5556 0.9980
vt 0.5240 0.9980
vt 0.5215 0.8770
vt 0.5215 0.9980
vt 0.5248 0.9980
vt 0.5282 0.8770
vt 0.5282 0.9980
vt 0.5317 0.9980
vt 0.5292 0.8770
vt 0.5292 0.9980
vt 0.5305 0.9980
vt 0.5335 0.8770
vt 0.5335 0.9980
vt 0.5435 0.8770
vt 0.5435 0.9980
vt 0.5461 0.8770
vt 0.5461 0.9980
vt 0.5583 0.9980
vt 0.5617 0.8770
vt 0.5365 0.8770
vt 0.5365 0.9980
vt 0.5483 0.8770
vt 0.5483 0.9980
vt 0.5610 0.9980
vt 0.5573 0.8770
vt 0.5573 0.9980
vt 0.5684 0.8770
vt 0.5684 0.9980
vt 0.5536 0.8770
vt 0.5536 0.9980
vt 0.5315 0.9980
vt 0.5349 0.8770
vt 0.5349 0.9980
vt 0.5382 0.8770
vt 0.5382 0.9980
vt 0.5395 0.8770
vt 0.5395 0.9980
vt 0.5573 0.9980
vt 0.5610 0.8770
vt 0.5601 0.9980
vt 0.5559 0.8770
vt 0.5559 0.9980
vt 0.5530 0.8770
vt 0.5530 0.9980
vt 0.5315 0.8770
vt 0.5583 0.8770
vt 0.5215 0.9980
vt 0.5248 0.8770
vt 0.5266 0.8770
vt 0.5266 0.9980
vt 0.5343 0.8770
vt 0.5343 0.9980
vt 0.5395 0.8770
vt 0.5305 0.8770
vt 0.5305 0.9980
vt 0.5339 0.9980
vt 0.5298 0.8770
vt 0.5305 0.8770
vt 0.5499 0.8770
vt 0.5499 0.9980
vt 0.5684 0.8770
vt 0.5684 0.9980
vt 0.5422 0.8770
vt 0.5422 0.9980
vt 0.5536 0.9980
vt 0.5573 0.8770
vt 0.5416 0.8770
vt 0.5684 0.9980
vt 0.5647 0.8770
vt 0.5647 0.9980
vt 0.5499 0.8770
vt 0.5499 0.9980
vt 0.5518 0.8770
vt 0.5461 0.8770
vt 0.5632 0.9980
vt 0.5607 0.8770
vt 0.5607 0.9980
vt 0.5380 0.9980
vt 0.5339 0.8770
vt 0.5684 0.9980
vt 0.5642 0.8770
vt 0.5642 0.9980
vt 0.5516 0.8770
vt 0.5658 0.8770
vt 0.5658 0.9980
vt 0.5317 0.8770
vt 0.5581 0.8770
vt 0.5394 0.8770
vt 0.5275 0.8770
vt 0.5275 0.9980
vt 0.5245 0.9980
vt 0.5215 0.8770
vt 0.5365 0.8770
vt 0.5215 0.9980
vt 0.5245 0.8770
vt 0.5505 0.8770
vt 0.5380 0.8770
vt 0.5610 0.8770
vt 0.5240 0.8770
vt 0.5245 0.8770
vt 0.5536 0.8770
vt 0.5601 0.8770
vt 0.5632 0.8770
vt 0.5684 0.8770
vt 0.5684 0.8770
vt 0.5215 0.8770
vn 0.0000 1.0000 0.0000
vn -0.0000 -1.0000 -0.0000
vn 0.7140 0.6971 0.0642
vn 0.7169 -0.6971 0.0000
vn 0.7169 0.6971 0.0000
vn 0.7054 0.6971 0.1280
vn 0.7140 -0.6971 0.0642
vn -0.7054 0.6971 0.1280
vn -0.6911 -0.6971 0.1907
vn -0.6911 0.6971 0.1907
vn -0.2817 0.6971 0.6592
vn -0.2215 -0.6971 0.6818
vn -0.2215 0.6971 0.6818
vn -0.7140 0.6971 -0.0642
vn -0.7169 -0.6971 0.0000
vn -0.7169 0.6971 0.0000
vn 0.0962 0.6971 0.7104
vn 0.1595 -0.6971 0.6989
vn 0.1595 0.6971 0.6989
vn 0.5800 0.6971 -0.4214
vn 0.5399 -0.6971 -0.4717
vn 0.5399 0.6971 -0.4717
vn -0.3397 0.6971 -0.6313
vn -0.3949 -0.6971 -0.5983
vn -0.3949 0.6971 -0.5983
vn 0.6712 0.6971 -0.2519
vn 0.6459 -0.6971 -0.3110
vn 0.6459 0.6971 -0.3110
vn -0.5399 0.6971 0.4717
vn -0.4954 -0.6971 0.5182
vn -0.4954 0.6971 0.5182
vn -0.1595 0.6971 -0.6989
vn -0.2215 -0.6971 -0.6818
vn -0.2215 0.6971 -0.6818
vn 0.5800 0.6971 0.4214
vn 0.6154 -0.6971 0.3677
vn 0.6154 0.6971 0.3677
vn -0.6459 0.6971 0.3110
vn -0.6154 -0.6971 0.3677
vn -0.6154 0.6971 0.3677
vn 0.4470 0.6971 0.5605
vn 0.4954 -0.6971 0.5182
vn 0.4954 0.6971 0.5182
vn 0.2817 0.6971 -0.6592
vn 0.2215 -0.6971 -0.6818
vn 0.2215 0.6971 -0.6818
vn -0.6154 0.6971 -0.3677
vn -0.6459 -0.6971 -0.3110
vn -0.6459 0.6971 -0.3110
vn 0.4470 0.6971 -0.5605
vn 0.3949 -0.6971 -0.5983
vn 0.3949 0.6971 -0.5983
vn -0.4470 0.6971 0.5605
vn -0.3949 -0.6971 0.5983
vn -0.3949 0.6971 0.5983
vn 0.6154 -0.6971 -0.3677
vn 0.6154 0.6971 -0.3677
vn -0.1595 -0.6971 0.6989
vn -0.1595 0.6971 0.6989
vn -0.6712 0.6971 0.2519
vn -0.6459 -0.6971 0.3110
vn -0.3397 -0.6971 0.6313
vn -0.3397 0.6971 0.6313
vn -0.7140 -0.6971 0.0642
vn -0.7140 0.6971 0.0642
vn 0.0962 0.6971 -0.7104
vn 0.0321 -0.6971 -0.7162
vn 0.0321 0.6971 -0.7162
vn 0.2215 -0.6971 0.6818
vn 0.2215 0.6971 0.6818
vn -0.0321 -0.6971 -0.7162
vn -0.0321 0.6971 -0.7162
vn -0.6712 0.6971 -0.2519
vn -0.6911 -0.6971 -0.1907
vn -0.6911 0.6971 -0.1907
vn -0.7054 -0.6971 -0.1280
vn -0.7054 0.6971 -0.1280
vn -0.2817 -0.6971 -0.6592
vn -0.2817 0.6971 -0.6592
vn 0.0321 0.6971 0.7162
vn 0.0962 -0.6971 0.7104
vn 0.7054 0.6971 -0.1280
vn 0.6911 -0.6971 -0.1907
vn 0.6911 0.6971 -0.1907
vn 0.5399 -0.6971 0.4717
vn 0.5399 0.6971 0.4717
vn -0.6712 -0.6971 -0.2519
vn -0.6712 -0.6971 0.2519
vn -0.5800 0.6971 -0.4214
vn -0.6154 -0.6971 -0.3677
vn 0.3397 -0.6971 -0.6313
vn 0.3397 0.6971 -0.6313
vn 0.4954 -0.6971 -0.5182
vn 0.4954 0.6971 -0.5182
vn -0.2817 -0.6971 0.6592
vn -0.4470 -0.6971 -0.5605
vn -0.4470 0.6971 -0.5605
vn 0.6911 0.6971 0.1907
vn 0.7054 -0.6971 0.1280
vn -0.4470 -0.6971 0.5605
vn -0.0962 -0.6971 -0.7104
vn -0.0962 0.6971 -0.7104
vn -0.5800 -0.6971 0.4214
vn -0.5800 0.6971 0.4214
vn 0.6459 -0.6971 0.3110
vn 0.6459 0.6971 0.3110
vn -0.0321 0.6971 0.7162
vn 0.0321 -0.6971 0.7162
vn -0.7140 -0.6971 -0.0642
vn 0.1595 -0.6971 -0.6989
vn 0.1595 0.6971 -0.6989
vn -0.0962 -0.6971 0.7104
vn -0.0962 0.6971 0.7104
vn 0.6712 -0.6971 -0.2519
vn -0.1595 -0.6971 -0.6989
vn 0.3397 0.6971 0.6313
vn 0.3949 -0.6971 0.5983
vn 0.3949 0.6971 0.5983
vn 0.6712 0.6971 0.2519
vn 0.6911 -0.6971 0.1907
vn 0.7140 -0.6971 -0.0642
vn 0.7140 0.6971 -0.0642
vn -0.7054 -0.6971 0.1280
vn 0.2817 -0.6971 0.6592
vn 0.2817 0.6971 0.6592
vn 0.4470 -0.6971 -0.5605
vn 0.4470 -0.6971 0.5605
vn 0.5800 -0.6971 -0.4214
vn -0.4954 -0.6971 -0.5182
vn -0.4954 0.6971 -0.5182
vn -0.5399 0.6971 -0.4717
vn -0.5800 -0.6971 -0.4214
vn -0.3397 -0.6971 -0.6313
vn -0.5399 -0.6971 0.4717
vn 0.5800 -0.6971 0.4214
vn 0.6712 -0.6971 0.2519
vn 0.0962 -0.6971 -0.7104
vn 0.2817 -0.6971 -0.6592
vn -0.5399 -0.6971 -0.4717
vn -0.0321 -0.6971 0.7162
vn 0.7054 -0.6971 -0.1280
vn 0.3397 -0.6971 0.6313
usemtl ColobotMesh_mat_1
s off
f 53/1/1 64/2/1 2/3/1
f 119/4/2 87/5/2 1/6/2
f 12/7/1 13/8/1 16/9/1
f 14/10/1 15/11/1 16/9/1
f 16/9/1 17/12/1 18/13/1
f 18/13/1 19/14/1 20/15/1
f 20/15/1 21/16/1 22/17/1
f 22/17/1 23/18/1 24/19/1
f 24/19/1 25/20/1 26/21/1
f 26/21/1 27/22/1 28/23/1
f 28/23/1 29/24/1 30/25/1
f 30/25/1 31/26/1 32/27/1
f 32/27/1 33/28/1 34/29/1
f 34/29/1 35/30/1 36/31/1
f 36/31/1 37/32/1 38/33/1
f 38/33/1 39/34/1 36/31/1
f 40/35/1 41/36/1 42/37/1
f 42/37/1 43/38/1 40/35/1
f 44/39/1 45/40/1 46/41/1
f 46/41/1 47/42/1 48/43/1
f 48/43/1 49/44/1 50/45/1
f 50/45/1 51/46/1 52/47/1
f 52/47/1 53/1/1 50/45/1
f 54/48/1 55/49/1 56/50/1
f 56/50/1 57/51/1 58/52/1
f 58/52/1 59/53/1 60/54/1
f 60/54/1 61/55/1 62/56/1
f 62/56/1 63/57/1 64/2/1
f 64/2/1 65/58/1 68/59/1
f 66/60/1 67/61/1 68/59/1
f 68/59/1 69/62/1 70/63/1
f 70/63/1 71/64/1 68/59/1
f 2/3/1 3/65/1 4/66/1
f 4/66/1 5/67/1 6/68/1
f 6/68/1 7/69/1 8/70/1
f 8/70/1 9/71/1 10/72/1
f 10/72/1 11/73/1 12/7/1
f 13/8/1 14/10/1 16/9/1
f 16/9/1 18/13/1 10/72/1
f 20/15/1 22/17/1 18/13/1
f 24/19/1 26/21/1 28/23/1
f 28/23/1 30/25/1 24/19/1
f 32/27/1 34/29/1 36/31/1
f 36/31/1 39/34/1 40/35/1
f 40/35/1 43/38/1 44/39/1
f 44/39/1 46/41/1 48/43/1
f 48/43/1 50/45/1 44/39/1
f 53/1/1 54/48/1 56/50/1
f 56/50/1 58/52/1 53/1/1
f 60/54/1 62/56/1 58/52/1
f 65/58/1 66/60/1 68/59/1
f 68/59/1 71/64/1 2/3/1
f 2/3/1 4/66/1 10/72/1
f 6/68/1 8/70/1 10/72/1
f 10/72/1 12/7/1 16/9/1
f 18/13/1 22/17/1 24/19/1
f 24/19/1 30/25/1 32/27/1
f 32/27/1 36/31/1 24/19/1
f 40/35/1 44/39/1 53/1/1
f 50/45/1 53/1/1 44/39/1
f 58/52/1 62/56/1 64/2/1
f 64/2/1 68/59/1 2/3/1
f 4/66/1 6/68/1 10/72/1
f 10/72/1 18/13/1 24/19/1
f 24/19/1 36/31/1 40/35/1
f 40/35/1 53/1/1 24/19/1
f 58/52/1 64/2/1 53/1/1
f 2/3/1 10/72/1 24/19/1
f 24/19/1 53/1/1 2/3/1
f 131/74/2 130/75/2 129/76/2
f 129/76/2 128/77/2 131/74/2
f 127/78/2 126/79/2 123/80/2
f 125/81/2 124/82/2 123/80/2
f 123/80/2 122/83/2 127/78/2
f 121/84/2 120/85/2 119/4/2
f 119/4/2 118/86/2 117/87/2
f 117/87/2 116/88/2 119/4/2
f 115/89/2 114/90/2 113/91/2
f 113/91/2 112/92/2 111/93/2
f 111/93/2 110/94/2 109/95/2
f 109/95/2 108/96/2 111/93/2
f 107/97/2 106/98/2 105/99/2
f 105/99/2 104/100/2 103/101/2
f 103/101/2 102/102/2 99/103/2
f 101/104/2 100/105/2 99/103/2
f 99/103/2 98/106/2 97/107/2
f 97/107/2 96/108/2 95/109/2
f 95/109/2 94/110/2 93/111/2
f 93/111/2 92/112/2 91/113/2
f 91/113/2 90/114/2 87/5/2
f 89/115/2 88/116/2 87/5/2
f 87/5/2 86/117/2 85/118/2
f 85/118/2 84/119/2 87/5/2
f 83/120/2 82/121/2 81/122/2
f 81/122/2 80/123/2 79/124/2
f 79/124/2 78/125/2 77/126/2
f 77/126/2 76/127/2 75/128/2
f 75/128/2 74/129/2 73/130/2
f 73/130/2 72/131/2 1/6/2
f 1/6/2 140/132/2 137/133/2
f 139/134/2 138/135/2 137/133/2
f 137/133/2 136/136/2 135/137/2
f 135/137/2 134/138/2 137/133/2
f 133/139/2 132/140/2 127/78/2
f 131/74/2 128/77/2 127/78/2
f 126/79/2 125/81/2 123/80/2
f 122/83/2 121/84/2 119/4/2
f 119/4/2 116/88/2 115/89/2
f 115/89/2 113/91/2 119/4/2
f 111/93/2 108/96/2 107/97/2
f 107/97/2 105/99/2 103/101/2
f 102/102/2 101/104/2 99/103/2
f 99/103/2 97/107/2 95/109/2
f 95/109/2 93/111/2 87/5/2
f 90/114/2 89/115/2 87/5/2
f 87/5/2 84/119/2 83/120/2
f 83/120/2 81/122/2 87/5/2
f 79/124/2 77/126/2 75/128/2
f 75/128/2 73/130/2 79/124/2
f 140/132/2 139/134/2 137/133/2
f 137/133/2 134/138/2 133/139/2
f 132/140/2 131/74/2 127/78/2
f 127/78/2 122/83/2 119/4/2
f 119/4/2 113/91/2 103/101/2
f 111/93/2 107/97/2 103/101/2
f 103/101/2 99/103/2 87/5/2
f 93/111/2 91/113/2 87/5/2
f 87/5/2 81/122/2 79/124/2
f 79/124/2 73/130/2 1/6/2
f 1/6/2 137/133/2 133/139/2
f 133/139/2 127/78/2 1/6/2
f 113/91/2 111/93/2 103/101/2
f 99/103/2 95/109/2 87/5/2
f 87/5/2 79/124/2 1/6/2
f 1/6/2 127/78/2 119/4/2
f 119/4/2 103/101/2 87/5/2
s 1
f 53/141/3 123/142/4 54/143/5
f 52/144/6 122/145/7 53/141/3
f 21/146/8 91/147/9 22/148/10
f 32/149/11 102/150/12 33/151/13
f 18/152/14 88/153/15 19/154/16
f 38/155/17 108/156/18 39/157/19
f 61/158/20 131/159/21 62/160/22
f 7/161/23 77/162/24 8/163/25
f 58/164/26 128/165/27 59/166/28
f 27/167/29 97/168/30 28/169/31
f 4/170/32 74/171/33 5/172/34
f 47/173/35 117/174/36 48/175/37
f 24/176/38 94/177/39 25/178/40
f 44/179/41 114/180/42 45/181/43
f 67/182/44 137/183/45 68/184/46
f 13/185/47 83/186/48 14/187/49
f 64/188/50 134/189/51 65/190/52
f 29/191/53 99/192/54 30/193/55
f 59/166/28 129/194/56 60/195/57
f 33/151/13 103/196/58 34/197/59
f 23/198/60 93/199/61 24/176/38
f 30/193/55 100/200/62 31/201/63
f 19/154/16 89/202/64 20/203/65
f 70/204/66 140/205/67 71/206/68
f 39/157/19 109/207/69 40/208/70
f 71/206/68 1/209/71 2/210/72
f 15/211/73 85/212/74 16/213/75
f 16/213/75 86/214/76 17/215/77
f 5/172/34 75/216/78 6/217/79
f 37/218/80 107/219/81 38/155/17
f 56/220/82 126/221/83 57/222/84
f 45/181/43 115/223/85 46/224/86
f 14/187/49 84/225/87 15/211/73
f 22/148/10 92/226/88 23/198/60
f 12/227/89 82/228/90 13/185/47
f 65/190/52 135/229/91 66/230/92
f 62/160/22 132/231/93 63/232/94
f 31/201/63 101/233/95 32/149/11
f 8/163/25 78/234/96 9/235/97
f 51/236/98 121/237/99 52/144/6
f 28/169/31 98/238/100 29/191/53
f 2/210/72 72/239/101 3/240/102
f 25/178/40 95/241/103 26/242/104
f 48/175/37 118/243/105 49/244/106
f 36/245/107 106/246/108 37/218/80
f 17/215/77 87/247/109 18/152/14
f 68/248/46 138/249/110 69/250/111
f 34/197/59 104/251/112 35/252/113
f 57/222/84 127/253/114 58/164/26
f 3/240/102 73/254/115 4/170/32
f 42/255/116 112/256/117 43/257/118
f 50/258/119 120/259/120 51/236/98
f 54/260/5 124/261/121 55/262/122
f 20/203/65 90/263/123 21/146/8
f 40/208/70 110/264/124 41/265/125
f 63/232/94 133/266/126 64/188/50
f 43/257/118 113/267/127 44/179/41
f 60/195/57 130/268/128 61/158/20
f 9/235/97 79/269/129 10/270/130
f 11/271/131 81/272/132 12/227/89
f 6/217/79 76/273/133 7/161/23
f 26/274/104 96/275/134 27/167/29
f 46/224/86 116/276/135 47/173/35
f 49/244/106 119/277/136 50/258/119
f 69/250/111 139/278/137 70/204/66
f 66/230/92 136/279/138 67/182/44
f 10/270/130 80/280/139 11/271/131
f 35/252/113 105/281/140 36/245/107
f 55/262/122 125/282/141 56/220/82
f 41/265/125 111/283/142 42/255/116
f 53/141/3 122/145/7 123/142/4
f 52/144/6 121/237/99 122/145/7
f 21/146/8 90/263/123 91/147/9
f 32/149/11 101/233/95 102/150/12
f 18/152/14 87/247/109 88/153/15
f 38/155/17 107/219/81 108/156/18
f 61/158/20 130/268/128 131/159/21
f 7/161/23 76/273/133 77/162/24
f 58/164/26 127/253/114 128/165/27
f 27/167/29 96/275/134 97/168/30
f 4/170/32 73/254/115 74/171/33
f 47/173/35 116/276/135 117/174/36
f 24/176/38 93/199/61 94/177/39
f 44/179/41 113/267/127 114/180/42
f 67/182/44 136/279/138 137/183/45
f 13/185/47 82/228/90 83/186/48
f 64/188/50 133/266/126 134/189/51
f 29/191/53 98/238/100 99/192/54
f 59/166/28 128/165/27 129/194/56
f 33/151/13 102/150/12 103/196/58
f 23/198/60 92/226/88 93/199/61
f 30/193/55 99/192/54 100/200/62
f 19/154/16 88/153/15 89/202/64
f 70/204/66 139/278/137 140/205/67
f 39/157/19 108/156/18 109/207/69
f 71/206/68 140/205/67 1/209/71
f 15/211/73 84/225/87 85/212/74
f 16/213/75 85/212/74 86/214/76
f 5/172/34 74/171/33 75/216/78
f 37/218/80 106/246/108 107/219/81
f 56/220/82 125/282/141 126/221/83
f 45/181/43 114/180/42 115/223/85
f 14/187/49 83/186/48 84/225/87
f 22/148/10 91/147/9 92/226/88
f 12/227/89 81/272/132 82/228/90
f 65/190/52 134/189/51 135/229/91
f 62/160/22 131/159/21 132/231/93
f 31/201/63 100/200/62 101/233/95
f 8/163/25 77/162/24 78/234/96
f 51/236/98 120/259/120 121/237/99
f 28/169/31 97/168/30 98/238/100
f 2/210/72 1/209/71 72/239/101
f 25/178/40 94/177/39 95/241/103
f 48/175/37 117/174/36 118/243/105
f 36/245/107 105/281/140 106/246/108
f 17/215/77 86/214/76 87/247/109
f 68/248/46 137/284/45 138/249/110
f 34/197/59 103/196/58 104/251/112
f 57/222/84 126/221/83 127/253/114
f 3/240/102 72/239/101 73/254/115
f 42/255/116 111/283/142 112/256/117
f 50/258/119 119/277/136 120/259/120
f 54/260/5 123/285/4 124/261/121
f 20/203/65 89/202/64 90/263/123
f 40/208/70 109/207/69 110/264/124
f 63/232/94 132/231/93 133/266/126
f 43/257/118 112/256/117 113/267/127
f 60/195/57 129/194/56 130/268/128
f 9/235/97 78/234/96 79/269/129
f 11/271/131 80/280/139 81/272/132
f 6/217/79 75/216/78 76/273/133
f 26/274/104 95/286/103 96/275/134
f 46/224/86 115/223/85 116/276/135
f 49/244/106 118/243/105 119/277/136
f 69/250/111 138/249/110 139/278/137
f 66/230/92 135/229/91 136/279/138
f 10/270/130 79/269/129 80/280/139
f 35/252/113 104/251/112 105/281/140
f 55/262/122 124/261/121 125/282/141
f 41/265/125 110/264/124 111/283/142
