# Blender v2.70 (sub 5) OBJ File: 'keyd.blend'
# www.blender.org
mtllib keyd.mtl
o ColobotMesh_1_ColobotMesh_
v 0.309017 2.000000 0.951057
v 1.000000 0.000000 0.000000
v 0.809017 -0.000000 0.587785
v 0.000000 0.000000 0.000000
v 0.309017 -0.000000 0.951057
v -0.309017 -0.000000 0.951056
v -0.809017 -0.000000 0.587785
v -1.000000 0.000000 0.000000
v -0.809017 0.000000 -0.587785
v -0.309017 0.000000 -0.951057
v 0.309017 0.000000 -0.951056
v 0.809017 0.000000 -0.587785
v 1.000000 2.000000 0.000000
v 0.809017 2.000000 0.587785
v -1.000000 2.000000 0.000000
v -0.809017 2.000000 -0.587785
v -0.809017 2.000000 0.587785
v -0.309017 2.000000 0.951056
v -0.309017 2.000000 -0.951057
v 0.309017 2.000000 -0.951056
v 0.809017 2.000000 -0.587785
v 0.000000 2.000000 0.000000
vt 0.568359 0.937500
vt 0.563883 0.974920
vt 0.544922 0.937500
vt 0.552164 0.998047
vt 0.537679 0.998047
vt 0.525961 0.974920
vt 0.521484 0.937500
vt 0.525961 0.900080
vt 0.537679 0.876953
vt 0.552164 0.876953
vt 0.563883 0.900080
vt 0.521484 0.998047
vt 0.550455 0.998047
vt 0.521484 0.876953
vt 0.550455 0.876953
vt 0.568359 0.998047
vt 0.568359 0.876953
vt 0.542448 0.998047
vt 0.542448 0.876953
vt 0.544922 0.998047
vt 0.544922 0.876953
vt 0.539389 0.998047
vt 0.539389 0.876953
vn -0.000000 -1.000000 -0.000000
vn 0.951056 -0.000000 0.309017
vn 0.587786 -0.000000 0.809016
vn -0.000002 -0.000000 1.000000
vn -0.587785 -0.000000 0.809017
vn -0.951056 0.000000 0.309017
vn -0.951056 0.000000 -0.309017
vn -0.587786 0.000000 -0.809016
vn 0.000002 0.000000 -1.000000
vn 0.587785 0.000000 -0.809017
vn 0.951056 -0.000000 -0.309017
vn 0.000000 1.000000 0.000000
usemtl ColobotMesh_mat_1
s off
f 2/1/1 3/2/1 4/3/1
f 3/2/1 5/4/1 4/3/1
f 5/4/1 6/5/1 4/3/1
f 6/5/1 7/6/1 4/3/1
f 7/6/1 8/7/1 4/3/1
f 8/7/1 9/8/1 4/3/1
f 9/8/1 10/9/1 4/3/1
f 10/9/1 11/10/1 4/3/1
f 11/10/1 12/11/1 4/3/1
f 12/11/1 2/1/1 4/3/1
f 13/12/2 14/13/2 2/14/2
f 14/13/2 3/15/2 2/14/2
f 14/13/3 1/16/3 3/15/3
f 1/16/3 5/17/3 3/15/3
f 1/16/4 18/18/4 5/17/4
f 18/18/4 6/19/4 5/17/4
f 18/18/5 17/12/5 6/19/5
f 17/12/5 7/14/5 6/19/5
f 17/16/6 15/20/6 7/17/6
f 15/20/6 8/21/6 7/17/6
f 15/20/7 16/12/7 8/21/7
f 16/12/7 9/14/7 8/21/7
f 16/12/8 19/18/8 9/14/8
f 19/18/8 10/19/8 9/14/8
f 19/18/9 20/16/9 10/19/9
f 20/16/9 11/17/9 10/19/9
f 20/12/10 21/22/10 11/14/10
f 21/22/10 12/23/10 11/14/10
f 21/22/11 13/16/11 12/23/11
f 13/16/11 2/17/11 12/23/11
f 14/2/12 13/1/12 22/3/12
f 1/4/12 14/2/12 22/3/12
f 18/5/12 1/4/12 22/3/12
f 17/6/12 18/5/12 22/3/12
f 15/7/12 17/6/12 22/3/12
f 16/8/12 15/7/12 22/3/12
f 19/9/12 16/8/12 22/3/12
f 20/10/12 19/9/12 22/3/12
f 21/11/12 20/10/12 22/3/12
f 13/1/12 21/11/12 22/3/12
