# Blender v2.77 (sub 0) OBJ File: 'labo4.blend'
# www.blender.org
mtllib labo4.mtl
o Cylinder
v -6.321460 -1.295680 -0.021437
v -6.321459 0.704325 -1.021437
v -6.223442 0.704325 -1.016621
v -6.126369 0.704325 -1.002222
v -6.031175 0.704325 -0.978377
v -5.938776 0.704325 -0.945316
v -5.850063 0.704325 -0.903358
v -5.765890 0.704325 -0.852906
v -5.687067 0.704325 -0.794447
v -5.614353 0.704325 -0.728544
v -5.548450 0.704325 -0.655830
v -5.489991 0.704325 -0.577007
v -5.439538 0.704325 -0.492834
v -5.397580 0.704325 -0.404120
v -5.364520 0.704325 -0.311722
v -5.340675 0.704325 -0.216527
v -5.326275 0.704325 -0.119454
v -5.321460 0.704325 -0.021437
v -5.326275 0.704325 0.076580
v -5.340675 0.704325 0.173653
v -5.364520 0.704325 0.268847
v -5.397581 0.704325 0.361246
v -5.439538 0.704325 0.449959
v -5.489991 0.704325 0.534133
v -5.548450 0.704325 0.612956
v -5.614353 0.704325 0.685669
v -5.687067 0.704325 0.751573
v -5.765890 0.704325 0.810032
v -5.850064 0.704325 0.860484
v -5.938776 0.704325 0.902442
v -6.031176 0.704325 0.935503
v -6.126369 0.704325 0.959347
v -6.223443 0.704325 0.973747
v -6.321460 0.704325 0.978562
v -6.419477 0.704325 0.973747
v -6.516551 0.704325 0.959347
v -6.611745 0.704325 0.935502
v -6.704144 0.704325 0.902441
v -6.792857 0.704325 0.860483
v -6.877030 0.704325 0.810031
v -6.955853 0.704325 0.751572
v -7.028566 0.704325 0.685668
v -7.094470 0.704325 0.612955
v -7.152929 0.704325 0.534132
v -7.203380 0.704325 0.449959
v -7.245338 0.704325 0.361246
v -7.278399 0.704325 0.268847
v -7.302244 0.704325 0.173653
v -7.316643 0.704325 0.076580
v -7.321459 0.704325 -0.021437
v -7.316643 0.704325 -0.119454
v -7.302244 0.704325 -0.216527
v -7.278399 0.704325 -0.311721
v -7.245339 0.704325 -0.404119
v -7.203381 0.704325 -0.492832
v -7.152929 0.704325 -0.577006
v -7.094470 0.704325 -0.655829
v -7.028567 0.704325 -0.728542
v -6.955854 0.704325 -0.794446
v -6.877031 0.704325 -0.852905
v -6.792858 0.704325 -0.903357
v -6.704145 0.704325 -0.945315
v -6.611747 0.704325 -0.978376
v -6.516553 0.704325 -1.002221
v -6.419480 0.704325 -1.016621
vt 0.9844 0.7532
vt 0.9844 0.9979
vt 0.9856 0.9979
vt 0.9868 0.9979
vt 0.9879 0.9979
vt 0.9891 0.9979
vt 0.9902 0.9979
vt 0.9912 0.9979
vt 0.9922 0.9979
vt 0.9930 0.9979
vt 0.9939 0.9979
vt 0.9946 0.9979
vt 0.9952 0.9979
vt 0.9957 0.9979
vt 0.9961 0.9979
vt 0.9964 0.9979
vt 0.9966 0.9979
vt 0.9966 0.9979
vt 0.9966 0.9979
vt 0.9964 0.9979
vt 0.9961 0.9979
vt 0.9957 0.9979
vt 0.9952 0.9979
vt 0.9946 0.9979
vt 0.9939 0.9979
vt 0.9930 0.9979
vt 0.9922 0.9979
vt 0.9912 0.9979
vt 0.9902 0.9979
vt 0.9891 0.9979
vt 0.9879 0.9979
vt 0.9868 0.9979
vt 0.9856 0.9979
vt 0.9844 0.9979
vt 0.9832 0.9979
vt 0.9820 0.9979
vt 0.9808 0.9979
vt 0.9797 0.9979
vt 0.9786 0.9979
vt 0.9775 0.9979
vt 0.9766 0.9979
vt 0.9757 0.9979
vt 0.9749 0.9979
vt 0.9742 0.9979
vt 0.9735 0.9979
vt 0.9730 0.9979
vt 0.9726 0.9979
vt 0.9723 0.9979
vt 0.9722 0.9979
vt 0.9721 0.9979
vt 0.9722 0.9979
vt 0.9723 0.9979
vt 0.9726 0.9979
vt 0.9730 0.9979
vt 0.9735 0.9979
vt 0.9742 0.9979
vt 0.9749 0.9979
vt 0.9757 0.9979
vt 0.9766 0.9979
vt 0.9775 0.9979
vt 0.9786 0.9979
vt 0.9797 0.9979
vt 0.9808 0.9979
vt 0.9820 0.9979
vt 0.9832 0.9979
vn 0.0000 -1.0000 0.0000
vn 0.0000 -0.4472 -0.8944
vn 0.0876 -0.4472 -0.8901
vn 0.1745 -0.4472 -0.8772
vn 0.2596 -0.4472 -0.8559
vn 0.3423 -0.4472 -0.8263
vn 0.4216 -0.4472 -0.7888
vn 0.4969 -0.4472 -0.7437
vn 0.5674 -0.4472 -0.6914
vn 0.6324 -0.4472 -0.6324
vn 0.6914 -0.4472 -0.5674
vn 0.7437 -0.4472 -0.4969
vn 0.7888 -0.4472 -0.4216
vn 0.8263 -0.4472 -0.3423
vn 0.8559 -0.4472 -0.2596
vn 0.8772 -0.4472 -0.1745
vn 0.8901 -0.4472 -0.0876
vn 0.8944 -0.4472 0.0000
vn 0.8901 -0.4472 0.0876
vn 0.8772 -0.4472 0.1745
vn 0.8559 -0.4472 0.2596
vn 0.8263 -0.4472 0.3423
vn 0.7888 -0.4472 0.4216
vn 0.7437 -0.4472 0.4969
vn 0.6914 -0.4472 0.5674
vn 0.6324 -0.4472 0.6324
vn 0.5674 -0.4472 0.6914
vn 0.4969 -0.4472 0.7437
vn 0.4216 -0.4472 0.7888
vn 0.3423 -0.4472 0.8263
vn 0.2596 -0.4472 0.8559
vn 0.1745 -0.4472 0.8772
vn 0.0876 -0.4472 0.8901
vn 0.0000 -0.4472 0.8944
vn -0.0876 -0.4472 0.8901
vn -0.1745 -0.4472 0.8772
vn -0.2596 -0.4472 0.8559
vn -0.3423 -0.4472 0.8263
vn -0.4216 -0.4472 0.7888
vn -0.4969 -0.4472 0.7437
vn -0.5674 -0.4472 0.6914
vn -0.6324 -0.4472 0.6324
vn -0.6914 -0.4472 0.5674
vn -0.7437 -0.4472 0.4969
vn -0.7888 -0.4472 0.4216
vn -0.8263 -0.4472 0.3423
vn -0.8559 -0.4472 0.2596
vn -0.8772 -0.4472 0.1745
vn -0.8901 -0.4472 0.0876
vn -0.8944 -0.4472 0.0000
vn -0.8901 -0.4472 -0.0876
vn -0.8772 -0.4472 -0.1745
vn -0.8559 -0.4472 -0.2596
vn -0.8263 -0.4472 -0.3423
vn -0.7888 -0.4472 -0.4216
vn -0.7437 -0.4472 -0.4969
vn -0.6914 -0.4472 -0.5674
vn -0.6324 -0.4472 -0.6324
vn -0.5674 -0.4472 -0.6914
vn -0.4969 -0.4472 -0.7437
vn -0.4216 -0.4472 -0.7888
vn -0.3423 -0.4472 -0.8263
vn -0.2596 -0.4472 -0.8559
vn -0.1745 -0.4472 -0.8772
vn -0.0876 -0.4472 -0.8901
usemtl None
s 1
f 1/1/1 2/2/2 3/3/3
f 1/1/1 3/3/3 4/4/4
f 1/1/1 4/4/4 5/5/5
f 1/1/1 5/5/5 6/6/6
f 1/1/1 6/6/6 7/7/7
f 1/1/1 7/7/7 8/8/8
f 1/1/1 8/8/8 9/9/9
f 1/1/1 9/9/9 10/10/10
f 1/1/1 10/10/10 11/11/11
f 1/1/1 11/11/11 12/12/12
f 1/1/1 12/12/12 13/13/13
f 1/1/1 13/13/13 14/14/14
f 1/1/1 14/14/14 15/15/15
f 1/1/1 15/15/15 16/16/16
f 1/1/1 16/16/16 17/17/17
f 1/1/1 17/17/17 18/18/18
f 1/1/1 18/18/18 19/19/19
f 1/1/1 19/19/19 20/20/20
f 1/1/1 20/20/20 21/21/21
f 1/1/1 21/21/21 22/22/22
f 1/1/1 22/22/22 23/23/23
f 1/1/1 23/23/23 24/24/24
f 1/1/1 24/24/24 25/25/25
f 1/1/1 25/25/25 26/26/26
f 1/1/1 26/26/26 27/27/27
f 1/1/1 27/27/27 28/28/28
f 1/1/1 28/28/28 29/29/29
f 1/1/1 29/29/29 30/30/30
f 1/1/1 30/30/30 31/31/31
f 1/1/1 31/31/31 32/32/32
f 1/1/1 32/32/32 33/33/33
f 1/1/1 33/33/33 34/34/34
f 1/1/1 34/34/34 35/35/35
f 1/1/1 35/35/35 36/36/36
f 1/1/1 36/36/36 37/37/37
f 1/1/1 37/37/37 38/38/38
f 1/1/1 38/38/38 39/39/39
f 1/1/1 39/39/39 40/40/40
f 1/1/1 40/40/40 41/41/41
f 1/1/1 41/41/41 42/42/42
f 1/1/1 42/42/42 43/43/43
f 1/1/1 43/43/43 44/44/44
f 1/1/1 44/44/44 45/45/45
f 1/1/1 45/45/45 46/46/46
f 1/1/1 46/46/46 47/47/47
f 1/1/1 47/47/47 48/48/48
f 1/1/1 48/48/48 49/49/49
f 1/1/1 49/49/49 50/50/50
f 1/1/1 50/50/50 51/51/51
f 1/1/1 51/51/51 52/52/52
f 1/1/1 52/52/52 53/53/53
f 1/1/1 53/53/53 54/54/54
f 1/1/1 54/54/54 55/55/55
f 1/1/1 55/55/55 56/56/56
f 1/1/1 56/56/56 57/57/57
f 1/1/1 57/57/57 58/58/58
f 1/1/1 58/58/58 59/59/59
f 1/1/1 59/59/59 60/60/60
f 1/1/1 60/60/60 61/61/61
f 1/1/1 61/61/61 62/62/62
f 1/1/1 62/62/62 63/63/63
f 1/1/1 63/63/63 64/64/64
f 1/1/1 64/64/64 65/65/65
f 1/1/1 65/65/65 2/2/2
o Case_ColobotMesh_
v -1.500230 -0.585128 -0.497810
v -2.789640 2.118490 -0.497810
v -2.789640 2.118490 0.502190
v -0.782881 0.111734 0.502190
v -0.782881 0.111734 -0.497809
v -5.284330 2.138630 -0.497810
v -5.284330 2.138630 0.502190
v -3.134110 1.048760 -0.497810
v -3.134110 1.048760 0.502190
v -5.331120 1.050680 0.502190
v -5.331120 1.050680 -0.497810
v -1.500230 -0.585129 0.502190
v -5.071460 0.704324 1.228560
v -7.571460 0.704324 1.228560
v -7.571460 0.704324 -1.271440
v -5.071460 0.704324 -1.271440
v -5.071460 2.704320 1.228560
v -5.071460 2.704320 -1.271440
v -7.571460 2.704320 -1.271440
v -7.571460 2.704320 1.228560
vt 0.6582 0.9941
vt 0.6660 0.9863
vt 0.6582 0.9863
vt 0.6582 0.9863
vt 0.6660 0.9941
vt 0.6582 0.9941
vt 0.6583 0.9863
vt 0.6620 0.9895
vt 0.6582 0.9894
vt 0.6620 0.9895
vt 0.6660 0.9921
vt 0.6626 0.9864
vt 0.6660 0.9921
vt 0.6648 0.9941
vt 0.6583 0.9863
vt 0.6582 0.9894
vt 0.6582 0.9941
vt 0.6660 0.9863
vt 0.6660 0.9941
vt 0.6582 0.9941
vt 0.6660 0.9863
vt 0.6582 0.9863
vt 0.6660 0.9941
vt 0.6660 0.9863
vt 0.6626 0.9864
vt 0.6648 0.9941
vt 0.6582 0.9863
vt 0.6660 0.9941
vt 0.3730 0.9980
vt 0.2520 0.9082
vt 0.2520 0.9980
vt 0.2480 0.7832
vt 0.1582 0.8730
vt 0.2480 0.8730
vt 0.0020 0.9980
vt 0.2480 0.8770
vt 0.0020 0.8770
vt 0.2480 0.9980
vt 0.0020 0.8770
vt 0.2480 0.8770
vt 0.1582 0.7832
vt 0.2480 0.8730
vt 0.1582 0.8730
vt 0.2520 0.9082
vt 0.3730 0.9980
vt 0.2520 0.9980
vt 0.3730 0.9082
vt 0.1582 0.7832
vt 0.2480 0.9980
vt 0.0020 0.9980
vt 0.2480 0.7832
vt 0.3730 0.9082
vn -0.7071 -0.7071 0.0000
vn 0.0081 1.0000 0.0000
vn -0.0000 0.0000 -1.0000
vn 0.0000 -0.0000 1.0000
vn 0.7071 0.7071 0.0000
vn -0.0009 -1.0000 0.0000
vn 0.0000 -1.0000 -0.0000
vn -1.0000 0.0000 0.0000
vn 1.0000 0.0000 0.0000
vn 0.0000 1.0000 0.0000
usemtl ColobotMesh_mat_1
s off
f 66/66/66 74/67/66 73/68/66
f 71/69/67 68/70/67 67/71/67
f 71/72/68 73/73/68 76/74/68
f 74/75/69 69/76/69 68/77/69
f 73/73/68 70/78/68 66/79/68
f 74/75/69 72/80/69 75/81/69
f 70/82/70 68/83/70 69/84/70
f 73/85/71 75/86/71 76/87/71
f 66/66/66 77/88/66 74/67/66
f 71/69/67 72/89/67 68/70/67
f 71/72/68 67/90/68 73/73/68
f 74/75/69 77/91/69 69/76/69
f 73/73/68 67/90/68 70/78/68
f 74/75/69 68/77/69 72/80/69
f 70/82/70 67/92/70 68/83/70
f 73/85/71 74/93/71 75/86/71
usemtl ColobotMesh_mat_2
f 81/94/72 79/95/72 80/96/72
f 85/97/73 80/98/73 79/99/73
f 84/100/68 81/101/68 80/102/68
f 82/103/69 79/104/69 78/105/69
f 83/106/74 78/107/74 81/108/74
f 85/109/75 83/110/75 84/111/75
f 81/94/72 78/112/72 79/95/72
f 85/97/73 84/113/73 80/98/73
f 84/100/68 83/114/68 81/101/68
f 82/103/69 85/115/69 79/104/69
f 83/106/74 82/116/74 78/107/74
f 85/109/75 82/117/75 83/110/75
