# Blender v2.70 (sub 5) OBJ File: 'labo1.blend'
# www.blender.org
mtllib labo1.mtl
o ColobotMesh_1_ColobotMesh_
v -8.028120 2.000000 2.000000
v -1.204820 3.000000 -1.204820
v 1.204820 3.000000 1.204820
v 1.204820 3.000000 -1.204820
v -1.204820 3.000000 1.204820
v 2.000000 -1.000000 -2.000000
v -2.000000 -1.000000 -2.000000
v 2.000000 -1.000000 2.000000
v -2.000000 -1.000000 2.000000
v -8.028120 -1.008780 -7.000000
v -8.028120 2.000000 -2.000000
v -8.028120 -1.008780 7.000000
v -11.028100 14.018900 3.000001
v -16.028099 -1.008780 7.000000
v -16.028099 -1.008780 -7.000000
v -11.028100 14.018900 -2.999999
v -10.000000 14.018900 -1.999999
v -10.000000 14.018900 2.000001
v -8.028120 14.018900 -2.999999
v -8.069170 1.000000 -1.000000
v -8.069170 1.000000 1.000000
v -1.069170 1.000000 1.000000
v -1.069170 1.000000 -1.000000
v -8.028120 14.018900 3.000001
v -8.028120 14.018900 -1.999999
v -8.028120 14.018900 2.000001
v -10.000000 2.000000 2.000000
v -10.000000 2.000000 -2.000000
v -8.069170 -1.000000 1.000000
v -1.069170 -1.000000 1.000000
v -1.069170 -1.000000 -1.000000
v -8.069170 -1.000000 -1.000000
vt 0.810547 0.998047
vt 0.810547 0.970703
vt 0.783203 0.970703
vt 0.783203 0.998047
vt 0.699125 0.529297
vt 0.748047 0.314453
vt 0.501953 0.314453
vt 0.550875 0.529297
vt 0.603516 0.986328
vt 0.603516 0.994141
vt 0.611328 0.994141
vt 0.611328 0.986328
vt 0.583984 0.992188
vt 0.577474 0.984375
vt 0.576172 0.992188
vt 0.582682 0.984375
vt 0.577474 0.992188
vt 0.576172 0.984375
vt 0.666016 0.986328
vt 0.658203 0.994141
vt 0.666016 0.994141
vt 0.658203 0.986328
vt 0.595703 0.501953
vt 0.771484 0.888672
vt 0.876953 0.888672
vt 0.876953 0.501953
vt 0.820871 0.095005
vt 0.501953 0.017578
vt 0.679129 0.095005
vt 0.998047 0.017578
vt 0.643694 0.404297
vt 0.856306 0.404297
vt 0.820871 0.404297
vt 0.679129 0.404297
vn 0.000000 1.000000 0.000000
vn 0.000000 0.194980 -0.980807
vn 0.980807 0.194980 0.000000
vn 0.000000 0.194980 0.980807
vn -0.980807 0.194980 0.000000
vn 0.000000 1.000000 0.000001
vn 1.000000 0.000000 0.000000
vn -0.000000 -0.000000 1.000000
vn 0.000000 0.000000 -1.000000
vn 0.000000 0.257220 -0.966353
vn 0.000000 0.257219 0.966353
vn -0.948858 0.315703 0.000000
usemtl ColobotMesh_mat_1
s off
f 3/1/1 4/2/1 2/3/1
f 2/3/1 5/4/1 3/1/1
usemtl ColobotMesh_mat_2
f 4/5/2 6/6/2 7/7/2
f 7/7/2 2/8/2 4/5/2
f 3/5/3 8/6/3 6/7/3
f 6/7/3 4/8/3 3/5/3
f 5/8/4 9/7/4 8/6/4
f 8/6/4 3/5/4 5/8/4
f 2/8/5 7/7/5 9/6/5
f 9/6/5 5/5/5 2/8/5
usemtl ColobotMesh_mat_3
f 20/9/1 21/10/1 22/11/1
f 22/11/1 23/12/1 20/9/1
f 13/13/1 17/14/1 16/15/1
f 17/14/1 13/13/1 18/16/1
f 17/14/1 19/15/1 16/15/1
f 18/16/1 13/13/1 24/13/1
f 25/17/6 19/15/6 17/14/6
f 24/13/6 26/15/6 18/18/6
f 27/19/7 17/20/7 18/21/7
f 17/20/7 27/19/7 28/22/7
f 28/22/8 25/21/8 17/20/8
f 25/21/8 28/22/8 11/19/8
f 18/20/9 26/21/9 27/22/9
f 1/19/9 27/22/9 26/21/9
f 28/22/1 1/21/1 11/19/1
f 1/21/1 28/22/1 27/20/1
f 22/11/8 21/10/8 29/9/8
f 29/9/8 30/12/8 22/11/8
f 23/11/9 31/12/9 32/9/9
f 32/9/9 20/10/9 23/11/9
usemtl ColobotMesh_mat_4
f 15/23/10 16/24/10 19/25/10
f 19/25/10 10/26/10 15/23/10
f 1/27/7 10/28/7 11/29/7
f 10/28/7 1/27/7 12/30/7
f 13/24/11 14/23/11 12/26/11
f 12/26/11 24/25/11 13/24/11
f 16/31/12 15/28/12 14/30/12
f 14/30/12 13/32/12 16/31/12
f 1/27/7 24/32/7 12/30/7
f 11/29/7 10/28/7 19/31/7
f 26/33/7 24/32/7 1/27/7
f 19/31/7 25/34/7 11/29/7
