# Blender v2.77 (sub 0) OBJ File: 'labo4_alt.blend'
# www.blender.org
mtllib labo4_alt.mtl
o Cylinder
v -6.321460 -1.295680 -0.021437
v -6.321459 0.704325 -1.021437
v -6.223442 0.704325 -1.016621
v -6.126369 0.704325 -1.002222
v -6.031175 0.704325 -0.978377
v -5.938776 0.704325 -0.945316
v -5.850063 0.704325 -0.903358
v -5.765890 0.704325 -0.852906
v -5.687067 0.704325 -0.794447
v -5.614353 0.704325 -0.728544
v -5.548450 0.704325 -0.655830
v -5.489991 0.704325 -0.577007
v -5.439538 0.704325 -0.492834
v -5.397580 0.704325 -0.404120
v -5.364520 0.704325 -0.311722
v -5.340675 0.704325 -0.216527
v -5.326275 0.704325 -0.119454
v -5.321460 0.704325 -0.021437
v -5.326275 0.704325 0.076580
v -5.340675 0.704325 0.173653
v -5.364520 0.704325 0.268847
v -5.397581 0.704325 0.361246
v -5.439538 0.704325 0.449959
v -5.489991 0.704325 0.534133
v -5.548450 0.704325 0.612956
v -5.614353 0.704325 0.685669
v -5.687067 0.704325 0.751573
v -5.765890 0.704325 0.810032
v -5.850064 0.704325 0.860484
v -5.938776 0.704325 0.902442
v -6.031176 0.704325 0.935503
v -6.126369 0.704325 0.959347
v -6.223443 0.704325 0.973747
v -6.321460 0.704325 0.978562
v -6.419477 0.704325 0.973747
v -6.516551 0.704325 0.959347
v -6.611745 0.704325 0.935502
v -6.704144 0.704325 0.902441
v -6.792857 0.704325 0.860483
v -6.877030 0.704325 0.810031
v -6.955853 0.704325 0.751572
v -7.028566 0.704325 0.685668
v -7.094470 0.704325 0.612955
v -7.152929 0.704325 0.534132
v -7.203380 0.704325 0.449959
v -7.245338 0.704325 0.361246
v -7.278399 0.704325 0.268847
v -7.302244 0.704325 0.173653
v -7.316643 0.704325 0.076580
v -7.321459 0.704325 -0.021437
v -7.316643 0.704325 -0.119454
v -7.302244 0.704325 -0.216527
v -7.278399 0.704325 -0.311721
v -7.245339 0.704325 -0.404119
v -7.203381 0.704325 -0.492832
v -7.152929 0.704325 -0.577006
v -7.094470 0.704325 -0.655829
v -7.028567 0.704325 -0.728542
v -6.955854 0.704325 -0.794446
v -6.877031 0.704325 -0.852905
v -6.792858 0.704325 -0.903357
v -6.704145 0.704325 -0.945315
v -6.611747 0.704325 -0.978376
v -6.516553 0.704325 -1.002221
v -6.419480 0.704325 -1.016621
vt 0.9844 0.7532
vt 0.9844 0.9979
vt 0.9856 0.9979
vt 0.9868 0.9979
vt 0.9879 0.9979
vt 0.9891 0.9979
vt 0.9902 0.9979
vt 0.9912 0.9979
vt 0.9922 0.9979
vt 0.9930 0.9979
vt 0.9939 0.9979
vt 0.9946 0.9979
vt 0.9952 0.9979
vt 0.9957 0.9979
vt 0.9961 0.9979
vt 0.9964 0.9979
vt 0.9966 0.9979
vt 0.9966 0.9979
vt 0.9966 0.9979
vt 0.9964 0.9979
vt 0.9961 0.9979
vt 0.9957 0.9979
vt 0.9952 0.9979
vt 0.9946 0.9979
vt 0.9939 0.9979
vt 0.9930 0.9979
vt 0.9922 0.9979
vt 0.9912 0.9979
vt 0.9902 0.9979
vt 0.9891 0.9979
vt 0.9879 0.9979
vt 0.9868 0.9979
vt 0.9856 0.9979
vt 0.9844 0.9979
vt 0.9832 0.9979
vt 0.9820 0.9979
vt 0.9808 0.9979
vt 0.9797 0.9979
vt 0.9786 0.9979
vt 0.9775 0.9979
vt 0.9766 0.9979
vt 0.9757 0.9979
vt 0.9749 0.9979
vt 0.9742 0.9979
vt 0.9735 0.9979
vt 0.9730 0.9979
vt 0.9726 0.9979
vt 0.9723 0.9979
vt 0.9722 0.9979
vt 0.9721 0.9979
vt 0.9722 0.9979
vt 0.9723 0.9979
vt 0.9726 0.9979
vt 0.9730 0.9979
vt 0.9735 0.9979
vt 0.9742 0.9979
vt 0.9749 0.9979
vt 0.9757 0.9979
vt 0.9766 0.9979
vt 0.9775 0.9979
vt 0.9786 0.9979
vt 0.9797 0.9979
vt 0.9808 0.9979
vt 0.9820 0.9979
vt 0.9832 0.9979
vn 0.0000 -1.0000 0.0000
vn 0.0000 -0.4472 -0.8944
vn 0.0876 -0.4472 -0.8901
vn 0.1745 -0.4472 -0.8772
vn 0.2596 -0.4472 -0.8559
vn 0.3423 -0.4472 -0.8263
vn 0.4216 -0.4472 -0.7888
vn 0.4969 -0.4472 -0.7437
vn 0.5674 -0.4472 -0.6914
vn 0.6324 -0.4472 -0.6324
vn 0.6914 -0.4472 -0.5674
vn 0.7437 -0.4472 -0.4969
vn 0.7888 -0.4472 -0.4216
vn 0.8263 -0.4472 -0.3423
vn 0.8559 -0.4472 -0.2596
vn 0.8772 -0.4472 -0.1745
vn 0.8901 -0.4472 -0.0876
vn 0.8944 -0.4472 0.0000
vn 0.8901 -0.4472 0.0876
vn 0.8772 -0.4472 0.1745
vn 0.8559 -0.4472 0.2596
vn 0.8263 -0.4472 0.3423
vn 0.7888 -0.4472 0.4216
vn 0.7437 -0.4472 0.4969
vn 0.6914 -0.4472 0.5674
vn 0.6324 -0.4472 0.6324
vn 0.5674 -0.4472 0.6914
vn 0.4969 -0.4472 0.7437
vn 0.4216 -0.4472 0.7888
vn 0.3423 -0.4472 0.8263
vn 0.2596 -0.4472 0.8559
vn 0.1745 -0.4472 0.8772
vn 0.0876 -0.4472 0.8901
vn 0.0000 -0.4472 0.8944
vn -0.0876 -0.4472 0.8901
vn -0.1745 -0.4472 0.8772
vn -0.2596 -0.4472 0.8559
vn -0.3423 -0.4472 0.8263
vn -0.4216 -0.4472 0.7888
vn -0.4969 -0.4472 0.7437
vn -0.5674 -0.4472 0.6914
vn -0.6324 -0.4472 0.6324
vn -0.6914 -0.4472 0.5674
vn -0.7437 -0.4472 0.4969
vn -0.7888 -0.4472 0.4216
vn -0.8263 -0.4472 0.3423
vn -0.8559 -0.4472 0.2596
vn -0.8772 -0.4472 0.1745
vn -0.8901 -0.4472 0.0876
vn -0.8944 -0.4472 0.0000
vn -0.8901 -0.4472 -0.0876
vn -0.8772 -0.4472 -0.1745
vn -0.8559 -0.4472 -0.2596
vn -0.8263 -0.4472 -0.3423
vn -0.7888 -0.4472 -0.4216
vn -0.7437 -0.4472 -0.4969
vn -0.6914 -0.4472 -0.5674
vn -0.6324 -0.4472 -0.6324
vn -0.5674 -0.4472 -0.6914
vn -0.4969 -0.4472 -0.7437
vn -0.4216 -0.4472 -0.7888
vn -0.3423 -0.4472 -0.8263
vn -0.2596 -0.4472 -0.8559
vn -0.1745 -0.4472 -0.8772
vn -0.0876 -0.4472 -0.8901
usemtl None
s 1
f 1/1/1 2/2/2 3/3/3
f 1/1/1 3/3/3 4/4/4
f 1/1/1 4/4/4 5/5/5
f 1/1/1 5/5/5 6/6/6
f 1/1/1 6/6/6 7/7/7
f 1/1/1 7/7/7 8/8/8
f 1/1/1 8/8/8 9/9/9
f 1/1/1 9/9/9 10/10/10
f 1/1/1 10/10/10 11/11/11
f 1/1/1 11/11/11 12/12/12
f 1/1/1 12/12/12 13/13/13
f 1/1/1 13/13/13 14/14/14
f 1/1/1 14/14/14 15/15/15
f 1/1/1 15/15/15 16/16/16
f 1/1/1 16/16/16 17/17/17
f 1/1/1 17/17/17 18/18/18
f 1/1/1 18/18/18 19/19/19
f 1/1/1 19/19/19 20/20/20
f 1/1/1 20/20/20 21/21/21
f 1/1/1 21/21/21 22/22/22
f 1/1/1 22/22/22 23/23/23
f 1/1/1 23/23/23 24/24/24
f 1/1/1 24/24/24 25/25/25
f 1/1/1 25/25/25 26/26/26
f 1/1/1 26/26/26 27/27/27
f 1/1/1 27/27/27 28/28/28
f 1/1/1 28/28/28 29/29/29
f 1/1/1 29/29/29 30/30/30
f 1/1/1 30/30/30 31/31/31
f 1/1/1 31/31/31 32/32/32
f 1/1/1 32/32/32 33/33/33
f 1/1/1 33/33/33 34/34/34
f 1/1/1 34/34/34 35/35/35
f 1/1/1 35/35/35 36/36/36
f 1/1/1 36/36/36 37/37/37
f 1/1/1 37/37/37 38/38/38
f 1/1/1 38/38/38 39/39/39
f 1/1/1 39/39/39 40/40/40
f 1/1/1 40/40/40 41/41/41
f 1/1/1 41/41/41 42/42/42
f 1/1/1 42/42/42 43/43/43
f 1/1/1 43/43/43 44/44/44
f 1/1/1 44/44/44 45/45/45
f 1/1/1 45/45/45 46/46/46
f 1/1/1 46/46/46 47/47/47
f 1/1/1 47/47/47 48/48/48
f 1/1/1 48/48/48 49/49/49
f 1/1/1 49/49/49 50/50/50
f 1/1/1 50/50/50 51/51/51
f 1/1/1 51/51/51 52/52/52
f 1/1/1 52/52/52 53/53/53
f 1/1/1 53/53/53 54/54/54
f 1/1/1 54/54/54 55/55/55
f 1/1/1 55/55/55 56/56/56
f 1/1/1 56/56/56 57/57/57
f 1/1/1 57/57/57 58/58/58
f 1/1/1 58/58/58 59/59/59
f 1/1/1 59/59/59 60/60/60
f 1/1/1 60/60/60 61/61/61
f 1/1/1 61/61/61 62/62/62
f 1/1/1 62/62/62 63/63/63
f 1/1/1 63/63/63 64/64/64
f 1/1/1 64/64/64 65/65/65
f 1/1/1 65/65/65 2/2/2
o Case_ColobotMesh_
v -1.500230 -0.585128 -0.497810
v -0.782881 0.111734 0.502190
v -0.782881 0.111734 -0.497809
v -5.284330 2.138630 -0.497810
v -5.284330 2.138630 0.502190
v -5.331120 1.050680 0.502190
v -5.331120 1.050680 -0.497810
v -1.500230 -0.585129 0.502190
v -5.071460 0.704324 1.228560
v -7.571460 0.704324 1.228560
v -7.571460 0.704324 -1.271440
v -5.071460 0.704324 -1.271440
v -5.071460 2.704320 1.228560
v -5.071460 2.704320 -1.271440
v -7.571460 2.704320 -1.271440
v -7.571460 2.704320 1.228560
v -3.353026 2.123038 -0.497810
v -2.391253 1.720103 -0.497810
v -3.159432 2.102134 -0.497810
v -2.945791 2.044280 -0.497810
v -2.733016 1.955138 -0.497810
v -2.541935 1.843434 -0.497810
v -2.391253 1.720103 0.502190
v -3.353026 2.123038 0.502190
v -2.541935 1.843434 0.502190
v -2.733016 1.955138 0.502190
v -2.945791 2.044280 0.502190
v -3.159432 2.102134 0.502190
v -2.735724 0.650372 -0.497810
v -3.697514 1.049252 -0.497810
v -2.886407 0.773505 -0.497810
v -3.077490 0.884633 -0.497810
v -3.290269 0.972878 -0.497810
v -3.503914 1.029602 -0.497810
v -3.697514 1.049252 0.502190
v -2.735724 0.650372 0.502190
v -3.503914 1.029602 0.502190
v -3.290269 0.972878 0.502190
v -3.077490 0.884633 0.502190
v -2.886407 0.773505 0.502190
vt 0.6583 0.9863
vt 0.6610 0.9895
vt 0.6616 0.9864
vt 0.6582 0.9868
vt 0.6660 0.9873
vt 0.6582 0.9873
vt 0.6582 0.9882
vt 0.6660 0.9876
vt 0.6582 0.9876
vt 0.6582 0.9869
vt 0.6660 0.9861
vt 0.6582 0.9861
vt 0.6582 0.9863
vt 0.6660 0.9921
vt 0.6660 0.9863
vt 0.6660 0.9879
vt 0.6582 0.9879
vt 0.6582 0.9928
vt 0.6582 0.9921
vt 0.6660 0.9882
vt 0.6582 0.9941
vt 0.6660 0.9941
vt 0.6582 0.9924
vt 0.6660 0.9930
vt 0.6582 0.9930
vt 0.6582 0.9941
vt 0.6660 0.9941
vt 0.6660 0.9863
vt 0.6660 0.9924
vt 0.6582 0.9936
vt 0.6660 0.9928
vt 0.6582 0.9937
vt 0.6660 0.9937
vt 0.6660 0.9943
vt 0.6582 0.9943
vt 0.6660 0.9869
vt 0.6627 0.9906
vt 0.6660 0.9921
vt 0.6648 0.9941
vt 0.6582 0.9949
vt 0.6660 0.9862
vt 0.6660 0.9856
vt 0.6660 0.9936
vt 0.6660 0.9921
vt 0.6627 0.9906
vt 0.6648 0.9941
vt 0.6610 0.9895
vt 0.6583 0.9863
vt 0.6616 0.9864
vt 0.6582 0.9894
vt 0.6660 0.9868
vt 0.6582 0.9863
vt 0.6633 0.9875
vt 0.6582 0.9855
vt 0.6660 0.9950
vt 0.6660 0.9943
vt 0.6633 0.9875
vt 0.6582 0.9894
vt 0.2520 0.9980
vt 0.3730 0.9082
vt 0.2520 0.9082
vt 0.2480 0.8730
vt 0.1582 0.7832
vt 0.1582 0.8730
vt 0.2520 0.9980
vt 0.3730 0.9082
vt 0.3730 0.9980
vt 0.2480 0.8770
vt 0.0020 0.9980
vt 0.0020 0.8770
vt 0.0020 0.8770
vt 0.2480 0.9980
vt 0.2480 0.8770
vt 0.1582 0.8730
vt 0.2480 0.7832
vt 0.2480 0.8730
vt 0.3730 0.9980
vt 0.2480 0.7832
vt 0.2520 0.9082
vt 0.2480 0.9980
vt 0.0020 0.9980
vt 0.1582 0.7832
vn 0.0056 0.6993 0.7148
vn -0.0355 -0.6945 0.7186
vn 0.0415 0.7168 0.6961
vn 0.3221 0.6455 -0.6925
vn 0.4132 0.5944 0.6899
vn 0.4132 0.5944 -0.6899
vn -0.4665 -0.5158 -0.7186
vn -0.3920 -0.5658 0.7253
vn -0.3920 -0.5658 -0.7253
vn -0.3069 -0.6196 -0.7224
vn -0.2216 -0.6549 0.7224
vn -0.2216 -0.6549 -0.7224
vn -0.0006 -0.7166 -0.6974
vn -0.0006 -0.7166 0.6974
vn 0.4818 0.5323 0.6961
vn 0.4818 0.5323 -0.6961
vn -0.1234 -0.6772 -0.7253
vn -0.0355 -0.6945 -0.7186
vn -0.4665 -0.5158 0.7186
vn -0.4977 -0.4977 -0.7103
vn -0.4977 -0.4977 0.7103
vn 0.0415 0.7168 -0.6961
vn 0.1339 0.7114 0.6899
vn 0.1339 0.7114 -0.6899
vn 0.5023 0.5023 -0.7038
vn 0.5023 0.5023 0.7038
vn -0.1234 -0.6772 0.7253
vn 0.2342 0.6823 -0.6925
vn 0.2342 0.6823 0.6925
vn 0.3221 0.6455 0.6925
vn -0.3069 -0.6196 0.7224
vn 0.0056 0.6993 -0.7148
vn -0.5773 -0.5773 -0.5773
vn 0.5773 -0.5773 0.5773
vn -0.5773 -0.5773 0.5773
vn -0.5773 0.5773 -0.5773
vn 0.5773 0.5773 0.5773
vn 0.5773 0.5773 -0.5773
vn -0.5773 0.5773 0.5773
vn 0.5773 -0.5773 -0.5773
usemtl ColobotMesh_mat_1
s 1
f 70/66/66 100/67/67 89/68/68
f 86/69/69 90/70/70 87/71/71
f 94/72/72 105/73/73 96/74/74
f 97/75/75 103/76/76 98/77/77
f 72/78/78 100/79/67 71/80/79
f 87/71/71 88/81/80 83/82/81
f 99/83/82 100/79/67 95/84/83
f 101/85/84 66/86/85 73/87/86
f 82/88/87 93/89/88 84/90/89
f 68/91/90 88/81/80 67/92/91
f 82/88/87 70/93/66 89/94/68
f 98/95/77 102/96/92 99/83/82
f 85/97/93 93/89/88 92/98/94
f 85/97/93 91/99/95 86/100/69
f 96/74/74 104/101/96 97/75/75
f 94/102/72 68/103/90 66/104/85
f 86/100/69 87/105/71 97/75/75
f 92/106/94 93/107/88 103/108/76
f 67/109/91 101/110/84 73/111/86
f 95/112/83 69/113/97 82/114/87
f 70/66/66 71/115/79 100/67/67
f 86/69/69 91/116/95 90/70/70
f 94/72/72 101/85/84 105/73/73
f 97/75/75 104/101/96 103/76/76
f 72/78/78 95/84/83 100/79/67
f 87/71/71 90/70/70 88/81/80
f 99/83/82 102/96/92 100/79/67
f 101/85/84 94/72/72 66/86/85
f 82/88/87 89/94/68 93/89/88
f 68/91/90 83/82/81 88/81/80
f 82/88/87 69/117/97 70/93/66
f 98/95/77 103/108/76 102/96/92
f 85/97/93 84/90/89 93/89/88
f 85/97/93 92/98/94 91/99/95
f 96/74/74 105/73/73 104/101/96
f 94/102/72 83/118/81 68/103/90
f 99/119/82 95/112/83 82/88/87
f 82/88/87 84/90/89 99/119/82
f 85/97/93 86/100/69 98/77/77
f 87/105/71 83/118/81 97/75/75
f 83/118/81 94/72/72 96/74/74
f 84/90/89 85/97/93 98/77/77
f 98/77/77 99/119/82 84/90/89
f 83/118/81 96/74/74 97/75/75
f 97/75/75 98/77/77 86/100/69
f 105/120/73 101/110/84 88/81/80
f 88/81/80 90/70/70 104/121/96
f 91/116/95 92/106/94 103/108/76
f 93/107/88 89/68/68 102/96/92
f 89/68/68 100/79/67 102/96/92
f 90/70/70 91/116/95 104/121/96
f 104/121/96 105/120/73 88/81/80
f 93/107/88 102/96/92 103/108/76
f 103/108/76 104/121/96 91/116/95
f 67/109/91 88/122/80 101/110/84
f 95/112/83 72/123/78 69/113/97
usemtl ColobotMesh_mat_2
f 76/124/98 74/125/99 75/126/100
f 75/127/100 80/128/101 76/129/98
f 80/130/101 78/131/102 79/132/103
f 74/133/99 81/134/104 75/135/100
f 76/136/98 79/137/103 77/138/105
f 77/139/105 78/140/102 74/141/99
f 76/124/98 77/142/105 74/125/99
f 75/127/100 81/143/104 80/128/101
f 80/130/101 81/144/104 78/131/102
f 74/133/99 78/145/102 81/134/104
f 76/136/98 80/146/101 79/137/103
f 77/139/105 79/147/103 78/140/102
