# Blender v2.71 (sub 0) OBJ File: 'labo3.blend'
# www.blender.org
mtllib labo3.mtl
o ColobotMesh_1_ColobotMesh_
v -0.000000 -1.973360 -1.000000
v -0.000000 0.026644 -1.000000
v 0.098017 -1.973360 -0.995185
v 0.098017 0.026644 -0.995185
v 0.195090 -1.973360 -0.980785
v 0.195090 0.026644 -0.980785
v 0.290285 -1.973360 -0.956940
v 0.290285 0.026644 -0.956941
v 0.382683 -1.973360 -0.923880
v 0.382683 0.026644 -0.923880
v 0.471397 -1.973360 -0.881921
v 0.471397 0.026644 -0.881921
v 0.555570 -1.973360 -0.831470
v 0.555570 0.026644 -0.831470
v 0.634393 -1.973360 -0.773011
v 0.634393 0.026644 -0.773011
v 0.707107 -1.973360 -0.707107
v 0.707107 0.026644 -0.707107
v 0.773010 -1.973360 -0.634393
v 0.773010 0.026644 -0.634394
v 0.831470 -1.973360 -0.555570
v 0.831470 0.026644 -0.555570
v 0.881921 -1.973360 -0.471397
v 0.881921 0.026644 -0.471397
v 0.923879 -1.973360 -0.382684
v 0.923879 0.026644 -0.382684
v 0.956940 -1.973360 -0.290285
v 0.956940 0.026644 -0.290285
v 0.980785 -1.973360 -0.195090
v 0.980785 0.026644 -0.195090
v 0.995185 -1.973360 -0.098017
v 0.995185 0.026644 -0.098017
v 1.000000 -1.973360 0.000000
v 1.000000 0.026644 0.000000
v 0.995185 -1.973360 0.098017
v 0.995185 0.026644 0.098017
v 0.980785 -1.973360 0.195090
v 0.980785 0.026644 0.195090
v 0.956940 -1.973360 0.290285
v 0.956940 0.026644 0.290285
v 0.923879 -1.973360 0.382684
v 0.923879 0.026644 0.382684
v 0.881921 -1.973360 0.471397
v 0.881921 0.026644 0.471397
v 0.831469 -1.973360 0.555570
v 0.831469 0.026644 0.555570
v 0.773010 -1.973360 0.634394
v 0.773010 0.026644 0.634393
v 0.707106 -1.973360 0.707107
v 0.707106 0.026644 0.707107
v 0.634393 -1.973360 0.773011
v 0.634393 0.026644 0.773011
v 0.555570 -1.973360 0.831470
v 0.555570 0.026644 0.831470
v 0.471396 -1.973360 0.881921
v 0.471396 0.026644 0.881921
v 0.382683 -1.973360 0.923880
v 0.382683 0.026644 0.923880
v 0.290284 -1.973360 0.956940
v 0.290284 0.026644 0.956940
v 0.195090 -1.973360 0.980785
v 0.195090 0.026644 0.980785
v 0.098016 -1.973360 0.995185
v 0.098016 0.026644 0.995185
v -0.000001 -1.973360 1.000000
v -0.000001 0.026644 1.000000
v -0.098018 -1.973360 0.995185
v -0.098018 0.026644 0.995184
v -0.195091 -1.973360 0.980785
v -0.195091 0.026644 0.980785
v -0.290286 -1.973360 0.956940
v -0.290286 0.026644 0.956940
v -0.382684 -1.973360 0.923879
v -0.382684 0.026644 0.923879
v -0.471398 -1.973360 0.881921
v -0.471398 0.026644 0.881921
v -0.555571 -1.973360 0.831469
v -0.555571 0.026644 0.831469
v -0.634394 -1.973360 0.773010
v -0.634394 0.026644 0.773010
v -0.707108 -1.973360 0.707106
v -0.707108 0.026644 0.707106
v -0.773011 -1.973360 0.634392
v -0.773011 0.026644 0.634392
v -0.831470 -1.973360 0.555570
v -0.831470 0.026644 0.555569
v -0.881922 -1.973360 0.471396
v -0.881922 0.026644 0.471396
v -0.923880 -1.973360 0.382683
v -0.923880 0.026644 0.382683
v -0.956940 -1.973360 0.290284
v -0.956940 0.026644 0.290284
v -0.980785 -1.973360 0.195090
v -0.980785 0.026644 0.195090
v -0.995185 -1.973360 0.098017
v -0.995185 0.026644 0.098017
v -1.000000 -1.973360 0.000000
v -1.000000 0.026644 0.000000
v -0.995185 -1.973360 -0.098017
v -0.995185 0.026644 -0.098017
v -0.980785 -1.973360 -0.195090
v -0.980785 0.026644 -0.195090
v -0.956941 -1.973360 -0.290284
v -0.956941 0.026644 -0.290284
v -0.923880 -1.973360 -0.382682
v -0.923880 0.026644 -0.382682
v -0.881922 -1.973360 -0.471396
v -0.881922 0.026644 -0.471396
v -0.831471 -1.973360 -0.555569
v -0.831471 0.026644 -0.555569
v -0.773012 -1.973360 -0.634392
v -0.773012 0.026644 -0.634392
v -0.707108 -1.973360 -0.707105
v -0.707108 0.026644 -0.707106
v -0.634395 -1.973360 -0.773009
v -0.634395 0.026644 -0.773009
v -0.555572 -1.973360 -0.831468
v -0.555572 0.026644 -0.831468
v -0.471399 -1.973360 -0.881920
v -0.471399 0.026644 -0.881920
v -0.382686 -1.973360 -0.923879
v -0.382686 0.026644 -0.923879
v -0.290288 -1.973360 -0.956940
v -0.290288 0.026644 -0.956940
v -0.195094 -1.973360 -0.980785
v -0.195094 0.026644 -0.980785
v -0.098021 -1.973360 -0.995184
v -0.098021 0.026644 -0.995185
v -0.000001 -1.973360 0.000000
vt 0.664289 0.993975
vt 0.663800 0.994023
vt 0.663555 0.989024
vt 0.660573 0.985004
vt 0.660981 0.984731
vt 0.658556 0.989270
vt 0.658556 0.988778
vt 0.659262 0.991597
vt 0.659030 0.991164
vt 0.661415 0.984500
vt 0.661868 0.984312
vt 0.668505 0.989758
vt 0.668410 0.990240
vt 0.668079 0.991164
vt 0.667848 0.991597
vt 0.668554 0.988778
vt 0.668554 0.989270
vt 0.666128 0.984731
vt 0.666536 0.985004
vt 0.659846 0.992385
vt 0.659534 0.992006
vt 0.658700 0.990240
vt 0.658604 0.989758
vt 0.667263 0.985663
vt 0.667575 0.986042
vt 0.663800 0.984025
vt 0.664289 0.984073
vt 0.667575 0.992005
vt 0.667263 0.992385
vt 0.662820 0.984073
vt 0.663309 0.984025
vt 0.661868 0.993737
vt 0.661415 0.993549
vt 0.665241 0.984312
vt 0.665694 0.984500
vt 0.659030 0.986884
vt 0.659262 0.986451
vt 0.667848 0.986451
vt 0.668079 0.986884
vt 0.660981 0.993317
vt 0.660573 0.993044
vt 0.663309 0.994023
vt 0.662820 0.993975
vt 0.665695 0.993549
vt 0.665241 0.993737
vt 0.659535 0.986043
vt 0.659846 0.985663
vt 0.666536 0.993044
vt 0.666128 0.993317
vt 0.668410 0.987808
vt 0.668505 0.988290
vt 0.658700 0.987808
vt 0.658842 0.987338
vt 0.660193 0.985316
vt 0.668267 0.990710
vt 0.662338 0.984169
vt 0.666916 0.992732
vt 0.664771 0.984169
vt 0.664771 0.993879
vt 0.662338 0.993879
vt 0.660193 0.992733
vt 0.666916 0.985316
vt 0.658842 0.990710
vt 0.668267 0.987338
vt 0.658604 0.988290
vt 0.064453 0.873047
vt 0.064453 0.376953
vt 0.067871 0.376953
vt 0.067871 0.873047
vt 0.071289 0.376953
vt 0.071289 0.873047
vt 0.074707 0.376953
vt 0.074707 0.873047
vt 0.078125 0.376953
vt 0.078125 0.873047
vt 0.081543 0.376953
vt 0.081543 0.873047
vt 0.084961 0.376953
vt 0.084961 0.873047
vt 0.088379 0.376953
vt 0.088379 0.873047
vt 0.091796 0.376953
vt 0.091797 0.873047
vn 0.398800 -0.696200 0.596800
vn 0.338400 -0.696200 0.633000
vn 0.000000 -1.000000 0.000000
vn -0.633000 -0.696200 -0.338400
vn -0.596800 -0.696200 -0.398800
vn -0.633000 -0.696200 0.338400
vn -0.663200 -0.696200 0.274700
vn -0.398800 -0.696200 0.596800
vn -0.455400 -0.696200 0.554900
vn -0.554900 -0.696200 -0.455400
vn -0.507600 -0.696200 -0.507600
vn 0.686900 -0.696200 -0.208300
vn 0.704000 -0.696200 -0.140000
vn 0.717800 -0.696200 0.000000
vn 0.714300 -0.696200 0.070300
vn 0.633000 -0.696200 -0.338400
vn 0.663200 -0.696200 -0.274700
vn 0.070300 -0.696200 -0.714300
vn 0.140000 -0.696200 -0.704000
vn -0.274700 -0.696200 0.663200
vn -0.338400 -0.696200 0.633000
vn -0.554900 -0.696200 0.455400
vn -0.596800 -0.696200 0.398800
vn 0.274700 -0.696200 -0.663200
vn 0.338400 -0.696200 -0.633000
vn -0.274700 -0.696200 -0.663200
vn -0.208300 -0.696200 -0.686900
vn 0.704000 -0.696200 0.140000
vn 0.686900 -0.696200 0.208300
vn -0.398800 -0.696200 -0.596800
vn -0.338400 -0.696200 -0.633000
vn 0.070300 -0.696200 0.714300
vn 0.000000 -0.696200 0.717800
vn -0.070300 -0.696200 -0.714300
vn 0.000000 -0.696200 -0.717800
vn -0.717800 -0.696200 0.000000
vn -0.714300 -0.696200 -0.070300
vn 0.398800 -0.696200 -0.596800
vn 0.455400 -0.696200 -0.554900
vn -0.070300 -0.696200 0.714300
vn -0.140000 -0.696200 0.704000
vn 0.274700 -0.696200 0.663200
vn 0.208300 -0.696200 0.686900
vn 0.554900 -0.696200 0.455400
vn 0.507600 -0.696200 0.507600
vn -0.704000 -0.696200 -0.140000
vn -0.686900 -0.696200 -0.208300
vn 0.633000 -0.696200 0.338400
vn 0.596800 -0.696200 0.398800
vn 0.554900 -0.696200 -0.455400
vn 0.596800 -0.696200 -0.398800
vn -0.704000 -0.696200 0.140000
vn -0.714300 -0.696200 0.070300
vn -0.663200 -0.696200 -0.274700
vn 0.714300 -0.696200 -0.070300
vn -0.455400 -0.696200 -0.554900
vn 0.663200 -0.696200 0.274700
vn -0.140000 -0.696200 -0.704000
vn 0.455400 -0.696200 0.554900
vn 0.140000 -0.696200 0.704000
vn -0.208300 -0.696200 0.686900
vn 0.208300 -0.696200 -0.686900
vn -0.507600 -0.696200 0.507600
vn 0.507600 -0.696200 -0.507600
vn -0.686900 -0.696200 0.208300
vn -0.000000 -0.000000 -1.000000
vn 0.098000 -0.000000 -0.995200
vn 0.195100 -0.000000 -0.980800
vn 0.290300 -0.000000 -0.956900
vn 0.382700 -0.000000 -0.923900
vn 0.471400 -0.000000 -0.881900
vn 0.555600 -0.000000 -0.831500
vn 0.634400 -0.000000 -0.773000
vn 0.707100 -0.000000 -0.707100
vn 0.773000 -0.000000 -0.634400
vn 0.831500 -0.000000 -0.555600
vn 0.881900 -0.000000 -0.471400
vn 0.923900 -0.000000 -0.382700
vn 0.956900 0.000000 -0.290300
vn 0.980800 0.000000 -0.195100
vn 0.995200 0.000000 -0.098000
vn 1.000000 0.000000 0.000000
vn 0.995200 0.000000 0.098000
vn 0.980800 0.000000 0.195100
vn 0.956900 0.000000 0.290300
vn 0.923900 -0.000000 0.382700
vn 0.881900 -0.000000 0.471400
vn 0.831500 0.000000 0.555600
vn 0.773000 0.000000 0.634400
vn 0.707100 0.000000 0.707100
vn 0.634400 0.000000 0.773000
vn 0.555600 0.000000 0.831500
vn 0.471400 0.000000 0.881900
vn 0.382700 0.000000 0.923900
vn 0.290300 0.000000 0.956900
vn 0.195100 0.000000 0.980800
vn 0.098000 0.000000 0.995200
vn -0.000000 0.000000 1.000000
vn -0.098000 0.000000 0.995200
vn -0.195100 0.000000 0.980800
vn -0.290300 0.000000 0.956900
vn -0.382700 0.000000 0.923900
vn -0.471400 0.000000 0.881900
vn -0.555600 0.000000 0.831500
vn -0.634400 0.000000 0.773000
vn -0.707100 0.000000 0.707100
vn -0.773000 0.000000 0.634400
vn -0.831500 0.000000 0.555600
vn -0.881900 -0.000000 0.471400
vn -0.923900 0.000000 0.382700
vn -0.956900 0.000000 0.290300
vn -0.980800 0.000000 0.195100
vn -0.995200 0.000000 0.098000
vn -1.000000 0.000000 0.000000
vn -0.995200 0.000000 -0.098000
vn -0.980800 0.000000 -0.195100
vn -0.956900 0.000000 -0.290300
vn -0.923900 0.000000 -0.382700
vn -0.881900 0.000000 -0.471400
vn -0.831500 -0.000000 -0.555600
vn -0.773000 -0.000000 -0.634400
vn -0.707100 -0.000000 -0.707100
vn -0.634400 -0.000000 -0.773000
vn -0.555600 -0.000000 -0.831500
vn -0.471400 -0.000000 -0.881900
vn -0.382700 -0.000000 -0.923900
vn -0.290300 -0.000000 -0.956900
vn -0.195100 -0.000000 -0.980800
vn -0.098000 -0.000000 -0.995200
usemtl ColobotMesh_mat_1
s 1
f 53/1/1 55/2/2 129/3/3
f 107/4/4 109/5/5 129/3/3
f 87/6/6 89/7/7 129/3/3
f 77/8/8 79/9/9 129/3/3
f 111/10/10 113/11/11 129/3/3
f 27/12/12 29/13/13 129/3/3
f 33/14/14 35/15/15 129/3/3
f 23/16/16 25/17/17 129/3/3
f 3/18/18 5/19/19 129/3/3
f 73/20/20 75/21/21 129/3/3
f 83/22/22 85/23/23 129/3/3
f 9/24/24 11/25/25 129/3/3
f 121/26/26 123/27/27 129/3/3
f 37/28/28 39/29/29 129/3/3
f 117/30/30 119/31/31 129/3/3
f 63/32/32 65/33/33 129/3/3
f 127/34/34 1/35/35 129/3/3
f 97/36/36 99/37/37 129/3/3
f 13/38/38 15/39/39 129/3/3
f 67/40/40 69/41/41 129/3/3
f 57/42/42 59/43/43 129/3/3
f 47/44/44 49/45/45 129/3/3
f 101/46/46 103/47/47 129/3/3
f 43/48/48 45/49/49 129/3/3
f 19/50/50 21/51/51 129/3/3
f 93/52/52 95/53/53 129/3/3
f 103/47/47 105/54/54 129/3/3
f 29/13/13 31/55/55 129/3/3
f 113/11/11 115/56/56 129/3/3
f 39/29/29 41/57/57 129/3/3
f 123/27/27 125/58/58 129/3/3
f 49/45/45 51/59/59 129/3/3
f 59/43/43 61/60/60 129/3/3
f 69/41/41 71/61/61 129/3/3
f 5/19/19 7/62/62 129/3/3
f 79/9/9 81/63/63 129/3/3
f 15/39/39 17/64/64 129/3/3
f 89/7/7 91/65/65 129/3/3
f 99/37/37 101/46/46 129/3/3
f 1/35/35 3/18/18 129/3/3
f 25/17/17 27/12/12 129/3/3
f 109/5/5 111/10/10 129/3/3
f 35/15/15 37/28/28 129/3/3
f 119/31/31 121/26/26 129/3/3
f 45/49/49 47/44/44 129/3/3
f 55/2/2 57/42/42 129/3/3
f 65/33/33 67/40/40 129/3/3
f 75/21/21 77/8/8 129/3/3
f 85/23/23 87/6/6 129/3/3
f 11/25/25 13/38/38 129/3/3
f 21/51/51 23/16/16 129/3/3
f 95/53/53 97/36/36 129/3/3
f 105/54/54 107/4/4 129/3/3
f 31/55/55 33/14/14 129/3/3
f 115/56/56 117/30/30 129/3/3
f 41/57/57 43/48/48 129/3/3
f 125/58/58 127/34/34 129/3/3
f 51/59/59 53/1/1 129/3/3
f 61/60/60 63/32/32 129/3/3
f 71/61/61 73/20/20 129/3/3
f 81/63/63 83/22/22 129/3/3
f 7/62/62 9/24/24 129/3/3
f 17/64/64 19/50/50 129/3/3
f 91/65/65 93/52/52 129/3/3
usemtl ColobotMesh_mat_1_derrick.png
f 1/66/35 2/67/66 4/68/67
f 3/69/18 4/68/67 6/70/68
f 5/71/19 6/70/68 8/72/69
f 7/73/62 8/72/69 10/74/70
f 9/75/24 10/74/70 12/76/71
f 11/77/25 12/76/71 14/78/72
f 13/79/38 14/78/72 16/80/73
f 15/81/39 16/80/73 18/82/74
f 17/66/64 18/67/74 20/68/75
f 19/69/50 20/68/75 22/70/76
f 21/71/51 22/70/76 24/72/77
f 23/73/16 24/72/77 26/74/78
f 25/75/17 26/74/78 28/76/79
f 27/77/12 28/76/79 30/78/80
f 29/79/13 30/78/80 32/80/81
f 31/81/55 32/80/81 34/82/82
f 33/66/14 34/67/82 36/68/83
f 35/69/15 36/68/83 38/70/84
f 37/71/28 38/70/84 40/72/85
f 39/73/29 40/72/85 42/74/86
f 41/75/57 42/74/86 44/76/87
f 43/77/48 44/76/87 46/78/88
f 45/79/49 46/78/88 48/80/89
f 47/81/44 48/80/89 50/82/90
f 49/66/45 50/67/90 52/68/91
f 51/69/59 52/68/91 54/70/92
f 53/71/1 54/70/92 56/72/93
f 55/73/2 56/72/93 58/74/94
f 57/75/42 58/74/94 60/76/95
f 59/77/43 60/76/95 62/78/96
f 61/79/60 62/78/96 64/80/97
f 63/81/32 64/80/97 66/82/98
f 65/66/33 66/67/98 68/68/99
f 67/69/40 68/68/99 70/70/100
f 69/71/41 70/70/100 72/72/101
f 71/73/61 72/72/101 74/74/102
f 73/75/20 74/74/102 76/76/103
f 75/77/21 76/76/103 78/78/104
f 77/79/8 78/78/104 80/80/105
f 79/81/9 80/80/105 82/82/106
f 81/66/63 82/67/106 84/68/107
f 83/69/22 84/68/107 86/70/108
f 85/71/23 86/70/108 88/72/109
f 87/73/6 88/72/109 90/74/110
f 89/75/7 90/74/110 92/76/111
f 91/77/65 92/76/111 94/78/112
f 93/79/52 94/78/112 96/80/113
f 95/81/53 96/80/113 98/82/114
f 97/66/36 98/67/114 100/68/115
f 99/69/37 100/68/115 102/70/116
f 101/71/46 102/70/116 104/72/117
f 103/73/47 104/72/117 106/74/118
f 105/75/54 106/74/118 108/76/119
f 107/77/4 108/76/119 110/78/120
f 109/79/5 110/78/120 112/80/121
f 111/81/10 112/80/121 114/82/122
f 113/66/11 114/67/122 116/68/123
f 115/69/56 116/68/123 118/70/124
f 117/71/30 118/70/124 120/72/125
f 119/73/31 120/72/125 122/74/126
f 121/75/26 122/74/126 124/76/127
f 123/77/27 124/76/127 126/78/128
f 125/79/58 126/78/128 128/80/129
f 127/81/34 128/80/129 2/82/66
f 3/69/18 1/66/35 4/68/67
f 5/71/19 3/69/18 6/70/68
f 7/73/62 5/71/19 8/72/69
f 9/75/24 7/73/62 10/74/70
f 11/77/25 9/75/24 12/76/71
f 13/79/38 11/77/25 14/78/72
f 15/81/39 13/79/38 16/80/73
f 17/83/64 15/81/39 18/82/74
f 19/69/50 17/66/64 20/68/75
f 21/71/51 19/69/50 22/70/76
f 23/73/16 21/71/51 24/72/77
f 25/75/17 23/73/16 26/74/78
f 27/77/12 25/75/17 28/76/79
f 29/79/13 27/77/12 30/78/80
f 31/81/55 29/79/13 32/80/81
f 33/83/14 31/81/55 34/82/82
f 35/69/15 33/66/14 36/68/83
f 37/71/28 35/69/15 38/70/84
f 39/73/29 37/71/28 40/72/85
f 41/75/57 39/73/29 42/74/86
f 43/77/48 41/75/57 44/76/87
f 45/79/49 43/77/48 46/78/88
f 47/81/44 45/79/49 48/80/89
f 49/83/45 47/81/44 50/82/90
f 51/69/59 49/66/45 52/68/91
f 53/71/1 51/69/59 54/70/92
f 55/73/2 53/71/1 56/72/93
f 57/75/42 55/73/2 58/74/94
f 59/77/43 57/75/42 60/76/95
f 61/79/60 59/77/43 62/78/96
f 63/81/32 61/79/60 64/80/97
f 65/83/33 63/81/32 66/82/98
f 67/69/40 65/66/33 68/68/99
f 69/71/41 67/69/40 70/70/100
f 71/73/61 69/71/41 72/72/101
f 73/75/20 71/73/61 74/74/102
f 75/77/21 73/75/20 76/76/103
f 77/79/8 75/77/21 78/78/104
f 79/81/9 77/79/8 80/80/105
f 81/83/63 79/81/9 82/82/106
f 83/69/22 81/66/63 84/68/107
f 85/71/23 83/69/22 86/70/108
f 87/73/6 85/71/23 88/72/109
f 89/75/7 87/73/6 90/74/110
f 91/77/65 89/75/7 92/76/111
f 93/79/52 91/77/65 94/78/112
f 95/81/53 93/79/52 96/80/113
f 97/83/36 95/81/53 98/82/114
f 99/69/37 97/66/36 100/68/115
f 101/71/46 99/69/37 102/70/116
f 103/73/47 101/71/46 104/72/117
f 105/75/54 103/73/47 106/74/118
f 107/77/4 105/75/54 108/76/119
f 109/79/5 107/77/4 110/78/120
f 111/81/10 109/79/5 112/80/121
f 113/83/11 111/81/10 114/82/122
f 115/69/56 113/66/11 116/68/123
f 117/71/30 115/69/56 118/70/124
f 119/73/31 117/71/30 120/72/125
f 121/75/26 119/73/31 122/74/126
f 123/77/27 121/75/26 124/76/127
f 125/79/58 123/77/27 126/78/128
f 127/81/34 125/79/58 128/80/129
f 1/83/35 127/81/34 2/82/66
