# Blender v2.70 (sub 5) OBJ File: 'lem1f.blend'
# www.blender.org
mtllib lem1f.mtl
o Nozzle_new_Cylinder
v -0.023659 1.009140 -1.488550
v -0.023660 2.009140 -0.988552
v 0.123366 1.009140 -1.481327
v 0.074357 2.009140 -0.983737
v 0.268976 1.009140 -1.459728
v 0.171431 2.009140 -0.969338
v 0.411767 1.009140 -1.423961
v 0.266625 2.009140 -0.945493
v 0.550365 1.009140 -1.374370
v 0.359024 2.009140 -0.912432
v 0.683435 1.009140 -1.311432
v 0.447737 2.009140 -0.870474
v 0.809695 1.009140 -1.235755
v 0.531910 2.009140 -0.820022
v 0.927930 1.009140 -1.148066
v 0.610733 2.009140 -0.761563
v 1.037000 1.009140 -1.049211
v 0.683447 2.009140 -0.695660
v 1.135856 1.009140 -0.940141
v 0.749350 2.009140 -0.622946
v 1.223544 1.009140 -0.821906
v 0.807810 2.009140 -0.544123
v 1.299222 1.009140 -0.695646
v 0.858261 2.009140 -0.459950
v 1.362159 1.009140 -0.562576
v 0.900219 2.009140 -0.371237
v 1.411750 1.009140 -0.423978
v 0.933280 2.009140 -0.278838
v 1.447518 1.009140 -0.281187
v 0.957125 2.009140 -0.183644
v 1.469117 1.009140 -0.135577
v 0.971525 2.009140 -0.086570
v 1.476340 1.009140 0.011449
v 0.976340 2.009140 0.011447
v 1.469117 1.009140 0.158474
v 0.971525 2.009140 0.109464
v 1.447518 1.009140 0.304084
v 0.957125 2.009140 0.206537
v 1.411750 1.009140 0.446876
v 0.933280 2.009140 0.301731
v 1.362159 1.009140 0.585474
v 0.900220 2.009140 0.394130
v 1.299222 1.009140 0.718544
v 0.858261 2.009140 0.482843
v 1.223544 1.009140 0.844804
v 0.807810 2.009140 0.567017
v 1.135856 1.009140 0.963038
v 0.749350 2.009140 0.645840
v 1.037000 1.009140 1.072109
v 0.683447 2.009140 0.718553
v 0.927930 1.009140 1.170964
v 0.610733 2.009140 0.784457
v 0.809695 1.009140 1.258653
v 0.531910 2.009140 0.842916
v 0.683435 1.009140 1.334330
v 0.447737 2.009140 0.893368
v 0.550365 1.009140 1.397268
v 0.359023 2.009140 0.935326
v 0.411767 1.009140 1.446859
v 0.266625 2.009140 0.968387
v 0.268975 1.009140 1.482626
v 0.171430 2.009140 0.992232
v 0.123366 1.009140 1.504225
v 0.074357 2.009140 1.006631
v -0.023660 1.009140 1.511448
v -0.023660 2.009140 1.011446
v -0.170686 1.009140 1.504225
v -0.121677 2.009140 1.006631
v -0.316295 1.009140 1.482626
v -0.218750 2.009140 0.992231
v -0.459087 1.009140 1.446858
v -0.313944 2.009140 0.968386
v -0.597685 1.009140 1.397267
v -0.406343 2.009140 0.935325
v -0.730755 1.009140 1.334329
v -0.495056 2.009140 0.893367
v -0.857015 1.009140 1.258652
v -0.579230 2.009140 0.842915
v -0.975249 1.009140 1.170963
v -0.658053 2.009140 0.784456
v -1.084319 1.009140 1.072108
v -0.730766 2.009140 0.718553
v -1.183174 1.009140 0.963037
v -0.796670 2.009140 0.645839
v -1.270863 1.009140 0.844803
v -0.855129 2.009140 0.567016
v -1.346540 1.009140 0.718543
v -0.905580 2.009140 0.482843
v -1.409477 1.009140 0.585474
v -0.947538 2.009140 0.394130
v -1.459068 1.009140 0.446876
v -0.980599 2.009140 0.301731
v -1.494836 1.009140 0.304085
v -1.004444 2.009140 0.206537
v -1.516435 1.009140 0.158475
v -1.018843 2.009140 0.109464
v -1.523658 1.009140 0.011450
v -1.023659 2.009140 0.011448
v -1.516435 1.009140 -0.135575
v -1.018844 2.009140 -0.086569
v -1.494836 1.009140 -0.281185
v -1.004444 2.009140 -0.183642
v -1.459069 1.009140 -0.423976
v -0.980599 2.009140 -0.278836
v -1.409478 1.009140 -0.562574
v -0.947539 2.009140 -0.371235
v -1.346541 1.009140 -0.695643
v -0.905581 2.009140 -0.459948
v -1.270864 1.009140 -0.821903
v -0.855129 2.009140 -0.544121
v -1.183176 1.009140 -0.940138
v -0.796671 2.009140 -0.622944
v -1.084321 1.009140 -1.049208
v -0.730767 2.009140 -0.695658
v -0.975251 1.009140 -1.148063
v -0.658054 2.009140 -0.761561
v -0.857017 1.009140 -1.235752
v -0.579231 2.009140 -0.820021
v -0.730758 1.009140 -1.311430
v -0.495058 2.009140 -0.870472
v -0.597688 1.009140 -1.374367
v -0.406345 2.009140 -0.912431
v -0.459091 1.009140 -1.423959
v -0.313947 2.009140 -0.945492
v -0.316300 1.009140 -1.459727
v -0.218753 2.009140 -0.969337
v -0.170690 1.009140 -1.481326
v -0.121680 2.009140 -0.983737
v -0.023660 1.009140 0.011449
vt 0.890625 0.752462
vt 0.890625 0.810038
vt 0.889752 0.810038
vt 0.889316 0.752462
vt 0.888888 0.810038
vt 0.888020 0.752462
vt 0.888041 0.810038
vt 0.886749 0.752462
vt 0.887218 0.810038
vt 0.885515 0.752462
vt 0.886428 0.810038
vt 0.884330 0.752462
vt 0.885679 0.810038
vt 0.883206 0.752462
vt 0.884977 0.810038
vt 0.882153 0.752462
vt 0.884330 0.810038
vt 0.881182 0.752462
vt 0.883743 0.810038
vt 0.880302 0.752462
vt 0.883223 0.810038
vt 0.879522 0.752462
vt 0.882774 0.810038
vt 0.878848 0.752462
vt 0.882400 0.810038
vt 0.878288 0.752462
vt 0.882106 0.810038
vt 0.877846 0.752462
vt 0.881894 0.810038
vt 0.877528 0.752462
vt 0.881765 0.810038
vt 0.877336 0.752462
vt 0.881722 0.810038
vt 0.903979 0.752462
vt 0.899528 0.810038
vt 0.899485 0.810038
vt 0.903914 0.752462
vt 0.899356 0.810038
vt 0.903722 0.752462
vt 0.899144 0.810038
vt 0.903404 0.752462
vt 0.898850 0.810038
vt 0.902962 0.752462
vt 0.898476 0.810038
vt 0.902402 0.752462
vt 0.898027 0.810038
vt 0.901728 0.752462
vt 0.897507 0.810038
vt 0.900948 0.752462
vt 0.896920 0.810038
vt 0.900068 0.752462
vt 0.896273 0.810038
vt 0.899097 0.752462
vt 0.895571 0.810038
vt 0.898044 0.752462
vt 0.894822 0.810038
vt 0.896920 0.752462
vt 0.894032 0.810038
vt 0.895735 0.752462
vt 0.893209 0.810038
vt 0.894501 0.752462
vt 0.892362 0.810038
vt 0.893230 0.752462
vt 0.891498 0.810038
vt 0.891934 0.752462
vt 0.864060 0.841147
vt 0.861222 0.845873
vt 0.814545 0.814627
vt 0.762632 0.836078
vt 0.760780 0.830886
vt 0.778948 0.771177
vt 0.783378 0.767897
vt 0.857934 0.850297
vt 0.854229 0.854379
vt 0.788108 0.765067
vt 0.793093 0.762714
vt 0.825550 0.759545
vt 0.830896 0.760889
vt 0.836084 0.762751
vt 0.841065 0.765112
vt 0.783299 0.861304
vt 0.778874 0.858016
vt 0.870439 0.820180
vt 0.869626 0.825632
vt 0.774793 0.854311
vt 0.771095 0.850223
vt 0.765030 0.788106
vt 0.767868 0.783381
vt 0.868282 0.830977
vt 0.866421 0.836166
vt 0.771155 0.778956
vt 0.774860 0.774875
vt 0.803540 0.869708
vt 0.798194 0.868364
vt 0.793005 0.866502
vt 0.788024 0.864142
vt 0.868310 0.798367
vt 0.869645 0.803715
vt 0.814593 0.758457
vt 0.820098 0.758732
vt 0.870449 0.809168
vt 0.870715 0.814674
vt 0.758650 0.809074
vt 0.759464 0.803622
vt 0.760807 0.798276
vt 0.762669 0.793087
vt 0.825456 0.869727
vt 0.820003 0.870531
vt 0.814497 0.870797
vt 0.808992 0.870521
vt 0.857995 0.779030
vt 0.861275 0.783460
vt 0.864105 0.788190
vt 0.866457 0.793175
vt 0.759445 0.825538
vt 0.758641 0.820085
vt 0.758375 0.814579
vt 0.845711 0.861357
vt 0.840981 0.864187
vt 0.803633 0.759527
vt 0.809087 0.758722
vt 0.835996 0.866539
vt 0.830804 0.868392
vt 0.845791 0.767949
vt 0.850216 0.771237
vt 0.854297 0.774942
vt 0.767815 0.845793
vt 0.764985 0.841063
vt 0.850142 0.858077
vt 0.798285 0.760861
vt 0.877271 0.752462
vn 0.043898 0.446781 -0.893566
vn 0.131270 0.446781 -0.884961
vn 0.217380 0.446781 -0.867832
vn 0.301397 0.446781 -0.842346
vn 0.382509 0.446781 -0.808748
vn 0.459938 0.446781 -0.767362
vn 0.532938 0.446781 -0.718585
vn 0.600807 0.446781 -0.662886
vn 0.662886 0.446781 -0.600807
vn 0.718584 0.446781 -0.532938
vn 0.767361 0.446782 -0.459938
vn 0.808747 0.446782 -0.382509
vn 0.842345 0.446782 -0.301397
vn 0.867831 0.446782 -0.217381
vn 0.884960 0.446782 -0.131271
vn 0.893565 0.446783 -0.043898
vn 0.893565 0.446783 0.043898
vn 0.884959 0.446783 0.131271
vn 0.867831 0.446783 0.217380
vn 0.842345 0.446783 0.301396
vn 0.808747 0.446783 0.382509
vn 0.767360 0.446783 0.459939
vn 0.718583 0.446784 0.532938
vn 0.662886 0.446783 0.600806
vn 0.600806 0.446784 0.662885
vn 0.532937 0.446783 0.718584
vn 0.459938 0.446784 0.767360
vn 0.382509 0.446784 0.808747
vn 0.301396 0.446784 0.842345
vn 0.217381 0.446784 0.867830
vn 0.131269 0.446784 0.884959
vn 0.043899 0.446784 0.893564
vn -0.043898 0.446784 0.893564
vn -0.131272 0.446784 0.884959
vn -0.217380 0.446784 0.867831
vn -0.301397 0.446783 0.842345
vn -0.382508 0.446784 0.808747
vn -0.459939 0.446784 0.767359
vn -0.532938 0.446784 0.718583
vn -0.600806 0.446783 0.662885
vn -0.662886 0.446783 0.600805
vn -0.718584 0.446783 0.532938
vn -0.767360 0.446783 0.459939
vn -0.808747 0.446783 0.382509
vn -0.842346 0.446782 0.301396
vn -0.867831 0.446783 0.217381
vn -0.884959 0.446782 0.131273
vn -0.893565 0.446782 0.043897
vn -0.893565 0.446782 -0.043897
vn -0.884960 0.446782 -0.131271
vn -0.867832 0.446782 -0.217379
vn -0.842346 0.446782 -0.301395
vn -0.808749 0.446781 -0.382508
vn -0.767362 0.446781 -0.459937
vn -0.718585 0.446781 -0.532937
vn -0.662888 0.446781 -0.600804
vn -0.600807 0.446781 -0.662886
vn -0.532940 0.446781 -0.718583
vn -0.459941 0.446781 -0.767359
vn -0.382511 0.446781 -0.808747
vn -0.301399 0.446781 -0.842345
vn -0.217383 0.446781 -0.867832
vn -0.131274 0.446781 -0.884960
vn -0.043899 0.446781 -0.893566
vn 0.000000 -1.000000 -0.000000
vn 0.000000 -1.000000 -0.000001
vn 0.000000 -1.000000 0.000001
vn 0.131272 0.446781 -0.884960
vn 0.217379 0.446781 -0.867833
vn 0.301396 0.446781 -0.842346
vn 0.382510 0.446781 -0.808748
vn 0.532939 0.446781 -0.718584
vn 0.600806 0.446781 -0.662887
vn 0.808748 0.446782 -0.382509
vn 0.842345 0.446782 -0.301396
vn 0.867831 0.446782 -0.217380
vn 0.893565 0.446782 -0.043898
vn 0.884959 0.446783 0.131272
vn 0.767361 0.446783 0.459937
vn 0.662885 0.446784 0.600806
vn 0.600806 0.446783 0.662886
vn 0.532938 0.446784 0.718583
vn 0.382508 0.446784 0.808747
vn 0.217381 0.446784 0.867831
vn 0.131270 0.446784 0.884959
vn 0.043897 0.446784 0.893564
vn -0.043899 0.446784 0.893564
vn -0.131271 0.446784 0.884959
vn -0.217381 0.446784 0.867831
vn -0.301395 0.446784 0.842345
vn -0.382510 0.446783 0.808746
vn -0.459938 0.446784 0.767360
vn -0.532940 0.446783 0.718582
vn -0.600805 0.446783 0.662886
vn -0.662888 0.446783 0.600804
vn -0.718583 0.446783 0.532938
vn -0.767360 0.446783 0.459938
vn -0.842346 0.446782 0.301395
vn -0.867831 0.446782 0.217381
vn -0.884960 0.446782 0.131272
vn -0.893565 0.446782 0.043898
vn -0.893565 0.446782 -0.043896
vn -0.808748 0.446781 -0.382508
vn -0.718586 0.446781 -0.532937
vn -0.662889 0.446781 -0.600804
vn -0.532941 0.446781 -0.718583
vn -0.459941 0.446781 -0.767360
vn -0.043900 0.446781 -0.893566
usemtl None
s off
f 1/1/1 2/2/1 4/3/1
f 3/4/2 4/3/2 6/5/2
f 5/6/3 6/5/3 8/7/3
f 7/8/4 8/7/4 10/9/4
f 9/10/5 10/9/5 12/11/5
f 11/12/6 12/11/6 14/13/6
f 13/14/7 14/13/7 16/15/7
f 15/16/8 16/15/8 18/17/8
f 17/18/9 18/17/9 20/19/9
f 19/20/10 20/19/10 22/21/10
f 21/22/11 22/21/11 24/23/11
f 23/24/12 24/23/12 26/25/12
f 25/26/13 26/25/13 28/27/13
f 27/28/14 28/27/14 30/29/14
f 29/30/15 30/29/15 32/31/15
f 31/32/16 32/31/16 34/33/16
f 33/34/17 34/35/17 36/36/17
f 35/37/18 36/36/18 38/38/18
f 37/39/19 38/38/19 40/40/19
f 39/41/20 40/40/20 42/42/20
f 41/43/21 42/42/21 44/44/21
f 43/45/22 44/44/22 46/46/22
f 45/47/23 46/46/23 48/48/23
f 47/49/24 48/48/24 50/50/24
f 49/51/25 50/50/25 52/52/25
f 51/53/26 52/52/26 54/54/26
f 53/55/27 54/54/27 56/56/27
f 55/57/28 56/56/28 58/58/28
f 57/59/29 58/58/29 60/60/29
f 59/61/30 60/60/30 62/62/30
f 61/63/31 62/62/31 64/64/31
f 63/65/32 64/64/32 66/2/32
f 65/1/33 66/2/33 68/3/33
f 67/4/34 68/3/34 70/5/34
f 69/6/35 70/5/35 72/7/35
f 71/8/36 72/7/36 74/9/36
f 73/10/37 74/9/37 76/11/37
f 75/12/38 76/11/38 78/13/38
f 77/14/39 78/13/39 80/15/39
f 79/16/40 80/15/40 82/17/40
f 81/18/41 82/17/41 84/19/41
f 83/20/42 84/19/42 86/21/42
f 85/22/43 86/21/43 88/23/43
f 87/24/44 88/23/44 90/25/44
f 89/26/45 90/25/45 92/27/45
f 91/28/46 92/27/46 94/29/46
f 93/30/47 94/29/47 96/31/47
f 95/32/48 96/31/48 98/33/48
f 97/34/49 98/35/49 100/36/49
f 99/37/50 100/36/50 102/38/50
f 101/39/51 102/38/51 104/40/51
f 103/41/52 104/40/52 106/42/52
f 105/43/53 106/42/53 108/44/53
f 107/45/54 108/44/54 110/46/54
f 109/47/55 110/46/55 112/48/55
f 111/49/56 112/48/56 114/50/56
f 113/51/57 114/50/57 116/52/57
f 115/53/58 116/52/58 118/54/58
f 117/55/59 118/54/59 120/56/59
f 119/57/60 120/56/60 122/58/60
f 121/59/61 122/58/61 124/60/61
f 123/61/62 124/60/62 126/62/62
f 125/63/63 126/62/63 128/64/63
f 127/65/64 128/64/64 2/2/64
f 43/66/65 45/67/65 129/68/65
f 89/69/66 91/70/66 129/68/66
f 115/71/65 117/72/65 129/68/65
f 47/73/65 49/74/65 129/68/65
f 119/75/65 121/76/65 129/68/65
f 5/77/65 7/78/65 129/68/65
f 9/79/65 11/80/65 129/68/65
f 77/81/65 79/82/65 129/68/65
f 35/83/65 37/84/65 129/68/65
f 81/85/65 83/86/65 129/68/65
f 107/87/65 109/88/65 129/68/65
f 39/89/66 41/90/66 129/68/66
f 111/91/65 113/92/65 129/68/65
f 69/93/65 71/94/65 129/68/65
f 73/95/65 75/96/65 129/68/65
f 27/97/65 29/98/65 129/68/65
f 1/99/65 3/100/65 129/68/65
f 31/101/65 33/102/65 129/68/65
f 99/103/65 101/104/65 129/68/65
f 103/105/67 105/106/67 129/68/67
f 61/107/65 63/108/65 129/68/65
f 65/109/65 67/110/65 129/68/65
f 19/111/67 21/112/67 129/68/67
f 23/113/66 25/114/66 129/68/66
f 91/70/65 93/115/65 129/68/65
f 95/116/65 97/117/65 129/68/65
f 53/118/65 55/119/65 129/68/65
f 125/120/65 127/121/65 129/68/65
f 57/122/65 59/123/65 129/68/65
f 11/80/65 13/124/65 129/68/65
f 15/125/65 17/126/65 129/68/65
f 83/86/66 85/127/66 129/68/66
f 87/128/67 89/69/67 129/68/67
f 45/67/66 47/73/66 129/68/66
f 117/72/65 119/75/65 129/68/65
f 49/74/65 51/129/65 129/68/65
f 3/100/65 5/77/65 129/68/65
f 121/76/65 123/130/65 129/68/65
f 7/78/65 9/79/65 129/68/65
f 75/96/65 77/81/65 129/68/65
f 79/82/65 81/85/65 129/68/65
f 37/84/65 39/89/65 129/68/65
f 109/88/67 111/91/67 129/68/67
f 41/90/65 43/66/65 129/68/65
f 113/92/65 115/71/65 129/68/65
f 67/110/65 69/93/65 129/68/65
f 71/94/65 73/95/65 129/68/65
f 29/98/65 31/101/65 129/68/65
f 33/102/65 35/83/65 129/68/65
f 101/104/65 103/105/65 129/68/65
f 105/106/66 107/87/66 129/68/66
f 59/123/65 61/107/65 129/68/65
f 63/108/65 65/109/65 129/68/65
f 21/112/65 23/113/65 129/68/65
f 25/114/65 27/97/65 129/68/65
f 93/115/65 95/116/65 129/68/65
f 51/129/65 53/118/65 129/68/65
f 97/117/65 99/103/65 129/68/65
f 123/130/65 125/120/65 129/68/65
f 55/119/65 57/122/65 129/68/65
f 127/121/65 1/99/65 129/68/65
f 13/124/65 15/125/65 129/68/65
f 17/126/65 19/111/65 129/68/65
f 85/127/65 87/128/65 129/68/65
f 3/4/1 1/1/1 4/3/1
f 5/6/68 3/4/68 6/5/68
f 7/8/69 5/6/69 8/7/69
f 9/10/70 7/8/70 10/9/70
f 11/12/71 9/10/71 12/11/71
f 13/14/6 11/12/6 14/13/6
f 15/16/72 13/14/72 16/15/72
f 17/18/73 15/16/73 18/17/73
f 19/20/9 17/18/9 20/19/9
f 21/22/10 19/20/10 22/21/10
f 23/24/11 21/22/11 24/23/11
f 25/26/74 23/24/74 26/25/74
f 27/28/75 25/26/75 28/27/75
f 29/30/76 27/28/76 30/29/76
f 31/32/15 29/30/15 32/31/15
f 33/131/77 31/32/77 34/33/77
f 35/37/17 33/34/17 36/36/17
f 37/39/78 35/37/78 38/38/78
f 39/41/19 37/39/19 40/40/19
f 41/43/20 39/41/20 42/42/20
f 43/45/21 41/43/21 44/44/21
f 45/47/79 43/45/79 46/46/79
f 47/49/23 45/47/23 48/48/23
f 49/51/80 47/49/80 50/50/80
f 51/53/81 49/51/81 52/52/81
f 53/55/82 51/53/82 54/54/82
f 55/57/27 53/55/27 56/56/27
f 57/59/83 55/57/83 58/58/83
f 59/61/29 57/59/29 60/60/29
f 61/63/84 59/61/84 62/62/84
f 63/65/85 61/63/85 64/64/85
f 65/1/86 63/65/86 66/2/86
f 67/4/87 65/1/87 68/3/87
f 69/6/88 67/4/88 70/5/88
f 71/8/89 69/6/89 72/7/89
f 73/10/90 71/8/90 74/9/90
f 75/12/91 73/10/91 76/11/91
f 77/14/92 75/12/92 78/13/92
f 79/16/93 77/14/93 80/15/93
f 81/18/94 79/16/94 82/17/94
f 83/20/95 81/18/95 84/19/95
f 85/22/96 83/20/96 86/21/96
f 87/24/97 85/22/97 88/23/97
f 89/26/44 87/24/44 90/25/44
f 91/28/98 89/26/98 92/27/98
f 93/30/99 91/28/99 94/29/99
f 95/32/100 93/30/100 96/31/100
f 97/131/101 95/32/101 98/33/101
f 99/37/102 97/34/102 100/36/102
f 101/39/50 99/37/50 102/38/50
f 103/41/51 101/39/51 104/40/51
f 105/43/52 103/41/52 106/42/52
f 107/45/103 105/43/103 108/44/103
f 109/47/54 107/45/54 110/46/54
f 111/49/104 109/47/104 112/48/104
f 113/51/105 111/49/105 114/50/105
f 115/53/57 113/51/57 116/52/57
f 117/55/106 115/53/106 118/54/106
f 119/57/107 117/55/107 120/56/107
f 121/59/60 119/57/60 122/58/60
f 123/61/61 121/59/61 124/60/61
f 125/63/62 123/61/62 126/62/62
f 127/65/63 125/63/63 128/64/63
f 1/1/108 127/65/108 2/2/108
o Wing_Left_ColobotMesh_.002
v 1.000000 3.200000 -2.000000
v 1.000000 3.000000 -2.000000
v -1.000000 3.000000 -4.000000
v -1.000000 3.200000 -4.000000
v -4.000000 3.000000 -5.000000
v -4.000000 3.200000 -5.000000
v -3.000000 3.000000 -2.000000
v -3.000000 3.200000 -2.000000
vt 0.583984 0.994141
vt 0.583984 0.986328
vt 0.576172 0.986328
vt 0.576172 0.994141
vt 0.435547 0.498047
vt 0.188672 0.498047
vt 0.312109 0.375651
vt 0.126953 0.314453
vn 0.707107 0.000000 -0.707107
vn 0.707106 0.000000 -0.707107
vn -0.948683 0.000001 0.316228
vn 0.316228 -0.000000 -0.948683
vn 0.000000 -1.000000 -0.000000
vn 0.000000 1.000000 0.000000
usemtl ColobotMesh_mat_1
s off
f 130/132/109 131/133/109 132/134/109
f 133/135/110 130/132/110 132/134/110
f 135/135/111 134/134/111 136/133/111
f 137/132/111 135/135/111 136/133/111
f 133/132/112 132/133/112 134/134/112
f 135/135/112 133/132/112 134/134/112
f 131/136/113 136/137/113 132/138/113
f 134/139/113 132/138/113 136/137/113
f 137/137/114 130/136/114 133/138/114
f 133/138/114 135/139/114 137/137/114
o Case_ColobotMesh_.001
v -0.612061 6.000000 -1.996570
v 0.641072 6.000000 2.003430
v 4.009490 2.931070 -1.996570
v 4.009490 2.931070 2.003430
v 3.463910 2.010350 2.003430
v 3.463910 2.010360 -1.996570
v 1.588700 4.183950 2.003430
v 1.944120 4.000000 1.000000
v 1.588700 4.183950 1.000000
v 0.641072 6.000000 1.000000
v -3.000000 2.000000 -1.996570
v -3.000000 2.000000 2.003430
v -4.131330 2.794370 2.003430
v -4.131330 2.794370 -1.996570
v -0.612061 6.000000 1.000000
v -1.000000 5.000000 1.000000
v -1.000000 5.000000 2.003430
v -2.794230 4.996300 2.003430
v -0.612061 6.000000 2.003430
v 1.588700 4.183950 -1.996570
v 0.641072 6.000000 -1.996570
v -1.000000 5.000000 -1.996570
v -4.006460 3.000000 1.502790
v -2.000000 3.000000 -1.497210
v -2.000000 4.997940 1.502790
v -2.000000 4.997940 -1.497210
v -2.000000 3.000000 1.502790
v -2.794230 4.996300 -1.497210
v -2.794230 4.996300 1.502790
v 0.641072 6.000000 -1.000000
v 1.588700 4.183950 -1.000000
v -0.612061 6.000000 -1.000000
v -1.000000 5.000000 -1.000000
v -1.000000 4.000000 1.000000
v -1.000000 4.000000 -1.000000
v -4.006460 3.000000 -1.497210
v 1.944120 4.000000 -1.000000
v -2.794230 4.996300 -1.996570
vt 0.501953 0.826172
vt 0.748047 0.826172
vt 0.748047 0.775391
vt 0.501953 0.775391
vt 0.686313 0.973385
vt 0.686313 0.998047
vt 0.748047 0.998047
vt 0.501953 0.439453
vt 0.748047 0.439453
vt 0.748047 0.498047
vt 0.501953 0.498047
vt 0.748047 0.830078
vt 0.501953 0.830078
vt 0.603516 0.986328
vt 0.603516 0.994141
vt 0.611328 0.994141
vt 0.611328 0.986328
vt 0.717246 0.710537
vt 0.717246 0.662109
vt 0.748047 0.662109
vt 0.748047 0.771484
vt 0.717246 0.658203
vt 0.717246 0.516545
vt 0.748047 0.501953
vt 0.611328 0.994140
vt 0.498047 0.809236
vt 0.350526 0.886317
vt 0.464800 0.752590
vt 0.070895 0.751953
vt 0.292779 0.998047
vt 0.192773 0.936523
vt 0.001953 0.800825
vt 0.083434 0.936296
vt 0.216414 0.998047
vt 0.563266 0.973385
vt 0.501953 0.998047
vt 0.563266 0.998047
vt 0.501953 0.662109
vt 0.563266 0.771484
vt 0.501953 0.771484
vt 0.610385 0.994141
vt 0.608468 0.994141
vt 0.611328 0.987047
vt 0.604686 0.994141
vt 0.603516 0.990234
vt 0.748047 0.658203
vt 0.686313 0.771484
vt 0.532676 0.710537
vt 0.532676 0.662109
vt 0.501953 0.501953
vt 0.532676 0.658203
vt 0.501953 0.658203
vt 0.532676 0.516545
vt 0.873047 0.498047
vt 0.751953 0.314453
vt 0.751953 0.498047
vt 0.873047 0.314453
vt 0.751953 0.166016
vt 0.833984 0.248047
vt 0.751953 0.248047
vt 0.833984 0.166016
vt 0.801513 0.247980
vn 0.860305 -0.509780 -0.000000
vn 0.860302 -0.509784 -0.000001
vn 0.459644 0.888103 0.000000
vn -0.574646 -0.818402 -0.000000
vn 0.459639 0.888106 -0.000002
vn 0.459638 0.888106 -0.000000
vn 0.886560 0.462613 0.000000
vn 0.886560 0.462614 -0.000000
vn 0.000000 1.000000 0.000000
vn -0.932303 0.361677 0.000000
vn -0.932304 0.361677 0.000000
vn -0.002065 0.999998 0.000001
vn -0.002062 0.999998 0.000004
vn -0.854751 0.519038 -0.000006
vn 0.001601 -0.999999 -0.000002
vn 0.001603 -0.999999 -0.000000
vn -0.000000 -0.000000 1.000000
vn -0.000000 0.000000 -1.000000
vn 0.459639 0.888106 0.000002
vn -0.002062 0.999998 -0.000000
vn 0.000000 0.000001 -1.000000
vn -0.000001 0.000000 -1.000000
vn 1.000000 0.000000 0.000000
vn -0.854751 0.519039 0.000000
vn -0.002060 0.999998 0.000000
vn -0.854744 0.519049 -0.000000
vn -0.002042 0.999998 -0.000034
vn -0.854751 0.519038 0.000006
vn -0.854745 0.519048 0.000000
vn -1.000000 0.000000 0.000000
usemtl ColobotMesh_mat_1
s off
f 140/140/115 141/141/115 142/142/115
f 143/143/116 140/140/116 142/142/116
f 145/144/117 146/145/117 144/146/117
f 148/147/118 149/148/118 150/149/118
f 151/150/118 148/147/118 150/149/118
f 144/146/119 141/151/119 145/144/119
f 145/144/120 141/151/120 140/152/120
f 146/153/121 147/154/121 139/155/121
f 139/155/122 144/156/122 146/153/122
f 147/156/123 152/153/123 156/154/123
f 156/154/123 139/155/123 147/156/123
f 152/154/124 153/153/124 154/156/124
f 154/156/125 156/155/125 152/154/125
f 162/157/126 166/158/126 155/159/126
f 155/159/127 154/160/127 162/157/127
f 166/161/128 160/162/128 150/163/128
f 143/154/129 142/164/129 149/156/129
f 148/153/130 143/154/130 149/156/130
f 141/165/131 144/166/131 142/167/131
f 142/167/131 144/166/131 149/168/131
f 144/166/131 139/169/131 149/168/131
f 149/168/131 139/169/131 154/170/131
f 150/171/131 149/168/131 155/172/131
f 155/172/131 149/168/131 154/170/131
f 139/169/131 156/173/131 154/170/131
f 157/166/132 140/165/132 143/167/132
f 157/166/132 143/167/132 148/168/132
f 158/169/132 157/166/132 148/168/132
f 158/169/132 148/168/132 159/170/132
f 148/168/132 151/171/132 175/172/132
f 148/168/132 175/172/132 159/170/132
f 138/173/132 158/169/132 159/170/132
f 174/174/117 157/175/117 168/176/117
f 157/175/133 174/174/133 140/152/133
f 158/154/121 168/156/121 157/153/121
f 168/156/121 158/154/121 167/155/121
f 167/155/123 138/153/123 169/154/123
f 138/153/123 167/155/123 158/156/123
f 170/156/125 169/155/125 138/154/125
f 170/156/124 138/154/124 159/153/124
f 175/177/134 170/178/134 159/179/134
f 174/174/120 145/144/120 140/152/120
f 171/153/135 146/180/135 145/156/135
f 172/153/123 145/155/123 174/156/123
f 145/155/123 172/153/123 171/154/123
f 172/153/131 174/156/131 168/180/131
f 171/153/132 147/181/132 146/182/132
f 147/181/132 171/153/132 152/183/132
f 153/184/136 152/183/136 171/153/136
f 172/153/131 168/182/131 167/181/131
f 167/181/131 169/183/131 172/153/131
f 170/184/131 172/153/131 169/183/131
f 171/156/137 170/154/137 153/155/137
f 170/154/137 171/156/137 172/153/137
f 150/163/138 155/185/138 166/161/138
f 162/157/139 154/160/139 153/186/139
f 163/187/126 175/177/126 165/188/126
f 160/162/140 151/189/140 150/163/140
f 165/190/138 175/191/138 151/189/138
f 163/187/141 170/178/141 175/177/141
f 151/189/142 173/192/142 165/190/142
f 162/157/139 170/178/139 163/187/139
f 170/178/139 162/157/139 153/186/139
f 173/192/143 151/189/143 160/162/143
f 164/193/123 173/194/123 160/195/123
f 173/194/123 164/193/123 161/196/123
usemtl ColobotMesh_mat_2
f 161/197/144 162/198/144 163/199/144
f 162/198/144 161/197/144 164/200/144
f 164/200/132 166/201/132 162/198/132
f 166/201/132 164/200/132 160/197/132
f 163/198/131 165/201/131 161/200/131
f 173/197/131 161/200/131 165/201/131
o Wing_Right_ColobotMesh_
v 1.000000 3.000000 2.007690
v 1.000000 3.200000 2.007690
v -1.000000 3.000000 4.007690
v -1.000000 3.200000 4.007690
v -3.000000 3.000000 2.007690
v -4.000000 3.000000 5.007690
v -3.000000 3.200000 2.007690
v -4.000000 3.200000 5.007690
vt 0.576172 0.986328
vt 0.576172 0.994141
vt 0.583984 0.986328
vt 0.583984 0.994141
vt 0.188672 0.498047
vt 0.435547 0.498047
vt 0.312109 0.375651
vt 0.126953 0.314453
vn 0.707107 0.000000 0.707106
vn 0.707107 0.000000 0.707107
vn -0.948683 -0.000000 -0.316227
vn -0.948683 -0.000000 -0.316228
vn 0.316228 0.000000 0.948683
vn 0.000000 -1.000000 -0.000000
vn 0.000000 1.000000 0.000000
usemtl ColobotMesh_mat_1
s off
f 176/202/145 177/203/145 178/204/145
f 177/203/146 179/205/146 178/204/146
f 181/204/147 183/205/147 180/202/147
f 183/205/148 182/203/148 180/202/148
f 178/202/149 179/203/149 181/204/149
f 179/203/149 183/205/149 181/204/149
f 180/206/150 176/207/150 178/208/150
f 178/208/150 181/209/150 180/206/150
f 177/207/151 182/206/151 179/208/151
f 183/209/151 179/208/151 182/206/151
