# Blender v2.72 (sub 0) OBJ File: ''
# www.blender.org
mtllib lem2t.mtl
o ColobotMesh_1_ColobotMesh_
v -3.947810 -1.326650 0.804169
v 3.838930 -0.429297 -1.995830
v 3.000000 -2.000000 0.804169
v 3.910470 -1.429260 0.804169
v -1.962100 2.000530 -1.995830
v -1.694200 1.946710 0.804169
v -1.694200 1.946710 -1.995830
v -2.237630 1.967320 -1.995830
v -2.237630 1.967320 0.804169
v -2.879080 1.470200 0.804169
v -2.719200 1.689680 0.804169
v -3.947810 -1.326650 -1.995830
v -4.007480 -0.965584 -1.995830
v 3.460830 -0.106488 -1.995830
v 3.838930 -0.429297 0.804169
v 3.992270 -0.915307 0.804169
v 3.910470 -1.429260 -1.995830
v 3.583180 -1.835910 -1.995830
v 3.000000 -2.000000 -1.995830
v 3.992270 -0.915307 -1.995830
v 3.460830 -0.106488 0.804169
v -3.000000 -2.000000 0.804169
v -1.962100 2.000530 0.804169
v -2.497690 1.859540 0.804169
v -2.719200 1.689680 -1.995830
v -3.440110 -1.903900 -1.995830
v 3.583180 -1.835910 0.804169
v -3.932430 -0.636283 0.804169
v -4.007480 -0.965584 0.804169
v -3.757360 -1.659430 -1.995830
v -3.440110 -1.903900 0.804169
v -3.757360 -1.659430 0.804169
v -3.000000 -2.000000 -1.995830
v -2.497690 1.859540 -1.995830
v -2.879080 1.470200 -1.995830
v -3.932430 -0.636283 -1.995830
vt 0.751953 0.876953
vt 0.751953 0.998047
vt 0.779297 0.998047
vt 0.779297 0.876953
vt 0.998047 0.876953
vt 0.998047 0.998047
vt 0.873047 0.998047
vt 0.873047 0.876953
vt 0.037138 0.507865
vt 0.006608 0.585842
vt 0.071929 0.715423
vt 0.128795 0.748047
vt 0.064431 0.501953
vt 0.436513 0.501953
vt 0.005654 0.543375
vt 0.001953 0.565585
vt 0.472678 0.512047
vt 0.492975 0.537062
vt 0.498047 0.568678
vt 0.488538 0.598575
vt 0.465091 0.618433
vt 0.145408 0.744736
vt 0.111708 0.746004
vt 0.095581 0.739374
vt 0.081844 0.728925
vt 0.017464 0.522903
vn 0.953700 0.300900 0.000000
vn -0.610400 -0.792100 -0.000000
vn -0.986600 -0.163000 0.000000
vn -0.608500 0.793500 0.000000
vn 0.779000 -0.627000 -0.000000
vn 0.270900 -0.962600 0.000000
vn 0.987600 -0.157200 -0.000000
vn -0.213300 -0.977000 -0.000000
vn 0.649300 0.760500 0.000000
vn 0.000000 -1.000000 0.000000
vn 0.370000 0.929000 0.000000
vn -0.894400 0.447300 0.000000
vn 0.197000 0.980400 0.000000
vn -0.975000 0.222200 0.000000
vn -0.382900 0.923800 0.000000
vn -0.119700 0.992800 0.000000
vn -0.808300 0.588800 0.000000
vn -0.867900 -0.496700 -0.000000
vn -0.986600 -0.163100 0.000000
vn 0.000000 0.000000 -1.000000
vn 0.000000 -0.000000 1.000000
usemtl ColobotMesh_mat_1
s off
f 2/1/1 15/2/1 16/3/1
f 26/4/2 31/3/2 32/2/2
f 12/4/3 1/3/3 29/2/3
f 25/1/4 11/2/4 24/3/4
f 17/4/5 4/3/5 27/2/5
f 18/4/6 27/3/6 3/2/6
f 20/4/7 16/3/7 4/2/7
f 33/4/8 22/3/8 31/2/8
f 14/1/9 21/2/9 15/3/9
f 19/5/10 3/6/10 22/2/10
f 7/1/11 6/2/11 21/6/11
f 36/1/12 28/2/12 10/7/12
f 23/2/13 6/3/13 7/4/13
f 13/1/14 29/2/14 28/3/14
f 34/1/15 24/2/15 9/3/15
f 8/1/16 9/2/16 23/3/16
f 35/1/17 10/2/17 11/3/17
f 30/4/18 32/3/18 1/2/18
f 20/4/1 2/1/1 16/3/1
f 30/1/2 26/4/2 32/2/2
f 13/1/19 12/4/19 29/2/19
f 34/4/4 25/1/4 24/3/4
f 18/1/5 17/4/5 27/2/5
f 19/1/6 18/4/6 3/2/6
f 17/1/7 20/4/7 4/2/7
f 26/1/8 33/4/8 31/2/8
f 2/4/9 14/1/9 15/3/9
f 33/1/10 19/5/10 22/2/10
f 14/5/11 7/1/11 21/6/11
f 35/8/12 36/1/12 10/7/12
f 5/1/13 23/2/13 7/4/13
f 36/4/14 13/1/14 28/3/14
f 8/4/15 34/1/15 9/3/15
f 5/4/16 8/1/16 23/3/16
f 25/4/17 35/1/17 11/3/17
f 12/1/18 30/4/18 1/2/18
usemtl ColobotMesh_mat_2
f 26/9/20 36/10/20 35/11/20
f 23/12/21 22/13/21 3/14/21
f 36/10/20 12/15/20 13/16/20
f 31/9/21 22/13/21 10/11/21
f 27/17/21 4/18/21 3/14/21
f 4/18/21 16/19/21 3/14/21
f 16/19/21 15/20/21 3/14/21
f 15/20/21 21/21/21 3/14/21
f 21/21/21 6/22/21 3/14/21
f 33/13/20 7/22/20 14/21/20
f 23/12/21 9/23/21 22/13/21
f 9/23/21 24/24/21 22/13/21
f 24/24/21 11/25/21 22/13/21
f 11/25/21 10/11/21 22/13/21
f 31/9/21 28/10/21 32/26/21
f 32/26/21 28/10/21 1/15/21
f 1/15/21 28/10/21 29/16/21
f 17/18/20 18/17/20 19/14/20
f 20/19/20 17/18/20 19/14/20
f 2/20/20 20/19/20 19/14/20
f 14/21/20 2/20/20 19/14/20
f 5/12/20 7/22/20 33/13/20
f 8/23/20 5/12/20 33/13/20
f 34/24/20 8/23/20 33/13/20
f 25/25/20 34/24/20 33/13/20
f 35/11/20 25/25/20 33/13/20
f 36/10/20 26/9/20 30/26/20
f 36/10/20 30/26/20 12/15/20
f 33/13/20 26/9/20 35/11/20
f 6/22/21 23/12/21 3/14/21
f 28/10/21 31/9/21 10/11/21
f 19/14/20 33/13/20 14/21/20
