# Blender v2.77 (sub 0) OBJ File: 'lem2w.blend'
# www.blender.org
mtllib lem2w.mtl
o ColobotMesh_1_ColobotMesh_
v 0.006551 0.999977 0.000000
v -0.091495 0.995804 0.000000
v -0.188661 0.982041 0.000000
v -0.284009 0.958820 0.000000
v -0.376622 0.926366 0.000000
v -0.465609 0.884990 0.000000
v -0.550111 0.835090 0.000000
v -0.629315 0.777149 0.000000
v -0.702458 0.711723 0.000000
v -0.768837 0.639443 0.000000
v -0.827811 0.561005 0.000000
v -0.878813 0.477164 0.000000
v -0.921352 0.388727 0.000000
v -0.955017 0.296547 0.000000
v -0.979485 0.201511 0.000000
v -0.994520 0.104534 0.000000
v -0.999977 0.006551 -0.000000
v -0.995804 -0.091496 -0.000000
v -0.982041 -0.188661 -0.000000
v -0.958820 -0.284009 -0.000000
v -0.926366 -0.376623 -0.000000
v -0.884989 -0.465609 -0.000000
v -0.835090 -0.550111 -0.000000
v -0.777149 -0.629315 -0.000000
v -0.711723 -0.702459 -0.000000
v -0.639443 -0.768837 -0.000000
v -0.561004 -0.827812 -0.000000
v -0.477163 -0.878814 -0.000000
v -0.388727 -0.921352 -0.000000
v -0.296547 -0.955017 -0.000000
v -0.201510 -0.979485 -0.000000
v -0.104534 -0.994520 -0.000000
v -0.006550 -0.999977 -0.000000
v 0.091496 -0.995804 -0.000000
v 0.188662 -0.982041 -0.000000
v 0.284010 -0.958820 -0.000000
v 0.376623 -0.926365 -0.000000
v 0.465609 -0.884989 -0.000000
v 0.550111 -0.835090 -0.000000
v 0.629316 -0.777148 -0.000000
v 0.702459 -0.711722 -0.000000
v 0.768838 -0.639442 -0.000000
v 0.827812 -0.561004 -0.000000
v 0.878813 -0.477163 -0.000000
v 0.921352 -0.388727 -0.000000
v 0.955017 -0.296547 -0.000000
v 0.979485 -0.201511 -0.000000
v 0.995804 0.091495 0.000000
v 0.982041 0.188660 0.000000
v 0.958821 0.284008 0.000000
v 0.926366 0.376621 0.000000
v 0.884990 0.465607 0.000000
v 0.835091 0.550109 0.000000
v 0.777150 0.629313 0.000000
v 0.711725 0.702457 0.000000
v 0.639445 0.768836 0.000000
v 0.561007 0.827810 0.000000
v 0.477166 0.878812 0.000000
v 0.388730 0.921350 0.000000
v 0.296550 0.955016 0.000000
v 0.201514 0.979484 0.000000
v 0.104538 0.994520 0.000000
v 0.006551 0.999977 -1.000000
v -0.091495 0.995804 -1.000000
v -0.188661 0.982041 -1.000000
v -0.284009 0.958820 -1.000000
v -0.376622 0.926366 -1.000000
v -0.465609 0.884990 -1.000000
v -0.550111 0.835090 -1.000000
v -0.629315 0.777149 -1.000000
v -0.702458 0.711723 -1.000000
v -0.768837 0.639443 -1.000000
v -0.827811 0.561005 -1.000000
v -0.878813 0.477164 -1.000000
v -0.921352 0.388727 -1.000000
v -0.955017 0.296547 -1.000000
v -0.979485 0.201511 -1.000000
v -0.994520 0.104534 -1.000000
v -0.999977 0.006551 -1.000000
v -0.995804 -0.091495 -1.000000
v -0.982041 -0.188661 -1.000000
v -0.958820 -0.284009 -1.000000
v -0.926366 -0.376623 -1.000000
v -0.884989 -0.465609 -1.000000
v -0.835090 -0.550111 -1.000000
v -0.777149 -0.629315 -1.000000
v -0.711723 -0.702459 -1.000000
v -0.639443 -0.768837 -1.000000
v -0.561004 -0.827812 -1.000000
v -0.477163 -0.878813 -1.000000
v -0.388727 -0.921352 -1.000000
v -0.296547 -0.955017 -1.000000
v -0.201510 -0.979485 -1.000000
v -0.104534 -0.994520 -1.000000
v -0.006550 -0.999977 -1.000000
v 0.091496 -0.995804 -1.000000
v 0.188662 -0.982041 -1.000000
v 0.284010 -0.958820 -1.000000
v 0.376623 -0.926365 -1.000000
v 0.465609 -0.884989 -1.000000
v 0.550111 -0.835090 -1.000000
v 0.629316 -0.777148 -1.000000
v 0.702459 -0.711722 -1.000000
v 0.768838 -0.639442 -1.000000
v 0.827812 -0.561004 -1.000000
v 0.878813 -0.477163 -1.000000
v 0.921352 -0.388727 -1.000000
v 0.955017 -0.296547 -1.000000
v 0.979485 -0.201511 -1.000000
v 0.994520 -0.104535 -1.000000
v 0.999977 -0.006551 -1.000000
v 0.995804 0.091495 -1.000000
v 0.982041 0.188660 -1.000000
v 0.958821 0.284008 -1.000000
v 0.926366 0.376621 -1.000000
v 0.884990 0.465607 -1.000000
v 0.835091 0.550109 -1.000000
v 0.777150 0.629314 -1.000000
v 0.711725 0.702457 -1.000000
v 0.639445 0.768836 -1.000000
v 0.561007 0.827810 -1.000000
v 0.477166 0.878812 -1.000000
v 0.388730 0.921351 -1.000000
v 0.296550 0.955016 -1.000000
v 0.201514 0.979484 -1.000000
v 0.104538 0.994520 -1.000000
v 0.994520 -0.104535 -0.000000
v 0.999977 -0.006552 -0.000000
v -0.091495 0.995804 0.000000
v 0.006551 0.999977 0.000000
v -0.188661 0.982041 0.000000
v -0.284009 0.958820 0.000000
v -0.376622 0.926366 0.000000
v -0.465609 0.884990 0.000000
v -0.550111 0.835090 0.000000
v -0.629315 0.777149 0.000000
v -0.702458 0.711723 0.000000
v -0.768837 0.639443 0.000000
v -0.827811 0.561005 0.000000
v -0.878813 0.477164 0.000000
v -0.921352 0.388727 0.000000
v -0.955017 0.296547 0.000000
v -0.979485 0.201511 0.000000
v -0.994520 0.104534 0.000000
v -0.999977 0.006551 -0.000000
v -0.995804 -0.091496 -0.000000
v -0.982041 -0.188661 -0.000000
v -0.958820 -0.284009 -0.000000
v -0.926366 -0.376623 -0.000000
v -0.884989 -0.465609 -0.000000
v -0.835090 -0.550111 -0.000000
v -0.777149 -0.629315 -0.000000
v -0.711723 -0.702459 -0.000000
v -0.639443 -0.768837 -0.000000
v -0.561004 -0.827812 -0.000000
v -0.477163 -0.878814 -0.000000
v -0.388727 -0.921352 -0.000000
v -0.296547 -0.955017 -0.000000
v -0.201510 -0.979485 -0.000000
v -0.104534 -0.994520 -0.000000
v -0.006550 -0.999977 -0.000000
v 0.091496 -0.995804 -0.000000
v 0.188662 -0.982041 -0.000000
v 0.284010 -0.958820 -0.000000
v 0.376623 -0.926365 -0.000000
v 0.465609 -0.884989 -0.000000
v 0.550111 -0.835090 -0.000000
v 0.629316 -0.777148 -0.000000
v 0.702459 -0.711722 -0.000000
v 0.768838 -0.639442 -0.000000
v 0.827812 -0.561004 -0.000000
v 0.878813 -0.477163 -0.000000
v 0.921352 -0.388727 -0.000000
v 0.955017 -0.296547 -0.000000
v 0.979485 -0.201511 -0.000000
v 0.982041 0.188660 0.000000
v 0.995804 0.091495 0.000000
v 0.958821 0.284008 0.000000
v 0.926366 0.376621 0.000000
v 0.884990 0.465607 0.000000
v 0.835091 0.550109 0.000000
v 0.777150 0.629313 0.000000
v 0.711725 0.702457 0.000000
v 0.639445 0.768836 0.000000
v 0.561007 0.827810 0.000000
v 0.477166 0.878812 0.000000
v 0.388730 0.921350 0.000000
v 0.296550 0.955016 0.000000
v 0.201514 0.979484 0.000000
v 0.104538 0.994520 0.000000
v -0.091495 0.995804 -1.000000
v 0.006551 0.999977 -1.000000
v -0.188661 0.982041 -1.000000
v -0.284009 0.958820 -1.000000
v -0.376622 0.926366 -1.000000
v -0.465609 0.884990 -1.000000
v -0.550111 0.835090 -1.000000
v -0.629315 0.777149 -1.000000
v -0.702458 0.711723 -1.000000
v -0.768837 0.639443 -1.000000
v -0.827811 0.561005 -1.000000
v -0.878813 0.477164 -1.000000
v -0.921352 0.388727 -1.000000
v -0.955017 0.296547 -1.000000
v -0.979485 0.201511 -1.000000
v -0.994520 0.104534 -1.000000
v -0.999977 0.006551 -1.000000
v -0.995804 -0.091495 -1.000000
v -0.982041 -0.188661 -1.000000
v -0.958820 -0.284009 -1.000000
v -0.926366 -0.376623 -1.000000
v -0.884989 -0.465609 -1.000000
v -0.835090 -0.550111 -1.000000
v -0.777149 -0.629315 -1.000000
v -0.711723 -0.702459 -1.000000
v -0.639443 -0.768837 -1.000000
v -0.561004 -0.827812 -1.000000
v -0.477163 -0.878813 -1.000000
v -0.388727 -0.921352 -1.000000
v -0.296547 -0.955017 -1.000000
v -0.201510 -0.979485 -1.000000
v -0.104534 -0.994520 -1.000000
v -0.006550 -0.999977 -1.000000
v 0.091496 -0.995804 -1.000000
v 0.188662 -0.982041 -1.000000
v 0.284010 -0.958820 -1.000000
v 0.376623 -0.926365 -1.000000
v 0.465609 -0.884989 -1.000000
v 0.550111 -0.835090 -1.000000
v 0.629316 -0.777148 -1.000000
v 0.702459 -0.711722 -1.000000
v 0.768838 -0.639442 -1.000000
v 0.827812 -0.561004 -1.000000
v 0.878813 -0.477163 -1.000000
v 0.921352 -0.388727 -1.000000
v 0.955017 -0.296547 -1.000000
v 0.979485 -0.201511 -1.000000
v 0.994520 -0.104535 -1.000000
v 0.999977 -0.006551 -1.000000
v 0.995804 0.091495 -1.000000
v 0.982041 0.188660 -1.000000
v 0.958821 0.284008 -1.000000
v 0.926366 0.376621 -1.000000
v 0.884990 0.465607 -1.000000
v 0.835091 0.550109 -1.000000
v 0.777150 0.629314 -1.000000
v 0.711725 0.702457 -1.000000
v 0.639445 0.768836 -1.000000
v 0.561007 0.827810 -1.000000
v 0.477166 0.878812 -1.000000
v 0.388730 0.921351 -1.000000
v 0.296550 0.955016 -1.000000
v 0.201514 0.979484 -1.000000
v 0.104538 0.994520 -1.000000
v 0.999977 -0.006552 -0.000000
v 0.994520 -0.104535 -0.000000
vt 0.9941 0.8105
vt 0.9082 0.7832
vt 0.9941 0.7832
vt 0.9941 0.8105
vt 0.9082 0.7832
vt 0.9941 0.7832
vt 0.9941 0.8105
vt 0.9082 0.7832
vt 0.9941 0.7832
vt 0.9941 0.8105
vt 0.9082 0.7832
vt 0.9941 0.7832
vt 0.9941 0.8105
vt 0.9082 0.7832
vt 0.9941 0.7832
vt 0.9941 0.8105
vt 0.9082 0.7832
vt 0.9941 0.7832
vt 0.9941 0.8105
vt 0.9082 0.7832
vt 0.9941 0.7832
vt 0.9941 0.8105
vt 0.9082 0.7832
vt 0.9941 0.7832
vt 0.9941 0.8105
vt 0.9082 0.7832
vt 0.9941 0.7832
vt 0.9941 0.8105
vt 0.9082 0.7832
vt 0.9941 0.7832
vt 0.9941 0.8105
vt 0.9082 0.7832
vt 0.9941 0.7832
vt 0.9941 0.8105
vt 0.9082 0.7832
vt 0.9941 0.7832
vt 0.9941 0.8105
vt 0.9082 0.7832
vt 0.9941 0.7832
vt 0.9941 0.8105
vt 0.9082 0.7832
vt 0.9941 0.7832
vt 0.9941 0.8105
vt 0.9082 0.7832
vt 0.9941 0.7832
vt 0.9941 0.8105
vt 0.9082 0.7832
vt 0.9941 0.7832
vt 0.9941 0.8105
vt 0.9082 0.7832
vt 0.9941 0.7832
vt 0.9941 0.8105
vt 0.9082 0.7832
vt 0.9941 0.7832
vt 0.9941 0.8105
vt 0.9082 0.7832
vt 0.9941 0.7832
vt 0.9941 0.8105
vt 0.9082 0.7832
vt 0.9941 0.7832
vt 0.9941 0.8105
vt 0.9082 0.7832
vt 0.9941 0.7832
vt 0.9941 0.8105
vt 0.9082 0.7832
vt 0.9941 0.7832
vt 0.9941 0.8105
vt 0.9082 0.7832
vt 0.9941 0.7832
vt 0.9941 0.8105
vt 0.9082 0.7832
vt 0.9941 0.7832
vt 0.9941 0.8105
vt 0.9082 0.7832
vt 0.9941 0.7832
vt 0.9941 0.8105
vt 0.9082 0.7832
vt 0.9941 0.7832
vt 0.9941 0.8105
vt 0.9082 0.7832
vt 0.9941 0.7832
vt 0.9941 0.8105
vt 0.9082 0.7832
vt 0.9941 0.7832
vt 0.9941 0.8105
vt 0.9082 0.7832
vt 0.9941 0.7832
vt 0.9941 0.8105
vt 0.9082 0.7832
vt 0.9941 0.7832
vt 0.9941 0.8105
vt 0.9082 0.7832
vt 0.9941 0.7832
vt 0.9941 0.8105
vt 0.9082 0.7832
vt 0.9941 0.7832
vt 0.9941 0.8105
vt 0.9082 0.7832
vt 0.9941 0.7832
vt 0.9941 0.8105
vt 0.9082 0.7832
vt 0.9941 0.7832
vt 0.9941 0.8105
vt 0.9082 0.7832
vt 0.9941 0.7832
vt 0.9941 0.8105
vt 0.9082 0.7832
vt 0.9941 0.7832
vt 0.9941 0.7832
vt 0.9082 0.8105
vt 0.9082 0.7832
vt 0.9941 0.8105
vt 0.9082 0.7832
vt 0.9941 0.7832
vt 0.9941 0.8105
vt 0.9082 0.7832
vt 0.9941 0.7832
vt 0.9941 0.8105
vt 0.9082 0.7832
vt 0.9941 0.7832
vt 0.9941 0.8105
vt 0.9082 0.7832
vt 0.9941 0.7832
vt 0.9941 0.8105
vt 0.9082 0.7832
vt 0.9941 0.7832
vt 0.9941 0.8105
vt 0.9082 0.7832
vt 0.9941 0.7832
vt 0.9941 0.8105
vt 0.9082 0.7832
vt 0.9941 0.7832
vt 0.9941 0.8105
vt 0.9082 0.7832
vt 0.9941 0.7832
vt 0.9941 0.8105
vt 0.9082 0.7832
vt 0.9941 0.7832
vt 0.9941 0.8105
vt 0.9082 0.7832
vt 0.9941 0.7832
vt 0.9941 0.8105
vt 0.9082 0.7832
vt 0.9941 0.7832
vt 0.9941 0.8105
vt 0.9082 0.7832
vt 0.9941 0.7832
vt 0.9941 0.8105
vt 0.9082 0.7832
vt 0.9941 0.7832
vt 0.9941 0.8105
vt 0.9082 0.7832
vt 0.9941 0.7832
vt 0.9941 0.8105
vt 0.9082 0.7832
vt 0.9941 0.7832
vt 0.9941 0.8105
vt 0.9082 0.7832
vt 0.9941 0.7832
vt 0.9941 0.8105
vt 0.9082 0.7832
vt 0.9941 0.7832
vt 0.9941 0.8105
vt 0.9082 0.7832
vt 0.9941 0.7832
vt 0.9941 0.8105
vt 0.9082 0.7832
vt 0.9941 0.7832
vt 0.9941 0.8105
vt 0.9082 0.7832
vt 0.9941 0.7832
vt 0.9941 0.8105
vt 0.9082 0.7832
vt 0.9941 0.7832
vt 0.9941 0.8105
vt 0.9082 0.7832
vt 0.9941 0.7832
vt 0.9941 0.8105
vt 0.9082 0.7832
vt 0.9941 0.7832
vt 0.9941 0.7832
vt 0.9082 0.8105
vt 0.9082 0.7832
vt 0.5614 0.3734
vt 0.6064 0.2702
vt 0.5636 0.2516
vt 0.9941 0.8105
vt 0.9082 0.7832
vt 0.9941 0.7832
vt 0.9941 0.8105
vt 0.9082 0.7832
vt 0.9941 0.7832
vt 0.9941 0.8105
vt 0.9082 0.7832
vt 0.9941 0.7832
vt 0.5495 0.3721
vt 0.5554 0.3730
vt 0.5614 0.3734
vt 0.5382 0.3684
vt 0.5438 0.3705
vt 0.5277 0.3626
vt 0.5328 0.3657
vt 0.5186 0.3548
vt 0.5230 0.3589
vt 0.5112 0.3454
vt 0.5147 0.3503
vt 0.5058 0.3348
vt 0.5082 0.3403
vt 0.5025 0.3233
vt 0.5039 0.3291
vt 0.5016 0.3114
vt 0.5017 0.3174
vt 0.5029 0.2995
vt 0.5020 0.3054
vt 0.5066 0.2882
vt 0.5045 0.2938
vt 0.5124 0.2777
vt 0.5093 0.2828
vt 0.5202 0.2686
vt 0.5161 0.2730
vt 0.5296 0.2612
vt 0.5247 0.2647
vt 0.5402 0.2558
vt 0.5347 0.2582
vt 0.5517 0.2525
vt 0.5459 0.2539
vt 0.5636 0.2516
vt 0.5576 0.2517
vt 0.5755 0.2529
vt 0.5696 0.2520
vt 0.5868 0.2566
vt 0.5812 0.2545
vt 0.5973 0.2624
vt 0.5922 0.2593
vt 0.6064 0.2702
vt 0.6020 0.2661
vt 0.6138 0.2796
vt 0.6103 0.2747
vt 0.6192 0.2902
vt 0.6168 0.2847
vt 0.6225 0.3017
vt 0.6211 0.2959
vt 0.6234 0.3136
vt 0.6233 0.3076
vt 0.6221 0.3255
vt 0.6230 0.3196
vt 0.6184 0.3368
vt 0.6205 0.3312
vt 0.6126 0.3473
vt 0.6157 0.3422
vt 0.6048 0.3564
vt 0.6089 0.3520
vt 0.5954 0.3638
vt 0.6003 0.3603
vt 0.5848 0.3692
vt 0.5903 0.3668
vt 0.5733 0.3725
vt 0.5791 0.3711
vt 0.5674 0.3733
vt 0.5755 0.2529
vt 0.5696 0.2520
vt 0.5868 0.2566
vt 0.5812 0.2545
vt 0.5973 0.2624
vt 0.5922 0.2593
vt 0.6020 0.2661
vt 0.6138 0.2796
vt 0.6103 0.2747
vt 0.6192 0.2902
vt 0.6168 0.2847
vt 0.6225 0.3017
vt 0.6211 0.2959
vt 0.6234 0.3136
vt 0.6233 0.3076
vt 0.6221 0.3255
vt 0.6230 0.3196
vt 0.6184 0.3368
vt 0.6205 0.3312
vt 0.6126 0.3473
vt 0.6157 0.3422
vt 0.6048 0.3564
vt 0.6089 0.3520
vt 0.5954 0.3638
vt 0.6003 0.3603
vt 0.5848 0.3692
vt 0.5903 0.3668
vt 0.5733 0.3725
vt 0.5791 0.3711
vt 0.5674 0.3733
vt 0.5495 0.3721
vt 0.5554 0.3730
vt 0.5382 0.3684
vt 0.5438 0.3705
vt 0.5277 0.3626
vt 0.5328 0.3657
vt 0.5186 0.3548
vt 0.5230 0.3589
vt 0.5112 0.3454
vt 0.5147 0.3503
vt 0.5058 0.3348
vt 0.5082 0.3403
vt 0.5025 0.3233
vt 0.5039 0.3291
vt 0.5016 0.3114
vt 0.5017 0.3174
vt 0.5029 0.2995
vt 0.5020 0.3054
vt 0.5066 0.2882
vt 0.5045 0.2938
vt 0.5124 0.2777
vt 0.5093 0.2828
vt 0.5202 0.2686
vt 0.5161 0.2730
vt 0.5296 0.2612
vt 0.5247 0.2647
vt 0.5402 0.2558
vt 0.5347 0.2582
vt 0.5517 0.2525
vt 0.5459 0.2539
vt 0.5576 0.2517
vt 0.9082 0.8105
vt 0.9082 0.8105
vt 0.9082 0.8105
vt 0.9082 0.8105
vt 0.9082 0.8105
vt 0.9082 0.8105
vt 0.9082 0.8105
vt 0.9082 0.8105
vt 0.9082 0.8105
vt 0.9082 0.8105
vt 0.9082 0.8105
vt 0.9082 0.8105
vt 0.9082 0.8105
vt 0.9082 0.8105
vt 0.9082 0.8105
vt 0.9082 0.8105
vt 0.9082 0.8105
vt 0.9082 0.8105
vt 0.9082 0.8105
vt 0.9082 0.8105
vt 0.9082 0.8105
vt 0.9082 0.8105
vt 0.9082 0.8105
vt 0.9082 0.8105
vt 0.9082 0.8105
vt 0.9082 0.8105
vt 0.9082 0.8105
vt 0.9082 0.8105
vt 0.9082 0.8105
vt 0.9082 0.8105
vt 0.9082 0.8105
vt 0.9082 0.8105
vt 0.9082 0.8105
vt 0.9082 0.8105
vt 0.9082 0.8105
vt 0.9082 0.8105
vt 0.9941 0.8105
vt 0.9082 0.8105
vt 0.9082 0.8105
vt 0.9082 0.8105
vt 0.9082 0.8105
vt 0.9082 0.8105
vt 0.9082 0.8105
vt 0.9082 0.8105
vt 0.9082 0.8105
vt 0.9082 0.8105
vt 0.9082 0.8105
vt 0.9082 0.8105
vt 0.9082 0.8105
vt 0.9082 0.8105
vt 0.9082 0.8105
vt 0.9082 0.8105
vt 0.9082 0.8105
vt 0.9082 0.8105
vt 0.9082 0.8105
vt 0.9082 0.8105
vt 0.9082 0.8105
vt 0.9082 0.8105
vt 0.9082 0.8105
vt 0.9082 0.8105
vt 0.9941 0.8105
vt 0.9082 0.8105
vt 0.9082 0.8105
vt 0.9082 0.8105
vn -0.7688 0.6394 0.0000
vn -0.8278 0.5610 0.0000
vn 0.2965 0.9550 0.0000
vn 0.2015 0.9795 0.0000
vn -0.7117 -0.7024 0.0000
vn -0.6394 -0.7688 0.0000
vn -0.1886 0.9820 0.0000
vn -0.2840 0.9588 0.0000
vn 0.6293 -0.7771 0.0000
vn 0.7024 -0.7117 0.0000
vn 0.8351 0.5501 0.0000
vn 0.7771 0.6293 0.0000
vn -0.9958 -0.0915 0.0000
vn -0.9820 -0.1886 0.0000
vn -0.0065 -1.0000 0.0000
vn 0.0915 -0.9958 0.0000
vn -0.8788 0.4772 0.0000
vn 0.1045 0.9945 0.0000
vn -0.5610 -0.8278 0.0000
vn 0.7688 -0.6394 0.0000
vn -0.3766 0.9264 0.0000
vn 0.7117 0.7024 0.0000
vn -0.9588 -0.2840 0.0000
vn 0.1886 -0.9820 0.0000
vn -0.9213 0.3887 0.0000
vn 0.0065 1.0000 0.0000
vn -0.4772 -0.8788 0.0000
vn -0.4656 0.8850 0.0000
vn 0.8278 -0.5610 0.0000
vn 0.6394 0.7688 0.0000
vn -0.9264 -0.3766 0.0000
vn 0.2840 -0.9588 0.0000
vn -0.9550 0.2965 0.0000
vn 0.9958 0.0915 0.0000
vn 0.9820 0.1886 0.0000
vn -0.3887 -0.9213 0.0000
vn -0.5501 0.8351 0.0000
vn 0.8788 -0.4772 0.0000
vn 0.5610 0.8278 0.0000
vn -0.8850 -0.4656 0.0000
vn 0.3766 -0.9264 0.0000
vn -0.9795 0.2015 0.0000
vn 0.9588 0.2840 0.0000
vn -0.2965 -0.9550 0.0000
vn -0.6293 0.7771 0.0000
vn 0.9213 -0.3887 0.0000
vn 0.4772 0.8788 0.0000
vn -0.8351 -0.5501 0.0000
vn 0.4656 -0.8850 0.0000
vn -0.9945 0.1045 0.0000
vn 0.9264 0.3766 0.0000
vn -0.2015 -0.9795 0.0000
vn -0.7024 0.7117 0.0000
vn 0.9550 -0.2965 0.0000
vn 0.3887 0.9213 0.0000
vn -0.7771 -0.6293 0.0000
vn -0.0915 0.9958 0.0000
vn 0.5501 -0.8351 0.0000
vn 0.8850 0.4656 0.0000
vn -1.0000 0.0065 0.0000
vn -0.1045 -0.9945 0.0000
vn 0.9795 -0.2015 0.0000
vn 0.0000 0.0000 1.0000
vn 0.9945 -0.1045 0.0000
vn 1.0000 -0.0065 0.0000
vn 0.0000 0.0000 -1.0000
usemtl ColobotMesh_mat_1
s 1
f 138/1/1 201/2/2 139/3/2
f 188/4/3 253/5/4 189/6/4
f 153/7/5 216/8/6 154/9/6
f 131/10/7 194/11/8 132/12/8
f 168/13/9 231/14/10 169/15/10
f 181/16/11 246/17/12 182/18/12
f 146/19/13 209/20/14 147/21/14
f 161/22/15 224/23/16 162/24/16
f 139/25/2 202/26/17 140/27/17
f 189/28/4 254/29/18 190/30/18
f 154/31/6 217/32/19 155/33/19
f 169/34/10 232/35/20 170/36/20
f 132/37/8 195/38/21 133/39/21
f 182/40/12 247/41/22 183/42/22
f 147/43/14 210/44/23 148/45/23
f 162/46/16 225/47/24 163/48/24
f 140/49/17 203/50/25 141/51/25
f 190/52/18 192/53/26 130/54/26
f 155/55/19 218/56/27 156/57/27
f 133/58/21 196/59/28 134/60/28
f 170/61/20 233/62/29 171/63/29
f 183/64/22 248/65/30 184/66/30
f 148/67/23 211/68/31 149/69/31
f 163/70/24 226/71/32 164/72/32
f 141/73/25 204/74/33 142/75/33
f 177/76/34 241/77/35 176/78/35
f 156/79/27 219/80/36 157/81/36
f 134/82/28 197/83/37 135/84/37
f 171/85/29 234/86/38 172/87/38
f 184/88/30 249/89/39 185/90/39
f 149/91/31 212/92/40 150/93/40
f 164/94/32 227/95/41 165/96/41
f 142/97/33 205/98/42 143/99/42
f 176/100/35 242/101/43 178/102/43
f 157/103/36 220/104/44 158/105/44
f 135/106/37 198/107/45 136/108/45
f 173/109/46 234/110/38 235/111/46
f 185/112/39 250/113/47 186/114/47
f 150/115/40 213/116/48 151/117/48
f 165/118/41 228/119/49 166/120/49
f 143/121/42 206/122/50 144/123/50
f 178/124/43 243/125/51 179/126/51
f 158/127/44 221/128/52 159/129/52
f 136/130/45 199/131/53 137/132/53
f 173/133/46 236/134/54 174/135/54
f 186/136/47 251/137/55 187/138/55
f 151/139/48 214/140/56 152/141/56
f 130/142/26 191/143/57 129/144/57
f 166/145/49 229/146/58 167/147/58
f 179/148/51 244/149/59 180/150/59
f 144/151/50 207/152/60 145/153/60
f 159/154/52 222/155/61 160/156/61
f 137/157/53 200/158/1 138/159/1
f 174/160/54 237/161/62 175/162/62
f 187/163/55 252/164/3 188/165/3
f 152/166/56 215/167/5 153/168/5
f 129/169/57 193/170/7 131/171/7
f 167/172/58 230/173/9 168/174/9
f 180/175/59 245/176/11 181/177/11
f 145/178/60 208/179/13 146/180/13
f 161/181/15 222/182/61 223/183/15
f 33/184/63 55/185/63 1/186/63
f 175/187/62 238/188/64 256/189/64
f 255/190/65 240/191/34 177/192/34
f 256/193/64 239/194/65 255/195/65
f 65/196/66 64/197/66 63/198/66
f 67/199/66 66/200/66 65/196/66
f 69/201/66 68/202/66 67/199/66
f 71/203/66 70/204/66 69/201/66
f 73/205/66 72/206/66 71/203/66
f 75/207/66 74/208/66 73/205/66
f 77/209/66 76/210/66 75/207/66
f 79/211/66 78/212/66 77/209/66
f 81/213/66 80/214/66 79/211/66
f 83/215/66 82/216/66 81/213/66
f 85/217/66 84/218/66 83/215/66
f 87/219/66 86/220/66 85/217/66
f 89/221/66 88/222/66 87/219/66
f 91/223/66 90/224/66 89/221/66
f 93/225/66 92/226/66 91/223/66
f 95/227/66 94/228/66 93/225/66
f 97/229/66 96/230/66 95/227/66
f 99/231/66 98/232/66 97/229/66
f 101/233/66 100/234/66 99/231/66
f 103/235/66 102/236/66 101/233/66
f 105/237/66 104/238/66 103/235/66
f 107/239/66 106/240/66 105/237/66
f 109/241/66 108/242/66 107/239/66
f 111/243/66 110/244/66 109/241/66
f 113/245/66 112/246/66 111/243/66
f 115/247/66 114/248/66 113/245/66
f 117/249/66 116/250/66 115/247/66
f 119/251/66 118/252/66 117/249/66
f 121/253/66 120/254/66 119/251/66
f 123/255/66 122/256/66 121/253/66
f 125/257/66 124/258/66 123/255/66
f 63/198/66 126/259/66 125/257/66
f 67/199/66 65/196/66 63/198/66
f 71/203/66 69/201/66 67/199/66
f 75/207/66 73/205/66 71/203/66
f 79/211/66 77/209/66 75/207/66
f 83/215/66 81/213/66 79/211/66
f 87/219/66 85/217/66 83/215/66
f 91/223/66 89/221/66 87/219/66
f 95/227/66 93/225/66 91/223/66
f 99/231/66 97/229/66 95/227/66
f 103/235/66 101/233/66 99/231/66
f 107/239/66 105/237/66 103/235/66
f 111/243/66 109/241/66 107/239/66
f 115/247/66 113/245/66 111/243/66
f 119/251/66 117/249/66 115/247/66
f 123/255/66 121/253/66 119/251/66
f 63/198/66 125/257/66 123/255/66
f 71/203/66 67/199/66 63/198/66
f 79/211/66 75/207/66 71/203/66
f 87/219/66 83/215/66 79/211/66
f 95/227/66 91/223/66 87/219/66
f 103/235/66 99/231/66 95/227/66
f 111/243/66 107/239/66 103/235/66
f 119/251/66 115/247/66 111/243/66
f 63/198/66 123/255/66 119/251/66
f 103/235/66 63/198/66 111/243/66
f 95/227/66 87/219/66 79/211/66
f 63/198/66 119/251/66 111/243/66
f 61/260/63 62/261/63 1/186/63
f 59/262/63 60/263/63 61/260/63
f 57/264/63 58/265/63 59/262/63
f 55/185/63 56/266/63 57/264/63
f 53/267/63 54/268/63 55/185/63
f 51/269/63 52/270/63 53/267/63
f 49/271/63 50/272/63 51/269/63
f 128/273/63 48/274/63 49/271/63
f 47/275/63 127/276/63 128/273/63
f 45/277/63 46/278/63 47/275/63
f 43/279/63 44/280/63 45/277/63
f 41/281/63 42/282/63 43/279/63
f 39/283/63 40/284/63 41/281/63
f 37/285/63 38/286/63 39/283/63
f 35/287/63 36/288/63 37/285/63
f 33/184/63 34/289/63 35/287/63
f 31/290/63 32/291/63 33/184/63
f 29/292/63 30/293/63 31/290/63
f 27/294/63 28/295/63 29/292/63
f 25/296/63 26/297/63 27/294/63
f 23/298/63 24/299/63 25/296/63
f 21/300/63 22/301/63 23/298/63
f 19/302/63 20/303/63 21/300/63
f 17/304/63 18/305/63 19/302/63
f 15/306/63 16/307/63 17/304/63
f 13/308/63 14/309/63 15/306/63
f 11/310/63 12/311/63 13/308/63
f 9/312/63 10/313/63 11/310/63
f 7/314/63 8/315/63 9/312/63
f 5/316/63 6/317/63 7/314/63
f 3/318/63 4/319/63 5/316/63
f 1/186/63 2/320/63 3/318/63
f 59/262/63 61/260/63 1/186/63
f 55/185/63 57/264/63 59/262/63
f 51/269/63 53/267/63 55/185/63
f 128/273/63 49/271/63 51/269/63
f 45/277/63 47/275/63 128/273/63
f 41/281/63 43/279/63 45/277/63
f 37/285/63 39/283/63 41/281/63
f 33/184/63 35/287/63 37/285/63
f 29/292/63 31/290/63 33/184/63
f 25/296/63 27/294/63 29/292/63
f 21/300/63 23/298/63 25/296/63
f 17/304/63 19/302/63 21/300/63
f 13/308/63 15/306/63 17/304/63
f 9/312/63 11/310/63 13/308/63
f 5/316/63 7/314/63 9/312/63
f 1/186/63 3/318/63 5/316/63
f 55/185/63 59/262/63 1/186/63
f 128/273/63 51/269/63 55/185/63
f 41/281/63 45/277/63 128/273/63
f 33/184/63 37/285/63 41/281/63
f 25/296/63 29/292/63 33/184/63
f 17/304/63 21/300/63 25/296/63
f 9/312/63 13/308/63 17/304/63
f 1/186/63 5/316/63 9/312/63
f 25/296/63 1/186/63 17/304/63
f 33/184/63 41/281/63 128/273/63
f 1/186/63 9/312/63 17/304/63
f 79/211/66 63/198/66 95/227/66
f 138/1/1 200/321/1 201/2/2
f 188/4/3 252/322/3 253/5/4
f 153/7/5 215/323/5 216/8/6
f 131/10/7 193/324/7 194/11/8
f 168/13/9 230/325/9 231/14/10
f 181/16/11 245/326/11 246/17/12
f 146/19/13 208/327/13 209/20/14
f 161/22/15 223/328/15 224/23/16
f 139/25/2 201/329/2 202/26/17
f 189/28/4 253/330/4 254/29/18
f 154/31/6 216/331/6 217/32/19
f 169/34/10 231/332/10 232/35/20
f 132/37/8 194/333/8 195/38/21
f 182/40/12 246/334/12 247/41/22
f 147/43/14 209/335/14 210/44/23
f 162/46/16 224/336/16 225/47/24
f 140/49/17 202/337/17 203/50/25
f 190/52/18 254/338/18 192/53/26
f 155/55/19 217/339/19 218/56/27
f 133/58/21 195/340/21 196/59/28
f 170/61/20 232/341/20 233/62/29
f 183/64/22 247/342/22 248/65/30
f 148/67/23 210/343/23 211/68/31
f 163/70/24 225/344/24 226/71/32
f 141/73/25 203/345/25 204/74/33
f 177/76/34 240/346/34 241/77/35
f 156/79/27 218/347/27 219/80/36
f 134/82/28 196/348/28 197/83/37
f 171/85/29 233/349/29 234/86/38
f 184/88/30 248/350/30 249/89/39
f 149/91/31 211/351/31 212/92/40
f 164/94/32 226/352/32 227/95/41
f 142/97/33 204/353/33 205/98/42
f 176/100/35 241/354/35 242/101/43
f 157/103/36 219/355/36 220/104/44
f 135/106/37 197/356/37 198/107/45
f 173/109/46 172/357/38 234/110/38
f 185/112/39 249/358/39 250/113/47
f 150/115/40 212/359/40 213/116/48
f 165/118/41 227/360/41 228/119/49
f 143/121/42 205/361/42 206/122/50
f 178/124/43 242/362/43 243/125/51
f 158/127/44 220/363/44 221/128/52
f 136/130/45 198/364/45 199/131/53
f 173/133/46 235/365/46 236/134/54
f 186/136/47 250/366/47 251/137/55
f 151/139/48 213/367/48 214/140/56
f 130/142/26 192/368/26 191/143/57
f 166/145/49 228/369/49 229/146/58
f 179/148/51 243/370/51 244/149/59
f 144/151/50 206/371/50 207/152/60
f 159/154/52 221/372/52 222/155/61
f 137/157/53 199/373/53 200/158/1
f 174/160/54 236/374/54 237/161/62
f 187/163/55 251/375/55 252/164/3
f 152/166/56 214/376/56 215/167/5
f 129/169/57 191/377/57 193/170/7
f 167/172/58 229/378/58 230/173/9
f 180/175/59 244/379/59 245/176/11
f 145/178/60 207/380/60 208/179/13
f 161/181/15 160/381/61 222/182/61
f 33/184/63 128/273/63 55/185/63
f 175/187/62 237/382/62 238/188/64
f 255/190/65 239/383/65 240/191/34
f 256/193/64 238/384/64 239/194/65
f 103/235/66 95/227/66 63/198/66
f 25/296/63 33/184/63 1/186/63
f 79/211/66 71/203/66 63/198/66
