# Blender v2.70 (sub 5) OBJ File: 'lem2t.blend'
# www.blender.org
mtllib lem2t.mtl
o ColobotMesh_1_ColobotMesh_
v -3.947810 -1.326650 0.804169
v 3.838930 -0.429297 -1.995830
v 3.000000 -2.000000 0.804169
v 3.910470 -1.429260 0.804169
v -1.962100 2.000530 -1.995830
v -1.694200 1.946710 0.804169
v -1.694200 1.946710 -1.995830
v -2.237630 1.967320 -1.995830
v -2.237630 1.967320 0.804169
v -2.879080 1.470200 0.804169
v -2.719200 1.689680 0.804169
v -3.947810 -1.326650 -1.995830
v -4.007480 -0.965584 -1.995830
v 3.460830 -0.106488 -1.995830
v 3.838930 -0.429297 0.804169
v 3.992270 -0.915307 0.804169
v 3.910470 -1.429260 -1.995830
v 3.583180 -1.835910 -1.995830
v 3.000000 -2.000000 -1.995830
v 3.992270 -0.915307 -1.995830
v 3.460830 -0.106488 0.804169
v -3.000000 -2.000000 0.804169
v -1.962100 2.000530 0.804169
v -2.497690 1.859540 0.804169
v -2.719200 1.689680 -1.995830
v -3.440110 -1.903900 -1.995830
v 3.583180 -1.835910 0.804169
v -3.932430 -0.636283 0.804169
v -4.007480 -0.965584 0.804169
v -3.757360 -1.659430 -1.995830
v -3.440110 -1.903900 0.804169
v -3.757360 -1.659430 0.804169
v -3.000000 -2.000000 -1.995830
v -2.497690 1.859540 -1.995830
v -2.879080 1.470200 -1.995830
v -3.932430 -0.636283 -1.995830
v 3.400507 -1.914630 -1.995830
v 3.206114 -1.969327 -1.995830
v 3.913948 -0.582419 0.804169
v 3.965062 -0.744422 0.804169
v 3.602767 -0.199474 0.804169
v 3.728800 -0.307077 0.804169
v 3.913948 -0.582418 -1.995830
v 3.965062 -0.744422 -1.995830
v 3.823090 -1.584248 0.804169
v 3.713993 -1.719798 0.804169
v 3.962320 -1.262608 0.804169
v 3.989586 -1.091290 0.804169
v 3.206115 -1.969328 0.804169
v 3.400508 -1.914631 0.804169
v 3.728800 -0.307077 -1.995830
v 3.602767 -0.199474 -1.995830
v 3.823090 -1.584248 -1.995830
v 3.713994 -1.719798 -1.995830
v 3.962320 -1.262608 -1.995830
v 3.989586 -1.091290 -1.995830
v -3.993609 -1.148483 -1.995830
v -3.982341 -0.799097 -1.995830
v -3.610516 -1.797762 0.804169
v -3.993609 -1.148483 0.804169
v -3.225794 -1.968580 -1.995830
v -3.867226 -1.501814 -1.995830
v -3.225795 -1.968582 0.804169
v -3.867226 -1.501814 0.804169
v -3.982341 -0.799097 0.804169
v -3.610517 -1.797762 -1.995830
vt 0.765625 0.876953
vt 0.779297 0.876953
vt 0.779297 0.998047
vt 0.765683 0.876953
vt 0.770182 0.998047
vt 0.770182 0.876953
vt 0.765625 0.998047
vt 0.761068 0.876953
vt 0.751953 0.876953
vt 0.751953 0.998047
vt 0.998047 0.876953
vt 0.998047 0.998047
vt 0.873047 0.876953
vt 0.765519 0.876953
vt 0.765519 0.998047
vt 0.765683 0.998047
vt 0.761068 0.998047
vt 0.873047 0.998047
vt 0.053167 0.505384
vt 0.039684 0.508328
vt 0.009519 0.585998
vt 0.146659 0.744262
vt 0.130245 0.747560
vt 0.066651 0.502440
vt 0.007220 0.575909
vt 0.006748 0.554759
vt 0.004920 0.565821
vt 0.484714 0.527914
vt 0.490068 0.537410
vt 0.434281 0.502440
vt 0.495080 0.568901
vt 0.494915 0.558118
vt 0.485684 0.598680
vt 0.490281 0.589298
vt 0.462517 0.618459
vt 0.471214 0.612762
vt 0.113362 0.745525
vt 0.097428 0.738921
vt 0.083856 0.728514
vt 0.074059 0.715066
vt 0.020246 0.523308
vt 0.008576 0.543698
vt 0.478029 0.519609
vt 0.470014 0.512494
vt 0.458821 0.507671
vt 0.493245 0.547621
vt 0.493413 0.579372
vt 0.478936 0.606169
vt 0.029965 0.515818
vt 0.014411 0.533503
vt 0.446911 0.504320
vt 0.446910 0.504320
vn -0.528686 -0.848818 -0.000000
vn -0.968513 -0.248963 0.000000
vn -0.608512 0.793545 0.000000
vn 0.871098 -0.491110 0.000000
vn 0.395752 -0.918357 -0.000001
vn 0.999884 -0.015248 -0.000000
vn -0.137823 -0.990457 -0.000001
vn 0.547996 0.836481 0.000000
vn 0.000000 -1.000000 -0.000000
vn 0.370021 0.929023 0.000000
vn -0.894409 0.447251 0.000000
vn 0.196961 0.980411 -0.000000
vn -0.988791 0.149307 0.000000
vn -0.382864 0.923805 0.000000
vn -0.119665 0.992814 -0.000000
vn -0.808283 0.588794 0.000000
vn -0.820366 -0.571839 0.000000
vn 0.987560 0.157241 0.000000
vn 0.953660 0.300887 0.000000
vn 0.663830 -0.747884 0.000000
vn 0.779025 -0.626993 0.000000
vn 0.147196 -0.989107 -0.000001
vn 0.270854 -0.962620 -0.000000
vn 0.954854 -0.297076 -0.000000
vn 0.987570 -0.157179 -0.000000
vn 0.742897 0.669405 0.000000
vn 0.649310 0.760524 0.000000
vn -0.685699 -0.727885 -0.000000
vn -0.997136 -0.075623 -0.000000
vn -0.288928 -0.957351 0.000000
vn -0.956086 0.293087 0.000000
vn -0.908473 -0.417943 0.000000
vn 0.898016 0.439963 0.000000
vn -0.528690 -0.848815 0.000000
vn -0.968513 -0.248965 0.000000
vn 0.871098 -0.491109 -0.000000
vn 0.395759 -0.918354 -0.000000
vn 0.999884 -0.015249 -0.000000
vn -0.137815 -0.990458 -0.000000
vn 0.547997 0.836481 0.000000
vn -0.894409 0.447250 0.000000
vn 0.196960 0.980412 -0.000000
vn -0.988791 0.149308 0.000000
vn -0.820369 -0.571835 -0.000000
vn 0.953660 0.300888 0.000000
vn 0.663830 -0.747883 -0.000000
vn 0.779024 -0.626994 0.000000
vn 0.147190 -0.989108 -0.000000
vn 0.270853 -0.962621 -0.000001
vn 0.954853 -0.297080 -0.000000
vn 0.987570 -0.157180 -0.000000
vn 0.742897 0.669406 0.000000
vn 0.649309 0.760524 0.000000
vn -0.685694 -0.727890 0.000001
vn -0.997137 -0.075622 0.000000
vn -0.288937 -0.957348 -0.000001
vn -0.908473 -0.417944 0.000000
vn 0.898017 0.439961 0.000000
vn 0.000000 0.000000 -1.000000
vn -0.000000 0.000000 1.000000
vn 0.000001 0.000000 1.000000
vn 0.000003 0.000000 1.000000
vn -0.000001 0.000001 -1.000000
vn -0.000001 0.000000 -1.000000
vn 0.000003 -0.000004 1.000000
vn -0.000002 0.000000 -1.000000
vn 0.000002 0.000000 -1.000000
vn -0.000001 0.000000 1.000000
vn 0.000000 0.000001 1.000000
vn 0.000001 0.000000 -1.000000
vn 0.000004 0.000000 -1.000000
usemtl ColobotMesh_mat_1_[256]
s off
f 66/1/1 26/2/1 31/3/1
f 57/1/2 12/2/2 1/3/2
f 34/4/3 25/2/3 11/3/3
f 45/5/4 53/6/4 17/2/4
f 50/5/5 37/6/5 18/2/5
f 56/6/6 20/2/6 16/3/6
f 63/7/7 61/1/7 33/2/7
f 52/8/8 14/9/8 21/10/8
f 22/10/9 33/9/9 19/11/9
f 21/12/10 14/11/10 7/9/10
f 35/13/11 36/9/11 28/10/11
f 5/14/12 23/15/12 6/10/12
f 58/1/13 13/9/13 29/10/13
f 8/9/14 34/4/14 24/16/14
f 23/15/15 5/14/15 8/2/15
f 11/3/16 25/2/16 35/9/16
f 64/7/17 62/1/17 30/2/17
f 20/2/18 44/6/18 40/5/18
f 44/6/19 43/8/19 39/17/19
f 18/9/20 54/8/20 46/17/20
f 46/17/21 54/8/21 53/6/21
f 19/9/22 38/8/22 49/17/22
f 49/17/23 38/8/23 37/6/23
f 17/9/24 55/8/24 47/17/24
f 55/8/25 56/6/25 48/5/25
f 2/2/26 51/6/26 42/5/26
f 42/5/27 51/6/27 52/8/27
f 32/10/28 30/9/28 66/1/28
f 29/10/29 13/9/29 57/1/29
f 31/10/30 26/9/30 61/1/30
f 28/3/31 36/2/31 58/1/31
f 1/10/32 12/9/32 62/1/32
f 39/17/33 43/8/33 2/9/33
f 59/7/34 66/1/34 31/3/34
f 60/7/35 57/1/35 1/3/35
f 24/16/3 34/4/3 11/3/3
f 4/3/36 45/5/36 17/2/36
f 27/3/37 50/5/37 18/2/37
f 48/5/38 56/6/38 16/3/38
f 22/3/39 63/7/39 33/2/39
f 41/17/40 52/8/40 21/10/40
f 3/12/9 22/10/9 19/11/9
f 6/10/10 21/12/10 7/9/10
f 10/18/41 35/13/41 28/10/41
f 7/9/42 5/14/42 6/10/42
f 65/7/43 58/1/43 29/10/43
f 9/10/14 8/9/14 24/16/14
f 9/3/15 23/15/15 8/2/15
f 10/10/16 11/3/16 35/9/16
f 32/3/44 64/7/44 30/2/44
f 16/3/18 20/2/18 40/5/18
f 40/5/45 44/6/45 39/17/45
f 27/10/46 18/9/46 46/17/46
f 45/5/47 46/17/47 53/6/47
f 3/10/48 19/9/48 49/17/48
f 50/5/49 49/17/49 37/6/49
f 4/10/50 17/9/50 47/17/50
f 47/17/51 55/8/51 48/5/51
f 15/3/52 2/2/52 42/5/52
f 41/17/53 42/5/53 52/8/53
f 59/7/54 32/10/54 66/1/54
f 60/7/55 29/10/55 57/1/55
f 63/7/56 31/10/56 61/1/56
f 65/7/31 28/3/31 58/1/31
f 64/7/57 1/10/57 62/1/57
f 15/10/58 39/17/58 2/9/58
usemtl ColobotMesh_mat_2
f 61/19/59 26/20/59 36/21/59
f 6/22/60 23/23/60 22/24/60
f 58/25/59 57/26/59 13/27/59
f 28/21/60 31/20/60 63/19/60
f 45/28/60 4/29/60 3/30/60
f 16/31/60 3/30/60 48/32/60
f 15/33/60 3/30/60 39/34/60
f 21/35/60 3/30/60 41/36/60
f 21/35/60 6/22/60 3/30/60
f 19/30/59 33/24/59 7/22/59
f 23/23/60 9/37/60 22/24/60
f 9/37/60 24/38/60 22/24/60
f 24/38/60 11/39/60 22/24/60
f 11/39/61 10/40/61 22/24/61
f 31/20/60 28/21/60 32/41/60
f 32/41/60 28/21/60 1/42/60
f 60/26/62 65/25/62 29/27/62
f 54/43/59 18/44/59 37/45/59
f 17/29/63 19/30/63 55/46/63
f 20/31/64 19/30/64 44/47/64
f 2/33/64 19/30/64 51/48/64
f 5/23/59 7/22/59 33/24/59
f 8/37/59 5/23/59 33/24/59
f 34/38/59 8/37/59 33/24/59
f 25/39/59 34/38/59 33/24/59
f 35/40/59 25/39/59 33/24/59
f 36/21/64 26/20/64 66/49/64
f 36/21/59 30/41/59 62/50/59
f 27/44/65 46/43/65 50/45/65
f 46/43/61 45/28/61 49/51/61
f 17/29/66 53/28/66 38/52/66
f 53/28/67 54/43/67 37/45/67
f 36/21/67 12/42/67 57/26/67
f 1/42/68 28/21/68 65/25/68
f 61/19/59 36/21/59 33/24/59
f 3/30/60 6/22/60 22/24/60
f 36/21/59 35/40/59 33/24/59
f 22/24/60 28/21/60 63/19/60
f 22/24/60 10/40/60 28/21/60
f 49/51/68 45/28/68 3/30/68
f 3/30/60 4/29/60 47/46/60
f 3/30/61 16/31/61 40/47/61
f 3/30/60 15/33/60 42/48/60
f 3/30/60 47/46/60 48/32/60
f 14/35/59 19/30/59 7/22/59
f 3/30/61 40/47/61 39/34/61
f 3/30/60 42/48/60 41/36/60
f 59/49/68 31/20/68 32/41/68
f 64/50/61 32/41/61 1/42/61
f 19/30/59 20/31/59 56/32/59
f 19/30/64 2/33/64 43/34/64
f 19/30/59 14/35/59 52/36/59
f 19/30/59 56/32/59 55/46/59
f 19/30/64 43/34/64 44/47/64
f 30/41/67 36/21/67 66/49/67
f 19/30/64 52/36/64 51/48/64
f 12/42/64 36/21/64 62/50/64
f 50/45/69 46/43/69 49/51/69
f 19/30/64 17/29/64 38/52/64
f 38/52/70 53/28/70 37/45/70
f 58/25/71 36/21/71 57/26/71
f 60/26/68 1/42/68 65/25/68
