# Blender v2.70 (sub 5) OBJ File: 'lem2.blend'
# www.blender.org
mtllib lem2.mtl
o ColobotMesh_1_ColobotMesh_
v -0.499704 -0.500000 -1.000000
v 5.501780 0.500000 -0.500000
v 0.993932 0.500000 -0.500000
v 0.993932 -0.500000 -0.500000
v 0.493932 -0.500000 -1.000000
v 0.493932 0.500000 -1.000000
v 4.000740 0.500000 -0.500000
v 4.000740 -0.500000 -0.500000
v 4.500740 0.500000 -1.000000
v 4.500740 -0.500000 -1.000000
v 5.501780 0.500000 -1.000000
v 5.501780 -0.500000 -1.000000
v 5.501780 0.500000 0.500000
v 5.501780 -0.500000 0.500000
v 4.406450 -0.500000 0.500000
v 4.406450 0.500000 0.500000
v 5.501780 0.500000 1.000000
v 5.501780 -0.500000 1.000000
v 4.000740 -0.500000 0.500000
v 4.500740 -0.500000 1.000000
v 4.500740 0.500000 1.000000
v 0.993932 0.500000 0.500000
v 0.993932 -0.500000 0.500000
v 4.000740 0.500000 0.500000
v 0.493932 0.500000 1.000000
v 0.493932 -0.500000 1.000000
v 4.406450 0.500000 -0.500000
v 4.406450 -0.500000 -0.500000
v 5.501780 -0.500000 -0.500000
v -0.499704 0.500000 -1.000000
v -0.499704 -0.500000 1.000000
v -0.499704 0.500000 1.000000
vt 0.583984 0.994141
vt 0.583984 0.986328
vt 0.576172 0.986328
vt 0.576172 0.994141
vt 0.748047 0.166016
vt 0.748047 0.248047
vt 0.501953 0.248047
vt 0.501953 0.166016
vt 0.876953 0.498047
vt 0.876953 0.408203
vt 0.966797 0.408203
vt 0.966797 0.498047
vt 0.583984 0.992188
vt 0.583984 0.988932
vt 0.501953 0.162109
vt 0.501953 0.080078
vt 0.748047 0.162109
vt 0.748047 0.080078
vt 0.576844 0.994141
vt 0.582511 0.986328
vt 0.582511 0.994141
vt 0.576844 0.986328
vn 0.707107 0.000000 -0.707107
vn 0.000000 0.000000 -1.000000
vn -1.000000 0.000000 0.000000
vn -0.707107 0.000000 -0.707107
vn 1.000000 0.000000 0.000000
vn -0.000000 -0.000000 1.000000
vn -0.707107 0.000000 0.707107
vn 0.707107 -0.000000 0.707107
vn 0.000000 -1.000000 -0.000000
vn 0.000000 1.000000 0.000000
usemtl ColobotMesh_mat_1
s off
f 3/1/1 4/2/1 5/3/1
f 6/4/1 3/1/1 5/3/1
f 13/1/2 14/2/2 15/3/2
f 16/4/2 13/1/2 15/3/2
f 32/1/3 30/4/3 31/2/3
f 7/5/2 8/6/2 4/7/2
f 3/8/2 7/5/2 4/7/2
f 9/4/4 10/3/4 8/2/4
f 7/1/4 9/4/4 8/2/4
f 11/9/2 12/10/2 10/11/2
f 9/12/2 11/9/2 10/11/2
f 2/1/5 29/2/5 12/3/5
f 11/4/5 2/1/5 12/3/5
f 27/4/6 28/3/6 29/2/6
f 2/1/6 27/4/6 29/2/6
f 16/1/5 15/2/5 28/3/5
f 27/4/5 16/1/5 28/3/5
f 17/1/5 18/2/5 14/3/5
f 13/4/5 17/1/5 14/3/5
f 21/12/6 20/11/6 18/10/6
f 17/9/6 21/12/6 18/10/6
f 24/4/7 19/3/7 20/2/7
f 21/1/7 24/4/7 20/2/7
f 22/8/6 23/7/6 19/6/6
f 24/5/6 22/8/6 19/6/6
f 25/1/8 26/2/8 23/3/8
f 22/4/8 25/1/8 23/3/8
f 32/4/6 31/3/6 26/2/6
f 25/1/6 32/4/6 26/2/6
f 30/4/3 1/3/3 31/2/3
f 6/1/2 5/2/2 1/3/2
f 30/4/2 6/1/2 1/3/2
f 1/3/9 5/2/9 31/4/9
f 31/4/9 5/2/9 26/1/9
f 26/4/9 5/3/9 23/13/9
f 5/3/9 4/14/9 23/1/9
f 23/15/9 4/16/9 19/17/9
f 4/16/9 8/18/9 19/17/9
f 18/1/9 20/4/9 14/2/9
f 14/2/9 20/19/9 15/3/9
f 20/1/9 19/3/9 15/20/9
f 15/1/9 19/4/9 28/2/9
f 19/4/9 8/3/9 28/2/9
f 8/4/9 10/2/9 28/21/9
f 28/4/9 10/22/9 29/1/9
f 10/3/9 12/2/9 29/1/9
f 6/2/10 30/3/10 32/4/10
f 6/2/10 32/4/10 25/1/10
f 6/3/10 25/4/10 22/13/10
f 3/14/10 6/3/10 22/1/10
f 3/16/10 22/15/10 24/17/10
f 7/18/10 3/16/10 24/17/10
f 21/4/10 17/1/10 13/2/10
f 21/19/10 13/2/10 16/3/10
f 24/3/10 21/1/10 16/20/10
f 24/4/10 16/1/10 27/2/10
f 7/3/10 24/4/10 27/2/10
f 9/2/10 7/4/10 27/21/10
f 9/22/10 27/4/10 2/1/10
f 11/2/10 9/3/10 2/1/10
