# Blender v2.70 (sub 5) OBJ File: 'lem3t.blend'
# www.blender.org
mtllib lem3t.mtl
o ColobotMesh_1_ColobotMesh_
v -3.947810 -1.326650 2.000000
v 3.838930 -0.429297 -0.800000
v 3.000000 -2.000000 2.000000
v 3.910470 -1.429260 2.000000
v -1.962100 2.000530 -0.800000
v -1.694200 1.946710 2.000000
v -1.694200 1.946710 -0.800000
v -2.237630 1.967320 -0.800000
v -2.237630 1.967320 2.000000
v -2.879080 1.470200 2.000000
v -2.719200 1.689680 2.000000
v -3.947810 -1.326650 -0.800000
v -4.007480 -0.965584 -0.800000
v 3.460830 -0.106488 -0.800000
v 3.838930 -0.429297 2.000000
v 3.992270 -0.915307 2.000000
v 3.910470 -1.429260 -0.800000
v 3.583180 -1.835910 -0.800000
v 3.000000 -2.000000 -0.800000
v 3.992270 -0.915307 -0.800000
v 3.460830 -0.106488 2.000000
v -3.000000 -2.000000 2.000000
v -1.962100 2.000530 2.000000
v -2.497690 1.859540 2.000000
v -2.719200 1.689680 -0.800000
v -3.440110 -1.903900 -0.800000
v 3.583180 -1.835910 2.000000
v -3.932430 -0.636283 2.000000
v -4.007480 -0.965584 2.000000
v -3.757360 -1.659430 -0.800000
v -3.440110 -1.903900 2.000000
v -3.757360 -1.659430 2.000000
v -3.000000 -2.000000 -0.800000
v -2.497690 1.859540 -0.800000
v -2.879080 1.470200 -0.800000
v -3.932430 -0.636283 -0.800000
v 3.400507 -1.914630 -0.800000
v 3.206114 -1.969327 -0.800000
v 3.913948 -0.582419 2.000000
v 3.965062 -0.744422 2.000000
v 3.602767 -0.199474 2.000000
v 3.728800 -0.307077 2.000000
v 3.913948 -0.582418 -0.800000
v 3.965062 -0.744422 -0.800000
v 3.823090 -1.584249 2.000000
v 3.713993 -1.719799 2.000000
v 3.962320 -1.262608 2.000000
v 3.989586 -1.091290 2.000000
v 3.206115 -1.969328 2.000000
v 3.400508 -1.914631 2.000000
v 3.728800 -0.307077 -0.800000
v 3.602767 -0.199474 -0.800000
v 3.823090 -1.584249 -0.800000
v 3.713994 -1.719799 -0.800000
v 3.962320 -1.262608 -0.800000
v 3.989586 -1.091290 -0.800000
v -3.993609 -1.148483 -0.814729
v -3.982341 -0.799097 -0.811491
v -3.610516 -1.797762 2.018064
v -3.993609 -1.148483 2.014729
v -3.225794 -1.968581 -0.815995
v -3.867226 -1.501814 -0.815568
v -3.225795 -1.968583 2.015997
v -3.867226 -1.501814 2.015567
v -3.982341 -0.799097 2.011491
v -3.610517 -1.797762 -0.818065
vt 0.765625 0.998047
vt 0.779297 0.998047
vt 0.779297 0.876953
vt 0.765625 0.876953
vt 0.765683 0.876953
vt 0.770182 0.998047
vt 0.761068 0.876953
vt 0.761068 0.998047
vt 0.751953 0.998047
vt 0.998047 0.998047
vt 0.998047 0.876953
vt 0.751953 0.876953
vt 0.873047 0.876953
vt 0.873047 0.998047
vt 0.765519 0.876953
vt 0.765519 0.998047
vt 0.765683 0.998047
vt 0.770182 0.876953
vt 0.051999 0.503866
vt 0.038813 0.507845
vt 0.008523 0.585836
vt 0.146231 0.744756
vt 0.129749 0.748067
vt 0.065891 0.501933
vt 0.005452 0.575819
vt 0.004759 0.554323
vt 0.003906 0.565576
vt 0.051999 0.503865
vt 0.485686 0.527512
vt 0.491062 0.537048
vt 0.435045 0.501933
vt 0.496095 0.568669
vt 0.495929 0.557841
vt 0.486660 0.598571
vt 0.491276 0.589150
vt 0.463398 0.618432
vt 0.472130 0.612711
vt 0.112797 0.746024
vt 0.096796 0.739393
vt 0.083168 0.728942
vt 0.073331 0.715439
vt 0.019294 0.522886
vt 0.007577 0.543361
vt 0.478973 0.519172
vt 0.470925 0.512028
vt 0.459686 0.507185
vt 0.494252 0.547301
vt 0.494421 0.579183
vt 0.479884 0.606091
vt 0.028329 0.514375
vt 0.012535 0.532584
vt 0.447726 0.503820
vn -0.528684 -0.848819 -0.000000
vn -0.968513 -0.248964 -0.000000
vn -0.608512 0.793545 0.000000
vn 0.871097 -0.491110 -0.000000
vn 0.395753 -0.918357 -0.000000
vn 0.999884 -0.015248 -0.000000
vn -0.137823 -0.990457 -0.000001
vn 0.547995 0.836481 0.000000
vn 0.000000 -1.000000 0.000000
vn 0.370021 0.929023 0.000000
vn -0.894409 0.447250 0.000000
vn 0.196961 0.980411 0.000000
vn -0.988791 0.149309 0.000000
vn -0.382864 0.923805 0.000000
vn -0.119666 0.992814 0.000000
vn -0.808283 0.588794 -0.000000
vn -0.820365 -0.571840 -0.000000
vn 0.987560 0.157241 0.000000
vn 0.953659 0.300889 0.000000
vn 0.663829 -0.747885 -0.000000
vn 0.779024 -0.626995 0.000000
vn 0.147195 -0.989107 -0.000000
vn 0.270853 -0.962621 -0.000001
vn 0.954853 -0.297080 -0.000000
vn 0.987570 -0.157179 0.000000
vn 0.742897 0.669406 0.000000
vn 0.649311 0.760523 0.000000
vn -0.685698 -0.727886 -0.000000
vn -0.997137 -0.075620 -0.000000
vn -0.288928 -0.957351 -0.000001
vn -0.956086 0.293088 0.000000
vn -0.908474 -0.417941 -0.000000
vn 0.898017 0.439961 0.000000
vn -0.528690 -0.848815 0.000000
vn -0.968513 -0.248962 -0.000000
vn 0.871097 -0.491111 0.000000
vn 0.395759 -0.918355 -0.000000
vn 0.999884 -0.015249 -0.000000
vn -0.137814 -0.990458 -0.000000
vn 0.547996 0.836481 0.000000
vn -0.988791 0.149308 0.000000
vn -0.820368 -0.571836 0.000000
vn 0.663829 -0.747884 0.000000
vn 0.779025 -0.626993 0.000000
vn 0.147189 -0.989108 0.000000
vn 0.270854 -0.962620 -0.000000
vn 0.954853 -0.297078 -0.000000
vn 0.987570 -0.157180 -0.000000
vn 0.649310 0.760524 0.000000
vn -0.685693 -0.727891 0.000001
vn -0.997136 -0.075623 -0.000000
vn -0.288937 -0.957348 -0.000000
vn -0.956086 0.293086 0.000000
vn -0.908473 -0.417943 0.000000
vn 0.898016 0.439963 0.000000
vn -0.084199 -0.032701 -0.995912
vn -0.000001 -0.000000 1.000000
vn -0.550235 0.025482 -0.834621
vn -0.084208 -0.032705 0.995911
vn 0.000001 0.000000 1.000000
vn -0.000000 -0.000000 1.000000
vn 0.000000 0.000000 -1.000000
vn 0.000002 -0.000000 1.000000
vn -0.550236 0.025482 0.834620
vn -0.000000 -0.000001 -1.000000
vn 0.138291 0.053710 -0.988934
vn 0.184480 0.031566 -0.982329
vn 0.000001 0.000000 -1.000000
vn 0.283774 -0.006322 -0.958870
vn 0.240945 -0.005368 0.970524
vn 0.077940 0.053291 -0.995533
vn 0.077946 0.053295 0.995532
vn 0.000001 -0.000001 1.000000
vn 0.409798 0.531793 0.741122
vn 0.584918 0.334750 0.738791
vn -0.145067 -0.024822 -0.989110
vn -0.181214 0.004037 -0.983435
vn 0.218128 0.002010 -0.975918
vn 0.302851 -0.000935 0.953038
usemtl ColobotMesh_mat_1_[512]
s off
f 66/1/1 26/2/1 31/3/1
f 60/4/2 57/1/2 12/2/2
f 34/5/3 25/3/3 11/2/3
f 53/6/4 17/2/4 4/3/4
f 37/6/5 18/2/5 27/3/5
f 56/6/6 20/2/6 16/3/6
f 63/4/7 61/1/7 33/2/7
f 41/7/8 52/8/8 14/9/8
f 33/9/9 19/10/9 3/11/9
f 14/10/10 7/9/10 6/12/10
f 10/13/11 35/14/11 36/9/11
f 5/15/12 23/16/12 6/9/12
f 58/1/13 13/9/13 29/12/13
f 8/12/14 34/5/14 24/17/14
f 5/15/15 8/3/15 9/2/15
f 25/2/16 35/9/16 10/12/16
f 62/1/17 30/2/17 32/3/17
f 20/2/18 44/6/18 40/18/18
f 44/6/19 43/8/19 39/7/19
f 27/12/20 18/9/20 54/8/20
f 54/8/21 53/6/21 45/18/21
f 19/9/22 38/8/22 49/7/22
f 49/7/23 38/8/23 37/6/23
f 17/9/24 55/8/24 47/7/24
f 55/8/25 56/6/25 48/18/25
f 2/2/26 51/6/26 42/18/26
f 42/18/27 51/6/27 52/8/27
f 32/12/28 30/9/28 66/1/28
f 13/9/29 57/1/29 60/4/29
f 26/9/30 61/1/30 63/4/30
f 28/3/31 36/2/31 58/1/31
f 1/12/32 12/9/32 62/1/32
f 39/7/33 43/8/33 2/9/33
f 59/4/34 66/1/34 31/3/34
f 1/3/35 60/4/35 12/2/35
f 24/17/3 34/5/3 11/2/3
f 45/18/36 53/6/36 4/3/36
f 50/18/37 37/6/37 27/3/37
f 48/18/38 56/6/38 16/3/38
f 22/3/39 63/4/39 33/2/39
f 21/12/40 41/7/40 14/9/40
f 22/12/9 33/9/9 3/11/9
f 21/11/10 14/10/10 6/12/10
f 28/12/11 10/13/11 36/9/11
f 7/12/12 5/15/12 6/9/12
f 65/4/41 58/1/41 29/12/41
f 9/9/14 8/12/14 24/17/14
f 23/16/15 5/15/15 9/2/15
f 11/3/16 25/2/16 10/12/16
f 64/4/42 62/1/42 32/3/42
f 16/3/18 20/2/18 40/18/18
f 40/18/19 44/6/19 39/7/19
f 46/7/43 27/12/43 54/8/43
f 46/7/44 54/8/44 45/18/44
f 3/12/45 19/9/45 49/7/45
f 50/18/46 49/7/46 37/6/46
f 4/12/47 17/9/47 47/7/47
f 47/7/48 55/8/48 48/18/48
f 15/3/26 2/2/26 42/18/26
f 41/7/49 42/18/49 52/8/49
f 59/4/50 32/12/50 66/1/50
f 29/12/51 13/9/51 60/4/51
f 31/12/52 26/9/52 63/4/52
f 65/4/53 28/3/53 58/1/53
f 64/4/54 1/12/54 62/1/54
f 15/12/55 39/7/55 2/9/55
usemtl ColobotMesh_mat_2
f 61/19/56 26/20/56 36/21/56
f 6/22/57 23/23/57 22/24/57
f 58/25/58 57/26/58 13/27/58
f 28/21/59 31/20/59 63/28/59
f 45/29/60 4/30/60 3/31/60
f 16/32/57 3/31/57 48/33/57
f 15/34/61 3/31/61 39/35/61
f 21/36/61 3/31/61 41/37/61
f 21/36/61 6/22/61 3/31/61
f 19/31/62 33/24/62 7/22/62
f 23/23/60 9/38/60 22/24/60
f 9/38/61 24/39/61 22/24/61
f 24/39/60 11/40/60 22/24/60
f 11/40/57 10/41/57 22/24/57
f 31/20/61 28/21/61 32/42/61
f 32/42/63 28/21/63 1/43/63
f 60/26/64 65/25/64 29/27/64
f 54/44/65 18/45/65 37/46/65
f 17/30/62 19/31/62 55/47/62
f 20/32/62 19/31/62 44/48/62
f 2/34/62 19/31/62 51/49/62
f 5/23/62 7/22/62 33/24/62
f 8/38/62 5/23/62 33/24/62
f 34/39/62 8/38/62 33/24/62
f 25/40/62 34/39/62 33/24/62
f 35/41/62 25/40/62 33/24/62
f 36/21/66 26/20/66 66/50/66
f 36/21/67 30/42/67 62/51/67
f 27/45/60 46/44/60 50/46/60
f 46/44/60 45/29/60 49/52/60
f 17/30/62 53/29/62 38/52/62
f 53/29/68 54/44/68 37/46/68
f 36/21/69 12/43/69 57/26/69
f 1/43/70 28/21/70 65/25/70
f 61/19/71 36/21/71 33/24/71
f 3/31/61 6/22/61 22/24/61
f 36/21/62 35/41/62 33/24/62
f 22/24/72 28/21/72 63/28/72
f 22/24/61 10/41/61 28/21/61
f 49/52/61 45/29/61 3/31/61
f 3/31/73 4/30/73 47/47/73
f 3/31/60 16/32/60 40/48/60
f 3/31/61 15/34/61 42/49/61
f 3/31/61 47/47/61 48/33/61
f 14/36/62 19/31/62 7/22/62
f 3/31/61 40/48/61 39/35/61
f 3/31/57 42/49/57 41/37/57
f 59/50/74 31/20/74 32/42/74
f 64/51/75 32/42/75 1/43/75
f 19/31/62 20/32/62 56/33/62
f 19/31/62 2/34/62 43/35/62
f 19/31/62 14/36/62 52/37/62
f 19/31/62 56/33/62 55/47/62
f 19/31/62 43/35/62 44/48/62
f 30/42/76 36/21/76 66/50/76
f 19/31/62 52/37/62 51/49/62
f 12/43/77 36/21/77 62/51/77
f 50/46/61 46/44/61 49/52/61
f 19/31/62 17/30/62 38/52/62
f 38/52/68 53/29/68 37/46/68
f 58/25/78 36/21/78 57/26/78
f 60/26/79 1/43/79 65/25/79
