# Blender v2.72 (sub 0) OBJ File: ''
# www.blender.org
mtllib lem3t.mtl
o ColobotMesh_1_ColobotMesh_
v -3.947810 -1.326650 2.000000
v 3.838930 -0.429297 -0.800000
v 3.000000 -2.000000 2.000000
v 3.910470 -1.429260 2.000000
v -1.962100 2.000530 -0.800000
v -1.694200 1.946710 2.000000
v -1.694200 1.946710 -0.800000
v -2.237630 1.967320 -0.800000
v -2.237630 1.967320 2.000000
v -2.879080 1.470200 2.000000
v -2.719200 1.689680 2.000000
v -3.947810 -1.326650 -0.800000
v -4.007480 -0.965584 -0.800000
v 3.460830 -0.106488 -0.800000
v 3.838930 -0.429297 2.000000
v 3.992270 -0.915307 2.000000
v 3.910470 -1.429260 -0.800000
v 3.583180 -1.835910 -0.800000
v 3.000000 -2.000000 -0.800000
v 3.992270 -0.915307 -0.800000
v 3.460830 -0.106488 2.000000
v -3.000000 -2.000000 2.000000
v -1.962100 2.000530 2.000000
v -2.497690 1.859540 2.000000
v -2.719200 1.689680 -0.800000
v -3.440110 -1.903900 -0.800000
v 3.583180 -1.835910 2.000000
v -3.932430 -0.636283 2.000000
v -4.007480 -0.965584 2.000000
v -3.757360 -1.659430 -0.800000
v -3.440110 -1.903900 2.000000
v -3.757360 -1.659430 2.000000
v -3.000000 -2.000000 -0.800000
v -2.497690 1.859540 -0.800000
v -2.879080 1.470200 -0.800000
v -3.932430 -0.636283 -0.800000
vt 0.751953 0.998047
vt 0.751953 0.876953
vt 0.779297 0.876953
vt 0.779297 0.998047
vt 0.998047 0.998047
vt 0.998047 0.876953
vt 0.873047 0.876953
vt 0.873047 0.998047
vt 0.006608 0.585842
vt 0.071929 0.715423
vt 0.064431 0.501953
vt 0.005654 0.543375
vt 0.001953 0.565585
vt 0.472678 0.512047
vt 0.492975 0.537062
vt 0.436513 0.501953
vt 0.498047 0.568678
vt 0.488538 0.598575
vt 0.465091 0.618433
vt 0.145408 0.744736
vt 0.128795 0.748047
vt 0.111708 0.746004
vt 0.095581 0.739374
vt 0.081844 0.728925
vt 0.037138 0.507865
vt 0.017464 0.522903
vn 0.953700 0.300900 0.000000
vn 0.197000 0.980400 0.000000
vn 0.000000 -1.000000 0.000000
vn 0.270900 -0.962600 0.000000
vn 0.779000 -0.627000 0.000000
vn 0.987600 -0.157200 -0.000000
vn 0.649300 0.760500 0.000000
vn 0.370000 0.929000 0.000000
vn -0.119700 0.992800 0.000000
vn -0.382900 0.923800 0.000000
vn -0.608500 0.793500 0.000000
vn -0.808300 0.588800 0.000000
vn -0.894400 0.447300 0.000000
vn -0.975000 0.222200 0.000000
vn -0.986600 -0.163000 -0.000000
vn -0.986600 -0.163100 0.000000
vn -0.867900 -0.496700 0.000000
vn -0.610400 -0.792100 0.000000
vn -0.213300 -0.977000 0.000000
vn 0.000000 0.000000 -1.000000
vn 0.000000 0.000000 1.000000
usemtl ColobotMesh_mat_1
s off
f 2/1/1 15/2/1 16/3/1
f 7/4/2 5/1/2 6/3/2
f 19/5/3 3/6/3 22/2/3
f 33/1/3 19/5/3 22/2/3
f 18/4/4 27/3/4 3/2/4
f 19/1/4 18/4/4 3/2/4
f 17/4/5 4/3/5 27/2/5
f 18/1/5 17/4/5 27/2/5
f 20/4/6 16/3/6 4/2/6
f 17/1/6 20/4/6 4/2/6
f 20/4/1 2/1/1 16/3/1
f 14/1/7 21/2/7 15/3/7
f 2/4/7 14/1/7 15/3/7
f 7/1/8 6/2/8 21/6/8
f 14/5/8 7/1/8 21/6/8
f 5/1/2 23/2/2 6/3/2
f 8/1/9 9/2/9 23/3/9
f 5/4/9 8/1/9 23/3/9
f 34/1/10 24/2/10 9/3/10
f 8/4/10 34/1/10 9/3/10
f 25/1/11 11/2/11 24/3/11
f 34/4/11 25/1/11 24/3/11
f 35/1/12 10/2/12 11/3/12
f 25/4/12 35/1/12 11/3/12
f 36/1/13 28/2/13 10/7/13
f 35/8/13 36/1/13 10/7/13
f 13/1/14 29/2/14 28/3/14
f 36/4/14 13/1/14 28/3/14
f 12/4/15 1/3/15 29/2/15
f 13/1/16 12/4/16 29/2/16
f 30/4/17 32/3/17 1/2/17
f 12/1/17 30/4/17 1/2/17
f 26/4/18 31/3/18 32/2/18
f 30/1/18 26/4/18 32/2/18
f 33/4/19 22/3/19 31/2/19
f 26/1/19 33/4/19 31/2/19
usemtl ColobotMesh_mat_2
f 36/9/20 35/10/20 33/11/20
f 36/9/20 12/12/20 13/13/20
f 27/14/21 4/15/21 3/16/21
f 4/15/21 16/17/21 3/16/21
f 16/17/21 15/18/21 3/16/21
f 15/18/21 21/19/21 3/16/21
f 21/19/21 6/20/21 3/16/21
f 3/16/21 6/20/21 22/11/21
f 6/20/21 23/21/21 22/11/21
f 23/21/21 9/22/21 22/11/21
f 9/22/21 24/23/21 22/11/21
f 24/23/21 11/24/21 22/11/21
f 11/24/21 10/10/21 22/11/21
f 10/10/21 28/9/21 22/11/21
f 22/11/21 28/9/21 31/25/21
f 31/25/21 28/9/21 32/26/21
f 32/26/21 28/9/21 1/12/21
f 1/12/21 28/9/21 29/13/21
f 17/15/20 18/14/20 19/16/20
f 20/17/20 17/15/20 19/16/20
f 2/18/20 20/17/20 19/16/20
f 14/19/20 2/18/20 19/16/20
f 7/20/20 14/19/20 19/16/20
f 7/20/20 19/16/20 33/11/20
f 5/21/20 7/20/20 33/11/20
f 8/22/20 5/21/20 33/11/20
f 34/23/20 8/22/20 33/11/20
f 25/24/20 34/23/20 33/11/20
f 35/10/20 25/24/20 33/11/20
f 36/9/20 33/11/20 26/25/20
f 36/9/20 26/25/20 30/26/20
f 36/9/20 30/26/20 12/12/20
