# Blender v2.77 (sub 0) OBJ File: 'lem3t.blend'
# www.blender.org
mtllib lem3t.mtl
o ColobotMesh_1_ColobotMesh_
v -3.947810 -1.326650 2.000000
v 3.838930 -0.429297 -0.800000
v 3.000000 -2.000000 2.000000
v 3.910470 -1.429260 2.000000
v -1.962100 2.000530 -0.800000
v -1.694200 1.946710 2.000000
v -1.694200 1.946710 -0.800000
v -2.237630 1.967320 -0.800000
v -2.237630 1.967320 2.000000
v -2.879080 1.470200 2.000000
v -2.719200 1.689680 2.000000
v -3.947810 -1.326650 -0.800000
v -4.007480 -0.965584 -0.800000
v 3.460830 -0.106488 -0.800000
v 3.838930 -0.429297 2.000000
v 3.992270 -0.915307 2.000000
v 3.910470 -1.429260 -0.800000
v 3.583180 -1.835910 -0.800000
v 3.000000 -2.000000 -0.800000
v 3.992270 -0.915307 -0.800000
v 3.460830 -0.106488 2.000000
v -3.000000 -2.000000 2.000000
v -1.962100 2.000530 2.000000
v -2.497690 1.859540 2.000000
v -2.719200 1.689680 -0.800000
v -3.440110 -1.903900 -0.800000
v 3.583180 -1.835910 2.000000
v -3.932430 -0.636283 2.000000
v -4.007480 -0.965584 2.000000
v -3.757360 -1.659430 -0.800000
v -3.440110 -1.903900 2.000000
v -3.757360 -1.659430 2.000000
v -3.000000 -2.000000 -0.800000
v -2.497690 1.859540 -0.800000
v -2.879080 1.470200 -0.800000
v -3.932430 -0.636283 -0.800000
v 3.400507 -1.914630 -0.800000
v 3.206114 -1.969327 -0.800000
v 3.913948 -0.582419 2.000000
v 3.965062 -0.744422 2.000000
v 3.602767 -0.199474 2.000000
v 3.728800 -0.307077 2.000000
v 3.913948 -0.582418 -0.800000
v 3.965062 -0.744422 -0.800000
v 3.823090 -1.584249 2.000000
v 3.713993 -1.719799 2.000000
v 3.962320 -1.262608 2.000000
v 3.989586 -1.091290 2.000000
v 3.206115 -1.969328 2.000000
v 3.400508 -1.914631 2.000000
v 3.728800 -0.307077 -0.800000
v 3.602767 -0.199474 -0.800000
v 3.823090 -1.584249 -0.800000
v 3.713994 -1.719799 -0.800000
v 3.962320 -1.262608 -0.800000
v 3.989586 -1.091290 -0.800000
v -3.993609 -1.148483 -0.814729
v -3.982341 -0.799097 -0.811491
v -3.610516 -1.797762 2.018064
v -3.993609 -1.148483 2.014729
v -3.225794 -1.968581 -0.815995
v -3.867226 -1.501814 -0.815568
v -3.225795 -1.968583 2.015997
v -3.867226 -1.501814 2.015567
v -3.982341 -0.799097 2.011491
v -3.610517 -1.797762 -0.818065
vt 0.7656 0.8770
vt 0.7793 0.9980
vt 0.7793 0.8770
vt 0.7656 0.9980
vt 0.7793 0.8770
vt 0.7656 0.8770
vt 0.7657 0.9980
vt 0.7793 0.8770
vt 0.7657 0.8770
vt 0.7702 0.9980
vt 0.7793 0.8770
vt 0.7702 0.8770
vt 0.7702 0.9980
vt 0.7793 0.8770
vt 0.7702 0.8770
vt 0.7702 0.9980
vt 0.7793 0.8770
vt 0.7702 0.8770
vt 0.7656 0.9980
vt 0.7793 0.8770
vt 0.7656 0.8770
vt 0.7611 0.9980
vt 0.7520 0.8770
vt 0.7611 0.8770
vt 0.7520 0.8770
vt 0.9980 0.9980
vt 0.9980 0.8770
vt 0.9980 0.9980
vt 0.7520 0.8770
vt 0.9980 0.8770
vt 0.8730 0.9980
vt 0.7520 0.8770
vt 0.8730 0.8770
vt 0.7655 0.9980
vt 0.7520 0.9980
vt 0.7656 0.8770
vt 0.7520 0.9980
vt 0.7520 0.8770
vt 0.7520 0.9980
vt 0.7520 0.8770
vt 0.7793 0.8770
vt 0.7655 0.8770
vt 0.7793 0.9980
vt 0.7520 0.8770
vt 0.7656 0.8770
vt 0.7793 0.9980
vt 0.7793 0.8770
vt 0.7793 0.9980
vt 0.7702 0.8770
vt 0.7702 0.9980
vt 0.7611 0.8770
vt 0.7520 0.9980
vt 0.7611 0.8770
vt 0.7520 0.8770
vt 0.7611 0.9980
vt 0.7520 0.9980
vt 0.7611 0.8770
vt 0.7520 0.8770
vt 0.7520 0.9980
vt 0.7611 0.8770
vt 0.7520 0.8770
vt 0.7611 0.9980
vt 0.7793 0.9980
vt 0.7702 0.8770
vt 0.7793 0.8770
vt 0.7702 0.9980
vt 0.7520 0.9980
vt 0.7520 0.8770
vt 0.7520 0.8770
vt 0.7793 0.9980
vt 0.7793 0.8770
vt 0.7520 0.9980
vt 0.7520 0.8770
vt 0.7611 0.9980
vt 0.7520 0.8770
vt 0.7656 0.9980
vt 0.7793 0.9980
vt 0.7793 0.9980
vt 0.7793 0.9980
vt 0.7793 0.9980
vt 0.7520 0.9980
vt 0.7520 0.9980
vt 0.7520 0.9980
vt 0.7656 0.9980
vt 0.7793 0.9980
vt 0.7520 0.9980
vt 0.7656 0.9980
vt 0.7611 0.9980
vt 0.7520 0.9980
vt 0.7520 0.9980
vt 0.0520 0.5039
vt 0.0388 0.5078
vt 0.0085 0.5858
vt 0.1462 0.7448
vt 0.1297 0.7481
vt 0.0659 0.5019
vt 0.0055 0.5758
vt 0.0048 0.5543
vt 0.0039 0.5656
vt 0.0085 0.5858
vt 0.0388 0.5078
vt 0.0520 0.5039
vt 0.4857 0.5275
vt 0.4911 0.5370
vt 0.4350 0.5019
vt 0.4961 0.5687
vt 0.4959 0.5578
vt 0.4867 0.5986
vt 0.4913 0.5892
vt 0.4634 0.6184
vt 0.4721 0.6127
vt 0.4350 0.5019
vt 0.0659 0.5019
vt 0.1462 0.7448
vt 0.1128 0.7460
vt 0.0968 0.7394
vt 0.0832 0.7289
vt 0.0733 0.7154
vt 0.0193 0.5229
vt 0.0076 0.5434
vt 0.0048 0.5543
vt 0.0055 0.5758
vt 0.0039 0.5656
vt 0.4790 0.5192
vt 0.4709 0.5120
vt 0.4597 0.5072
vt 0.4911 0.5370
vt 0.4943 0.5473
vt 0.4961 0.5687
vt 0.4944 0.5792
vt 0.4867 0.5986
vt 0.4799 0.6061
vt 0.1297 0.7481
vt 0.1128 0.7460
vt 0.0968 0.7394
vt 0.0832 0.7289
vt 0.0733 0.7154
vt 0.0283 0.5144
vt 0.0193 0.5229
vt 0.0125 0.5326
vt 0.4709 0.5120
vt 0.4790 0.5192
vt 0.4597 0.5072
vt 0.4477 0.5038
vt 0.4857 0.5275
vt 0.4477 0.5038
vt 0.0076 0.5434
vt 0.4943 0.5473
vt 0.4944 0.5792
vt 0.4799 0.6061
vt 0.4634 0.6184
vt 0.0283 0.5144
vt 0.0125 0.5326
vt 0.4959 0.5578
vt 0.4913 0.5892
vt 0.4721 0.6127
vn -0.2629 -0.3417 0.9022
vn -0.3291 -0.6850 -0.6499
vn -0.3379 -0.6787 0.6520
vn -0.6070 -0.1374 -0.7827
vn -0.6838 -0.2463 0.6868
vn -0.5991 -0.1353 0.7891
vn -0.3670 0.6359 -0.6789
vn -0.5272 0.5144 0.6763
vn -0.3670 0.6359 0.6789
vn 0.5999 -0.4065 -0.6891
vn 0.6697 -0.2891 0.6841
vn 0.5999 -0.4065 0.6891
vn 0.2410 -0.6800 -0.6925
vn 0.3969 -0.6241 0.6730
vn 0.2410 -0.6800 0.6925
vn 0.7197 -0.0624 -0.6914
vn 0.7237 0.0517 0.6881
vn 0.7197 -0.0624 0.6914
vn -0.1294 -0.6838 -0.7180
vn -0.0370 -0.7236 0.6892
vn -0.1294 -0.6838 0.7180
vn 0.4324 0.5767 -0.6931
vn 0.3360 0.6462 0.6852
vn 0.4324 0.5767 0.6931
vn 0.0533 -0.7210 -0.6908
vn 0.0533 -0.7210 0.6908
vn 0.3360 0.6462 -0.6852
vn 0.2067 0.6963 0.6873
vn -0.6192 0.3768 -0.6889
vn -0.6718 0.2738 0.6882
vn -0.6192 0.3768 0.6889
vn 0.0289 0.7389 -0.6731
vn 0.2067 0.6963 -0.6873
vn -0.6121 0.1737 0.7714
vn -0.8958 0.0357 -0.4430
vn -0.8958 0.0357 0.4430
vn -0.1865 0.7113 -0.6777
vn -0.1865 0.7113 0.6777
vn 0.0289 0.7389 0.6731
vn -0.5272 0.5144 -0.6763
vn -0.3706 -0.2123 0.9041
vn -0.6057 -0.4808 -0.6340
vn -0.5523 -0.4761 0.6843
vn 0.7237 0.0517 -0.6881
vn 0.7036 0.1661 0.6908
vn 0.7036 0.1661 -0.6908
vn 0.6714 0.2686 0.6906
vn 0.3969 -0.6241 -0.6730
vn 0.5248 -0.5001 0.6888
vn 0.5248 -0.5001 -0.6888
vn 0.1509 -0.7048 0.6931
vn 0.6697 -0.2891 -0.6841
vn 0.7036 -0.1645 0.6913
vn 0.7036 -0.1645 -0.6913
vn 0.6095 0.4121 -0.6772
vn 0.5031 0.5167 0.6927
vn 0.6095 0.4121 0.6772
vn 0.5031 0.5167 -0.6927
vn -0.6716 0.2753 -0.6878
vn -0.7480 -0.2331 -0.6213
vn 0.6714 0.2686 -0.6906
vn -0.3895 -0.5589 -0.7320
vn -0.0370 -0.7236 -0.6892
vn -0.6212 0.1764 -0.7635
vn -0.5569 -0.3584 -0.7492
vn 0.1509 -0.7048 -0.6931
vn -0.0842 -0.0327 -0.9959
vn 0.0000 -0.0000 1.0000
vn -0.5502 0.0255 -0.8346
vn -0.0842 -0.0327 0.9959
vn 0.0000 0.0000 -1.0000
vn -0.5502 0.0255 0.8346
vn 0.1383 0.0537 -0.9889
vn 0.1845 0.0316 -0.9823
vn 0.2838 -0.0063 -0.9589
vn 0.2410 -0.0054 0.9705
vn 0.0779 0.0533 -0.9955
vn 0.0779 0.0533 0.9955
vn 0.4098 0.5318 0.7411
vn 0.5849 0.3347 0.7388
vn -0.1451 -0.0248 -0.9891
vn -0.1812 0.0040 -0.9834
vn 0.2181 0.0020 -0.9759
vn 0.3028 -0.0009 0.9530
usemtl ColobotMesh_mat_1_[512]
s 1
f 59/1/1 26/2/2 31/3/3
f 57/4/4 1/5/5 60/6/6
f 34/7/7 11/8/8 24/9/9
f 53/10/10 4/11/11 45/12/12
f 37/13/13 27/14/14 50/15/15
f 56/16/16 16/17/17 48/18/18
f 61/19/19 22/20/20 63/21/21
f 52/22/22 21/23/23 41/24/24
f 22/25/20 19/26/25 3/27/26
f 14/28/27 6/29/28 21/30/23
f 35/31/29 28/32/30 10/33/31
f 5/34/32 6/29/28 7/35/33
f 65/36/34 13/37/35 29/38/36
f 8/39/37 24/9/9 9/40/38
f 5/34/32 9/41/38 23/42/39
f 25/43/40 10/44/31 11/8/8
f 64/45/41 30/46/42 32/47/43
f 20/48/44 40/49/45 16/17/17
f 44/50/46 39/51/47 40/49/45
f 18/52/48 46/53/49 27/54/14
f 54/55/50 45/12/12 46/53/49
f 19/56/25 49/57/51 3/58/26
f 49/57/51 37/13/13 50/15/15
f 17/59/52 47/60/53 4/61/11
f 55/62/54 48/18/18 47/60/53
f 2/63/55 42/64/56 15/65/57
f 51/66/58 41/24/24 42/64/56
f 30/67/42 59/1/1 32/68/43
f 13/37/35 60/6/6 29/38/36
f 31/69/3 61/19/19 63/21/21
f 36/70/59 65/36/34 28/71/30
f 12/72/60 64/45/41 1/73/5
f 43/74/61 15/75/57 39/51/47
f 59/1/1 66/76/62 26/2/2
f 57/4/4 12/77/60 1/5/5
f 34/7/7 25/43/40 11/8/8
f 53/10/10 17/78/52 4/11/11
f 37/13/13 18/79/48 27/14/14
f 56/16/16 20/48/44 16/17/17
f 61/19/19 33/80/63 22/20/20
f 52/22/22 14/81/27 21/23/23
f 22/25/20 33/82/63 19/26/25
f 14/28/27 7/35/33 6/29/28
f 35/31/29 36/83/59 28/32/30
f 5/34/32 23/42/39 6/29/28
f 65/36/34 58/84/64 13/37/35
f 8/39/37 34/7/7 24/9/9
f 5/34/32 8/85/37 9/41/38
f 25/43/40 35/86/29 10/44/31
f 64/45/41 62/87/65 30/46/42
f 20/48/44 44/50/46 40/49/45
f 44/50/46 43/74/61 39/51/47
f 18/52/48 54/55/50 46/53/49
f 54/55/50 53/10/10 45/12/12
f 19/56/25 38/88/66 49/57/51
f 49/57/51 38/88/66 37/13/13
f 17/59/52 55/62/54 47/60/53
f 55/62/54 56/16/16 48/18/18
f 2/63/55 51/66/58 42/64/56
f 51/66/58 52/22/22 41/24/24
f 30/67/42 66/76/62 59/1/1
f 13/37/35 57/4/4 60/6/6
f 31/69/3 26/89/2 61/19/19
f 36/70/59 58/84/64 65/36/34
f 12/72/60 62/87/65 64/45/41
f 43/74/61 2/90/55 15/75/57
usemtl ColobotMesh_mat_2
s off
f 61/91/67 26/92/67 36/93/67
f 6/94/68 23/95/68 22/96/68
f 58/97/69 57/98/69 13/99/69
f 28/100/70 31/101/70 63/102/70
f 45/103/68 4/104/68 3/105/68
f 16/106/68 3/105/68 48/107/68
f 15/108/68 3/105/68 39/109/68
f 21/110/68 3/105/68 41/111/68
f 21/110/68 6/94/68 3/105/68
f 19/112/71 33/113/71 7/114/71
f 23/95/68 9/115/68 22/96/68
f 9/115/68 24/116/68 22/96/68
f 24/116/68 11/117/68 22/96/68
f 11/117/68 10/118/68 22/96/68
f 31/101/68 28/100/68 32/119/68
f 32/119/68 28/100/68 1/120/68
f 60/121/72 65/122/72 29/123/72
f 54/124/71 18/125/71 37/126/71
f 17/127/71 19/112/71 55/128/71
f 20/129/71 19/112/71 44/130/71
f 2/131/71 19/112/71 51/132/71
f 5/133/71 7/114/71 33/113/71
f 8/134/71 5/133/71 33/113/71
f 34/135/71 8/134/71 33/113/71
f 25/136/71 34/135/71 33/113/71
f 35/137/71 25/136/71 33/113/71
f 36/93/73 26/92/73 66/138/73
f 36/93/74 30/139/74 62/140/74
f 27/141/68 46/142/68 50/143/68
f 46/142/68 45/103/68 49/144/68
f 17/127/71 53/145/71 38/146/71
f 53/145/71 54/124/71 37/126/71
f 36/93/75 12/147/75 57/98/75
f 1/120/76 28/100/76 65/122/76
f 61/91/77 36/93/77 33/113/77
f 3/105/68 6/94/68 22/96/68
f 36/93/71 35/137/71 33/113/71
f 22/96/78 28/100/78 63/102/78
f 22/96/68 10/118/68 28/100/68
f 49/144/68 45/103/68 3/105/68
f 3/105/68 4/104/68 47/148/68
f 3/105/68 16/106/68 40/149/68
f 3/105/68 15/108/68 42/150/68
f 3/105/68 47/148/68 48/107/68
f 14/151/71 19/112/71 7/114/71
f 3/105/68 40/149/68 39/109/68
f 3/105/68 42/150/68 41/111/68
f 59/152/79 31/101/79 32/119/79
f 64/153/80 32/119/80 1/120/80
f 19/112/71 20/129/71 56/154/71
f 19/112/71 2/131/71 43/155/71
f 19/112/71 14/151/71 52/156/71
f 19/112/71 56/154/71 55/128/71
f 19/112/71 43/155/71 44/130/71
f 30/139/81 36/93/81 66/138/81
f 19/112/71 52/156/71 51/132/71
f 12/147/82 36/93/82 62/140/82
f 50/143/68 46/142/68 49/144/68
f 19/112/71 17/127/71 38/146/71
f 38/146/71 53/145/71 37/126/71
f 58/97/83 36/93/83 57/98/83
f 60/121/84 1/120/84 65/122/84
