# Blender v2.77 (sub 0) OBJ File: 'lem4.blend'
# www.blender.org
mtllib lem4.mtl
o ColobotMesh_1.001_ColobotMesh_.001
v 1.634982 -0.006019 -0.798416
v 1.634982 -0.006020 0.801581
v 1.634982 0.693980 -0.798416
v 1.634982 0.693979 0.801581
v 1.703594 0.690609 -0.798416
v 1.703594 0.690608 0.801581
v 1.771545 0.680530 -0.798416
v 1.771545 0.680529 0.801581
v 1.838181 0.663838 -0.798416
v 1.838181 0.663837 0.801581
v 1.902860 0.640696 -0.798416
v 1.902860 0.640695 0.801581
v 1.964960 0.611325 -0.798416
v 1.964960 0.611324 0.801581
v 2.023881 0.576009 -0.798416
v 2.023881 0.576008 0.801581
v 2.079057 0.535087 -0.798416
v 2.079057 0.535087 0.801581
v 2.129956 0.488955 -0.798416
v 2.129956 0.488954 0.801581
v 2.176089 0.438056 -0.798416
v 2.176089 0.438055 0.801581
v 2.217010 0.382879 -0.798416
v 2.217010 0.382879 0.801581
v 2.252326 0.323958 -0.798416
v 2.252326 0.323957 0.801581
v 2.281697 0.261859 -0.798416
v 2.281697 0.261858 0.801581
v 2.304840 0.197180 -0.798416
v 2.304840 0.197179 0.801581
v 2.321531 0.130544 -0.798416
v 2.321531 0.130543 0.801581
v 2.331611 0.062593 -0.798416
v 2.331611 0.062592 0.801581
v 2.334981 -0.006019 -0.798416
v 2.334981 -0.006020 0.801581
v 2.331611 -0.074631 -0.798416
v 2.331611 -0.074632 0.801581
v 2.321531 -0.142583 -0.798417
v 2.321531 -0.142583 0.801580
v 2.304840 -0.209218 -0.798417
v 2.304840 -0.209219 0.801580
v 2.281697 -0.273898 -0.798417
v 2.281697 -0.273898 0.801580
v 2.252326 -0.335997 -0.798417
v 2.252326 -0.335998 0.801580
v 2.217010 -0.394918 -0.798417
v 2.217010 -0.394919 0.801580
v 2.176089 -0.450094 -0.798417
v 2.176089 -0.450095 0.801580
v 2.129956 -0.500994 -0.798417
v 2.129956 -0.500995 0.801580
v 2.079057 -0.547126 -0.798417
v 2.079057 -0.547127 0.801580
v 2.023881 -0.588048 -0.798417
v 2.023881 -0.588048 0.801580
v 1.964959 -0.623364 -0.798417
v 1.964959 -0.623365 0.801580
v 1.902860 -0.652734 -0.798417
v 1.902860 -0.652735 0.801580
v 1.838181 -0.675877 -0.798417
v 1.838181 -0.675878 0.801580
v 1.771545 -0.692568 -0.798417
v 1.771545 -0.692569 0.801580
v 1.703594 -0.702648 -0.798417
v 1.703594 -0.702649 0.801580
v 1.634982 -0.706018 -0.798417
v 1.634982 -0.706019 0.801580
v 1.566370 -0.702648 -0.798417
v 1.566370 -0.702649 0.801580
v 1.498419 -0.692568 -0.798417
v 1.498419 -0.692569 0.801580
v 1.431783 -0.675876 -0.798417
v 1.431783 -0.675877 0.801580
v 1.367104 -0.652734 -0.798417
v 1.367104 -0.652735 0.801580
v 1.305004 -0.623363 -0.798417
v 1.305004 -0.623364 0.801580
v 1.246083 -0.588047 -0.798417
v 1.246083 -0.588048 0.801580
v 1.190907 -0.547125 -0.798417
v 1.190907 -0.547126 0.801580
v 1.140007 -0.500993 -0.798417
v 1.140007 -0.500994 0.801580
v 1.093875 -0.450094 -0.798417
v 1.093875 -0.450094 0.801580
v 1.052954 -0.394918 -0.798417
v 1.052954 -0.394918 0.801580
v 1.017638 -0.335996 -0.798417
v 1.017638 -0.335997 0.801580
v 0.988267 -0.273897 -0.798417
v 0.988267 -0.273898 0.801580
v 0.965125 -0.209218 -0.798417
v 0.965125 -0.209219 0.801580
v 0.948433 -0.142582 -0.798417
v 0.948433 -0.142583 0.801580
v 0.938354 -0.074631 -0.798416
v 0.938354 -0.074632 0.801581
v 0.934983 -0.006020 -0.798416
v 0.934983 -0.006020 0.801581
v 0.938354 0.062592 -0.798416
v 0.938354 0.062591 0.801581
v 0.948433 0.130543 -0.798416
v 0.948433 0.130542 0.801581
v 0.965125 0.197179 -0.798416
v 0.965125 0.197178 0.801581
v 0.988267 0.261858 -0.798416
v 0.988267 0.261857 0.801581
v 1.017638 0.323957 -0.798416
v 1.017638 0.323956 0.801581
v 1.052954 0.382878 -0.798416
v 1.052954 0.382878 0.801581
v 1.093875 0.438054 -0.798416
v 1.093875 0.438054 0.801581
v 1.140007 0.488954 -0.798416
v 1.140007 0.488953 0.801581
v 1.190906 0.535086 -0.798416
v 1.190906 0.535085 0.801581
v 1.246082 0.576008 -0.798416
v 1.246082 0.576007 0.801581
v 1.305003 0.611324 -0.798416
v 1.305003 0.611323 0.801581
v 1.367102 0.640695 -0.798416
v 1.367102 0.640694 0.801581
v 1.431781 0.663838 -0.798416
v 1.431781 0.663837 0.801581
v 1.498417 0.680529 -0.798416
v 1.498417 0.680528 0.801581
v 1.566368 0.690609 -0.798416
v 1.566368 0.690608 0.801581
vt 0.9219 0.4531
vt 0.9219 0.4082
vt 0.9263 0.4084
vt 0.9219 0.4531
vt 0.8772 0.4575
vt 0.8770 0.4531
vt 0.9306 0.4091
vt 0.8778 0.4619
vt 0.9349 0.4101
vt 0.8789 0.4662
vt 0.9391 0.4116
vt 0.8804 0.4703
vt 0.9430 0.4135
vt 0.8823 0.4743
vt 0.9468 0.4158
vt 0.8845 0.4781
vt 0.9504 0.4184
vt 0.8872 0.4816
vt 0.9536 0.4214
vt 0.8901 0.4849
vt 0.9566 0.4246
vt 0.8934 0.4878
vt 0.9592 0.4282
vt 0.8969 0.4905
vt 0.9615 0.4320
vt 0.9007 0.4927
vt 0.9634 0.4359
vt 0.9047 0.4946
vt 0.9648 0.4401
vt 0.9088 0.4961
vt 0.9659 0.4444
vt 0.9131 0.4972
vt 0.9666 0.4487
vt 0.9175 0.4978
vt 0.9668 0.4531
vt 0.9219 0.4980
vt 0.9666 0.4575
vt 0.9263 0.4978
vt 0.9659 0.4619
vt 0.9306 0.4972
vt 0.9649 0.4662
vt 0.9349 0.4961
vt 0.9634 0.4703
vt 0.9391 0.4946
vt 0.9615 0.4743
vt 0.9431 0.4927
vt 0.9592 0.4781
vt 0.9468 0.4905
vt 0.9566 0.4816
vt 0.9504 0.4878
vt 0.9536 0.4849
vt 0.9536 0.4849
vt 0.9504 0.4878
vt 0.9566 0.4816
vt 0.9468 0.4905
vt 0.9592 0.4781
vt 0.9431 0.4927
vt 0.9615 0.4743
vt 0.9391 0.4946
vt 0.9634 0.4703
vt 0.9349 0.4961
vt 0.9649 0.4662
vt 0.9306 0.4972
vt 0.9659 0.4619
vt 0.9263 0.4978
vt 0.9666 0.4575
vt 0.9219 0.4980
vt 0.9668 0.4531
vt 0.9175 0.4978
vt 0.9666 0.4487
vt 0.9131 0.4972
vt 0.9659 0.4444
vt 0.9088 0.4961
vt 0.9648 0.4401
vt 0.9047 0.4946
vt 0.9634 0.4359
vt 0.9007 0.4927
vt 0.9615 0.4320
vt 0.8969 0.4905
vt 0.9592 0.4282
vt 0.8934 0.4878
vt 0.9566 0.4246
vt 0.8901 0.4849
vt 0.9536 0.4214
vt 0.8872 0.4816
vt 0.9504 0.4184
vt 0.8845 0.4781
vt 0.9468 0.4158
vt 0.8823 0.4743
vt 0.9430 0.4135
vt 0.8804 0.4703
vt 0.9391 0.4116
vt 0.8789 0.4662
vt 0.9349 0.4101
vt 0.8778 0.4619
vt 0.9306 0.4091
vt 0.8772 0.4575
vt 0.9263 0.4084
vt 0.8770 0.4531
vt 0.9219 0.4082
vt 0.8772 0.4487
vt 0.9175 0.4084
vt 0.8778 0.4444
vt 0.9131 0.4091
vt 0.8789 0.4401
vt 0.9088 0.4102
vt 0.8804 0.4359
vt 0.9047 0.4116
vt 0.8823 0.4320
vt 0.9007 0.4135
vt 0.8845 0.4282
vt 0.8969 0.4158
vt 0.8872 0.4246
vt 0.8934 0.4184
vt 0.8901 0.4214
vt 0.8901 0.4214
vt 0.8934 0.4184
vt 0.8872 0.4246
vt 0.8969 0.4158
vt 0.8845 0.4282
vt 0.9007 0.4135
vt 0.8823 0.4320
vt 0.9047 0.4116
vt 0.8804 0.4359
vt 0.9088 0.4102
vt 0.8789 0.4401
vt 0.9131 0.4091
vt 0.8778 0.4444
vt 0.9175 0.4084
vt 0.8772 0.4487
vt 0.5815 0.9914
vt 0.5806 0.9923
vt 0.5815 0.9923
vt 0.5797 0.9850
vt 0.5788 0.9859
vt 0.5797 0.9859
vt 0.5842 0.9878
vt 0.5833 0.9887
vt 0.5842 0.9887
vt 0.5860 0.9896
vt 0.5851 0.9905
vt 0.5860 0.9905
vt 0.5833 0.9878
vt 0.5824 0.9887
vt 0.5833 0.9887
vt 0.5860 0.9887
vt 0.5851 0.9896
vt 0.5860 0.9896
vt 0.5824 0.9914
vt 0.5815 0.9923
vt 0.5824 0.9923
vt 0.5824 0.9850
vt 0.5815 0.9859
vt 0.5824 0.9859
vt 0.5806 0.9914
vt 0.5797 0.9923
vt 0.5806 0.9923
vt 0.5815 0.9905
vt 0.5806 0.9914
vt 0.5815 0.9914
vt 0.5851 0.9878
vt 0.5842 0.9887
vt 0.5851 0.9887
vt 0.5806 0.9859
vt 0.5797 0.9869
vt 0.5806 0.9869
vt 0.5833 0.9859
vt 0.5824 0.9869
vt 0.5833 0.9869
vt 0.5806 0.9850
vt 0.5797 0.9859
vt 0.5833 0.9850
vt 0.5824 0.9859
vt 0.5833 0.9859
vt 0.5806 0.9887
vt 0.5797 0.9896
vt 0.5806 0.9896
vt 0.5851 0.9905
vt 0.5842 0.9914
vt 0.5851 0.9914
vt 0.5815 0.9869
vt 0.5806 0.9878
vt 0.5815 0.9878
vt 0.5824 0.9905
vt 0.5815 0.9914
vt 0.5824 0.9914
vt 0.5815 0.9896
vt 0.5806 0.9905
vt 0.5815 0.9905
vt 0.5797 0.9878
vt 0.5788 0.9887
vt 0.5797 0.9887
vt 0.5833 0.9869
vt 0.5824 0.9878
vt 0.5833 0.9878
vt 0.5860 0.9869
vt 0.5851 0.9859
vt 0.5851 0.9869
vt 0.5806 0.9869
vt 0.5797 0.9878
vt 0.5806 0.9878
vt 0.5824 0.9859
vt 0.5815 0.9869
vt 0.5824 0.9869
vt 0.5806 0.9905
vt 0.5797 0.9914
vt 0.5806 0.9914
vt 0.5842 0.9914
vt 0.5833 0.9923
vt 0.5842 0.9923
vt 0.5806 0.9896
vt 0.5797 0.9905
vt 0.5806 0.9905
vt 0.5842 0.9887
vt 0.5833 0.9896
vt 0.5842 0.9896
vt 0.5788 0.9869
vt 0.5797 0.9869
vt 0.5842 0.9869
vt 0.5833 0.9878
vt 0.5842 0.9878
vt 0.5851 0.9859
vt 0.5842 0.9869
vt 0.5851 0.9869
vt 0.5824 0.9896
vt 0.5815 0.9905
vt 0.5824 0.9905
vt 0.5824 0.9869
vt 0.5815 0.9878
vt 0.5824 0.9878
vt 0.5815 0.9887
vt 0.5824 0.9887
vt 0.5815 0.9850
vt 0.5806 0.9859
vt 0.5815 0.9859
vt 0.5833 0.9914
vt 0.5824 0.9923
vt 0.5833 0.9923
vt 0.5815 0.9859
vt 0.5806 0.9869
vt 0.5797 0.9905
vt 0.5788 0.9896
vt 0.5788 0.9905
vt 0.5797 0.9869
vt 0.5788 0.9878
vt 0.5797 0.9878
vt 0.5815 0.9878
vt 0.5806 0.9887
vt 0.5815 0.9887
vt 0.5833 0.9905
vt 0.5824 0.9914
vt 0.5833 0.9914
vt 0.5860 0.9878
vt 0.5851 0.9887
vt 0.5860 0.9887
vt 0.5860 0.9850
vt 0.5851 0.9859
vt 0.5860 0.9859
vt 0.5815 0.9896
vt 0.5806 0.9887
vt 0.5806 0.9896
vt 0.5806 0.9878
vt 0.5797 0.9887
vt 0.5806 0.9887
vt 0.5851 0.9887
vt 0.5842 0.9896
vt 0.5851 0.9896
vt 0.5842 0.9905
vt 0.5833 0.9914
vt 0.5842 0.9914
vt 0.5851 0.9896
vt 0.5842 0.9905
vt 0.5824 0.9887
vt 0.5815 0.9896
vt 0.5824 0.9896
vt 0.5797 0.9914
vt 0.5788 0.9923
vt 0.5797 0.9923
vt 0.5833 0.9905
vt 0.5842 0.9905
vt 0.5824 0.9896
vt 0.5833 0.9896
vt 0.5797 0.9905
vt 0.5788 0.9914
vt 0.5797 0.9914
vt 0.5842 0.9850
vt 0.5833 0.9859
vt 0.5842 0.9859
vt 0.5797 0.9896
vt 0.5788 0.9887
vt 0.5788 0.9896
vt 0.5842 0.9859
vt 0.5833 0.9869
vt 0.5842 0.9869
vt 0.5851 0.9869
vt 0.5842 0.9878
vt 0.5851 0.9878
vt 0.5860 0.9869
vt 0.5851 0.9878
vt 0.5860 0.9878
vt 0.5851 0.9850
vt 0.5842 0.9859
vt 0.5851 0.9859
vt 0.5833 0.9896
vt 0.5824 0.9905
vt 0.5833 0.9905
vt 0.5851 0.9914
vt 0.5842 0.9923
vt 0.5851 0.9923
vt 0.5860 0.9905
vt 0.5851 0.9914
vt 0.5860 0.9914
vt 0.5851 0.9923
vt 0.5860 0.9923
vt 0.5806 0.9914
vt 0.5788 0.9850
vt 0.5833 0.9878
vt 0.5851 0.9896
vt 0.5824 0.9878
vt 0.5851 0.9887
vt 0.5815 0.9914
vt 0.5815 0.9850
vt 0.5797 0.9914
vt 0.5806 0.9905
vt 0.5842 0.9878
vt 0.5824 0.9859
vt 0.5797 0.9850
vt 0.5824 0.9850
vt 0.5797 0.9887
vt 0.5815 0.9905
vt 0.5806 0.9896
vt 0.5788 0.9878
vt 0.5824 0.9869
vt 0.5860 0.9859
vt 0.5797 0.9869
vt 0.5815 0.9859
vt 0.5797 0.9905
vt 0.5833 0.9914
vt 0.5797 0.9896
vt 0.5833 0.9887
vt 0.5833 0.9869
vt 0.5842 0.9859
vt 0.5815 0.9896
vt 0.5815 0.9869
vt 0.5806 0.9850
vt 0.5824 0.9914
vt 0.5806 0.9859
vt 0.5797 0.9896
vt 0.5788 0.9869
vt 0.5806 0.9878
vt 0.5824 0.9905
vt 0.5851 0.9878
vt 0.5851 0.9850
vt 0.5815 0.9887
vt 0.5797 0.9878
vt 0.5842 0.9887
vt 0.5833 0.9905
vt 0.5842 0.9896
vt 0.5815 0.9887
vt 0.5788 0.9914
vt 0.5788 0.9905
vt 0.5833 0.9850
vt 0.5797 0.9887
vt 0.5833 0.9859
vt 0.5842 0.9869
vt 0.5851 0.9869
vt 0.5842 0.9850
vt 0.5824 0.9896
vt 0.5842 0.9914
vt 0.5851 0.9905
vn -0.0000 0.0000 -1.0000
vn -0.0000 -0.0000 1.0000
vn -0.6330 0.3384 -0.6962
vn -0.5968 0.3988 0.6962
vn -0.5968 0.3988 -0.6962
vn 0.0000 0.7178 -0.6962
vn 0.0703 0.7143 0.6962
vn 0.0703 0.7143 -0.6962
vn 0.0000 -0.7178 -0.6962
vn -0.0703 -0.7143 0.6962
vn -0.0703 -0.7143 -0.6962
vn -0.2747 0.6632 -0.6962
vn -0.2083 0.6869 0.6962
vn -0.2083 0.6869 -0.6962
vn 0.5549 -0.4554 -0.6962
vn 0.5076 -0.5076 0.6962
vn 0.5076 -0.5076 -0.6962
vn -0.3988 0.5968 -0.6962
vn -0.3384 0.6330 0.6962
vn -0.3384 0.6330 -0.6962
vn -0.5549 0.4554 -0.6962
vn -0.5076 0.5076 0.6962
vn -0.5076 0.5076 -0.6962
vn 0.5968 0.3988 -0.6962
vn 0.6330 0.3384 0.6962
vn 0.6330 0.3384 -0.6962
vn -0.6869 0.2083 -0.6962
vn -0.6632 0.2747 0.6962
vn -0.6632 0.2747 -0.6962
vn -0.5076 -0.5076 -0.6962
vn -0.5549 -0.4554 0.6962
vn -0.5549 -0.4554 -0.6962
vn -0.6330 -0.3384 -0.6962
vn -0.6632 -0.2747 0.6962
vn -0.6632 -0.2747 -0.6962
vn 0.2083 0.6869 -0.6962
vn 0.2747 0.6632 0.6962
vn 0.2747 0.6632 -0.6962
vn 0.6869 -0.2083 -0.6962
vn 0.6632 -0.2747 0.6962
vn 0.6632 -0.2747 -0.6962
vn 0.1400 0.7040 -0.6962
vn 0.2083 0.6869 0.6962
vn 0.7143 -0.0703 -0.6962
vn 0.7040 -0.1400 0.6962
vn 0.7040 -0.1400 -0.6962
vn 0.6869 -0.2083 0.6962
vn -0.7178 0.0000 -0.6962
vn -0.7143 0.0703 0.6962
vn -0.7143 0.0703 -0.6962
vn 0.5076 0.5076 -0.6962
vn 0.5549 0.4554 0.6962
vn 0.5549 0.4554 -0.6962
vn -0.5968 -0.3988 -0.6962
vn -0.6330 -0.3384 0.6962
vn 0.2083 -0.6869 -0.6962
vn 0.1400 -0.7040 0.6962
vn 0.1400 -0.7040 -0.6962
vn 0.5968 0.3988 0.6962
vn 0.6330 -0.3384 -0.6962
vn 0.5968 -0.3988 0.6962
vn 0.5968 -0.3988 -0.6962
vn -0.6330 0.3384 0.6962
vn 0.3988 0.5968 -0.6962
vn 0.4554 0.5549 0.6962
vn 0.4554 0.5549 -0.6962
vn 0.6632 0.2747 -0.6962
vn 0.6869 0.2083 0.6962
vn 0.6869 0.2083 -0.6962
vn -0.3988 -0.5968 -0.6962
vn -0.4554 -0.5549 0.6962
vn -0.4554 -0.5549 -0.6962
vn -0.2747 0.6632 0.6962
vn 0.3384 -0.6330 -0.6962
vn 0.2747 -0.6632 0.6962
vn 0.2747 -0.6632 -0.6962
vn -0.1400 -0.7040 -0.6962
vn -0.2083 -0.6869 0.6962
vn -0.2083 -0.6869 -0.6962
vn 0.1400 0.7040 0.6962
vn 0.0703 -0.7143 0.6962
vn 0.0703 -0.7143 -0.6962
vn -0.5076 -0.5076 0.6962
vn 0.0000 -0.7178 0.6962
vn 0.7040 0.1400 -0.6962
vn 0.7143 0.0703 0.6962
vn 0.7143 0.0703 -0.6962
vn 0.7178 0.0000 0.6962
vn 0.7178 0.0000 -0.6962
vn 0.3384 0.6330 -0.6962
vn 0.3988 0.5968 0.6962
vn -0.4554 0.5549 -0.6962
vn -0.3988 0.5968 0.6962
vn 0.5076 0.5076 0.6962
vn 0.3988 -0.5968 -0.6962
vn 0.4554 -0.5549 0.6962
vn 0.3988 -0.5968 0.6962
vn 0.3384 0.6330 0.6962
vn 0.7040 0.1400 0.6962
vn -0.6869 -0.2083 0.6962
vn -0.6869 -0.2083 -0.6962
vn -0.4554 0.5549 0.6962
vn -0.7040 0.1400 -0.6962
vn -0.6869 0.2083 0.6962
vn 0.6330 -0.3384 0.6962
vn 0.6632 0.2747 0.6962
vn -0.7040 -0.1400 0.6962
vn -0.7040 -0.1400 -0.6962
vn -0.7143 -0.0703 0.6962
vn -0.7143 -0.0703 -0.6962
vn -0.7178 0.0000 0.6962
vn 0.5549 -0.4554 0.6962
vn -0.7040 0.1400 0.6962
vn -0.2747 -0.6632 0.6962
vn -0.2747 -0.6632 -0.6962
vn 0.4554 -0.5549 -0.6962
vn -0.3384 -0.6330 0.6962
vn -0.3384 -0.6330 -0.6962
vn 0.3384 -0.6330 0.6962
vn 0.7143 -0.0703 0.6962
vn 0.2083 -0.6869 0.6962
vn -0.5968 -0.3988 0.6962
vn -0.5549 0.4554 0.6962
vn -0.3988 -0.5968 0.6962
vn -0.1400 -0.7040 0.6962
vn -0.1400 0.7040 0.6962
vn -0.1400 0.7040 -0.6962
vn -0.0703 0.7143 0.6962
vn -0.0703 0.7143 -0.6962
vn 0.0000 0.7178 0.6962
usemtl ColobotMesh_mat_1
s off
f 1/1/1 3/2/1 5/3/1
f 2/4/2 6/5/2 4/6/2
f 1/1/1 5/3/1 7/7/1
f 2/4/2 8/8/2 6/5/2
f 1/1/1 7/7/1 9/9/1
f 2/4/2 10/10/2 8/8/2
f 1/1/1 9/9/1 11/11/1
f 2/4/2 12/12/2 10/10/2
f 1/1/1 11/11/1 13/13/1
f 2/4/2 14/14/2 12/12/2
f 1/1/1 13/13/1 15/15/1
f 2/4/2 16/16/2 14/14/2
f 1/1/1 15/15/1 17/17/1
f 2/4/2 18/18/2 16/16/2
f 1/1/1 17/17/1 19/19/1
f 2/4/2 20/20/2 18/18/2
f 1/1/1 19/19/1 21/21/1
f 2/4/2 22/22/2 20/20/2
f 1/1/1 21/21/1 23/23/1
f 2/4/2 24/24/2 22/22/2
f 1/1/1 23/23/1 25/25/1
f 2/4/2 26/26/2 24/24/2
f 1/1/1 25/25/1 27/27/1
f 2/4/2 28/28/2 26/26/2
f 1/1/1 27/27/1 29/29/1
f 2/4/2 30/30/2 28/28/2
f 1/1/1 29/29/1 31/31/1
f 2/4/2 32/32/2 30/30/2
f 1/1/1 31/31/1 33/33/1
f 2/4/2 34/34/2 32/32/2
f 1/1/1 33/33/1 35/35/1
f 2/4/2 36/36/2 34/34/2
f 1/1/1 35/35/1 37/37/1
f 2/4/2 38/38/2 36/36/2
f 1/1/1 37/37/1 39/39/1
f 2/4/2 40/40/2 38/38/2
f 1/1/1 39/39/1 41/41/1
f 2/4/2 42/42/2 40/40/2
f 1/1/1 41/41/1 43/43/1
f 2/4/2 44/44/2 42/42/2
f 1/1/1 43/43/1 45/45/1
f 2/4/2 46/46/2 44/44/2
f 1/1/1 45/45/1 47/47/1
f 2/4/2 48/48/2 46/46/2
f 1/1/1 47/47/1 49/49/1
f 2/4/2 50/50/2 48/48/2
f 1/1/1 49/49/1 51/51/1
f 2/4/2 52/52/2 50/50/2
f 1/1/1 51/51/1 53/53/1
f 2/4/2 54/54/2 52/52/2
f 1/1/1 53/53/1 55/55/1
f 2/4/2 56/56/2 54/54/2
f 1/1/1 55/55/1 57/57/1
f 2/4/2 58/58/2 56/56/2
f 1/1/1 57/57/1 59/59/1
f 2/4/2 60/60/2 58/58/2
f 1/1/1 59/59/1 61/61/1
f 2/4/2 62/62/2 60/60/2
f 1/1/1 61/61/1 63/63/1
f 2/4/2 64/64/2 62/62/2
f 1/1/1 63/63/1 65/65/1
f 2/4/2 66/66/2 64/64/2
f 1/1/1 65/65/1 67/67/1
f 2/4/2 68/68/2 66/66/2
f 1/1/1 67/67/1 69/69/1
f 2/4/2 70/70/2 68/68/2
f 1/1/1 69/69/1 71/71/1
f 2/4/2 72/72/2 70/70/2
f 1/1/1 71/71/1 73/73/1
f 2/4/2 74/74/2 72/72/2
f 1/1/1 73/73/1 75/75/1
f 2/4/2 76/76/2 74/74/2
f 1/1/1 75/75/1 77/77/1
f 2/4/2 78/78/2 76/76/2
f 1/1/1 77/77/1 79/79/1
f 2/4/2 80/80/2 78/78/2
f 1/1/1 79/79/1 81/81/1
f 2/4/2 82/82/2 80/80/2
f 1/1/1 81/81/1 83/83/1
f 2/4/2 84/84/2 82/82/2
f 1/1/1 83/83/1 85/85/1
f 2/4/2 86/86/2 84/84/2
f 1/1/1 85/85/1 87/87/1
f 2/4/2 88/88/2 86/86/2
f 1/1/1 87/87/1 89/89/1
f 2/4/2 90/90/2 88/88/2
f 1/1/1 89/89/1 91/91/1
f 2/4/2 92/92/2 90/90/2
f 1/1/1 91/91/1 93/93/1
f 2/4/2 94/94/2 92/92/2
f 1/1/1 93/93/1 95/95/1
f 2/4/2 96/96/2 94/94/2
f 1/1/1 95/95/1 97/97/1
f 2/4/2 98/98/2 96/96/2
f 1/1/1 97/97/1 99/99/1
f 2/4/2 100/100/2 98/98/2
f 1/1/1 99/99/1 101/101/1
f 2/4/2 102/102/2 100/100/2
f 1/1/1 101/101/1 103/103/1
f 2/4/2 104/104/2 102/102/2
f 1/1/1 103/103/1 105/105/1
f 2/4/2 106/106/2 104/104/2
f 1/1/1 105/105/1 107/107/1
f 2/4/2 108/108/2 106/106/2
f 1/1/1 107/107/1 109/109/1
f 2/4/2 110/110/2 108/108/2
f 1/1/1 109/109/1 111/111/1
f 2/4/2 112/112/2 110/110/2
f 1/1/1 111/111/1 113/113/1
f 2/4/2 114/114/2 112/112/2
f 1/1/1 113/113/1 115/115/1
f 2/4/2 116/116/2 114/114/2
f 1/1/1 115/115/1 117/117/1
f 2/4/2 118/118/2 116/116/2
f 1/1/1 117/117/1 119/119/1
f 2/4/2 120/120/2 118/118/2
f 1/1/1 119/119/1 121/121/1
f 2/4/2 122/122/2 120/120/2
f 1/1/1 121/121/1 123/123/1
f 2/4/2 124/124/2 122/122/2
f 1/1/1 123/123/1 125/125/1
f 2/4/2 126/126/2 124/124/2
f 1/1/1 125/125/1 127/127/1
f 2/4/2 128/128/2 126/126/2
f 1/1/1 127/127/1 129/129/1
f 2/4/2 130/130/2 128/128/2
f 1/1/1 129/129/1 3/2/1
f 2/4/2 4/6/2 130/130/2
s 1
f 109/131/3 112/132/4 111/133/5
f 3/134/6 6/135/7 5/136/8
f 67/137/9 70/138/10 69/139/11
f 123/140/12 126/141/13 125/142/14
f 49/143/15 52/144/16 51/145/17
f 119/146/18 122/147/19 121/148/20
f 113/149/21 116/150/22 115/151/23
f 23/152/24 26/153/25 25/154/26
f 105/155/27 108/156/28 107/157/29
f 83/158/30 86/159/31 85/160/32
f 89/161/33 92/162/34 91/163/35
f 9/164/36 12/165/37 11/166/38
f 41/167/39 44/168/40 43/169/41
f 7/170/42 10/171/43 9/164/36
f 37/172/44 40/173/45 39/174/46
f 39/175/46 42/176/47 41/177/39
f 99/178/48 102/179/49 101/180/50
f 19/181/51 22/182/52 21/183/53
f 87/184/54 90/185/55 89/186/33
f 61/187/56 64/188/57 63/189/58
f 21/190/53 24/191/59 23/192/24
f 45/193/60 48/194/61 47/195/62
f 109/196/3 108/197/28 110/198/63
f 15/199/64 18/200/65 17/201/66
f 27/202/67 30/203/68 29/204/69
f 79/205/70 82/206/71 81/207/72
f 121/208/20 124/209/73 123/210/12
f 57/211/74 60/212/75 59/213/76
f 71/214/77 74/215/78 73/216/79
f 5/136/8 8/217/80 7/218/42
f 63/219/58 66/220/81 65/221/82
f 81/222/72 84/223/83 83/224/30
f 65/225/82 68/226/84 67/227/9
f 31/228/85 34/229/86 33/230/87
f 33/230/87 36/231/88 35/232/89
f 13/233/90 16/234/91 15/235/64
f 117/236/92 120/237/93 119/238/18
f 17/239/66 20/240/94 19/181/51
f 55/241/95 54/242/96 56/243/97
f 11/244/38 14/245/98 13/246/90
f 29/247/69 32/248/99 31/249/85
f 91/250/35 94/251/100 93/252/101
f 115/253/23 118/254/102 117/255/92
f 103/256/103 106/257/104 105/258/27
f 45/259/60 44/260/40 46/261/105
f 25/262/26 28/263/106 27/264/67
f 93/265/101 96/266/107 95/267/108
f 95/268/108 98/269/109 97/270/110
f 97/271/110 100/272/111 99/178/48
f 47/273/62 50/274/112 49/275/15
f 101/276/50 104/277/113 103/278/103
f 73/216/79 76/279/114 75/280/115
f 51/145/17 54/281/96 53/282/116
f 75/283/115 78/284/117 77/285/118
f 55/286/95 58/287/119 57/288/74
f 37/289/44 36/290/88 38/291/120
f 59/292/76 62/293/121 61/294/56
f 85/295/32 88/296/122 87/297/54
f 111/298/5 114/299/123 113/300/21
f 77/301/118 80/302/124 79/303/70
f 69/304/11 72/305/125 71/306/77
f 125/307/14 128/308/126 127/309/127
f 127/310/127 130/311/128 129/312/129
f 129/312/129 4/313/130 3/314/6
f 109/131/3 110/315/63 112/132/4
f 3/134/6 4/316/130 6/135/7
f 67/137/9 68/317/84 70/138/10
f 123/140/12 124/318/73 126/141/13
f 49/143/15 50/319/112 52/144/16
f 119/146/18 120/320/93 122/147/19
f 113/149/21 114/321/123 116/150/22
f 23/152/24 24/322/59 26/153/25
f 105/155/27 106/323/104 108/156/28
f 83/158/30 84/324/83 86/159/31
f 89/161/33 90/325/55 92/162/34
f 9/164/36 10/171/43 12/165/37
f 41/167/39 42/326/47 44/168/40
f 7/170/42 8/327/80 10/171/43
f 37/172/44 38/328/120 40/173/45
f 39/175/46 40/329/45 42/176/47
f 99/178/48 100/272/111 102/179/49
f 19/181/51 20/240/94 22/182/52
f 87/184/54 88/330/122 90/185/55
f 61/187/56 62/331/121 64/188/57
f 21/190/53 22/332/52 24/191/59
f 45/193/60 46/333/105 48/194/61
f 109/196/3 107/334/29 108/197/28
f 15/199/64 16/335/91 18/200/65
f 27/202/67 28/336/106 30/203/68
f 79/205/70 80/337/124 82/206/71
f 121/208/20 122/338/19 124/209/73
f 57/211/74 58/339/119 60/212/75
f 71/214/77 72/340/125 74/215/78
f 5/136/8 6/135/7 8/217/80
f 63/219/58 64/341/57 66/220/81
f 81/222/72 82/342/71 84/223/83
f 65/225/82 66/343/81 68/226/84
f 31/228/85 32/344/99 34/229/86
f 33/230/87 34/229/86 36/231/88
f 13/233/90 14/345/98 16/234/91
f 117/236/92 118/346/102 120/237/93
f 17/239/66 18/347/65 20/240/94
f 55/241/95 53/348/116 54/242/96
f 11/244/38 12/349/37 14/245/98
f 29/247/69 30/350/68 32/248/99
f 91/250/35 92/351/34 94/251/100
f 115/253/23 116/352/22 118/254/102
f 103/256/103 104/353/113 106/257/104
f 45/259/60 43/354/41 44/260/40
f 25/262/26 26/355/25 28/263/106
f 93/265/101 94/356/100 96/266/107
f 95/268/108 96/357/107 98/269/109
f 97/271/110 98/358/109 100/272/111
f 47/273/62 48/359/61 50/274/112
f 101/276/50 102/360/49 104/277/113
f 73/216/79 74/215/78 76/279/114
f 51/145/17 52/144/16 54/281/96
f 75/283/115 76/361/114 78/284/117
f 55/286/95 56/362/97 58/287/119
f 37/289/44 35/363/89 36/290/88
f 59/292/76 60/364/75 62/293/121
f 85/295/32 86/365/31 88/296/122
f 111/298/5 112/366/4 114/299/123
f 77/301/118 78/367/117 80/302/124
f 69/304/11 70/368/10 72/305/125
f 125/307/14 126/369/13 128/308/126
f 127/310/127 128/370/126 130/311/128
f 129/312/129 130/311/128 4/313/130
o ColobotMesh_1_ColobotMesh_
v 0.029112 -0.484814 -0.446553
v 1.529110 0.515184 0.453446
v 0.029112 0.515184 0.453446
v 0.029112 -0.484815 0.453446
v 1.529110 -0.484815 0.453446
v 1.529110 0.515185 -0.446553
v 1.529110 -0.484814 -0.446553
v 0.029112 0.515185 -0.446553
vt 0.6387 0.9941
vt 0.6309 0.9941
vt 0.6309 0.9863
vt 0.6387 0.9863
vt 0.6387 0.9941
vt 0.6387 0.9863
vt 0.6309 0.9863
vt 0.6309 0.9941
vt 0.6270 0.2480
vt 0.6270 0.1660
vt 0.5020 0.1660
vt 0.5020 0.2480
vt 0.5020 0.2480
vt 0.5020 0.1660
vt 0.6270 0.1660
vt 0.6270 0.2480
vt 0.6387 0.9863
vt 0.6387 0.9941
vn 0.0000 -0.0000 1.0000
vn 0.0000 0.0000 -1.0000
vn 0.0000 -1.0000 -0.0000
vn 0.0000 1.0000 0.0000
vn -1.0000 -0.0000 0.0000
usemtl ColobotMesh_mat_1
s off
f 132/371/131 133/372/131 134/373/131
f 134/373/131 135/374/131 132/371/131
f 136/375/132 137/376/132 131/377/132
f 131/377/132 138/378/132 136/375/132
f 137/379/133 135/380/133 134/381/133
f 134/381/133 131/382/133 137/379/133
f 138/383/134 133/384/134 132/385/134
f 132/385/134 136/386/134 138/383/134
f 131/377/135 134/387/135 133/388/135
f 133/388/135 138/378/135 131/377/135
