# Blender v2.77 (sub 0) OBJ File: 'lem4s.blend'
# www.blender.org
mtllib lem4s.mtl
o ColobotMesh_1_ColobotMesh_
v -0.463473 -0.450987 0.491911
v 3.036530 0.449013 -0.508087
v -0.463473 0.449013 -0.508087
v -0.463473 0.449012 0.491912
v 3.036530 0.449012 0.491912
v 3.036530 -0.450986 -0.508088
v 3.036530 -0.450987 0.491911
v -0.463473 -0.450986 -0.508088
v 3.701460 2.000000 -2.000000
v 4.008050 2.000000 2.000000
v 4.008050 2.000000 -2.000000
v 3.701460 2.000000 2.000000
v 3.701470 -2.000000 -2.000000
v 4.008050 -2.000000 -2.000000
v 2.988850 0.991963 0.988026
v 2.988850 0.991963 -0.996779
v 2.988850 -1.016820 0.990137
v 4.008050 -2.000000 2.000000
v 2.988850 -1.016820 -0.996778
v 3.701460 -2.000000 2.000000
vt 0.9395 0.4043
vt 0.9668 0.1582
vt 0.9395 0.1582
vt 0.7520 0.1660
vt 0.8340 0.2480
vt 0.7520 0.2480
vt 0.7480 0.1680
vt 0.5020 0.2500
vt 0.7480 0.2500
vt 0.9668 0.1582
vt 0.9395 0.4043
vt 0.9668 0.4043
vt 0.5020 0.1641
vt 0.7480 0.2461
vt 0.5020 0.2461
vt 0.9668 0.1582
vt 0.9395 0.4043
vt 0.9668 0.4043
vt 0.9395 0.1582
vt 0.9668 0.4043
vt 0.9668 0.1582
vt 0.7520 0.7480
vt 0.9980 0.5020
vt 0.7520 0.5020
vt 0.8340 0.2480
vt 0.7520 0.1660
vt 0.7520 0.2480
vt 0.9668 0.4043
vt 0.8340 0.1660
vt 0.5020 0.1680
vt 0.9395 0.1582
vt 0.7480 0.1641
vt 0.9395 0.1582
vt 0.9395 0.4043
vt 0.9980 0.7480
vt 0.8340 0.1660
vt 0.5762 0.9922
vt 0.5840 0.9863
vt 0.5840 0.9941
vt 0.5762 0.9863
vt 0.5840 0.9941
vt 0.5762 0.9941
vt 0.5820 0.9941
vt 0.5762 0.9863
vt 0.5762 0.9941
vt 0.5820 0.9863
vt 0.5840 0.9922
vt 0.5762 0.9882
vt 0.5840 0.9863
vt 0.5781 0.9941
vt 0.5781 0.9863
vt 0.5840 0.9882
vt 0.0000 1.0000
vt 0.0000 1.0000
vt 0.0000 1.0000
vt 0.0000 1.0000
vn 0.0000 1.0000 0.0000
vn 0.0000 -1.0000 -0.0000
vn 0.0000 0.0000 -1.0000
vn 0.0000 -0.0000 1.0000
vn 1.0000 0.0000 0.0000
vn -0.9439 0.2340 0.2330
vn -0.4396 -0.6345 0.6357
vn -0.4412 0.6344 0.6346
vn -0.9424 -0.2390 -0.2341
vn -0.9435 0.2337 -0.2348
vn -0.9426 -0.2390 0.2330
vn -0.4391 -0.6349 -0.6357
vn -0.4407 0.6348 -0.6346
vn -1.0000 -0.0000 0.0000
usemtl ColobotMesh_mat_1
s off
f 12/1/1 11/2/1 9/3/1
f 8/4/2 7/5/2 1/6/2
f 6/7/3 3/8/3 2/9/3
f 20/10/4 10/11/4 12/12/4
f 1/13/4 5/14/4 4/15/4
f 13/16/2 18/17/2 20/18/2
f 13/19/3 11/20/3 14/21/3
f 11/22/5 18/23/5 14/24/5
f 5/25/1 3/26/1 4/27/1
f 12/1/1 10/28/1 11/2/1
f 8/4/2 6/29/2 7/5/2
f 6/7/3 8/30/3 3/8/3
f 20/10/4 18/31/4 10/11/4
f 1/13/4 7/32/4 5/14/4
f 13/16/2 14/33/2 18/17/2
f 13/19/3 9/34/3 11/20/3
f 11/22/5 10/35/5 18/23/5
f 5/25/1 2/36/1 3/26/1
s 1
f 15/37/6 20/38/7 12/39/8
f 19/40/9 15/41/6 16/42/10
f 17/43/11 13/44/12 20/38/7
f 9/45/13 15/46/6 12/39/8
f 13/44/12 16/47/10 9/45/13
f 15/37/6 17/48/11 20/38/7
f 19/40/9 17/49/11 15/41/6
f 17/43/11 19/50/9 13/44/12
f 9/45/13 16/51/10 15/46/6
f 13/44/12 19/52/9 16/47/10
usemtl ColobotMesh_mat_2
s off
f 3/53/14 1/54/14 4/55/14
f 3/53/14 8/56/14 1/54/14
