# Blender v2.71 (sub 0) OBJ File: 'lem5_alt.blend'
# www.blender.org
mtllib lem5_alt.mtl
o ColobotMesh_1_ColobotMesh_
v 0.596200 -0.171394 0.513216
v 2.208240 -1.332400 0.513216
v 2.208240 -1.332400 -0.486784
v 2.160360 -1.725250 0.513216
v 2.160360 -1.725250 -0.486784
v 0.181554 -0.487205 0.513216
v 1.596802 -1.176625 0.513216
v 0.955440 -0.718939 0.513216
v 1.529883 -1.155953 0.513216
v 1.458903 -1.127090 0.513216
v 1.385610 -1.090745 0.513216
v 1.311809 -1.047814 0.513216
v 1.239317 -0.999355 0.513216
v 1.169920 -0.946560 0.513216
v 1.105325 -0.890729 0.513216
v 1.047123 -0.833237 0.513216
v 0.996748 -0.775500 0.513216
v 1.596802 -1.176625 -0.486784
v 1.047123 -0.833237 -0.486784
v 1.105325 -0.890729 -0.486784
v 1.169920 -0.946560 -0.486784
v 1.239318 -0.999355 -0.486784
v 1.311809 -1.047814 -0.486784
v 1.385610 -1.090745 -0.486784
v 1.458903 -1.127090 -0.486784
v 1.529883 -1.155953 -0.486784
v 0.652892 -1.169670 0.513216
v 1.310098 -1.585806 0.513216
v 0.695596 -1.224910 0.513216
v 0.747518 -1.280475 0.513216
v 0.807379 -1.334995 0.513216
v 0.873705 -1.387129 0.513216
v 0.944862 -1.435592 0.513216
v 1.019100 -1.479191 0.513216
v 1.094589 -1.516853 0.513216
v 1.169471 -1.547650 0.513216
v 1.241902 -1.570825 0.513216
v 1.310098 -1.585806 -0.486783
v 1.241902 -1.570825 -0.486783
v 1.169471 -1.547651 -0.486783
v 1.094589 -1.516853 -0.486783
v 1.019100 -1.479191 -0.486783
v 0.596200 -0.171394 -0.486783
v 0.181554 -0.487205 -0.486783
v 0.955440 -0.718939 -0.486783
v 0.996748 -0.775500 -0.486783
v 0.652892 -1.169670 -0.486783
v 0.695596 -1.224910 -0.486783
v 0.747518 -1.280475 -0.486783
v 0.807379 -1.334995 -0.486783
v 0.873705 -1.387129 -0.486783
v 0.944862 -1.435592 -0.486783
vt 0.876953 0.814453
vt 0.998047 0.814453
vt 0.998047 0.853765
vt 0.876953 0.849544
vt 0.998047 0.849544
vt 0.630859 0.994141
vt 0.638672 0.994141
vt 0.638672 0.986328
vt 0.639025 0.996820
vt 0.639025 0.996907
vt 0.998047 0.867654
vt 0.876953 0.867654
vt 0.876953 0.863977
vt 0.998047 0.863977
vt 0.876953 0.860378
vt 0.876953 0.856946
vt 0.998047 0.856946
vt 0.876953 0.853765
vt 0.876953 0.853434
vt 0.998047 0.853434
vt 0.876953 0.857656
vt 0.998047 0.857656
vt 0.876953 0.862105
vt 0.998047 0.862105
vt 0.876953 0.866671
vt 0.998047 0.866671
vt 0.876953 0.871243
vt 0.998047 0.871243
vt 0.638672 0.986563
vt 0.630859 0.986563
vt 0.630859 0.987159
vt 0.630859 0.987755
vt 0.638672 0.987755
vt 0.630859 0.988335
vt 0.638672 0.988335
vt 0.630282 0.983298
vt 0.643945 0.995225
vt 0.643945 0.995100
vt 0.643945 0.995039
vt 0.643945 0.994928
vt 0.638510 0.995026
vt 0.638510 0.995073
vt 0.630859 0.988965
vt 0.638672 0.988965
vt 0.638672 0.989392
vt 0.630859 0.986328
vt 0.630859 0.988530
vt 0.638672 0.988530
vt 0.630859 0.988061
vt 0.638672 0.988061
vt 0.630859 0.987568
vt 0.638672 0.987568
vt 0.630859 0.987066
vt 0.638672 0.987066
vt 0.876953 0.871319
vt 0.630859 0.988885
vt 0.638672 0.988885
vt 0.630859 0.989392
vt 0.632123 0.985132
vt 0.642104 0.993844
vt 0.642104 0.993708
vt 0.642104 0.993627
vt 0.998047 0.860378
vt 0.638672 0.987159
vt 0.643945 0.994447
vt 0.998047 0.871319
vt 0.642104 0.993276
vn -0.161800 -0.986800 0.000000
vn 0.246900 0.969000 0.000000
vn 0.992700 -0.121000 0.000000
vn 0.000000 0.000000 1.000000
vn -0.446400 -0.894800 0.000000
vn -0.380400 -0.924800 0.000000
vn -0.304700 -0.952400 0.000000
vn -0.214600 -0.976700 0.000000
vn 0.295100 0.955500 0.000000
vn 0.376700 0.926300 -0.000000
vn 0.444300 0.895900 0.000000
vn 0.502800 0.864400 0.000000
vn 0.555700 0.831400 0.000000
vn 0.605500 0.795900 0.000000
vn 0.653900 0.756600 0.000000
vn 0.702800 0.711400 0.000000
vn -0.822800 -0.568300 0.000000
vn 0.836100 0.548600 0.000000
vn -0.605900 0.795500 0.000000
vn -0.791200 -0.611600 0.000000
vn -0.730700 -0.682800 0.000000
vn -0.673400 -0.739300 0.000000
vn -0.618000 -0.786200 0.000000
vn -0.562900 -0.826500 0.000000
vn -0.506400 -0.862300 0.000000
vn 0.753500 0.657400 -0.000000
vn 0.807600 0.589800 -0.000000
vn -0.730700 -0.682700 0.000000
usemtl ColobotMesh_mat_1
s off
f 5/1/1 4/2/1 28/3/1
f 18/4/2 7/5/2 2/2/2
f 3/6/3 2/7/3 4/8/3
f 15/9/4 31/9/4 32/9/4
f 16/9/4 30/9/4 31/9/4
f 17/9/4 29/9/4 30/9/4
f 8/9/4 27/9/4 29/9/4
f 1/10/4 6/9/4 27/9/4
f 34/11/5 42/12/5 41/13/5
f 35/14/6 41/13/6 40/15/6
f 40/15/7 39/16/7 37/17/7
f 39/16/8 38/18/8 28/3/8
f 18/4/9 26/19/9 9/20/9
f 26/19/10 25/21/10 10/22/10
f 25/21/11 24/23/11 11/24/11
f 24/23/12 23/25/12 12/26/12
f 23/25/13 22/27/13 13/28/13
f 13/29/14 22/30/14 21/31/14
f 21/31/15 20/32/15 15/33/15
f 20/32/16 19/34/16 16/35/16
f 14/9/4 32/9/4 33/9/4
f 12/36/4 13/37/4 33/9/4
f 11/36/4 12/37/4 34/37/4
f 10/36/4 11/38/4 35/38/4
f 9/36/4 10/39/4 36/38/4
f 7/36/4 9/39/4 37/39/4
f 2/10/4 7/40/4 28/39/4
f 45/41/4 47/41/4 48/41/4
f 43/42/4 44/41/4 47/41/4
f 47/43/17 27/44/17 6/7/17
f 43/6/18 1/7/18 8/45/18
f 43/6/19 44/46/19 6/8/19
f 47/43/20 48/47/20 29/48/20
f 48/47/21 49/49/21 30/50/21
f 49/49/22 50/51/22 31/52/22
f 50/51/23 51/53/23 32/54/23
f 51/53/24 52/30/24 33/29/24
f 52/55/25 42/12/25 34/11/25
f 19/34/26 46/56/26 17/57/26
f 46/56/27 45/58/27 8/45/27
f 20/41/4 50/41/4 51/41/4
f 19/41/4 49/41/4 50/41/4
f 46/41/4 48/41/4 49/41/4
f 21/41/4 51/41/4 52/41/4
f 23/59/4 22/60/4 52/41/4
f 24/59/4 23/60/4 42/60/4
f 25/59/4 24/60/4 41/60/4
f 26/59/4 25/61/4 40/61/4
f 18/59/4 26/61/4 39/61/4
f 3/42/4 18/62/4 38/61/4
f 38/18/1 5/1/1 28/3/1
f 3/1/2 18/4/2 2/2/2
f 5/46/3 3/6/3 4/8/3
f 14/36/4 15/9/4 32/9/4
f 15/36/4 16/9/4 31/9/4
f 16/36/4 17/9/4 30/9/4
f 17/36/4 8/9/4 29/9/4
f 8/36/4 1/10/4 27/9/4
f 35/14/5 34/11/5 41/13/5
f 36/63/6 35/14/6 40/15/6
f 36/63/7 40/15/7 37/17/7
f 37/17/8 39/16/8 28/3/8
f 7/5/9 18/4/9 9/20/9
f 9/20/10 26/19/10 10/22/10
f 10/22/11 25/21/11 11/24/11
f 11/24/12 24/23/12 12/26/12
f 12/26/13 23/25/13 13/28/13
f 14/64/14 13/29/14 21/31/14
f 14/64/15 21/31/15 15/33/15
f 15/33/16 20/32/16 16/35/16
f 13/36/4 14/9/4 33/9/4
f 34/37/4 12/36/4 33/9/4
f 35/38/4 11/36/4 34/37/4
f 36/38/4 10/36/4 35/38/4
f 37/39/4 9/36/4 36/38/4
f 28/39/4 7/36/4 37/39/4
f 4/65/4 2/10/4 28/39/4
f 46/59/4 45/41/4 48/41/4
f 45/59/4 43/42/4 47/41/4
f 44/6/17 47/43/17 6/7/17
f 45/58/18 43/6/18 8/45/18
f 1/7/19 43/6/19 6/8/19
f 27/44/20 47/43/20 29/48/20
f 29/48/28 48/47/28 30/50/28
f 30/50/22 49/49/22 31/52/22
f 31/52/23 50/51/23 32/54/23
f 32/54/24 51/53/24 33/29/24
f 33/66/25 52/55/25 34/11/25
f 16/35/26 19/34/26 17/57/26
f 17/57/27 46/56/27 8/45/27
f 21/59/4 20/41/4 51/41/4
f 20/59/4 19/41/4 50/41/4
f 19/59/4 46/41/4 49/41/4
f 22/59/4 21/41/4 52/41/4
f 42/60/4 23/59/4 52/41/4
f 41/60/4 24/59/4 42/60/4
f 40/61/4 25/59/4 41/60/4
f 39/61/4 26/59/4 40/61/4
f 38/61/4 18/59/4 39/61/4
f 5/67/4 3/42/4 38/61/4
