# Blender v2.71 (sub 0) OBJ File: 'lem5.blend'
# www.blender.org
mtllib lem5.mtl
o ColobotMesh_1_ColobotMesh_.001
v 1.187270 -1.072290 0.513216
v 0.596200 -0.171394 0.513216
v 2.208240 -1.332400 0.513216
v 2.208240 -1.332400 -0.486784
v 2.160360 -1.725250 0.513216
v 0.596200 -0.171393 -0.486783
v 1.187270 -1.072290 -0.486784
v 0.181554 -0.487204 -0.486783
v 2.160360 -1.725250 -0.486784
v 0.893056 -1.517410 0.513216
v 0.893056 -1.517410 -0.486783
v 0.181554 -0.487205 0.513216
vt 0.632458 0.994141
vt 0.634736 0.989611
vt 0.630859 0.992553
vt 0.638672 0.986328
vt 0.630859 0.986328
vt 0.638672 0.994141
vt 0.630859 0.994141
vt 0.998047 0.814453
vt 0.876953 0.814453
vt 0.998047 0.873047
vt 0.876953 0.873047
vt 0.633602 0.987373
vt 0.638487 0.986328
vt 0.638672 0.988303
vn -0.000000 0.000000 -1.000000
vn 0.836100 0.548600 0.000000
vn 0.246900 0.969000 0.000000
vn 0.992700 -0.121000 0.000000
vn -0.161800 -0.986800 0.000000
vn -0.822800 -0.568300 -0.000000
vn -0.605900 0.795500 0.000000
vn -0.000000 -0.000000 1.000000
usemtl ColobotMesh_mat_1.001
s off
f 6/1/1 7/2/1 8/3/1
f 1/4/2 7/5/2 2/6/2
f 7/5/2 6/7/2 2/6/2
f 3/8/3 4/9/3 1/10/3
f 4/9/3 7/11/3 1/10/3
f 5/4/4 9/5/4 3/6/4
f 9/5/4 4/7/4 3/6/4
f 10/10/5 11/11/5 5/8/5
f 11/11/5 9/9/5 5/8/5
f 12/6/6 8/7/6 10/4/6
f 8/7/6 11/5/6 10/4/6
f 2/6/7 6/7/7 12/4/7
f 6/7/7 8/5/7 12/4/7
f 1/2/8 2/1/8 12/3/8
f 1/2/8 12/3/8 10/12/8
f 1/2/8 10/12/8 5/13/8
f 3/14/8 1/2/8 5/13/8
f 8/3/1 7/2/1 11/12/1
f 11/12/1 7/2/1 9/13/1
f 7/2/1 4/14/1 9/13/1
