# Blender v2.77 (sub 0) OBJ File: 'lem5_alt.blend'
# www.blender.org
mtllib lem5_alt.mtl
o ColobotMesh_1_ColobotMesh_
v 0.596200 -0.171394 0.513216
v 2.208240 -1.332400 0.513216
v 2.208240 -1.332400 -0.486784
v 2.160360 -1.725250 0.513216
v 2.160360 -1.725250 -0.486784
v 0.181554 -0.487205 0.513216
v 1.596802 -1.176625 0.513216
v 0.955440 -0.718939 0.513216
v 1.529883 -1.155953 0.513216
v 1.458903 -1.127090 0.513216
v 1.385610 -1.090745 0.513216
v 1.311809 -1.047814 0.513216
v 1.239317 -0.999355 0.513216
v 1.169920 -0.946560 0.513216
v 1.105325 -0.890729 0.513216
v 1.047123 -0.833237 0.513216
v 0.996748 -0.775500 0.513216
v 1.596802 -1.176625 -0.486784
v 1.047123 -0.833237 -0.486784
v 1.105325 -0.890729 -0.486784
v 1.169920 -0.946560 -0.486784
v 1.239318 -0.999355 -0.486784
v 1.311809 -1.047814 -0.486784
v 1.385610 -1.090745 -0.486784
v 1.458903 -1.127090 -0.486784
v 1.529883 -1.155953 -0.486784
v 0.652892 -1.169670 0.513216
v 1.310098 -1.585806 0.513216
v 0.695596 -1.224910 0.513216
v 0.747518 -1.280475 0.513216
v 0.807379 -1.334995 0.513216
v 0.873705 -1.387129 0.513216
v 0.944862 -1.435592 0.513216
v 1.019100 -1.479191 0.513216
v 1.094589 -1.516853 0.513216
v 1.169471 -1.547650 0.513216
v 1.241902 -1.570825 0.513216
v 1.310098 -1.585806 -0.486783
v 1.241902 -1.570825 -0.486783
v 1.169471 -1.547651 -0.486783
v 1.094589 -1.516853 -0.486783
v 1.019100 -1.479191 -0.486783
v 0.596200 -0.171394 -0.486783
v 0.181554 -0.487205 -0.486783
v 0.955440 -0.718939 -0.486783
v 0.996748 -0.775500 -0.486783
v 0.652892 -1.169670 -0.486783
v 0.695596 -1.224910 -0.486783
v 0.747518 -1.280475 -0.486783
v 0.807379 -1.334995 -0.486783
v 0.873705 -1.387129 -0.486783
v 0.944862 -1.435592 -0.486783
vt 0.6309 0.9941
vt 0.6387 0.9863
vt 0.6309 0.9863
vt 0.6303 0.9833
vt 0.6390 0.9968
vt 0.6390 0.9968
vt 0.6303 0.9833
vt 0.6390 0.9968
vt 0.6303 0.9833
vt 0.6390 0.9968
vt 0.6303 0.9833
vt 0.6390 0.9968
vt 0.6390 0.9968
vt 0.6303 0.9833
vt 0.6390 0.9969
vt 0.6303 0.9833
vt 0.6390 0.9968
vt 0.6439 0.9952
vt 0.6439 0.9952
vt 0.6303 0.9833
vt 0.6439 0.9952
vt 0.6439 0.9951
vt 0.6303 0.9833
vt 0.6439 0.9951
vt 0.6439 0.9951
vt 0.6303 0.9833
vt 0.6439 0.9950
vt 0.6439 0.9950
vt 0.6303 0.9833
vt 0.6439 0.9950
vt 0.6439 0.9950
vt 0.6303 0.9833
vt 0.6439 0.9944
vt 0.6439 0.9949
vt 0.6321 0.9851
vt 0.6385 0.9950
vt 0.6385 0.9950
vt 0.6385 0.9950
vt 0.6321 0.9851
vt 0.6385 0.9951
vt 0.6309 0.9863
vt 0.6387 0.9941
vt 0.6309 0.9941
vt 0.6321 0.9851
vt 0.6385 0.9950
vt 0.6385 0.9950
vt 0.6321 0.9851
vt 0.6385 0.9950
vt 0.6321 0.9851
vt 0.6321 0.9851
vt 0.6385 0.9950
vt 0.6421 0.9938
vt 0.6421 0.9938
vt 0.6321 0.9851
vt 0.6421 0.9938
vt 0.6421 0.9938
vt 0.6321 0.9851
vt 0.6421 0.9938
vt 0.6421 0.9937
vt 0.6321 0.9851
vt 0.6421 0.9937
vt 0.6421 0.9937
vt 0.6321 0.9851
vt 0.6421 0.9937
vt 0.6421 0.9937
vt 0.6321 0.9851
vt 0.6421 0.9933
vt 0.6421 0.9936
vt 0.6387 0.9941
vt 0.6390 0.9968
vt 0.6390 0.9968
vt 0.6390 0.9968
vt 0.6390 0.9968
vt 0.6390 0.9968
vt 0.6390 0.9969
vt 0.6385 0.9950
vt 0.6387 0.9863
vt 0.6385 0.9950
vt 0.6385 0.9950
vt 0.6385 0.9950
vt 0.6385 0.9950
vt 0.6385 0.9951
vt 0.8770 0.8538
vt 0.9980 0.8145
vt 0.9980 0.8538
vt 0.8770 0.8495
vt 0.9980 0.8145
vt 0.8770 0.8145
vt 0.8770 0.8677
vt 0.9980 0.8640
vt 0.9980 0.8677
vt 0.8770 0.8640
vt 0.9980 0.8604
vt 0.8770 0.8604
vt 0.9980 0.8569
vt 0.8770 0.8569
vt 0.9980 0.8534
vt 0.9980 0.8495
vt 0.8770 0.8534
vt 0.9980 0.8577
vt 0.8770 0.8577
vt 0.9980 0.8621
vt 0.8770 0.8621
vt 0.9980 0.8667
vt 0.8770 0.8667
vt 0.9980 0.8712
vt 0.6309 0.9866
vt 0.6387 0.9872
vt 0.6387 0.9866
vt 0.6309 0.9872
vt 0.6387 0.9878
vt 0.6309 0.9878
vt 0.6387 0.9883
vt 0.6309 0.9890
vt 0.6387 0.9941
vt 0.6309 0.9941
vt 0.6387 0.9894
vt 0.6309 0.9894
vt 0.6387 0.9885
vt 0.6387 0.9890
vt 0.6309 0.9885
vt 0.6387 0.9881
vt 0.6309 0.9881
vt 0.6387 0.9876
vt 0.6309 0.9876
vt 0.6387 0.9871
vt 0.6309 0.9871
vt 0.6387 0.9866
vt 0.8770 0.8713
vt 0.9980 0.8713
vt 0.6309 0.9889
vt 0.6387 0.9889
vt 0.8770 0.8145
vt 0.8770 0.8712
vt 0.6309 0.9883
vt 0.6309 0.9866
vn 0.9927 -0.1210 0.0000
vn -0.0000 0.0000 1.0000
vn -0.6059 0.7955 0.0000
vn -0.1342 -0.7003 0.7011
vn 0.4908 -0.6544 0.5752
vn 0.1901 0.6751 0.7128
vn 0.6697 0.4582 0.5844
vn -0.3406 -0.6282 0.6995
vn -0.2958 -0.6510 0.6990
vn -0.2454 -0.6725 0.6981
vn -0.1864 -0.6926 0.6967
vn 0.2344 0.6565 0.7170
vn 0.2869 0.6369 0.7155
vn 0.3314 0.6160 0.7147
vn 0.3706 0.5937 0.7142
vn 0.4067 0.5699 0.7140
vn 0.4410 0.5436 0.7142
vn 0.4747 0.5137 0.7147
vn 0.5090 0.4784 0.7155
vn -0.5756 -0.4208 0.7011
vn -0.8046 0.1280 0.5798
vn 0.1382 0.8073 0.5737
vn 0.5766 0.3993 0.7128
vn -0.5464 -0.4647 0.6967
vn -0.5030 -0.5094 0.6981
vn -0.4620 -0.5458 0.6990
vn -0.4222 -0.5766 0.6995
vn -0.3822 -0.6036 0.6996
vn 0.5446 0.4351 0.7170
usemtl ColobotMesh_mat_1
s off
f 3/1/1 4/2/1 5/3/1
f 14/4/2 31/5/2 32/6/2
f 15/7/2 30/8/2 31/5/2
f 16/9/2 29/10/2 30/8/2
f 17/11/2 27/12/2 29/10/2
f 6/13/2 8/14/2 1/15/2
f 13/16/2 32/6/2 33/17/2
f 13/18/2 34/19/2 12/20/2
f 12/21/2 35/22/2 11/23/2
f 11/24/2 36/25/2 10/26/2
f 10/27/2 37/28/2 9/29/2
f 9/30/2 28/31/2 7/32/2
f 4/33/2 7/34/2 28/31/2
f 46/35/2 47/36/2 48/37/2
f 44/38/2 45/39/2 43/40/2
f 44/41/3 1/42/3 43/43/3
f 21/44/2 50/45/2 51/46/2
f 20/47/2 49/48/2 50/45/2
f 19/49/2 48/37/2 49/48/2
f 22/50/2 51/46/2 52/51/2
f 22/52/2 42/53/2 23/54/2
f 23/55/2 41/56/2 24/57/2
f 24/58/2 40/59/2 25/60/2
f 25/61/2 39/62/2 26/63/2
f 26/64/2 38/65/2 18/66/2
f 5/67/2 18/68/2 38/65/2
f 3/1/1 2/69/1 4/2/1
f 14/4/2 15/70/2 31/5/2
f 15/7/2 16/71/2 30/8/2
f 16/9/2 17/72/2 29/10/2
f 17/11/2 8/73/2 27/12/2
f 6/13/2 27/12/2 8/14/2
f 13/16/2 14/74/2 32/6/2
f 13/18/2 33/17/2 34/19/2
f 12/21/2 34/19/2 35/22/2
f 11/24/2 35/22/2 36/25/2
f 10/27/2 36/25/2 37/28/2
f 9/30/2 37/28/2 28/31/2
f 4/33/2 2/75/2 7/34/2
f 46/35/2 45/76/2 47/36/2
f 44/38/2 47/36/2 45/39/2
f 44/41/3 6/77/3 1/42/3
f 21/44/2 20/78/2 50/45/2
f 20/47/2 19/79/2 49/48/2
f 19/49/2 46/80/2 48/37/2
f 22/50/2 21/81/2 51/46/2
f 22/52/2 52/51/2 42/53/2
f 23/55/2 42/53/2 41/56/2
f 24/58/2 41/56/2 40/59/2
f 25/61/2 40/59/2 39/62/2
f 26/64/2 39/62/2 38/65/2
f 5/67/2 3/82/2 18/68/2
s 1
f 38/83/4 4/84/5 28/85/4
f 18/86/6 2/87/7 3/88/7
f 42/89/8 35/90/9 34/91/8
f 41/92/9 36/93/10 35/90/9
f 40/94/10 37/95/11 36/93/10
f 39/96/11 28/85/4 37/95/11
f 18/86/6 9/97/12 7/98/6
f 26/99/12 10/100/13 9/97/12
f 25/101/13 11/102/14 10/100/13
f 24/103/14 12/104/15 11/102/14
f 23/105/15 13/106/16 12/104/15
f 22/107/16 14/108/17 13/109/16
f 21/110/17 15/111/18 14/108/17
f 20/112/18 16/113/19 15/111/18
f 47/114/20 6/115/21 44/116/21
f 43/43/22 8/117/23 45/118/23
f 47/114/20 29/119/24 27/120/20
f 48/121/24 30/122/25 29/119/24
f 49/123/25 31/124/26 30/122/25
f 50/125/26 32/126/27 31/124/26
f 51/127/27 33/128/28 32/126/27
f 52/129/28 34/91/8 33/130/28
f 16/113/19 46/131/29 17/132/29
f 46/131/29 8/117/23 17/132/29
f 38/83/4 5/133/5 4/84/5
f 18/86/6 7/98/6 2/87/7
f 42/89/8 41/92/9 35/90/9
f 41/92/9 40/94/10 36/93/10
f 40/94/10 39/96/11 37/95/11
f 39/96/11 38/83/4 28/85/4
f 18/86/6 26/99/12 9/97/12
f 26/99/12 25/101/13 10/100/13
f 25/101/13 24/103/14 11/102/14
f 24/103/14 23/105/15 12/104/15
f 23/105/15 22/134/16 13/106/16
f 22/107/16 21/110/17 14/108/17
f 21/110/17 20/112/18 15/111/18
f 20/112/18 19/135/19 16/113/19
f 47/114/20 27/120/20 6/115/21
f 43/43/22 1/42/22 8/117/23
f 47/114/20 48/121/24 29/119/24
f 48/121/24 49/123/25 30/122/25
f 49/123/25 50/125/26 31/124/26
f 50/125/26 51/127/27 32/126/27
f 51/127/27 52/136/28 33/128/28
f 52/129/28 42/89/8 34/91/8
f 16/113/19 19/135/19 46/131/29
f 46/131/29 45/118/23 8/117/23
