# Blender v2.77 (sub 0) OBJ File: 'lem6_alt.blend'
# www.blender.org
mtllib lem6_alt.mtl
o ColobotMesh_1_ColobotMesh_
v 0.596203 0.280128 0.513216
v 2.208240 1.441130 -0.486784
v 2.208240 1.441130 0.513216
v 2.160360 1.833990 -0.486784
v 2.160360 1.833990 0.513216
v 0.181557 0.595940 0.513216
v 1.596644 1.285321 -0.486784
v 0.955531 0.827815 -0.486784
v 1.529751 1.264658 -0.486784
v 1.458799 1.235806 -0.486784
v 1.385534 1.199476 -0.486784
v 1.311762 1.156562 -0.486784
v 1.239298 1.108122 -0.486784
v 1.169927 1.055347 -0.486784
v 1.105357 0.999538 -0.486784
v 1.047179 0.942069 -0.486784
v 0.996823 0.884354 -0.486784
v 0.955531 0.827815 0.513216
v 1.596644 1.285321 0.513216
v 0.996823 0.884354 0.513216
v 1.047179 0.942069 0.513216
v 1.105358 0.999538 0.513216
v 1.169927 1.055347 0.513216
v 1.239298 1.108122 0.513216
v 1.311762 1.156562 0.513216
v 1.385534 1.199476 0.513216
v 1.458799 1.235806 0.513216
v 1.529751 1.264658 0.513216
v 1.309939 1.694512 0.513216
v 0.652987 1.278535 0.513216
v 1.241769 1.679537 0.513216
v 1.169366 1.656371 0.513216
v 1.094513 1.625585 0.513216
v 1.019054 1.587937 0.513216
v 0.944845 1.544355 0.513216
v 0.873715 1.495910 0.513216
v 0.807415 1.443796 0.513216
v 0.747577 1.389297 0.513216
v 0.695675 1.333754 0.513216
v 0.596203 0.280128 -0.486784
v 0.181557 0.595940 -0.486784
v 1.309939 1.694512 -0.486784
v 0.652987 1.278535 -0.486784
v 1.241769 1.679537 -0.486784
v 1.169366 1.656371 -0.486784
v 1.094513 1.625585 -0.486784
v 1.019054 1.587937 -0.486784
v 0.944845 1.544355 -0.486784
v 0.873715 1.495910 -0.486784
v 0.807415 1.443796 -0.486784
v 0.747577 1.389297 -0.486784
v 0.695675 1.333754 -0.486784
vt 0.6309 0.9941
vt 0.6387 0.9863
vt 0.6309 0.9863
vt 0.6422 0.9942
vt 0.6422 0.9939
vt 0.6396 0.9952
vt 0.6350 0.9880
vt 0.6350 0.9880
vt 0.6422 0.9942
vt 0.6350 0.9880
vt 0.6422 0.9942
vt 0.6350 0.9880
vt 0.6422 0.9942
vt 0.6350 0.9880
vt 0.6422 0.9943
vt 0.6350 0.9880
vt 0.6422 0.9943
vt 0.6396 0.9952
vt 0.6396 0.9952
vt 0.6350 0.9880
vt 0.6396 0.9952
vt 0.6396 0.9952
vt 0.6350 0.9880
vt 0.6396 0.9951
vt 0.6396 0.9951
vt 0.6350 0.9880
vt 0.6396 0.9951
vt 0.6396 0.9951
vt 0.6350 0.9880
vt 0.6396 0.9951
vt 0.6396 0.9951
vt 0.6350 0.9880
vt 0.6387 0.9863
vt 0.6387 0.9911
vt 0.6387 0.9915
vt 0.6309 0.9941
vt 0.6387 0.9863
vt 0.6387 0.9941
vt 0.6409 0.9932
vt 0.6409 0.9930
vt 0.6392 0.9939
vt 0.6363 0.9893
vt 0.6363 0.9893
vt 0.6409 0.9932
vt 0.6363 0.9893
vt 0.6409 0.9933
vt 0.6363 0.9893
vt 0.6409 0.9933
vt 0.6363 0.9893
vt 0.6409 0.9933
vt 0.6363 0.9893
vt 0.6409 0.9933
vt 0.6392 0.9939
vt 0.6392 0.9939
vt 0.6363 0.9893
vt 0.6392 0.9939
vt 0.6392 0.9939
vt 0.6363 0.9893
vt 0.6392 0.9939
vt 0.6392 0.9939
vt 0.6363 0.9893
vt 0.6392 0.9939
vt 0.6392 0.9939
vt 0.6363 0.9893
vt 0.6392 0.9939
vt 0.6392 0.9939
vt 0.6363 0.9893
vt 0.6387 0.9863
vt 0.6387 0.9911
vt 0.6387 0.9915
vt 0.6387 0.9941
vt 0.6422 0.9941
vt 0.6422 0.9941
vt 0.6422 0.9942
vt 0.6422 0.9942
vt 0.6422 0.9942
vt 0.6309 0.9863
vt 0.6409 0.9932
vt 0.6409 0.9932
vt 0.6409 0.9932
vt 0.6409 0.9933
vt 0.6409 0.9933
vt 0.6387 0.9863
vt 0.8770 0.8145
vt 0.9980 0.8496
vt 0.8770 0.8496
vt 0.8770 0.8534
vt 0.9980 0.8534
vt 0.8770 0.8577
vt 0.9980 0.8577
vt 0.8770 0.8621
vt 0.9980 0.8621
vt 0.8770 0.8667
vt 0.9980 0.8667
vt 0.8770 0.8712
vt 0.6387 0.9939
vt 0.6309 0.9933
vt 0.6309 0.9939
vt 0.6387 0.9933
vt 0.6309 0.9927
vt 0.6387 0.9927
vt 0.6309 0.9921
vt 0.6387 0.9921
vt 0.6309 0.9916
vt 0.6387 0.9916
vt 0.6309 0.9911
vt 0.6309 0.9863
vt 0.6309 0.9915
vt 0.8770 0.8538
vt 0.9980 0.8145
vt 0.8770 0.8145
vt 0.6309 0.9919
vt 0.6387 0.9919
vt 0.6309 0.9924
vt 0.6387 0.9924
vt 0.6309 0.9929
vt 0.6387 0.9929
vt 0.6309 0.9934
vt 0.6387 0.9934
vt 0.6309 0.9939
vt 0.9980 0.8713
vt 0.8770 0.8677
vt 0.8770 0.8713
vt 0.9980 0.8677
vt 0.8770 0.8640
vt 0.9980 0.8640
vt 0.8770 0.8604
vt 0.9980 0.8604
vt 0.8770 0.8570
vt 0.9980 0.8570
vt 0.9980 0.8145
vt 0.9980 0.8712
vt 0.9980 0.8538
vt 0.6387 0.9939
vn 0.9927 0.1210 0.0000
vn -0.0000 0.0000 1.0000
vn -0.6059 -0.7955 0.0000
vn 0.6697 -0.4582 0.5844
vn 0.1901 -0.6751 0.7128
vn 0.2344 -0.6565 0.7170
vn 0.2869 -0.6369 0.7155
vn 0.3314 -0.6160 0.7147
vn 0.3706 -0.5937 0.7142
vn 0.4067 -0.5699 0.7140
vn 0.4410 -0.5436 0.7142
vn 0.4747 -0.5137 0.7147
vn 0.5090 -0.4784 0.7155
vn 0.5446 -0.4351 0.7170
vn 0.5766 -0.3993 0.7128
vn -0.8046 -0.1280 0.5798
vn -0.5756 0.4208 0.7011
vn 0.1382 -0.8073 0.5737
vn -0.1342 0.7003 0.7011
vn 0.4908 0.6544 0.5752
vn -0.5464 0.4647 0.6967
vn -0.5030 0.5094 0.6981
vn -0.4620 0.5458 0.6990
vn -0.4222 0.5766 0.6995
vn -0.3822 0.6036 0.6996
vn -0.3406 0.6282 0.6995
vn -0.2958 0.6510 0.6990
vn -0.2454 0.6725 0.6981
vn -0.1864 0.6926 0.6967
usemtl ColobotMesh_mat_1
s off
f 4/1/1 3/2/1 2/3/1
f 5/4/2 19/5/2 3/6/2
f 28/7/2 29/8/2 31/9/2
f 27/10/2 31/9/2 32/11/2
f 26/12/2 32/11/2 33/13/2
f 25/14/2 33/13/2 34/15/2
f 24/16/2 34/15/2 35/17/2
f 24/18/2 36/19/2 23/20/2
f 23/21/2 37/22/2 22/23/2
f 22/24/2 38/25/2 21/26/2
f 21/27/2 39/28/2 20/29/2
f 20/30/2 30/31/2 18/32/2
f 6/33/2 18/34/2 30/35/2
f 41/36/3 1/37/3 6/38/3
f 4/39/2 7/40/2 2/41/2
f 9/42/2 42/43/2 44/44/2
f 10/45/2 44/44/2 45/46/2
f 11/47/2 45/46/2 46/48/2
f 12/49/2 46/48/2 47/50/2
f 13/51/2 47/50/2 48/52/2
f 13/53/2 49/54/2 14/55/2
f 14/56/2 50/57/2 15/58/2
f 15/59/2 51/60/2 16/61/2
f 16/62/2 52/63/2 17/64/2
f 17/65/2 43/66/2 8/67/2
f 41/68/2 8/69/2 43/70/2
f 4/1/1 5/71/1 3/2/1
f 5/4/2 29/8/2 19/5/2
f 28/7/2 19/72/2 29/8/2
f 27/10/2 28/73/2 31/9/2
f 26/12/2 27/74/2 32/11/2
f 25/14/2 26/75/2 33/13/2
f 24/16/2 25/76/2 34/15/2
f 24/18/2 35/17/2 36/19/2
f 23/21/2 36/19/2 37/22/2
f 22/24/2 37/22/2 38/25/2
f 21/27/2 38/25/2 39/28/2
f 20/30/2 39/28/2 30/31/2
f 6/33/2 1/37/2 18/34/2
f 41/36/3 40/77/3 1/37/3
f 4/39/2 42/43/2 7/40/2
f 9/42/2 7/78/2 42/43/2
f 10/45/2 9/79/2 44/44/2
f 11/47/2 10/80/2 45/46/2
f 12/49/2 11/81/2 46/48/2
f 13/51/2 12/82/2 47/50/2
f 13/53/2 48/52/2 49/54/2
f 14/56/2 49/54/2 50/57/2
f 15/59/2 50/57/2 51/60/2
f 16/62/2 51/60/2 52/63/2
f 17/65/2 52/63/2 43/66/2
f 41/68/2 40/83/2 8/69/2
s 1
f 2/84/4 19/85/5 7/86/5
f 19/85/5 9/87/6 7/86/5
f 28/88/6 10/89/7 9/87/6
f 27/90/7 11/91/8 10/89/7
f 26/92/8 12/93/9 11/91/8
f 25/94/9 13/95/10 12/93/9
f 24/96/10 14/97/11 13/98/10
f 23/99/11 15/100/12 14/97/11
f 22/101/12 16/102/13 15/100/12
f 21/103/13 17/104/14 16/102/13
f 20/105/14 8/106/15 17/104/14
f 41/107/16 30/35/17 43/108/17
f 8/106/15 1/37/18 40/77/18
f 42/109/19 5/110/20 4/111/20
f 30/35/17 52/112/21 43/108/17
f 39/113/21 51/114/22 52/112/21
f 38/115/22 50/116/23 51/114/22
f 37/117/23 49/118/24 50/116/23
f 36/119/24 48/120/25 49/118/24
f 35/121/25 47/122/26 48/123/25
f 34/124/26 46/125/27 47/122/26
f 33/126/27 45/127/28 46/125/27
f 32/128/28 44/129/29 45/127/28
f 31/130/29 42/109/19 44/129/29
f 2/84/4 3/131/4 19/85/5
f 19/85/5 28/88/6 9/87/6
f 28/88/6 27/90/7 10/89/7
f 27/90/7 26/92/8 11/91/8
f 26/92/8 25/94/9 12/93/9
f 25/94/9 24/132/10 13/95/10
f 24/96/10 23/99/11 14/97/11
f 23/99/11 22/101/12 15/100/12
f 22/101/12 21/103/13 16/102/13
f 21/103/13 20/105/14 17/104/14
f 20/105/14 18/34/15 8/106/15
f 41/107/16 6/33/16 30/35/17
f 8/106/15 18/34/15 1/37/18
f 42/109/19 29/133/19 5/110/20
f 30/35/17 39/113/21 52/112/21
f 39/113/21 38/115/22 51/114/22
f 38/115/22 37/117/23 50/116/23
f 37/117/23 36/119/24 49/118/24
f 36/119/24 35/134/25 48/120/25
f 35/121/25 34/124/26 47/122/26
f 34/124/26 33/126/27 46/125/27
f 33/126/27 32/128/28 45/127/28
f 32/128/28 31/130/29 44/129/29
f 31/130/29 29/133/19 42/109/19
