# Blender v2.70 (sub 5) OBJ File: 'mother6.blend'
# www.blender.org
mtllib mother6.mtl
o ColobotMesh_1_ColobotMesh_
v 4.105830 0.687891 0.415237
v -0.008081 -0.000599 -0.482262
v -0.008081 -0.433611 0.267738
v -0.008081 -0.000599 0.017738
v -0.008081 0.432414 0.267737
v 2.434140 -0.000599 -0.409613
v 2.434140 -0.370695 0.231413
v 2.434140 0.369497 0.231412
v 4.105830 -0.000600 -0.777263
v 5.991920 -0.000600 0.017737
v 4.105830 -0.689090 0.415237
v 4.965416 -0.000600 -0.588764
v 5.594113 -0.000600 -0.323764
v 2.990259 -0.347144 -0.184293
v 3.547489 -0.576640 0.090657
v 4.128187 -0.352442 -0.450399
v 4.128187 -0.581938 -0.052899
v 2.998425 -0.000599 -0.567872
v 3.555655 -0.000600 -0.690422
v 2.418902 -0.189477 -0.233762
v 2.418902 -0.312842 -0.020087
v -0.008081 -0.325623 0.205390
v -0.008081 -0.181286 0.122057
v 4.965416 0.524647 0.320988
v 5.594113 0.295150 0.188488
v -0.008081 -0.000599 -0.357569
v -0.008081 -0.000599 -0.190902
v 3.555655 0.612681 0.371815
v 2.998425 0.506549 0.310540
v 4.128187 0.580739 -0.052899
v 4.128187 0.351242 -0.450399
v -0.008081 0.198262 -0.263744
v -0.008081 0.342600 -0.013745
v -0.008081 -0.199462 -0.263742
v -0.008081 -0.343799 -0.013742
v 5.594115 -0.296349 0.188488
v 4.965418 -0.525846 0.320988
v -0.008081 0.180089 0.122058
v -0.008081 0.324427 0.205391
v 2.998425 -0.507752 0.310542
v 3.555655 -0.613883 0.371817
v 4.128187 0.228897 0.556509
v 4.128187 -0.230096 0.556509
v -0.008081 -0.144936 0.330698
v -0.008081 0.143739 0.330698
v 1.489994 -0.291414 -0.173811
v 0.675920 -0.168049 -0.411702
v 1.533785 -0.479454 0.294205
v 0.719712 -0.500426 0.306314
v 2.418900 -0.123964 0.307061
v 2.418900 0.122766 0.307060
v 1.533785 0.478257 0.294204
v 0.719712 0.499229 0.306313
v 3.547489 0.350576 0.480151
v 2.990259 -0.002286 0.418876
v 1.489994 -0.021077 0.365365
v 0.675921 -0.288780 0.377474
v 2.990258 0.347641 -0.181371
v 3.547489 0.224275 -0.517596
v 1.533785 -0.000599 -0.535197
v 0.719712 -0.000599 -0.559414
v 1.489994 0.310695 -0.138342
v 0.675921 0.455032 0.087441
v 2.418900 0.188280 -0.233762
v 2.418900 0.311645 -0.020087
v -0.008081 -0.191053 -0.092223
v -0.008081 -0.000598 0.237655
v -0.008081 0.189856 -0.092222
v 3.556569 -0.372714 -0.413808
v 2.986315 -0.479231 0.035333
v 5.058053 -0.345788 -0.279167
v 5.058052 0.429122 -0.132753
v 1.481249 -0.187850 -0.398495
v 0.607303 -0.343994 -0.102053
v 1.481249 -0.267441 0.388018
v 0.607303 0.067357 0.375022
v 1.481249 0.453494 0.063689
v 0.607304 0.274839 -0.219758
v 3.556569 -0.188267 0.555776
v 2.986314 0.253961 0.423455
v 3.556570 0.559187 -0.088760
v 2.986314 0.223483 -0.405578
v 5.058053 -0.085134 0.465132
vt 0.783203 0.953125
vt 0.792318 0.948568
vt 0.789279 0.953125
vt 0.810547 0.939453
vt 0.810547 0.948568
vt 0.807509 0.944010
vt 0.810547 0.966797
vt 0.801432 0.962240
vt 0.807509 0.962240
vt 0.170688 0.689453
vt 0.170688 0.698568
vt 0.147833 0.692263
vt 0.170688 0.716797
vt 0.147833 0.715392
vt 0.147833 0.710492
vt 0.248047 0.707682
vt 0.222261 0.710720
vt 0.222261 0.701606
vt 0.102123 0.697883
vt 0.102123 0.702783
vt 0.068733 0.697328
vt 0.102123 0.712582
vt 0.068733 0.712860
vt 0.068733 0.707127
vt 0.102123 0.704152
vt 0.068733 0.704985
vt 0.102123 0.707682
vt 0.068733 0.703060
vt 0.147833 0.712582
vt 0.170688 0.707682
vt 0.147833 0.697163
vt 0.248047 0.689453
vt 0.222261 0.698568
vt 0.795356 0.953125
vt 0.804470 0.948568
vt 0.801432 0.953125
vt 0.798394 0.948568
vt 0.801432 0.944010
vt 0.804470 0.957682
vt 0.807509 0.953125
vt 0.810547 0.957682
vt 0.798394 0.957682
vt 0.792318 0.957682
vt 0.124978 0.695073
vt 0.124978 0.704188
vt 0.147833 0.701378
vt 0.124978 0.709087
vt 0.124978 0.713987
vt 0.196474 0.695529
vt 0.196474 0.704644
vt 0.196474 0.713759
vt 0.035343 0.696772
vt 0.035343 0.701672
vt 0.001953 0.696217
vt 0.068733 0.702227
vt 0.001953 0.701950
vt 0.035343 0.707405
vt 0.001953 0.707682
vt 0.035343 0.713137
vt 0.001953 0.713415
vt 0.035343 0.705818
vt 0.001953 0.706651
vt 0.001953 0.706650
vt 0.035343 0.705817
vt 0.035343 0.708238
vt 0.068733 0.707960
vt 0.035343 0.702505
vt 0.124978 0.708367
vt 0.124978 0.704872
vt 0.147833 0.706277
vt 0.124978 0.699973
vt 0.196474 0.707682
vn -1.000000 0.000000 0.000000
vn -0.114310 -0.680051 -0.724199
vn -0.124519 -0.984090 -0.126737
vn 0.394431 -0.795812 -0.459464
vn 0.394431 0.795812 -0.459464
vn 0.100997 -0.682285 -0.724077
vn 0.084963 -0.921775 -0.378301
vn 0.100997 -0.285926 0.952914
vn 0.084964 0.133269 0.987431
vn 0.100997 0.968211 -0.228837
vn 0.084963 0.788506 -0.609130
vn -0.114309 -0.287149 0.951041
vn -0.124528 0.382325 0.915598
vn -0.114315 0.967199 -0.226843
vn -0.124521 0.601778 -0.788897
vn 0.394431 0.000001 0.918925
vn -0.185364 -0.727195 -0.660930
vn -0.173773 -0.587780 -0.790138
vn -0.293046 -0.706333 -0.644374
vn -0.191319 -0.908787 -0.370814
vn -0.030197 -0.596358 -0.802151
vn -0.001292 -0.866025 -0.499999
vn -0.100972 -0.921743 -0.374425
vn -0.064636 -0.972077 -0.225586
vn -0.121859 -0.671055 -0.731325
vn -0.097218 -0.852125 -0.514229
vn -0.187815 -0.840213 -0.508692
vn -0.200935 -0.848363 -0.489802
vn -0.157688 -0.979524 -0.125169
vn -0.176313 -0.979856 -0.093788
vn -0.272455 -0.958199 -0.087313
vn -0.203261 -0.956823 -0.207784
vn 0.159703 -0.666422 -0.728270
vn 0.314876 -0.585499 -0.747024
vn 0.143709 -0.639103 -0.755576
vn 0.097798 -0.861874 -0.497603
vn 0.458599 -0.769587 -0.444323
vn 0.289548 -0.928176 -0.233777
vn 0.178556 -0.949676 -0.257359
vn 0.159702 -0.963911 -0.213003
vn 0.159702 0.963911 -0.213004
vn 0.314876 0.939691 -0.133545
vn 0.143709 0.973899 -0.175693
vn 0.097798 0.861874 -0.497604
vn 0.458600 0.769587 -0.444322
vn 0.289549 0.666543 -0.686936
vn 0.178557 0.697716 -0.693765
vn 0.159703 0.666422 -0.728270
vn -0.080336 -0.647489 -0.757829
vn 0.023923 -0.593840 -0.804228
vn -0.003943 -0.660939 -0.750429
vn -0.015476 -0.908288 -0.418059
vn 0.136249 -0.608793 -0.781542
vn 0.086020 -0.862816 -0.498146
vn 0.048542 -0.906378 -0.419670
vn 0.014761 -0.974247 -0.225001
vn -0.110938 -0.735024 -0.668904
vn 0.011857 -0.870512 -0.492004
vn -0.069594 -0.860636 -0.504442
vn -0.071841 -0.863788 -0.498708
vn 0.024748 -0.926818 -0.374694
vn 0.018622 -0.931944 -0.362124
vn -0.049847 -0.937175 -0.345280
vn -0.071168 -0.950265 -0.303202
vn -0.080335 -0.332555 0.939656
vn 0.023924 -0.399561 0.916394
vn -0.003943 -0.319421 0.947605
vn -0.015476 0.092095 0.995630
vn 0.136250 -0.372438 0.918001
vn 0.086020 0.000001 0.996293
vn 0.048542 0.089745 0.994781
vn 0.014760 0.292269 0.956222
vn -0.110938 -0.211776 0.971002
vn 0.011857 0.009168 0.999888
vn -0.069594 -0.006541 0.997554
vn -0.071840 0.000001 0.997416
vn 0.024748 0.138915 0.989995
vn 0.018623 0.152364 0.988149
vn -0.049846 0.169566 0.984257
vn -0.071168 0.212553 0.974555
vn -0.080335 0.980044 -0.181826
vn 0.023924 0.993402 -0.112165
vn -0.003943 0.980360 -0.197175
vn -0.015476 0.816194 -0.577571
vn 0.136250 0.981231 -0.136458
vn 0.086020 0.862815 -0.498147
vn 0.048542 0.816634 -0.575111
vn 0.014761 0.681979 -0.731223
vn -0.110939 0.946799 -0.302101
vn 0.011857 0.861343 -0.507885
vn -0.069594 0.867177 -0.493114
vn -0.071840 0.863787 -0.498709
vn 0.024748 0.787903 -0.615302
vn 0.018622 0.779581 -0.626025
vn -0.049846 0.767609 -0.638977
vn -0.071168 0.737713 -0.671353
vn -0.185366 -0.208797 0.960231
vn -0.173773 -0.390395 0.904099
vn -0.293045 -0.204890 0.933887
vn -0.191316 0.133255 0.972441
vn -0.030191 -0.396511 0.917534
vn -0.001281 0.000000 0.999999
vn -0.100958 0.136606 0.985468
vn -0.064620 0.290676 0.954637
vn -0.121868 -0.297820 0.946811
vn -0.097214 -0.019278 0.995077
vn -0.187824 -0.020440 0.981990
vn -0.200949 0.000001 0.979602
vn -0.157688 0.381401 0.910861
vn -0.176319 0.408752 0.895451
vn -0.272476 0.403529 0.873454
vn -0.203257 0.298470 0.932525
vn -0.185362 0.935985 -0.299287
vn -0.173774 0.978170 -0.113955
vn -0.293044 0.911217 -0.289498
vn -0.191315 0.775532 -0.601622
vn -0.030196 0.992863 -0.115376
vn -0.001284 0.866024 -0.500000
vn -0.100958 0.785137 -0.611038
vn -0.064621 0.681401 -0.729052
vn -0.121867 0.968873 -0.215485
vn -0.097213 0.871402 -0.480842
vn -0.187823 0.860649 -0.473292
vn -0.200948 0.848360 -0.489801
vn -0.157686 0.598138 -0.785727
vn -0.176317 0.571118 -0.801709
vn -0.272475 0.554678 -0.786187
vn -0.203261 0.658356 -0.724743
vn 0.159702 -0.297489 0.941273
vn 0.314876 -0.354193 0.880568
vn 0.143708 -0.334797 0.931267
vn 0.097798 -0.000000 0.995206
vn 0.458600 0.000002 0.888643
vn 0.289548 0.261631 0.920712
vn 0.178556 0.251959 0.951123
vn 0.159702 0.297489 0.941273
usemtl ColobotMesh_mat_1
s off
f 2/1/1 34/2/1 26/3/1
f 3/4/1 44/5/1 22/6/1
f 5/7/1 33/8/1 39/9/1
f 9/10/2 16/11/2 19/12/2
f 11/13/3 41/14/3 15/15/3
f 10/16/4 36/17/4 13/18/4
f 10/16/5 13/18/5 25/17/5
f 6/19/6 20/20/6 60/21/6
f 7/22/7 48/23/7 46/24/7
f 7/25/8 50/25/8 48/26/8
f 8/25/9 52/26/9 56/26/9
f 8/22/10 65/27/10 52/23/10
f 6/19/11 60/21/11 62/28/11
f 11/13/12 43/13/12 41/29/12
f 1/13/13 28/29/13 54/29/13
f 1/13/14 30/30/14 28/14/14
f 9/10/15 19/12/15 59/31/15
f 10/32/16 25/33/16 36/33/16
f 27/34/1 23/35/1 4/36/1
f 26/3/1 66/37/1 27/34/1
f 27/34/1 66/37/1 23/35/1
f 66/37/1 22/6/1 23/35/1
f 26/3/1 34/2/1 66/37/1
f 34/2/1 35/38/1 66/37/1
f 66/37/1 35/38/1 22/6/1
f 35/38/1 3/4/1 22/6/1
f 23/35/1 38/39/1 4/36/1
f 22/6/1 67/40/1 23/35/1
f 23/35/1 67/40/1 38/39/1
f 67/40/1 39/9/1 38/39/1
f 22/6/1 44/5/1 67/40/1
f 44/5/1 45/41/1 67/40/1
f 67/40/1 45/41/1 39/9/1
f 45/41/1 5/7/1 39/9/1
f 38/39/1 27/34/1 4/36/1
f 39/9/1 68/42/1 38/39/1
f 38/39/1 68/42/1 27/34/1
f 68/42/1 26/3/1 27/34/1
f 39/9/1 33/8/1 68/42/1
f 33/8/1 32/43/1 68/42/1
f 68/42/1 32/43/1 26/3/1
f 32/43/1 2/1/1 26/3/1
f 18/44/17 14/45/17 6/19/17
f 19/12/18 69/46/18 18/44/18
f 18/44/19 69/46/19 14/45/19
f 69/46/20 15/15/20 14/45/20
f 19/12/21 16/11/21 69/46/21
f 16/11/22 17/30/22 69/46/22
f 69/46/23 17/30/23 15/15/23
f 17/30/24 11/13/24 15/15/24
f 14/45/25 20/20/25 6/19/25
f 15/15/26 70/47/26 14/45/26
f 14/45/27 70/47/27 20/20/27
f 70/47/28 21/27/28 20/20/28
f 15/15/29 41/14/29 70/47/29
f 41/14/30 40/48/30 70/47/30
f 70/47/31 40/48/31 21/27/31
f 40/48/32 7/22/32 21/27/32
f 12/49/33 16/11/33 9/10/33
f 13/18/34 71/50/34 12/49/34
f 12/49/35 71/50/35 16/11/35
f 71/50/36 17/30/36 16/11/36
f 13/18/37 36/17/37 71/50/37
f 36/17/38 37/51/38 71/50/38
f 71/50/39 37/51/39 17/30/39
f 37/51/40 11/13/40 17/30/40
f 24/51/41 30/30/41 1/13/41
f 25/17/42 72/50/42 24/51/42
f 24/51/43 72/50/43 30/30/43
f 72/50/44 31/11/44 30/30/44
f 25/17/45 13/18/45 72/50/45
f 13/18/46 12/49/46 72/50/46
f 72/50/47 12/49/47 31/11/47
f 12/49/48 9/10/48 31/11/48
f 61/52/49 47/53/49 2/54/49
f 60/21/50 73/55/50 61/52/50
f 61/52/51 73/55/51 47/53/51
f 73/55/52 46/24/52 47/53/52
f 60/21/53 20/20/53 73/55/53
f 20/20/54 21/27/54 73/55/54
f 73/55/55 21/27/55 46/24/55
f 21/27/56 7/22/56 46/24/56
f 47/53/57 34/56/57 2/54/57
f 46/24/58 74/57/58 47/53/58
f 47/53/59 74/57/59 34/56/59
f 74/57/60 35/58/60 34/56/60
f 46/24/61 48/23/61 74/57/61
f 48/23/62 49/59/62 74/57/62
f 74/57/63 49/59/63 35/58/63
f 49/59/64 3/60/64 35/58/64
f 49/61/65 57/61/65 3/62/65
f 48/26/66 75/26/66 49/61/66
f 49/61/67 75/26/67 57/61/67
f 75/26/68 56/26/68 57/61/68
f 48/26/69 50/25/69 75/26/69
f 50/25/70 51/25/70 75/26/70
f 75/26/71 51/25/71 56/26/71
f 51/25/72 8/25/72 56/26/72
f 57/61/73 44/62/73 3/62/73
f 56/26/74 76/61/74 57/61/74
f 57/61/75 76/61/75 44/62/75
f 76/61/76 45/63/76 44/62/76
f 56/26/77 52/26/77 76/61/77
f 52/26/78 53/64/78 76/61/78
f 76/61/79 53/64/79 45/63/79
f 53/64/80 5/63/80 45/63/80
f 53/59/81 63/65/81 5/60/81
f 52/23/82 77/66/82 53/59/82
f 53/59/83 77/66/83 63/65/83
f 77/66/84 62/28/84 63/65/84
f 52/23/85 65/27/85 77/66/85
f 65/27/86 64/20/86 77/66/86
f 77/66/87 64/20/87 62/28/87
f 64/20/88 6/19/88 62/28/88
f 63/65/89 33/58/89 5/60/89
f 62/28/90 78/67/90 63/65/90
f 63/65/91 78/67/91 33/58/91
f 78/67/92 32/56/92 33/58/92
f 62/28/93 60/21/93 78/67/93
f 60/21/94 61/52/94 78/67/94
f 78/67/95 61/52/95 32/56/95
f 61/52/96 2/54/96 32/56/96
f 40/68/97 55/68/97 7/25/97
f 41/29/98 79/29/98 40/68/98
f 40/68/99 79/29/99 55/68/99
f 79/29/100 54/29/100 55/68/100
f 41/29/101 43/13/101 79/29/101
f 43/13/102 42/13/102 79/29/102
f 79/29/103 42/13/103 54/29/103
f 42/13/104 1/13/104 54/29/104
f 55/68/105 50/25/105 7/25/105
f 54/29/106 80/68/106 55/68/106
f 55/68/107 80/68/107 50/25/107
f 80/68/108 51/25/108 50/25/108
f 54/29/109 28/29/109 80/68/109
f 28/29/110 29/68/110 80/68/110
f 80/68/111 29/68/111 51/25/111
f 29/68/112 8/25/112 51/25/112
f 29/48/113 58/69/113 8/22/113
f 28/14/114 81/70/114 29/48/114
f 29/48/115 81/70/115 58/69/115
f 81/70/116 59/31/116 58/69/116
f 28/14/117 30/30/117 81/70/117
f 30/30/118 31/11/118 81/70/118
f 81/70/119 31/11/119 59/31/119
f 31/11/120 9/10/120 59/31/120
f 58/69/121 65/27/121 8/22/121
f 59/31/122 82/71/122 58/69/122
f 58/69/123 82/71/123 65/27/123
f 82/71/124 64/20/124 65/27/124
f 59/31/125 19/12/125 82/71/125
f 19/12/126 18/44/126 82/71/126
f 82/71/127 18/44/127 64/20/127
f 18/44/128 6/19/128 64/20/128
f 37/72/129 43/13/129 11/13/129
f 36/33/130 83/72/130 37/72/130
f 37/72/131 83/72/131 43/13/131
f 83/72/132 42/13/132 43/13/132
f 36/33/133 25/33/133 83/72/133
f 25/33/134 24/72/134 83/72/134
f 83/72/135 24/72/135 42/13/135
f 24/72/136 1/13/136 42/13/136
