# Blender v2.77 (sub 0) OBJ File: 'mother7.blend'
# www.blender.org
mtllib mother7.mtl
o ColobotMesh_1_ColobotMesh_
v 12.862300 0.027990 3.158940
v 5.941960 0.027990 -4.926680
v 5.941960 -2.243740 -1.416060
v -1.000370 0.027989 -0.890165
v -1.000370 -1.142100 1.066210
v 5.941960 2.551030 -1.416060
v -1.000370 1.134630 1.066210
v 10.075500 0.027990 -3.282490
v 10.075500 -1.704060 -0.391928
v 10.075500 1.845320 -0.391927
v 3.595073 0.019688 -4.016822
v 1.280963 0.019687 -2.671317
v 7.338698 2.449162 -1.023301
v 8.716544 2.213925 -0.681923
v 5.915780 -1.106590 -4.045100
v 5.915780 -1.863833 -2.874893
v 12.214971 0.585444 2.405260
v 11.286036 1.191220 1.221638
v 7.337319 -2.163960 -1.034139
v 8.715166 -1.984066 -0.692761
v 3.627862 -1.906544 -0.578659
v 1.313752 -1.539331 0.248765
v 7.395822 0.019856 -4.721559
v 8.773667 0.019856 -4.173495
v 3.622602 2.105494 -0.594151
v 1.308492 1.633361 0.233273
v 10.302987 -0.842767 -2.407891
v 10.302987 -1.420117 -1.444371
v 3.435080 -1.703047 -1.489105
v 1.120970 -0.945804 -1.313807
v 7.382177 -1.004316 -3.792110
v 8.760023 -1.581666 -2.280526
v -1.075962 -0.550369 -0.246921
v -1.075962 -0.940398 0.405204
v 5.927650 -0.637828 -1.085529
v 5.927650 0.960429 -1.085529
v 11.288115 -1.091427 1.223446
v 12.217048 -0.514077 2.407069
v 10.321936 0.918951 -2.408875
v 10.321936 1.524727 -1.445354
v -1.071486 0.589401 -0.243903
v -1.071486 0.958281 0.408222
v 11.701726 0.013598 -0.762278
v 12.630660 0.013598 1.384865
v -0.953271 -0.385076 1.331156
v -0.953271 0.373834 1.331156
v 7.458673 -0.752644 -0.706687
v 8.836518 0.610376 -0.365309
v 10.239495 -0.530181 -0.097861
v 10.239495 0.652946 -0.097861
v 5.904090 1.252250 -4.059477
v 5.904090 2.093263 -2.889271
v 3.667767 1.293968 -0.218396
v 1.353657 0.062925 0.609028
v 3.641035 0.732535 -3.286841
v 1.326925 1.101415 -1.289211
v 7.607744 2.047719 -2.314487
v 8.985590 1.206705 -2.936630
v 3.384379 -1.039209 -3.121759
v 1.171325 -1.376969 -0.512453
v 8.903292 -0.975727 -3.476052
v 7.339930 -1.814938 -2.593867
v 3.675465 -0.418792 0.034878
v 1.363741 0.817658 0.566279
v 3.638215 1.852451 -2.019111
v 1.236067 0.887957 -2.172801
v 8.902614 -0.843859 -0.214513
v 7.442367 0.878918 -0.596366
v 8.991095 2.017420 -1.829745
v 7.529235 1.390541 -3.764578
v 11.910933 -0.732241 0.194837
v 11.352714 -0.264074 1.332779
v 11.776521 1.074941 0.406675
vt 0.5004 0.4343
vt 0.5004 0.4152
vt 0.4176 0.4343
vt 0.5004 0.3770
vt 0.4176 0.3862
vt 0.4176 0.3961
vt 0.6483 0.4343
vt 0.6483 0.4197
vt 0.5990 0.4343
vt 0.6483 0.3906
vt 0.5990 0.3860
vt 0.5990 0.4052
vt 0.5004 0.2520
vt 0.5004 0.2923
vt 0.4176 0.2612
vt 0.5004 0.3730
vt 0.4176 0.3611
vt 0.4176 0.3420
vt 0.5004 0.4980
vt 0.5004 0.4768
vt 0.4176 0.4861
vt 0.4176 0.4436
vt 0.6483 0.2656
vt 0.6483 0.2955
vt 0.5990 0.2610
vt 0.6483 0.3552
vt 0.5990 0.3612
vt 0.5990 0.3208
vt 0.6483 0.4802
vt 0.6483 0.4649
vt 0.5990 0.4862
vt 0.5990 0.4556
vt 0.7480 0.4343
vt 0.7148 0.4197
vt 0.7148 0.4343
vt 0.7480 0.3093
vt 0.7148 0.3246
vt 0.7148 0.2947
vt 0.7148 0.4496
vt 0.3348 0.4343
vt 0.3348 0.4152
vt 0.2520 0.4343
vt 0.4176 0.4152
vt 0.5004 0.3961
vt 0.2520 0.4245
vt 0.3348 0.4054
vt 0.2520 0.4146
vt 0.3348 0.3955
vt 0.2520 0.4048
vt 0.5497 0.4343
vt 0.5497 0.4197
vt 0.5990 0.4197
vt 0.6483 0.4052
vt 0.5497 0.4006
vt 0.5497 0.3815
vt 0.3348 0.2705
vt 0.3348 0.3109
vt 0.2520 0.2798
vt 0.4176 0.3016
vt 0.5004 0.3327
vt 0.2520 0.2989
vt 0.3348 0.3300
vt 0.2520 0.3181
vt 0.3348 0.3492
vt 0.2520 0.3373
vt 0.3348 0.4742
vt 0.3348 0.4530
vt 0.2520 0.4623
vt 0.4176 0.4649
vt 0.5004 0.4556
vt 0.2520 0.4530
vt 0.3348 0.4436
vt 0.2520 0.4436
vt 0.5497 0.2565
vt 0.5497 0.2864
vt 0.5990 0.2909
vt 0.6483 0.3253
vt 0.5497 0.3267
vt 0.5497 0.3671
vt 0.5497 0.4921
vt 0.5497 0.4768
vt 0.5990 0.4709
vt 0.6483 0.4496
vt 0.5497 0.4556
vt 0.6816 0.4343
vt 0.6816 0.4197
vt 0.6816 0.4052
vt 0.6816 0.2802
vt 0.6816 0.3100
vt 0.6816 0.3399
vt 0.6816 0.4649
vt 0.6816 0.4496
vn -0.1070 -0.0189 -0.9940
vn -0.0516 -0.7232 -0.6887
vn -0.3986 0.0666 -0.9147
vn -0.0193 -0.9163 0.4001
vn 0.0740 -0.8733 0.4815
vn -0.2491 -0.9296 -0.2715
vn 0.6511 0.0125 -0.7589
vn 0.6339 -0.5644 -0.5288
vn 0.4816 0.0435 -0.8753
vn 0.1024 -0.8871 0.4500
vn 0.0556 -0.8778 0.4758
vn 0.2361 -0.9075 -0.3475
vn 0.0695 -0.1332 0.9886
vn -0.0385 0.9322 0.3597
vn -0.0079 0.8930 0.4499
vn 0.2863 0.2706 0.9191
vn -0.0852 0.8950 -0.4377
vn -0.3174 0.7009 -0.6388
vn -0.5062 -0.0736 0.8592
vn 0.1397 0.8738 0.4658
vn 0.0743 0.8102 0.5814
vn -0.1889 0.1126 0.9755
vn 0.5178 0.7970 -0.3110
vn 0.3797 0.7074 -0.5962
vn 0.4859 -0.0012 0.8740
vn -0.0926 -0.7846 0.6130
vn 0.9886 -0.0246 -0.1485
vn -0.0712 0.7704 0.6335
vn -0.5812 -0.1473 -0.8003
vn -0.3852 -0.7840 -0.4867
vn -0.5941 -0.0163 -0.8042
vn -0.3419 -0.7418 -0.5769
vn -0.0508 -0.9117 -0.4075
vn -0.3846 -0.7490 -0.5395
vn -0.2854 -0.9098 -0.3012
vn -0.2976 -0.8897 -0.3462
vn 0.0114 -0.8452 0.5342
vn 0.1001 -0.8227 0.5596
vn 0.2221 -0.0554 -0.9734
vn 0.1609 -0.7499 -0.6417
vn 0.3507 -0.6970 -0.6254
vn 0.4626 -0.8347 -0.2985
vn 0.1672 -0.9072 -0.3860
vn -0.0787 -0.8555 0.5117
vn 0.2762 -0.0647 0.9589
vn 0.3276 -0.1223 0.9369
vn 0.0609 0.1223 0.9906
vn 0.3308 -0.1797 0.9264
vn 0.2709 0.2178 0.9376
vn 0.2895 0.1521 0.9450
vn -0.0607 0.9037 0.4237
vn 0.0494 0.8284 0.5580
vn -0.2668 0.9172 -0.2958
vn -0.3100 0.8617 -0.4017
vn -0.1425 0.6787 -0.7204
vn -0.2889 0.9128 -0.2886
vn -0.3706 0.7559 -0.5396
vn -0.4867 0.7105 -0.5082
vn -0.2698 -0.1111 0.9565
vn -0.1657 -0.1568 0.9736
vn -0.5364 0.0756 0.8405
vn -0.2234 0.0920 0.9704
vn -0.0631 0.8599 0.5065
vn 0.1839 0.9102 -0.3710
vn 0.2954 0.8930 -0.3395
vn 0.6168 0.5546 -0.5584
vn 0.2416 0.7316 -0.6374
vn 0.8774 0.0207 -0.4792
vn 0.7354 -0.6343 -0.2383
vn -0.2568 -0.8047 0.5351
vn -0.7843 -0.0055 0.6204
vn -0.3132 0.7657 0.5618
vn 0.6522 0.7393 -0.1676
usemtl ColobotMesh_mat_1
s 1
f 2/1/1 15/2/2 11/3/3
f 3/4/4 21/5/5 29/6/6
f 8/7/7 27/8/8 24/9/9
f 9/10/10 20/11/11 32/12/12
f 3/13/4 35/14/13 21/15/5
f 6/16/14 25/17/15 53/18/16
f 6/19/14 52/20/17 25/21/15
f 2/1/1 11/3/3 55/22/18
f 9/23/10 49/24/19 20/25/11
f 10/26/20 14/27/21 48/28/22
f 10/29/20 40/30/23 14/31/21
f 8/7/7 24/9/9 58/32/24
f 1/33/25 38/34/26 44/35/27
f 1/36/25 17/37/28 38/38/26
f 1/33/25 44/35/27 17/39/28
f 12/40/29 30/41/30 4/42/31
f 11/3/3 59/43/32 12/40/29
f 12/40/29 59/43/32 30/41/30
f 59/43/32 29/6/6 30/41/30
f 11/3/3 15/2/2 59/43/32
f 15/2/2 16/44/33 59/43/32
f 59/43/32 16/44/33 29/6/6
f 16/44/33 3/4/4 29/6/6
f 30/41/30 33/45/34 4/42/31
f 29/6/6 60/46/35 30/41/30
f 30/41/30 60/46/35 33/45/34
f 60/46/35 34/47/36 33/45/34
f 29/6/6 21/5/5 60/46/35
f 21/5/5 22/48/37 60/46/35
f 60/46/35 22/48/37 34/47/36
f 22/48/37 5/49/38 34/47/36
f 23/50/39 31/51/40 2/1/1
f 24/9/9 61/52/41 23/50/39
f 23/50/39 61/52/41 31/51/40
f 61/52/41 32/12/12 31/51/40
f 24/9/9 27/8/8 61/52/41
f 27/8/8 28/53/42 61/52/41
f 61/52/41 28/53/42 32/12/12
f 28/53/42 9/10/10 32/12/12
f 31/51/40 15/2/2 2/1/1
f 32/12/12 62/54/43 31/51/40
f 31/51/40 62/54/43 15/2/2
f 62/54/43 16/44/33 15/2/2
f 32/12/12 20/11/11 62/54/43
f 20/11/11 19/55/44 62/54/43
f 62/54/43 19/55/44 16/44/33
f 19/55/44 3/4/4 16/44/33
f 22/56/37 54/57/45 5/58/38
f 21/15/5 63/59/46 22/56/37
f 22/56/37 63/59/46 54/57/45
f 63/59/46 53/18/16 54/57/45
f 21/15/5 35/14/13 63/59/46
f 35/14/13 36/60/47 63/59/46
f 63/59/46 36/60/47 53/18/16
f 36/60/47 6/16/14 53/18/16
f 54/57/45 45/61/48 5/58/38
f 53/18/16 64/62/49 54/57/45
f 54/57/45 64/62/49 45/61/48
f 64/62/49 46/63/50 45/61/48
f 53/18/16 25/17/15 64/62/49
f 25/17/15 26/64/51 64/62/49
f 64/62/49 26/64/51 46/63/50
f 26/64/51 7/65/52 46/63/50
f 26/66/51 56/67/53 7/68/52
f 25/21/15 65/69/54 26/66/51
f 26/66/51 65/69/54 56/67/53
f 65/69/54 55/22/18 56/67/53
f 25/21/15 52/20/17 65/69/54
f 52/20/17 51/70/55 65/69/54
f 65/69/54 51/70/55 55/22/18
f 51/70/55 2/1/1 55/22/18
f 56/67/53 42/71/56 7/68/52
f 55/22/18 66/72/57 56/67/53
f 56/67/53 66/72/57 42/71/56
f 66/72/57 41/73/58 42/71/56
f 55/22/18 11/3/3 66/72/57
f 11/3/3 12/40/29 66/72/57
f 66/72/57 12/40/29 41/73/58
f 12/40/29 4/42/31 41/73/58
f 19/74/44 47/75/59 3/13/4
f 20/25/11 67/76/60 19/74/44
f 19/74/44 67/76/60 47/75/59
f 67/76/60 48/28/22 47/75/59
f 20/25/11 49/24/19 67/76/60
f 49/24/19 50/77/61 67/76/60
f 67/76/60 50/77/61 48/28/22
f 50/77/61 10/26/20 48/28/22
f 47/75/59 35/14/13 3/13/4
f 48/28/22 68/78/62 47/75/59
f 47/75/59 68/78/62 35/14/13
f 68/78/62 36/60/47 35/14/13
f 48/28/22 14/27/21 68/78/62
f 14/27/21 13/79/63 68/78/62
f 68/78/62 13/79/63 36/60/47
f 13/79/63 6/16/14 36/60/47
f 13/80/63 57/81/64 6/19/14
f 14/31/21 69/82/65 13/80/63
f 13/80/63 69/82/65 57/81/64
f 69/82/65 58/32/24 57/81/64
f 14/31/21 40/30/23 69/82/65
f 40/30/23 39/83/66 69/82/65
f 69/82/65 39/83/66 58/32/24
f 39/83/66 8/7/7 58/32/24
f 57/81/64 52/20/17 6/19/14
f 58/32/24 70/84/67 57/81/64
f 57/81/64 70/84/67 52/20/17
f 70/84/67 51/70/55 52/20/17
f 58/32/24 24/9/9 70/84/67
f 24/9/9 23/50/39 70/84/67
f 70/84/67 23/50/39 51/70/55
f 23/50/39 2/1/1 51/70/55
f 43/85/68 27/8/8 8/7/7
f 44/35/27 71/86/69 43/85/68
f 43/85/68 71/86/69 27/8/8
f 71/86/69 28/53/42 27/8/8
f 44/35/27 38/34/26 71/86/69
f 38/34/26 37/87/70 71/86/69
f 71/86/69 37/87/70 28/53/42
f 37/87/70 9/10/10 28/53/42
f 37/88/70 49/24/19 9/23/10
f 38/38/26 72/89/71 37/88/70
f 37/88/70 72/89/71 49/24/19
f 72/89/71 50/77/61 49/24/19
f 38/38/26 17/37/28 72/89/71
f 17/37/28 18/90/72 72/89/71
f 72/89/71 18/90/72 50/77/61
f 18/90/72 10/26/20 50/77/61
f 18/91/72 40/30/23 10/29/20
f 17/39/28 73/92/73 18/91/72
f 18/91/72 73/92/73 40/30/23
f 73/92/73 39/83/66 40/30/23
f 17/39/28 44/35/27 73/92/73
f 44/35/27 43/85/68 73/92/73
f 73/92/73 43/85/68 39/83/66
f 43/85/68 8/7/7 39/83/66
