# Blender v2.72 (sub 0) OBJ File: 'mother3.blend'
# www.blender.org
mtllib mother3.mtl
o ColobotMesh_1_ColobotMesh_
v -0.036190 -0.724549 -8.403450
v -0.036191 -1.970360 -2.210690
v 0.858615 0.514607 -2.210690
v -0.036192 -0.002010 0.559600
v -0.930998 0.514607 -2.210690
v 0.589549 0.359263 -8.403450
v -0.661929 0.359262 -8.403450
v -0.037138 -1.446751 -0.906550
v -0.037138 -0.790635 0.016879
v 0.467106 -1.285065 -2.120141
v 0.765375 -0.456743 -2.120141
v 0.260447 0.710357 -2.164640
v -0.336091 0.710357 -2.164640
v 0.622042 0.414730 -0.954900
v 0.323773 0.242524 -0.031470
v -0.322004 -0.399978 -8.525545
v -0.530584 -0.038708 -8.525545
v 0.586136 -1.345575 -4.552388
v 0.794716 -0.569034 -6.616642
v -0.044640 -2.098764 -4.422259
v -0.044639 -1.683493 -6.486513
v -0.561356 -0.611858 -6.649433
v -0.859626 -0.198806 -4.585179
v 0.177641 0.832573 -4.550559
v -0.329207 0.780791 -6.614812
v 0.243172 -0.401293 -8.529131
v 0.451751 -0.040022 -8.529131
v -0.698506 0.416992 -0.955311
v -0.400237 0.244786 -0.031881
v -1.225990 0.696207 -4.483639
v -1.136300 0.644426 -6.547892
v 1.161524 0.711746 -4.494743
v 1.071835 0.659965 -6.558996
v -0.841752 -0.456850 -2.123738
v -0.543483 -1.285172 -2.123738
v 0.168128 0.445930 -8.524766
v -0.249032 0.445930 -8.524766
v 0.426827 -0.594822 -0.692386
v -0.040278 0.549373 -0.816675
v -0.506382 -0.592891 -0.694184
v 0.450761 -1.269869 -6.662159
v 1.263893 -0.529541 -4.544910
v 0.458338 0.860248 -6.689669
v -0.508642 1.134935 -4.568757
v -1.006773 0.044628 -6.701640
v -0.865597 -1.388829 -4.532646
v -0.007675 0.027912 -8.665620
vt 0.783203 0.939453
vt 0.792318 0.948568
vt 0.783203 0.946673
vt 0.810547 0.966797
vt 0.801432 0.966797
vt 0.805990 0.957682
vt 0.783203 0.966797
vt 0.792318 0.957682
vt 0.792318 0.964902
vt 0.001953 0.735326
vt 0.001953 0.739566
vt 0.083984 0.730452
vt 0.001953 0.746338
vt 0.083984 0.746908
vt 0.083984 0.737793
vt 0.001953 0.720703
vt 0.083984 0.729818
vt 0.001953 0.744619
vt 0.001953 0.736647
vt 0.083984 0.745762
vt 0.001953 0.734412
vt 0.083984 0.738957
vt 0.796875 0.970703
vt 0.792318 0.979818
vt 0.801432 0.979818
vt 0.783203 0.953892
vt 0.792318 0.963007
vt 0.783203 0.961112
vt 0.792318 0.955787
vt 0.801432 0.964902
vt 0.801432 0.957682
vt 0.801432 0.948568
vt 0.796875 0.939453
vt 0.796875 0.957682
vt 0.787760 0.957682
vt 0.792318 0.966797
vt 0.801432 0.963007
vt 0.810547 0.953892
vt 0.810547 0.961112
vt 0.801432 0.955787
vt 0.810547 0.946673
vt 0.810547 0.939453
vt 0.166016 0.725577
vt 0.166016 0.729818
vt 0.248047 0.720703
vt 0.083984 0.734692
vt 0.083984 0.738932
vt 0.001953 0.743807
vt 0.001953 0.748047
vt 0.166016 0.729248
vt 0.248047 0.729818
vt 0.166016 0.738363
vt 0.248047 0.738932
vt 0.166016 0.747477
vt 0.248047 0.748047
vt 0.166016 0.738932
vt 0.166016 0.746904
vt 0.001953 0.728675
vt 0.166016 0.743502
vt 0.166016 0.734387
vt 0.166016 0.725273
vt 0.805990 0.988932
vt 0.801432 0.998047
vt 0.810547 0.998047
vt 0.796875 0.988932
vt 0.792318 0.998047
vt 0.787760 0.988932
vt 0.783203 0.998047
vn 0.767200 -0.595100 0.239500
vn 0.317500 0.938700 0.134500
vn -0.981600 -0.074400 0.176000
vn 0.641700 -0.687100 -0.340900
vn 0.954600 -0.205100 -0.216200
vn 0.257000 0.940900 -0.220600
vn -0.179100 0.964500 -0.194000
vn -0.946600 -0.250000 -0.203600
vn -0.862700 -0.450800 -0.229300
vn -0.006800 -0.357300 -0.934000
vn 0.866700 -0.283500 0.410500
vn 0.775800 -0.514400 0.365500
vn 0.838200 -0.270600 0.473600
vn 0.951700 -0.109400 0.287000
vn 0.815300 -0.512000 0.270500
vn 0.924300 -0.332800 0.187000
vn 0.967400 -0.130700 0.216800
vn 0.980900 -0.077500 0.178600
vn 0.002700 0.923500 0.383700
vn 0.243200 0.936400 0.253200
vn 0.002700 0.931800 0.362900
vn -0.241700 0.936900 0.252800
vn 0.229600 0.959100 0.165800
vn 0.000000 0.992900 0.118600
vn -0.227700 0.959700 0.164600
vn -0.319000 0.938500 0.132100
vn -0.864900 -0.283800 0.413900
vn -0.951800 -0.106700 0.287500
vn -0.836400 -0.270800 0.476600
vn -0.773700 -0.516500 0.367000
vn -0.968100 -0.128600 0.214900
vn -0.924600 -0.332900 0.185200
vn -0.813800 -0.514500 0.270300
vn -0.765600 -0.597200 0.239200
vn 0.769100 -0.638200 0.034100
vn 0.599300 -0.784800 -0.157900
vn 0.758500 -0.647700 -0.071900
vn 0.897200 -0.435600 -0.073200
vn 0.493800 -0.766100 -0.411300
vn 0.822700 -0.475000 -0.312400
vn 0.871300 -0.410100 -0.269700
vn 0.938900 -0.249300 -0.237300
vn 0.801400 -0.595700 0.054000
vn 0.760100 -0.629800 -0.160100
vn 0.767900 -0.638300 0.053500
vn 0.921900 -0.332000 0.199500
vn 0.955300 -0.205400 -0.212400
vn 0.995400 0.083900 -0.045400
vn 0.977400 0.072600 0.198800
vn 0.988800 -0.083400 0.123900
vn 0.115600 0.988200 0.100600
vn 0.317300 0.947600 -0.037600
vn 0.120200 0.992300 0.028600
vn -0.100400 0.994900 -0.000300
vn 0.349100 0.900700 -0.258600
vn -0.000000 0.975400 -0.220200
vn -0.115400 0.977600 -0.176200
vn -0.251800 0.951400 -0.177400
vn 0.313400 0.948900 0.037700
vn 0.402900 0.907100 -0.121700
vn 0.402200 0.914900 0.032900
vn 0.000000 0.984800 0.173900
vn -0.178500 0.966800 -0.183000
vn -0.525000 0.849900 -0.044100
vn -0.496600 0.847900 0.185400
vn -0.318600 0.940700 0.116500
vn -0.918300 -0.385900 0.088300
vn -0.978700 -0.201800 -0.037500
vn -0.924500 -0.380700 0.020500
vn -0.827200 -0.561800 -0.007100
vn -0.959000 -0.144600 -0.243800
vn -0.848700 -0.490000 -0.199200
vn -0.809700 -0.562600 -0.166800
vn -0.707700 -0.686300 -0.167800
vn -0.995800 -0.091700 -0.002400
vn -0.989800 -0.001300 -0.142700
vn -1.000000 0.005400 0.007800
vn -0.931700 -0.335500 0.139000
vn -0.845100 -0.451100 -0.287000
vn -0.634700 -0.757600 -0.152400
vn -0.658600 -0.742900 0.120000
vn -0.800800 -0.597700 0.037800
vn 0.307200 0.187700 -0.933000
vn 0.261000 -0.150700 -0.953500
vn 0.305000 0.186400 -0.933900
vn 0.000000 0.319300 -0.947600
vn -0.006800 -0.306600 -0.951800
vn -0.239800 -0.138400 -0.960900
vn -0.274500 0.161000 -0.948000
vn -0.312300 0.182900 -0.932200
usemtl ColobotMesh_mat_1
s off
f 2/1/1 10/2/1 8/3/1
f 3/4/2 12/5/2 14/6/2
f 5/7/3 34/8/3 28/9/3
f 1/10/4 26/11/4 21/12/4
f 6/13/5 33/14/5 19/15/5
f 6/16/6 36/16/6 33/17/6
f 7/16/7 31/17/7 25/17/7
f 7/18/8 17/19/8 31/20/8
f 1/21/9 21/17/9 22/22/9
f 1/23/10 16/24/10 26/25/10
f 9/26/11 15/27/11 4/28/11
f 8/3/12 38/29/12 9/26/12
f 9/26/13 38/29/13 15/27/13
f 38/29/14 14/30/14 15/27/14
f 8/3/15 10/2/15 38/29/15
f 10/2/16 11/31/16 38/29/16
f 38/29/17 11/31/17 14/30/17
f 11/31/18 3/4/18 14/30/18
f 15/32/19 29/2/19 4/33/19
f 14/6/20 39/34/20 15/32/20
f 15/32/21 39/34/21 29/2/21
f 39/34/22 28/35/22 29/2/22
f 14/6/23 12/5/23 39/34/23
f 12/5/24 13/36/24 39/34/24
f 39/34/25 13/36/25 28/35/25
f 13/36/26 5/7/26 28/35/26
f 29/37/27 9/38/27 4/39/27
f 28/9/28 40/40/28 29/37/28
f 29/37/29 40/40/29 9/38/29
f 40/40/30 8/41/30 9/38/30
f 28/9/31 34/8/31 40/40/31
f 34/8/32 35/32/32 40/40/32
f 40/40/33 35/32/33 8/41/33
f 35/32/34 2/42/34 8/41/34
f 20/43/35 18/44/35 2/45/35
f 21/12/36 41/46/36 20/43/36
f 20/43/37 41/46/37 18/44/37
f 41/46/38 19/47/38 18/44/38
f 21/12/39 26/11/39 41/46/39
f 26/11/40 27/48/40 41/46/40
f 41/46/41 27/48/41 19/47/41
f 27/48/42 6/49/42 19/47/42
f 18/50/43 10/51/43 2/45/43
f 19/15/44 42/52/44 18/50/44
f 18/50/45 42/52/45 10/51/45
f 42/52/46 11/53/46 10/51/46
f 19/15/47 33/14/47 42/52/47
f 33/14/48 32/54/48 42/52/48
f 42/52/49 32/54/49 11/53/49
f 32/54/50 3/55/50 11/53/50
f 32/56/51 24/56/51 3/55/51
f 33/17/52 43/17/52 32/56/52
f 32/56/53 43/17/53 24/56/53
f 43/17/54 25/17/54 24/56/54
f 33/17/55 36/16/55 43/17/55
f 36/16/56 37/16/56 43/17/56
f 43/17/57 37/16/57 25/17/57
f 37/16/58 7/16/58 25/17/58
f 24/56/59 12/55/59 3/55/59
f 25/17/60 44/56/60 24/56/60
f 24/56/61 44/56/61 12/55/61
f 44/56/62 13/55/62 12/55/62
f 25/17/63 31/17/63 44/56/63
f 31/17/64 30/56/64 44/56/64
f 44/56/65 30/56/65 13/55/65
f 30/56/66 5/55/66 13/55/66
f 30/57/67 23/56/67 5/55/67
f 31/20/68 45/15/68 30/57/68
f 30/57/69 45/15/69 23/56/69
f 45/15/70 22/17/70 23/56/70
f 31/20/71 17/19/71 45/15/71
f 17/19/72 16/58/72 45/15/72
f 45/15/73 16/58/73 22/17/73
f 16/58/74 1/16/74 22/17/74
f 23/59/75 34/53/75 5/55/75
f 22/22/76 46/60/76 23/59/76
f 23/59/77 46/60/77 34/53/77
f 46/60/78 35/51/78 34/53/78
f 22/22/79 21/17/79 46/60/79
f 21/17/80 20/61/80 46/60/80
f 46/60/81 20/61/81 35/51/81
f 20/61/82 2/45/82 35/51/82
f 27/62/83 36/63/83 6/64/83
f 26/25/84 47/65/84 27/62/84
f 27/62/85 47/65/85 36/63/85
f 47/65/86 37/66/86 36/63/86
f 26/25/87 16/24/87 47/65/87
f 16/24/88 17/67/88 47/65/88
f 47/65/89 17/67/89 37/66/89
f 17/67/90 7/68/90 37/66/90
