# Blender v2.77 (sub 0) OBJ File: 'mother5.blend'
# www.blender.org
mtllib mother5.mtl
o ColobotMesh_1_ColobotMesh_
v 0.166476 -0.208281 -0.047428
v 0.379440 -0.260606 -0.062533
v 0.104439 -0.223209 0.047823
v 0.104439 -0.131794 -0.120109
v 0.429440 -0.160881 -0.195279
v 0.429440 -0.304929 0.092605
v -0.003894 -0.122098 -0.009754
v 0.166476 -0.000827 0.275642
v 0.379440 0.012254 0.328509
v 0.104439 0.089126 0.240945
v 0.104439 -0.102015 0.245743
v 0.429440 -0.152570 0.308517
v 0.429440 0.168769 0.289325
v -0.003894 -0.011292 0.182168
v 0.166476 0.175232 -0.065553
v 0.379440 0.214476 -0.103316
v 0.104439 0.100207 -0.126107
v 0.104439 0.199933 0.037027
v 0.429440 0.279575 0.049422
v 0.429440 0.102285 -0.219269
v -0.003894 0.099515 -0.009754
v 5.188701 -0.217515 -0.292307
v 6.112776 -0.243986 -0.239262
v 4.704442 -0.266839 -0.229266
v 4.704442 -0.132487 -0.392400
v 5.896109 -0.124869 -0.363212
v 5.896109 -0.329861 -0.094521
v 3.596108 -0.160881 -0.355215
v 2.803515 -0.414504 0.048889
v 3.287775 -0.458673 0.172572
v 1.879440 -0.381801 -0.000558
v 3.287775 -0.384571 -0.025348
v 4.396109 -0.440667 0.129389
v 2.096107 -0.429586 0.164575
v 2.096107 -0.299389 -0.147299
v 5.188701 -0.208282 0.406077
v 6.112776 -0.149108 0.402478
v 4.704442 -0.129024 0.417272
v 4.704442 -0.337479 0.382486
v 5.896109 -0.316010 0.361295
v 5.896109 0.019179 0.404477
v 3.596108 -0.291079 0.388484
v 2.803515 0.185697 0.406077
v 3.287775 0.314894 0.382487
v 1.879440 0.126523 0.402479
v 3.287775 0.106439 0.417273
v 4.396109 0.268494 0.388484
v 2.096107 0.293426 0.361296
v 2.096107 -0.041764 0.404478
v 5.188701 0.391920 0.048888
v 6.112776 0.359217 -0.000559
v 4.704442 0.361987 -0.025348
v 4.704442 0.436089 0.172571
v 5.896109 0.407002 0.164574
v 5.896109 0.276805 -0.147299
v 3.596108 0.418083 0.129389
v 2.803515 0.194931 -0.292307
v 3.287775 0.109903 -0.392400
v 1.879440 0.221402 -0.239261
v 3.287775 0.244255 -0.229266
v 4.396109 0.138297 -0.355215
v 2.096107 0.102285 -0.363211
v 2.096107 0.307277 -0.094520
v 7.825740 -0.197816 -0.065555
v 7.612777 -0.237060 -0.103317
v 7.887777 -0.122791 -0.126108
v 7.887777 -0.222517 0.037026
v 7.562777 -0.302159 0.049421
v 7.562777 -0.124869 -0.219270
v 7.996110 -0.122099 -0.009755
v 7.825740 -0.021757 0.275640
v 7.612777 -0.034839 0.328508
v 7.887777 -0.111711 0.240943
v 7.887777 0.079430 0.245741
v 7.562777 0.129986 0.308516
v 7.562777 -0.191353 0.289324
v 7.996110 -0.011292 0.182167
v 7.825740 0.185697 -0.047429
v 7.612777 0.238022 -0.062534
v 7.887777 0.200625 0.047821
v 7.887777 0.109210 -0.120111
v 7.562777 0.138296 -0.195280
v 7.562777 0.282345 0.092603
v 7.996110 0.099514 -0.009755
v 6.898526 -0.126254 -0.296039
v 6.933527 -0.254720 -0.160094
v 6.898526 -0.343711 0.011036
v 0.479439 -0.031376 -0.262052
v 0.116939 -0.016313 -0.160793
v -0.003894 -0.011292 -0.041741
v 1.093690 0.103670 -0.296038
v 1.058690 0.232136 -0.160093
v 1.093690 0.321127 0.011038
v 1.093690 -0.214899 -0.212072
v 1.058690 -0.318607 -0.049438
v 1.093690 -0.372106 0.129789
v 1.093690 -0.140105 0.363695
v 1.058690 0.052595 0.372191
v 1.093690 0.234560 0.328909
v 0.479439 -0.275150 0.229749
v 0.116939 -0.194988 0.166075
v -0.003894 -0.094397 0.102201
v -0.003894 0.071813 0.102201
v 0.116939 0.177425 0.157378
v 0.479439 0.272650 0.194963
v 5.304442 0.387611 0.307717
v 3.996108 0.421718 0.304218
v 2.687774 0.407695 0.272931
v 7.996110 0.071812 0.102199
v 7.875277 0.172404 0.166074
v 7.512777 0.252565 0.229748
v 5.304442 0.165998 0.391683
v 3.996108 -0.011293 0.414873
v 2.687774 -0.188583 0.391683
v 7.996110 -0.094397 0.102199
v 7.875277 -0.200009 0.157377
v 7.512777 -0.295234 0.194962
v 5.304442 0.008792 -0.417990
v 3.996108 -0.011292 -0.445778
v 2.687774 -0.031376 -0.417989
v 6.898526 0.349521 0.129788
v 6.933527 0.296022 -0.049439
v 6.898526 0.192315 -0.212073
v 5.304442 0.192315 -0.268050
v 3.996108 0.301044 -0.126107
v 2.687774 0.369605 0.039026
v 6.898526 -0.257144 0.328908
v 6.933527 -0.075179 0.372190
v 6.898526 0.117520 0.363694
v 5.304442 -0.430279 0.272931
v 3.996108 -0.444303 0.304218
v 2.687774 -0.410195 0.307717
v 5.304442 -0.392189 0.039025
v 3.996108 -0.323628 -0.126108
v 2.687774 -0.214899 -0.268050
v 7.996110 -0.011292 -0.041742
v 7.875277 -0.006271 -0.160794
v 7.512777 0.008792 -0.262053
v 7.996110 -0.011292 0.054219
v 1.181690 -0.067803 -0.354575
v 1.181690 -0.337063 0.307557
v -0.003894 -0.011292 0.054220
v 1.181690 0.370990 0.209677
v 6.810526 0.045219 -0.354576
v 6.810526 -0.393574 0.209676
v 6.810526 0.314478 0.307556
vt 0.7987 0.9491
vt 0.7952 0.9503
vt 0.7980 0.9480
vt 0.7973 0.9469
vt 0.7963 0.9531
vt 0.7972 0.9507
vt 0.7939 0.9531
vt 0.7935 0.9497
vt 0.8017 0.9470
vt 0.8011 0.9487
vt 0.8040 0.9493
vt 0.8020 0.9454
vt 0.8052 0.9475
vt 0.7999 0.9508
vt 0.7992 0.9531
vt 0.8026 0.9514
vt 0.8014 0.9531
vt 0.8068 0.9531
vt 0.8074 0.9498
vt 0.8082 0.9531
vt 0.8097 0.9531
vt 0.8060 0.9512
vt 0.8088 0.9489
vt 0.8074 0.9564
vt 0.8060 0.9551
vt 0.8040 0.9570
vt 0.8088 0.9574
vt 0.8052 0.9588
vt 0.8045 0.9531
vt 0.8026 0.9548
vt 0.7987 0.9572
vt 0.8017 0.9592
vt 0.7980 0.9582
vt 0.7973 0.9593
vt 0.8011 0.9575
vt 0.8020 0.9608
vt 0.7952 0.9560
vt 0.7972 0.9555
vt 0.7935 0.9565
vt 0.7999 0.9554
vt 0.1745 0.6967
vt 0.2039 0.6997
vt 0.2129 0.6958
vt 0.2456 0.6997
vt 0.2470 0.6954
vt 0.1544 0.6995
vt 0.1794 0.7041
vt 0.2419 0.7053
vt 0.2039 0.6929
vt 0.1544 0.6950
vt 0.1794 0.6909
vt 0.1250 0.6931
vt 0.2456 0.6925
vt 0.2419 0.6908
vt 0.1084 0.6985
vt 0.1250 0.7035
vt 0.0706 0.6967
vt 0.0706 0.7028
vt 0.0956 0.6911
vt 0.0956 0.6887
vt 0.0755 0.6901
vt 0.1416 0.6893
vt 0.1250 0.6892
vt 0.1794 0.6896
vt 0.0461 0.6896
vt 0.0371 0.6912
vt 0.0044 0.6915
vt 0.0030 0.6933
vt 0.0706 0.6903
vt 0.0081 0.6927
vt 0.0461 0.6939
vt 0.0044 0.6967
vt 0.0081 0.7016
vt 0.1745 0.6970
vt 0.2039 0.6934
vt 0.2129 0.6989
vt 0.2456 0.6953
vt 0.2470 0.7014
vt 0.1544 0.6927
vt 0.2039 0.7045
vt 0.1544 0.6996
vt 0.1794 0.7093
vt 0.1250 0.7035
vt 0.2456 0.7077
vt 0.2419 0.7142
vt 0.1084 0.6942
vt 0.0706 0.6976
vt 0.0956 0.7074
vt 0.0956 0.7142
vt 0.0755 0.7100
vt 0.1416 0.7127
vt 0.1250 0.7178
vt 0.1794 0.7166
vt 0.0461 0.7135
vt 0.0371 0.7080
vt 0.0044 0.7116
vt 0.0030 0.7056
vt 0.0706 0.7173
vt 0.0081 0.7161
vt 0.0461 0.7025
vt 0.0044 0.6992
vt 0.1745 0.7168
vt 0.2039 0.7173
vt 0.2129 0.7157
vt 0.2456 0.7154
vt 0.2470 0.7136
vt 0.1544 0.7183
vt 0.2039 0.7130
vt 0.1544 0.7158
vt 0.1794 0.7102
vt 0.1250 0.7138
vt 0.2456 0.7102
vt 0.1084 0.7177
vt 0.0706 0.7161
vt 0.0956 0.7119
vt 0.0956 0.7075
vt 0.0755 0.7103
vt 0.1416 0.7084
vt 0.0461 0.7072
vt 0.0371 0.7112
vt 0.0044 0.7073
vt 0.0030 0.7115
vt 0.0461 0.7140
vt 0.0044 0.7145
vt 0.7987 0.9803
vt 0.8017 0.9783
vt 0.7980 0.9793
vt 0.7973 0.9782
vt 0.8040 0.9805
vt 0.8011 0.9800
vt 0.8052 0.9787
vt 0.8020 0.9767
vt 0.7952 0.9815
vt 0.7972 0.9820
vt 0.7963 0.9844
vt 0.7935 0.9810
vt 0.7939 0.9844
vt 0.7999 0.9821
vt 0.8026 0.9827
vt 0.7992 0.9844
vt 0.8014 0.9844
vt 0.8068 0.9844
vt 0.8074 0.9877
vt 0.8082 0.9844
vt 0.8097 0.9844
vt 0.8040 0.9882
vt 0.8060 0.9863
vt 0.8052 0.9900
vt 0.8088 0.9886
vt 0.8074 0.9811
vt 0.8060 0.9824
vt 0.8088 0.9801
vt 0.8045 0.9844
vt 0.8026 0.9861
vt 0.7987 0.9884
vt 0.7952 0.9872
vt 0.7980 0.9895
vt 0.7973 0.9906
vt 0.7972 0.9868
vt 0.7935 0.9878
vt 0.8017 0.9905
vt 0.8011 0.9888
vt 0.8020 0.9921
vt 0.7999 0.9867
vt 0.7917 0.9531
vt 0.8063 0.9459
vt 0.8063 0.9604
vt 0.8063 0.9771
vt 0.7917 0.9844
vt 0.8063 0.9916
vn -0.3008 -0.8432 -0.4455
vn -0.1569 -0.5937 -0.7892
vn -0.1711 -0.8839 -0.4353
vn -0.0645 -0.9064 -0.4174
vn -0.4679 -0.0282 -0.8833
vn -0.4733 -0.5131 -0.7159
vn -0.1643 -0.0978 -0.9815
vn -0.0685 -0.7504 -0.6574
vn -0.1750 -0.9843 0.0219
vn -0.4796 -0.8762 -0.0472
vn -0.4679 -0.7508 0.4661
vn -0.0840 -0.9963 -0.0146
vn -0.1643 -0.8011 0.5755
vn -0.8558 -0.4468 -0.2606
vn -0.9024 -0.0029 -0.4309
vn -0.9024 -0.3717 0.2179
vn -1.0000 0.0000 0.0000
vn -0.3008 0.0357 0.9530
vn -0.1569 -0.3865 0.9088
vn -0.1711 0.0650 0.9831
vn -0.0645 0.0917 0.9937
vn -0.4733 -0.3634 0.8024
vn -0.0685 -0.1941 0.9786
vn -0.1750 0.5112 0.8415
vn -0.4796 0.3972 0.7824
vn -0.4679 0.7791 0.4172
vn -0.0840 0.4855 0.8701
vn -0.1643 0.8989 0.4061
vn -0.8558 -0.0023 0.5172
vn -0.9024 0.3746 0.2130
vn -0.3008 0.8075 -0.5074
vn -0.1569 0.9803 -0.1196
vn -0.1711 0.8189 -0.5478
vn -0.0645 0.8147 -0.5763
vn -0.4733 0.8766 -0.0864
vn -0.0685 0.9445 -0.3212
vn -0.1750 0.4731 -0.8634
vn -0.4796 0.4790 -0.7352
vn -0.0840 0.5108 -0.8556
vn -0.8558 0.4490 -0.2566
vn 0.0170 -0.7801 -0.6254
vn 0.0374 -0.4701 -0.8818
vn 0.0369 -0.7913 -0.6103
vn 0.0840 -0.5108 -0.8556
vn 0.0645 -0.8147 -0.5763
vn 0.0112 -0.5495 -0.8354
vn 0.0296 0.1955 -0.9803
vn 0.0776 0.2364 -0.9685
vn 0.0205 -0.9138 -0.4055
vn 0.0020 -0.8413 -0.5405
vn 0.0152 -0.9545 -0.2976
vn 0.0000 -0.8660 -0.5000
vn 0.0685 -0.9445 -0.3212
vn 0.0776 -0.9570 0.2795
vn -0.0107 -0.6747 -0.7380
vn 0.0000 0.0000 -1.0000
vn -0.0152 -0.7350 -0.6778
vn -0.0296 -0.1955 -0.9803
vn -0.0020 -0.8887 -0.4584
vn -0.0112 -0.9982 -0.0582
vn -0.0170 -0.9317 -0.3629
vn 0.0107 -0.9765 -0.2153
vn 0.0000 -0.8660 0.5000
vn 0.0296 -0.9467 0.3208
vn -0.0374 -0.9987 0.0337
vn -0.0369 -0.9242 -0.3801
vn -0.0296 -0.7512 0.6594
vn -0.0776 -0.7205 0.6890
vn -0.0205 -0.8081 -0.5887
vn -0.0776 -0.2364 -0.9685
vn 0.0170 -0.1516 0.9883
vn 0.0374 -0.5286 0.8480
vn 0.0369 -0.1329 0.9904
vn 0.0840 -0.4855 0.8701
vn 0.0645 -0.0917 0.9937
vn 0.0112 -0.4487 0.8936
vn 0.0205 0.1058 0.9942
vn 0.0020 -0.0474 0.9989
vn 0.0152 0.2195 0.9755
vn 0.0000 0.0000 1.0000
vn 0.0685 0.1941 0.9786
vn 0.0776 0.7205 0.6890
vn -0.0107 -0.3018 0.9533
vn -0.0152 -0.2195 0.9755
vn -0.0020 0.0474 0.9989
vn -0.0112 0.4487 0.8936
vn -0.0170 0.1516 0.9883
vn 0.0107 0.3018 0.9533
vn 0.0000 0.8660 0.5000
vn 0.0296 0.7512 0.6594
vn -0.0374 0.5286 0.8480
vn -0.0369 0.1329 0.9904
vn -0.0296 0.9467 0.3208
vn -0.0776 0.9570 0.2795
vn -0.0205 -0.1058 0.9942
vn 0.0170 0.9317 -0.3629
vn 0.0374 0.9987 0.0337
vn 0.0369 0.9242 -0.3801
vn 0.0840 0.9963 -0.0146
vn 0.0645 0.9064 -0.4174
vn 0.0112 0.9982 -0.0582
vn 0.0205 0.8081 -0.5887
vn 0.0020 0.8887 -0.4584
vn 0.0152 0.7350 -0.6778
vn 0.0000 0.8660 -0.5000
vn 0.0685 0.7504 -0.6574
vn -0.0107 0.9765 -0.2153
vn -0.0152 0.9545 -0.2976
vn -0.0020 0.8413 -0.5405
vn -0.0112 0.5495 -0.8354
vn -0.0170 0.7801 -0.6254
vn 0.0107 0.6747 -0.7380
vn -0.0374 0.4701 -0.8818
vn -0.0369 0.7913 -0.6103
vn -0.0205 0.9138 -0.4055
vn 0.3008 -0.8075 -0.5074
vn 0.1569 -0.9803 -0.1196
vn 0.1711 -0.8189 -0.5478
vn 0.4679 -0.7791 0.4172
vn 0.4733 -0.8766 -0.0864
vn 0.1643 -0.8989 0.4061
vn 0.1750 -0.4731 -0.8634
vn 0.4796 -0.4790 -0.7352
vn 0.4679 0.0282 -0.8833
vn 0.1643 0.0978 -0.9815
vn 0.8558 -0.4490 -0.2566
vn 0.9024 -0.3746 0.2130
vn 0.9024 0.0029 -0.4309
vn 1.0000 0.0000 0.0000
vn 0.3008 -0.0357 0.9530
vn 0.1569 0.3865 0.9088
vn 0.1711 -0.0650 0.9831
vn 0.4679 0.7508 0.4661
vn 0.4733 0.3634 0.8024
vn 0.1643 0.8011 0.5755
vn 0.1750 -0.5112 0.8415
vn 0.4796 -0.3972 0.7824
vn 0.8558 0.0023 0.5172
vn 0.9024 0.3717 0.2179
vn 0.3008 0.8432 -0.4455
vn 0.1569 0.5937 -0.7892
vn 0.1711 0.8839 -0.4353
vn 0.4733 0.5131 -0.7159
vn 0.1750 0.9843 0.0219
vn 0.4796 0.8762 -0.0472
vn 0.8558 0.4468 -0.2606
usemtl ColobotMesh_mat_1
s 1
f 1/1/1 5/2/2 2/3/3
f 5/2/2 95/4/4 2/3/3
f 89/5/5 5/2/2 4/6/6
f 88/7/7 94/8/8 5/2/2
f 1/1/1 6/9/9 3/10/10
f 6/9/9 101/11/11 3/10/10
f 95/4/4 6/9/9 2/3/3
f 96/12/12 100/13/13 6/9/9
f 1/1/1 7/14/14 4/6/6
f 4/6/6 90/15/15 89/5/5
f 3/10/10 102/16/16 7/14/14
f 7/14/14 142/17/17 90/15/15
f 8/18/18 12/19/19 9/20/20
f 12/19/19 98/21/21 9/20/20
f 101/11/11 12/19/19 11/22/22
f 100/13/13 97/23/23 12/19/19
f 8/18/18 13/24/24 10/25/25
f 13/24/24 104/26/26 10/25/25
f 98/21/21 13/24/24 9/20/20
f 99/27/27 105/28/28 13/24/24
f 8/18/18 14/29/29 11/22/22
f 11/22/22 102/16/16 101/11/11
f 10/25/25 103/30/30 14/29/29
f 14/29/29 142/17/17 102/16/16
f 15/31/31 19/32/32 16/33/33
f 19/32/32 92/34/34 16/33/33
f 104/26/26 19/32/32 18/35/35
f 105/28/28 93/36/36 19/32/32
f 15/31/31 20/37/37 17/38/38
f 20/37/37 89/5/5 17/38/38
f 92/34/34 20/37/37 16/33/33
f 91/39/39 88/7/7 20/37/37
f 15/31/31 21/40/40 18/35/35
f 18/35/35 103/30/30 104/26/26
f 17/38/38 90/15/15 21/40/40
f 21/40/40 142/17/17 103/30/30
f 22/41/41 26/42/42 23/43/43
f 23/43/43 85/44/44 86/45/45
f 25/46/46 118/47/47 26/42/42
f 26/42/42 144/48/48 85/44/44
f 22/41/41 27/49/49 24/50/50
f 24/50/50 133/51/51 134/52/52
f 23/43/43 87/53/53 27/49/49
f 27/49/49 145/54/54 133/51/51
f 24/50/50 25/46/46 22/41/41
f 28/55/55 119/56/56 25/46/46
f 134/52/52 28/55/55 24/50/50
f 135/57/57 120/58/58 28/55/55
f 32/59/59 30/60/60 29/61/61
f 33/62/62 131/63/63 30/60/60
f 134/52/52 33/62/62 32/59/59
f 133/51/51 130/64/64 33/62/62
f 29/61/61 34/65/65 31/66/66
f 31/66/66 96/67/12 95/68/4
f 30/60/60 132/69/67 34/65/65
f 34/65/65 141/70/68 96/67/12
f 29/61/61 35/71/69 32/59/59
f 32/59/59 135/57/57 134/52/52
f 31/66/66 94/72/8 35/71/69
f 35/71/69 140/73/70 135/57/57
f 36/74/71 40/75/72 37/76/73
f 37/76/73 127/77/74 128/78/75
f 39/79/76 130/64/64 40/75/72
f 40/75/72 145/54/54 127/77/74
f 36/74/71 41/80/77 38/81/78
f 38/81/78 112/82/79 113/83/80
f 37/76/73 129/84/81 41/80/77
f 41/80/77 146/85/82 112/82/79
f 38/81/78 39/79/76 36/74/71
f 42/86/83 131/63/63 39/79/76
f 113/83/80 42/86/83 38/81/78
f 114/87/84 132/69/67 42/86/83
f 46/88/85 44/89/86 43/90/87
f 47/91/88 107/92/89 44/89/86
f 113/83/80 47/91/88 46/88/85
f 112/82/79 106/93/90 47/91/88
f 43/90/87 48/94/91 45/95/92
f 45/95/92 99/96/27 98/97/21
f 44/89/86 108/98/93 48/94/91
f 48/94/91 143/99/94 99/96/27
f 43/90/87 49/100/95 46/88/85
f 46/88/85 114/87/84 113/83/80
f 45/95/92 97/101/23 49/100/95
f 49/100/95 141/70/68 114/87/84
f 50/102/96 54/103/97 51/104/98
f 51/104/98 121/105/99 122/106/100
f 53/107/101 106/93/90 54/103/97
f 54/103/97 146/85/82 121/105/99
f 50/102/96 55/108/102 52/109/103
f 52/109/103 124/110/104 125/111/105
f 51/104/98 123/112/106 55/108/102
f 55/108/102 144/48/48 124/110/104
f 52/109/103 53/107/101 50/102/96
f 56/113/107 107/92/89 53/107/101
f 125/111/105 56/113/107 52/109/103
f 126/114/108 108/98/93 56/113/107
f 60/115/109 58/116/110 57/117/111
f 61/118/112 119/56/56 58/116/110
f 125/111/105 61/118/112 60/115/109
f 124/110/104 118/47/47 61/118/112
f 57/117/111 62/119/113 59/120/114
f 59/120/114 91/121/39 92/122/34
f 58/116/110 120/58/58 62/119/113
f 62/119/113 140/73/70 91/121/39
f 57/117/111 63/123/115 60/115/109
f 60/115/109 126/114/108 125/111/105
f 59/120/114 93/124/36 63/123/115
f 63/123/115 143/99/94 126/114/108
f 64/125/116 68/126/117 65/127/118
f 68/126/117 86/128/45 65/127/118
f 116/129/119 68/126/117 67/130/120
f 117/131/121 87/132/53 68/126/117
f 64/125/116 69/133/122 66/134/123
f 69/133/122 137/135/124 66/134/123
f 86/128/45 69/133/122 65/127/118
f 85/136/44 138/137/125 69/133/122
f 64/125/116 70/138/126 67/130/120
f 67/130/120 115/139/127 116/129/119
f 66/134/123 136/140/128 70/138/126
f 70/138/126 139/141/129 115/139/127
f 71/142/130 75/143/131 72/144/132
f 75/143/131 128/145/75 72/144/132
f 110/146/133 75/143/131 74/147/134
f 111/148/135 129/149/81 75/143/131
f 71/142/130 76/150/136 73/151/137
f 76/150/136 116/129/119 73/151/137
f 128/145/75 76/150/136 72/144/132
f 127/152/74 117/131/121 76/150/136
f 71/142/130 77/153/138 74/147/134
f 74/147/134 109/154/139 110/146/133
f 73/151/137 115/139/127 77/153/138
f 77/153/138 139/141/129 109/154/139
f 78/155/140 82/156/141 79/157/142
f 82/156/141 122/158/100 79/157/142
f 137/135/124 82/156/141 81/159/143
f 138/137/125 123/160/106 82/156/141
f 78/155/140 83/161/144 80/162/145
f 83/161/144 110/146/133 80/162/145
f 122/158/100 83/161/144 79/157/142
f 121/163/99 111/148/135 83/161/144
f 78/155/140 84/164/146 81/159/143
f 81/159/143 136/140/128 137/135/124
f 80/162/145 109/154/139 84/164/146
f 84/164/146 139/141/129 136/140/128
f 1/1/1 4/6/6 5/2/2
f 5/2/2 94/8/8 95/4/4
f 89/5/5 88/7/7 5/2/2
f 88/7/7 140/165/70 94/8/8
f 1/1/1 2/3/3 6/9/9
f 6/9/9 100/13/13 101/11/11
f 95/4/4 96/12/12 6/9/9
f 96/12/12 141/166/68 100/13/13
f 1/1/1 3/10/10 7/14/14
f 4/6/6 7/14/14 90/15/15
f 3/10/10 101/11/11 102/16/16
f 7/14/14 102/16/16 142/17/17
f 8/18/18 11/22/22 12/19/19
f 12/19/19 97/23/23 98/21/21
f 101/11/11 100/13/13 12/19/19
f 100/13/13 141/166/68 97/23/23
f 8/18/18 9/20/20 13/24/24
f 13/24/24 105/28/28 104/26/26
f 98/21/21 99/27/27 13/24/24
f 99/27/27 143/167/94 105/28/28
f 8/18/18 10/25/25 14/29/29
f 11/22/22 14/29/29 102/16/16
f 10/25/25 104/26/26 103/30/30
f 14/29/29 103/30/30 142/17/17
f 15/31/31 18/35/35 19/32/32
f 19/32/32 93/36/36 92/34/34
f 104/26/26 105/28/28 19/32/32
f 105/28/28 143/167/94 93/36/36
f 15/31/31 16/33/33 20/37/37
f 20/37/37 88/7/7 89/5/5
f 92/34/34 91/39/39 20/37/37
f 91/39/39 140/165/70 88/7/7
f 15/31/31 17/38/38 21/40/40
f 18/35/35 21/40/40 103/30/30
f 17/38/38 89/5/5 90/15/15
f 21/40/40 90/15/15 142/17/17
f 22/41/41 25/46/46 26/42/42
f 23/43/43 26/42/42 85/44/44
f 25/46/46 119/56/56 118/47/47
f 26/42/42 118/47/47 144/48/48
f 22/41/41 23/43/43 27/49/49
f 24/50/50 27/49/49 133/51/51
f 23/43/43 86/45/45 87/53/53
f 27/49/49 87/53/53 145/54/54
f 24/50/50 28/55/55 25/46/46
f 28/55/55 120/58/58 119/56/56
f 134/52/52 135/57/57 28/55/55
f 135/57/57 140/73/70 120/58/58
f 32/59/59 33/62/62 30/60/60
f 33/62/62 130/64/64 131/63/63
f 134/52/52 133/51/51 33/62/62
f 133/51/51 145/54/54 130/64/64
f 29/61/61 30/60/60 34/65/65
f 31/66/66 34/65/65 96/67/12
f 30/60/60 131/63/63 132/69/67
f 34/65/65 132/69/67 141/70/68
f 29/61/61 31/66/66 35/71/69
f 32/59/59 35/71/69 135/57/57
f 31/66/66 95/68/4 94/72/8
f 35/71/69 94/72/8 140/73/70
f 36/74/71 39/79/76 40/75/72
f 37/76/73 40/75/72 127/77/74
f 39/79/76 131/63/63 130/64/64
f 40/75/72 130/64/64 145/54/54
f 36/74/71 37/76/73 41/80/77
f 38/81/78 41/80/77 112/82/79
f 37/76/73 128/78/75 129/84/81
f 41/80/77 129/84/81 146/85/82
f 38/81/78 42/86/83 39/79/76
f 42/86/83 132/69/67 131/63/63
f 113/83/80 114/87/84 42/86/83
f 114/87/84 141/70/68 132/69/67
f 46/88/85 47/91/88 44/89/86
f 47/91/88 106/93/90 107/92/89
f 113/83/80 112/82/79 47/91/88
f 112/82/79 146/85/82 106/93/90
f 43/90/87 44/89/86 48/94/91
f 45/95/92 48/94/91 99/96/27
f 44/89/86 107/92/89 108/98/93
f 48/94/91 108/98/93 143/99/94
f 43/90/87 45/95/92 49/100/95
f 46/88/85 49/100/95 114/87/84
f 45/95/92 98/97/21 97/101/23
f 49/100/95 97/101/23 141/70/68
f 50/102/96 53/107/101 54/103/97
f 51/104/98 54/103/97 121/105/99
f 53/107/101 107/92/89 106/93/90
f 54/103/97 106/93/90 146/85/82
f 50/102/96 51/104/98 55/108/102
f 52/109/103 55/108/102 124/110/104
f 51/104/98 122/106/100 123/112/106
f 55/108/102 123/112/106 144/48/48
f 52/109/103 56/113/107 53/107/101
f 56/113/107 108/98/93 107/92/89
f 125/111/105 126/114/108 56/113/107
f 126/114/108 143/99/94 108/98/93
f 60/115/109 61/118/112 58/116/110
f 61/118/112 118/47/47 119/56/56
f 125/111/105 124/110/104 61/118/112
f 124/110/104 144/48/48 118/47/47
f 57/117/111 58/116/110 62/119/113
f 59/120/114 62/119/113 91/121/39
f 58/116/110 119/56/56 120/58/58
f 62/119/113 120/58/58 140/73/70
f 57/117/111 59/120/114 63/123/115
f 60/115/109 63/123/115 126/114/108
f 59/120/114 92/122/34 93/124/36
f 63/123/115 93/124/36 143/99/94
f 64/125/116 67/130/120 68/126/117
f 68/126/117 87/132/53 86/128/45
f 116/129/119 117/131/121 68/126/117
f 117/131/121 145/168/54 87/132/53
f 64/125/116 65/127/118 69/133/122
f 69/133/122 138/137/125 137/135/124
f 86/128/45 85/136/44 69/133/122
f 85/136/44 144/169/48 138/137/125
f 64/125/116 66/134/123 70/138/126
f 67/130/120 70/138/126 115/139/127
f 66/134/123 137/135/124 136/140/128
f 70/138/126 136/140/128 139/141/129
f 71/142/130 74/147/134 75/143/131
f 75/143/131 129/149/81 128/145/75
f 110/146/133 111/148/135 75/143/131
f 111/148/135 146/170/82 129/149/81
f 71/142/130 72/144/132 76/150/136
f 76/150/136 117/131/121 116/129/119
f 128/145/75 127/152/74 76/150/136
f 127/152/74 145/168/54 117/131/121
f 71/142/130 73/151/137 77/153/138
f 74/147/134 77/153/138 109/154/139
f 73/151/137 116/129/119 115/139/127
f 77/153/138 115/139/127 139/141/129
f 78/155/140 81/159/143 82/156/141
f 82/156/141 123/160/106 122/158/100
f 137/135/124 138/137/125 82/156/141
f 138/137/125 144/169/48 123/160/106
f 78/155/140 79/157/142 83/161/144
f 83/161/144 111/148/135 110/146/133
f 122/158/100 121/163/99 83/161/144
f 121/163/99 146/170/82 111/148/135
f 78/155/140 80/162/145 84/164/146
f 81/159/143 84/164/146 136/140/128
f 80/162/145 110/146/133 109/154/139
f 84/164/146 109/154/139 139/141/129
