# Blender v2.77 (sub 0) OBJ File: 'mother2.blend'
# www.blender.org
mtllib mother2.mtl
o ColobotMesh_1_ColobotMesh_
v 6.303290 -5.734170 -2.912640
v 6.303290 -5.734170 3.396140
v 0.845453 -5.484170 0.241750
v 3.101070 3.958360 3.396140
v 3.101060 3.958360 -2.912640
v -3.351180 0.506140 0.241750
v 7.697330 0.101636 5.345650
v 0.644174 0.925869 8.203840
v 9.405500 -2.281950 0.241750
v 7.697330 0.101635 -4.862150
v 0.644173 0.925868 -7.720340
v 8.558900 0.359908 0.241750
v 0.644173 -2.799090 -7.720340
v 0.644175 -2.799090 8.203840
v 5.440082 0.688101 7.028824
v 3.089030 0.962845 7.981554
v 0.327164 3.462202 2.483014
v -1.823586 2.311462 1.431550
v 0.478977 -5.118790 3.496704
v 0.411884 -4.223763 6.150734
v 2.171704 3.329741 -4.952318
v 1.352742 2.318910 -6.554884
v 8.746887 -0.666037 3.856807
v 9.316278 -1.460565 2.155507
v 7.754541 -4.916395 2.492310
v 8.788611 -3.765655 1.440847
v 2.171709 3.329760 5.435831
v 1.352744 2.318930 7.038398
v 5.440069 0.688117 -6.545344
v 3.089017 0.962862 -7.498074
v 4.962688 3.118349 4.425541
v 6.494774 1.832774 5.075377
v 0.548365 -0.327521 -8.042523
v 0.548365 -1.569174 -8.042523
v 4.407676 -3.651105 -5.679965
v 2.521304 -1.431092 -7.282531
v 4.962681 3.118350 -3.942042
v 6.494771 1.832775 -4.591878
v 7.239026 -4.005652 4.502673
v 7.703706 -2.060383 5.152510
v 8.296355 0.321855 3.855390
v 8.583545 0.407945 2.154089
v 9.361132 -1.375000 0.241750
v 9.078932 -0.494381 0.241750
v 7.239026 -4.005652 -4.019173
v 7.703706 -2.060383 -4.669010
v 0.327162 3.462264 -1.999534
v -1.823585 2.311524 -0.948070
v 0.478948 -5.118823 -3.013240
v 0.411855 -4.223796 -5.667269
v -2.663112 1.029147 -3.037906
v -1.331328 1.169056 -5.691936
v 4.516802 -6.271381 2.536815
v 2.697523 -6.188048 1.485352
v -1.362981 -3.673867 0.241750
v -2.761859 -1.677097 0.241750
v -2.663112 1.029147 3.521406
v -1.331327 1.169057 6.175436
v 3.120818 4.334652 1.293213
v 3.120814 4.334652 -0.809713
v 8.296359 0.321856 -3.371890
v 8.583549 0.407947 -1.670590
v 7.754552 -4.916415 -2.008822
v 8.788622 -3.765675 -0.957358
v 4.418835 -5.226323 5.574034
v 2.532464 -4.247963 7.176601
v 0.548361 -0.327529 8.526037
v 0.548361 -1.569182 8.526037
v 4.516802 -6.271381 -2.053316
v 2.697523 -6.188048 -1.001853
v -2.768321 -0.860431 3.659999
v -1.436536 -1.962174 6.314029
v 9.316294 -1.460575 -1.672007
v 8.746903 -0.666047 -3.373307
v -2.768322 -0.860430 -3.176498
v -1.436537 -1.962174 -5.830528
v 6.563815 -6.255276 -0.809714
v 6.563815 -6.255276 1.293213
v 4.418834 -5.226323 -5.090534
v 2.532462 -4.247962 -6.693100
v 5.176706 3.384058 -1.985252
v 6.995986 2.184574 -0.933788
v 5.176712 3.384057 2.468752
v 6.995988 2.184573 1.417288
v 4.407697 -3.651143 6.163487
v 2.521325 -1.431131 7.766054
v 4.567760 -6.679171 0.241750
v 0.221197 3.720974 0.241733
v 3.910945 2.308001 6.586204
v 8.551344 -3.015406 3.476109
v 8.551349 -3.015417 -2.992615
v 3.910931 2.308001 -6.102707
v -0.558607 2.817025 4.648189
v 5.476640 -1.482706 7.166114
v 8.034232 -5.199219 0.241740
v 5.476626 -1.482686 -6.682636
v -0.558600 2.817040 -4.164690
v 7.044720 2.164574 3.341311
v 9.139263 -0.436515 2.149918
v 9.139264 -0.436515 -1.666417
v 7.044721 2.164576 -2.857811
v 5.260544 3.612819 0.241750
v -1.573684 -0.374708 -5.982076
v -1.691335 -3.221484 -3.351274
v -1.573683 -0.374708 6.465577
v -1.691323 -3.221472 3.834760
v 2.367163 -2.700856 -7.294807
v 2.367173 -2.700891 7.778333
v 2.442140 -5.541934 4.789820
v 2.346798 -5.661311 -4.164129
vt 0.1882 0.2520
vt 0.1882 0.2520
vt 0.1531 0.2541
vt 0.1264 0.4980
vt 0.1264 0.4980
vt 0.0849 0.4688
vt 0.2151 0.4001
vt 0.1855 0.4328
vt 0.1697 0.4071
vt 0.2480 0.3396
vt 0.2371 0.3598
vt 0.2281 0.3104
vt 0.2151 0.4001
vt 0.2261 0.3800
vt 0.2061 0.3507
vt 0.1264 0.4980
vt 0.1560 0.4654
vt 0.1106 0.4724
vt 0.0020 0.4104
vt 0.0276 0.4139
vt 0.0434 0.4396
vt 0.0790 0.4211
vt 0.1154 0.3647
vt 0.1244 0.4141
vt 0.1882 0.2520
vt 0.1882 0.2520
vt 0.2081 0.2812
vt 0.1518 0.3083
vt 0.1972 0.3013
vt 0.0790 0.4211
vt 0.0533 0.4175
vt 0.0948 0.4467
vt 0.1560 0.4654
vt 0.1615 0.4676
vt 0.2261 0.3800
vt 0.2206 0.4023
vt 0.2371 0.3598
vt 0.2426 0.3620
vt 0.1855 0.4328
vt 0.2206 0.4023
vt 0.1264 0.4980
vt 0.1615 0.4676
vt 0.0790 0.3895
vt 0.0829 0.2583
vt 0.0559 0.3090
vt 0.0816 0.2810
vt 0.0790 0.3265
vt 0.0790 0.3580
vt 0.0533 0.3544
vt 0.0289 0.3597
vt 0.0276 0.3824
vt 0.1518 0.2768
vt 0.1154 0.3016
vt 0.1180 0.2562
vt 0.0816 0.2810
vt 0.0790 0.3265
vt 0.1154 0.3016
vt 0.0803 0.3038
vt 0.1180 0.2562
vt 0.1531 0.2541
vt 0.1531 0.2541
vt 0.0434 0.4396
vt 0.0849 0.4688
vt 0.0849 0.4688
vt 0.0948 0.4467
vt 0.1402 0.4397
vt 0.1106 0.4724
vt 0.1972 0.3013
vt 0.2171 0.3306
vt 0.2061 0.3507
vt 0.2081 0.2812
vt 0.2171 0.3306
vt 0.2281 0.3104
vt 0.1244 0.4141
vt 0.1402 0.4397
vt 0.1697 0.4071
vt 0.0691 0.4432
vt 0.0533 0.4175
vt 0.1608 0.3577
vt 0.1518 0.3083
vt 0.2081 0.2812
vt 0.1608 0.3577
vt 0.1154 0.3647
vt 0.0691 0.4432
vt 0.0276 0.4139
vt 0.1966 0.4371
vt 0.2262 0.4045
vt 0.2317 0.4067
vt 0.1911 0.4350
vt 0.2372 0.3843
vt 0.2316 0.3821
vt 0.2262 0.4045
vt 0.2316 0.3821
vt 0.1966 0.4371
vt 0.1911 0.4350
vt 0.1615 0.4676
vt 0.0276 0.3824
vt 0.0533 0.3860
vt 0.0533 0.3544
vt 0.0790 0.3580
vt 0.0546 0.3317
vt 0.0533 0.3860
vt 0.0790 0.3895
vt 0.0803 0.3038
vt 0.0546 0.3317
vt 0.1154 0.3332
vt 0.1154 0.3332
vt 0.1518 0.2768
vt 0.1167 0.2789
vt 0.1167 0.2789
vn 0.4037 -0.8069 -0.4310
vn 0.4033 -0.9036 -0.1446
vn 0.0216 -0.9731 -0.2293
vn 0.0588 0.9722 0.2267
vn 0.0591 0.9938 0.0941
vn -0.3544 0.9258 0.1312
vn 0.7353 0.2522 0.6290
vn 0.5861 0.6590 0.4714
vn 0.5144 0.3221 0.7948
vn 0.9843 -0.1764 0.0000
vn 0.9815 -0.0352 0.1881
vn 0.8932 -0.4250 0.1466
vn 0.7353 0.2522 -0.6290
vn 0.9026 0.1246 -0.4120
vn 0.7099 -0.2119 -0.6717
vn 0.0588 0.9722 -0.2267
vn 0.3784 0.8639 -0.3324
vn -0.0430 0.9197 -0.3903
vn -0.9784 0.2066 0.0000
vn -0.8811 0.4009 0.2509
vn -0.6618 0.7469 0.0645
vn -0.2579 0.4102 0.8747
vn 0.3058 -0.1178 0.9448
vn 0.2067 0.2969 0.9322
vn 0.4037 -0.8069 0.4310
vn 0.4033 -0.9036 0.1446
vn 0.7158 -0.6315 0.2982
vn 0.4426 -0.4061 -0.7995
vn 0.5717 -0.5356 -0.6215
vn -0.2579 0.4102 -0.8747
vn -0.7070 0.4707 -0.5278
vn -0.1599 0.7676 -0.6207
vn 0.3784 0.8639 0.3324
vn 0.4456 0.8866 0.1239
vn 0.9026 0.1246 0.4120
vn 0.8129 0.5021 0.2949
vn 0.9815 -0.0352 -0.1881
vn 0.9872 0.1598 0.0000
vn 0.5861 0.6590 -0.4714
vn 0.8129 0.5021 -0.2949
vn 0.0591 0.9938 -0.0941
vn 0.4456 0.8866 -0.1239
vn -0.1723 0.1399 -0.9750
vn -0.4995 -0.8663 0.0000
vn -0.7289 -0.6846 0.0000
vn -0.5163 -0.8448 -0.1402
vn -0.2510 -0.4542 0.8548
vn -0.2168 -0.1211 0.9687
vn -0.8005 -0.3419 0.4923
vn -0.9132 -0.4074 0.0000
vn -0.9561 -0.1660 0.2414
vn 0.3831 -0.6748 -0.6308
vn 0.1492 -0.6280 0.7637
vn -0.2667 -0.9591 0.0945
vn -0.5016 -0.8521 0.1494
vn -0.2510 -0.4542 -0.8548
vn 0.1502 -0.6234 -0.7673
vn -0.4964 -0.7548 -0.4287
vn -0.2669 -0.9600 -0.0840
vn -0.0187 -0.9998 0.0000
vn 0.0128 -0.9721 0.2342
vn -0.6618 0.7469 -0.0645
vn -0.3912 0.9203 0.0000
vn -0.3544 0.9258 -0.1312
vn -0.1599 0.7676 0.6207
vn 0.2911 0.7311 0.6170
vn -0.0430 0.9197 0.3903
vn 0.5717 -0.5356 0.6215
vn 0.8494 -0.3368 0.4064
vn 0.7099 -0.2119 0.6717
vn 0.7158 -0.6315 -0.2982
vn 0.8494 -0.3368 -0.4064
vn 0.8932 -0.4250 -0.1466
vn 0.2067 0.2969 -0.9322
vn 0.2911 0.7311 -0.6170
vn 0.5144 0.3221 -0.7947
vn -0.4888 0.8225 0.2906
vn -0.7070 0.4707 0.5278
vn 0.4394 -0.2219 0.8704
vn 0.4426 -0.4061 0.7995
vn 0.7511 -0.6601 0.0000
vn 0.4394 -0.2219 -0.8704
vn 0.3057 -0.1178 -0.9448
vn -0.4888 0.8225 -0.2907
vn -0.8811 0.4009 -0.2509
vn 0.6757 0.7371 0.0091
vn 0.8043 0.5916 0.0545
vn 0.8072 0.5903 0.0000
vn 0.6571 0.7347 0.1686
vn 0.9078 0.4194 0.0000
vn 0.9247 0.3667 0.1022
vn 0.8043 0.5916 -0.0545
vn 0.9247 0.3667 -0.1022
vn 0.6757 0.7371 -0.0091
vn 0.6571 0.7347 -0.1686
vn 0.4838 0.8751 0.0000
vn -0.9561 -0.1660 -0.2414
vn -0.8198 0.0561 -0.5698
vn -0.8005 -0.3419 -0.4923
vn -0.2168 -0.1211 -0.9687
vn -0.7844 -0.5926 -0.1831
vn -0.8198 0.0561 0.5698
vn -0.1723 0.1399 0.9750
vn -0.4909 -0.7605 0.4249
vn -0.7844 -0.5926 0.1831
vn 0.3953 -0.1959 -0.8974
vn 0.3952 -0.1960 0.8974
vn 0.3761 -0.6801 0.6293
vn -0.1831 -0.9268 0.3280
vn -0.1938 -0.9287 -0.3161
usemtl ColobotMesh_mat_1
s 1
f 1/1/1 77/2/2 69/3/3
f 4/4/4 59/5/5 17/6/6
f 7/7/7 32/8/8 15/9/9
f 9/10/10 24/11/11 26/12/12
f 10/13/13 74/14/14 46/15/15
f 5/16/16 37/17/17 21/18/18
f 6/19/19 57/20/20 18/21/21
f 8/22/22 86/23/23 16/24/24
f 2/25/25 78/26/26 25/27/27
f 1/1/1 35/28/28 45/29/29
f 11/30/30 52/31/31 22/32/32
f 4/4/4 31/33/33 83/34/34
f 7/7/7 23/35/35 41/36/36
f 9/10/10 73/37/37 43/38/38
f 10/13/13 38/39/39 61/40/40
f 5/16/16 60/41/41 81/42/42
f 11/30/30 33/43/43 52/31/31
f 3/44/44 55/45/45 49/46/46
f 14/47/47 68/48/48 72/49/49
f 6/19/19 56/50/50 71/51/51
f 1/1/1 79/52/52 35/28/28
f 14/47/47 66/53/53 68/48/48
f 3/44/44 54/54/54 19/55/55
f 13/56/56 80/57/57 50/58/58
f 70/59/59 54/54/54 3/44/44
f 69/3/3 87/60/60 70/59/59
f 70/59/59 87/60/60 54/54/54
f 87/60/60 53/61/61 54/54/54
f 69/3/3 77/2/2 87/60/60
f 77/2/2 78/26/26 87/60/60
f 87/60/60 78/26/26 53/61/61
f 78/26/26 2/25/25 53/61/61
f 18/21/21 48/62/62 6/19/19
f 17/6/6 88/63/63 18/21/21
f 18/21/21 88/63/63 48/62/62
f 88/63/63 47/64/64 48/62/62
f 17/6/6 59/5/5 88/63/63
f 59/5/5 60/41/41 88/63/63
f 88/63/63 60/41/41 47/64/64
f 60/41/41 5/16/16 47/64/64
f 16/24/24 28/65/65 8/22/22
f 15/9/9 89/66/66 16/24/24
f 16/24/24 89/66/66 28/65/65
f 89/66/66 27/67/67 28/65/65
f 15/9/9 32/8/8 89/66/66
f 32/8/8 31/33/33 89/66/66
f 89/66/66 31/33/33 27/67/67
f 31/33/33 4/4/4 27/67/67
f 25/27/27 39/68/68 2/25/25
f 26/12/12 90/69/69 25/27/27
f 25/27/27 90/69/69 39/68/68
f 90/69/69 40/70/70 39/68/68
f 26/12/12 24/11/11 90/69/69
f 24/11/11 23/35/35 90/69/69
f 90/69/69 23/35/35 40/70/70
f 23/35/35 7/7/7 40/70/70
f 45/29/29 63/71/71 1/1/1
f 46/15/15 91/72/72 45/29/29
f 45/29/29 91/72/72 63/71/71
f 91/72/72 64/73/73 63/71/71
f 46/15/15 74/14/14 91/72/72
f 74/14/14 73/37/37 91/72/72
f 91/72/72 73/37/37 64/73/73
f 73/37/37 9/10/10 64/73/73
f 22/32/32 30/74/74 11/30/30
f 21/18/18 92/75/75 22/32/32
f 22/32/32 92/75/75 30/74/74
f 92/75/75 29/76/76 30/74/74
f 21/18/18 37/17/17 92/75/75
f 37/17/17 38/39/39 92/75/75
f 92/75/75 38/39/39 29/76/76
f 38/39/39 10/13/13 29/76/76
f 17/6/6 27/67/67 4/4/4
f 18/21/21 93/77/77 17/6/6
f 17/6/6 93/77/77 27/67/67
f 93/77/77 28/65/65 27/67/67
f 18/21/21 57/20/20 93/77/77
f 57/20/20 58/78/78 93/77/77
f 93/77/77 58/78/78 28/65/65
f 58/78/78 8/22/22 28/65/65
f 15/9/9 40/70/70 7/7/7
f 16/24/24 94/79/79 15/9/9
f 15/9/9 94/79/79 40/70/70
f 94/79/79 39/68/68 40/70/70
f 16/24/24 86/23/23 94/79/79
f 86/23/23 85/80/80 94/79/79
f 94/79/79 85/80/80 39/68/68
f 85/80/80 2/25/25 39/68/68
f 26/12/12 64/73/73 9/10/10
f 25/27/27 95/81/81 26/12/12
f 26/12/12 95/81/81 64/73/73
f 95/81/81 63/71/71 64/73/73
f 25/27/27 78/26/26 95/81/81
f 78/26/26 77/2/2 95/81/81
f 95/81/81 77/2/2 63/71/71
f 77/2/2 1/1/1 63/71/71
f 46/15/15 29/76/76 10/13/13
f 45/29/29 96/82/82 46/15/15
f 46/15/15 96/82/82 29/76/76
f 96/82/82 30/74/74 29/76/76
f 45/29/29 35/28/28 96/82/82
f 35/28/28 36/83/83 96/82/82
f 96/82/82 36/83/83 30/74/74
f 36/83/83 11/30/30 30/74/74
f 21/18/18 47/64/64 5/16/16
f 22/32/32 97/84/84 21/18/18
f 21/18/18 97/84/84 47/64/64
f 97/84/84 48/62/62 47/64/64
f 22/32/32 52/31/31 97/84/84
f 52/31/31 51/85/85 97/84/84
f 97/84/84 51/85/85 48/62/62
f 51/85/85 6/19/19 48/62/62
f 84/86/86 42/87/87 12/88/88
f 83/34/34 98/89/89 84/86/86
f 84/86/86 98/89/89 42/87/87
f 98/89/89 41/36/36 42/87/87
f 83/34/34 31/33/33 98/89/89
f 31/33/33 32/8/8 98/89/89
f 98/89/89 32/8/8 41/36/36
f 32/8/8 7/7/7 41/36/36
f 42/87/87 44/90/90 12/88/88
f 41/36/36 99/91/91 42/87/87
f 42/87/87 99/91/91 44/90/90
f 99/91/91 43/38/38 44/90/90
f 41/36/36 23/35/35 99/91/91
f 23/35/35 24/11/11 99/91/91
f 99/91/91 24/11/11 43/38/38
f 24/11/11 9/10/10 43/38/38
f 44/90/90 62/92/92 12/88/88
f 43/38/38 100/93/93 44/90/90
f 44/90/90 100/93/93 62/92/92
f 100/93/93 61/40/40 62/92/92
f 43/38/38 73/37/37 100/93/93
f 73/37/37 74/14/14 100/93/93
f 100/93/93 74/14/14 61/40/40
f 74/14/14 10/13/13 61/40/40
f 62/92/92 82/94/94 12/88/88
f 61/40/40 101/95/95 62/92/92
f 62/92/92 101/95/95 82/94/94
f 101/95/95 81/42/42 82/94/94
f 61/40/40 38/39/39 101/95/95
f 38/39/39 37/17/17 101/95/95
f 101/95/95 37/17/17 81/42/42
f 37/17/17 5/16/16 81/42/42
f 82/94/94 84/86/86 12/88/88
f 81/42/42 102/96/96 82/94/94
f 82/94/94 102/96/96 84/86/86
f 102/96/96 83/34/34 84/86/86
f 81/42/42 60/41/41 102/96/96
f 60/41/41 59/5/5 102/96/96
f 102/96/96 59/5/5 83/34/34
f 59/5/5 4/4/4 83/34/34
f 51/85/85 75/97/97 6/19/19
f 52/31/31 103/98/98 51/85/85
f 51/85/85 103/98/98 75/97/97
f 103/98/98 76/99/99 75/97/97
f 52/31/31 33/43/43 103/98/98
f 33/43/43 34/100/100 103/98/98
f 103/98/98 34/100/100 76/99/99
f 34/100/100 13/56/56 76/99/99
f 50/58/58 76/99/99 13/56/56
f 49/46/46 104/101/101 50/58/58
f 50/58/58 104/101/101 76/99/99
f 104/101/101 75/97/97 76/99/99
f 49/46/46 55/45/45 104/101/101
f 55/45/45 56/50/50 104/101/101
f 104/101/101 56/50/50 75/97/97
f 56/50/50 6/19/19 75/97/97
f 71/51/51 57/20/20 6/19/19
f 72/49/49 105/102/102 71/51/51
f 71/51/51 105/102/102 57/20/20
f 105/102/102 58/78/78 57/20/20
f 72/49/49 68/48/48 105/102/102
f 68/48/48 67/103/103 105/102/102
f 105/102/102 67/103/103 58/78/78
f 67/103/103 8/22/22 58/78/78
f 72/49/49 20/104/104 14/47/47
f 71/51/51 106/105/105 72/49/49
f 72/49/49 106/105/105 20/104/104
f 106/105/105 19/55/55 20/104/104
f 71/51/51 56/50/50 106/105/105
f 56/50/50 55/45/45 106/105/105
f 106/105/105 55/45/45 19/55/55
f 55/45/45 3/44/44 19/55/55
f 36/83/83 33/43/43 11/30/30
f 35/28/28 107/106/106 36/83/83
f 36/83/83 107/106/106 33/43/43
f 107/106/106 34/100/100 33/43/43
f 35/28/28 79/52/52 107/106/106
f 79/52/52 80/57/57 107/106/106
f 107/106/106 80/57/57 34/100/100
f 80/57/57 13/56/56 34/100/100
f 67/103/103 86/23/23 8/22/22
f 68/48/48 108/107/107 67/103/103
f 67/103/103 108/107/107 86/23/23
f 108/107/107 85/80/80 86/23/23
f 68/48/48 66/53/53 108/107/107
f 66/53/53 65/108/108 108/107/107
f 108/107/107 65/108/108 85/80/80
f 65/108/108 2/25/25 85/80/80
f 20/104/104 66/53/53 14/47/47
f 19/55/55 109/109/109 20/104/104
f 20/104/104 109/109/109 66/53/53
f 109/109/109 65/108/108 66/53/53
f 19/55/55 54/54/54 109/109/109
f 54/54/54 53/61/61 109/109/109
f 109/109/109 53/61/61 65/108/108
f 53/61/61 2/25/25 65/108/108
f 49/46/46 70/59/59 3/44/44
f 50/58/58 110/110/110 49/46/46
f 49/46/46 110/110/110 70/59/59
f 110/110/110 69/3/3 70/59/59
f 50/58/58 80/57/57 110/110/110
f 80/57/57 79/52/52 110/110/110
f 110/110/110 79/52/52 69/3/3
f 79/52/52 1/1/1 69/3/3
