# Blender v2.77 (sub 0) OBJ File: 'portico7.blend'
# www.blender.org
mtllib portico7.mtl
o ColobotMesh_1.001_ColobotMesh_.001
v -1.108970 1.239071 -0.044496
v 3.242450 0.027988 -0.694195
v -3.000000 0.027988 -1.134815
v -1.000000 -1.196956 -0.544497
v 4.000097 1.027989 -1.550845
v 1.000000 -1.196956 -0.544497
v 4.141765 0.027988 -1.423050
v 1.100685 0.027987 0.083294
v -1.000000 1.239071 -0.544496
v 2.929168 -1.069293 -1.262608
v 1.100685 -1.196956 -0.044497
v 2.929168 1.118341 -1.262608
v 3.000000 0.027988 -1.134815
v -3.250520 0.027988 -0.694195
v 3.171615 -1.069293 -0.821988
v 1.100685 1.239071 -0.044496
v -3.179528 1.118341 -0.821988
v 1.000000 1.239071 -0.544496
v -2.929008 -1.069293 -1.262608
v -4.141550 0.027988 -1.423050
v -1.108970 -1.196956 -0.044497
v -3.179528 -1.069293 -0.821988
v -2.983275 1.708695 -1.170091
v -2.929008 1.118341 -1.262608
v 2.979558 1.708695 -1.170091
v 3.171615 1.118341 -0.821988
v -1.054485 1.950155 -0.422287
v 1.050343 1.950155 -0.422287
v -3.999565 1.027989 -1.550845
v 1.000000 0.027988 -0.416705
v 4.000097 -0.972011 -1.550845
v 2.979558 -1.666575 -1.170091
v 1.050343 -1.921900 -0.422288
v -1.054485 -1.921900 -0.422288
v -2.983275 -1.666575 -1.170091
v -3.999565 -0.972011 -1.550845
v -1.108970 0.027987 0.083294
v -1.000000 0.027988 -0.416706
v 1.100685 0.580758 0.051347
v 1.000000 0.580758 -0.448653
v 3.096976 -1.621486 -0.956765
v 4.106348 0.527988 -1.454999
v -0.002071 -1.212146 0.075131
v 1.000000 -0.528248 -0.448653
v 2.982292 -0.496332 -1.166763
v 2.168760 1.193700 -0.358497
v 2.000000 0.027988 -0.715860
v -2.872830 -1.621486 -1.364123
v -1.108970 0.580758 0.051347
v -1.000000 -0.528248 -0.448653
v -2.198843 0.027988 -0.230705
v 2.186469 0.027988 -0.230705
v 1.100685 -0.528248 0.051347
v 4.057914 1.034809 -1.333983
v -1.000000 0.580758 -0.448653
v 1.982292 1.193700 -0.843652
v -0.002071 0.027987 0.202922
v 0.000000 0.027988 -0.297078
v -2.000000 0.027988 -0.715860
v 1.003800 -1.867174 -0.643768
v -1.108970 -0.528248 0.051347
v -2.872830 1.664129 -1.364123
v -1.982252 -1.149850 -0.843652
v -4.106054 0.527988 -1.454999
v -3.104439 -1.621486 -0.956765
v -4.194465 0.027988 -1.206188
v -3.232772 0.550576 -0.726143
v -3.798570 -0.979355 -1.690926
v -3.674500 1.448166 -1.519554
v 3.674129 -1.395651 -1.519554
v 2.058154 -1.827951 -0.728338
v -2.982252 -0.496332 -1.166763
v 3.096976 1.664129 -0.956765
v 1.096885 -1.867174 -0.181513
v -3.674500 -1.395651 -1.519554
v 3.798894 1.034809 -1.690926
v -1.982252 1.193700 -0.843652
v -1.104857 -1.867174 -0.181513
v -3.935195 0.027988 -1.563131
v 1.982292 -1.149850 -0.843652
v 4.194237 0.027988 -1.206188
v 3.674129 1.448166 -1.519554
v -1.004113 1.896475 -0.643768
v -2.982252 0.550576 -1.166763
v 0.000000 -1.212146 -0.424869
v -4.106054 -0.472012 -1.454999
v -0.002071 1.254260 0.075131
v -3.232772 -0.496332 -0.726143
v 0.000000 1.254260 -0.424869
v -2.181094 -1.149850 -0.358497
v -2.064279 1.859648 -0.728338
v 3.798894 -0.979355 -1.690926
v 3.224741 -0.496332 -0.726143
v -1.004113 -1.867174 -0.643768
v -4.057839 1.034809 -1.333983
v 4.057914 -0.979355 -1.333983
v -3.104439 1.664129 -0.956765
v -2.064279 -1.827951 -0.728338
v 2.982292 0.550576 -1.166763
v -3.798570 1.034809 -1.690926
v -2.181095 1.193700 -0.358497
v -4.057839 -0.979355 -1.333983
v -1.104857 1.896475 -0.181513
v 2.872833 1.664129 -1.364123
v -0.000983 -1.953829 -0.296562
v 3.935212 0.027988 -1.563131
v 2.058154 1.859648 -0.728338
v 1.096885 1.896475 -0.181513
v 3.224741 0.550576 -0.726143
v -0.000983 1.982081 -0.296561
v 1.003800 1.896475 -0.643768
v 2.872833 -1.621486 -1.364123
v 4.106348 -0.472012 -1.454999
v 2.168760 -1.149850 -0.358497
v -2.194406 -0.516472 -0.262653
v -0.002071 -0.532046 0.170974
v -0.001283 -1.866095 -0.041090
v 2.182042 -0.516472 -0.262653
v -2.194406 0.569415 -0.262653
v -0.002071 0.584555 0.170974
v 2.182042 0.569415 -0.262653
v 3.901132 -0.473848 -1.595080
v -1.995563 0.569415 -0.747808
v 0.000000 0.584555 -0.329026
v 1.995573 0.569415 -0.747808
v -3.747191 -1.374454 -1.308984
v -2.164448 -1.747634 -0.489357
v -4.160308 0.529693 -1.238137
v -4.160308 -0.473848 -1.238137
v 1.995573 -0.516472 -0.747808
v -1.995563 -0.516472 -0.747808
v -1.995329 -1.747634 -0.893718
v 2.152024 1.779924 -0.489357
v -0.000134 1.896140 -0.455576
v -2.164448 1.779924 -0.489357
v -0.001283 1.896140 -0.041090
v -3.511049 -1.374454 -1.655399
v 0.000000 -0.532046 -0.329026
v 3.511383 1.426387 -1.655399
v 3.745552 1.426387 -1.308984
v 4.160156 0.529693 -1.238137
v 3.901132 0.529693 -1.595080
v 1.994213 1.779924 -0.893718
v 4.160156 -0.473848 -1.238137
v -0.000134 -1.866095 -0.455577
v 1.994213 -1.747634 -0.893718
v 3.745552 -1.374454 -1.308984
v 2.152024 -1.747634 -0.489357
v 3.511383 -1.374454 -1.655399
v -1.995329 1.779924 -0.893718
v -3.511049 1.426387 -1.655399
v -3.901039 0.529693 -1.595080
v -3.747191 1.426387 -1.308984
v -3.901039 -0.473848 -1.595080
vt 0.5931 0.2322
vt 0.5620 0.2184
vt 0.5931 0.2187
vt 0.6249 0.2325
vt 0.6249 0.2474
vt 0.5931 0.2468
vt 0.5628 0.2449
vt 0.5623 0.2313
vt 0.6878 0.2073
vt 0.7176 0.1965
vt 0.7181 0.2073
vt 0.7470 0.1970
vt 0.7480 0.2073
vt 0.7470 0.2176
vt 0.7176 0.2181
vt 0.6566 0.2073
vt 0.6249 0.1958
vt 0.6566 0.1959
vt 0.6566 0.2187
vt 0.6249 0.2187
vt 0.6249 0.2073
vt 0.6566 0.1822
vt 0.6249 0.1666
vt 0.6566 0.1673
vt 0.6868 0.1692
vt 0.6873 0.1831
vt 0.6877 0.1961
vt 0.6249 0.1818
vt 0.5316 0.2073
vt 0.5030 0.1970
vt 0.5321 0.1965
vt 0.5618 0.2073
vt 0.5321 0.2181
vt 0.5030 0.2176
vt 0.5020 0.2073
vt 0.7141 0.1725
vt 0.7161 0.1848
vt 0.7399 0.1765
vt 0.7440 0.1868
vt 0.6566 0.2322
vt 0.6868 0.2449
vt 0.6566 0.2468
vt 0.6877 0.2184
vt 0.6873 0.2313
vt 0.5060 0.2279
vt 0.5337 0.2297
vt 0.5357 0.2418
vt 0.5101 0.2381
vt 0.5931 0.1822
vt 0.5628 0.1692
vt 0.5931 0.1673
vt 0.5931 0.1959
vt 0.5620 0.1961
vt 0.5623 0.1831
vt 0.5337 0.1848
vt 0.5101 0.1765
vt 0.5357 0.1725
vt 0.5060 0.1868
vt 0.7161 0.2297
vt 0.7440 0.2279
vt 0.7399 0.2381
vt 0.7141 0.2418
vt 0.5931 0.2073
vt 0.8296 0.7093
vt 0.8075 0.6995
vt 0.8066 0.7093
vt 0.8075 0.7190
vt 0.8300 0.7195
vt 0.8525 0.7093
vt 0.8300 0.6990
vt 0.8755 0.6984
vt 0.8984 0.6850
vt 0.8755 0.6853
vt 0.8984 0.6705
vt 0.8755 0.6711
vt 0.8534 0.6730
vt 0.8529 0.6862
vt 0.8526 0.6986
vt 0.9214 0.6853
vt 0.9214 0.6984
vt 0.9442 0.6986
vt 0.9439 0.6862
vt 0.9435 0.6730
vt 0.9214 0.6711
vt 0.8755 0.7329
vt 0.8526 0.7198
vt 0.8529 0.7321
vt 0.8534 0.7451
vt 0.8755 0.7469
vt 0.8984 0.7475
vt 0.8984 0.7332
vt 0.8755 0.7201
vt 0.9640 0.6761
vt 0.9657 0.6878
vt 0.9669 0.6990
vt 0.9870 0.6897
vt 0.9837 0.6799
vt 0.9657 0.7306
vt 0.9442 0.7198
vt 0.9439 0.7321
vt 0.9640 0.7421
vt 0.9837 0.7386
vt 0.9870 0.7288
vt 0.9669 0.7195
vt 0.9443 0.7093
vt 0.9673 0.7093
vt 0.9894 0.7190
vt 0.9902 0.7093
vt 0.9894 0.6995
vt 0.9214 0.7201
vt 0.9214 0.7329
vt 0.9214 0.7469
vt 0.9435 0.7451
vt 0.8312 0.6878
vt 0.8132 0.6799
vt 0.8099 0.6897
vt 0.8328 0.6761
vt 0.8099 0.7288
vt 0.8312 0.7306
vt 0.8132 0.7386
vt 0.8328 0.7421
vt 0.9214 0.7093
vt 0.8984 0.6983
vt 0.8984 0.7093
vt 0.8984 0.7201
vt 0.8755 0.7093
vt 0.0000 1.0000
vt 0.0000 1.0000
vt 0.0000 1.0000
vt 0.0000 1.0000
vt 0.0000 1.0000
vt 0.0000 1.0000
vt 0.0000 1.0000
vt 0.0000 1.0000
vt 0.0000 1.0000
vt 0.0000 1.0000
vt 0.0000 1.0000
vt 0.0000 1.0000
vt 0.0000 1.0000
vt 0.0000 1.0000
vt 0.0000 1.0000
vt 0.0000 1.0000
vt 0.0000 1.0000
vt 0.0000 1.0000
vt 0.0000 1.0000
vt 0.0000 1.0000
vt 0.0000 1.0000
vt 0.0000 1.0000
vt 0.0000 1.0000
vt 0.0000 1.0000
vt 0.0000 1.0000
vt 0.0000 1.0000
vt 0.0000 1.0000
vt 0.0000 1.0000
vt 0.0000 1.0000
vt 0.0000 1.0000
vt 0.0000 1.0000
vt 0.0000 1.0000
vt 0.0000 1.0000
vt 0.0000 1.0000
vt 0.0000 1.0000
vt 0.0000 1.0000
vt 0.0000 1.0000
vt 0.0000 1.0000
vt 0.0000 1.0000
vt 0.0000 1.0000
vt 0.0000 1.0000
vt 0.0000 1.0000
vt 0.0000 1.0000
vt 0.0000 1.0000
vt 0.0000 1.0000
vt 0.0000 1.0000
vt 0.0000 1.0000
vt 0.0000 1.0000
vt 0.0000 1.0000
vt 0.0000 1.0000
vt 0.0000 1.0000
vt 0.0000 1.0000
vt 0.0000 1.0000
vt 0.0000 1.0000
vt 0.0000 1.0000
vt 0.0000 1.0000
vt 0.0000 1.0000
vt 0.0000 1.0000
vt 0.0000 1.0000
vt 0.0000 1.0000
vt 0.0000 1.0000
vt 0.0000 1.0000
vt 0.0000 1.0000
vt 0.0000 1.0000
vt 0.0000 1.0000
vt 0.0000 1.0000
vt 0.0000 1.0000
vt 0.0000 1.0000
vt 0.0000 1.0000
vt 0.0000 1.0000
vt 0.0000 1.0000
vt 0.0000 1.0000
vt 0.0000 1.0000
vt 0.0000 1.0000
vt 0.0000 1.0000
vt 0.0000 1.0000
vt 0.0000 1.0000
vt 0.0000 1.0000
vt 0.0000 1.0000
vt 0.0000 1.0000
vt 0.0000 1.0000
vt 0.0000 1.0000
vt 0.0000 1.0000
vt 0.0000 1.0000
vn -0.1996 0.1715 0.9647
vn -0.3473 0.1058 0.9317
vn -0.1926 0.0990 0.9763
vn 0.0002 0.1603 0.9871
vn 0.0002 0.6377 0.7703
vn -0.1842 0.6929 0.6971
vn -0.3411 0.6630 0.6663
vn -0.3605 0.1860 0.9140
vn 0.3426 0.0002 0.9395
vn 0.4465 -0.1330 0.8848
vn 0.4411 0.0001 0.8975
vn 0.9002 -0.1649 0.4029
vn 0.9085 0.0000 0.4179
vn 0.9002 0.1650 0.4030
vn 0.4462 0.1338 0.8848
vn 0.1930 0.0002 0.9812
vn 0.0002 -0.0982 0.9951
vn 0.1933 -0.0977 0.9762
vn 0.1933 0.0990 0.9761
vn 0.0002 0.0994 0.9950
vn 0.0002 0.0002 1.0000
vn 0.2004 -0.1686 0.9651
vn 0.0002 -0.6341 0.7733
vn 0.1860 -0.6898 0.6997
vn 0.3450 -0.6595 0.6678
vn 0.3609 -0.1831 0.9144
vn 0.3472 -0.1046 0.9319
vn 0.0002 -0.1576 0.9875
vn -0.4433 0.0001 0.8964
vn -0.9013 -0.1650 0.4005
vn -0.4489 -0.1331 0.8836
vn -0.3428 0.0002 0.9394
vn -0.4486 0.1339 0.8836
vn -0.9012 0.1651 0.4006
vn -0.9096 0.0000 0.4155
vn 0.4428 -0.7335 0.5155
vn 0.4669 -0.2308 0.8536
vn 0.6468 -0.6945 0.3150
vn 0.8670 -0.4008 0.2961
vn 0.2003 0.1715 0.9646
vn 0.3409 0.6615 0.6680
vn 0.1847 0.6923 0.6976
vn 0.3470 0.1058 0.9319
vn 0.3601 0.1860 0.9141
vn -0.8672 0.4016 0.2943
vn -0.4681 0.2333 0.8523
vn -0.4379 0.7374 0.5143
vn -0.6440 0.6980 0.3132
vn -0.1997 -0.1686 0.9652
vn -0.3451 -0.6611 0.6662
vn -0.1855 -0.6904 0.6992
vn -0.1926 -0.0977 0.9764
vn -0.3475 -0.1046 0.9318
vn -0.3612 -0.1832 0.9143
vn -0.4694 -0.2310 0.8522
vn -0.6490 -0.6942 0.3112
vn -0.4450 -0.7345 0.5123
vn -0.8682 -0.3999 0.2938
vn 0.4656 0.2330 0.8538
vn 0.8661 0.4024 0.2965
vn 0.6417 0.6983 0.3171
vn 0.4358 0.7364 0.5175
vn -0.1923 0.0002 0.9813
vn 0.4042 -0.0001 -0.9147
vn -0.1072 0.1058 -0.9886
vn -0.1071 0.0000 -0.9942
vn -0.1073 -0.1059 -0.9886
vn 0.4098 -0.1335 -0.9023
vn 0.3391 -0.0002 -0.9407
vn 0.4102 0.1327 -0.9023
vn 0.2033 0.0975 -0.9742
vn 0.0000 0.0936 -0.9956
vn 0.2102 0.1271 -0.9693
vn -0.0001 -0.5165 -0.8563
vn 0.1406 -0.5833 -0.7999
vn 0.2464 -0.5388 -0.8056
vn 0.3654 0.1194 -0.9232
vn 0.3441 0.1048 -0.9330
vn -0.2102 0.1272 -0.9693
vn -0.2033 0.0975 -0.9742
vn -0.3441 0.1048 -0.9331
vn -0.3653 0.1198 -0.9231
vn -0.2364 -0.5307 -0.8139
vn -0.1531 -0.5791 -0.8007
vn 0.2102 -0.1295 -0.9690
vn 0.3439 -0.1059 -0.9330
vn 0.3649 -0.1212 -0.9231
vn 0.2503 0.5390 -0.8043
vn 0.1412 0.5836 -0.7996
vn -0.0001 0.5201 -0.8541
vn 0.0000 -0.0952 -0.9955
vn 0.2032 -0.0988 -0.9741
vn -0.2236 -0.5639 -0.7950
vn -0.4301 0.1964 -0.8811
vn -0.4101 0.1327 -0.9023
vn 0.1344 -0.0524 -0.9895
vn -0.0280 -0.4291 -0.9028
vn -0.4290 -0.1983 -0.8812
vn -0.3439 -0.1059 -0.9330
vn -0.3649 -0.1215 -0.9231
vn -0.2296 0.5652 -0.7923
vn -0.0311 0.4328 -0.9009
vn 0.1350 0.0533 -0.9894
vn -0.4098 -0.1335 -0.9023
vn -0.3391 -0.0002 -0.9407
vn -0.4042 -0.0001 -0.9147
vn 0.1070 -0.1060 -0.9886
vn 0.1068 0.0000 -0.9943
vn 0.1069 0.1059 -0.9886
vn -0.2032 -0.0988 -0.9741
vn -0.2102 -0.1296 -0.9690
vn -0.1538 0.5793 -0.8004
vn -0.2402 0.5308 -0.8127
vn 0.4302 0.1964 -0.8811
vn 0.0285 -0.4285 -0.9030
vn -0.1345 -0.0521 -0.9895
vn 0.2247 -0.5634 -0.7950
vn -0.1350 0.0530 -0.9894
vn 0.4291 -0.1983 -0.8812
vn 0.0316 0.4323 -0.9012
vn 0.2306 0.5648 -0.7923
vn -0.2029 -0.0002 -0.9792
vn 0.0000 0.0982 -0.9951
vn 0.0000 -0.0002 -1.0000
vn 0.0000 -0.0994 -0.9950
vn 0.2029 -0.0002 -0.9792
vn 0.8296 0.0472 -0.5562
vn 0.7725 0.3022 -0.5585
vn 0.5072 0.7711 -0.3847
vn 0.8332 0.0000 -0.5529
vn 0.8296 -0.0472 -0.5563
vn -0.8328 0.0000 -0.5536
vn -0.8292 0.0473 -0.5569
vn -0.8292 -0.0473 -0.5569
vn -0.1839 0.9761 -0.1155
vn -0.0937 0.9917 -0.0877
vn -0.5067 0.7704 -0.3869
vn 0.1842 0.9764 -0.1128
vn 0.1064 0.9909 -0.0826
vn 0.0001 0.9980 -0.0632
vn -0.0532 0.9984 -0.0208
vn 0.0473 0.9988 -0.0129
vn -0.7722 0.3014 -0.5593
vn 0.7728 -0.3001 -0.5592
vn 0.5122 -0.7664 -0.3878
vn 0.1933 -0.9740 -0.1178
vn 0.1121 -0.9901 -0.0850
vn 0.0001 -0.9979 -0.0640
vn 0.0487 -0.9987 -0.0132
vn -0.0995 -0.9909 -0.0902
vn -0.0545 -0.9983 -0.0211
vn -0.1929 -0.9738 -0.1206
vn -0.5117 -0.7656 -0.3899
vn -0.7725 -0.2993 -0.5600
usemtl ColobotMesh_mat_1
s 1
f 1/1/1 119/2/2 49/3/3
f 49/3/3 87/4/4 1/1/1
f 1/1/1 136/5/5 103/6/6
f 1/1/1 135/7/7 101/8/8
f 52/9/9 93/10/10 2/11/11
f 2/11/11 144/12/12 81/13/13
f 2/11/11 141/14/14 109/15/15
f 109/15/15 52/9/9 2/11/11
f 8/16/16 116/17/17 53/18/18
f 53/18/18 52/9/9 8/16/16
f 52/9/9 39/19/19 8/16/16
f 8/16/16 120/20/20 57/21/21
f 11/22/22 117/23/23 74/24/24
f 11/22/22 148/25/25 114/26/26
f 11/22/22 118/27/27 53/18/18
f 53/18/18 43/28/28 11/22/22
f 14/29/29 129/30/30 88/31/31
f 88/31/31 51/32/32 14/29/29
f 51/32/32 67/33/33 14/29/29
f 14/29/29 128/34/34 66/35/35
f 114/26/26 41/36/36 15/37/37
f 15/37/37 147/38/38 96/39/39
f 96/39/39 93/10/10 15/37/37
f 15/37/37 118/27/27 114/26/26
f 16/40/40 133/41/41 108/42/42
f 16/40/40 136/5/5 87/4/4
f 87/4/4 39/19/19 16/40/40
f 16/40/40 121/43/43 46/44/44
f 95/45/45 67/33/33 17/46/46
f 17/46/46 119/2/2 101/8/8
f 101/8/8 97/47/47 17/46/46
f 17/46/46 153/48/48 95/45/45
f 21/49/49 127/50/50 78/51/51
f 21/49/49 117/23/23 43/28/28
f 43/28/28 61/52/52 21/49/49
f 21/49/49 115/53/53 90/54/54
f 22/55/55 126/56/56 65/57/57
f 65/57/57 90/54/54 22/55/55
f 22/55/55 115/53/53 88/31/31
f 88/31/31 102/58/58 22/55/55
f 26/59/59 121/43/43 109/15/15
f 109/15/15 54/60/60 26/59/59
f 26/59/59 140/61/61 73/62/62
f 73/62/62 46/44/44 26/59/59
f 51/32/32 61/52/52 37/63/63
f 37/63/63 116/17/17 57/21/21
f 37/63/63 120/20/20 49/3/3
f 49/3/3 51/32/32 37/63/63
f 1/1/1 101/8/8 119/2/2
f 49/3/3 120/20/20 87/4/4
f 1/1/1 87/4/4 136/5/5
f 1/1/1 103/6/6 135/7/7
f 52/9/9 118/27/27 93/10/10
f 2/11/11 93/10/10 144/12/12
f 2/11/11 81/13/13 141/14/14
f 109/15/15 121/43/43 52/9/9
f 8/16/16 57/21/21 116/17/17
f 53/18/18 118/27/27 52/9/9
f 52/9/9 121/43/43 39/19/19
f 8/16/16 39/19/19 120/20/20
f 11/22/22 43/28/28 117/23/23
f 11/22/22 74/24/24 148/25/25
f 11/22/22 114/26/26 118/27/27
f 53/18/18 116/17/17 43/28/28
f 14/29/29 66/35/35 129/30/30
f 88/31/31 115/53/53 51/32/32
f 51/32/32 119/2/2 67/33/33
f 14/29/29 67/33/33 128/34/34
f 114/26/26 148/25/25 41/36/36
f 15/37/37 41/36/36 147/38/38
f 96/39/39 144/12/12 93/10/10
f 15/37/37 93/10/10 118/27/27
f 16/40/40 46/44/44 133/41/41
f 16/40/40 108/42/42 136/5/5
f 87/4/4 120/20/20 39/19/19
f 16/40/40 39/19/19 121/43/43
f 95/45/45 128/34/34 67/33/33
f 17/46/46 67/33/33 119/2/2
f 101/8/8 135/7/7 97/47/47
f 17/46/46 97/47/47 153/48/48
f 21/49/49 90/54/54 127/50/50
f 21/49/49 78/51/51 117/23/23
f 43/28/28 116/17/17 61/52/52
f 21/49/49 61/52/52 115/53/53
f 22/55/55 102/58/58 126/56/56
f 65/57/57 127/50/50 90/54/54
f 22/55/55 90/54/54 115/53/53
f 88/31/31 129/30/30 102/58/58
f 26/59/59 46/44/44 121/43/43
f 109/15/15 141/14/14 54/60/60
f 26/59/59 54/60/60 140/61/61
f 73/62/62 133/41/41 46/44/44
f 51/32/32 115/53/53 61/52/52
f 37/63/63 61/52/52 116/17/17
f 37/63/63 57/21/21 120/20/20
f 49/3/3 119/2/2 51/32/32
usemtl ColobotMesh_mat_2
f 3/64/64 154/65/65 79/66/66
f 3/64/64 152/67/67 84/68/68
f 84/68/68 59/69/69 3/64/64
f 59/69/69 72/70/70 3/64/64
f 50/71/71 85/72/72 4/73/73
f 4/73/73 145/74/74 94/75/75
f 4/73/73 132/76/76 63/77/77
f 4/73/73 131/78/78 50/71/71
f 6/79/79 145/74/74 85/72/72
f 85/72/72 44/80/80 6/79/79
f 6/79/79 130/81/81 80/82/82
f 6/79/79 146/83/83 60/84/84
f 9/85/85 123/86/86 77/87/87
f 9/85/85 150/88/88 83/89/89
f 9/85/85 134/90/90 89/91/91
f 89/91/91 55/92/92 9/85/85
f 112/93/93 80/82/82 10/94/94
f 10/94/94 130/81/81 45/95/95
f 45/95/95 92/96/96 10/94/94
f 10/94/94 149/97/97 112/93/93
f 12/98/98 125/99/99 56/100/100
f 56/100/100 104/101/101 12/98/98
f 12/98/98 139/102/102 76/103/103
f 76/103/103 99/104/104 12/98/98
f 45/95/95 47/105/105 13/106/106
f 47/105/105 99/104/104 13/106/106
f 13/106/106 142/107/107 106/108/108
f 13/106/106 122/109/109 45/95/95
f 40/110/110 89/91/91 18/111/111
f 18/111/111 134/90/90 111/112/112
f 18/111/111 143/113/113 56/100/100
f 18/111/111 125/99/99 40/110/110
f 19/114/114 137/115/115 68/116/116
f 68/116/116 72/70/70 19/114/114
f 19/114/114 131/78/78 63/77/77
f 63/77/77 48/117/117 19/114/114
f 84/68/68 100/118/118 24/119/119
f 24/119/119 151/120/120 62/121/121
f 62/121/121 77/87/87 24/119/119
f 24/119/119 123/86/86 84/68/68
f 30/122/122 138/123/123 58/124/124
f 30/122/122 124/125/125 40/110/110
f 40/110/110 47/105/105 30/122/122
f 47/105/105 44/80/80 30/122/122
f 50/71/71 59/69/69 38/126/126
f 59/69/69 55/92/92 38/126/126
f 38/126/126 124/125/125 58/124/124
f 38/126/126 138/123/123 50/71/71
f 3/64/64 72/70/70 154/65/65
f 3/64/64 79/66/66 152/67/67
f 84/68/68 123/86/86 59/69/69
f 59/69/69 131/78/78 72/70/70
f 50/71/71 138/123/123 85/72/72
f 4/73/73 85/72/72 145/74/74
f 4/73/73 94/75/75 132/76/76
f 4/73/73 63/77/77 131/78/78
f 6/79/79 60/84/84 145/74/74
f 85/72/72 138/123/123 44/80/80
f 6/79/79 44/80/80 130/81/81
f 6/79/79 80/82/82 146/83/83
f 9/85/85 55/92/92 123/86/86
f 9/85/85 77/87/87 150/88/88
f 9/85/85 83/89/89 134/90/90
f 89/91/91 124/125/125 55/92/92
f 112/93/93 146/83/83 80/82/82
f 10/94/94 80/82/82 130/81/81
f 45/95/95 122/109/109 92/96/96
f 10/94/94 92/96/96 149/97/97
f 12/98/98 99/104/104 125/99/99
f 56/100/100 143/113/113 104/101/101
f 12/98/98 104/101/101 139/102/102
f 76/103/103 142/107/107 99/104/104
f 45/95/95 130/81/81 47/105/105
f 47/105/105 125/99/99 99/104/104
f 13/106/106 99/104/104 142/107/107
f 13/106/106 106/108/108 122/109/109
f 40/110/110 124/125/125 89/91/91
f 18/111/111 89/91/91 134/90/90
f 18/111/111 111/112/112 143/113/113
f 18/111/111 56/100/100 125/99/99
f 19/114/114 48/117/117 137/115/115
f 68/116/116 154/65/65 72/70/70
f 19/114/114 72/70/70 131/78/78
f 63/77/77 132/76/76 48/117/117
f 84/68/68 152/67/67 100/118/118
f 24/119/119 100/118/118 151/120/120
f 62/121/121 150/88/88 77/87/87
f 24/119/119 77/87/87 123/86/86
f 30/122/122 44/80/80 138/123/123
f 30/122/122 58/124/124 124/125/125
f 40/110/110 125/99/99 47/105/105
f 47/105/105 130/81/81 44/80/80
f 50/71/71 131/78/78 59/69/69
f 59/69/69 123/86/86 55/92/92
f 38/126/126 55/92/92 124/125/125
f 38/126/126 58/124/124 138/123/123
usemtl ColobotMesh_mat_3
f 54/127/60 42/128/127 5/129/128
f 5/129/128 142/130/107 76/131/103
f 76/131/103 82/132/129 5/129/128
f 5/129/128 140/133/61 54/127/60
f 7/134/130 144/135/12 113/136/131
f 113/136/131 106/137/108 7/134/130
f 106/137/108 42/128/127 7/134/130
f 7/134/130 141/138/14 81/139/13
f 20/140/132 128/141/34 64/142/133
f 64/142/133 79/143/66 20/140/132
f 79/143/66 86/144/134 20/140/132
f 20/140/132 129/145/30 66/146/35
f 23/147/135 135/148/7 91/149/136
f 23/147/135 150/150/88 62/151/121
f 23/147/135 151/152/120 69/153/137
f 23/147/135 153/154/48 97/155/47
f 25/156/138 140/133/61 82/132/129
f 25/156/138 139/157/102 104/158/101
f 25/156/138 143/159/113 107/160/139
f 25/156/138 133/161/41 73/162/62
f 103/163/6 110/164/140 27/165/141
f 27/165/141 134/166/90 83/167/89
f 27/165/141 150/150/88 91/149/136
f 91/149/136 103/163/6 27/165/141
f 108/168/42 107/160/139 28/169/142
f 107/160/139 111/170/112 28/169/142
f 28/169/142 134/166/90 110/164/140
f 110/164/140 108/168/42 28/169/142
f 29/171/143 153/154/48 69/153/137
f 69/153/137 100/172/118 29/171/143
f 29/171/143 152/173/67 64/142/133
f 64/142/133 95/174/45 29/171/143
f 31/175/144 147/176/38 70/177/145
f 70/177/145 92/178/96 31/175/144
f 31/175/144 122/179/109 113/136/131
f 113/136/131 96/180/39 31/175/144
f 32/181/146 148/182/25 71/183/147
f 32/181/146 146/184/83 112/185/93
f 32/181/146 149/186/97 70/177/145
f 32/181/146 147/176/38 41/187/36
f 74/188/24 105/189/148 33/190/149
f 33/190/149 145/191/74 60/192/84
f 60/192/84 71/183/147 33/190/149
f 71/183/147 74/188/24 33/190/149
f 78/193/51 98/194/150 34/195/151
f 34/195/151 132/196/76 94/197/75
f 34/195/151 145/191/74 105/189/148
f 105/189/148 78/193/51 34/195/151
f 35/198/152 126/199/56 75/200/153
f 35/198/152 137/201/115 48/202/117
f 35/198/152 132/196/76 98/194/150
f 35/198/152 127/203/50 65/204/57
f 102/205/58 86/144/134 36/206/154
f 36/206/154 154/207/65 68/208/116
f 68/208/116 75/200/153 36/206/154
f 36/206/154 126/199/56 102/205/58
f 54/127/60 141/138/14 42/128/127
f 5/129/128 42/128/127 142/130/107
f 76/131/103 139/157/102 82/132/129
f 5/129/128 82/132/129 140/133/61
f 7/134/130 81/139/13 144/135/12
f 113/136/131 122/179/109 106/137/108
f 106/137/108 142/130/107 42/128/127
f 7/134/130 42/128/127 141/138/14
f 20/140/132 66/146/35 128/141/34
f 64/142/133 152/173/67 79/143/66
f 79/143/66 154/207/65 86/144/134
f 20/140/132 86/144/134 129/145/30
f 23/147/135 97/155/47 135/148/7
f 23/147/135 91/149/136 150/150/88
f 23/147/135 62/151/121 151/152/120
f 23/147/135 69/153/137 153/154/48
f 25/156/138 73/162/62 140/133/61
f 25/156/138 82/132/129 139/157/102
f 25/156/138 104/158/101 143/159/113
f 25/156/138 107/160/139 133/161/41
f 103/163/6 136/209/5 110/164/140
f 27/165/141 110/164/140 134/166/90
f 27/165/141 83/167/89 150/150/88
f 91/149/136 135/148/7 103/163/6
f 108/168/42 133/161/41 107/160/139
f 107/160/139 143/159/113 111/170/112
f 28/169/142 111/170/112 134/166/90
f 110/164/140 136/209/5 108/168/42
f 29/171/143 95/174/45 153/154/48
f 69/153/137 151/152/120 100/172/118
f 29/171/143 100/172/118 152/173/67
f 64/142/133 128/141/34 95/174/45
f 31/175/144 96/180/39 147/176/38
f 70/177/145 149/186/97 92/178/96
f 31/175/144 92/178/96 122/179/109
f 113/136/131 144/135/12 96/180/39
f 32/181/146 41/187/36 148/182/25
f 32/181/146 71/183/147 146/184/83
f 32/181/146 112/185/93 149/186/97
f 32/181/146 70/177/145 147/176/38
f 74/188/24 117/210/23 105/189/148
f 33/190/149 105/189/148 145/191/74
f 60/192/84 146/184/83 71/183/147
f 71/183/147 148/182/25 74/188/24
f 78/193/51 127/203/50 98/194/150
f 34/195/151 98/194/150 132/196/76
f 34/195/151 94/197/75 145/191/74
f 105/189/148 117/210/23 78/193/51
f 35/198/152 65/204/57 126/199/56
f 35/198/152 75/200/153 137/201/115
f 35/198/152 48/202/117 132/196/76
f 35/198/152 98/194/150 127/203/50
f 102/205/58 129/145/30 86/144/134
f 36/206/154 86/144/134 154/207/65
f 68/208/116 137/201/115 75/200/153
f 36/206/154 75/200/153 126/199/56
