# Blender v2.77 (sub 0) OBJ File: 'power.blend'
# www.blender.org
mtllib power.mtl
o ColobotMesh_1_ColobotMesh_
v 0.000001 -0.000000 -0.000002
v 0.000001 2.000000 -0.000002
v 0.000001 -0.000000 -1.000002
v 0.000001 2.000000 -1.000002
v 0.098018 0.000000 -0.995187
v 0.098018 2.000000 -0.995187
v 0.195091 0.000000 -0.980787
v 0.195091 2.000000 -0.980787
v 0.290285 -0.000000 -0.956942
v 0.290285 2.000000 -0.956942
v 0.382684 -0.000000 -0.923882
v 0.382684 2.000000 -0.923881
v 0.471397 -0.000000 -0.881923
v 0.471397 2.000000 -0.881923
v 0.555571 0.000000 -0.831471
v 0.555571 2.000000 -0.831471
v 0.634394 0.000000 -0.773012
v 0.634394 2.000000 -0.773013
v 0.707107 0.000000 -0.707108
v 0.707107 2.000000 -0.707108
v 0.773011 -0.000000 -0.634395
v 0.773011 2.000000 -0.634395
v 0.831470 -0.000000 -0.555572
v 0.831470 2.000000 -0.555572
v 0.881922 0.000000 -0.471399
v 0.881922 2.000000 -0.471399
v 0.923880 -0.000000 -0.382685
v 0.923880 2.000000 -0.382686
v 0.956941 -0.000000 -0.290287
v 0.956941 2.000000 -0.290286
v 0.980786 0.000000 -0.195092
v 0.980786 2.000000 -0.195092
v 0.995185 -0.000000 -0.098019
v 0.995185 2.000000 -0.098019
v 1.000001 0.000000 -0.000002
v 1.000001 2.000000 -0.000002
v 0.995185 0.000000 0.098015
v 0.995185 2.000000 0.098015
v 0.980786 -0.000000 0.195089
v 0.980786 2.000000 0.195088
v 0.956941 -0.000000 0.290283
v 0.956941 2.000000 0.290283
v 0.923880 0.000000 0.382682
v 0.923880 2.000000 0.382682
v 0.881922 0.000000 0.471395
v 0.881922 2.000000 0.471395
v 0.831470 -0.000000 0.555569
v 0.831470 2.000000 0.555569
v 0.773011 -0.000000 0.634392
v 0.773011 2.000000 0.634392
v 0.707107 0.000000 0.707105
v 0.707107 2.000000 0.707105
v 0.634394 0.000000 0.773009
v 0.634394 2.000000 0.773009
v 0.555570 -0.000000 0.831468
v 0.555570 2.000000 0.831468
v 0.471397 -0.000000 0.881920
v 0.471397 2.000000 0.881919
v 0.382683 0.000000 0.923878
v 0.382683 2.000000 0.923878
v 0.290285 -0.000000 0.956939
v 0.290285 2.000000 0.956939
v 0.195090 0.000000 0.980783
v 0.195090 2.000000 0.980784
v 0.098017 -0.000000 0.995183
v 0.098017 2.000000 0.995183
v -0.000000 0.000000 0.999998
v -0.000000 2.000000 0.999998
v -0.098017 -0.000000 0.995183
v -0.098017 2.000000 0.995183
v -0.195091 -0.000000 0.980783
v -0.195091 2.000000 0.980783
v -0.290285 -0.000000 0.956938
v -0.290285 2.000000 0.956938
v -0.382684 -0.000000 0.923877
v -0.382684 2.000000 0.923877
v -0.471397 0.000000 0.881919
v -0.471397 2.000000 0.881919
v -0.555570 -0.000000 0.831467
v -0.555570 2.000000 0.831467
v -0.634393 0.000000 0.773008
v -0.634393 2.000000 0.773008
v -0.707107 -0.000000 0.707104
v -0.707107 2.000000 0.707104
v -0.773010 -0.000000 0.634391
v -0.773010 2.000000 0.634391
v -0.831469 -0.000000 0.555568
v -0.831469 2.000000 0.555568
v -0.881921 -0.000000 0.471395
v -0.881921 2.000000 0.471395
v -0.923879 -0.000000 0.382681
v -0.923879 2.000000 0.382681
v -0.956940 -0.000000 0.290283
v -0.956940 2.000000 0.290283
v -0.980785 0.000000 0.195088
v -0.980785 2.000000 0.195088
v -0.995184 0.000000 0.098015
v -0.995184 2.000000 0.098015
v -0.999999 -0.000000 -0.000001
v -0.999999 2.000000 -0.000001
v -0.995184 -0.000000 -0.098018
v -0.995184 2.000000 -0.098019
v -0.980785 -0.000000 -0.195091
v -0.980785 2.000000 -0.195091
v -0.956940 -0.000000 -0.290286
v -0.956940 2.000000 -0.290285
v -0.923879 0.000000 -0.382684
v -0.923879 2.000000 -0.382684
v -0.881921 0.000000 -0.471397
v -0.881921 2.000000 -0.471397
v -0.831470 0.000000 -0.555571
v -0.831470 2.000000 -0.555571
v -0.773011 -0.000000 -0.634394
v -0.773011 2.000000 -0.634394
v -0.707108 -0.000000 -0.707107
v -0.707108 2.000000 -0.707107
v -0.634394 -0.000000 -0.773011
v -0.634394 2.000000 -0.773011
v -0.555572 -0.000000 -0.831470
v -0.555572 2.000000 -0.831470
v -0.471398 -0.000000 -0.881922
v -0.471398 2.000000 -0.881922
v -0.382685 -0.000000 -0.923880
v -0.382685 2.000000 -0.923881
v -0.290287 -0.000000 -0.956941
v -0.290287 2.000000 -0.956942
v -0.195093 -0.000000 -0.980786
v -0.195093 2.000000 -0.980787
v -0.098020 0.000000 -0.995186
v -0.098020 2.000000 -0.995186
vt 0.2969 0.7031
vt 0.2969 0.6035
vt 0.3066 0.6040
vt 0.2969 0.7031
vt 0.3066 0.6040
vt 0.2969 0.6035
vt 0.3163 0.6054
vt 0.3163 0.6054
vt 0.3258 0.6078
vt 0.3258 0.6078
vt 0.3350 0.6111
vt 0.3350 0.6111
vt 0.3438 0.6153
vt 0.3438 0.6153
vt 0.3522 0.6203
vt 0.3522 0.6203
vt 0.3601 0.6261
vt 0.3601 0.6261
vt 0.3673 0.6327
vt 0.3673 0.6327
vt 0.3739 0.6399
vt 0.3739 0.6399
vt 0.3797 0.6478
vt 0.3797 0.6478
vt 0.3847 0.6562
vt 0.3847 0.6562
vt 0.3889 0.6650
vt 0.3889 0.6650
vt 0.3922 0.6742
vt 0.3922 0.6742
vt 0.3946 0.6837
vt 0.3946 0.6837
vt 0.3960 0.6934
vt 0.3960 0.6934
vt 0.3965 0.7031
vt 0.3965 0.7031
vt 0.3960 0.7129
vt 0.3960 0.7129
vt 0.3946 0.7226
vt 0.3946 0.7226
vt 0.3922 0.7320
vt 0.3922 0.7320
vt 0.3889 0.7412
vt 0.3889 0.7412
vt 0.3847 0.7501
vt 0.3847 0.7501
vt 0.3797 0.7585
vt 0.3797 0.7585
vt 0.3739 0.7663
vt 0.3739 0.7663
vt 0.3673 0.7736
vt 0.3673 0.7736
vt 0.3601 0.7801
vt 0.3601 0.7801
vt 0.3522 0.7859
vt 0.3522 0.7859
vt 0.3438 0.7910
vt 0.3438 0.7910
vt 0.3350 0.7952
vt 0.3350 0.7952
vt 0.3258 0.7984
vt 0.3258 0.7984
vt 0.3163 0.8008
vt 0.3163 0.8008
vt 0.3066 0.8023
vt 0.3066 0.8023
vt 0.2969 0.8027
vt 0.2969 0.8027
vt 0.2871 0.8023
vt 0.2871 0.8023
vt 0.2774 0.8008
vt 0.2774 0.8008
vt 0.2680 0.7984
vt 0.2680 0.7984
vt 0.2588 0.7952
vt 0.2588 0.7952
vt 0.2499 0.7910
vt 0.2499 0.7910
vt 0.2415 0.7859
vt 0.2415 0.7859
vt 0.2337 0.7801
vt 0.2337 0.7801
vt 0.2264 0.7736
vt 0.2264 0.7736
vt 0.2199 0.7663
vt 0.2199 0.7663
vt 0.2141 0.7585
vt 0.2141 0.7585
vt 0.2090 0.7501
vt 0.2090 0.7501
vt 0.2048 0.7412
vt 0.2048 0.7412
vt 0.2016 0.7320
vt 0.2016 0.7320
vt 0.1992 0.7226
vt 0.1992 0.7226
vt 0.1977 0.7129
vt 0.1977 0.7129
vt 0.1973 0.7031
vt 0.1973 0.7031
vt 0.1977 0.6934
vt 0.1977 0.6934
vt 0.1992 0.6837
vt 0.1992 0.6837
vt 0.2016 0.6742
vt 0.2016 0.6742
vt 0.2048 0.6650
vt 0.2048 0.6650
vt 0.2090 0.6562
vt 0.2090 0.6562
vt 0.2141 0.6478
vt 0.2141 0.6478
vt 0.2199 0.6399
vt 0.2199 0.6399
vt 0.2264 0.6327
vt 0.2264 0.6327
vt 0.2337 0.6261
vt 0.2337 0.6261
vt 0.2415 0.6203
vt 0.2415 0.6203
vt 0.2499 0.6153
vt 0.2499 0.6153
vt 0.2588 0.6111
vt 0.2588 0.6111
vt 0.2680 0.6078
vt 0.2680 0.6078
vt 0.2774 0.6054
vt 0.2774 0.6054
vt 0.2871 0.6040
vt 0.2871 0.6040
vt 0.9707 0.2480
vt 0.9741 0.0020
vt 0.9707 0.0020
vt 0.9741 0.2480
vt 0.9775 0.0020
vt 0.9775 0.2480
vt 0.9810 0.0020
vt 0.9810 0.2480
vt 0.9844 0.0020
vt 0.9844 0.2480
vt 0.9878 0.0020
vt 0.9878 0.2480
vt 0.9912 0.0020
vt 0.9912 0.2480
vt 0.9946 0.0020
vt 0.9946 0.2480
vt 0.9980 0.0020
vt 0.9980 0.2480
vt 0.9946 0.0020
vt 0.9946 0.2480
vt 0.9912 0.0020
vt 0.9912 0.2480
vt 0.9878 0.0020
vt 0.9878 0.2480
vt 0.9844 0.0020
vt 0.9844 0.2480
vt 0.9810 0.0020
vt 0.9810 0.2480
vt 0.9775 0.0020
vt 0.9775 0.2480
vt 0.9741 0.0020
vt 0.9741 0.2480
vt 0.9707 0.0020
vt 0.9707 0.2480
vt 0.9741 0.0020
vt 0.9741 0.2480
vt 0.9775 0.0020
vt 0.9775 0.2480
vt 0.9810 0.0020
vt 0.9810 0.2480
vt 0.9844 0.0020
vt 0.9844 0.2480
vt 0.9878 0.0020
vt 0.9878 0.2480
vt 0.9912 0.0020
vt 0.9912 0.2480
vt 0.9946 0.0020
vt 0.9946 0.2480
vt 0.9980 0.0020
vt 0.9980 0.2480
vt 0.9946 0.0020
vt 0.9946 0.2480
vt 0.9912 0.0020
vt 0.9912 0.2480
vt 0.9878 0.0020
vt 0.9878 0.2480
vt 0.9844 0.0020
vt 0.9844 0.2480
vt 0.9810 0.0020
vt 0.9810 0.2480
vt 0.9775 0.0020
vt 0.9775 0.2480
vt 0.9741 0.0020
vt 0.9741 0.2480
vt 0.9707 0.0020
vt 0.9707 0.2480
vt 0.9741 0.0020
vt 0.9741 0.2480
vt 0.9775 0.0020
vt 0.9775 0.2480
vt 0.9810 0.0020
vt 0.9810 0.2480
vt 0.9844 0.0020
vt 0.9844 0.2480
vt 0.9878 0.0020
vt 0.9878 0.2480
vt 0.9912 0.0020
vt 0.9912 0.2480
vt 0.9946 0.0020
vt 0.9946 0.2480
vt 0.9980 0.0020
vt 0.9980 0.2480
vt 0.9946 0.0020
vt 0.9946 0.2480
vt 0.9912 0.0020
vt 0.9912 0.2480
vt 0.9878 0.0020
vt 0.9878 0.2480
vt 0.9844 0.0020
vt 0.9844 0.2480
vt 0.9810 0.0020
vt 0.9810 0.2480
vt 0.9775 0.0020
vt 0.9775 0.2480
vt 0.9741 0.0020
vt 0.9741 0.2480
vt 0.9707 0.0020
vt 0.9707 0.2480
vt 0.9741 0.0020
vt 0.9741 0.2480
vt 0.9775 0.0020
vt 0.9775 0.2480
vt 0.9810 0.0020
vt 0.9810 0.2480
vt 0.9844 0.0020
vt 0.9844 0.2480
vt 0.9878 0.0020
vt 0.9878 0.2480
vt 0.9912 0.0020
vt 0.9912 0.2480
vt 0.9946 0.0020
vt 0.9946 0.2480
vt 0.9980 0.0020
vt 0.9980 0.2480
vt 0.9946 0.0020
vt 0.9946 0.2480
vt 0.9912 0.0020
vt 0.9912 0.2480
vt 0.9878 0.0020
vt 0.9878 0.2480
vt 0.9844 0.0020
vt 0.9844 0.2480
vt 0.9810 0.0020
vt 0.9775 0.2480
vt 0.9775 0.0020
vt 0.9741 0.0020
vt 0.9741 0.2480
vt 0.9810 0.2480
vn 0.0000 -1.0000 0.0000
vn 0.0000 1.0000 0.0000
vn 0.0000 0.6962 -0.7178
vn 0.0703 -0.6962 -0.7143
vn 0.0000 -0.6962 -0.7178
vn 0.0703 0.6962 -0.7143
vn 0.1400 -0.6962 -0.7040
vn 0.1400 0.6962 -0.7040
vn 0.2083 -0.6962 -0.6869
vn 0.2083 0.6962 -0.6869
vn 0.2747 -0.6962 -0.6632
vn 0.2747 0.6962 -0.6632
vn 0.3384 -0.6962 -0.6330
vn 0.3384 0.6962 -0.6330
vn 0.3988 -0.6962 -0.5968
vn 0.3988 0.6962 -0.5968
vn 0.4554 -0.6962 -0.5549
vn 0.4554 0.6962 -0.5549
vn 0.5076 -0.6962 -0.5076
vn 0.5076 0.6962 -0.5076
vn 0.5549 -0.6962 -0.4554
vn 0.5549 0.6962 -0.4554
vn 0.5968 -0.6962 -0.3988
vn 0.5968 0.6962 -0.3988
vn 0.6330 -0.6962 -0.3384
vn 0.6330 0.6962 -0.3384
vn 0.6632 -0.6962 -0.2747
vn 0.6632 0.6962 -0.2747
vn 0.6869 -0.6962 -0.2083
vn 0.6869 0.6962 -0.2083
vn 0.7040 -0.6962 -0.1400
vn 0.7040 0.6962 -0.1400
vn 0.7143 -0.6962 -0.0703
vn 0.7143 0.6962 -0.0703
vn 0.7178 -0.6962 0.0000
vn 0.7178 0.6962 0.0000
vn 0.7143 -0.6962 0.0703
vn 0.7143 0.6962 0.0703
vn 0.7040 -0.6962 0.1400
vn 0.7040 0.6962 0.1400
vn 0.6869 -0.6962 0.2083
vn 0.6869 0.6962 0.2083
vn 0.6632 -0.6962 0.2747
vn 0.6632 0.6962 0.2747
vn 0.6330 -0.6962 0.3384
vn 0.6330 0.6962 0.3384
vn 0.5968 -0.6962 0.3988
vn 0.5968 0.6962 0.3988
vn 0.5549 -0.6962 0.4554
vn 0.5549 0.6962 0.4554
vn 0.5076 -0.6962 0.5076
vn 0.5076 0.6962 0.5076
vn 0.4554 -0.6962 0.5549
vn 0.4554 0.6962 0.5549
vn 0.3988 -0.6962 0.5968
vn 0.3988 0.6962 0.5968
vn 0.3384 -0.6962 0.6330
vn 0.3384 0.6962 0.6330
vn 0.2747 -0.6962 0.6632
vn 0.2747 0.6962 0.6632
vn 0.2083 -0.6962 0.6869
vn 0.2083 0.6962 0.6869
vn 0.1400 -0.6962 0.7040
vn 0.1400 0.6962 0.7040
vn 0.0703 -0.6962 0.7143
vn 0.0703 0.6962 0.7143
vn 0.0000 -0.6962 0.7178
vn 0.0000 0.6962 0.7178
vn -0.0703 -0.6962 0.7143
vn -0.0703 0.6962 0.7143
vn -0.1400 -0.6962 0.7040
vn -0.1400 0.6962 0.7040
vn -0.2083 -0.6962 0.6869
vn -0.2083 0.6962 0.6869
vn -0.2747 -0.6962 0.6632
vn -0.2747 0.6962 0.6632
vn -0.3384 -0.6962 0.6330
vn -0.3384 0.6962 0.6330
vn -0.3988 -0.6962 0.5968
vn -0.3988 0.6962 0.5968
vn -0.4554 -0.6962 0.5549
vn -0.4554 0.6962 0.5549
vn -0.5076 -0.6962 0.5076
vn -0.5076 0.6962 0.5076
vn -0.5549 -0.6962 0.4554
vn -0.5549 0.6962 0.4554
vn -0.5968 -0.6962 0.3988
vn -0.5968 0.6962 0.3988
vn -0.6330 -0.6962 0.3384
vn -0.6330 0.6962 0.3384
vn -0.6632 -0.6962 0.2747
vn -0.6632 0.6962 0.2747
vn -0.6869 -0.6962 0.2083
vn -0.6869 0.6962 0.2083
vn -0.7040 -0.6962 0.1400
vn -0.7040 0.6962 0.1400
vn -0.7143 -0.6962 0.0703
vn -0.7143 0.6962 0.0703
vn -0.7178 -0.6962 0.0000
vn -0.7178 0.6962 0.0000
vn -0.7143 -0.6962 -0.0703
vn -0.7143 0.6962 -0.0703
vn -0.7040 -0.6962 -0.1400
vn -0.7040 0.6962 -0.1400
vn -0.6869 -0.6962 -0.2083
vn -0.6869 0.6962 -0.2083
vn -0.6632 -0.6962 -0.2747
vn -0.6632 0.6962 -0.2747
vn -0.6330 -0.6962 -0.3384
vn -0.6330 0.6962 -0.3384
vn -0.5968 -0.6962 -0.3988
vn -0.5968 0.6962 -0.3988
vn -0.5549 -0.6962 -0.4554
vn -0.5549 0.6962 -0.4554
vn -0.5076 -0.6962 -0.5076
vn -0.5076 0.6962 -0.5076
vn -0.4554 -0.6962 -0.5549
vn -0.4554 0.6962 -0.5549
vn -0.3988 -0.6962 -0.5968
vn -0.3988 0.6962 -0.5968
vn -0.3384 -0.6962 -0.6330
vn -0.3384 0.6962 -0.6330
vn -0.2747 -0.6962 -0.6632
vn -0.2747 0.6962 -0.6632
vn -0.2083 -0.6962 -0.6869
vn -0.1400 0.6962 -0.7040
vn -0.1400 -0.6962 -0.7040
vn -0.0703 -0.6962 -0.7143
vn -0.0703 0.6962 -0.7143
vn -0.2083 0.6962 -0.6869
usemtl ColobotMesh_mat_1
s off
f 1/1/1 3/2/1 5/3/1
f 2/4/2 6/5/2 4/6/2
f 1/1/1 5/3/1 7/7/1
f 2/4/2 8/8/2 6/5/2
f 1/1/1 7/7/1 9/9/1
f 2/4/2 10/10/2 8/8/2
f 1/1/1 9/9/1 11/11/1
f 2/4/2 12/12/2 10/10/2
f 1/1/1 11/11/1 13/13/1
f 2/4/2 14/14/2 12/12/2
f 1/1/1 13/13/1 15/15/1
f 2/4/2 16/16/2 14/14/2
f 1/1/1 15/15/1 17/17/1
f 2/4/2 18/18/2 16/16/2
f 1/1/1 17/17/1 19/19/1
f 2/4/2 20/20/2 18/18/2
f 1/1/1 19/19/1 21/21/1
f 2/4/2 22/22/2 20/20/2
f 1/1/1 21/21/1 23/23/1
f 2/4/2 24/24/2 22/22/2
f 1/1/1 23/23/1 25/25/1
f 2/4/2 26/26/2 24/24/2
f 1/1/1 25/25/1 27/27/1
f 2/4/2 28/28/2 26/26/2
f 1/1/1 27/27/1 29/29/1
f 2/4/2 30/30/2 28/28/2
f 1/1/1 29/29/1 31/31/1
f 2/4/2 32/32/2 30/30/2
f 1/1/1 31/31/1 33/33/1
f 2/4/2 34/34/2 32/32/2
f 1/1/1 33/33/1 35/35/1
f 2/4/2 36/36/2 34/34/2
f 1/1/1 35/35/1 37/37/1
f 2/4/2 38/38/2 36/36/2
f 1/1/1 37/37/1 39/39/1
f 2/4/2 40/40/2 38/38/2
f 1/1/1 39/39/1 41/41/1
f 2/4/2 42/42/2 40/40/2
f 1/1/1 41/41/1 43/43/1
f 2/4/2 44/44/2 42/42/2
f 1/1/1 43/43/1 45/45/1
f 2/4/2 46/46/2 44/44/2
f 1/1/1 45/45/1 47/47/1
f 2/4/2 48/48/2 46/46/2
f 1/1/1 47/47/1 49/49/1
f 2/4/2 50/50/2 48/48/2
f 1/1/1 49/49/1 51/51/1
f 2/4/2 52/52/2 50/50/2
f 1/1/1 51/51/1 53/53/1
f 2/4/2 54/54/2 52/52/2
f 1/1/1 53/53/1 55/55/1
f 2/4/2 56/56/2 54/54/2
f 1/1/1 55/55/1 57/57/1
f 2/4/2 58/58/2 56/56/2
f 1/1/1 57/57/1 59/59/1
f 2/4/2 60/60/2 58/58/2
f 1/1/1 59/59/1 61/61/1
f 2/4/2 62/62/2 60/60/2
f 1/1/1 61/61/1 63/63/1
f 2/4/2 64/64/2 62/62/2
f 1/1/1 63/63/1 65/65/1
f 2/4/2 66/66/2 64/64/2
f 1/1/1 65/65/1 67/67/1
f 2/4/2 68/68/2 66/66/2
f 1/1/1 67/67/1 69/69/1
f 2/4/2 70/70/2 68/68/2
f 1/1/1 69/69/1 71/71/1
f 2/4/2 72/72/2 70/70/2
f 1/1/1 71/71/1 73/73/1
f 2/4/2 74/74/2 72/72/2
f 1/1/1 73/73/1 75/75/1
f 2/4/2 76/76/2 74/74/2
f 1/1/1 75/75/1 77/77/1
f 2/4/2 78/78/2 76/76/2
f 1/1/1 77/77/1 79/79/1
f 2/4/2 80/80/2 78/78/2
f 1/1/1 79/79/1 81/81/1
f 2/4/2 82/82/2 80/80/2
f 1/1/1 81/81/1 83/83/1
f 2/4/2 84/84/2 82/82/2
f 1/1/1 83/83/1 85/85/1
f 2/4/2 86/86/2 84/84/2
f 1/1/1 85/85/1 87/87/1
f 2/4/2 88/88/2 86/86/2
f 1/1/1 87/87/1 89/89/1
f 2/4/2 90/90/2 88/88/2
f 1/1/1 89/89/1 91/91/1
f 2/4/2 92/92/2 90/90/2
f 1/1/1 91/91/1 93/93/1
f 2/4/2 94/94/2 92/92/2
f 1/1/1 93/93/1 95/95/1
f 2/4/2 96/96/2 94/94/2
f 1/1/1 95/95/1 97/97/1
f 2/4/2 98/98/2 96/96/2
f 1/1/1 97/97/1 99/99/1
f 2/4/2 100/100/2 98/98/2
f 1/1/1 99/99/1 101/101/1
f 2/4/2 102/102/2 100/100/2
f 1/1/1 101/101/1 103/103/1
f 2/4/2 104/104/2 102/102/2
f 1/1/1 103/103/1 105/105/1
f 2/4/2 106/106/2 104/104/2
f 1/1/1 105/105/1 107/107/1
f 2/4/2 108/108/2 106/106/2
f 1/1/1 107/107/1 109/109/1
f 2/4/2 110/110/2 108/108/2
f 1/1/1 109/109/1 111/111/1
f 2/4/2 112/112/2 110/110/2
f 1/1/1 111/111/1 113/113/1
f 2/4/2 114/114/2 112/112/2
f 1/1/1 113/113/1 115/115/1
f 2/4/2 116/116/2 114/114/2
f 1/1/1 115/115/1 117/117/1
f 2/4/2 118/118/2 116/116/2
f 1/1/1 117/117/1 119/119/1
f 2/4/2 120/120/2 118/118/2
f 1/1/1 119/119/1 121/121/1
f 2/4/2 122/122/2 120/120/2
f 1/1/1 121/121/1 123/123/1
f 2/4/2 124/124/2 122/122/2
f 1/1/1 123/123/1 125/125/1
f 2/4/2 126/126/2 124/124/2
f 1/1/1 125/125/1 127/127/1
f 2/4/2 128/128/2 126/126/2
f 1/1/1 127/127/1 129/129/1
f 2/4/2 130/130/2 128/128/2
f 1/1/1 129/129/1 3/2/1
f 2/4/2 4/6/2 130/130/2
usemtl ColobotMesh_mat_2_[1024]
s 1
f 4/131/3 5/132/4 3/133/5
f 6/134/6 7/135/7 5/132/4
f 8/136/8 9/137/9 7/135/7
f 10/138/10 11/139/11 9/137/9
f 12/140/12 13/141/13 11/139/11
f 14/142/14 15/143/15 13/141/13
f 16/144/16 17/145/17 15/143/15
f 18/146/18 19/147/19 17/145/17
f 20/148/20 21/149/21 19/147/19
f 22/150/22 23/151/23 21/149/21
f 24/152/24 25/153/25 23/151/23
f 26/154/26 27/155/27 25/153/25
f 28/156/28 29/157/29 27/155/27
f 30/158/30 31/159/31 29/157/29
f 32/160/32 33/161/33 31/159/31
f 34/162/34 35/163/35 33/161/33
f 36/164/36 37/165/37 35/163/35
f 38/166/38 39/167/39 37/165/37
f 40/168/40 41/169/41 39/167/39
f 42/170/42 43/171/43 41/169/41
f 44/172/44 45/173/45 43/171/43
f 46/174/46 47/175/47 45/173/45
f 48/176/48 49/177/49 47/175/47
f 50/178/50 51/179/51 49/177/49
f 52/180/52 53/181/53 51/179/51
f 54/182/54 55/183/55 53/181/53
f 56/184/56 57/185/57 55/183/55
f 58/186/58 59/187/59 57/185/57
f 60/188/60 61/189/61 59/187/59
f 62/190/62 63/191/63 61/189/61
f 64/192/64 65/193/65 63/191/63
f 66/194/66 67/195/67 65/193/65
f 68/196/68 69/197/69 67/195/67
f 70/198/70 71/199/71 69/197/69
f 72/200/72 73/201/73 71/199/71
f 74/202/74 75/203/75 73/201/73
f 76/204/76 77/205/77 75/203/75
f 78/206/78 79/207/79 77/205/77
f 80/208/80 81/209/81 79/207/79
f 82/210/82 83/211/83 81/209/81
f 84/212/84 85/213/85 83/211/83
f 86/214/86 87/215/87 85/213/85
f 88/216/88 89/217/89 87/215/87
f 90/218/90 91/219/91 89/217/89
f 92/220/92 93/221/93 91/219/91
f 94/222/94 95/223/95 93/221/93
f 96/224/96 97/225/97 95/223/95
f 98/226/98 99/227/99 97/225/97
f 100/228/100 101/229/101 99/227/99
f 102/230/102 103/231/103 101/229/101
f 104/232/104 105/233/105 103/231/103
f 106/234/106 107/235/107 105/233/105
f 108/236/108 109/237/109 107/235/107
f 110/238/110 111/239/111 109/237/109
f 112/240/112 113/241/113 111/239/111
f 114/242/114 115/243/115 113/241/113
f 116/244/116 117/245/117 115/243/115
f 118/246/118 119/247/119 117/245/117
f 120/248/120 121/249/121 119/247/119
f 122/250/122 123/251/123 121/249/121
f 124/252/124 125/253/125 123/251/123
f 125/253/125 128/254/126 127/255/127
f 128/254/126 129/256/128 127/255/127
f 130/257/129 3/133/5 129/256/128
f 4/131/3 6/134/6 5/132/4
f 6/134/6 8/136/8 7/135/7
f 8/136/8 10/138/10 9/137/9
f 10/138/10 12/140/12 11/139/11
f 12/140/12 14/142/14 13/141/13
f 14/142/14 16/144/16 15/143/15
f 16/144/16 18/146/18 17/145/17
f 18/146/18 20/148/20 19/147/19
f 20/148/20 22/150/22 21/149/21
f 22/150/22 24/152/24 23/151/23
f 24/152/24 26/154/26 25/153/25
f 26/154/26 28/156/28 27/155/27
f 28/156/28 30/158/30 29/157/29
f 30/158/30 32/160/32 31/159/31
f 32/160/32 34/162/34 33/161/33
f 34/162/34 36/164/36 35/163/35
f 36/164/36 38/166/38 37/165/37
f 38/166/38 40/168/40 39/167/39
f 40/168/40 42/170/42 41/169/41
f 42/170/42 44/172/44 43/171/43
f 44/172/44 46/174/46 45/173/45
f 46/174/46 48/176/48 47/175/47
f 48/176/48 50/178/50 49/177/49
f 50/178/50 52/180/52 51/179/51
f 52/180/52 54/182/54 53/181/53
f 54/182/54 56/184/56 55/183/55
f 56/184/56 58/186/58 57/185/57
f 58/186/58 60/188/60 59/187/59
f 60/188/60 62/190/62 61/189/61
f 62/190/62 64/192/64 63/191/63
f 64/192/64 66/194/66 65/193/65
f 66/194/66 68/196/68 67/195/67
f 68/196/68 70/198/70 69/197/69
f 70/198/70 72/200/72 71/199/71
f 72/200/72 74/202/74 73/201/73
f 74/202/74 76/204/76 75/203/75
f 76/204/76 78/206/78 77/205/77
f 78/206/78 80/208/80 79/207/79
f 80/208/80 82/210/82 81/209/81
f 82/210/82 84/212/84 83/211/83
f 84/212/84 86/214/86 85/213/85
f 86/214/86 88/216/88 87/215/87
f 88/216/88 90/218/90 89/217/89
f 90/218/90 92/220/92 91/219/91
f 92/220/92 94/222/94 93/221/93
f 94/222/94 96/224/96 95/223/95
f 96/224/96 98/226/98 97/225/97
f 98/226/98 100/228/100 99/227/99
f 100/228/100 102/230/102 101/229/101
f 102/230/102 104/232/104 103/231/103
f 104/232/104 106/234/106 105/233/105
f 106/234/106 108/236/108 107/235/107
f 108/236/108 110/238/110 109/237/109
f 110/238/110 112/240/112 111/239/111
f 112/240/112 114/242/114 113/241/113
f 114/242/114 116/244/116 115/243/115
f 116/244/116 118/246/118 117/245/117
f 118/246/118 120/248/120 119/247/119
f 120/248/120 122/250/122 121/249/121
f 122/250/122 124/252/124 123/251/123
f 124/252/124 126/258/130 125/253/125
f 125/253/125 126/258/130 128/254/126
f 128/254/126 130/257/129 129/256/128
f 130/257/129 4/131/3 3/133/5
