# Blender v2.77 (sub 0) OBJ File: 'radar2.blend'
# www.blender.org
mtllib radar2.mtl
o ColobotMesh_1_ColobotMesh_
v 0.000000 6.000000 0.000000
v -3.417400 0.946588 2.849300
v -1.250000 3.000000 2.165060
v 1.250000 1.000000 2.165060
v 1.250000 3.000000 2.165060
v -1.250000 1.000000 2.165060
v -3.808670 2.243300 -2.185520
v -3.706070 1.743300 2.474690
v -3.706070 2.243300 2.474690
v -1.459440 2.243300 -1.330470
v -3.706070 2.243300 -2.467430
v -1.356840 2.243300 -1.612380
v -1.356840 1.743300 -1.612380
v -3.706070 1.743300 -2.467430
v -3.897020 0.946588 3.000000
v -3.417400 2.946590 2.849300
v -3.417400 2.946590 -2.848140
v -3.897020 2.946590 -3.000000
v -4.182600 3.446590 0.000000
v -4.682600 3.446590 0.000000
v -3.897020 2.946590 3.000000
v -3.897020 0.946588 -3.000000
v -1.459440 1.743300 -1.330470
v -3.808670 1.743300 -2.185520
v -4.682600 0.446588 0.000000
v -2.500000 3.000000 0.000000
v -1.250000 1.000000 -2.165060
v -1.250000 3.000000 -2.165060
v 5.011810 3.000000 0.050570
v 1.250000 1.000000 -2.165060
v 1.250000 3.000000 -2.165060
v -2.500000 1.000000 0.000000
v 5.011810 1.000000 0.050570
v -3.417400 0.946588 -2.848140
v -4.182600 0.446588 0.000000
v -3.808670 1.743300 2.192780
v -3.808670 2.243300 2.192780
v -1.459440 1.743300 1.337730
v -1.459440 2.243300 1.337730
v -1.356840 1.743300 1.619630
v -1.356840 2.243300 1.619630
v 0.000000 6.000000 0.000000
v 0.000000 0.000000 -1.499999
v 0.000000 6.000000 -1.499999
v 0.147026 0.000000 -1.492776
v 0.147026 6.000000 -1.492776
v 0.292636 0.000000 -1.471177
v 0.292636 6.000000 -1.471177
v 0.435427 0.000000 -1.435410
v 0.435427 6.000000 -1.435410
v 0.574025 0.000000 -1.385818
v 0.574025 6.000000 -1.385818
v 0.707095 0.000000 -1.322881
v 0.707095 6.000000 -1.322881
v 0.833355 0.000000 -1.247204
v 0.833355 6.000000 -1.247204
v 0.951590 0.000000 -1.159515
v 0.951590 6.000000 -1.159515
v 1.060660 0.000000 -1.060660
v 1.060660 6.000000 -1.060660
v 1.159515 0.000000 -0.951589
v 1.159515 6.000000 -0.951589
v 1.247204 0.000000 -0.833355
v 1.247204 6.000000 -0.833355
v 1.322881 0.000000 -0.707095
v 1.322881 6.000000 -0.707095
v 1.385819 0.000000 -0.574025
v 1.385819 6.000000 -0.574025
v 1.435410 0.000000 -0.435427
v 1.435410 6.000000 -0.435427
v 1.471177 0.000000 -0.292635
v 1.471177 6.000000 -0.292635
v 1.492777 0.000000 -0.147025
v 1.492777 6.000000 -0.147025
v 1.499999 -0.000000 0.000000
v 1.499999 6.000000 0.000000
v 1.492777 -0.000000 0.147026
v 1.492777 6.000000 0.147026
v 1.471177 -0.000000 0.292636
v 1.471177 6.000000 0.292636
v 1.435410 -0.000000 0.435427
v 1.435410 6.000000 0.435427
v 1.385819 -0.000000 0.574025
v 1.385819 6.000000 0.574025
v 1.322881 -0.000000 0.707095
v 1.322881 6.000000 0.707095
v 1.247204 -0.000000 0.833355
v 1.247204 6.000000 0.833355
v 1.159515 -0.000000 0.951590
v 1.159515 6.000000 0.951590
v 1.060659 -0.000000 1.060660
v 1.060659 6.000000 1.060660
v 0.951589 -0.000000 1.159516
v 0.951589 6.000000 1.159516
v 0.833354 -0.000000 1.247204
v 0.833354 6.000000 1.247204
v 0.707094 -0.000000 1.322882
v 0.707094 6.000000 1.322882
v 0.574024 -0.000000 1.385819
v 0.574024 6.000000 1.385819
v 0.435426 -0.000000 1.435410
v 0.435426 6.000000 1.435410
v 0.292635 -0.000000 1.471177
v 0.292635 6.000000 1.471177
v 0.147025 -0.000000 1.492776
v 0.147025 6.000000 1.492776
v -0.000001 -0.000000 1.499999
v -0.000001 6.000000 1.499999
v -0.147027 -0.000000 1.492776
v -0.147027 6.000000 1.492776
v -0.292636 -0.000000 1.471177
v -0.292636 6.000000 1.471177
v -0.435428 -0.000000 1.435409
v -0.435428 6.000000 1.435409
v -0.574026 -0.000000 1.385818
v -0.574026 6.000000 1.385818
v -0.707096 -0.000000 1.322881
v -0.707096 6.000000 1.322881
v -0.833356 -0.000000 1.247203
v -0.833356 6.000000 1.247203
v -0.951590 -0.000000 1.159514
v -0.951590 6.000000 1.159514
v -1.060660 -0.000000 1.060658
v -1.060660 6.000000 1.060658
v -1.159516 -0.000000 0.951588
v -1.159516 6.000000 0.951588
v -1.247204 -0.000000 0.833354
v -1.247204 6.000000 0.833354
v -1.322881 -0.000000 0.707094
v -1.322881 6.000000 0.707094
v -1.385818 -0.000000 0.574024
v -1.385818 6.000000 0.574024
v -1.435409 -0.000000 0.435427
v -1.435409 6.000000 0.435427
v -1.471177 -0.000000 0.292635
v -1.471177 6.000000 0.292635
v -1.492776 -0.000000 0.147026
v -1.492776 6.000000 0.147026
v -1.499999 -0.000000 0.000001
v -1.499999 6.000000 0.000001
v -1.492776 0.000000 -0.147025
v -1.492776 6.000000 -0.147025
v -1.471177 0.000000 -0.292634
v -1.471177 6.000000 -0.292634
v -1.435410 0.000000 -0.435425
v -1.435410 6.000000 -0.435425
v -1.385819 0.000000 -0.574023
v -1.385819 6.000000 -0.574023
v -1.322882 0.000000 -0.707093
v -1.322882 6.000000 -0.707093
v -1.247205 0.000000 -0.833353
v -1.247205 6.000000 -0.833353
v -1.159516 0.000000 -0.951587
v -1.159516 6.000000 -0.951587
v -1.060662 0.000000 -1.060657
v -1.060662 6.000000 -1.060657
v -0.951592 0.000000 -1.159513
v -0.951592 6.000000 -1.159513
v -0.833358 0.000000 -1.247202
v -0.833358 6.000000 -1.247202
v -0.707098 0.000000 -1.322879
v -0.707098 6.000000 -1.322879
v -0.574028 0.000000 -1.385817
v -0.574028 6.000000 -1.385817
v -0.435431 0.000000 -1.435408
v -0.435431 6.000000 -1.435408
v -0.292640 0.000000 -1.471176
v -0.292640 6.000000 -1.471176
v -0.147030 0.000000 -1.492776
v -0.147030 6.000000 -1.492776
v -3.808670 1.743300 2.192780
v -1.459440 1.743300 1.337730
v 5.011810 3.000000 0.050570
v 5.011810 3.000000 0.050570
v 1.250000 3.000000 -2.165060
v 1.250000 3.000000 -2.165060
v 1.250000 1.000000 -2.165060
v 1.250000 1.000000 -2.165060
v -1.250000 3.000000 2.165060
v -1.250000 3.000000 2.165060
v 1.250000 3.000000 2.165060
v -1.459440 1.743300 -1.330470
v -3.808670 1.743300 -2.185520
v -1.250000 1.000000 -2.165060
v -1.250000 1.000000 -2.165060
v -1.250000 3.000000 -2.165060
v -1.250000 3.000000 -2.165060
v -1.356840 1.743300 -1.612380
v -3.706070 1.743300 -2.467430
v -3.808670 2.243300 2.192780
v -1.459440 2.243300 1.337730
v -3.417400 2.946590 -2.848140
v -3.417400 2.946590 -2.848140
v -3.897020 2.946590 -3.000000
v -3.897020 2.946590 -3.000000
v -1.356840 2.243300 -1.612380
v -3.706070 2.243300 -2.467430
v -1.356840 1.743300 1.619630
v -3.706070 1.743300 2.474690
v -4.682600 3.446590 0.000000
v -3.897020 2.946590 3.000000
v -3.897020 2.946590 3.000000
v -3.417400 2.946590 2.849300
v -3.417400 2.946590 2.849300
v -3.417400 0.946588 2.849300
v -3.417400 0.946588 2.849300
v -2.500000 1.000000 0.000000
v -2.500000 1.000000 0.000000
v -3.897020 0.946588 3.000000
v -3.897020 0.946588 3.000000
v -1.250000 1.000000 2.165060
v -1.250000 1.000000 2.165060
v -4.682600 0.446588 0.000000
v -3.897020 0.946588 -3.000000
v -3.897020 0.946588 -3.000000
v -4.182600 0.446588 0.000000
v -4.182600 0.446588 0.000000
v -2.500000 3.000000 0.000000
v -2.500000 3.000000 0.000000
v -3.417400 0.946588 -2.848140
v -3.417400 0.946588 -2.848140
v -4.182600 3.446590 0.000000
v -4.182600 3.446590 0.000000
v -1.459440 2.243300 -1.330470
v -3.808670 2.243300 -2.185520
v 1.250000 1.000000 2.165060
v 5.011810 1.000000 0.050570
v 5.011810 1.000000 0.050570
v -3.706070 2.243300 2.474690
v -1.356840 2.243300 1.619630
v 0.147026 6.000000 -1.492776
v 0.000000 6.000000 -1.499999
v 0.292636 6.000000 -1.471177
v 0.435427 6.000000 -1.435410
v 0.574025 6.000000 -1.385818
v 0.707095 6.000000 -1.322881
v 0.833355 6.000000 -1.247204
v 0.951590 6.000000 -1.159515
v 1.060660 6.000000 -1.060660
v 1.159515 6.000000 -0.951589
v 1.247204 6.000000 -0.833355
v 1.322881 6.000000 -0.707095
v 1.385819 6.000000 -0.574025
v 1.435410 6.000000 -0.435427
v 1.471177 6.000000 -0.292635
v 1.492777 6.000000 -0.147025
v 1.499999 6.000000 0.000000
v 1.492777 6.000000 0.147026
v 1.471177 6.000000 0.292636
v 1.435410 6.000000 0.435427
v 1.385819 6.000000 0.574025
v 1.322881 6.000000 0.707095
v 1.247204 6.000000 0.833355
v 1.159515 6.000000 0.951590
v 1.060659 6.000000 1.060660
v 0.951589 6.000000 1.159516
v 0.833354 6.000000 1.247204
v 0.707094 6.000000 1.322882
v 0.574024 6.000000 1.385819
v 0.435426 6.000000 1.435410
v 0.292635 6.000000 1.471177
v 0.147025 6.000000 1.492776
v -0.000001 6.000000 1.499999
v -0.147027 6.000000 1.492776
v -0.292636 6.000000 1.471177
v -0.435428 6.000000 1.435409
v -0.574026 6.000000 1.385818
v -0.707096 6.000000 1.322881
v -0.833356 6.000000 1.247203
v -0.951590 6.000000 1.159514
v -1.060660 6.000000 1.060658
v -1.159516 6.000000 0.951588
v -1.247204 6.000000 0.833354
v -1.322881 6.000000 0.707094
v -1.385818 6.000000 0.574024
v -1.435409 6.000000 0.435427
v -1.471177 6.000000 0.292635
v -1.492776 6.000000 0.147026
v -1.499999 6.000000 0.000001
v -1.492776 6.000000 -0.147025
v -1.471177 6.000000 -0.292634
v -1.435410 6.000000 -0.435425
v -1.385819 6.000000 -0.574023
v -1.322882 6.000000 -0.707093
v -1.247205 6.000000 -0.833353
v -1.159516 6.000000 -0.951587
v -1.060662 6.000000 -1.060657
v -0.951592 6.000000 -1.159513
v -0.833358 6.000000 -1.247202
v -0.707098 6.000000 -1.322879
v -0.574028 6.000000 -1.385817
v -0.435431 6.000000 -1.435408
v -0.292640 6.000000 -1.471176
v -0.147030 6.000000 -1.492776
vt 0.0605 0.8730
vt 0.0571 0.6270
vt 0.0605 0.6270
vt 0.0571 0.8730
vt 0.0537 0.6270
vt 0.0537 0.8730
vt 0.0503 0.6270
vt 0.0503 0.8730
vt 0.0469 0.6270
vt 0.0469 0.8730
vt 0.0435 0.6270
vt 0.0435 0.8730
vt 0.0400 0.6270
vt 0.0400 0.8730
vt 0.0366 0.6270
vt 0.0366 0.8730
vt 0.0332 0.6270
vt 0.0605 0.8730
vt 0.0571 0.6270
vt 0.0605 0.6270
vt 0.0571 0.8730
vt 0.0537 0.6270
vt 0.0537 0.8730
vt 0.0503 0.6270
vt 0.0503 0.8730
vt 0.0469 0.6270
vt 0.0469 0.8730
vt 0.0435 0.6270
vt 0.0435 0.8730
vt 0.0400 0.6270
vt 0.0400 0.8730
vt 0.0366 0.6270
vt 0.0366 0.8730
vt 0.0332 0.6270
vt 0.0605 0.8730
vt 0.0571 0.6270
vt 0.0605 0.6270
vt 0.0571 0.8730
vt 0.0537 0.6270
vt 0.0537 0.8730
vt 0.0503 0.6270
vt 0.0503 0.8730
vt 0.0469 0.6270
vt 0.0469 0.8730
vt 0.0435 0.6270
vt 0.0435 0.8730
vt 0.0400 0.6270
vt 0.0400 0.8730
vt 0.0366 0.6270
vt 0.0366 0.8730
vt 0.0332 0.6270
vt 0.0605 0.8730
vt 0.0571 0.6270
vt 0.0605 0.6270
vt 0.0571 0.8730
vt 0.0537 0.6270
vt 0.0537 0.8730
vt 0.0503 0.6270
vt 0.0503 0.8730
vt 0.0469 0.6270
vt 0.0469 0.8730
vt 0.0435 0.6270
vt 0.0435 0.8730
vt 0.0400 0.6270
vt 0.0400 0.8730
vt 0.0366 0.6270
vt 0.0366 0.8730
vt 0.0332 0.6270
vt 0.0605 0.8730
vt 0.0571 0.6270
vt 0.0605 0.6270
vt 0.0571 0.8730
vt 0.0537 0.6270
vt 0.0537 0.8730
vt 0.0503 0.6270
vt 0.0503 0.8730
vt 0.0469 0.6270
vt 0.0469 0.8730
vt 0.0435 0.6270
vt 0.0435 0.8730
vt 0.0400 0.6270
vt 0.0400 0.8730
vt 0.0366 0.6270
vt 0.0366 0.8730
vt 0.0332 0.6270
vt 0.0605 0.8730
vt 0.0571 0.6270
vt 0.0605 0.6270
vt 0.0571 0.8730
vt 0.0537 0.6270
vt 0.0537 0.8730
vt 0.0503 0.6270
vt 0.0503 0.8730
vt 0.0469 0.6270
vt 0.0469 0.8730
vt 0.0435 0.6270
vt 0.0435 0.8730
vt 0.0400 0.6270
vt 0.0400 0.8730
vt 0.0366 0.6270
vt 0.0366 0.8730
vt 0.0332 0.6270
vt 0.0605 0.8730
vt 0.0571 0.6270
vt 0.0605 0.6270
vt 0.0571 0.8730
vt 0.0537 0.6270
vt 0.0537 0.8730
vt 0.0503 0.6270
vt 0.0503 0.8730
vt 0.0469 0.6270
vt 0.0469 0.8730
vt 0.0435 0.6270
vt 0.0435 0.8730
vt 0.0400 0.6270
vt 0.0400 0.8730
vt 0.0366 0.6270
vt 0.0366 0.8730
vt 0.0332 0.6270
vt 0.0605 0.8730
vt 0.0571 0.6270
vt 0.0605 0.6270
vt 0.0571 0.8730
vt 0.0537 0.6270
vt 0.0537 0.8730
vt 0.0503 0.6270
vt 0.0503 0.8730
vt 0.0469 0.6270
vt 0.0469 0.8730
vt 0.0435 0.6270
vt 0.0435 0.8730
vt 0.0400 0.6270
vt 0.0400 0.8730
vt 0.0366 0.6270
vt 0.0366 0.8730
vt 0.0332 0.6270
vt 0.0332 0.8730
vt 0.0332 0.8730
vt 0.0332 0.8730
vt 0.0332 0.8730
vt 0.0332 0.8730
vt 0.0332 0.8730
vt 0.0332 0.8730
vt 0.0332 0.8730
vt 0.5814 0.9889
vt 0.5823 0.9953
vt 0.5817 0.9954
vt 0.5830 0.9952
vt 0.5836 0.9950
vt 0.5842 0.9948
vt 0.5847 0.9945
vt 0.5853 0.9941
vt 0.5858 0.9937
vt 0.5862 0.9933
vt 0.5866 0.9928
vt 0.5870 0.9922
vt 0.5873 0.9917
vt 0.5875 0.9911
vt 0.5877 0.9905
vt 0.5878 0.9898
vt 0.5879 0.9892
vt 0.5879 0.9886
vt 0.5878 0.9879
vt 0.5877 0.9873
vt 0.5875 0.9867
vt 0.5873 0.9861
vt 0.5870 0.9855
vt 0.5866 0.9850
vt 0.5862 0.9845
vt 0.5858 0.9840
vt 0.5853 0.9836
vt 0.5847 0.9833
vt 0.5842 0.9830
vt 0.5836 0.9827
vt 0.5830 0.9825
vt 0.5823 0.9824
vt 0.5817 0.9823
vt 0.5811 0.9823
vt 0.5804 0.9824
vt 0.5798 0.9825
vt 0.5792 0.9827
vt 0.5786 0.9830
vt 0.5780 0.9833
vt 0.5775 0.9836
vt 0.5770 0.9840
vt 0.5765 0.9845
vt 0.5761 0.9850
vt 0.5758 0.9855
vt 0.5755 0.9861
vt 0.5752 0.9867
vt 0.5750 0.9873
vt 0.5749 0.9879
vt 0.5748 0.9886
vt 0.5748 0.9892
vt 0.5749 0.9898
vt 0.5750 0.9905
vt 0.5752 0.9911
vt 0.5755 0.9917
vt 0.5758 0.9922
vt 0.5761 0.9928
vt 0.5765 0.9933
vt 0.5770 0.9937
vt 0.5775 0.9941
vt 0.5780 0.9945
vt 0.5786 0.9948
vt 0.5792 0.9950
vt 0.5798 0.9952
vt 0.5804 0.9953
vt 0.5811 0.9954
vt 0.6582 0.9863
vt 0.6660 0.9941
vt 0.6582 0.9941
vt 0.6582 0.9883
vt 0.6660 0.9922
vt 0.6585 0.9863
vt 0.5780 0.9863
vt 0.5819 0.9941
vt 0.5776 0.9863
vt 0.5819 0.9863
vt 0.5780 0.9941
vt 0.5776 0.9941
vt 0.6582 0.9941
vt 0.6660 0.9863
vt 0.6582 0.9863
vt 0.6582 0.9922
vt 0.6660 0.9883
vt 0.6585 0.9941
vt 0.6660 0.9922
vt 0.6582 0.9883
vt 0.6585 0.9863
vt 0.6322 0.9863
vt 0.6322 0.9941
vt 0.6309 0.9902
vt 0.6660 0.9883
vt 0.6582 0.9922
vt 0.6585 0.9941
vt 0.6322 0.9863
vt 0.6322 0.9941
vt 0.6387 0.9903
vt 0.5840 0.9941
vt 0.5805 0.9863
vt 0.5840 0.9863
vt 0.6660 0.9863
vt 0.6582 0.9941
vt 0.6660 0.9941
vt 0.6348 0.9941
vt 0.6387 0.9903
vt 0.7520 0.2480
vt 0.8340 0.1660
vt 0.8340 0.2480
vt 0.6348 0.9863
vt 0.6348 0.9941
vt 0.5797 0.9863
vt 0.5762 0.9941
vt 0.5762 0.9863
vt 0.6348 0.9863
vt 0.5783 0.9863
vt 0.5821 0.9941
vt 0.5787 0.9863
vt 0.8340 0.2480
vt 0.7520 0.1660
vt 0.7520 0.2480
vt 0.8340 0.2480
vt 0.7520 0.1660
vt 0.7520 0.2480
vt 0.6660 0.9941
vt 0.6582 0.9863
vt 0.6660 0.9863
vt 0.5824 0.9941
vt 0.5784 0.9876
vt 0.5824 0.9863
vt 0.9043 0.7520
vt 0.8969 0.8008
vt 0.8969 0.7617
vt 0.2480 0.2285
vt 0.1270 0.3105
vt 0.2480 0.3105
vt 0.5783 0.9941
vt 0.5821 0.9863
vt 0.5825 0.9863
vt 0.8844 0.8008
vt 0.8770 0.7520
vt 0.8844 0.7617
vt 0.1270 0.3105
vt 0.2480 0.2285
vt 0.2480 0.3105
vt 0.5817 0.9876
vt 0.5778 0.9941
vt 0.5778 0.9863
vt 0.7520 0.1660
vt 0.8340 0.2480
vt 0.7520 0.2480
vt 0.6660 0.9863
vt 0.6657 0.9941
vt 0.5815 0.9941
vt 0.5815 0.9863
vt 0.6660 0.9941
vt 0.6657 0.9863
vt 0.6657 0.9941
vt 0.6657 0.9863
vt 0.6309 0.9902
vt 0.5805 0.9941
vt 0.6582 0.9863
vt 0.7520 0.1660
vt 0.5797 0.9941
vt 0.5825 0.9941
vt 0.8340 0.1660
vt 0.8340 0.1660
vt 0.6582 0.9941
vt 0.5784 0.9928
vt 0.9043 0.8105
vt 0.1270 0.2285
vt 0.5787 0.9941
vt 0.8770 0.8105
vt 0.1270 0.2285
vt 0.5817 0.9928
vt 0.8340 0.1660
vn 0.0000 0.0000 -1.0000
vn 0.0980 0.0000 -0.9952
vn 0.1951 0.0000 -0.9808
vn 0.2903 0.0000 -0.9569
vn 0.3827 0.0000 -0.9239
vn 0.4714 0.0000 -0.8819
vn 0.5556 0.0000 -0.8314
vn 0.6344 0.0000 -0.7730
vn 0.7071 0.0000 -0.7071
vn 0.7730 0.0000 -0.6344
vn 0.8314 0.0000 -0.5556
vn 0.8819 0.0000 -0.4714
vn 0.9239 0.0000 -0.3827
vn 0.9569 0.0000 -0.2903
vn 0.9808 0.0000 -0.1951
vn 0.9952 0.0000 -0.0980
vn 1.0000 0.0000 0.0000
vn 0.9952 0.0000 0.0980
vn 0.9808 0.0000 0.1951
vn 0.9569 0.0000 0.2903
vn 0.9239 0.0000 0.3827
vn 0.8819 0.0000 0.4714
vn 0.8314 0.0000 0.5556
vn 0.7730 0.0000 0.6344
vn 0.7071 0.0000 0.7071
vn 0.6344 0.0000 0.7730
vn 0.5556 0.0000 0.8314
vn 0.4714 0.0000 0.8819
vn 0.3827 0.0000 0.9239
vn 0.2903 0.0000 0.9569
vn 0.1951 0.0000 0.9808
vn 0.0980 0.0000 0.9952
vn 0.0000 0.0000 1.0000
vn -0.0980 0.0000 0.9952
vn -0.1951 0.0000 0.9808
vn -0.2903 0.0000 0.9569
vn -0.3827 0.0000 0.9239
vn -0.4714 0.0000 0.8819
vn -0.5556 0.0000 0.8314
vn -0.6344 0.0000 0.7730
vn -0.7071 0.0000 0.7071
vn -0.7730 0.0000 0.6344
vn -0.8314 0.0000 0.5556
vn -0.8819 0.0000 0.4714
vn -0.9239 0.0000 0.3827
vn -0.9569 0.0000 0.2903
vn -0.9808 0.0000 0.1951
vn -0.9952 0.0000 0.0980
vn -1.0000 0.0000 0.0000
vn -0.9952 0.0000 -0.0980
vn -0.9808 0.0000 -0.1951
vn -0.9569 0.0000 -0.2903
vn -0.9239 0.0000 -0.3827
vn -0.8819 0.0000 -0.4714
vn -0.8314 0.0000 -0.5556
vn -0.7730 0.0000 -0.6344
vn -0.7071 0.0000 -0.7071
vn -0.6344 0.0000 -0.7730
vn -0.5556 0.0000 -0.8314
vn -0.4714 0.0000 -0.8819
vn -0.3827 0.0000 -0.9239
vn -0.2903 0.0000 -0.9569
vn -0.1951 0.0000 -0.9808
vn -0.0980 0.0000 -0.9952
vn 0.0000 1.0000 0.0000
vn -0.3420 0.0000 -0.9397
vn 0.0046 -1.0000 0.0000
vn 0.0449 -0.9861 0.1601
vn 0.0000 -1.0000 0.0000
vn 0.0449 0.9861 0.1601
vn 0.0046 1.0000 0.0000
vn 0.3420 0.0000 -0.9397
vn 0.3018 0.0000 -0.9533
vn 0.3420 0.0000 0.9397
vn -0.8660 0.0000 0.5000
vn 0.2998 0.0000 0.9540
vn 0.0452 0.9861 -0.1600
vn 0.0505 0.9859 -0.1595
vn -0.8660 0.0000 -0.5000
vn -0.3420 0.0000 0.9397
vn -0.9674 0.0000 -0.2533
vn 0.9658 0.0000 -0.2593
vn 0.5075 0.0000 -0.8616
vn 0.0452 -0.9861 -0.1600
vn 0.9657 0.0000 0.2594
vn 0.2532 0.0000 0.9674
vn 0.4900 0.0000 0.8717
vn -0.9674 0.0000 0.2533
vn 0.0501 -0.9859 0.1595
vn 0.0501 0.9859 0.1595
vn 0.0505 -0.9859 -0.1595
usemtl ColobotMesh_mat_1
s 1
f 44/1/1 45/2/2 43/3/1
f 46/4/2 47/5/3 45/2/2
f 48/6/3 49/7/4 47/5/3
f 50/8/4 51/9/5 49/7/4
f 52/10/5 53/11/6 51/9/5
f 54/12/6 55/13/7 53/11/6
f 56/14/7 57/15/8 55/13/7
f 58/16/8 59/17/9 57/15/8
f 60/18/9 61/19/10 59/20/9
f 62/21/10 63/22/11 61/19/10
f 64/23/11 65/24/12 63/22/11
f 66/25/12 67/26/13 65/24/12
f 68/27/13 69/28/14 67/26/13
f 70/29/14 71/30/15 69/28/14
f 72/31/15 73/32/16 71/30/15
f 74/33/16 75/34/17 73/32/16
f 76/35/17 77/36/18 75/37/17
f 78/38/18 79/39/19 77/36/18
f 80/40/19 81/41/20 79/39/19
f 82/42/20 83/43/21 81/41/20
f 84/44/21 85/45/22 83/43/21
f 86/46/22 87/47/23 85/45/22
f 88/48/23 89/49/24 87/47/23
f 90/50/24 91/51/25 89/49/24
f 92/52/25 93/53/26 91/54/25
f 94/55/26 95/56/27 93/53/26
f 96/57/27 97/58/28 95/56/27
f 98/59/28 99/60/29 97/58/28
f 100/61/29 101/62/30 99/60/29
f 102/63/30 103/64/31 101/62/30
f 104/65/31 105/66/32 103/64/31
f 106/67/32 107/68/33 105/66/32
f 108/69/33 109/70/34 107/71/33
f 110/72/34 111/73/35 109/70/34
f 112/74/35 113/75/36 111/73/35
f 114/76/36 115/77/37 113/75/36
f 116/78/37 117/79/38 115/77/37
f 118/80/38 119/81/39 117/79/38
f 120/82/39 121/83/40 119/81/39
f 122/84/40 123/85/41 121/83/40
f 124/86/41 125/87/42 123/88/41
f 126/89/42 127/90/43 125/87/42
f 128/91/43 129/92/44 127/90/43
f 130/93/44 131/94/45 129/92/44
f 132/95/45 133/96/46 131/94/45
f 134/97/46 135/98/47 133/96/46
f 136/99/47 137/100/48 135/98/47
f 138/101/48 139/102/49 137/100/48
f 140/103/49 141/104/50 139/105/49
f 142/106/50 143/107/51 141/104/50
f 144/108/51 145/109/52 143/107/51
f 146/110/52 147/111/53 145/109/52
f 148/112/53 149/113/54 147/111/53
f 150/114/54 151/115/55 149/113/54
f 152/116/55 153/117/56 151/115/55
f 154/118/56 155/119/57 153/117/56
f 156/120/57 157/121/58 155/122/57
f 158/123/58 159/124/59 157/121/58
f 160/125/59 161/126/60 159/124/59
f 162/127/60 163/128/61 161/126/60
f 164/129/61 165/130/62 163/128/61
f 166/131/62 167/132/63 165/130/62
f 168/133/63 169/134/64 167/132/63
f 170/135/64 43/136/1 169/134/64
f 44/1/1 46/4/2 45/2/2
f 46/4/2 48/6/3 47/5/3
f 48/6/3 50/8/4 49/7/4
f 50/8/4 52/10/5 51/9/5
f 52/10/5 54/12/6 53/11/6
f 54/12/6 56/14/7 55/13/7
f 56/14/7 58/16/8 57/15/8
f 58/16/8 60/137/9 59/17/9
f 60/18/9 62/21/10 61/19/10
f 62/21/10 64/23/11 63/22/11
f 64/23/11 66/25/12 65/24/12
f 66/25/12 68/27/13 67/26/13
f 68/27/13 70/29/14 69/28/14
f 70/29/14 72/31/15 71/30/15
f 72/31/15 74/33/16 73/32/16
f 74/33/16 76/138/17 75/34/17
f 76/35/17 78/38/18 77/36/18
f 78/38/18 80/40/19 79/39/19
f 80/40/19 82/42/20 81/41/20
f 82/42/20 84/44/21 83/43/21
f 84/44/21 86/46/22 85/45/22
f 86/46/22 88/48/23 87/47/23
f 88/48/23 90/50/24 89/49/24
f 90/50/24 92/139/25 91/51/25
f 92/52/25 94/55/26 93/53/26
f 94/55/26 96/57/27 95/56/27
f 96/57/27 98/59/28 97/58/28
f 98/59/28 100/61/29 99/60/29
f 100/61/29 102/63/30 101/62/30
f 102/63/30 104/65/31 103/64/31
f 104/65/31 106/67/32 105/66/32
f 106/67/32 108/140/33 107/68/33
f 108/69/33 110/72/34 109/70/34
f 110/72/34 112/74/35 111/73/35
f 112/74/35 114/76/36 113/75/36
f 114/76/36 116/78/37 115/77/37
f 116/78/37 118/80/38 117/79/38
f 118/80/38 120/82/39 119/81/39
f 120/82/39 122/84/40 121/83/40
f 122/84/40 124/141/41 123/85/41
f 124/86/41 126/89/42 125/87/42
f 126/89/42 128/91/43 127/90/43
f 128/91/43 130/93/44 129/92/44
f 130/93/44 132/95/45 131/94/45
f 132/95/45 134/97/46 133/96/46
f 134/97/46 136/99/47 135/98/47
f 136/99/47 138/101/48 137/100/48
f 138/101/48 140/142/49 139/102/49
f 140/103/49 142/106/50 141/104/50
f 142/106/50 144/108/51 143/107/51
f 144/108/51 146/110/52 145/109/52
f 146/110/52 148/112/53 147/111/53
f 148/112/53 150/114/54 149/113/54
f 150/114/54 152/116/55 151/115/55
f 152/116/55 154/118/56 153/117/56
f 154/118/56 156/143/57 155/119/57
f 156/120/57 158/123/58 157/121/58
f 158/123/58 160/125/59 159/124/59
f 160/125/59 162/127/60 161/126/60
f 162/127/60 164/129/61 163/128/61
f 164/129/61 166/131/62 165/130/62
f 166/131/62 168/133/63 167/132/63
f 168/133/63 170/135/64 169/134/64
f 170/135/64 44/144/1 43/136/1
usemtl ColobotMesh_mat_1_lemt.png
f 42/145/65 231/146/65 232/147/65
f 42/145/65 233/148/65 231/146/65
f 42/145/65 234/149/65 233/148/65
f 42/145/65 235/150/65 234/149/65
f 42/145/65 236/151/65 235/150/65
f 42/145/65 237/152/65 236/151/65
f 42/145/65 238/153/65 237/152/65
f 42/145/65 239/154/65 238/153/65
f 42/145/65 240/155/65 239/154/65
f 42/145/65 241/156/65 240/155/65
f 42/145/65 242/157/65 241/156/65
f 42/145/65 243/158/65 242/157/65
f 42/145/65 244/159/65 243/158/65
f 42/145/65 245/160/65 244/159/65
f 42/145/65 246/161/65 245/160/65
f 42/145/65 247/162/65 246/161/65
f 42/145/65 248/163/65 247/162/65
f 42/145/65 249/164/65 248/163/65
f 42/145/65 250/165/65 249/164/65
f 42/145/65 251/166/65 250/165/65
f 42/145/65 252/167/65 251/166/65
f 42/145/65 253/168/65 252/167/65
f 42/145/65 254/169/65 253/168/65
f 42/145/65 255/170/65 254/169/65
f 42/145/65 256/171/65 255/170/65
f 42/145/65 257/172/65 256/171/65
f 42/145/65 258/173/65 257/172/65
f 42/145/65 259/174/65 258/173/65
f 42/145/65 260/175/65 259/174/65
f 42/145/65 261/176/65 260/175/65
f 42/145/65 262/177/65 261/176/65
f 42/145/65 263/178/65 262/177/65
f 42/145/65 264/179/65 263/178/65
f 42/145/65 265/180/65 264/179/65
f 42/145/65 266/181/65 265/180/65
f 42/145/65 267/182/65 266/181/65
f 42/145/65 268/183/65 267/182/65
f 42/145/65 269/184/65 268/183/65
f 42/145/65 270/185/65 269/184/65
f 42/145/65 271/186/65 270/185/65
f 42/145/65 272/187/65 271/186/65
f 42/145/65 273/188/65 272/187/65
f 42/145/65 274/189/65 273/188/65
f 42/145/65 275/190/65 274/189/65
f 42/145/65 276/191/65 275/190/65
f 42/145/65 277/192/65 276/191/65
f 42/145/65 278/193/65 277/192/65
f 42/145/65 279/194/65 278/193/65
f 42/145/65 280/195/65 279/194/65
f 42/145/65 281/196/65 280/195/65
f 42/145/65 282/197/65 281/196/65
f 42/145/65 283/198/65 282/197/65
f 42/145/65 284/199/65 283/198/65
f 42/145/65 285/200/65 284/199/65
f 42/145/65 286/201/65 285/200/65
f 42/145/65 287/202/65 286/201/65
f 42/145/65 288/203/65 287/202/65
f 42/145/65 289/204/65 288/203/65
f 42/145/65 290/205/65 289/204/65
f 42/145/65 291/206/65 290/205/65
f 42/145/65 292/207/65 291/206/65
f 42/145/65 293/208/65 292/207/65
f 42/145/65 294/209/65 293/208/65
f 42/145/65 232/147/65 294/209/65
usemtl ColobotMesh_mat_2
f 172/210/66 190/211/66 191/212/66
f 225/213/65 12/214/65 197/215/65
f 216/216/67 210/217/68 213/218/69
f 201/219/70 223/220/71 200/221/65
f 11/222/72 188/223/72 189/224/72
f 36/225/69 40/226/69 199/227/69
f 13/228/69 183/229/69 14/230/69
f 185/231/69 212/232/69 207/233/69
f 41/234/65 37/235/65 9/236/65
f 187/237/65 179/238/65 173/239/65
f 194/240/73 221/241/73 215/242/73
f 8/243/74 230/244/74 229/245/74
f 4/246/69 212/232/69 227/247/69
f 219/248/75 211/249/75 180/250/75
f 185/231/69 178/251/69 227/247/69
f 179/238/65 181/252/65 173/239/65
f 205/253/76 202/254/76 209/255/76
f 175/256/65 187/237/65 173/239/65
f 195/257/77 223/258/71 193/259/78
f 186/260/79 32/261/79 26/262/79
f 176/263/1 27/264/1 28/265/1
f 10/266/80 24/267/80 23/268/80
f 20/269/49 214/270/81 25/271/49
f 217/272/82 16/273/82 2/274/82
f 228/275/83 31/276/83 174/277/83
f 22/278/84 216/279/67 213/280/69
f 17/281/85 35/282/85 34/283/85
f 5/284/86 33/285/87 29/286/87
f 15/287/88 20/288/49 25/289/49
f 6/290/33 5/291/86 3/292/33
f 172/210/66 171/293/66 190/211/66
f 225/213/65 224/294/65 12/214/65
f 216/216/67 206/295/89 210/217/68
f 201/219/70 204/296/90 223/220/71
f 11/222/72 196/297/72 188/223/72
f 36/225/69 38/298/69 40/226/69
f 13/228/69 182/299/69 183/229/69
f 185/231/69 227/247/69 212/232/69
f 41/234/65 39/300/65 37/235/65
f 187/237/65 218/301/65 179/238/65
f 194/240/73 192/302/73 221/241/73
f 8/243/74 198/303/74 230/244/74
f 219/248/75 208/304/75 211/249/75
f 205/253/76 203/305/76 202/254/76
f 195/257/77 200/306/65 223/258/71
f 186/260/79 184/307/79 32/261/79
f 176/263/1 177/308/1 27/264/1
f 10/266/80 7/309/80 24/267/80
f 20/269/49 18/310/81 214/270/81
f 217/272/82 222/311/82 16/273/82
f 228/275/83 30/312/83 31/276/83
f 22/278/84 220/313/91 216/279/67
f 17/281/85 19/314/85 35/282/85
f 5/284/86 226/315/86 33/285/87
f 15/287/88 21/316/88 20/288/49
f 6/290/33 226/317/86 5/291/86
