# Blender v2.72 (sub 0) OBJ File: 'radar1.blend'
# www.blender.org
mtllib radar1.mtl
o ColobotMesh_1_ColobotMesh_
v 2.990755 5.000000 2.990755
v 2.992317 4.991230 3.002924
v 3.002923 4.991230 2.992317
v 2.990665 4.999333 2.994724
v 2.990930 4.997432 2.998431
v 2.994724 4.999333 2.990665
v 2.994758 4.998527 2.994758
v 2.994775 4.996985 2.997787
v 2.997041 4.996294 2.997041
v 2.996167 4.991230 3.001908
v 2.999535 4.991230 2.999535
v 2.991510 4.994586 3.001310
v 2.995445 4.994670 3.000109
v 2.998230 4.994496 2.998230
v 3.001310 4.994586 2.991511
v 2.998430 4.997432 2.990931
v 3.001907 4.991230 2.996167
v 3.000109 4.994670 2.995445
v 2.997786 4.996985 2.994776
v 2.990755 5.000000 -2.990755
v 3.002923 4.991230 -2.992317
v 2.992317 4.991230 -3.002923
v 2.994724 4.999333 -2.990665
v 2.998430 4.997432 -2.990930
v 2.990665 4.999333 -2.994724
v 2.994758 4.998527 -2.994758
v 2.997786 4.996985 -2.994775
v 2.997041 4.996294 -2.997040
v 3.001907 4.991230 -2.996167
v 2.999535 4.991230 -2.999535
v 3.001310 4.994586 -2.991510
v 3.000109 4.994670 -2.995445
v 2.998230 4.994496 -2.998230
v 2.991510 4.994586 -3.001309
v 2.990930 4.997432 -2.998430
v 2.996167 4.991230 -3.001907
v 2.995445 4.994670 -3.000109
v 2.994775 4.996985 -2.997786
v -2.990755 5.000000 -2.990755
v -2.992317 4.991230 -3.002923
v -3.002923 4.991230 -2.992317
v -2.990665 4.999333 -2.994724
v -2.990930 4.997432 -2.998430
v -2.994724 4.999333 -2.990665
v -2.994758 4.998527 -2.994758
v -2.994775 4.996985 -2.997786
v -2.997041 4.996294 -2.997040
v -2.996167 4.991230 -3.001907
v -2.999535 4.991230 -2.999535
v -2.991510 4.994586 -3.001309
v -2.995445 4.994670 -3.000109
v -2.998230 4.994496 -2.998230
v -3.001310 4.994586 -2.991510
v -2.998430 4.997432 -2.990930
v -3.001907 4.991230 -2.996167
v -3.000109 4.994670 -2.995445
v -2.997786 4.996985 -2.994775
v -3.002923 4.991230 2.992317
v -2.992317 4.991230 3.002924
v -2.990755 5.000000 2.990755
v -3.001907 4.991230 2.996167
v -2.999535 4.991230 2.999535
v -3.001310 4.994586 2.991511
v -3.000109 4.994670 2.995445
v -2.998230 4.994495 2.998230
v -2.997041 4.996293 2.997041
v -2.991510 4.994586 3.001310
v -2.990930 4.997431 2.998431
v -2.996167 4.991230 3.001908
v -2.995445 4.994670 3.000109
v -2.994775 4.996985 2.997787
v -2.994724 4.999332 2.990665
v -2.998430 4.997431 2.990931
v -2.990665 4.999332 2.994724
v -2.994758 4.998527 2.994758
v -2.997786 4.996985 2.994776
v 4.989393 -1.000000 -5.000000
v 5.000000 -1.000000 -4.989393
v 4.993453 -1.000000 -4.999193
v 4.996893 -1.000000 -4.996893
v 4.999193 -1.000000 -4.993453
v -5.000000 -1.000000 -4.989393
v -4.989393 -1.000000 -5.000000
v -4.999193 -1.000000 -4.993453
v -4.996893 -1.000000 -4.996893
v -4.993453 -1.000000 -4.999193
v 5.000000 -1.000000 4.989393
v 4.989393 -1.000000 5.000000
v 4.999193 -1.000000 4.993453
v 4.996893 -1.000000 4.996893
v 4.993453 -1.000000 4.999193
v -4.989393 -1.000000 5.000000
v -5.000000 -1.000000 4.989393
v -4.993453 -1.000000 4.999193
v -4.996893 -1.000000 4.996893
v -4.999193 -1.000000 4.993453
vt 0.252140 0.997908
vt 0.372860 0.997908
vt 0.372860 0.908342
vt 0.372859 0.997968
vt 0.373002 0.997969
vt 0.373015 0.908339
vt 0.372942 0.908236
vt 0.372987 0.908247
vt 0.252140 0.908342
vt 0.252136 0.908227
vt 0.251998 0.908281
vt 0.252013 0.908247
vt 0.252059 0.997968
vt 0.251985 0.997911
vt 0.251998 0.997969
vt 0.373015 0.997911
vt 0.747786 0.314453
vt 0.698639 0.528983
vt 0.551361 0.528983
vt 0.502214 0.314453
vt 0.698734 0.528994
vt 0.698716 0.529124
vt 0.698619 0.529108
vt 0.698817 0.529019
vt 0.698784 0.529139
vt 0.698699 0.529224
vt 0.698605 0.529231
vt 0.698755 0.529209
vt 0.551266 0.528994
vt 0.551284 0.529124
vt 0.551381 0.529109
vt 0.551183 0.529019
vt 0.551216 0.529139
vt 0.551301 0.529224
vt 0.551395 0.529231
vt 0.551245 0.529209
vt 0.502114 0.314462
vt 0.502029 0.314486
vt 0.747971 0.314486
vt 0.747886 0.314462
vn 0.000000 1.000000 0.000000
vn 0.189100 0.967600 0.167100
vn 0.175900 0.880900 0.439400
vn 0.446400 0.878700 0.169400
vn 0.382700 0.840700 0.383100
vn 0.166900 0.967700 -0.188900
vn 0.439300 0.881000 -0.175800
vn 0.169200 0.878800 -0.446200
vn 0.382800 0.840700 -0.383000
vn -0.189200 0.967600 -0.167100
vn -0.175900 0.880900 -0.439400
vn -0.446400 0.878700 -0.169400
vn -0.382800 0.840700 -0.383000
vn -0.167000 0.967700 0.189100
vn -0.439300 0.881000 0.175900
vn -0.169300 0.878600 0.446600
vn -0.382800 0.841000 0.382400
vn -0.000000 0.986100 0.165900
vn -0.000000 0.889900 0.456300
vn 0.456400 0.889800 0.000000
vn 0.165700 0.986200 0.000000
vn 0.000000 0.889800 -0.456400
vn 0.000000 0.986100 -0.165900
vn -0.456400 0.889800 0.000000
vn -0.165900 0.986100 0.000000
vn 0.166900 0.967700 0.188800
vn 0.169300 0.878800 0.446100
vn 0.439300 0.881000 0.175800
vn 0.411700 0.813100 0.411500
vn 0.189200 0.967600 -0.167100
vn 0.446300 0.878700 -0.169400
vn 0.175900 0.880900 -0.439400
vn 0.411700 0.813100 -0.411500
vn -0.166900 0.967700 -0.188800
vn -0.169300 0.878800 -0.446100
vn -0.439300 0.881000 -0.175800
vn -0.411700 0.813100 -0.411500
vn -0.189100 0.967600 0.167100
vn -0.446400 0.878700 0.169000
vn -0.175900 0.881100 0.439100
vn -0.411600 0.813000 0.411800
vn -0.000000 0.889800 0.456400
vn 0.000000 0.889700 -0.456500
vn 0.000000 0.986200 -0.165600
vn -0.165700 0.986200 0.000000
vn -0.948700 0.316200 0.000000
vn 0.000000 0.316200 -0.948700
vn 0.948700 0.316200 0.000000
vn 0.245000 0.489100 0.837100
vn 0.509400 0.487100 0.709400
vn 0.194900 0.722200 0.663700
vn 0.408600 0.676000 0.613200
vn 0.837300 0.488800 0.245000
vn 0.663500 0.722300 0.195100
vn 0.709300 0.487200 0.509400
vn 0.613400 0.675900 0.408400
vn 0.837300 0.488800 -0.245000
vn 0.709300 0.487200 -0.509400
vn 0.663500 0.722300 -0.195100
vn 0.613400 0.676000 -0.408400
vn 0.245100 0.489100 -0.837100
vn 0.194900 0.722100 -0.663700
vn 0.509400 0.487100 -0.709400
vn 0.408300 0.676200 -0.613200
vn -0.245100 0.489100 -0.837100
vn -0.509300 0.487100 -0.709400
vn -0.194900 0.722200 -0.663700
vn -0.408400 0.676100 -0.613300
vn -0.837300 0.488800 -0.245000
vn -0.663500 0.722300 -0.195100
vn -0.709300 0.487200 -0.509400
vn -0.613300 0.676000 -0.408500
vn -0.837300 0.488800 0.245000
vn -0.709300 0.487200 0.509400
vn -0.663500 0.722300 0.195000
vn -0.613400 0.676000 0.408400
vn -0.244900 0.489000 0.837200
vn -0.194900 0.722300 0.663600
vn -0.509400 0.486900 0.709500
vn -0.408300 0.675600 0.613900
vn -0.000000 0.711200 0.703000
vn 0.000000 0.433400 0.901200
vn 0.901200 0.433400 0.000000
vn 0.702900 0.711300 0.000000
vn 0.000000 0.433400 -0.901200
vn 0.000000 0.711300 -0.702900
vn -0.901200 0.433400 0.000000
vn -0.702900 0.711300 0.000000
vn 0.913200 0.364900 -0.181600
vn 0.754600 0.419700 -0.504400
vn 0.504300 0.419700 -0.754600
vn 0.181500 0.364900 -0.913200
vn -0.181500 0.364900 -0.913200
vn -0.504300 0.419700 -0.754700
vn -0.754600 0.419700 -0.504400
vn -0.913100 0.365000 -0.181600
vn 0.895500 0.377200 0.236300
vn 0.741500 0.421300 0.522300
vn 0.522300 0.421300 0.741400
vn 0.236400 0.377300 0.895400
vn -0.913100 0.365000 0.181600
vn -0.754500 0.419800 0.504500
vn -0.504400 0.419700 0.754600
vn -0.181600 0.364900 0.913200
vn 0.000000 0.316200 0.948700
vn 0.225800 0.465600 0.855700
vn 0.505100 0.480600 0.716800
vn 0.189400 0.717200 0.670600
vn 0.429900 0.698500 0.572100
vn 0.855700 0.465700 0.225700
vn 0.670600 0.717300 0.189300
vn 0.716900 0.480500 0.505100
vn 0.572100 0.698500 0.429800
vn 0.855600 0.465700 -0.225700
vn 0.717000 0.480500 -0.505100
vn 0.670700 0.717200 -0.189300
vn 0.572200 0.698500 -0.429800
vn 0.225600 0.465600 -0.855700
vn 0.189300 0.717300 -0.670600
vn 0.505100 0.480600 -0.716800
vn 0.430000 0.698500 -0.572100
vn -0.225600 0.465600 -0.855700
vn -0.505100 0.480600 -0.716800
vn -0.189300 0.717300 -0.670600
vn -0.430000 0.698500 -0.572100
vn -0.855600 0.465700 -0.225700
vn -0.670700 0.717200 -0.189300
vn -0.717000 0.480500 -0.505100
vn -0.572200 0.698500 -0.429800
vn -0.855600 0.465800 0.225800
vn -0.717000 0.480600 0.505000
vn -0.670600 0.717300 0.189300
vn -0.572100 0.698500 0.429900
vn -0.225700 0.465800 0.855600
vn -0.189400 0.717100 0.670700
vn -0.505100 0.480600 0.716800
vn -0.430000 0.698600 0.571900
vn -0.000000 0.711300 0.702900
vn 0.901400 0.433000 0.000000
vn 0.000000 0.433200 -0.901300
vn -0.901400 0.433000 0.000000
vn 0.895500 0.377200 -0.236300
vn 0.741400 0.421300 -0.522300
vn 0.522400 0.421300 -0.741400
vn 0.236300 0.377300 -0.895400
vn -0.236300 0.377300 -0.895400
vn -0.522400 0.421300 -0.741400
vn -0.741400 0.421300 -0.522300
vn -0.895500 0.377200 -0.236300
vn 0.913100 0.365000 0.181600
vn 0.754500 0.419800 0.504500
vn 0.504400 0.419700 0.754600
vn 0.181600 0.364900 0.913200
vn -0.895500 0.377200 0.236300
vn -0.741500 0.421300 0.522300
vn -0.522300 0.421300 0.741400
vn -0.236300 0.377300 0.895400
usemtl ColobotMesh_mat_1
s off
f 60/1/1 1/2/1 20/3/1
f 1/2/2 4/4/2 7/4/2
f 4/4/3 5/4/3 8/4/3
f 6/2/4 7/4/4 19/5/4
f 8/4/5 9/5/5 19/5/5
f 20/3/6 23/3/6 26/3/6
f 23/3/7 24/6/7 27/6/7
f 25/3/8 26/3/8 38/7/8
f 27/6/9 28/8/9 38/7/9
f 39/9/10 42/9/10 45/9/10
f 42/9/11 43/10/11 46/10/11
f 44/9/12 45/9/12 57/11/12
f 46/10/13 47/12/13 57/11/13
f 60/1/14 72/1/14 75/13/14
f 72/1/15 73/14/15 76/15/15
f 74/13/16 75/13/16 71/13/16
f 76/15/17 66/15/17 71/13/17
f 60/1/18 74/13/18 4/4/18
f 4/4/19 74/13/19 68/13/19
f 24/6/20 23/3/20 6/2/20
f 23/3/21 20/3/21 1/2/21
f 43/10/22 42/9/22 25/3/22
f 42/9/23 39/9/23 20/3/23
f 73/14/24 72/1/24 44/9/24
f 44/9/25 72/1/25 60/1/25
f 39/9/1 60/1/1 20/3/1
f 6/2/26 1/2/26 7/4/26
f 7/4/27 4/4/27 8/4/27
f 16/16/28 6/2/28 19/5/28
f 7/4/29 8/4/29 19/5/29
f 25/3/30 20/3/30 26/3/30
f 26/3/31 23/3/31 27/6/31
f 35/7/32 25/3/32 38/7/32
f 26/3/33 27/6/33 38/7/33
f 44/9/34 39/9/34 45/9/34
f 45/9/35 42/9/35 46/10/35
f 54/11/36 44/9/36 57/11/36
f 45/9/37 46/10/37 57/11/37
f 74/13/38 60/1/38 75/13/38
f 75/13/39 72/1/39 76/15/39
f 68/13/40 74/13/40 71/13/40
f 75/13/41 76/15/41 71/13/41
f 1/2/18 60/1/18 4/4/18
f 5/4/42 4/4/42 68/13/42
f 16/16/20 24/6/20 6/2/20
f 6/2/21 23/3/21 1/2/21
f 35/7/43 43/10/43 25/3/43
f 25/3/44 42/9/44 20/3/44
f 54/11/24 73/14/24 44/9/24
f 39/9/45 44/9/45 60/1/45
usemtl ColobotMesh_mat_2
f 93/17/46 58/18/46 41/19/46
f 40/19/47 22/18/47 77/17/47
f 78/20/48 21/19/48 3/18/48
f 10/21/49 13/22/49 12/23/49
f 11/24/50 14/25/50 13/22/50
f 13/22/51 8/26/51 5/27/51
f 14/25/52 9/28/52 8/26/52
f 15/23/53 18/22/53 17/21/53
f 16/27/54 19/26/54 18/22/54
f 18/22/55 14/25/55 11/24/55
f 19/26/56 9/28/56 14/25/56
f 29/29/57 32/30/57 31/31/57
f 30/32/58 33/33/58 32/30/58
f 32/30/59 27/34/59 24/35/59
f 33/33/60 28/36/60 27/34/60
f 34/23/61 37/22/61 36/21/61
f 35/27/62 38/26/62 37/22/62
f 37/22/63 33/25/63 30/24/63
f 38/26/64 28/28/64 33/25/64
f 48/29/65 51/30/65 50/31/65
f 49/32/66 52/33/66 51/30/66
f 51/30/67 46/34/67 43/35/67
f 52/33/68 47/36/68 46/34/68
f 53/31/69 56/30/69 55/29/69
f 54/35/70 57/34/70 56/30/70
f 56/30/71 52/33/71 49/32/71
f 57/34/72 47/36/72 52/33/72
f 61/21/73 64/22/73 63/23/73
f 62/24/74 65/25/74 64/22/74
f 64/22/75 76/26/75 73/27/75
f 65/25/76 66/28/76 76/26/76
f 67/31/77 70/30/77 69/29/77
f 68/35/78 71/34/78 70/30/78
f 70/30/79 65/33/79 62/32/79
f 71/34/80 66/36/80 65/33/80
f 68/35/81 67/31/81 12/23/81
f 67/31/82 59/19/82 2/18/82
f 21/19/83 31/31/83 15/23/83
f 31/31/84 24/35/84 16/27/84
f 40/19/85 50/31/85 34/23/85
f 50/31/86 43/35/86 35/27/86
f 58/18/87 63/23/87 53/31/87
f 63/23/88 73/27/88 54/35/88
f 21/19/89 78/20/89 81/37/89
f 29/29/90 81/37/90 80/38/90
f 80/39/91 79/40/91 36/21/91
f 79/40/92 77/17/92 22/18/92
f 40/19/93 83/20/93 86/37/93
f 48/29/94 86/37/94 85/38/94
f 85/38/95 84/37/95 55/29/95
f 84/37/96 82/20/96 41/19/96
f 3/18/97 17/21/97 89/40/97
f 17/21/98 11/24/98 90/39/98
f 90/39/99 11/24/99 10/21/99
f 91/40/100 10/21/100 2/18/100
f 58/18/101 93/17/101 96/40/101
f 61/21/102 96/40/102 95/39/102
f 95/38/103 94/37/103 69/29/103
f 94/37/104 92/20/104 59/19/104
f 2/18/105 59/19/105 92/20/105
f 82/20/46 93/17/46 41/19/46
f 83/20/47 40/19/47 77/17/47
f 87/17/48 78/20/48 3/18/48
f 2/18/106 10/21/106 12/23/106
f 10/21/107 11/24/107 13/22/107
f 12/23/108 13/22/108 5/27/108
f 13/22/109 14/25/109 8/26/109
f 3/18/110 15/23/110 17/21/110
f 15/23/111 16/27/111 18/22/111
f 17/21/112 18/22/112 11/24/112
f 18/22/113 19/26/113 14/25/113
f 21/19/114 29/29/114 31/31/114
f 29/29/115 30/32/115 32/30/115
f 31/31/116 32/30/116 24/35/116
f 32/30/117 33/33/117 27/34/117
f 22/18/118 34/23/118 36/21/118
f 34/23/119 35/27/119 37/22/119
f 36/21/120 37/22/120 30/24/120
f 37/22/121 38/26/121 33/25/121
f 40/19/122 48/29/122 50/31/122
f 48/29/123 49/32/123 51/30/123
f 50/31/124 51/30/124 43/35/124
f 51/30/125 52/33/125 46/34/125
f 41/19/126 53/31/126 55/29/126
f 53/31/127 54/35/127 56/30/127
f 55/29/128 56/30/128 49/32/128
f 56/30/129 57/34/129 52/33/129
f 58/18/130 61/21/130 63/23/130
f 61/21/131 62/24/131 64/22/131
f 63/23/132 64/22/132 73/27/132
f 64/22/133 65/25/133 76/26/133
f 59/19/134 67/31/134 69/29/134
f 67/31/135 68/35/135 70/30/135
f 69/29/136 70/30/136 62/32/136
f 70/30/137 71/34/137 65/33/137
f 5/27/138 68/35/138 12/23/138
f 12/23/82 67/31/82 2/18/82
f 3/18/139 21/19/139 15/23/139
f 15/23/84 31/31/84 16/27/84
f 22/18/140 40/19/140 34/23/140
f 34/23/86 50/31/86 35/27/86
f 41/19/141 58/18/141 53/31/141
f 53/31/88 63/23/88 54/35/88
f 29/29/142 21/19/142 81/37/142
f 30/32/143 29/29/143 80/38/143
f 30/24/144 80/39/144 36/21/144
f 36/21/145 79/40/145 22/18/145
f 48/29/146 40/19/146 86/37/146
f 49/32/147 48/29/147 85/38/147
f 49/32/148 85/38/148 55/29/148
f 55/29/149 84/37/149 41/19/149
f 87/17/150 3/18/150 89/40/150
f 89/40/151 17/21/151 90/39/151
f 91/40/152 90/39/152 10/21/152
f 88/17/153 91/40/153 2/18/153
f 61/21/154 58/18/154 96/40/154
f 62/24/155 61/21/155 95/39/155
f 62/32/156 95/38/156 69/29/156
f 69/29/157 94/37/157 59/19/157
f 88/17/105 2/18/105 92/20/105
