# Blender v2.77 (sub 0) OBJ File: 'roller3c.blend'
# www.blender.org
mtllib roller3c.mtl
o ColobotMesh_1_ColobotMesh_
v -2.016510 0.003054 -2.999996
v -2.016510 0.297105 -2.985550
v -2.016510 0.588324 -2.942352
v -2.016510 0.873907 -2.870817
v -2.016510 1.151103 -2.771635
v -2.016510 1.417242 -2.645760
v -2.016510 1.669762 -2.494405
v -2.016510 1.906231 -2.319028
v -2.016510 2.124371 -2.121318
v -2.016510 2.322082 -1.903178
v -2.016510 2.497459 -1.666709
v -2.016510 2.648814 -1.414189
v -2.016510 2.774688 -1.148049
v -2.016510 2.873871 -0.870853
v -2.016510 2.945406 -0.585270
v -2.016510 2.988604 -0.294051
v -2.016510 3.003050 -0.000000
v -2.016510 2.988604 0.294051
v -2.016510 2.945405 0.585270
v -2.016510 2.873871 0.870853
v -2.016510 2.774688 1.148049
v -2.016510 2.648813 1.414188
v -2.016510 2.497459 1.666708
v -2.016510 2.322081 1.903177
v -2.016510 2.124371 2.121317
v -2.016510 1.906230 2.319028
v -2.016510 1.669761 2.494406
v -2.016510 1.417241 2.645760
v -2.016510 1.151101 2.771635
v -2.016510 0.873905 2.870817
v -2.016510 0.588322 2.942351
v -2.016510 0.297103 2.985549
v -2.016510 0.003052 2.999995
v -2.016510 -0.290999 2.985549
v -2.016510 -0.582218 2.942351
v -2.016510 -0.867801 2.870815
v -2.016510 -1.144997 2.771633
v -2.016510 -1.411137 2.645758
v -2.016510 -1.663656 2.494403
v -2.016510 -1.900125 2.319025
v -2.016510 -2.118265 2.121314
v -2.016510 -2.315975 1.903174
v -2.016510 -2.491352 1.666705
v -2.016510 -2.642706 1.414186
v -2.016510 -2.768581 1.148047
v -2.016510 -2.867762 0.870852
v -2.016510 -2.939297 0.585270
v -2.016510 -2.982495 0.294051
v -2.016510 -2.996941 0.000001
v -2.016510 -2.982496 -0.294050
v -2.016510 -2.939298 -0.585268
v -2.016510 -2.867763 -0.870850
v -2.016510 -2.768582 -1.148046
v -2.016510 -2.642708 -1.414185
v -2.016510 -2.491354 -1.666705
v -2.016510 -2.315977 -1.903173
v -2.016510 -2.118267 -2.121313
v -2.016510 -1.900128 -2.319024
v -2.016510 -1.663660 -2.494401
v -2.016510 -1.411141 -2.645756
v -2.016510 -1.145002 -2.771631
v -2.016510 -0.867807 -2.870814
v -2.016510 -0.582225 -2.942350
v -2.016510 -0.291007 -2.985549
v 0.993617 0.003054 -2.999996
v 0.993617 0.297105 -2.985550
v 0.993617 0.588324 -2.942352
v 0.993617 0.873907 -2.870817
v 0.993617 1.151103 -2.771635
v 0.993617 1.417242 -2.645760
v 0.993617 1.669762 -2.494405
v 0.993617 1.906231 -2.319028
v 0.993617 2.124371 -2.121318
v 0.993617 2.322082 -1.903178
v 0.993617 2.497459 -1.666709
v 0.993617 2.648814 -1.414189
v 0.993617 2.774688 -1.148049
v 0.993617 2.873871 -0.870853
v 0.993617 2.945406 -0.585270
v 0.993617 2.988604 -0.294051
v 0.993617 3.003050 -0.000000
v 0.993617 2.988604 0.294051
v 0.993617 2.945405 0.585270
v 0.993617 2.873871 0.870853
v 0.993617 2.774688 1.148049
v 0.993617 2.648813 1.414188
v 0.993617 2.497459 1.666708
v 0.993617 2.322081 1.903177
v 0.993617 2.124371 2.121317
v 0.993617 1.906230 2.319028
v 0.993617 1.669761 2.494406
v 0.993617 1.417241 2.645760
v 0.993617 1.151101 2.771635
v 0.993617 0.873905 2.870817
v 0.993617 0.588322 2.942351
v 0.993617 0.297103 2.985549
v 0.993617 0.003052 2.999995
v 0.993617 -0.290999 2.985549
v 0.993617 -0.582218 2.942351
v 0.993617 -0.867801 2.870815
v 0.993617 -1.144997 2.771633
v 0.993617 -1.411137 2.645758
v 0.993617 -1.663656 2.494403
v 0.993617 -1.900125 2.319025
v 0.993617 -2.118265 2.121314
v 0.993617 -2.315975 1.903174
v 0.993617 -2.491352 1.666705
v 0.993617 -2.642706 1.414186
v 0.993617 -2.768581 1.148047
v 0.993617 -2.867762 0.870852
v 0.993617 -2.939297 0.585270
v 0.993617 -2.982495 0.294051
v 0.993617 -2.996941 0.000001
v 0.993617 -2.982496 -0.294050
v 0.993617 -2.939298 -0.585268
v 0.993617 -2.867763 -0.870850
v 0.993617 -2.768582 -1.148046
v 0.993617 -2.642708 -1.414185
v 0.993617 -2.491354 -1.666705
v 0.993617 -2.315977 -1.903173
v 0.993617 -2.118267 -2.121313
v 0.993617 -1.900128 -2.319024
v 0.993617 -1.663660 -2.494401
v 0.993617 -1.411141 -2.645756
v 0.993617 -1.145002 -2.771631
v 0.993617 -0.867807 -2.870814
v 0.993617 -0.582225 -2.942350
v 0.993617 -0.291007 -2.985549
v 2.947170 0.003052 0.000000
v -2.016510 0.003052 0.000000
vt 0.9751 0.4592
vt 0.9736 0.4690
vt 0.8750 0.4492
vt 0.8364 0.5421
vt 0.8275 0.5379
vt 0.9528 0.3855
vt 0.9587 0.3934
vt 0.9460 0.5204
vt 0.9387 0.5271
vt 0.7788 0.4199
vt 0.7821 0.4106
vt 0.8277 0.3604
vt 0.8366 0.3562
vt 0.7820 0.4876
vt 0.7787 0.4783
vt 0.8948 0.3506
vt 0.9043 0.3530
vt 0.7863 0.4017
vt 0.7914 0.3932
vt 0.8190 0.5328
vt 0.8111 0.5269
vt 0.9308 0.5329
vt 0.9223 0.5380
vt 0.9638 0.4019
vt 0.8459 0.3529
vt 0.8555 0.3505
vt 0.9136 0.3563
vt 0.7763 0.4687
vt 0.9225 0.3606
vt 0.7749 0.4590
vt 0.9712 0.4785
vt 0.9679 0.4878
vt 0.9680 0.4108
vt 0.9713 0.4201
vt 0.8038 0.5203
vt 0.7973 0.3853
vt 0.9134 0.5422
vt 0.9310 0.3656
vt 0.8749 0.5498
vt 0.8650 0.5493
vt 0.7744 0.4491
vt 0.9637 0.4968
vt 0.8847 0.5493
vt 0.8192 0.3655
vt 0.7862 0.4965
vt 0.9756 0.4493
vt 0.8850 0.3491
vt 0.9527 0.5131
vt 0.7764 0.4295
vt 0.8457 0.5454
vt 0.9462 0.3782
vt 0.8945 0.5479
vt 0.8113 0.3714
vt 0.7913 0.5050
vt 0.9751 0.4395
vt 0.8751 0.3486
vt 0.9586 0.5052
vt 0.7749 0.4392
vt 0.8552 0.5479
vt 0.9389 0.3715
vt 0.9041 0.5455
vt 0.8040 0.3780
vt 0.7972 0.5129
vt 0.9737 0.4297
vt 0.8653 0.3491
vt 0.7520 0.3223
vt 0.9355 0.3208
vt 0.9355 0.3223
vt 0.7520 0.3149
vt 0.9355 0.3135
vt 0.9355 0.3149
vt 0.7520 0.3135
vt 0.9355 0.3120
vt 0.9355 0.3135
vt 0.7520 0.3208
vt 0.9355 0.3193
vt 0.9355 0.3208
vt 0.7520 0.3149
vt 0.9355 0.3135
vt 0.9355 0.3149
vt 0.7520 0.3223
vt 0.9355 0.3208
vt 0.9355 0.3223
vt 0.7520 0.3120
vt 0.9355 0.3105
vt 0.9355 0.3120
vt 0.7520 0.3208
vt 0.9355 0.3193
vt 0.7520 0.3120
vt 0.9355 0.3105
vt 0.9355 0.3120
vt 0.7520 0.3135
vt 0.7520 0.3223
vt 0.9355 0.3208
vt 0.9355 0.3223
vt 0.7520 0.3135
vt 0.9355 0.3120
vt 0.9355 0.3135
vt 0.7520 0.3193
vt 0.9355 0.3179
vt 0.7520 0.3135
vt 0.9355 0.3120
vt 0.7520 0.3149
vt 0.9355 0.3135
vt 0.9355 0.3149
vt 0.7520 0.3208
vt 0.9355 0.3193
vt 0.7520 0.3120
vt 0.9355 0.3105
vt 0.9355 0.3120
vt 0.7520 0.3193
vt 0.9355 0.3179
vt 0.7520 0.3135
vt 0.9355 0.3120
vt 0.7520 0.3208
vt 0.9355 0.3193
vt 0.7520 0.3179
vt 0.9355 0.3164
vt 0.7520 0.3223
vt 0.9355 0.3208
vt 0.9355 0.3223
vt 0.7520 0.3120
vt 0.9355 0.3105
vt 0.7520 0.3193
vt 0.9355 0.3179
vt 0.7520 0.3208
vt 0.9355 0.3193
vt 0.9355 0.3208
vt 0.7520 0.3120
vt 0.9355 0.3105
vt 0.7520 0.3223
vt 0.9355 0.3208
vt 0.9355 0.3223
vt 0.7520 0.3120
vt 0.9355 0.3105
vt 0.7520 0.3193
vt 0.9355 0.3179
vt 0.7520 0.3164
vt 0.9355 0.3149
vt 0.7520 0.3208
vt 0.9355 0.3193
vt 0.7520 0.3223
vt 0.9355 0.3208
vt 0.9355 0.3223
vt 0.7520 0.3179
vt 0.9355 0.3164
vt 0.7520 0.3193
vt 0.9355 0.3179
vt 0.7520 0.3164
vt 0.9355 0.3149
vt 0.9355 0.3164
vt 0.7520 0.3208
vt 0.9355 0.3193
vt 0.7520 0.3179
vt 0.9355 0.3164
vt 0.7520 0.3149
vt 0.9355 0.3135
vt 0.7520 0.3193
vt 0.9355 0.3179
vt 0.7520 0.3208
vt 0.9355 0.3193
vt 0.7520 0.3164
vt 0.9355 0.3149
vt 0.7520 0.3179
vt 0.9355 0.3164
vt 0.7520 0.3149
vt 0.7520 0.3193
vt 0.9355 0.3179
vt 0.7520 0.3164
vt 0.9355 0.3149
vt 0.7520 0.3135
vt 0.9355 0.3120
vt 0.7520 0.3179
vt 0.9355 0.3164
vt 0.7520 0.3193
vt 0.9355 0.3179
vt 0.7520 0.3149
vt 0.9355 0.3135
vt 0.7520 0.3223
vt 0.9355 0.3223
vt 0.7520 0.3164
vt 0.9355 0.3149
vt 0.7520 0.3179
vt 0.9355 0.3164
vt 0.7520 0.3149
vt 0.9355 0.3135
vt 0.7520 0.3120
vt 0.9355 0.3105
vt 0.7520 0.3164
vt 0.7520 0.3179
vt 0.9355 0.3164
vt 0.7520 0.3135
vt 0.7520 0.3223
vt 0.9355 0.3223
vt 0.7520 0.3149
vt 0.7520 0.3164
vt 0.7520 0.3120
vt 0.9355 0.3105
vt 0.7520 0.3135
vt 0.7520 0.3179
vt 0.1702 0.7284
vt 0.1711 0.7226
vt 0.2305 0.7344
vt 0.2590 0.7878
vt 0.2536 0.7903
vt 0.2305 0.6738
vt 0.2364 0.6741
vt 0.2907 0.7284
vt 0.2910 0.7344
vt 0.1801 0.7680
vt 0.1771 0.7629
vt 0.2864 0.7575
vt 0.2839 0.7629
vt 0.1921 0.6876
vt 0.1968 0.6840
vt 0.2733 0.6916
vt 0.2773 0.6960
vt 0.2129 0.7923
vt 0.2073 0.7903
vt 0.1725 0.7168
vt 0.2480 0.7923
vt 0.2423 0.6750
vt 0.1745 0.7575
vt 0.2019 0.6810
vt 0.2808 0.7680
vt 0.2808 0.7007
vt 0.2019 0.7878
vt 0.1745 0.7112
vt 0.2423 0.7938
vt 0.2480 0.6764
vt 0.1725 0.7520
vt 0.2773 0.7728
vt 0.2073 0.6784
vt 0.2839 0.7058
vt 0.1968 0.7847
vt 0.1771 0.7058
vt 0.2364 0.7946
vt 0.2536 0.6784
vt 0.1711 0.7462
vt 0.2733 0.7772
vt 0.2129 0.6764
vt 0.2864 0.7112
vt 0.1921 0.7812
vt 0.2907 0.7403
vt 0.1801 0.7007
vt 0.2590 0.6810
vt 0.2305 0.7949
vt 0.1702 0.7403
vt 0.2689 0.7812
vt 0.2187 0.6750
vt 0.2884 0.7168
vt 0.1877 0.7772
vt 0.2899 0.7462
vt 0.1837 0.6960
vt 0.2641 0.6840
vt 0.2245 0.7946
vt 0.1699 0.7344
vt 0.2641 0.7847
vt 0.2245 0.6741
vt 0.2899 0.7226
vt 0.1837 0.7728
vt 0.2884 0.7520
vt 0.1877 0.6916
vt 0.2689 0.6876
vt 0.2187 0.7938
vt 0.7520 0.3164
vt 0.7520 0.3105
vt 0.7520 0.3105
vt 0.7520 0.3105
vt 0.7520 0.3105
vt 0.7520 0.3105
vt 0.7520 0.3105
vt 0.7520 0.3105
vt 0.7520 0.3105
vn -1.0000 0.0000 0.0000
vn -0.6962 0.5076 -0.5076
vn 0.4705 0.6821 -0.5598
vn 0.4705 0.6240 -0.6240
vn -0.6962 -0.6869 0.2083
vn 0.4705 -0.8654 0.1721
vn 0.4705 -0.8444 0.2561
vn -0.6962 -0.3988 0.5968
vn 0.4705 -0.5598 0.6821
vn 0.4705 -0.4902 0.7337
vn -0.6962 0.0703 -0.7143
vn 0.4705 0.1721 -0.8654
vn 0.4705 0.0865 -0.8781
vn -0.6962 -0.6330 -0.3384
vn 0.4705 -0.7337 -0.4902
vn 0.4705 -0.7782 -0.4159
vn -0.6962 0.7178 0.0000
vn 0.4705 0.8781 0.0865
vn 0.4705 0.8824 0.0000
vn -0.6962 0.0703 0.7143
vn 0.4705 0.0000 0.8824
vn 0.4705 0.0865 0.8781
vn -0.6962 0.5549 -0.4554
vn 0.4705 0.7337 -0.4902
vn -0.6962 -0.7143 0.0703
vn 0.4705 -0.8824 0.0000
vn 0.4705 -0.8781 0.0865
vn -0.6962 -0.7040 0.1400
vn -0.6962 0.5076 0.5076
vn 0.4705 0.5598 0.6821
vn 0.4705 0.6240 0.6240
vn -0.6962 0.7040 -0.1400
vn 0.4705 0.8781 -0.0865
vn 0.4705 0.8654 -0.1721
vn -0.6962 0.1400 -0.7040
vn 0.4705 0.2561 -0.8444
vn -0.6962 -0.5968 -0.3988
vn 0.4705 -0.6821 -0.5598
vn -0.6962 -0.2083 -0.6869
vn 0.4705 -0.1721 -0.8654
vn 0.4705 -0.2561 -0.8444
vn -0.6962 0.7143 0.0703
vn 0.4705 0.8654 0.1721
vn -0.6962 0.5549 0.4554
vn 0.4705 0.6821 0.5598
vn -0.6962 0.5968 -0.3988
vn 0.4705 0.7782 -0.4159
vn -0.6962 -0.1400 -0.7040
vn 0.4705 -0.0865 -0.8781
vn -0.6962 0.4554 0.5549
vn 0.4705 0.4902 0.7337
vn -0.6962 0.2083 -0.6869
vn 0.4705 0.3377 -0.8152
vn -0.6962 -0.5076 0.5076
vn 0.4705 -0.6821 0.5598
vn 0.4705 -0.6240 0.6240
vn -0.6962 -0.5549 -0.4554
vn 0.4705 -0.6240 -0.6240
vn -0.6962 0.7040 0.1400
vn 0.4705 0.8444 0.2561
vn -0.6962 -0.0703 0.7143
vn 0.4705 -0.1721 0.8654
vn 0.4705 -0.0865 0.8781
vn -0.6962 -0.4554 0.5549
vn -0.6962 -0.7178 0.0000
vn 0.4705 -0.8781 -0.0865
vn -0.6962 -0.0703 -0.7143
vn 0.4705 0.0000 -0.8824
vn -0.6962 0.3988 0.5968
vn 0.4705 0.4159 0.7782
vn -0.6962 0.2747 -0.6632
vn 0.4705 0.4159 -0.7782
vn -0.6962 -0.5549 0.4554
vn 0.4705 -0.7337 0.4902
vn -0.6962 -0.5076 -0.5076
vn 0.4705 -0.5598 -0.6821
vn -0.6962 0.6869 0.2083
vn 0.4705 0.8152 0.3377
vn -0.6962 -0.1400 0.7040
vn 0.4705 -0.2561 0.8444
vn -0.6962 0.6632 -0.2747
vn 0.4705 0.8444 -0.2561
vn 0.4705 0.8152 -0.3377
vn -0.6962 -0.7143 -0.0703
vn 0.4705 -0.8654 -0.1721
vn -0.6962 0.3384 0.6330
vn 0.4705 0.3377 0.8152
vn -0.6962 0.3384 -0.6330
vn 0.4705 0.4902 -0.7337
vn -0.6962 -0.5968 0.3988
vn 0.4705 -0.7782 0.4159
vn -0.6962 -0.4554 -0.5549
vn 0.4705 -0.4902 -0.7337
vn -0.6962 0.6632 0.2747
vn 0.4705 0.7782 0.4159
vn -0.6962 -0.2083 0.6869
vn 0.4705 -0.3377 0.8152
vn -0.6962 0.6869 -0.2083
vn -0.6962 -0.7040 -0.1400
vn 0.4705 -0.8444 -0.2561
vn -0.6962 0.2747 0.6632
vn 0.4705 0.2561 0.8444
vn -0.6962 0.3988 -0.5968
vn 0.4705 0.5598 -0.6821
vn -0.6962 -0.6330 0.3384
vn 0.4705 -0.8152 0.3377
vn -0.6962 -0.3988 -0.5968
vn 0.4705 -0.4160 -0.7782
vn -0.6962 0.6330 0.3384
vn 0.4705 0.7337 0.4902
vn -0.6962 0.0000 0.7178
vn -0.6962 -0.2747 0.6632
vn 0.4705 -0.4159 0.7782
vn -0.6962 -0.6869 -0.2083
vn 0.4705 -0.8152 -0.3377
vn -0.6962 0.2083 0.6869
vn 0.4705 0.1721 0.8654
vn -0.6962 0.4554 -0.5549
vn -0.6962 -0.6632 0.2747
vn -0.6962 -0.3384 -0.6330
vn 0.4705 -0.3377 -0.8152
vn -0.6962 0.5968 0.3988
vn -0.6962 0.0000 -0.7178
vn -0.6962 -0.3384 0.6330
vn -0.6962 -0.6632 -0.2747
vn -0.6962 0.7143 -0.0703
vn -0.6962 0.1400 0.7040
vn -0.6962 0.6330 -0.3384
vn 1.0000 0.0000 0.0000
vn -0.6962 -0.2747 -0.6632
usemtl ColobotMesh_mat_1
s off
f 16/1/1 15/2/1 130/3/1
f 61/4/1 60/5/1 130/3/1
f 24/6/1 23/7/1 130/3/1
f 9/8/1 8/9/1 130/3/1
f 46/10/1 45/11/1 130/3/1
f 38/12/1 37/13/1 130/3/1
f 53/14/1 52/15/1 130/3/1
f 31/16/1 30/17/1 130/3/1
f 44/18/1 43/19/1 130/3/1
f 59/20/1 58/21/1 130/3/1
f 7/22/1 6/23/1 130/3/1
f 8/9/1 7/22/1 130/3/1
f 60/5/1 59/20/1 130/3/1
f 23/7/1 22/24/1 130/3/1
f 36/25/1 35/26/1 130/3/1
f 30/17/1 29/27/1 130/3/1
f 52/15/1 51/28/1 130/3/1
f 45/11/1 44/18/1 130/3/1
f 29/27/1 28/29/1 130/3/1
f 51/28/1 50/30/1 130/3/1
f 14/31/1 13/32/1 130/3/1
f 37/13/1 36/25/1 130/3/1
f 15/2/1 14/31/1 130/3/1
f 22/24/1 21/33/1 130/3/1
f 21/33/1 20/34/1 130/3/1
f 58/21/1 57/35/1 130/3/1
f 43/19/1 42/36/1 130/3/1
f 6/23/1 5/37/1 130/3/1
f 28/29/1 27/38/1 130/3/1
f 1/39/1 64/40/1 130/3/1
f 50/30/1 49/41/1 130/3/1
f 13/32/1 12/42/1 130/3/1
f 2/43/1 1/39/1 130/3/1
f 39/44/1 38/12/1 130/3/1
f 54/45/1 53/14/1 130/3/1
f 17/46/1 16/1/1 130/3/1
f 32/47/1 31/16/1 130/3/1
f 10/48/1 9/8/1 130/3/1
f 47/49/1 46/10/1 130/3/1
f 62/50/1 61/4/1 130/3/1
f 25/51/1 24/6/1 130/3/1
f 3/52/1 2/43/1 130/3/1
f 40/53/1 39/44/1 130/3/1
f 55/54/1 54/45/1 130/3/1
f 18/55/1 17/46/1 130/3/1
f 33/56/1 32/47/1 130/3/1
f 11/57/1 10/48/1 130/3/1
f 48/58/1 47/49/1 130/3/1
f 63/59/1 62/50/1 130/3/1
f 26/60/1 25/51/1 130/3/1
f 4/61/1 3/52/1 130/3/1
f 41/62/1 40/53/1 130/3/1
f 56/63/1 55/54/1 130/3/1
f 19/64/1 18/55/1 130/3/1
f 34/65/1 33/56/1 130/3/1
f 12/42/1 11/57/1 130/3/1
f 49/41/1 48/58/1 130/3/1
f 64/40/1 63/59/1 130/3/1
f 27/38/1 26/60/1 130/3/1
f 5/37/1 4/61/1 130/3/1
f 42/36/1 41/62/1 130/3/1
f 57/35/1 56/63/1 130/3/1
f 20/34/1 19/64/1 130/3/1
f 35/26/1 34/65/1 130/3/1
s 1
f 9/66/2 74/67/3 73/68/4
f 46/69/5 111/70/6 110/71/7
f 39/72/8 104/73/9 103/74/10
f 2/75/11 67/76/12 66/77/13
f 54/78/14 119/79/15 118/80/16
f 17/81/17 82/82/18 81/83/19
f 32/84/20 97/85/21 96/86/22
f 10/87/23 75/88/24 74/67/3
f 48/89/25 113/90/26 112/91/27
f 47/92/28 112/91/27 111/70/6
f 25/93/29 90/94/30 89/95/31
f 15/96/32 80/97/33 79/98/34
f 3/99/35 68/100/36 67/76/12
f 55/101/37 120/102/38 119/79/15
f 62/103/39 127/104/40 126/105/41
f 18/106/42 83/107/43 82/82/18
f 24/108/44 89/109/31 88/110/45
f 11/111/46 76/112/47 75/88/24
f 63/113/48 128/114/49 127/104/40
f 26/115/50 91/116/51 90/94/30
f 4/117/52 69/118/53 68/100/36
f 41/119/54 106/120/55 105/121/56
f 56/122/57 121/123/58 120/102/38
f 19/124/59 84/125/60 83/107/43
f 34/126/61 99/127/62 98/128/63
f 40/129/64 105/130/56 104/73/9
f 49/131/65 114/132/66 113/133/26
f 64/134/67 65/135/68 128/114/49
f 27/136/69 92/137/70 91/116/51
f 5/138/71 70/139/72 69/118/53
f 42/140/73 107/141/74 106/120/55
f 57/142/75 122/143/76 121/144/58
f 20/145/77 85/146/78 84/125/60
f 35/147/79 100/148/80 99/127/62
f 13/149/81 78/150/82 77/151/83
f 50/152/84 115/153/85 114/132/66
f 28/154/86 93/155/87 92/137/70
f 6/156/88 71/157/89 70/139/72
f 43/158/90 108/159/91 107/141/74
f 58/160/92 123/161/93 122/143/76
f 21/162/94 86/163/95 85/146/78
f 36/164/96 101/165/97 100/148/80
f 14/166/98 79/98/34 78/150/82
f 51/167/99 116/168/100 115/153/85
f 29/169/101 94/170/102 93/155/87
f 7/171/103 72/172/104 71/157/89
f 44/173/105 109/174/106 108/159/91
f 59/175/107 124/176/108 123/161/93
f 22/177/109 87/178/110 86/163/95
f 33/179/111 98/128/63 97/180/21
f 37/181/112 102/182/113 101/165/97
f 52/183/114 117/184/115 116/168/100
f 30/185/116 95/186/117 94/170/102
f 8/187/118 73/188/4 72/172/104
f 45/189/119 110/71/7 109/174/106
f 60/190/120 125/191/121 124/176/108
f 23/192/122 88/110/45 87/178/110
f 1/193/123 66/77/13 65/194/68
f 38/195/124 103/74/10 102/182/113
f 53/196/125 118/80/16 117/184/115
f 16/197/126 81/198/19 80/97/33
f 31/199/127 96/86/22 95/186/117
f 12/200/128 77/151/83 76/112/47
f 98/201/63 99/202/62 129/203/129
f 76/204/47 77/205/83 129/203/129
f 113/206/26 114/207/66 129/203/129
f 128/208/49 65/209/68 129/203/129
f 91/210/51 92/211/70 129/203/129
f 69/212/53 70/213/72 129/203/129
f 106/214/55 107/215/74 129/203/129
f 121/216/58 122/217/76 129/203/129
f 84/218/60 85/219/78 129/203/129
f 99/202/62 100/220/80 129/203/129
f 77/205/83 78/221/82 129/203/129
f 114/207/66 115/222/85 129/203/129
f 92/211/70 93/223/87 129/203/129
f 107/215/74 108/224/91 129/203/129
f 70/213/72 71/225/89 129/203/129
f 122/217/76 123/226/93 129/203/129
f 85/219/78 86/227/95 129/203/129
f 100/220/80 101/228/97 129/203/129
f 78/221/82 79/229/34 129/203/129
f 115/222/85 116/230/100 129/203/129
f 93/223/87 94/231/102 129/203/129
f 71/225/89 72/232/104 129/203/129
f 108/224/91 109/233/106 129/203/129
f 123/226/93 124/234/108 129/203/129
f 86/227/95 87/235/110 129/203/129
f 101/228/97 102/236/113 129/203/129
f 79/229/34 80/237/33 129/203/129
f 116/230/100 117/238/115 129/203/129
f 94/231/102 95/239/117 129/203/129
f 72/232/104 73/240/4 129/203/129
f 109/233/106 110/241/7 129/203/129
f 124/234/108 125/242/121 129/203/129
f 87/235/110 88/243/45 129/203/129
f 65/209/68 66/244/13 129/203/129
f 102/236/113 103/245/10 129/203/129
f 117/238/115 118/246/16 129/203/129
f 80/237/33 81/247/19 129/203/129
f 95/239/117 96/248/22 129/203/129
f 73/240/4 74/249/3 129/203/129
f 110/241/7 111/250/6 129/203/129
f 125/242/121 126/251/41 129/203/129
f 88/243/45 89/252/31 129/203/129
f 66/244/13 67/253/12 129/203/129
f 103/245/10 104/254/9 129/203/129
f 118/246/16 119/255/15 129/203/129
f 81/247/19 82/256/18 129/203/129
f 96/248/22 97/257/21 129/203/129
f 74/249/3 75/258/24 129/203/129
f 111/250/6 112/259/27 129/203/129
f 126/251/41 127/260/40 129/203/129
f 89/252/31 90/261/30 129/203/129
f 67/253/12 68/262/36 129/203/129
f 104/254/9 105/263/56 129/203/129
f 119/255/15 120/264/38 129/203/129
f 82/256/18 83/265/43 129/203/129
f 97/257/21 98/201/63 129/203/129
f 75/258/24 76/204/47 129/203/129
f 112/259/27 113/206/26 129/203/129
f 127/260/40 128/208/49 129/203/129
f 90/261/30 91/210/51 129/203/129
f 68/262/36 69/212/53 129/203/129
f 105/263/56 106/214/55 129/203/129
f 120/264/38 121/216/58 129/203/129
f 83/265/43 84/218/60 129/203/129
f 61/266/130 126/105/41 125/191/121
f 9/66/2 10/87/23 74/67/3
f 46/69/5 47/92/28 111/70/6
f 39/72/8 40/129/64 104/73/9
f 2/75/11 3/99/35 67/76/12
f 54/78/14 55/101/37 119/79/15
f 17/81/17 18/106/42 82/82/18
f 32/84/20 33/267/111 97/85/21
f 10/87/23 11/111/46 75/88/24
f 48/89/25 49/268/65 113/90/26
f 47/92/28 48/89/25 112/91/27
f 25/93/29 26/115/50 90/94/30
f 15/96/32 16/197/126 80/97/33
f 3/99/35 4/117/52 68/100/36
f 55/101/37 56/122/57 120/102/38
f 62/103/39 63/113/48 127/104/40
f 18/106/42 19/124/59 83/107/43
f 24/108/44 25/269/29 89/109/31
f 11/111/46 12/200/128 76/112/47
f 63/113/48 64/134/67 128/114/49
f 26/115/50 27/136/69 91/116/51
f 4/117/52 5/138/71 69/118/53
f 41/119/54 42/140/73 106/120/55
f 56/122/57 57/270/75 121/123/58
f 19/124/59 20/145/77 84/125/60
f 34/126/61 35/147/79 99/127/62
f 40/129/64 41/271/54 105/130/56
f 49/131/65 50/152/84 114/132/66
f 64/134/67 1/272/123 65/135/68
f 27/136/69 28/154/86 92/137/70
f 5/138/71 6/156/88 70/139/72
f 42/140/73 43/158/90 107/141/74
f 57/142/75 58/160/92 122/143/76
f 20/145/77 21/162/94 85/146/78
f 35/147/79 36/164/96 100/148/80
f 13/149/81 14/166/98 78/150/82
f 50/152/84 51/167/99 115/153/85
f 28/154/86 29/169/101 93/155/87
f 6/156/88 7/171/103 71/157/89
f 43/158/90 44/173/105 108/159/91
f 58/160/92 59/175/107 123/161/93
f 21/162/94 22/177/109 86/163/95
f 36/164/96 37/181/112 101/165/97
f 14/166/98 15/96/32 79/98/34
f 51/167/99 52/183/114 116/168/100
f 29/169/101 30/185/116 94/170/102
f 7/171/103 8/187/118 72/172/104
f 44/173/105 45/189/119 109/174/106
f 59/175/107 60/190/120 124/176/108
f 22/177/109 23/192/122 87/178/110
f 33/179/111 34/126/61 98/128/63
f 37/181/112 38/195/124 102/182/113
f 52/183/114 53/196/125 117/184/115
f 30/185/116 31/199/127 95/186/117
f 8/187/118 9/273/2 73/188/4
f 45/189/119 46/69/5 110/71/7
f 60/190/120 61/266/130 125/191/121
f 23/192/122 24/108/44 88/110/45
f 1/193/123 2/75/11 66/77/13
f 38/195/124 39/72/8 103/74/10
f 53/196/125 54/78/14 118/80/16
f 16/197/126 17/274/17 81/198/19
f 31/199/127 32/84/20 96/86/22
f 12/200/128 13/149/81 77/151/83
f 61/266/130 62/103/39 126/105/41
