# Blender v2.70 (sub 5) OBJ File: 'roller3c.blend'
# www.blender.org
mtllib roller3c.mtl
o ColobotMesh_1_ColobotMesh_
v -2.016510 0.003054 -2.999996
v -2.016510 0.297105 -2.985550
v -2.016510 0.588324 -2.942352
v -2.016510 0.873907 -2.870817
v -2.016510 1.151103 -2.771635
v -2.016510 1.417242 -2.645760
v -2.016510 1.669762 -2.494405
v -2.016510 1.906231 -2.319028
v -2.016510 2.124371 -2.121318
v -2.016510 2.322082 -1.903178
v -2.016510 2.497459 -1.666709
v -2.016510 2.648814 -1.414189
v -2.016510 2.774688 -1.148049
v -2.016510 2.873871 -0.870853
v -2.016510 2.945406 -0.585270
v -2.016510 2.988604 -0.294051
v -2.016510 3.003050 -0.000000
v -2.016510 2.988604 0.294051
v -2.016510 2.945405 0.585270
v -2.016510 2.873871 0.870853
v -2.016510 2.774688 1.148049
v -2.016510 2.648813 1.414188
v -2.016510 2.497459 1.666708
v -2.016510 2.322081 1.903177
v -2.016510 2.124371 2.121317
v -2.016510 1.906230 2.319028
v -2.016510 1.669761 2.494406
v -2.016510 1.417241 2.645760
v -2.016510 1.151101 2.771635
v -2.016510 0.873905 2.870817
v -2.016510 0.588322 2.942351
v -2.016510 0.297103 2.985549
v -2.016510 0.003052 2.999995
v -2.016510 -0.290999 2.985549
v -2.016510 -0.582218 2.942351
v -2.016510 -0.867801 2.870815
v -2.016510 -1.144997 2.771633
v -2.016510 -1.411137 2.645758
v -2.016510 -1.663656 2.494403
v -2.016510 -1.900125 2.319025
v -2.016510 -2.118265 2.121314
v -2.016510 -2.315975 1.903174
v -2.016510 -2.491352 1.666705
v -2.016510 -2.642706 1.414186
v -2.016510 -2.768581 1.148047
v -2.016510 -2.867762 0.870852
v -2.016510 -2.939297 0.585270
v -2.016510 -2.982495 0.294051
v -2.016510 -2.996941 0.000001
v -2.016510 -2.982496 -0.294050
v -2.016510 -2.939298 -0.585268
v -2.016510 -2.867763 -0.870850
v -2.016510 -2.768582 -1.148046
v -2.016510 -2.642708 -1.414185
v -2.016510 -2.491354 -1.666705
v -2.016510 -2.315977 -1.903173
v -2.016510 -2.118267 -2.121313
v -2.016510 -1.900128 -2.319024
v -2.016510 -1.663660 -2.494401
v -2.016510 -1.411141 -2.645756
v -2.016510 -1.145002 -2.771631
v -2.016510 -0.867807 -2.870814
v -2.016510 -0.582225 -2.942350
v -2.016510 -0.291007 -2.985549
v 0.993617 0.003054 -2.999996
v 0.993617 0.297105 -2.985550
v 0.993617 0.588324 -2.942352
v 0.993617 0.873907 -2.870817
v 0.993617 1.151103 -2.771635
v 0.993617 1.417242 -2.645760
v 0.993617 1.669762 -2.494405
v 0.993617 1.906231 -2.319028
v 0.993617 2.124371 -2.121318
v 0.993617 2.322082 -1.903178
v 0.993617 2.497459 -1.666709
v 0.993617 2.648814 -1.414189
v 0.993617 2.774688 -1.148049
v 0.993617 2.873871 -0.870853
v 0.993617 2.945406 -0.585270
v 0.993617 2.988604 -0.294051
v 0.993617 3.003050 -0.000000
v 0.993617 2.988604 0.294051
v 0.993617 2.945405 0.585270
v 0.993617 2.873871 0.870853
v 0.993617 2.774688 1.148049
v 0.993617 2.648813 1.414188
v 0.993617 2.497459 1.666708
v 0.993617 2.322081 1.903177
v 0.993617 2.124371 2.121317
v 0.993617 1.906230 2.319028
v 0.993617 1.669761 2.494406
v 0.993617 1.417241 2.645760
v 0.993617 1.151101 2.771635
v 0.993617 0.873905 2.870817
v 0.993617 0.588322 2.942351
v 0.993617 0.297103 2.985549
v 0.993617 0.003052 2.999995
v 0.993617 -0.290999 2.985549
v 0.993617 -0.582218 2.942351
v 0.993617 -0.867801 2.870815
v 0.993617 -1.144997 2.771633
v 0.993617 -1.411137 2.645758
v 0.993617 -1.663656 2.494403
v 0.993617 -1.900125 2.319025
v 0.993617 -2.118265 2.121314
v 0.993617 -2.315975 1.903174
v 0.993617 -2.491352 1.666705
v 0.993617 -2.642706 1.414186
v 0.993617 -2.768581 1.148047
v 0.993617 -2.867762 0.870852
v 0.993617 -2.939297 0.585270
v 0.993617 -2.982495 0.294051
v 0.993617 -2.996941 0.000001
v 0.993617 -2.982496 -0.294050
v 0.993617 -2.939298 -0.585268
v 0.993617 -2.867763 -0.870850
v 0.993617 -2.768582 -1.148046
v 0.993617 -2.642708 -1.414185
v 0.993617 -2.491354 -1.666705
v 0.993617 -2.315977 -1.903173
v 0.993617 -2.118267 -2.121313
v 0.993617 -1.900128 -2.319024
v 0.993617 -1.663660 -2.494401
v 0.993617 -1.411141 -2.645756
v 0.993617 -1.145002 -2.771631
v 0.993617 -0.867807 -2.870814
v 0.993617 -0.582225 -2.942350
v 0.993617 -0.291007 -2.985549
v 2.947170 0.003052 0.000000
v -2.016510 0.003052 0.000000
vt 0.751953 0.316406
vt 0.751953 0.314941
vt 0.935517 0.314941
vt 0.751953 0.312012
vt 0.751953 0.310547
vt 0.935518 0.310547
vt 0.751959 0.313477
vt 0.751959 0.312013
vt 0.935524 0.312013
vt 0.751953 0.320799
vt 0.751953 0.319335
vt 0.935518 0.319335
vt 0.751976 0.314942
vt 0.751976 0.313477
vt 0.935541 0.313477
vt 0.751953 0.322264
vt 0.935518 0.320799
vt 0.935547 0.310547
vt 0.751976 0.312013
vt 0.935541 0.312013
vt 0.751953 0.313476
vt 0.935517 0.313476
vt 0.751953 0.322266
vt 0.751953 0.320801
vt 0.935547 0.320801
vt 0.751953 0.317870
vt 0.935518 0.317870
vt 0.751959 0.310548
vt 0.935524 0.310548
vt 0.751959 0.322265
vt 0.751959 0.320800
vt 0.935524 0.320800
vt 0.751976 0.310548
vt 0.935541 0.310548
vt 0.935517 0.312012
vt 0.751953 0.319336
vt 0.935547 0.319336
vt 0.935518 0.316406
vt 0.751976 0.322265
vt 0.751976 0.320800
vt 0.935541 0.320800
vt 0.751959 0.319336
vt 0.935524 0.319336
vt 0.935517 0.310547
vt 0.751953 0.317871
vt 0.935547 0.317871
vt 0.935518 0.314941
vt 0.751976 0.319336
vt 0.935541 0.319336
vt 0.935517 0.320799
vt 0.751959 0.317871
vt 0.935524 0.317871
vt 0.935547 0.316406
vt 0.935518 0.313476
vt 0.751976 0.317871
vt 0.935541 0.317871
vt 0.935517 0.319335
vt 0.751959 0.316406
vt 0.935524 0.316406
vt 0.751953 0.314942
vt 0.935547 0.314942
vt 0.935518 0.312012
vt 0.751976 0.316406
vt 0.935541 0.316406
vt 0.935517 0.317870
vt 0.751959 0.314942
vt 0.935524 0.314942
vt 0.751953 0.313477
vt 0.935547 0.313477
vt 0.935541 0.314942
vt 0.935517 0.316406
vt 0.935524 0.313477
vt 0.935547 0.312012
vt 0.170214 0.728440
vt 0.171085 0.722563
vt 0.230469 0.734375
vt 0.259011 0.787773
vt 0.253639 0.790313
vt 0.230469 0.673828
vt 0.236404 0.674120
vt 0.290724 0.728440
vt 0.291016 0.734375
vt 0.180126 0.768013
vt 0.177071 0.762917
vt 0.286407 0.757545
vt 0.283867 0.762917
vt 0.192058 0.687572
vt 0.196831 0.684032
vt 0.273282 0.691562
vt 0.277272 0.695964
vt 0.212893 0.792315
vt 0.207299 0.790313
vt 0.172529 0.716799
vt 0.248045 0.792315
vt 0.242281 0.674991
vt 0.174531 0.757545
vt 0.201927 0.680977
vt 0.280812 0.768013
vt 0.280812 0.700737
vt 0.201927 0.787773
vt 0.174531 0.711205
vt 0.242281 0.793759
vt 0.248045 0.676435
vt 0.172529 0.751951
vt 0.277272 0.772786
vt 0.207299 0.678437
vt 0.283867 0.705833
vt 0.196831 0.784718
vt 0.177071 0.705833
vt 0.236404 0.794630
vt 0.253639 0.678437
vt 0.171085 0.746187
vt 0.273282 0.777188
vt 0.212893 0.676435
vt 0.286407 0.711205
vt 0.192058 0.781178
vt 0.290724 0.740310
vt 0.180126 0.700737
vt 0.259011 0.680977
vt 0.230469 0.794922
vt 0.170214 0.740310
vt 0.268880 0.781178
vt 0.218657 0.674991
vt 0.288409 0.716799
vt 0.187656 0.777188
vt 0.289853 0.746187
vt 0.183666 0.695964
vt 0.264107 0.684032
vt 0.224534 0.794630
vt 0.169922 0.734375
vt 0.264107 0.784718
vt 0.224534 0.674120
vt 0.289853 0.722563
vt 0.183666 0.772786
vt 0.288409 0.751951
vt 0.187656 0.691562
vt 0.268880 0.687571
vt 0.218657 0.793759
vt 0.975101 0.459207
vt 0.973640 0.468970
vt 0.875000 0.449219
vt 0.836384 0.542110
vt 0.827465 0.537878
vt 0.952844 0.385500
vt 0.958715 0.393436
vt 0.946043 0.520443
vt 0.938719 0.527063
vt 0.778771 0.419894
vt 0.782109 0.410604
vt 0.827692 0.360440
vt 0.836621 0.356230
vt 0.782011 0.487598
vt 0.778697 0.478298
vt 0.894751 0.350579
vt 0.904324 0.352990
vt 0.786341 0.401685
vt 0.791427 0.393224
vt 0.819004 0.532791
vt 0.811082 0.526900
vt 0.930782 0.532934
vt 0.922308 0.537998
vt 0.963780 0.401911
vt 0.845921 0.352916
vt 0.855500 0.350529
vt 0.913615 0.356328
vt 0.776310 0.468719
vt 0.922534 0.360560
vt 0.774874 0.458952
vt 0.971229 0.478544
vt 0.967891 0.487834
vt 0.967989 0.410840
vt 0.971303 0.420140
vt 0.803776 0.520261
vt 0.797318 0.385302
vt 0.913379 0.542208
vt 0.930995 0.365646
vt 0.874872 0.549817
vt 0.865012 0.549320
vt 0.774402 0.449091
vt 0.963659 0.496753
vt 0.884733 0.549345
vt 0.819218 0.365504
vt 0.786220 0.496527
vt 0.975598 0.449347
vt 0.884988 0.349118
vt 0.952682 0.513136
vt 0.776360 0.429468
vt 0.845675 0.545447
vt 0.946224 0.378176
vt 0.894500 0.547909
vt 0.811281 0.371375
vt 0.791285 0.505001
vt 0.975126 0.439486
vt 0.875128 0.348621
vt 0.958573 0.505214
vt 0.774899 0.439231
vt 0.855248 0.547859
vt 0.938917 0.371537
vt 0.904079 0.545522
vt 0.803957 0.377995
vt 0.797156 0.512938
vt 0.973690 0.429719
vt 0.865267 0.349093
vt 0.935518 0.322264
vt 0.935547 0.322266
vt 0.935524 0.322265
vt 0.935541 0.322265
vt 0.935517 0.322264
vn 0.000000 -0.336892 -0.941543
vn 0.000000 0.740951 0.671559
vn 0.000000 -0.595700 0.803207
vn -0.000000 0.146731 -0.989176
vn 0.000000 -0.857729 -0.514102
vn 0.000000 0.998795 0.049068
vn 0.000000 0.049067 0.998796
vn 0.000000 0.803208 -0.595699
vn -0.000000 -0.989177 0.146731
vn -0.000000 -0.242984 -0.970030
vn -0.000000 0.671558 0.740952
vn 0.000000 0.242980 -0.970031
vn -0.000000 -0.671560 0.740950
vn 0.000000 -0.803208 -0.595698
vn 0.000000 0.989177 0.146730
vn -0.000000 -0.049068 0.998795
vn -0.000000 0.857729 -0.514103
vn 0.000000 -0.998795 0.049068
vn 0.000000 -0.146734 -0.989176
vn 0.000000 0.595699 0.803208
vn 0.000000 0.336890 -0.941544
vn 0.000000 -0.740952 0.671558
vn 0.000000 -0.740952 -0.671558
vn -0.000000 0.970031 0.242981
vn 0.000000 -0.146731 0.989176
vn 0.000000 -0.998795 -0.049068
vn 0.000000 0.903990 -0.427555
vn -0.000000 -0.049069 -0.998795
vn -0.000000 0.514102 0.857729
vn -0.000000 0.427556 -0.903989
vn -0.000000 -0.803208 0.595698
vn 0.000000 -0.671561 -0.740949
vn -0.000000 0.941544 0.336890
vn -0.000000 -0.242982 0.970031
vn -0.000000 0.941544 -0.336890
vn 0.000000 -0.989177 -0.146729
vn -0.000000 0.427555 0.903989
vn -0.000000 0.514103 -0.857728
vn 0.000000 -0.857729 0.514103
vn 0.000000 -0.595701 -0.803206
vn -0.000000 0.903989 0.427556
vn -0.000000 -0.336890 0.941544
vn -0.000000 0.970031 -0.242981
vn 0.000000 -0.970031 -0.242980
vn 0.000000 0.336889 0.941544
vn -0.000000 0.595699 -0.803208
vn -0.000000 -0.903989 0.427555
vn 0.000000 -0.514105 -0.857727
vn -0.000000 0.857728 0.514103
vn -0.000000 -0.427556 0.903989
vn 0.000000 0.989177 -0.146729
vn -0.000000 -0.941545 -0.336888
vn 0.000000 0.242980 0.970031
vn 0.000000 0.671559 -0.740951
vn -0.000000 -0.941544 0.336889
vn 0.000000 -0.427557 -0.903988
vn -0.000000 0.803207 0.595699
vn 0.000000 0.049067 -0.998796
vn 0.000000 -0.514104 0.857728
vn 0.000000 -0.903990 -0.427553
vn 0.000000 0.998795 -0.049067
vn -0.000000 0.146730 0.989177
vn 0.000000 0.740950 -0.671560
vn 0.000000 -0.970031 0.242981
vn 0.837688 -0.080137 0.540237
vn 0.837689 0.493712 -0.233508
vn 0.837688 -0.545491 -0.026798
vn 0.837689 -0.026798 -0.545490
vn 0.837688 0.280777 0.468447
vn 0.837689 0.233508 -0.493712
vn 0.837688 -0.438671 0.325340
vn 0.837688 -0.366773 -0.404668
vn 0.837689 0.514222 0.183992
vn 0.837688 -0.132704 0.529781
vn 0.837689 0.514223 -0.183992
vn 0.837688 -0.540237 -0.080136
vn 0.837689 0.233508 0.493712
vn 0.837688 -0.468447 0.280777
vn 0.837689 0.280777 -0.468447
vn 0.837688 -0.325341 -0.438670
vn 0.837689 0.493712 0.233509
vn 0.837688 -0.183991 0.514223
vn 0.837689 0.529781 -0.132703
vn 0.837688 -0.529781 -0.132703
vn 0.837688 0.183991 0.514223
vn 0.837689 0.325340 -0.438671
vn 0.837688 -0.493713 0.233509
vn 0.837689 -0.280777 -0.468446
vn 0.837688 0.468447 0.280777
vn 0.837688 -0.233510 0.493712
vn 0.837689 0.540237 -0.080136
vn 0.837688 -0.514223 -0.183991
vn 0.837688 0.132704 0.529781
vn 0.837689 0.366770 -0.404669
vn 0.837688 -0.514223 0.183991
vn 0.837688 -0.233510 -0.493712
vn 0.837689 0.438670 0.325340
vn 0.837689 0.026798 -0.545490
vn 0.837688 -0.280777 0.468447
vn 0.837688 -0.493713 -0.233508
vn 0.837689 0.545490 -0.026798
vn 0.837689 0.080136 0.540237
vn 0.837689 0.404668 -0.366771
vn 0.837688 -0.529781 0.132703
vn 0.837689 -0.183993 -0.514222
vn 0.837689 0.404669 0.366771
vn 0.837689 0.080137 -0.540237
vn 0.837688 -0.325341 0.438670
vn 0.837689 -0.468447 -0.280776
vn 0.837689 0.545490 0.026798
vn 0.837689 0.026798 0.545491
vn 0.837689 0.438670 -0.325340
vn 0.837688 -0.540237 0.080137
vn 0.837688 -0.132706 -0.529780
vn 0.837688 0.366771 0.404669
vn 0.837689 0.132704 -0.529781
vn 0.837688 -0.366772 0.404669
vn 0.837688 -0.438671 -0.325339
vn 0.837689 0.540237 0.080137
vn 0.837688 -0.026799 0.545491
vn 0.837689 0.468447 -0.280776
vn 0.837688 -0.545491 0.026798
vn 0.837689 -0.080138 -0.540237
vn 0.837689 0.325340 0.438670
vn 0.837689 0.183992 -0.514223
vn 0.837689 -0.404669 0.366771
vn 0.837689 -0.404669 -0.366771
vn 0.837689 0.529781 0.132703
vn -1.000000 -0.000000 0.000000
vn -1.000000 -0.000001 0.000000
vn -1.000000 0.000001 0.000000
vn -0.000000 0.146731 -0.989177
vn -0.000000 -0.989176 0.146732
vn 0.000000 0.989176 0.146731
vn -0.000000 0.857729 -0.514102
vn 0.000000 -0.998795 0.049069
vn 0.000000 0.903989 -0.427555
vn 0.000000 -0.671561 -0.740950
vn 0.000000 -0.857728 0.514103
vn -0.000000 0.903989 0.427555
vn -0.000000 0.970031 -0.242980
vn -0.000000 0.857729 0.514103
vn -0.000000 -0.941544 0.336890
vn -0.000000 0.803207 0.595700
usemtl ColobotMesh_mat_1
s off
f 61/1/1 62/2/1 126/3/1
f 24/4/2 25/5/2 89/6/2
f 39/7/3 40/8/3 104/9/3
f 2/10/4 3/11/4 67/12/4
f 54/13/5 55/14/5 119/15/5
f 17/16/6 18/10/6 82/17/6
f 32/4/7 33/5/7 97/18/7
f 10/10/8 11/11/8 75/12/8
f 47/14/9 48/19/9 112/20/9
f 62/2/10 63/21/10 127/22/10
f 25/23/11 26/24/11 90/25/11
f 3/11/12 4/26/12 68/27/12
f 40/8/13 41/28/13 105/29/13
f 55/14/14 56/19/14 120/20/14
f 18/10/15 19/11/15 83/12/15
f 33/30/16 34/31/16 98/32/16
f 11/11/17 12/26/17 76/27/17
f 48/19/18 49/33/18 113/34/18
f 63/21/19 64/4/19 128/35/19
f 26/24/20 27/36/20 91/37/20
f 4/26/21 5/1/21 69/38/21
f 41/39/22 42/40/22 106/41/22
f 56/19/23 57/33/23 121/34/23
f 19/11/24 20/26/24 84/27/24
f 34/31/25 35/42/25 99/43/25
f 49/39/26 50/40/26 114/41/26
f 12/26/27 13/1/27 77/38/27
f 64/4/28 1/5/28 65/44/28
f 27/36/29 28/45/29 92/46/29
f 5/1/30 6/2/30 70/47/30
f 42/40/31 43/48/31 107/49/31
f 57/16/32 58/10/32 122/50/32
f 20/26/33 21/1/33 85/38/33
f 35/42/34 36/51/34 100/52/34
f 13/1/35 14/2/35 78/47/35
f 50/40/36 51/48/36 115/49/36
f 28/45/37 29/1/37 93/53/37
f 6/2/38 7/21/38 71/54/38
f 43/48/39 44/55/39 108/56/39
f 58/10/40 59/11/40 123/57/40
f 21/1/41 22/2/41 86/47/41
f 36/51/42 37/58/42 101/59/42
f 14/2/43 15/21/43 79/54/43
f 51/48/44 52/55/44 116/56/44
f 29/1/45 30/60/45 94/61/45
f 7/21/46 8/4/46 72/62/46
f 44/55/47 45/63/47 109/64/47
f 59/11/48 60/26/48 124/65/48
f 22/2/49 23/21/49 87/54/49
f 37/58/50 38/66/50 102/67/50
f 15/21/51 16/4/51 80/62/51
f 52/55/52 53/63/52 117/64/52
f 30/60/53 31/68/53 95/69/53
f 8/4/54 9/5/54 73/6/54
f 45/63/55 46/13/55 110/70/55
f 60/26/56 61/1/56 125/71/56
f 23/21/57 24/4/57 88/62/57
f 1/16/58 2/10/58 66/17/58
f 38/66/59 39/7/59 103/72/59
f 53/63/60 54/13/60 118/70/60
f 16/4/61 17/5/61 81/6/61
f 31/68/62 32/4/62 96/73/62
f 9/16/63 10/10/63 74/17/63
f 46/13/64 47/14/64 111/15/64
f 98/74/65 99/75/65 129/76/65
f 76/77/66 77/78/66 129/76/66
f 113/79/67 114/80/67 129/76/67
f 128/81/68 65/82/68 129/76/68
f 91/83/69 92/84/69 129/76/69
f 69/85/70 70/86/70 129/76/70
f 106/87/71 107/88/71 129/76/71
f 121/89/72 122/90/72 129/76/72
f 84/91/73 85/92/73 129/76/73
f 99/75/74 100/93/74 129/76/74
f 77/78/75 78/94/75 129/76/75
f 114/80/76 115/95/76 129/76/76
f 92/84/77 93/96/77 129/76/77
f 107/88/78 108/97/78 129/76/78
f 70/86/79 71/98/79 129/76/79
f 122/90/80 123/99/80 129/76/80
f 85/92/81 86/100/81 129/76/81
f 100/93/82 101/101/82 129/76/82
f 78/94/83 79/102/83 129/76/83
f 115/95/84 116/103/84 129/76/84
f 93/96/85 94/104/85 129/76/85
f 71/98/86 72/105/86 129/76/86
f 108/97/87 109/106/87 129/76/87
f 123/99/88 124/107/88 129/76/88
f 86/100/89 87/108/89 129/76/89
f 101/101/90 102/109/90 129/76/90
f 79/102/91 80/110/91 129/76/91
f 116/103/92 117/111/92 129/76/92
f 94/104/93 95/112/93 129/76/93
f 72/105/94 73/113/94 129/76/94
f 109/106/95 110/114/95 129/76/95
f 124/107/96 125/115/96 129/76/96
f 87/108/97 88/116/97 129/76/97
f 65/82/98 66/117/98 129/76/98
f 102/109/99 103/118/99 129/76/99
f 117/111/100 118/119/100 129/76/100
f 80/110/101 81/120/101 129/76/101
f 95/112/102 96/121/102 129/76/102
f 73/113/103 74/122/103 129/76/103
f 110/114/104 111/123/104 129/76/104
f 125/115/105 126/124/105 129/76/105
f 88/116/106 89/125/106 129/76/106
f 66/117/107 67/126/107 129/76/107
f 103/118/108 104/127/108 129/76/108
f 118/119/109 119/128/109 129/76/109
f 81/120/110 82/129/110 129/76/110
f 96/121/111 97/130/111 129/76/111
f 74/122/112 75/131/112 129/76/112
f 111/123/113 112/132/113 129/76/113
f 126/124/114 127/133/114 129/76/114
f 89/125/115 90/134/115 129/76/115
f 67/126/116 68/135/116 129/76/116
f 104/127/117 105/136/117 129/76/117
f 119/128/118 120/137/118 129/76/118
f 82/129/119 83/138/119 129/76/119
f 97/130/120 98/74/120 129/76/120
f 75/131/121 76/77/121 129/76/121
f 112/132/122 113/79/122 129/76/122
f 127/133/123 128/81/123 129/76/123
f 90/134/124 91/83/124 129/76/124
f 68/135/125 69/85/125 129/76/125
f 105/136/126 106/87/126 129/76/126
f 120/137/127 121/89/127 129/76/127
f 83/138/128 84/91/128 129/76/128
f 16/139/129 15/140/129 130/141/129
f 61/142/129 60/143/129 130/141/129
f 24/144/129 23/145/129 130/141/129
f 9/146/130 8/147/130 130/141/130
f 46/148/129 45/149/129 130/141/129
f 38/150/129 37/151/129 130/141/129
f 53/152/129 52/153/129 130/141/129
f 31/154/129 30/155/129 130/141/129
f 44/156/129 43/157/129 130/141/129
f 59/158/129 58/159/129 130/141/129
f 7/160/129 6/161/129 130/141/129
f 8/147/129 7/160/129 130/141/129
f 60/143/129 59/158/129 130/141/129
f 23/145/129 22/162/129 130/141/129
f 36/163/129 35/164/129 130/141/129
f 30/155/129 29/165/129 130/141/129
f 52/153/129 51/166/129 130/141/129
f 45/149/129 44/156/129 130/141/129
f 29/165/129 28/167/129 130/141/129
f 51/166/129 50/168/129 130/141/129
f 14/169/129 13/170/129 130/141/129
f 37/151/129 36/163/129 130/141/129
f 15/140/129 14/169/129 130/141/129
f 22/162/129 21/171/129 130/141/129
f 21/171/129 20/172/129 130/141/129
f 58/159/129 57/173/129 130/141/129
f 43/157/129 42/174/129 130/141/129
f 6/161/129 5/175/129 130/141/129
f 28/167/131 27/176/131 130/141/131
f 1/177/129 64/178/129 130/141/129
f 50/168/129 49/179/129 130/141/129
f 13/170/129 12/180/129 130/141/129
f 2/181/129 1/177/129 130/141/129
f 39/182/129 38/150/129 130/141/129
f 54/183/129 53/152/129 130/141/129
f 17/184/129 16/139/129 130/141/129
f 32/185/129 31/154/129 130/141/129
f 10/186/131 9/146/131 130/141/131
f 47/187/129 46/148/129 130/141/129
f 62/188/129 61/142/129 130/141/129
f 25/189/130 24/144/130 130/141/130
f 3/190/129 2/181/129 130/141/129
f 40/191/129 39/182/129 130/141/129
f 55/192/129 54/183/129 130/141/129
f 18/193/129 17/184/129 130/141/129
f 33/194/129 32/185/129 130/141/129
f 11/195/129 10/186/129 130/141/129
f 48/196/129 47/187/129 130/141/129
f 63/197/129 62/188/129 130/141/129
f 26/198/130 25/189/130 130/141/130
f 4/199/129 3/190/129 130/141/129
f 41/200/129 40/191/129 130/141/129
f 56/201/129 55/192/129 130/141/129
f 19/202/129 18/193/129 130/141/129
f 34/203/129 33/194/129 130/141/129
f 12/180/129 11/195/129 130/141/129
f 49/179/129 48/196/129 130/141/129
f 64/178/129 63/197/129 130/141/129
f 27/176/129 26/198/129 130/141/129
f 5/175/129 4/199/129 130/141/129
f 42/174/129 41/200/129 130/141/129
f 57/173/131 56/201/131 130/141/131
f 20/172/129 19/202/129 130/141/129
f 35/164/129 34/203/129 130/141/129
f 125/71/1 61/1/1 126/3/1
f 88/62/2 24/4/2 89/6/2
f 103/72/3 39/7/3 104/9/3
f 66/17/132 2/10/132 67/12/132
f 118/70/5 54/13/5 119/15/5
f 81/204/6 17/16/6 82/17/6
f 96/73/7 32/4/7 97/18/7
f 74/17/8 10/10/8 75/12/8
f 111/15/133 47/14/133 112/20/133
f 126/3/10 62/2/10 127/22/10
f 89/205/11 25/23/11 90/25/11
f 67/12/12 3/11/12 68/27/12
f 104/9/13 40/8/13 105/29/13
f 119/15/14 55/14/14 120/20/14
f 82/17/134 18/10/134 83/12/134
f 97/206/16 33/30/16 98/32/16
f 75/12/135 11/11/135 76/27/135
f 112/20/136 48/19/136 113/34/136
f 127/22/19 63/21/19 128/35/19
f 90/25/20 26/24/20 91/37/20
f 68/27/21 4/26/21 69/38/21
f 105/207/22 41/39/22 106/41/22
f 120/20/23 56/19/23 121/34/23
f 83/12/24 19/11/24 84/27/24
f 98/32/25 34/31/25 99/43/25
f 113/207/26 49/39/26 114/41/26
f 76/27/137 12/26/137 77/38/137
f 128/35/28 64/4/28 65/44/28
f 91/37/29 27/36/29 92/46/29
f 69/38/30 5/1/30 70/47/30
f 106/41/31 42/40/31 107/49/31
f 121/208/138 57/16/138 122/50/138
f 84/27/33 20/26/33 85/38/33
f 99/43/34 35/42/34 100/52/34
f 77/38/35 13/1/35 78/47/35
f 114/41/36 50/40/36 115/49/36
f 92/46/37 28/45/37 93/53/37
f 70/47/38 6/2/38 71/54/38
f 107/49/139 43/48/139 108/56/139
f 122/50/40 58/10/40 123/57/40
f 85/38/140 21/1/140 86/47/140
f 100/52/42 36/51/42 101/59/42
f 78/47/141 14/2/141 79/54/141
f 115/49/44 51/48/44 116/56/44
f 93/53/45 29/1/45 94/61/45
f 71/54/46 7/21/46 72/62/46
f 108/56/47 44/55/47 109/64/47
f 123/57/48 59/11/48 124/65/48
f 86/47/142 22/2/142 87/54/142
f 101/59/50 37/58/50 102/67/50
f 79/54/51 15/21/51 80/62/51
f 116/56/52 52/55/52 117/64/52
f 94/61/53 30/60/53 95/69/53
f 72/62/54 8/4/54 73/6/54
f 109/64/143 45/63/143 110/70/143
f 124/65/56 60/26/56 125/71/56
f 87/54/144 23/21/144 88/62/144
f 65/204/58 1/16/58 66/17/58
f 102/67/59 38/66/59 103/72/59
f 117/64/60 53/63/60 118/70/60
f 80/62/61 16/4/61 81/6/61
f 95/69/62 31/68/62 96/73/62
f 73/204/63 9/16/63 74/17/63
f 110/70/64 46/13/64 111/15/64
