# Blender v2.72 (sub 0) OBJ File: 'roller3s.blend'
# www.blender.org
mtllib roller3s.mtl
o ColobotMesh_1_ColobotMesh_
v -0.000178 -1.519280 -1.199999
v -0.000178 2.480720 -1.199998
v 0.117443 -1.519280 -1.194220
v 0.117443 2.480720 -1.194220
v 0.233930 -1.519280 -1.176941
v 0.233930 2.480720 -1.176941
v 0.348163 -1.519280 -1.148327
v 0.348163 2.480720 -1.148327
v 0.459042 -1.519280 -1.108654
v 0.459042 2.480720 -1.108654
v 0.565498 -1.519280 -1.058304
v 0.565498 2.480720 -1.058304
v 0.666506 -1.519280 -0.997762
v 0.666506 2.480720 -0.997762
v 0.761093 -1.519280 -0.927611
v 0.761093 2.480720 -0.927611
v 0.848349 -1.519280 -0.848527
v 0.848349 2.480720 -0.848527
v 0.927434 -1.519280 -0.761271
v 0.927434 2.480720 -0.761271
v 0.997585 -1.519280 -0.666683
v 0.997585 2.480720 -0.666684
v 1.058126 -1.519280 -0.565675
v 1.058126 2.480720 -0.565675
v 1.108476 -1.519280 -0.459220
v 1.108476 2.480720 -0.459219
v 1.148149 -1.519280 -0.348341
v 1.148149 2.480720 -0.348341
v 1.176763 -1.519280 -0.234108
v 1.176763 2.480720 -0.234108
v 1.194042 -1.519280 -0.117620
v 1.194042 2.480720 -0.117620
v 1.199821 -1.519280 0.000000
v 1.199821 2.480720 0.000000
v 1.194042 -1.519280 0.117621
v 1.194042 2.480720 0.117621
v 1.176763 -1.519280 0.234108
v 1.176763 2.480720 0.234108
v 1.148149 -1.519280 0.348342
v 1.148149 2.480720 0.348342
v 1.108476 -1.519280 0.459220
v 1.108476 2.480720 0.459220
v 1.058126 -1.519280 0.565676
v 1.058126 2.480720 0.565676
v 0.997584 -1.519280 0.666684
v 0.997584 2.480720 0.666684
v 0.927433 -1.519280 0.761272
v 0.927433 2.480720 0.761272
v 0.848349 -1.519280 0.848528
v 0.848349 2.480720 0.848528
v 0.761093 -1.519280 0.927612
v 0.761093 2.480720 0.927612
v 0.666505 -1.519280 0.997763
v 0.666505 2.480720 0.997763
v 0.565497 -1.519280 1.058305
v 0.565497 2.480720 1.058305
v 0.459041 -1.519280 1.108655
v 0.459041 2.480720 1.108655
v 0.348163 -1.519280 1.148327
v 0.348163 2.480720 1.148327
v 0.233929 -1.519280 1.176941
v 0.233929 2.480720 1.176941
v 0.117442 -1.519280 1.194220
v 0.117442 2.480720 1.194220
v -0.000179 -1.519280 1.199999
v -0.000179 2.480720 1.199999
v -0.117799 -1.519280 1.194220
v -0.117799 2.480720 1.194220
v -0.234287 -1.519280 1.176941
v -0.234287 2.480720 1.176941
v -0.348520 -1.519280 1.148327
v -0.348520 2.480720 1.148327
v -0.459399 -1.519280 1.108654
v -0.459399 2.480720 1.108654
v -0.565854 -1.519280 1.058304
v -0.565854 2.480720 1.058304
v -0.666862 -1.519280 0.997762
v -0.666862 2.480720 0.997762
v -0.761450 -1.519280 0.927611
v -0.761450 2.480720 0.927611
v -0.848706 -1.519280 0.848526
v -0.848706 2.480720 0.848526
v -0.927790 -1.519280 0.761270
v -0.927790 2.480720 0.761270
v -0.997941 -1.519280 0.666683
v -0.997941 2.480720 0.666683
v -1.058482 -1.519280 0.565675
v -1.058482 2.480720 0.565675
v -1.108832 -1.519280 0.459219
v -1.108832 2.480720 0.459219
v -1.148505 -1.519280 0.348341
v -1.148505 2.480720 0.348341
v -1.177119 -1.519280 0.234108
v -1.177119 2.480720 0.234108
v -1.194398 -1.519280 0.117621
v -1.194398 2.480720 0.117621
v -1.200176 -1.519280 0.000001
v -1.200176 2.480720 0.000001
v -1.194398 -1.519280 -0.117620
v -1.194398 2.480720 -0.117620
v -1.177119 -1.519280 -0.234107
v -1.177119 2.480720 -0.234107
v -1.148505 -1.519280 -0.348340
v -1.148505 2.480720 -0.348340
v -1.108833 -1.519280 -0.459218
v -1.108833 2.480720 -0.459218
v -1.058483 -1.519280 -0.565674
v -1.058483 2.480720 -0.565674
v -0.997941 -1.519280 -0.666682
v -0.997941 2.480720 -0.666682
v -0.927791 -1.519280 -0.761269
v -0.927791 2.480720 -0.761269
v -0.848707 -1.519280 -0.848525
v -0.848707 2.480720 -0.848525
v -0.761451 -1.519280 -0.927610
v -0.761451 2.480720 -0.927610
v -0.666864 -1.519280 -0.997761
v -0.666864 2.480720 -0.997761
v -0.565856 -1.519280 -1.058303
v -0.565856 2.480720 -1.058303
v -0.459401 -1.519280 -1.108653
v -0.459401 2.480720 -1.108653
v -0.348523 -1.519280 -1.148326
v -0.348523 2.480720 -1.148326
v -0.234290 -1.519280 -1.176940
v -0.234290 2.480720 -1.176940
v -0.117802 -1.519280 -1.194220
v -0.117802 2.480720 -1.194220
vt 0.875000 0.513258
vt 0.986742 0.625000
vt 0.875000 0.736742
vt 0.853201 0.515405
vt 0.864048 0.513796
vt 0.832238 0.521764
vt 0.842564 0.518070
vt 0.812919 0.532090
vt 0.822325 0.526453
vt 0.795987 0.545986
vt 0.804112 0.538622
vt 0.782090 0.562919
vt 0.788623 0.554111
vt 0.771764 0.582238
vt 0.776453 0.572325
vt 0.765405 0.603201
vt 0.768070 0.592564
vt 0.763258 0.625000
vt 0.763796 0.614048
vt 0.765405 0.646800
vt 0.763796 0.635953
vt 0.771764 0.667762
vt 0.768070 0.657437
vt 0.782090 0.687080
vt 0.776452 0.677674
vt 0.795986 0.704013
vt 0.788622 0.695888
vt 0.812919 0.717910
vt 0.804112 0.711377
vt 0.832238 0.728236
vt 0.822325 0.723547
vt 0.853200 0.734595
vt 0.842563 0.731930
vt 0.864047 0.736204
vt 0.896800 0.734594
vt 0.885953 0.736204
vt 0.917762 0.728236
vt 0.907437 0.731930
vt 0.937080 0.717910
vt 0.927675 0.723547
vt 0.954013 0.704013
vt 0.945888 0.711377
vt 0.967910 0.687080
vt 0.961378 0.695888
vt 0.978236 0.667762
vt 0.973547 0.677674
vt 0.984595 0.646800
vt 0.981930 0.657437
vt 0.986204 0.635952
vt 0.984594 0.603199
vt 0.986203 0.614047
vt 0.978235 0.582237
vt 0.981930 0.592562
vt 0.967909 0.562919
vt 0.973547 0.572324
vt 0.954012 0.545986
vt 0.961377 0.554111
vt 0.937080 0.532090
vt 0.945888 0.538622
vt 0.917762 0.521764
vt 0.927674 0.526452
vt 0.896800 0.515405
vt 0.907437 0.518070
vt 0.885953 0.513796
vt 0.036622 0.626953
vt 0.040040 0.626953
vt 0.036621 0.873047
vt 0.053711 0.626953
vt 0.057129 0.626953
vt 0.053711 0.873047
vt 0.046876 0.626953
vt 0.050293 0.626953
vt 0.046875 0.873047
vt 0.050293 0.873047
vt 0.033204 0.626953
vt 0.033203 0.873047
vt 0.043458 0.626953
vt 0.040039 0.873047
vt 0.043457 0.873047
vt 0.060546 0.626953
vt 0.057129 0.873047
vt 0.060547 0.873047
vn 0.000000 1.000000 0.000000
vn 0.803200 0.000000 0.595700
vn 0.989200 0.000000 0.146700
vn 0.336900 0.000000 -0.941500
vn 0.146700 0.000000 -0.989200
vn 0.243000 0.000000 -0.970000
vn 0.741000 0.000000 0.671600
vn 0.857700 0.000000 0.514100
vn 0.970000 0.000000 0.243000
vn 0.998800 0.000000 -0.049100
vn 0.989200 -0.000000 -0.146700
vn 0.595700 0.000000 -0.803200
vn 0.514100 -0.000000 -0.857700
vn 0.427600 0.000000 -0.904000
vn 0.049100 0.000000 -0.998800
vn 0.857700 0.000000 -0.514100
vn 0.904000 0.000000 -0.427600
vn 0.941500 0.000000 0.336900
vn 0.904000 0.000000 0.427600
vn 0.998800 0.000000 0.049100
vn 0.970000 0.000000 -0.243000
vn 0.803200 -0.000000 -0.595700
vn 0.671600 0.000000 -0.741000
vn 0.741000 0.000000 -0.671600
vn 0.941500 0.000000 -0.336900
vn 0.671600 0.000000 0.741000
vn 0.595700 0.000000 0.803200
vn 0.514100 0.000000 0.857700
vn 0.427600 -0.000000 0.904000
vn 0.336900 0.000000 0.941500
vn 0.243000 -0.000000 0.970000
vn 0.146700 0.000000 0.989200
vn 0.049100 0.000000 0.998800
vn -0.049100 -0.000000 0.998800
vn -0.146700 0.000000 0.989200
vn -0.243000 0.000000 0.970000
vn -0.336900 0.000000 0.941500
vn -0.427600 0.000000 0.904000
vn -0.514100 0.000000 0.857700
vn -0.595700 0.000000 0.803200
vn -0.671600 0.000000 0.741000
vn -0.741000 0.000000 0.671600
vn -0.803200 0.000000 0.595700
vn -0.857700 0.000000 0.514100
vn -0.904000 0.000000 0.427600
vn -0.941500 -0.000000 0.336900
vn -0.970000 0.000000 0.243000
vn -0.989200 0.000000 0.146700
vn -0.998800 0.000000 0.049100
vn -0.998800 0.000000 -0.049100
vn -0.989200 0.000000 -0.146700
vn -0.970000 0.000000 -0.243000
vn -0.941500 0.000000 -0.336900
vn -0.904000 0.000000 -0.427600
vn -0.857700 0.000000 -0.514100
vn -0.803200 0.000000 -0.595700
vn -0.741000 0.000000 -0.671600
vn -0.671600 0.000000 -0.741000
vn -0.595700 -0.000000 -0.803200
vn -0.514100 0.000000 -0.857700
vn -0.427600 0.000000 -0.904000
vn -0.336900 0.000000 -0.941500
vn -0.243000 0.000000 -0.970000
vn -0.146700 0.000000 -0.989200
vn -0.049100 0.000000 -0.998800
vn -0.671600 -0.000000 -0.740900
usemtl ColobotMesh_mat_1
s off
f 2/1/1 98/2/1 66/3/1
f 6/4/1 4/5/1 2/1/1
f 10/6/1 8/7/1 6/4/1
f 14/8/1 12/9/1 10/6/1
f 18/10/1 16/11/1 14/8/1
f 22/12/1 20/13/1 18/10/1
f 26/14/1 24/15/1 22/12/1
f 30/16/1 28/17/1 26/14/1
f 34/18/1 32/19/1 30/16/1
f 38/20/1 36/21/1 34/18/1
f 42/22/1 40/23/1 38/20/1
f 46/24/1 44/25/1 42/22/1
f 50/26/1 48/27/1 46/24/1
f 54/28/1 52/29/1 50/26/1
f 58/30/1 56/31/1 54/28/1
f 62/32/1 60/33/1 58/30/1
f 66/3/1 64/34/1 62/32/1
f 70/35/1 68/36/1 66/3/1
f 74/37/1 72/38/1 70/35/1
f 78/39/1 76/40/1 74/37/1
f 82/41/1 80/42/1 78/39/1
f 86/43/1 84/44/1 82/41/1
f 90/45/1 88/46/1 86/43/1
f 94/47/1 92/48/1 90/45/1
f 98/2/1 96/49/1 94/47/1
f 102/50/1 100/51/1 98/2/1
f 106/52/1 104/53/1 102/50/1
f 110/54/1 108/55/1 106/52/1
f 114/56/1 112/57/1 110/54/1
f 118/58/1 116/59/1 114/56/1
f 122/60/1 120/61/1 118/58/1
f 126/62/1 124/63/1 122/60/1
f 2/1/1 128/64/1 126/62/1
f 10/6/1 6/4/1 2/1/1
f 18/10/1 14/8/1 10/6/1
f 26/14/1 22/12/1 18/10/1
f 34/18/1 30/16/1 26/14/1
f 42/22/1 38/20/1 34/18/1
f 50/26/1 46/24/1 42/22/1
f 58/30/1 54/28/1 50/26/1
f 66/3/1 62/32/1 58/30/1
f 74/37/1 70/35/1 66/3/1
f 82/41/1 78/39/1 74/37/1
f 90/45/1 86/43/1 82/41/1
f 98/2/1 94/47/1 90/45/1
f 106/52/1 102/50/1 98/2/1
f 114/56/1 110/54/1 106/52/1
f 122/60/1 118/58/1 114/56/1
f 2/1/1 126/62/1 122/60/1
f 18/10/1 10/6/1 2/1/1
f 34/18/1 26/14/1 18/10/1
f 50/26/1 42/22/1 34/18/1
f 66/3/1 58/30/1 50/26/1
f 82/41/1 74/37/1 66/3/1
f 98/2/1 90/45/1 82/41/1
f 114/56/1 106/52/1 98/2/1
f 2/1/1 122/60/1 114/56/1
f 34/18/1 18/10/1 2/1/1
f 66/3/1 50/26/1 34/18/1
f 98/2/1 82/41/1 66/3/1
f 2/1/1 114/56/1 98/2/1
f 66/3/1 34/18/1 2/1/1
usemtl ColobotMesh_mat_1_derrick.png
f 47/65/2 45/66/2 48/67/2
f 37/68/3 35/69/3 38/70/3
f 9/71/4 7/72/4 10/73/4
f 5/68/5 3/69/5 6/70/5
f 7/72/6 5/68/6 8/74/6
f 49/75/7 47/65/7 50/76/7
f 45/66/8 43/77/8 46/78/8
f 39/72/9 37/68/9 40/74/9
f 33/75/10 31/65/10 34/76/10
f 31/65/11 29/66/11 32/67/11
f 15/65/12 13/66/12 16/67/12
f 13/66/13 11/77/13 14/78/13
f 11/77/14 9/71/14 12/79/14
f 3/69/15 1/80/15 4/81/15
f 23/72/16 21/68/16 24/74/16
f 25/71/17 23/72/17 26/73/17
f 41/71/18 39/72/18 42/73/18
f 43/77/19 41/71/19 44/79/19
f 35/69/20 33/80/20 36/81/20
f 29/66/21 27/77/21 30/78/21
f 21/68/22 19/69/22 22/70/22
f 17/75/23 15/65/23 18/76/23
f 19/69/24 17/80/24 20/81/24
f 27/77/25 25/71/25 28/79/25
f 1/80/15 2/82/15 4/81/15
f 3/69/5 4/81/5 6/70/5
f 5/68/6 6/70/6 8/74/6
f 7/72/4 8/74/4 10/73/4
f 9/71/14 10/73/14 12/79/14
f 11/77/13 12/79/13 14/78/13
f 13/66/12 14/78/12 16/67/12
f 15/65/23 16/67/23 18/76/23
f 17/80/24 18/82/24 20/81/24
f 19/69/22 20/81/22 22/70/22
f 21/68/16 22/70/16 24/74/16
f 23/72/17 24/74/17 26/73/17
f 25/71/25 26/73/25 28/79/25
f 27/77/21 28/79/21 30/78/21
f 29/66/11 30/78/11 32/67/11
f 31/65/10 32/67/10 34/76/10
f 33/80/20 34/82/20 36/81/20
f 35/69/3 36/81/3 38/70/3
f 37/68/9 38/70/9 40/74/9
f 39/72/18 40/74/18 42/73/18
f 41/71/19 42/73/19 44/79/19
f 43/77/8 44/79/8 46/78/8
f 45/66/2 46/78/2 48/67/2
f 47/65/7 48/67/7 50/76/7
f 49/80/26 50/82/26 52/81/26
f 51/69/27 52/81/27 54/70/27
f 53/68/28 54/70/28 56/74/28
f 55/72/29 56/74/29 58/73/29
f 57/71/30 58/73/30 60/79/30
f 59/77/31 60/79/31 62/78/31
f 61/66/32 62/78/32 64/67/32
f 63/65/33 64/67/33 66/76/33
f 65/80/34 66/82/34 68/81/34
f 67/69/35 68/81/35 70/70/35
f 69/68/36 70/70/36 72/74/36
f 71/72/37 72/74/37 74/73/37
f 73/71/38 74/73/38 76/79/38
f 75/77/39 76/79/39 78/78/39
f 77/66/40 78/78/40 80/67/40
f 79/65/41 80/67/41 82/76/41
f 81/80/42 82/82/42 84/81/42
f 83/69/43 84/81/43 86/70/43
f 85/68/44 86/70/44 88/74/44
f 87/72/45 88/74/45 90/73/45
f 89/71/46 90/73/46 92/79/46
f 91/77/47 92/79/47 94/78/47
f 93/66/48 94/78/48 96/67/48
f 95/65/49 96/67/49 98/76/49
f 97/80/50 98/82/50 100/81/50
f 99/69/51 100/81/51 102/70/51
f 101/68/52 102/70/52 104/74/52
f 103/72/53 104/74/53 106/73/53
f 105/71/54 106/73/54 108/79/54
f 107/77/55 108/79/55 110/78/55
f 109/66/56 110/78/56 112/67/56
f 111/65/57 112/67/57 114/76/57
f 113/80/58 114/82/58 116/81/58
f 115/69/59 116/81/59 118/70/59
f 117/68/60 118/70/60 120/74/60
f 119/72/61 120/74/61 122/73/61
f 121/71/62 122/73/62 124/79/62
f 123/77/63 124/79/63 126/78/63
f 125/66/64 126/78/64 128/67/64
f 127/65/65 128/67/65 2/76/65
f 51/69/26 49/80/26 52/81/26
f 53/68/27 51/69/27 54/70/27
f 55/72/28 53/68/28 56/74/28
f 57/71/29 55/72/29 58/73/29
f 59/77/30 57/71/30 60/79/30
f 61/66/31 59/77/31 62/78/31
f 63/65/32 61/66/32 64/67/32
f 65/75/33 63/65/33 66/76/33
f 67/69/34 65/80/34 68/81/34
f 69/68/35 67/69/35 70/70/35
f 71/72/36 69/68/36 72/74/36
f 73/71/37 71/72/37 74/73/37
f 75/77/38 73/71/38 76/79/38
f 77/66/39 75/77/39 78/78/39
f 79/65/40 77/66/40 80/67/40
f 81/75/41 79/65/41 82/76/41
f 83/69/42 81/80/42 84/81/42
f 85/68/43 83/69/43 86/70/43
f 87/72/44 85/68/44 88/74/44
f 89/71/45 87/72/45 90/73/45
f 91/77/46 89/71/46 92/79/46
f 93/66/47 91/77/47 94/78/47
f 95/65/48 93/66/48 96/67/48
f 97/75/49 95/65/49 98/76/49
f 99/69/50 97/80/50 100/81/50
f 101/68/51 99/69/51 102/70/51
f 103/72/52 101/68/52 104/74/52
f 105/71/53 103/72/53 106/73/53
f 107/77/54 105/71/54 108/79/54
f 109/66/55 107/77/55 110/78/55
f 111/65/56 109/66/56 112/67/56
f 113/75/57 111/65/57 114/76/57
f 115/69/66 113/80/66 116/81/66
f 117/68/59 115/69/59 118/70/59
f 119/72/60 117/68/60 120/74/60
f 121/71/61 119/72/61 122/73/61
f 123/77/62 121/71/62 124/79/62
f 125/66/63 123/77/63 126/78/63
f 127/65/64 125/66/64 128/67/64
f 1/75/65 127/65/65 2/76/65
