# Blender v2.70 (sub 5) OBJ File: 'search2.blend'
# www.blender.org
mtllib search2.mtl
o ColobotMesh_1_ColobotMesh_
v -0.000000 -0.006743 -1.000000
v -0.000000 5.993246 -1.000000
v 0.173648 -0.006743 -0.984807
v 0.173648 5.993246 -0.984808
v 0.342020 -0.006743 -0.939692
v 0.342020 5.993246 -0.939693
v 0.500000 -0.006743 -0.866025
v 0.500000 5.993246 -0.866025
v 0.642788 -0.006743 -0.766045
v 0.642788 5.993246 -0.766044
v 0.766044 -0.006743 -0.642787
v 0.766044 5.993246 -0.642788
v 0.866025 -0.006743 -0.500000
v 0.866025 5.993246 -0.500000
v 0.939693 -0.006743 -0.342020
v 0.939693 5.993246 -0.342020
v 0.984808 -0.006743 -0.173648
v 0.984808 5.993246 -0.173648
v 1.000000 -0.006743 -0.000000
v 1.000000 5.993246 0.000000
v 0.984808 -0.006743 0.173648
v 0.984808 5.993246 0.173648
v 0.939693 -0.006743 0.342020
v 0.939693 5.993246 0.342020
v 0.866026 -0.006743 0.500000
v 0.866026 5.993246 0.500000
v 0.766045 -0.006743 0.642787
v 0.766045 5.993246 0.642788
v 0.642788 -0.006743 0.766044
v 0.642788 5.993246 0.766044
v 0.500000 -0.006743 0.866025
v 0.500000 5.993246 0.866025
v 0.342020 -0.006743 0.939692
v 0.342020 5.993246 0.939693
v 0.173649 -0.006743 0.984808
v 0.173649 5.993246 0.984808
v 0.000000 -0.006743 1.000000
v 0.000000 5.993246 1.000000
v -0.173648 -0.006743 0.984808
v -0.173648 5.993246 0.984808
v -0.342020 -0.006743 0.939693
v -0.342020 5.993246 0.939693
v -0.500000 -0.006743 0.866026
v -0.500000 5.993246 0.866026
v -0.642787 -0.006743 0.766045
v -0.642787 5.993246 0.766045
v -0.766044 -0.006743 0.642788
v -0.766044 5.993246 0.642788
v -0.866025 -0.006743 0.500000
v -0.866025 5.993246 0.500000
v -0.939692 -0.006743 0.342021
v -0.939692 5.993246 0.342021
v -0.984808 -0.006743 0.173649
v -0.984808 5.993246 0.173649
v -1.000000 -0.006743 0.000000
v -1.000000 5.993246 0.000001
v -0.984808 -0.006743 -0.173647
v -0.984808 5.993246 -0.173648
v -0.939693 -0.006743 -0.342020
v -0.939693 5.993246 -0.342020
v -0.866026 -0.006743 -0.500000
v -0.866026 5.993246 -0.499999
v -0.766045 -0.006743 -0.642787
v -0.766045 5.993246 -0.642787
v -0.642788 -0.006743 -0.766044
v -0.642788 5.993246 -0.766044
v -0.500001 -0.006743 -0.866025
v -0.500001 5.993246 -0.866025
v -0.342021 -0.006743 -0.939692
v -0.342021 5.993246 -0.939692
v -0.173649 -0.006743 -0.984807
v -0.173649 5.993246 -0.984808
vt 0.001953 0.873047
vt 0.001954 0.376953
vt 0.006511 0.376953
vt 0.006510 0.873047
vt 0.011068 0.376953
vt 0.011068 0.873047
vt 0.015625 0.376953
vt 0.015625 0.873047
vt 0.020181 0.376953
vt 0.020182 0.873047
vt 0.024738 0.376953
vt 0.024739 0.873047
vt 0.029295 0.376953
vt 0.024740 0.873047
vt 0.001953 0.376953
vt 0.006510 0.376953
vt 0.011067 0.376953
vt 0.011067 0.873047
vt 0.015624 0.376953
vt 0.015624 0.873047
vt 0.020181 0.873047
vt 0.024737 0.376953
vt 0.029294 0.376953
vt 0.029296 0.873047
vt 0.029297 0.873047
vt 0.634385 0.994585
vt 0.630415 0.990615
vt 0.638724 0.988389
vt 0.638343 0.992739
vt 0.637854 0.993323
vt 0.637271 0.993812
vt 0.638984 0.991365
vt 0.638724 0.992080
vt 0.639116 0.989854
vt 0.639116 0.990615
vt 0.638984 0.989104
vt 0.637854 0.987146
vt 0.638343 0.987729
vt 0.636611 0.986276
vt 0.637271 0.986657
vt 0.635146 0.985883
vt 0.635896 0.986016
vt 0.633635 0.986016
vt 0.634385 0.985883
vt 0.632260 0.986657
vt 0.632920 0.986276
vt 0.631188 0.987729
vt 0.631677 0.987146
vt 0.630547 0.989104
vt 0.630807 0.988389
vt 0.630415 0.989854
vt 0.630807 0.992080
vt 0.630547 0.991365
vt 0.631677 0.993323
vt 0.631188 0.992739
vt 0.632920 0.994193
vt 0.632260 0.993812
vt 0.633635 0.994453
vt 0.635896 0.994453
vt 0.635146 0.994585
vt 0.636611 0.994193
vn 0.087154 0.000000 -0.996195
vn 0.258819 -0.000000 -0.965926
vn 0.422619 -0.000000 -0.906307
vn 0.573576 0.000000 -0.819153
vn 0.707106 0.000000 -0.707107
vn 0.819153 -0.000000 -0.573575
vn 0.906308 0.000000 -0.422619
vn 0.965926 -0.000000 -0.258819
vn 0.996195 0.000000 -0.087155
vn 0.996195 -0.000000 0.087155
vn 0.965926 0.000000 0.258819
vn 0.906308 -0.000000 0.422619
vn 0.819153 0.000000 0.573576
vn 0.707106 -0.000000 0.707107
vn 0.573576 -0.000000 0.819152
vn 0.422620 0.000000 0.906307
vn 0.258818 -0.000000 0.965926
vn 0.087157 0.000000 0.996195
vn -0.087157 -0.000000 0.996195
vn -0.258819 0.000000 0.965926
vn -0.422617 0.000000 0.906308
vn -0.573576 0.000000 0.819153
vn -0.707106 -0.000000 0.707108
vn -0.819153 -0.000000 0.573576
vn -0.906307 0.000000 0.422619
vn -0.965926 -0.000000 0.258819
vn -0.996195 0.000000 0.087156
vn -0.996195 0.000000 -0.087155
vn -0.965926 -0.000000 -0.258818
vn -0.906308 -0.000000 -0.422619
vn -0.819153 0.000000 -0.573575
vn -0.707106 -0.000000 -0.707107
vn -0.573578 0.000000 -0.819151
vn -0.422618 -0.000000 -0.906308
vn -0.087155 -0.000000 -0.996195
vn -0.258821 0.000000 -0.965925
vn 0.087157 -0.000000 -0.996195
vn 0.258818 -0.000000 -0.965926
vn 0.422617 0.000000 -0.906308
vn 0.707108 -0.000000 -0.707106
vn 0.819152 0.000000 -0.573577
vn 0.906308 -0.000000 -0.422618
vn 0.996195 0.000000 -0.087156
vn 0.906308 0.000000 0.422618
vn 0.819152 -0.000000 0.573577
vn 0.707107 -0.000000 0.707107
vn 0.573578 0.000000 0.819151
vn 0.422618 -0.000000 0.906308
vn 0.258821 0.000000 0.965925
vn 0.087155 -0.000000 0.996195
vn -0.087154 0.000000 0.996195
vn -0.258818 0.000000 0.965926
vn -0.573578 -0.000000 0.819151
vn -0.819152 0.000000 0.573577
vn -0.906308 -0.000000 0.422618
vn -0.965926 0.000000 0.258820
vn -0.906308 0.000000 -0.422617
vn -0.819152 -0.000000 -0.573576
vn -0.707108 0.000000 -0.707106
vn -0.573576 -0.000000 -0.819152
vn -0.422620 0.000000 -0.906307
vn -0.087156 0.000000 -0.996195
vn -0.258819 -0.000000 -0.965926
vn 0.000000 1.000000 -0.000001
vn 0.000000 1.000000 -0.000013
vn 0.000000 1.000000 0.000010
vn 0.000000 1.000000 -0.000002
vn 0.000000 1.000000 0.000002
vn 0.000000 1.000000 0.000008
vn 0.000000 1.000000 0.000011
vn 0.000000 1.000000 0.000023
vn 0.000000 1.000000 0.000037
vn 0.000000 1.000000 -0.000010
vn 0.000000 1.000000 0.000012
vn 0.000000 1.000000 0.000001
vn 0.000000 1.000000 -0.000008
vn 0.000000 1.000000 -0.000011
vn 0.000000 1.000000 -0.000023
vn 0.000000 1.000000 -0.000057
vn 0.000000 1.000000 0.000000
vn 0.000000 1.000000 -0.000006
vn 0.000000 1.000000 -0.000007
vn 0.000000 1.000000 0.000003
usemtl ColobotMesh_mat_1
s off
f 1/1/1 2/2/1 4/3/1
f 3/4/2 4/3/2 6/5/2
f 5/6/3 6/5/3 8/7/3
f 7/8/4 8/7/4 10/9/4
f 9/10/5 10/9/5 12/11/5
f 11/12/6 12/11/6 14/13/6
f 13/1/7 14/2/7 16/3/7
f 15/4/8 16/3/8 18/5/8
f 17/6/9 18/5/9 20/7/9
f 19/8/10 20/7/10 22/9/10
f 21/10/11 22/9/11 24/11/11
f 23/14/12 24/11/12 26/13/12
f 25/1/13 26/15/13 28/16/13
f 27/4/14 28/16/14 30/17/14
f 29/18/15 30/17/15 32/19/15
f 31/20/16 32/19/16 34/9/16
f 33/21/17 34/9/17 36/22/17
f 35/12/18 36/22/18 38/23/18
f 37/1/19 38/2/19 40/3/19
f 39/4/20 40/3/20 42/5/20
f 41/6/21 42/5/21 44/7/21
f 43/8/22 44/7/22 46/9/22
f 45/10/23 46/9/23 48/11/23
f 47/12/24 48/11/24 50/13/24
f 49/1/25 50/2/25 52/3/25
f 51/4/26 52/3/26 54/17/26
f 53/18/27 54/17/27 56/19/27
f 55/8/28 56/19/28 58/9/28
f 57/10/29 58/9/29 60/11/29
f 59/12/30 60/11/30 62/13/30
f 61/1/31 62/15/31 64/16/31
f 63/4/32 64/16/32 66/17/32
f 65/18/33 66/17/33 68/19/33
f 67/20/34 68/19/34 70/9/34
f 71/12/35 72/11/35 2/23/35
f 69/21/36 70/9/36 72/11/36
f 3/4/37 1/1/37 4/3/37
f 5/6/38 3/4/38 6/5/38
f 7/8/39 5/6/39 8/7/39
f 9/10/4 7/8/4 10/9/4
f 11/12/40 9/10/40 12/11/40
f 13/24/41 11/12/41 14/13/41
f 15/4/42 13/1/42 16/3/42
f 17/6/8 15/4/8 18/5/8
f 19/8/43 17/6/43 20/7/43
f 21/10/10 19/8/10 22/9/10
f 23/14/11 21/10/11 24/11/11
f 25/25/44 23/14/44 26/13/44
f 27/4/45 25/1/45 28/16/45
f 29/18/46 27/4/46 30/17/46
f 31/20/47 29/18/47 32/19/47
f 33/21/48 31/20/48 34/9/48
f 35/12/49 33/21/49 36/22/49
f 37/24/50 35/12/50 38/23/50
f 39/4/51 37/1/51 40/3/51
f 41/6/52 39/4/52 42/5/52
f 43/8/21 41/6/21 44/7/21
f 45/10/53 43/8/53 46/9/53
f 47/12/23 45/10/23 48/11/23
f 49/24/54 47/12/54 50/13/54
f 51/4/55 49/1/55 52/3/55
f 53/18/56 51/4/56 54/17/56
f 55/8/27 53/18/27 56/19/27
f 57/10/28 55/8/28 58/9/28
f 59/12/29 57/10/29 60/11/29
f 61/24/57 59/12/57 62/13/57
f 63/4/58 61/1/58 64/16/58
f 65/18/59 63/4/59 66/17/59
f 67/20/60 65/18/60 68/19/60
f 69/21/61 67/20/61 70/9/61
f 1/24/62 71/12/62 2/23/62
f 71/12/63 69/21/63 72/11/63
usemtl ColobotMesh_mat_1_lemt.png
f 68/26/64 52/27/64 20/28/64
f 8/29/65 6/30/65 4/31/65
f 12/32/66 10/33/66 8/29/66
f 16/34/64 14/35/64 12/32/64
f 20/28/67 18/36/67 16/34/67
f 24/37/68 22/38/68 20/28/68
f 28/39/69 26/40/69 24/37/69
f 32/41/70 30/42/70 28/39/70
f 36/43/71 34/44/71 32/41/71
f 40/45/72 38/46/72 36/43/72
f 44/47/73 42/48/73 40/45/73
f 48/49/74 46/50/74 44/47/74
f 52/27/75 50/51/75 48/49/75
f 56/52/68 54/53/68 52/27/68
f 60/54/67 58/55/67 56/52/67
f 64/56/76 62/57/76 60/54/76
f 68/26/77 66/58/77 64/56/77
f 72/59/78 70/60/78 68/26/78
f 4/31/79 2/61/79 72/59/79
f 12/32/75 8/29/75 4/31/75
f 20/28/64 16/34/64 12/32/64
f 28/39/80 24/37/80 20/28/80
f 36/43/81 32/41/81 28/39/81
f 44/47/81 40/45/81 36/43/81
f 52/27/80 48/49/80 44/47/80
f 60/54/80 56/52/80 52/27/80
f 68/26/64 64/56/64 60/54/64
f 4/31/82 72/59/82 68/26/82
f 20/28/80 12/32/80 4/31/80
f 36/43/80 28/39/80 20/28/80
f 52/27/83 44/47/83 36/43/83
f 68/26/75 60/54/75 52/27/75
f 20/28/75 4/31/75 68/26/75
f 52/27/80 36/43/80 20/28/80
