# Blender v2.77 (sub 0) OBJ File: 'spider3.blend'
# www.blender.org
mtllib spider3.mtl
o ColobotMesh_1_ColobotMesh_
v 0.006425 -0.222238 -2.001810
v 0.006425 -0.118898 -0.003130
v -0.114514 0.090575 -0.003130
v -0.204009 0.142245 -2.001810
v 0.127364 0.090575 -0.003130
v 0.216860 0.142245 -2.001810
v -0.039692 -0.052425 0.006255
v -0.080005 0.017399 0.006255
v -0.220642 0.151848 -0.669920
v -0.250474 0.169071 -1.336146
v 0.233489 0.151847 -0.669923
v 0.263321 0.169070 -1.336149
v 0.006425 -0.241444 -0.669920
v 0.006425 -0.275891 -1.336146
v -0.033888 0.097278 0.006256
v 0.046738 0.097278 0.006256
v -0.074449 -0.106938 -2.017537
v -0.144593 0.014556 -2.017537
v 0.123121 -0.058107 -0.666276
v 0.193266 0.028941 -1.332502
v -0.063719 0.154634 -2.017537
v 0.076570 0.154634 -2.017537
v 0.092856 0.017399 0.006256
v 0.052543 -0.052425 0.006256
v 0.016370 0.161241 -0.666276
v -0.094088 0.178464 -1.332502
v 0.157444 0.014556 -2.017537
v 0.087299 -0.106938 -2.017537
v -0.120215 -0.040882 -0.666276
v -0.079902 -0.145153 -1.332502
v -0.063034 -0.152266 -0.662746
v -0.199841 -0.013650 -1.373949
v -0.108682 0.167413 -0.662746
v 0.079767 0.216583 -1.373949
v 0.190990 0.047105 -0.662748
v 0.139350 -0.140681 -1.373949
v 0.003523 0.022426 0.016166
v 0.001061 0.023848 -2.035097
vt 0.8418 0.9980
vt 0.8366 0.9980
vt 0.8418 0.9160
vt 0.8261 0.9980
vt 0.8222 0.9160
vt 0.8313 0.9160
vt 0.8203 0.9980
vt 0.8255 0.9980
vt 0.8183 0.9160
vt 0.8360 0.9980
vt 0.8379 0.9160
vt 0.8288 0.9160
vt 0.8302 0.9980
vt 0.8249 0.9980
vt 0.8340 0.9160
vt 0.8145 0.9980
vt 0.8145 0.9160
vt 0.8236 0.9160
vt 0.7656 0.9395
vt 0.7702 0.9486
vt 0.7611 0.9486
vt 0.7803 0.9668
vt 0.7803 0.9577
vt 0.7712 0.9668
vt 0.8418 0.8340
vt 0.8366 0.8340
vt 0.8418 0.7520
vt 0.8366 0.9160
vt 0.8313 0.9980
vt 0.8327 0.7520
vt 0.8274 0.8340
vt 0.8236 0.7520
vt 0.8183 0.8340
vt 0.8145 0.7520
vt 0.8164 0.8340
vt 0.8216 0.8340
vt 0.8236 0.9160
vt 0.8307 0.9980
vt 0.8236 0.7520
vt 0.8307 0.8340
vt 0.8327 0.7520
vt 0.8399 0.8340
vt 0.8418 0.7520
vt 0.8379 0.8340
vt 0.8327 0.8340
vt 0.8288 0.9160
vt 0.8197 0.9980
vt 0.8327 0.7520
vt 0.8236 0.8340
vt 0.8236 0.7520
vt 0.8145 0.8340
vt 0.8145 0.7520
vt 0.7565 0.9577
vt 0.7611 0.9668
vt 0.7520 0.9668
vt 0.7656 0.9577
vt 0.7702 0.9668
vt 0.7747 0.9577
vt 0.7793 0.9668
vt 0.7620 0.9668
vt 0.7620 0.9577
vt 0.7529 0.9668
vt 0.7712 0.9577
vt 0.7712 0.9486
vt 0.7803 0.9486
vt 0.7803 0.9395
vn 0.0048 -0.8252 0.5648
vn -0.5638 -0.4167 0.7130
vn 0.0370 -0.9904 0.1327
vn -0.7170 0.4084 0.5648
vn -0.8762 0.4632 0.1327
vn -0.8823 -0.4650 0.0729
vn -0.0792 0.6976 0.7121
vn 0.7122 0.4167 0.5648
vn 0.8393 0.5273 0.1327
vn 0.0385 0.9966 0.0729
vn 0.6417 -0.2807 0.7138
vn 0.8438 -0.5316 0.0729
vn 0.5649 -0.4196 0.7105
vn 0.7365 0.4226 -0.5281
vn 0.6601 -0.2768 -0.6983
vn 0.0897 0.7067 -0.7017
vn -0.0882 -0.9958 -0.0247
vn -0.7944 -0.6074 -0.0005
vn -0.0023 -0.8491 -0.5281
vn -0.8391 -0.5398 0.0667
vn -0.6479 -0.2790 0.7088
vn -0.5696 -0.4347 -0.6975
vn -0.8788 -0.4767 -0.0189
vn -0.6579 -0.2761 -0.7006
vn -0.8183 0.5743 -0.0247
vn -0.7342 0.4265 -0.5282
vn -0.1288 0.9916 -0.0005
vn -0.0479 0.9966 0.0667
vn 0.0822 0.6996 0.7098
vn -0.0918 0.7117 -0.6964
vn 0.0266 0.9995 -0.0189
vn 0.9065 0.4215 -0.0247
vn 0.9232 -0.3842 -0.0005
vn 0.8871 -0.4568 0.0667
vn 0.8523 -0.5228 -0.0189
vn 0.5674 -0.4295 -0.7025
vn -0.0046 0.0027 1.0000
vn -0.0050 0.0029 -1.0000
usemtl ColobotMesh_mat_1
s 1
f 2/1/1 7/2/2 13/3/3
f 3/4/4 9/5/5 29/6/6
f 3/7/4 15/8/7 9/9/5
f 5/10/8 11/11/9 25/12/10
f 5/13/8 23/14/11 11/15/9
f 2/16/1 13/17/3 19/18/12
f 2/19/1 24/20/13 7/21/2
f 6/22/14 27/23/15 22/24/16
f 14/25/17 30/26/18 1/27/19
f 13/3/3 31/28/20 14/25/17
f 14/25/17 31/28/20 30/26/18
f 31/28/20 29/6/6 30/26/18
f 13/3/3 7/2/2 31/28/20
f 7/2/2 8/29/21 31/28/20
f 31/28/20 8/29/21 29/6/6
f 8/29/21 3/4/4 29/6/6
f 30/26/18 17/30/22 1/27/19
f 29/6/6 32/31/23 30/26/18
f 30/26/18 32/31/23 17/30/22
f 32/31/23 18/32/24 17/30/22
f 29/6/6 9/5/5 32/31/23
f 9/5/5 10/33/25 32/31/23
f 32/31/23 10/33/25 18/32/24
f 10/33/25 4/34/26 18/32/24
f 10/35/25 26/36/27 4/34/26
f 9/9/5 33/37/28 10/35/25
f 10/35/25 33/37/28 26/36/27
f 33/37/28 25/12/10 26/36/27
f 9/9/5 15/8/7 33/37/28
f 15/8/7 16/38/29 33/37/28
f 33/37/28 16/38/29 25/12/10
f 16/38/29 5/10/8 25/12/10
f 26/36/27 21/39/30 4/34/26
f 25/12/10 34/40/31 26/36/27
f 26/36/27 34/40/31 21/39/30
f 34/40/31 22/41/16 21/39/30
f 25/12/10 11/11/9 34/40/31
f 11/11/9 12/42/32 34/40/31
f 34/40/31 12/42/32 22/41/16
f 12/42/32 6/43/14 22/41/16
f 12/44/32 20/45/33 6/43/14
f 11/15/9 35/46/34 12/44/32
f 12/44/32 35/46/34 20/45/33
f 35/46/34 19/18/12 20/45/33
f 11/15/9 23/14/11 35/46/34
f 23/14/11 24/47/13 35/46/34
f 35/46/34 24/47/13 19/18/12
f 24/47/13 2/16/1 19/18/12
f 20/45/33 27/48/15 6/43/14
f 19/18/12 36/49/35 20/45/33
f 20/45/33 36/49/35 27/48/15
f 36/49/35 28/50/36 27/48/15
f 19/18/12 13/17/3 36/49/35
f 13/17/3 14/51/17 36/49/35
f 36/49/35 14/51/17 28/50/36
f 14/51/17 1/52/19 28/50/36
f 8/53/21 15/54/7 3/55/4
f 7/21/2 37/56/37 8/53/21
f 8/53/21 37/56/37 15/54/7
f 37/56/37 16/57/29 15/54/7
f 7/21/2 24/20/13 37/56/37
f 24/20/13 23/58/11 37/56/37
f 37/56/37 23/58/11 16/57/29
f 23/58/11 5/59/8 16/57/29
f 21/60/30 18/61/24 4/62/26
f 22/24/16 38/63/38 21/60/30
f 21/60/30 38/63/38 18/61/24
f 38/63/38 17/64/22 18/61/24
f 22/24/16 27/23/15 38/63/38
f 27/23/15 28/65/36 38/63/38
f 38/63/38 28/65/36 17/64/22
f 28/65/36 1/66/19 17/64/22
