# Blender v2.77 (sub 0) OBJ File: 'spider6.blend'
# www.blender.org
mtllib spider6.mtl
o ColobotMesh_1_ColobotMesh_
v -0.016788 -0.240873 -0.485530
v 0.250716 0.177509 -0.479651
v -0.005421 0.030882 0.112120
v -0.245401 0.199971 -0.480066
v -0.000912 0.553266 -1.320130
v 0.177368 0.132165 -0.245346
v 0.091989 0.083289 -0.048089
v -0.007679 0.282345 -1.105030
v -0.012971 0.017632 -0.826830
v -0.176397 0.147840 -0.245504
v -0.096404 0.091477 -0.048108
v -0.114937 -0.109459 -0.483877
v -0.191141 0.037489 -0.482055
v -0.013961 -0.171736 -0.253875
v -0.010172 -0.081151 -0.054658
v 0.094787 0.459668 -1.085566
v 0.178663 0.334415 -0.805407
v 0.093103 -0.118721 -0.484171
v 0.182271 0.020739 -0.482211
v -0.173852 0.349593 -0.805088
v -0.092356 0.467358 -1.085109
v 0.086382 0.205454 -0.472761
v -0.078990 0.212942 -0.472899
v 0.094996 -0.034728 -0.232951
v 0.001354 0.152621 -0.223658
v -0.109389 -0.025822 -0.232924
v 0.105598 0.148636 -0.838395
v 0.024258 0.367767 -0.810825
v -0.142755 0.184889 -0.824892
vt 0.8457 0.9475
vt 0.8548 0.9477
vt 0.8461 0.9644
vt 0.8730 0.9480
vt 0.8639 0.9480
vt 0.8683 0.9647
vt 0.8457 0.9480
vt 0.8542 0.9478
vt 0.8546 0.9647
vt 0.8473 0.8770
vt 0.8559 0.9006
vt 0.8468 0.9005
vt 0.8592 0.8770
vt 0.8547 0.9006
vt 0.8638 0.9006
vt 0.8730 0.8770
vt 0.8725 0.9005
vt 0.8639 0.9006
vt 0.8465 0.9812
vt 0.8556 0.9814
vt 0.8469 0.9980
vt 0.8552 0.9645
vt 0.8643 0.9647
vt 0.8639 0.9478
vt 0.8636 0.9814
vt 0.8545 0.9814
vt 0.8589 0.9980
vt 0.8592 0.9647
vt 0.8501 0.9647
vt 0.8548 0.9480
vt 0.8636 0.9814
vt 0.8721 0.9812
vt 0.8725 0.9980
vt 0.8632 0.9645
vt 0.8717 0.9644
vt 0.8627 0.9477
vt 0.8713 0.9475
vt 0.8462 0.9240
vt 0.8554 0.9242
vt 0.8645 0.9243
vt 0.8684 0.9243
vt 0.8593 0.9243
vt 0.8502 0.9243
vt 0.8548 0.9243
vt 0.8633 0.9241
vt 0.8719 0.9240
vn -0.0420 -0.9877 -0.1502
vn 0.7799 -0.6145 -0.1189
vn -0.0434 -0.9357 0.3500
vn 0.9279 0.3530 0.1197
vn 0.1152 0.9388 0.3245
vn 0.8143 0.4258 0.3944
vn -0.8902 0.4336 0.1396
vn -0.9224 -0.3821 -0.0560
vn -0.7733 0.4971 0.3934
vn 0.0029 0.5209 -0.8536
vn 0.8310 0.5410 -0.1289
vn -0.0371 -0.6164 -0.7865
vn -0.7895 0.6061 -0.0968
vn -0.0403 -0.8506 0.5242
vn 0.7486 0.3854 0.5394
vn -0.0031 -0.0093 0.9999
vn 0.8139 -0.5245 0.2499
vn 0.8829 -0.4626 -0.0796
vn -0.7135 0.4516 0.5356
vn 0.0425 0.9585 0.2819
vn -0.0299 0.9452 0.3251
vn -0.8589 -0.4481 0.2478
vn -0.8330 -0.5433 -0.1039
vn -0.0518 -0.7772 -0.6270
vn 0.7726 -0.4595 -0.4381
vn 0.8686 0.4951 0.0188
vn 0.0576 0.9233 0.3796
vn -0.8015 0.5935 0.0724
vn -0.8568 -0.3506 -0.3780
usemtl ColobotMesh_mat_1
s 1
f 1/1/1 18/2/2 14/3/3
f 2/4/4 22/5/5 6/6/6
f 4/7/7 13/8/8 10/9/9
f 5/10/10 16/11/11 8/12/12
f 5/13/10 21/14/13 16/15/11
f 5/16/10 8/17/12 21/18/13
f 15/19/14 7/20/15 3/21/16
f 14/3/3 24/22/17 15/19/14
f 15/19/14 24/22/17 7/20/15
f 24/22/17 6/23/6 7/20/15
f 14/3/3 18/2/2 24/22/17
f 18/2/2 19/24/18 24/22/17
f 24/22/17 19/24/18 6/23/6
f 19/24/18 2/4/4 6/23/6
f 7/25/15 11/26/19 3/27/16
f 6/6/6 25/28/20 7/25/15
f 7/25/15 25/28/20 11/26/19
f 25/28/20 10/29/9 11/26/19
f 6/6/6 22/5/5 25/28/20
f 22/5/5 23/30/21 25/28/20
f 25/28/20 23/30/21 10/29/9
f 23/30/21 4/7/7 10/29/9
f 11/31/19 15/32/14 3/33/16
f 10/9/9 26/34/22 11/31/19
f 11/31/19 26/34/22 15/32/14
f 26/34/22 14/35/3 15/32/14
f 10/9/9 13/8/8 26/34/22
f 13/8/8 12/36/23 26/34/22
f 26/34/22 12/36/23 14/35/3
f 12/36/23 1/37/1 14/35/3
f 9/38/24 18/2/2 1/1/1
f 8/12/12 27/39/25 9/38/24
f 9/38/24 27/39/25 18/2/2
f 27/39/25 19/24/18 18/2/2
f 8/12/12 16/11/11 27/39/25
f 16/11/11 17/40/26 27/39/25
f 27/39/25 17/40/26 19/24/18
f 17/40/26 2/4/4 19/24/18
f 17/41/26 22/5/5 2/4/4
f 16/15/11 28/42/27 17/41/26
f 17/41/26 28/42/27 22/5/5
f 28/42/27 23/30/21 22/5/5
f 16/15/11 21/14/13 28/42/27
f 21/14/13 20/43/28 28/42/27
f 28/42/27 20/43/28 23/30/21
f 20/43/28 4/7/7 23/30/21
f 20/44/28 13/8/8 4/7/7
f 21/18/13 29/45/29 20/44/28
f 20/44/28 29/45/29 13/8/8
f 29/45/29 12/36/23 13/8/8
f 21/18/13 8/17/12 29/45/29
f 8/17/12 9/46/24 29/45/29
f 29/45/29 9/46/24 12/36/23
f 9/46/24 1/37/1 12/36/23
