# Blender v2.70 (sub 5) OBJ File: 'spider2.blend'
# www.blender.org
mtllib spider2.mtl
o ColobotMesh_1_ColobotMesh_
v 1.346320 0.064060 -0.534146
v 1.046980 0.781197 0.002424
v 1.804930 -0.011295 0.002424
v 1.167020 -0.590841 -0.329195
v 1.167020 -0.590841 0.334042
v 1.346320 0.064060 0.538994
v 0.400284 0.585666 -0.217593
v 0.400284 0.585665 0.230946
v 0.443685 0.089586 -0.422545
v 0.499856 -0.552456 0.002424
v 0.443685 0.089585 0.435897
v -0.173393 0.119999 0.002424
v 0.127312 0.450198 0.170782
v -0.063914 0.294976 0.094608
v 0.377679 0.629110 -0.067954
v 0.377679 0.629110 0.081559
v 0.928390 -0.426779 0.446552
v 0.687279 -0.199970 0.480504
v 0.393034 0.442973 -0.326343
v 0.407501 0.277613 -0.394661
v 1.191663 0.620102 0.235415
v 1.291443 0.381056 0.414271
v 1.682592 -0.251325 -0.142929
v 1.469955 -0.444507 -0.253468
v 0.431657 -0.393481 0.188666
v 0.412933 -0.179467 0.333157
v 0.933675 -0.645116 0.248225
v 0.711287 -0.632321 0.137686
v 0.833184 0.778006 -0.085690
v 0.617619 0.712829 -0.159029
v 0.127758 0.449717 -0.160440
v -0.063468 0.294495 -0.087101
v 0.393076 0.442797 0.339856
v 0.407543 0.277437 0.408173
v 0.928579 -0.426845 -0.438565
v 0.687468 -0.200036 -0.469681
v 0.156699 0.095906 0.310284
v -0.048994 0.106044 0.165793
v 0.157501 0.096038 -0.299513
v -0.048192 0.106176 -0.157857
v 1.253365 -0.400897 0.464610
v 1.313132 -0.182597 0.532928
v 1.057428 0.078384 0.580379
v 0.756549 0.086893 0.546014
v 1.312875 -0.182497 -0.528169
v 1.253109 -0.400798 -0.459852
v 1.406671 0.581509 0.002259
v 1.659321 0.317345 0.002259
v 1.033249 0.299423 0.538110
v 0.717903 0.473291 0.435427
v 1.721533 0.019813 0.214072
v 1.568663 0.044931 0.392929
v 1.186650 -0.662355 -0.108279
v 1.186650 -0.662355 0.112800
v 0.184509 -0.352298 0.002009
v -0.039908 -0.128147 0.002009
v 1.057760 0.078606 -0.572437
v 0.756882 0.087115 -0.535236
v 1.568655 0.044986 -0.388426
v 1.721525 0.019867 -0.209570
v 0.413350 -0.179045 -0.322328
v 0.432073 -0.393059 -0.180672
v 0.933708 -0.644825 -0.243643
v 0.711320 -0.632030 -0.133103
v 1.291108 0.380760 -0.409842
v 1.191328 0.619806 -0.230985
v 1.033176 0.299388 -0.530745
v 0.717831 0.473256 -0.425228
v 0.833074 0.778487 0.093484
v 0.617509 0.713310 0.169658
v 1.682672 -0.251257 0.147584
v 1.470035 -0.444439 0.258124
v 1.550067 0.354716 -0.226507
v 1.558901 -0.214543 -0.357026
v 1.512096 -0.490451 0.002203
v 1.559030 -0.214591 0.361466
v 1.550290 0.354851 0.230700
v 0.610565 0.747669 0.005369
v 0.732184 0.295118 -0.513314
v 0.679953 -0.467423 -0.333286
v 0.679700 -0.468027 0.341364
v 0.732131 0.294906 0.523953
v 0.942411 0.605036 -0.351599
v 0.998328 -0.190677 -0.556691
v 0.931489 -0.700221 0.002133
v 0.998189 -0.190902 0.564638
v 0.942578 0.605581 0.359098
v 0.115751 0.285529 -0.251179
v 0.120308 -0.154999 -0.171172
v 0.119278 -0.155325 0.178643
v 0.114965 0.285694 0.261824
v 0.098438 0.473795 0.005208
vt 0.440998 0.251953
vt 0.428586 0.272135
vt 0.460014 0.272135
vt 0.418694 0.275080
vt 0.426129 0.267371
vt 0.445145 0.287553
vt 0.418694 0.349920
vt 0.418694 0.324973
vt 0.445145 0.337447
vt 0.440998 0.373047
vt 0.433563 0.365338
vt 0.460014 0.352865
vt 0.403762 0.312500
vt 0.416174 0.332682
vt 0.435190 0.312500
vt 0.323316 0.287673
vt 0.323316 0.304544
vt 0.350131 0.295949
vt 0.328715 0.264546
vt 0.326915 0.272255
vt 0.366143 0.260348
vt 0.335702 0.312500
vt 0.333373 0.296515
vt 0.363366 0.300027
vt 0.328715 0.361413
vt 0.331044 0.345109
vt 0.358708 0.357582
vt 0.323316 0.338287
vt 0.325116 0.345996
vt 0.362543 0.349874
vt 0.416174 0.292318
vt 0.376947 0.304224
vt 0.433563 0.259662
vt 0.403570 0.256151
vt 0.418694 0.300027
vt 0.391030 0.287553
vt 0.426129 0.357629
vt 0.388701 0.353751
vt 0.428586 0.352865
vt 0.401771 0.361460
vt 0.325116 0.279964
vt 0.299528 0.295949
vt 0.331044 0.280531
vt 0.303128 0.280531
vt 0.333373 0.328804
vt 0.307786 0.312500
vt 0.326915 0.353704
vt 0.303128 0.345109
vt 0.323316 0.321416
vt 0.299528 0.329691
vt 0.479031 0.292318
vt 0.466619 0.312500
vt 0.498047 0.312500
vt 0.447602 0.292318
vt 0.471596 0.300027
vt 0.452580 0.279844
vt 0.471596 0.324973
vt 0.445145 0.312500
vt 0.479031 0.332682
vt 0.452580 0.345156
vt 0.447602 0.332682
vt 0.376947 0.321096
vt 0.350131 0.312820
vt 0.350131 0.329691
vt 0.401771 0.263860
vt 0.364343 0.268057
vt 0.362543 0.275766
vt 0.388701 0.271569
vt 0.361037 0.284042
vt 0.358708 0.268057
vt 0.391030 0.337447
vt 0.361037 0.341278
vt 0.363366 0.324973
vt 0.403570 0.369169
vt 0.364343 0.357582
vt 0.366143 0.365291
vt 0.389359 0.284042
vt 0.396136 0.263860
vt 0.391030 0.312500
vt 0.396136 0.361460
vt 0.389359 0.341278
vt 0.275741 0.304224
vt 0.277540 0.296515
vt 0.251953 0.312500
vt 0.301328 0.288240
vt 0.279869 0.312500
vt 0.305457 0.296515
vt 0.277540 0.328804
vt 0.305457 0.328804
vt 0.275741 0.321096
vt 0.301328 0.337400
vt 0.299528 0.312820
vn 0.528198 0.388444 -0.755062
vn 0.461583 -0.634984 -0.619465
vn 0.475371 -0.823923 0.308502
vn 0.541036 -0.093354 0.835802
vn 0.464628 0.836681 0.289975
vn -0.416166 0.854471 -0.310942
vn -0.337106 0.074311 -0.938529
vn -0.545015 -0.721785 -0.426596
vn -0.471387 -0.267080 0.840513
vn -0.278240 0.591145 0.757054
vn 0.184664 0.858098 -0.479132
vn 0.129369 -0.041566 -0.990725
vn 0.102972 -0.943618 -0.314615
vn -0.000703 -0.566258 0.824228
vn 0.293424 0.393575 0.871207
vn -0.428509 0.561357 -0.707996
vn -0.384055 -0.284344 -0.878436
vn -0.475104 -0.747563 0.464140
vn -0.399213 0.058236 0.915007
vn -0.476613 0.822179 0.311226
vn 0.875726 0.387858 -0.287526
vn 0.736308 0.347660 -0.580503
vn 0.845215 0.415806 -0.335734
vn 0.703948 0.673265 -0.226210
vn 0.553814 0.411613 -0.723785
vn 0.483819 0.644742 -0.591799
vn 0.551020 0.739135 -0.387371
vn 0.464234 0.836451 -0.291268
vn 0.895472 -0.223191 -0.385117
vn 0.710821 -0.498425 -0.496292
vn 0.820763 -0.244682 -0.516216
vn 0.748285 -0.107325 -0.654637
vn 0.536736 -0.510219 -0.672005
vn 0.494347 -0.380008 -0.781802
vn 0.556283 -0.120386 -0.822226
vn 0.540134 -0.093543 -0.836364
vn 0.890986 -0.454032 -0.000141
vn 0.717770 -0.655154 0.235755
vn 0.814204 -0.580580 -0.000090
vn 0.717795 -0.655031 -0.236018
vn 0.514925 -0.824977 0.232950
vn 0.467058 -0.884227 0.000000
vn 0.514887 -0.824955 -0.233110
vn 0.475196 -0.823866 -0.308924
vn 0.895346 -0.222928 0.385563
vn 0.748314 -0.107142 0.654635
vn 0.820776 -0.244322 0.516366
vn 0.710811 -0.498381 0.496350
vn 0.557237 -0.120290 0.821595
vn 0.495264 -0.380070 0.781192
vn 0.537483 -0.510040 0.671544
vn 0.462002 -0.635361 0.618766
vn 0.875504 0.388049 0.287943
vn 0.704070 0.673382 0.225483
vn 0.845518 0.415515 0.335331
vn 0.736334 0.347539 0.580542
vn 0.551729 0.739088 0.386451
vn 0.484580 0.644660 0.591266
vn 0.554589 0.411476 0.723269
vn 0.529054 0.388435 0.754467
vn -0.013813 0.999901 -0.002691
vn -0.216317 0.953187 -0.211284
vn -0.136126 0.990688 -0.002742
vn -0.214763 0.954124 0.208624
vn -0.391376 0.896688 -0.206822
vn -0.453681 0.891164 0.000002
vn -0.390226 0.897777 0.204256
vn -0.414591 0.855068 0.311405
vn 0.138755 0.198658 -0.970197
vn -0.119700 0.089991 -0.988723
vn -0.059411 0.178836 -0.982083
vn -0.058155 0.438736 -0.896732
vn -0.345414 0.057704 -0.936675
vn -0.339391 0.333659 -0.879480
vn -0.300728 0.403157 -0.864307
vn -0.284983 0.590138 -0.755329
vn -0.117422 -0.663502 -0.738903
vn -0.326394 -0.754552 -0.569313
vn -0.201198 -0.655574 -0.727834
vn -0.292269 -0.428028 -0.855202
vn -0.514750 -0.700029 -0.494966
vn -0.558765 -0.491183 -0.668222
vn -0.458467 -0.393572 -0.796812
vn -0.472518 -0.260715 -0.841876
vn -0.114218 -0.669485 0.733992
vn -0.288731 -0.434638 0.853068
vn -0.196216 -0.661900 0.723455
vn -0.323655 -0.760348 0.563133
vn -0.456735 -0.399636 0.794786
vn -0.558286 -0.497233 0.664135
vn -0.513136 -0.705203 0.489265
vn -0.543568 -0.726230 0.420861
vn 0.148680 0.201405 0.968158
vn -0.048749 0.440883 0.896240
vn -0.048904 0.182439 0.982000
vn -0.110431 0.091988 0.989618
vn -0.292813 0.406209 0.865595
vn -0.332489 0.335119 0.881559
vn -0.338222 0.059897 0.939158
vn -0.330482 0.075268 0.940806
vn -0.213062 0.684999 -0.696693
vn -0.058710 0.825617 -0.561168
vn -0.180798 0.696242 -0.694665
vn -0.011831 0.503009 -0.864200
vn 0.182825 0.856764 -0.482214
vn 0.300378 0.648625 -0.699327
vn 0.211394 0.540199 -0.814554
vn 0.285761 0.392886 -0.874060
vn -0.336539 -0.131518 -0.932440
vn -0.123503 -0.030741 -0.991868
vn -0.262010 -0.154153 -0.952674
vn -0.239114 -0.376957 -0.894834
vn 0.092048 -0.078361 -0.992666
vn 0.093804 -0.320650 -0.942542
vn -0.023379 -0.441687 -0.896865
vn -0.008925 -0.563764 -0.825888
vn -0.352780 -0.935706 -0.001048
vn -0.163863 -0.962023 -0.218311
vn -0.295260 -0.955417 -0.001062
vn -0.163215 -0.962439 0.216959
vn 0.049763 -0.974415 -0.219176
vn 0.146793 -0.989167 0.000000
vn 0.050179 -0.974701 0.217809
vn 0.103920 -0.943638 0.314242
vn -0.330042 -0.133700 0.934450
vn -0.231282 -0.379937 0.895632
vn -0.253722 -0.156708 0.954499
vn -0.114337 -0.032890 0.992897
vn -0.014401 -0.444203 0.895810
vn 0.103239 -0.322706 0.940852
vn 0.101953 -0.080391 0.991536
vn 0.139581 -0.043112 0.989272
vn -0.206358 0.686128 0.697600
vn -0.003342 0.504014 0.863689
vn -0.174231 0.697157 0.695424
vn -0.052203 0.826953 0.559842
vn 0.219033 0.540027 0.812647
vn 0.307659 0.649017 0.695789
vn 0.188421 0.856768 0.480049
vn 0.191346 0.858905 0.475045
vn -0.769623 0.168920 -0.615749
vn -0.601402 0.419689 -0.679836
vn -0.652804 0.219460 -0.725041
vn -0.562214 0.085934 -0.822515
vn -0.464059 0.454216 -0.760485
vn -0.411617 0.316998 -0.854449
vn -0.434608 0.131509 -0.890966
vn -0.393082 0.060422 -0.917516
vn -0.739615 -0.396954 -0.543505
vn -0.548855 -0.314619 -0.774451
vn -0.697578 -0.420475 -0.580160
vn -0.620757 -0.621490 -0.477923
vn -0.451723 -0.352151 -0.819717
vn -0.423703 -0.525439 -0.737828
vn -0.516048 -0.653731 -0.553471
vn -0.471661 -0.744080 -0.473161
vn -0.744846 -0.401566 0.532869
vn -0.624924 -0.625662 0.466924
vn -0.703911 -0.425211 0.568951
vn -0.555153 -0.319660 0.767869
vn -0.520029 -0.659243 0.543110
vn -0.428340 -0.531068 0.731089
vn -0.457639 -0.358239 0.813776
vn -0.389148 -0.289463 0.874514
vn -0.777495 0.167038 0.606300
vn -0.570059 0.083349 0.817365
vn -0.660302 0.218563 0.718492
vn -0.608443 0.418748 0.674127
vn -0.440633 0.129906 0.888238
vn -0.417362 0.315561 0.852191
vn -0.469126 0.454325 0.757305
vn -0.433529 0.560043 0.705978
vn -0.846909 0.531727 -0.003489
vn -0.665933 0.713507 0.217810
vn -0.741262 0.671206 -0.003599
vn -0.664365 0.713876 -0.221358
vn -0.518324 0.829358 0.208579
vn -0.486077 0.873916 0.000001
vn -0.516867 0.829390 -0.212041
vn -0.475673 0.822898 -0.310766
usemtl ColobotMesh_mat_1
s off
f 1/1/1 65/2/1 59/3/1
f 4/4/2 46/5/2 24/6/2
f 5/7/3 54/8/3 72/9/3
f 6/10/4 42/11/4 52/12/4
f 2/13/5 21/14/5 47/15/5
f 7/16/6 15/17/6 30/18/6
f 9/19/7 20/20/7 58/21/7
f 10/22/8 62/23/8 64/24/8
f 11/25/9 26/26/9 18/27/9
f 8/28/10 33/29/10 50/30/10
f 2/13/11 66/31/11 29/32/11
f 1/1/12 45/33/12 57/34/12
f 4/4/13 53/35/13 63/36/13
f 5/7/14 41/37/14 17/38/14
f 6/10/15 22/39/15 49/40/15
f 7/16/16 19/41/16 31/42/16
f 9/19/17 61/43/17 39/44/17
f 10/22/18 25/45/18 55/46/18
f 11/25/19 34/47/19 37/48/19
f 8/28/20 16/49/20 13/50/20
f 60/51/21 48/52/21 3/53/21
f 59/3/22 73/54/22 60/51/22
f 60/51/23 73/54/23 48/52/23
f 73/54/24 47/15/24 48/52/24
f 59/3/25 65/2/25 73/54/25
f 65/2/26 66/31/26 73/54/26
f 73/54/27 66/31/27 47/15/27
f 66/31/28 2/13/28 47/15/28
f 23/55/29 60/51/29 3/53/29
f 24/6/30 74/56/30 23/55/30
f 23/55/31 74/56/31 60/51/31
f 74/56/32 59/3/32 60/51/32
f 24/6/33 46/5/33 74/56/33
f 46/5/34 45/33/34 74/56/34
f 74/56/35 45/33/35 59/3/35
f 45/33/36 1/1/36 59/3/36
f 71/57/37 23/55/37 3/53/37
f 72/9/38 75/58/38 71/57/38
f 71/57/39 75/58/39 23/55/39
f 75/58/40 24/6/40 23/55/40
f 72/9/41 54/8/41 75/58/41
f 54/8/42 53/35/42 75/58/42
f 75/58/43 53/35/43 24/6/43
f 53/35/44 4/4/44 24/6/44
f 51/59/45 71/57/45 3/53/45
f 52/12/46 76/60/46 51/59/46
f 51/59/47 76/60/47 71/57/47
f 76/60/48 72/9/48 71/57/48
f 52/12/49 42/11/49 76/60/49
f 42/11/50 41/37/50 76/60/50
f 76/60/51 41/37/51 72/9/51
f 41/37/52 5/7/52 72/9/52
f 48/52/53 51/59/53 3/53/53
f 47/15/54 77/61/54 48/52/54
f 48/52/55 77/61/55 51/59/55
f 77/61/56 52/12/56 51/59/56
f 47/15/57 21/14/57 77/61/57
f 21/14/58 22/39/58 77/61/58
f 77/61/59 22/39/59 52/12/59
f 22/39/60 6/10/60 52/12/60
f 29/32/61 69/62/61 2/13/61
f 30/18/62 78/63/62 29/32/62
f 29/32/63 78/63/63 69/62/63
f 78/63/64 70/64/64 69/62/64
f 30/18/65 15/17/65 78/63/65
f 15/17/66 16/49/66 78/63/66
f 78/63/67 16/49/67 70/64/67
f 16/49/68 8/28/68 70/64/68
f 57/34/69 67/65/69 1/1/69
f 58/21/70 79/66/70 57/34/70
f 57/34/71 79/66/71 67/65/71
f 79/66/72 68/67/72 67/65/72
f 58/21/73 20/20/73 79/66/73
f 20/20/74 19/41/74 79/66/74
f 79/66/75 19/41/75 68/67/75
f 19/41/76 7/16/76 68/67/76
f 63/36/77 35/68/77 4/4/77
f 64/24/78 80/69/78 63/36/78
f 63/36/79 80/69/79 35/68/79
f 80/69/80 36/70/80 35/68/80
f 64/24/81 62/23/81 80/69/81
f 62/23/82 61/43/82 80/69/82
f 80/69/83 61/43/83 36/70/83
f 61/43/84 9/19/84 36/70/84
f 17/38/85 27/71/85 5/7/85
f 18/27/86 81/72/86 17/38/86
f 17/38/87 81/72/87 27/71/87
f 81/72/88 28/73/88 27/71/88
f 18/27/89 26/26/89 81/72/89
f 26/26/90 25/45/90 81/72/90
f 81/72/91 25/45/91 28/73/91
f 25/45/92 10/22/92 28/73/92
f 49/40/93 43/74/93 6/10/93
f 50/30/94 82/75/94 49/40/94
f 49/40/95 82/75/95 43/74/95
f 82/75/96 44/76/96 43/74/96
f 50/30/97 33/29/97 82/75/97
f 33/29/98 34/47/98 82/75/98
f 82/75/99 34/47/99 44/76/99
f 34/47/100 11/25/100 44/76/100
f 30/18/101 68/67/101 7/16/101
f 29/32/102 83/77/102 30/18/102
f 30/18/103 83/77/103 68/67/103
f 83/77/104 67/65/104 68/67/104
f 29/32/105 66/31/105 83/77/105
f 66/31/106 65/2/106 83/77/106
f 83/77/107 65/2/107 67/65/107
f 65/2/108 1/1/108 67/65/108
f 58/21/109 36/70/109 9/19/109
f 57/34/110 84/78/110 58/21/110
f 58/21/111 84/78/111 36/70/111
f 84/78/112 35/68/112 36/70/112
f 57/34/113 45/33/113 84/78/113
f 45/33/114 46/5/114 84/78/114
f 84/78/115 46/5/115 35/68/115
f 46/5/116 4/4/116 35/68/116
f 64/24/117 28/73/117 10/22/117
f 63/36/118 85/79/118 64/24/118
f 64/24/119 85/79/119 28/73/119
f 85/79/120 27/71/120 28/73/120
f 63/36/121 53/35/121 85/79/121
f 53/35/122 54/8/122 85/79/122
f 85/79/123 54/8/123 27/71/123
f 54/8/124 5/7/124 27/71/124
f 18/27/125 44/76/125 11/25/125
f 17/38/126 86/80/126 18/27/126
f 18/27/127 86/80/127 44/76/127
f 86/80/128 43/74/128 44/76/128
f 17/38/129 41/37/129 86/80/129
f 41/37/130 42/11/130 86/80/130
f 86/80/131 42/11/131 43/74/131
f 42/11/132 6/10/132 43/74/132
f 50/30/133 70/64/133 8/28/133
f 49/40/134 87/81/134 50/30/134
f 50/30/135 87/81/135 70/64/135
f 87/81/136 69/62/136 70/64/136
f 49/40/137 22/39/137 87/81/137
f 22/39/138 21/14/138 87/81/138
f 87/81/139 21/14/139 69/62/139
f 21/14/140 2/13/140 69/62/140
f 32/82/141 40/83/141 12/84/141
f 31/42/142 88/85/142 32/82/142
f 32/82/143 88/85/143 40/83/143
f 88/85/144 39/44/144 40/83/144
f 31/42/145 19/41/145 88/85/145
f 19/41/146 20/20/146 88/85/146
f 88/85/147 20/20/147 39/44/147
f 20/20/148 9/19/148 39/44/148
f 40/83/149 56/86/149 12/84/149
f 39/44/150 89/87/150 40/83/150
f 40/83/151 89/87/151 56/86/151
f 89/87/152 55/46/152 56/86/152
f 39/44/153 61/43/153 89/87/153
f 61/43/154 62/23/154 89/87/154
f 89/87/155 62/23/155 55/46/155
f 62/23/156 10/22/156 55/46/156
f 56/86/157 38/88/157 12/84/157
f 55/46/158 90/89/158 56/86/158
f 56/86/159 90/89/159 38/88/159
f 90/89/160 37/48/160 38/88/160
f 55/46/161 25/45/161 90/89/161
f 25/45/162 26/26/162 90/89/162
f 90/89/163 26/26/163 37/48/163
f 26/26/164 11/25/164 37/48/164
f 38/88/165 14/90/165 12/84/165
f 37/48/166 91/91/166 38/88/166
f 38/88/167 91/91/167 14/90/167
f 91/91/168 13/50/168 14/90/168
f 37/48/169 34/47/169 91/91/169
f 34/47/170 33/29/170 91/91/170
f 91/91/171 33/29/171 13/50/171
f 33/29/172 8/28/172 13/50/172
f 14/90/173 32/82/173 12/84/173
f 13/50/174 92/92/174 14/90/174
f 14/90/175 92/92/175 32/82/175
f 92/92/176 31/42/176 32/82/176
f 13/50/177 16/49/177 92/92/177
f 16/49/178 15/17/178 92/92/178
f 92/92/179 15/17/179 31/42/179
f 15/17/180 7/16/180 31/42/180
