# Blender v2.70 (sub 5) OBJ File: 'spider5.blend'
# www.blender.org
mtllib spider5.mtl
o ColobotMesh_1_ColobotMesh_
v -0.148417 0.123574 -1.996730
v -0.017548 -0.209980 -0.543363
v 0.218935 0.128537 -0.542407
v 0.007053 0.023423 0.109877
v -0.201501 0.129720 -0.539880
v -0.012866 -0.117510 -1.998580
v 0.145595 0.090180 -1.998500
v -0.009559 -0.139555 -0.293014
v -0.001359 -0.044081 -0.075268
v 0.046719 -0.068629 -2.010080
v 0.099539 0.018112 -2.010054
v 0.076366 -0.118233 -0.537728
v 0.155194 0.016473 -0.537410
v 0.154902 0.090394 -0.293098
v 0.084275 0.051310 -0.075670
v -0.065381 -0.037918 -2.009366
v -0.110565 0.054486 -2.008749
v -0.202200 0.142343 -1.530265
v -0.219895 0.150036 -1.044648
v -0.016914 -0.174859 -1.531991
v -0.018475 -0.212992 -1.046919
v -0.137662 0.101572 -0.291273
v -0.068144 0.055984 -0.074688
v 0.079799 0.157658 -0.536864
v -0.060347 0.163107 -0.536021
v -0.039624 0.161384 -1.537598
v 0.082826 0.166720 -1.052823
v 0.232678 0.125022 -1.047447
v 0.208232 0.113830 -1.532812
v 0.127276 -0.009324 -1.539689
v 0.072895 -0.137375 -1.054644
v -0.094920 -0.131918 -0.536907
v -0.156238 0.008212 -0.535746
v -0.098405 -0.070894 -1.538730
v -0.161283 0.032573 -1.052497
v -0.050164 0.118386 -2.008705
v 0.047840 0.112748 -2.009295
v 0.082068 -0.036476 -0.278174
v 0.009308 0.119561 -0.278918
v -0.083421 -0.029059 -0.277475
v 0.058958 -0.120812 -1.543121
v 0.182812 -0.007361 -1.054204
v 0.091965 0.154308 -1.542354
v -0.065620 0.185482 -1.052012
v -0.161916 0.048044 -1.541585
v -0.122709 -0.116823 -1.052716
v -0.001844 0.034818 -2.021434
vt 0.814453 0.921803
vt 0.823568 0.921840
vt 0.815401 0.947217
vt 0.841797 0.921911
vt 0.832682 0.922009
vt 0.837204 0.947290
vt 0.814453 0.922209
vt 0.822492 0.922073
vt 0.823568 0.947488
vt 0.814994 0.751953
vt 0.821102 0.751956
vt 0.814814 0.808569
vt 0.833317 0.751963
vt 0.836144 0.808613
vt 0.827029 0.808576
vt 0.837027 0.751953
vt 0.830653 0.752022
vt 0.838617 0.808606
vt 0.817906 0.752159
vt 0.816755 0.808841
vt 0.825870 0.808743
vt 0.821413 0.752169
vt 0.827337 0.752097
vt 0.819093 0.808849
vt 0.839185 0.751953
vt 0.838980 0.808569
vt 0.830941 0.808705
vt 0.751954 0.939453
vt 0.761068 0.948568
vt 0.752367 0.948106
vt 0.816350 0.972632
vt 0.825464 0.972669
vt 0.817298 0.998047
vt 0.824516 0.947254
vt 0.833631 0.947292
vt 0.832682 0.921877
vt 0.841797 0.921914
vt 0.832610 0.972668
vt 0.823496 0.972767
vt 0.828017 0.998047
vt 0.828089 0.947388
vt 0.818974 0.947486
vt 0.823568 0.922108
vt 0.814453 0.922206
vt 0.832682 0.972768
vt 0.840722 0.972632
vt 0.841797 0.998047
vt 0.831607 0.947353
vt 0.839646 0.947217
vt 0.830532 0.921938
vt 0.838571 0.921803
vt 0.814633 0.865186
vt 0.820741 0.865189
vt 0.820921 0.808573
vt 0.827209 0.751960
vt 0.829856 0.865227
vt 0.838970 0.865264
vt 0.840207 0.865258
vt 0.833833 0.865327
vt 0.832243 0.808674
vt 0.824280 0.752090
vt 0.824719 0.865425
vt 0.815604 0.865524
vt 0.816773 0.865529
vt 0.822697 0.865457
vt 0.825017 0.808777
vt 0.833261 0.752025
vt 0.830736 0.865322
vt 0.838776 0.865186
vt 0.752780 0.956760
vt 0.761894 0.965874
vt 0.753193 0.965413
vt 0.761481 0.957221
vt 0.770596 0.966336
vt 0.770183 0.957682
vt 0.779297 0.966797
vn 0.682201 -0.709232 0.177742
vn 0.208342 0.957392 0.199987
vn -0.920663 -0.336211 0.198348
vn 0.621184 -0.778446 -0.090290
vn 0.834787 -0.544026 -0.084654
vn 0.232645 0.969223 -0.080513
vn -0.118541 0.991503 -0.053563
vn -0.879989 -0.467750 -0.082642
vn -0.781729 -0.618103 -0.082754
vn -0.052270 -0.167891 -0.984419
vn 0.728750 -0.653343 0.205100
vn 0.701775 -0.661780 0.263739
vn 0.716925 -0.642452 0.270692
vn 0.860354 -0.471001 0.194804
vn 0.719090 -0.667184 0.194358
vn 0.854579 -0.500415 0.138852
vn 0.865264 -0.479545 0.146129
vn 0.862537 -0.484024 0.147481
vn 0.031287 0.986413 0.161276
vn 0.213079 0.947230 0.239485
vn 0.031144 0.950931 0.307833
vn -0.138118 0.959314 0.246252
vn 0.211094 0.956989 0.199029
vn 0.039315 0.986895 0.156503
vn -0.135644 0.970141 0.201066
vn -0.231254 0.958299 0.167886
vn -0.808076 -0.540675 0.233847
vn -0.909408 -0.354656 0.217246
vn -0.796818 -0.533451 0.283744
vn -0.780914 -0.560717 0.275264
vn -0.911343 -0.356704 0.205465
vn -0.897732 -0.394451 0.196180
vn -0.786188 -0.561754 0.257569
vn -0.684151 -0.696108 0.217650
vn 0.637740 -0.770244 0.003434
vn 0.572968 -0.817199 -0.062400
vn 0.634722 -0.771471 -0.044269
vn 0.852470 -0.521087 -0.041991
vn 0.566530 -0.817173 -0.106169
vn 0.851360 -0.518407 -0.080247
vn 0.850984 -0.518993 -0.080454
vn 0.845700 -0.527530 -0.080641
vn 0.697969 -0.715796 0.021820
vn 0.761070 -0.643147 -0.084462
vn 0.763493 -0.645544 0.018778
vn 0.860939 -0.503972 0.069253
vn 0.834365 -0.543268 -0.093250
vn 0.935753 -0.350486 -0.039050
vn 0.932639 -0.354685 0.066200
vn 0.869430 -0.493313 0.027094
vn 0.268061 0.963402 0.000588
vn 0.331365 0.942720 -0.038428
vn 0.268676 0.963035 -0.019402
vn 0.052804 0.998309 -0.024326
vn 0.335016 0.935181 -0.114895
vn 0.056626 0.993977 -0.093821
vn 0.050158 0.994505 -0.091890
vn 0.041353 0.994925 -0.091732
vn 0.205521 0.978480 0.018393
vn 0.125051 0.991240 -0.042498
vn 0.125470 0.991931 0.018159
vn 0.039077 0.998315 0.042891
vn -0.118617 0.991385 -0.055550
vn -0.224934 0.974088 -0.023627
vn -0.221685 0.974102 0.044506
vn -0.231147 0.971757 0.047535
vn -0.894308 -0.447214 0.014589
vn -0.920439 -0.389928 -0.027361
vn -0.895063 -0.445751 -0.012943
vn -0.881894 -0.471247 -0.013767
vn -0.918940 -0.379817 -0.106247
vn -0.893731 -0.436320 -0.104255
vn -0.877220 -0.470689 -0.094532
vn -0.824666 -0.557256 -0.096910
vn -0.936986 -0.349290 -0.007317
vn -0.965768 -0.249259 -0.071850
vn -0.968243 -0.250000 -0.002331
vn -0.915370 -0.400855 0.037584
vn -0.780222 -0.617872 -0.097407
vn -0.675078 -0.735304 -0.059978
vn -0.678478 -0.734466 0.015059
vn -0.709998 -0.704182 0.005520
vn 0.127058 0.077335 -0.988876
vn 0.101341 -0.061406 -0.992955
vn 0.123496 0.075394 -0.989477
vn 0.002803 0.152164 -0.988351
vn -0.041438 -0.128207 -0.990881
vn -0.125477 -0.054747 -0.990585
vn -0.098603 0.093886 -0.990688
vn -0.114593 0.108997 -0.987415
usemtl ColobotMesh_mat_1
s off
f 2/1/1 12/2/1 8/3/1
f 3/4/2 24/5/2 14/6/2
f 5/7/3 33/8/3 22/9/3
f 6/10/4 10/11/4 20/12/4
f 7/13/5 29/14/5 30/15/5
f 7/16/6 37/17/6 29/18/6
f 1/19/7 18/20/7 26/21/7
f 1/22/8 17/23/8 18/24/8
f 6/25/9 20/26/9 34/27/9
f 6/28/10 16/29/10 10/30/10
f 9/31/11 15/32/11 4/33/11
f 8/3/12 38/34/12 9/31/12
f 9/31/13 38/34/13 15/32/13
f 38/34/14 14/35/14 15/32/14
f 8/3/15 12/2/15 38/34/15
f 12/2/16 13/36/16 38/34/16
f 38/34/17 13/36/17 14/35/17
f 13/36/18 3/37/18 14/35/18
f 15/38/19 23/39/19 4/40/19
f 14/6/20 39/41/20 15/38/20
f 15/38/21 39/41/21 23/39/21
f 39/41/22 22/42/22 23/39/22
f 14/6/23 24/5/23 39/41/23
f 24/5/24 25/43/24 39/41/24
f 39/41/25 25/43/25 22/42/25
f 25/43/26 5/44/26 22/42/26
f 23/45/27 9/46/27 4/47/27
f 22/9/28 40/48/28 23/45/28
f 23/45/29 40/48/29 9/46/29
f 40/48/30 8/49/30 9/46/30
f 22/9/31 33/8/31 40/48/31
f 33/8/32 32/50/32 40/48/32
f 40/48/33 32/50/33 8/49/33
f 32/50/34 2/51/34 8/49/34
f 21/52/35 31/53/35 2/1/35
f 20/12/36 41/54/36 21/52/36
f 21/52/37 41/54/37 31/53/37
f 41/54/38 30/15/38 31/53/38
f 20/12/39 10/11/39 41/54/39
f 10/11/40 11/55/40 41/54/40
f 41/54/41 11/55/41 30/15/41
f 11/55/42 7/13/42 30/15/42
f 31/53/43 12/2/43 2/1/43
f 30/15/44 42/56/44 31/53/44
f 31/53/45 42/56/45 12/2/45
f 42/56/46 13/36/46 12/2/46
f 30/15/47 29/14/47 42/56/47
f 29/14/48 28/57/48 42/56/48
f 42/56/49 28/57/49 13/36/49
f 28/57/50 3/37/50 13/36/50
f 28/58/51 27/59/51 3/4/51
f 29/18/52 43/60/52 28/58/52
f 28/58/53 43/60/53 27/59/53
f 43/60/54 26/21/54 27/59/54
f 29/18/55 37/17/55 43/60/55
f 37/17/56 36/61/56 43/60/56
f 43/60/57 36/61/57 26/21/57
f 36/61/58 1/19/58 26/21/58
f 27/59/59 24/5/59 3/4/59
f 26/21/60 44/62/60 27/59/60
f 27/59/61 44/62/61 24/5/61
f 44/62/62 25/43/62 24/5/62
f 26/21/63 18/20/63 44/62/63
f 18/20/64 19/63/64 44/62/64
f 44/62/65 19/63/65 25/43/65
f 19/63/66 5/44/66 25/43/66
f 19/64/67 35/65/67 5/7/67
f 18/24/68 45/66/68 19/64/68
f 19/64/69 45/66/69 35/65/69
f 45/66/70 34/27/70 35/65/70
f 18/24/71 17/23/71 45/66/71
f 17/23/72 16/67/72 45/66/72
f 45/66/73 16/67/73 34/27/73
f 16/67/74 6/25/74 34/27/74
f 35/65/75 33/8/75 5/7/75
f 34/27/76 46/68/76 35/65/76
f 35/65/77 46/68/77 33/8/77
f 46/68/78 32/50/78 33/8/78
f 34/27/79 20/26/79 46/68/79
f 20/26/80 21/69/80 46/68/80
f 46/68/81 21/69/81 32/50/81
f 21/69/82 2/51/82 32/50/82
f 11/70/83 37/71/83 7/72/83
f 10/30/84 47/73/84 11/70/84
f 11/70/85 47/73/85 37/71/85
f 47/73/86 36/74/86 37/71/86
f 10/30/87 16/29/87 47/73/87
f 16/29/88 17/75/88 47/73/88
f 47/73/89 17/75/89 36/74/89
f 17/75/90 1/76/90 36/74/90
