# Blender v2.77 (sub 0) OBJ File: 'spider5.blend'
# www.blender.org
mtllib spider5.mtl
o ColobotMesh_1_ColobotMesh_
v -0.148417 0.123574 -1.996730
v -0.017548 -0.209980 -0.543363
v 0.218935 0.128537 -0.542407
v 0.007053 0.023423 0.109877
v -0.201501 0.129720 -0.539880
v -0.012866 -0.117510 -1.998580
v 0.145595 0.090180 -1.998500
v -0.009559 -0.139555 -0.293014
v -0.001359 -0.044081 -0.075268
v 0.046719 -0.068629 -2.010080
v 0.099539 0.018112 -2.010054
v 0.076366 -0.118233 -0.537728
v 0.155194 0.016473 -0.537410
v 0.154902 0.090394 -0.293098
v 0.084275 0.051310 -0.075670
v -0.065381 -0.037918 -2.009366
v -0.110565 0.054486 -2.008749
v -0.202200 0.142343 -1.530265
v -0.219895 0.150036 -1.044648
v -0.016914 -0.174859 -1.531991
v -0.018475 -0.212992 -1.046919
v -0.137662 0.101572 -0.291273
v -0.068144 0.055984 -0.074688
v 0.079799 0.157658 -0.536864
v -0.060347 0.163107 -0.536021
v -0.039624 0.161384 -1.537598
v 0.082826 0.166720 -1.052823
v 0.232678 0.125022 -1.047447
v 0.208232 0.113830 -1.532812
v 0.127276 -0.009324 -1.539689
v 0.072895 -0.137375 -1.054644
v -0.094920 -0.131918 -0.536907
v -0.156238 0.008212 -0.535746
v -0.098405 -0.070894 -1.538730
v -0.161283 0.032573 -1.052497
v -0.050164 0.118386 -2.008705
v 0.047840 0.112748 -2.009295
v 0.082068 -0.036476 -0.278174
v 0.009308 0.119561 -0.278918
v -0.083421 -0.029059 -0.277475
v 0.058958 -0.120812 -1.543121
v 0.182812 -0.007361 -1.054204
v 0.091965 0.154308 -1.542354
v -0.065620 0.185482 -1.052012
v -0.161916 0.048044 -1.541585
v -0.122709 -0.116823 -1.052716
v -0.001844 0.034818 -2.021434
vt 0.8145 0.9218
vt 0.8236 0.9218
vt 0.8154 0.9472
vt 0.8418 0.9219
vt 0.8327 0.9220
vt 0.8372 0.9473
vt 0.8145 0.9222
vt 0.8225 0.9221
vt 0.8236 0.9475
vt 0.8150 0.7520
vt 0.8211 0.7520
vt 0.8148 0.8086
vt 0.8333 0.7520
vt 0.8361 0.8086
vt 0.8270 0.8086
vt 0.8370 0.7520
vt 0.8307 0.7520
vt 0.8386 0.8086
vt 0.8179 0.7522
vt 0.8168 0.8088
vt 0.8259 0.8087
vt 0.8214 0.7522
vt 0.8273 0.7521
vt 0.8191 0.8088
vt 0.8392 0.7520
vt 0.8390 0.8086
vt 0.8309 0.8087
vt 0.7520 0.9395
vt 0.7611 0.9486
vt 0.7524 0.9481
vt 0.8163 0.9726
vt 0.8255 0.9727
vt 0.8173 0.9980
vt 0.8245 0.9473
vt 0.8336 0.9473
vt 0.8327 0.9219
vt 0.8326 0.9727
vt 0.8235 0.9728
vt 0.8280 0.9980
vt 0.8281 0.9474
vt 0.8190 0.9475
vt 0.8236 0.9221
vt 0.8327 0.9728
vt 0.8407 0.9726
vt 0.8418 0.9980
vt 0.8316 0.9474
vt 0.8396 0.9472
vt 0.8305 0.9219
vt 0.8386 0.9218
vt 0.8146 0.8652
vt 0.8207 0.8652
vt 0.8209 0.8086
vt 0.8272 0.7520
vt 0.8299 0.8652
vt 0.8390 0.8653
vt 0.8402 0.8653
vt 0.8338 0.8653
vt 0.8322 0.8087
vt 0.8243 0.7521
vt 0.8247 0.8654
vt 0.8156 0.8655
vt 0.8168 0.8655
vt 0.8227 0.8655
vt 0.8250 0.8088
vt 0.8333 0.7520
vt 0.8307 0.8653
vt 0.8388 0.8652
vt 0.7528 0.9568
vt 0.7619 0.9659
vt 0.7532 0.9654
vt 0.7615 0.9572
vt 0.7706 0.9663
vt 0.7702 0.9577
vt 0.7793 0.9668
vn -0.0148 -0.9909 0.1339
vn 0.7739 -0.6246 0.1041
vn -0.0472 -0.9337 0.3549
vn 0.8983 0.4133 0.1491
vn 0.1346 0.9852 0.1062
vn 0.8703 0.3847 0.3075
vn -0.8791 0.4549 0.1424
vn -0.9248 -0.3650 0.1069
vn -0.8143 0.4812 0.3245
vn -0.1285 -0.8266 -0.5479
vn 0.5118 -0.5125 -0.6895
vn -0.1354 -0.9841 -0.1146
vn 0.7725 0.3191 -0.5490
vn 0.9355 0.3310 -0.1238
vn 0.8394 -0.5381 -0.0766
vn 0.1471 0.7063 -0.6924
vn -0.7097 0.4471 -0.5445
vn -0.8663 0.4908 -0.0930
vn -0.0227 0.9980 -0.0581
vn -0.6391 -0.2433 -0.7295
vn -0.8420 -0.5342 -0.0746
vn -0.6012 -0.3891 -0.6980
vn -0.0643 -0.9189 0.3892
vn 0.8210 0.3354 0.4620
vn 0.0115 0.0133 0.9998
vn 0.7908 -0.5769 0.2046
vn 0.8667 -0.4890 0.0984
vn -0.7836 0.4208 0.4570
vn 0.0374 0.9728 0.2286
vn -0.0982 0.9893 0.1082
vn -0.8530 -0.4628 0.2412
vn -0.8141 -0.5678 0.1214
vn -0.0313 -0.9991 -0.0276
vn 0.7088 -0.7049 -0.0248
vn 0.7256 -0.6840 -0.0747
vn 0.6194 -0.3167 -0.7183
vn 0.8622 -0.5063 -0.0104
vn 0.8978 0.4404 0.0016
vn 0.1911 0.9815 -0.0095
vn 0.1960 0.9782 -0.0687
vn -0.0160 0.7050 -0.7089
vn -0.0511 0.9987 -0.0018
vn -0.9015 0.4327 0.0098
vn -0.9342 -0.3563 -0.0171
vn -0.9012 -0.4288 -0.0620
vn -0.8570 -0.5143 -0.0311
vn -0.0028 0.0114 -0.9999
usemtl ColobotMesh_mat_1
s 1
f 2/1/1 12/2/2 8/3/3
f 3/4/4 24/5/5 14/6/6
f 5/7/7 33/8/8 22/9/9
f 6/10/10 10/11/11 20/12/12
f 7/13/13 29/14/14 30/15/15
f 7/16/13 37/17/16 29/18/14
f 1/19/17 18/20/18 26/21/19
f 1/22/17 17/23/20 18/24/18
f 6/25/10 20/26/12 34/27/21
f 6/28/10 16/29/22 10/30/11
f 9/31/23 15/32/24 4/33/25
f 8/3/3 38/34/26 9/31/23
f 9/31/23 38/34/26 15/32/24
f 38/34/26 14/35/6 15/32/24
f 8/3/3 12/2/2 38/34/26
f 12/2/2 13/36/27 38/34/26
f 38/34/26 13/36/27 14/35/6
f 13/36/27 3/4/4 14/35/6
f 15/37/24 23/38/28 4/39/25
f 14/6/6 39/40/29 15/37/24
f 15/37/24 39/40/29 23/38/28
f 39/40/29 22/41/9 23/38/28
f 14/6/6 24/5/5 39/40/29
f 24/5/5 25/42/30 39/40/29
f 39/40/29 25/42/30 22/41/9
f 25/42/30 5/7/7 22/41/9
f 23/43/28 9/44/23 4/45/25
f 22/9/9 40/46/31 23/43/28
f 23/43/28 40/46/31 9/44/23
f 40/46/31 8/47/3 9/44/23
f 22/9/9 33/8/8 40/46/31
f 33/8/8 32/48/32 40/46/31
f 40/46/31 32/48/32 8/47/3
f 32/48/32 2/49/1 8/47/3
f 21/50/33 31/51/34 2/1/1
f 20/12/12 41/52/35 21/50/33
f 21/50/33 41/52/35 31/51/34
f 41/52/35 30/15/15 31/51/34
f 20/12/12 10/11/11 41/52/35
f 10/11/11 11/53/36 41/52/35
f 41/52/35 11/53/36 30/15/15
f 11/53/36 7/13/13 30/15/15
f 31/51/34 12/2/2 2/1/1
f 30/15/15 42/54/37 31/51/34
f 31/51/34 42/54/37 12/2/2
f 42/54/37 13/36/27 12/2/2
f 30/15/15 29/14/14 42/54/37
f 29/14/14 28/55/38 42/54/37
f 42/54/37 28/55/38 13/36/27
f 28/55/38 3/4/4 13/36/27
f 28/56/38 27/57/39 3/4/4
f 29/18/14 43/58/40 28/56/38
f 28/56/38 43/58/40 27/57/39
f 43/58/40 26/21/19 27/57/39
f 29/18/14 37/17/16 43/58/40
f 37/17/16 36/59/41 43/58/40
f 43/58/40 36/59/41 26/21/19
f 36/59/41 1/19/17 26/21/19
f 27/57/39 24/5/5 3/4/4
f 26/21/19 44/60/42 27/57/39
f 27/57/39 44/60/42 24/5/5
f 44/60/42 25/42/30 24/5/5
f 26/21/19 18/20/18 44/60/42
f 18/20/18 19/61/43 44/60/42
f 44/60/42 19/61/43 25/42/30
f 19/61/43 5/7/7 25/42/30
f 19/62/43 35/63/44 5/7/7
f 18/24/18 45/64/45 19/62/43
f 19/62/43 45/64/45 35/63/44
f 45/64/45 34/27/21 35/63/44
f 18/24/18 17/23/20 45/64/45
f 17/23/20 16/65/22 45/64/45
f 45/64/45 16/65/22 34/27/21
f 16/65/22 6/25/10 34/27/21
f 35/63/44 33/8/8 5/7/7
f 34/27/21 46/66/46 35/63/44
f 35/63/44 46/66/46 33/8/8
f 46/66/46 32/48/32 33/8/8
f 34/27/21 20/26/12 46/66/46
f 20/26/12 21/67/33 46/66/46
f 46/66/46 21/67/33 32/48/32
f 21/67/33 2/49/1 32/48/32
f 11/68/36 37/69/16 7/70/13
f 10/30/11 47/71/47 11/68/36
f 11/68/36 47/71/47 37/69/16
f 47/71/47 36/72/41 37/69/16
f 10/30/11 16/29/22 47/71/47
f 16/29/22 17/73/20 47/71/47
f 47/71/47 17/73/20 36/72/41
f 17/73/20 1/74/17 36/72/41
