# Blender v2.70 (sub 5) OBJ File: 'spider6.blend'
# www.blender.org
mtllib spider6.mtl
o ColobotMesh_1_ColobotMesh_
v -0.016788 -0.240873 -0.485530
v 0.250716 0.177509 -0.479651
v -0.005421 0.030882 0.112120
v -0.245401 0.199971 -0.480066
v -0.000912 0.553266 -1.320130
v 0.177368 0.132165 -0.245346
v 0.091989 0.083289 -0.048089
v -0.007679 0.282345 -1.105030
v -0.012971 0.017632 -0.826830
v -0.176397 0.147840 -0.245504
v -0.096404 0.091477 -0.048108
v -0.114937 -0.109459 -0.483877
v -0.191141 0.037489 -0.482055
v -0.013961 -0.171736 -0.253875
v -0.010172 -0.081151 -0.054658
v 0.094787 0.459668 -1.085566
v 0.178663 0.334415 -0.805407
v 0.093103 -0.118721 -0.484171
v 0.182271 0.020739 -0.482211
v -0.173852 0.349593 -0.805088
v -0.092356 0.467358 -1.085109
v 0.086382 0.205454 -0.472761
v -0.078990 0.212942 -0.472899
v 0.094996 -0.034728 -0.232951
v 0.001354 0.152621 -0.223658
v -0.109389 -0.025822 -0.232924
v 0.105598 0.148636 -0.838395
v 0.024258 0.367767 -0.810825
v -0.142755 0.184889 -0.824892
vt 0.845703 0.947517
vt 0.854818 0.947683
vt 0.846090 0.964360
vt 0.873047 0.948014
vt 0.863932 0.948002
vt 0.868341 0.964692
vt 0.845703 0.947979
vt 0.854226 0.947825
vt 0.854650 0.964668
vt 0.847326 0.876953
vt 0.855900 0.900640
vt 0.846785 0.900474
vt 0.859178 0.876953
vt 0.854686 0.900628
vt 0.863801 0.900640
vt 0.873047 0.876953
vt 0.872455 0.900474
vt 0.863932 0.900628
vt 0.846478 0.981204
vt 0.855592 0.981369
vt 0.846865 0.998047
vt 0.855205 0.964526
vt 0.864320 0.964692
vt 0.863932 0.947848
vt 0.863636 0.981369
vt 0.854521 0.981358
vt 0.858930 0.998047
vt 0.859227 0.964680
vt 0.850112 0.964668
vt 0.854818 0.947991
vt 0.863596 0.981358
vt 0.872119 0.981204
vt 0.872543 0.998047
vt 0.863172 0.964514
vt 0.871695 0.964360
vt 0.862748 0.947671
vt 0.871271 0.947517
vt 0.846244 0.923996
vt 0.855359 0.924161
vt 0.864473 0.924327
vt 0.868424 0.924327
vt 0.859309 0.924315
vt 0.850195 0.924304
vt 0.854818 0.924304
vt 0.863340 0.924150
vt 0.871863 0.923996
vn 0.729206 -0.658103 0.187509
vn 0.172518 0.955587 0.238938
vn -0.927901 -0.312357 0.203552
vn 0.782043 -0.399388 -0.478433
vn 0.039231 0.933478 0.356482
vn -0.831430 -0.332608 -0.445079
vn 0.799177 -0.509259 0.319330
vn 0.733126 -0.624243 0.269903
vn 0.793850 -0.506629 0.336345
vn 0.870042 -0.408982 0.275245
vn 0.750710 -0.628220 0.204385
vn 0.828892 -0.532388 0.171756
vn 0.881912 -0.419278 0.215491
vn 0.895940 -0.394495 0.204122
vn 0.040910 0.942029 0.333027
vn 0.146273 0.943574 0.297107
vn 0.040661 0.936327 0.348766
vn -0.062159 0.952778 0.297240
vn 0.142263 0.957318 0.251601
vn 0.043920 0.974148 0.221602
vn -0.056974 0.966008 0.252155
vn -0.085709 0.966953 0.240116
vn -0.844120 -0.433622 0.315330
vn -0.904137 -0.329127 0.272419
vn -0.838505 -0.431479 0.332769
vn -0.788541 -0.554036 0.266921
vn -0.916309 -0.337999 0.214791
vn -0.873783 -0.455246 0.171040
vn -0.805833 -0.556193 0.203181
vn -0.786172 -0.589502 0.185530
vn 0.668483 -0.596446 -0.444279
vn 0.595703 -0.587510 -0.547696
vn 0.643407 -0.621760 -0.446589
vn 0.791362 -0.501057 -0.350268
vn 0.764207 -0.384781 -0.517621
vn 0.879385 -0.277105 -0.387162
vn 0.903982 -0.301734 -0.302939
vn 0.855033 -0.367323 -0.366050
vn 0.170026 0.901996 0.396856
vn 0.185549 0.916568 0.354224
vn 0.180246 0.899230 0.398618
vn 0.040555 0.903626 0.426399
vn 0.039611 0.944503 0.326105
vn -0.074358 0.926796 0.368130
vn -0.072432 0.914931 0.397057
vn -0.088334 0.912065 0.400419
vn -0.895607 -0.295004 -0.332958
vn -0.934225 -0.136777 -0.329416
vn -0.966115 -0.157851 -0.204219
vn -0.846530 -0.435194 -0.306583
vn -0.807083 -0.315662 -0.498973
vn -0.682014 -0.523296 -0.510900
vn -0.719658 -0.553570 -0.419109
vn -0.730558 -0.540380 -0.417462
usemtl ColobotMesh_mat_1
s off
f 1/1/1 18/2/1 14/3/1
f 2/4/2 22/5/2 6/6/2
f 4/7/3 13/8/3 10/9/3
f 5/10/4 16/11/4 8/12/4
f 5/13/5 21/14/5 16/15/5
f 5/16/6 8/17/6 21/18/6
f 15/19/7 7/20/7 3/21/7
f 14/3/8 24/22/8 15/19/8
f 15/19/9 24/22/9 7/20/9
f 24/22/10 6/23/10 7/20/10
f 14/3/11 18/2/11 24/22/11
f 18/2/12 19/24/12 24/22/12
f 24/22/13 19/24/13 6/23/13
f 19/24/14 2/4/14 6/23/14
f 7/25/15 11/26/15 3/27/15
f 6/6/16 25/28/16 7/25/16
f 7/25/17 25/28/17 11/26/17
f 25/28/18 10/29/18 11/26/18
f 6/6/19 22/5/19 25/28/19
f 22/5/20 23/30/20 25/28/20
f 25/28/21 23/30/21 10/29/21
f 23/30/22 4/7/22 10/29/22
f 11/31/23 15/32/23 3/33/23
f 10/9/24 26/34/24 11/31/24
f 11/31/25 26/34/25 15/32/25
f 26/34/26 14/35/26 15/32/26
f 10/9/27 13/8/27 26/34/27
f 13/8/28 12/36/28 26/34/28
f 26/34/29 12/36/29 14/35/29
f 12/36/30 1/37/30 14/35/30
f 9/38/31 18/2/31 1/1/31
f 8/12/32 27/39/32 9/38/32
f 9/38/33 27/39/33 18/2/33
f 27/39/34 19/24/34 18/2/34
f 8/12/35 16/11/35 27/39/35
f 16/11/36 17/40/36 27/39/36
f 27/39/37 17/40/37 19/24/37
f 17/40/38 2/4/38 19/24/38
f 17/41/39 22/5/39 2/4/39
f 16/15/40 28/42/40 17/41/40
f 17/41/41 28/42/41 22/5/41
f 28/42/42 23/30/42 22/5/42
f 16/15/43 21/14/43 28/42/43
f 21/14/44 20/43/44 28/42/44
f 28/42/45 20/43/45 23/30/45
f 20/43/46 4/7/46 23/30/46
f 20/44/47 13/8/47 4/7/47
f 21/18/48 29/45/48 20/44/48
f 20/44/49 29/45/49 13/8/49
f 29/45/50 12/36/50 13/8/50
f 21/18/51 8/17/51 29/45/51
f 8/17/52 9/46/52 29/45/52
f 29/45/53 9/46/53 12/36/53
f 9/46/54 1/37/54 12/36/54
