# Blender v2.77 (sub 0) OBJ File: 'subm4.blend'
# www.blender.org
mtllib subm4.mtl
o ColobotMesh_1_ColobotMesh_.001
v 3.000000 -1.000000 1.006690
v -3.874205 -0.501453 -1.393309
v -3.010697 -1.000000 1.006690
v -3.509244 0.860603 -1.393310
v -3.651617 0.760912 -1.393310
v -3.000260 0.994188 1.006690
v -3.974406 0.255319 -1.393310
v -3.000260 0.994188 -1.393308
v -3.010697 -1.000000 -1.393309
v 3.000000 -1.000000 -1.393309
v -3.974406 0.255318 1.006689
v -3.947658 0.338120 1.006689
v -3.947658 0.338120 -1.393310
v -3.651617 0.760912 1.006689
v -3.509244 0.860602 1.006689
v -3.874205 -0.501454 1.006689
v -3.947658 -0.343933 1.006689
v -3.351724 -0.939868 -1.393309
v -3.351724 -0.939868 1.006690
v -3.509244 -0.866415 1.006690
v -3.974406 -0.261132 1.006689
v -3.651617 -0.766725 1.006690
v -3.992643 -0.176050 1.006689
v -3.992643 -0.176050 -1.393309
v -3.874205 0.495641 -1.393310
v -3.874205 0.495641 1.006689
v -3.351723 0.934056 -1.393310
v -3.351723 0.934055 1.006689
v -3.183841 -0.984852 -1.393309
v -3.183841 -0.984852 1.006690
v -3.774515 0.638014 -1.393310
v -3.774515 0.638013 1.006689
v -3.183840 0.979040 -1.393310
v -3.183840 0.979039 1.006689
v -3.774515 -0.643826 1.006690
v -3.992643 0.170238 -1.393310
v -4.007791 -0.002907 1.006689
v -3.992643 0.170237 1.006689
v -3.947658 -0.343932 -1.393309
v 3.971500 0.255318 1.006689
v 3.944752 0.338120 1.006689
v 3.944752 0.338120 -1.393310
v 3.648710 0.760912 1.006689
v 3.506337 0.860602 1.006689
v 3.871299 -0.501454 1.006689
v 3.944752 -0.343933 1.006689
v 3.348817 -0.939868 -1.393309
v 3.348817 -0.939868 1.006690
v 3.506337 -0.866415 1.006690
v 3.971500 -0.261132 1.006689
v 3.648710 -0.766725 1.006690
v 3.989736 -0.176050 1.006689
v 3.989736 -0.176050 -1.393309
v 3.871299 0.495641 -1.393310
v 3.871299 0.495641 1.006689
v 3.348816 0.934055 1.006689
v 3.180934 -0.984852 -1.393309
v 3.180934 -0.984852 1.006690
v 3.771608 0.638014 -1.393310
v 3.771608 0.638013 1.006689
v 3.180933 0.979039 1.006689
v 3.007790 0.994187 1.006689
v 3.771608 -0.643826 1.006690
v 4.004884 -0.002907 1.006689
v 3.989736 0.170237 1.006689
v -3.509244 -0.866415 -1.393309
v -3.974406 -0.261132 -1.393309
v -3.651617 -0.766724 -1.393309
v -3.774515 -0.643826 -1.393309
v -4.007791 -0.002906 -1.393309
v 3.971500 0.255319 -1.393310
v 3.648710 0.760912 -1.393310
v 3.506337 0.860603 -1.393310
v 3.871299 -0.501453 -1.393310
v 3.944752 -0.343932 -1.393310
v 3.506337 -0.866415 -1.393309
v 3.971500 -0.261132 -1.393310
v 3.648710 -0.766724 -1.393309
v 3.348816 0.934056 -1.393310
v 3.180933 0.979040 -1.393310
v 3.007790 0.994188 -1.393310
v 3.771608 -0.643826 -1.393309
v 4.004884 -0.002906 -1.393310
v 3.989736 0.170238 -1.393310
v -3.651617 0.760912 -1.393310
v -3.509244 0.860603 -1.393310
v 3.180934 -0.984852 1.006690
v 3.000000 -1.000000 1.006690
v -3.992643 -0.176050 1.006689
v -4.007791 -0.002907 1.006689
v -3.874205 -0.501454 1.006689
v -3.774515 -0.643826 1.006690
v -3.351723 0.934055 1.006689
v -3.183840 0.979039 1.006689
v -3.947658 0.338120 -1.393310
v -3.874205 0.495641 -1.393310
v -3.651617 0.760912 1.006689
v -3.774515 0.638013 1.006689
v -3.351723 0.934056 -1.393310
v -3.183840 0.979040 -1.393310
v -3.509244 -0.866415 1.006690
v -3.651617 -0.766725 1.006690
v -3.651617 -0.766724 -1.393309
v -3.774515 -0.643826 -1.393309
v -3.947658 -0.343933 1.006689
v -3.974406 -0.261132 1.006689
v -3.947658 0.338120 1.006689
v -3.874205 0.495641 1.006689
v -3.509244 0.860602 1.006689
v -3.974406 0.255318 1.006689
v -3.992643 0.170237 1.006689
v -3.183841 -0.984852 1.006690
v -3.010697 -1.000000 1.006690
v -3.351724 -0.939868 1.006690
v -3.774515 0.638014 -1.393310
v -3.351724 -0.939868 -1.393309
v -3.183841 -0.984852 -1.393309
v 3.989736 -0.176050 1.006689
v 4.004884 -0.002907 1.006689
v 3.871299 -0.501454 1.006689
v 3.771608 -0.643826 1.006690
v 3.348816 0.934055 1.006689
v 3.180933 0.979039 1.006689
v 3.944752 0.338120 -1.393310
v 3.871299 0.495641 -1.393310
v 3.648710 0.760912 1.006689
v 3.771608 0.638013 1.006689
v 3.506337 -0.866415 1.006690
v 3.648710 -0.766725 1.006690
v 3.944752 -0.343933 1.006689
v 3.971500 -0.261132 1.006689
v 3.944752 0.338120 1.006689
v 3.871299 0.495641 1.006689
v 3.506337 0.860602 1.006689
v 3.971500 0.255318 1.006689
v 3.989736 0.170237 1.006689
v 3.007790 0.994187 1.006689
v 3.348817 -0.939868 1.006690
v 3.771608 0.638014 -1.393310
v 3.348817 -0.939868 -1.393309
v 3.180934 -0.984852 -1.393309
v -3.947658 -0.343932 -1.393309
v -3.974406 -0.261132 -1.393309
v -3.509244 -0.866415 -1.393309
v -3.000260 0.994188 1.006690
v -3.874205 -0.501453 -1.393309
v 3.871299 -0.501453 -1.393310
v 3.771608 -0.643826 -1.393309
v 3.348816 0.934056 -1.393310
v 3.180933 0.979040 -1.393310
v 3.506337 -0.866415 -1.393309
v 3.648710 -0.766724 -1.393309
v 3.944752 -0.343932 -1.393310
v 3.971500 -0.261132 -1.393310
v 3.648710 0.760912 -1.393310
v 3.506337 0.860603 -1.393310
v 3.971500 0.255319 -1.393310
v 3.989736 0.170238 -1.393310
v 3.007790 0.994188 -1.393310
v 4.004884 -0.002906 -1.393310
v 3.000000 -1.000000 -1.393309
v -3.010697 -1.000000 -1.393309
v -3.000260 0.994188 -1.393308
v -3.992643 -0.176050 -1.393309
v -4.007791 -0.002906 -1.393309
v -3.974406 0.255319 -1.393310
v -3.992643 0.170238 -1.393310
v 3.989736 -0.176050 -1.393309
vt 0.7656 0.8770
vt 0.7725 0.9980
vt 0.7656 0.9980
vt 0.7725 0.8770
vt 0.7656 0.9980
vt 0.7725 0.9980
vt 0.7690 0.9980
vt 0.7622 0.8770
vt 0.7690 0.8770
vt 0.7759 0.9980
vt 0.7656 0.9980
vt 0.7588 0.8770
vt 0.7588 0.9980
vt 0.7520 0.8770
vt 0.7588 0.9980
vt 0.7520 0.9980
vt 0.7588 0.8770
vt 0.7520 0.9980
vt 0.7588 0.9980
vt 0.7520 0.9980
vt 0.7554 0.8770
vt 0.7554 0.9980
vt 0.7656 0.8770
vt 0.7793 0.9980
vt 0.7725 0.8770
vt 0.7725 0.9980
vt 0.7690 0.8770
vt 0.7759 0.9980
vt 0.7690 0.9980
vt 0.7656 0.9980
vt 0.7759 0.9980
vt 0.7690 0.8770
vt 0.7690 0.9980
vt 0.7588 0.8770
vt 0.7622 0.9980
vt 0.7622 0.8770
vt 0.7759 0.8770
vt 0.7793 0.9980
vt 0.7793 0.8770
vt 0.7588 0.9980
vt 0.7554 0.8770
vt 0.7554 0.9980
vt 0.7588 0.8770
vt 0.7656 0.8770
vt 0.7520 0.9980
vt 0.7588 0.8770
vt 0.7588 0.9980
vt 0.7725 0.9980
vt 0.7793 0.8770
vt 0.7793 0.9980
vt 0.7793 0.9980
vt 0.7725 0.8770
vt 0.7725 0.9980
vt 0.7554 0.8770
vt 0.7520 0.9980
vt 0.7554 0.9980
vt 0.7656 0.8770
vt 0.7656 0.9980
vt 0.7725 0.8770
vt 0.7588 0.9980
vt 0.7520 0.8770
vt 0.7520 0.9980
vt 0.7656 0.8770
vt 0.7554 0.9980
vt 0.7622 0.9980
vt 0.7656 0.8770
vt 0.7588 0.8770
vt 0.7690 0.8770
vt 0.7759 0.9980
vt 0.7690 0.9980
vt 0.7622 0.9980
vt 0.7588 0.8770
vt 0.7622 0.8770
vt 0.7793 0.9980
vt 0.7759 0.8770
vt 0.7793 0.8770
vt 0.7759 0.8770
vt 0.7725 0.9980
vt 0.7759 0.9980
vt 0.7656 0.9980
vt 0.7725 0.8770
vt 0.7520 0.9980
vt 0.9980 0.8770
vt 0.9980 0.9980
vt 0.7793 0.8770
vt 0.7793 0.9980
vt 0.9980 0.9980
vt 0.7520 0.8770
vt 0.7520 0.9980
vt 0.7622 0.8770
vt 0.7622 0.9980
vt 0.7725 0.8770
vt 0.7793 0.9980
vt 0.7520 0.9980
vt 0.7520 0.8770
vt 0.7759 0.8770
vt 0.7588 0.8770
vt 0.7520 0.8770
vt 0.7520 0.8770
vt 0.7793 0.8770
vt 0.7759 0.8770
vt 0.7588 0.9980
vt 0.7520 0.8770
vt 0.7793 0.8770
vt 0.7520 0.8770
vt 0.7554 0.8770
vt 0.7588 0.9980
vt 0.7520 0.8770
vt 0.9980 0.8770
vt 0.7793 0.8770
vt 0.4363 0.9980
vt 0.4358 0.9004
vt 0.4470 0.9011
vt 0.4363 0.9980
vt 0.4358 0.9004
vt 0.0644 0.9980
vt 0.4942 0.9325
vt 0.4959 0.9366
vt 0.4970 0.9407
vt 0.4980 0.9492
vt 0.4970 0.9577
vt 0.4959 0.9619
vt 0.4942 0.9659
vt 0.4897 0.9736
vt 0.4835 0.9806
vt 0.4759 0.9866
vt 0.4671 0.9915
vt 0.4574 0.9951
vt 0.4470 0.9973
vt 0.0644 0.9980
vt 0.0530 0.9973
vt 0.0637 0.9004
vt 0.0426 0.9951
vt 0.0329 0.9915
vt 0.0241 0.9866
vt 0.0165 0.9806
vt 0.0103 0.9736
vt 0.0058 0.9659
vt 0.0020 0.9492
vt 0.0041 0.9619
vt 0.0030 0.9577
vt 0.0030 0.9407
vt 0.0058 0.9325
vt 0.0041 0.9366
vt 0.0103 0.9248
vt 0.0165 0.9178
vt 0.0426 0.9033
vt 0.0241 0.9118
vt 0.0329 0.9069
vt 0.0530 0.9011
vt 0.4574 0.9033
vt 0.4671 0.9069
vt 0.4759 0.9118
vt 0.4835 0.9178
vt 0.4897 0.9248
vt 0.4470 0.9011
vt 0.4470 0.9973
vt 0.0637 0.9004
vt 0.0530 0.9011
vt 0.0426 0.9033
vt 0.0329 0.9069
vt 0.0241 0.9118
vt 0.0165 0.9178
vt 0.0103 0.9248
vt 0.0058 0.9325
vt 0.0020 0.9492
vt 0.0041 0.9366
vt 0.0030 0.9407
vt 0.0030 0.9577
vt 0.0058 0.9659
vt 0.0041 0.9619
vt 0.0103 0.9736
vt 0.0165 0.9806
vt 0.0426 0.9951
vt 0.0241 0.9866
vt 0.0329 0.9915
vt 0.0530 0.9973
vt 0.4574 0.9951
vt 0.4835 0.9806
vt 0.4671 0.9915
vt 0.4759 0.9866
vt 0.4897 0.9736
vt 0.4942 0.9659
vt 0.4959 0.9619
vt 0.4970 0.9577
vt 0.4980 0.9492
vt 0.4942 0.9325
vt 0.4970 0.9407
vt 0.4959 0.9366
vt 0.4897 0.9248
vt 0.4835 0.9178
vt 0.4759 0.9118
vt 0.4671 0.9069
vt 0.4574 0.9033
vn -0.3420 0.9397 0.0000
vn -0.1712 0.9852 0.0000
vn -0.1736 -0.9848 0.0000
vn -0.3420 -0.9397 0.0000
vn 0.8660 0.5000 0.0000
vn 0.7660 0.6428 0.0000
vn 0.9307 0.3657 0.0000
vn 0.3420 -0.9397 0.0000
vn 0.1718 -0.9851 0.0000
vn -0.6428 0.7660 0.0000
vn -0.5000 0.8660 0.0000
vn -0.5000 -0.8660 0.0000
vn -0.6428 -0.7660 0.0000
vn -0.9659 0.2588 0.0000
vn -0.9307 0.3657 0.0000
vn -0.7660 -0.6428 0.0000
vn -0.7660 0.6428 0.0000
vn -0.8660 -0.5000 0.0000
vn -0.9889 -0.1486 0.0000
vn -1.0000 0.0000 0.0000
vn -0.9889 0.1486 0.0000
vn -0.9659 -0.2588 0.0000
vn -0.9307 -0.3657 0.0000
vn 0.0436 0.9990 0.0000
vn 0.1736 0.9848 0.0000
vn 0.5000 0.8660 0.0000
vn 0.6428 0.7660 0.0000
vn 0.6428 -0.7660 0.0000
vn 0.5000 -0.8660 0.0000
vn 0.9659 0.2588 0.0000
vn 0.3420 0.9397 0.0000
vn 0.7660 -0.6428 0.0000
vn 0.8660 -0.5000 0.0000
vn 1.0000 0.0000 0.0000
vn 0.9889 -0.1486 0.0000
vn 0.9889 0.1486 0.0000
vn 0.9659 -0.2588 0.0000
vn 0.9307 -0.3657 0.0000
vn -0.0411 0.9991 0.0000
vn -0.0436 -0.9990 0.0000
vn 0.0417 -0.9991 0.0000
vn -0.8660 0.5000 0.0000
vn 0.0000 0.0000 1.0000
vn 0.0000 0.0000 -1.0000
usemtl ColobotMesh_mat_1_[256]
s 1
f 93/1/1 100/2/2 99/3/1
f 112/4/3 116/5/4 117/6/3
f 125/7/5 127/8/6 133/9/5
f 133/9/5 124/10/7 125/7/5
f 140/11/8 58/12/9 141/13/9
f 97/14/10 86/15/11 85/16/10
f 101/17/12 103/18/13 144/19/12
f 166/20/14 107/21/15 95/22/15
f 114/23/4 144/19/12 116/5/4
f 86/15/11 93/1/1 99/3/1
f 103/24/13 92/25/16 104/26/16
f 98/27/17 85/28/10 115/29/17
f 92/25/16 146/30/18 104/26/16
f 164/31/19 90/32/20 165/33/20
f 110/34/14 167/35/21 111/36/21
f 111/36/21 165/33/20 90/32/20
f 89/37/19 143/38/22 106/39/22
f 142/40/23 106/41/22 143/42/22
f 105/43/23 146/30/18 91/44/18
f 159/45/24 123/46/25 150/47/25
f 156/48/26 126/49/27 155/50/27
f 152/51/28 128/52/29 151/53/29
f 132/54/7 157/55/30 124/56/7
f 140/11/8 128/52/29 138/57/8
f 149/58/31 134/59/26 156/48/26
f 148/60/32 129/61/28 152/62/28
f 150/47/25 122/63/31 149/58/31
f 155/64/27 127/8/6 139/65/6
f 148/60/32 120/66/33 121/67/32
f 119/68/34 168/69/35 160/70/34
f 158/71/36 135/72/30 136/73/36
f 160/70/34 136/73/36 119/68/34
f 154/74/37 118/75/35 131/76/37
f 131/77/37 153/78/38 154/79/37
f 147/80/33 130/81/38 120/66/33
f 163/82/39 137/83/24 159/84/24
f 113/85/40 117/6/3 162/86/40
f 161/87/41 113/88/40 162/89/40
f 95/22/15 108/90/42 96/91/42
f 108/90/42 115/29/17 96/91/42
f 94/92/2 163/93/39 100/2/2
f 161/94/41 58/12/9 1/95/41
f 93/1/1 94/92/2 100/2/2
f 112/4/3 114/23/4 116/5/4
f 125/7/5 139/65/6 127/8/6
f 133/9/5 132/96/7 124/10/7
f 140/11/8 138/57/8 58/12/9
f 97/14/10 109/97/11 86/15/11
f 101/17/12 102/98/13 103/18/13
f 166/20/14 110/99/14 107/21/15
f 114/23/4 101/17/12 144/19/12
f 86/15/11 109/97/11 93/1/1
f 103/24/13 102/100/13 92/25/16
f 98/27/17 97/101/10 85/28/10
f 92/25/16 91/44/18 146/30/18
f 164/31/19 89/37/19 90/32/20
f 110/34/14 166/102/14 167/35/21
f 111/36/21 167/35/21 165/33/20
f 89/37/19 164/31/19 143/38/22
f 142/40/23 105/43/23 106/41/22
f 105/43/23 142/40/23 146/30/18
f 159/45/24 137/103/24 123/46/25
f 156/48/26 134/59/26 126/49/27
f 152/51/28 129/104/28 128/52/29
f 132/54/7 135/105/30 157/55/30
f 140/11/8 151/53/29 128/52/29
f 149/58/31 122/63/31 134/59/26
f 148/60/32 121/67/32 129/61/28
f 150/47/25 123/46/25 122/63/31
f 155/64/27 126/106/27 127/8/6
f 148/60/32 147/80/33 120/66/33
f 119/68/34 118/75/35 168/69/35
f 158/71/36 157/107/30 135/72/30
f 160/70/34 158/71/36 136/73/36
f 154/74/37 168/69/35 118/75/35
f 131/77/37 130/81/38 153/78/38
f 147/80/33 153/78/38 130/81/38
f 163/82/39 145/108/39 137/83/24
f 113/85/40 112/4/3 117/6/3
f 161/87/41 1/109/41 113/88/40
f 95/22/15 107/21/15 108/90/42
f 108/90/42 98/27/17 115/29/17
f 94/92/2 145/110/39 163/93/39
f 161/94/41 141/13/9 58/12/9
usemtl ColobotMesh_mat_2
f 62/111/43 88/112/43 87/113/43
f 81/114/44 10/115/44 8/116/44
f 46/117/43 50/118/43 52/119/43
f 52/119/43 64/120/43 46/117/43
f 65/121/43 40/122/43 41/123/43
f 41/123/43 55/124/43 60/125/43
f 60/125/43 43/126/43 44/127/43
f 44/127/43 56/128/43 60/125/43
f 61/129/43 62/111/43 87/113/43
f 6/130/43 34/131/43 3/132/43
f 28/133/43 15/134/43 14/135/43
f 14/135/43 32/136/43 28/133/43
f 26/137/43 12/138/43 37/139/43
f 11/140/43 38/141/43 12/138/43
f 37/139/43 23/142/43 17/143/43
f 21/144/43 17/143/43 23/142/43
f 16/145/43 35/146/43 19/147/43
f 22/148/43 20/149/43 19/147/43
f 19/147/43 30/150/43 3/132/43
f 3/132/43 88/112/43 6/130/43
f 87/113/43 48/151/43 49/152/43
f 49/152/43 51/153/43 63/154/43
f 63/154/43 45/155/43 46/117/43
f 46/117/43 64/120/43 65/121/43
f 65/121/43 41/123/43 87/113/43
f 60/125/43 56/128/43 61/129/43
f 62/111/43 6/130/43 88/112/43
f 28/133/43 32/136/43 26/137/43
f 12/138/43 38/141/43 37/139/43
f 37/139/43 17/143/43 16/145/43
f 35/146/43 22/148/43 19/147/43
f 19/147/43 3/132/43 26/137/43
f 87/113/43 49/152/43 63/154/43
f 63/154/43 46/117/43 87/113/43
f 41/123/43 60/125/43 61/129/43
f 34/131/43 28/133/43 3/132/43
f 26/137/43 37/139/43 16/145/43
f 16/145/43 19/147/43 26/137/43
f 87/113/43 46/117/43 65/121/43
f 41/123/43 61/129/43 87/113/43
f 26/137/43 3/132/43 28/133/43
f 57/156/44 81/114/44 80/157/44
f 9/158/44 29/159/44 18/160/44
f 18/160/44 66/161/44 68/162/44
f 68/162/44 69/163/44 18/160/44
f 2/164/44 39/165/44 70/166/44
f 67/167/44 24/168/44 39/165/44
f 70/166/44 36/169/44 13/170/44
f 7/171/44 13/170/44 36/169/44
f 25/172/44 31/173/44 27/174/44
f 5/175/44 4/176/44 27/174/44
f 27/174/44 33/177/44 18/160/44
f 8/116/44 10/115/44 9/158/44
f 80/157/44 79/178/44 59/179/44
f 73/180/44 72/181/44 59/179/44
f 59/179/44 54/182/44 42/183/44
f 42/183/44 71/184/44 84/185/44
f 84/185/44 83/186/44 75/187/44
f 53/188/44 77/189/44 75/187/44
f 75/187/44 74/190/44 82/191/44
f 82/191/44 78/192/44 76/193/44
f 76/193/44 47/194/44 57/156/44
f 10/115/44 81/114/44 57/156/44
f 18/160/44 69/163/44 2/164/44
f 39/165/44 24/168/44 70/166/44
f 70/166/44 13/170/44 25/172/44
f 31/173/44 5/175/44 27/174/44
f 33/177/44 9/158/44 18/160/44
f 79/178/44 73/180/44 59/179/44
f 59/179/44 42/183/44 75/187/44
f 83/186/44 53/188/44 75/187/44
f 75/187/44 82/191/44 76/193/44
f 76/193/44 57/156/44 75/187/44
f 18/160/44 2/164/44 70/166/44
f 70/166/44 25/172/44 27/174/44
f 8/116/44 9/158/44 33/177/44
f 42/183/44 84/185/44 75/187/44
f 75/187/44 57/156/44 80/157/44
f 18/160/44 70/166/44 27/174/44
f 80/157/44 59/179/44 75/187/44
