# Blender v2.70 (sub 5) OBJ File: 'subm4.blend'
# www.blender.org
mtllib subm4.mtl
o ColobotMesh_1_ColobotMesh_.001
v 3.000000 -1.000000 -1.393310
v -3.874205 -0.501453 1.006689
v -3.010697 -1.000000 -1.393310
v -3.509244 0.860602 1.006690
v -3.651617 0.760912 1.006690
v -3.000260 0.994188 -1.393310
v -3.974406 0.255319 1.006690
v -3.000260 0.994188 1.006689
v -3.010697 -1.000000 1.006689
v 3.000000 -1.000000 1.006689
v -3.974406 0.255319 -1.393309
v -3.947658 0.338120 -1.393309
v -3.947658 0.338120 1.006690
v -3.651617 0.760912 -1.393309
v -3.509244 0.860602 -1.393309
v -3.874205 -0.501453 -1.393309
v -3.947658 -0.343933 -1.393309
v -3.351724 -0.939868 1.006689
v -3.351724 -0.939868 -1.393310
v -3.509244 -0.866415 -1.393310
v -3.974406 -0.261132 -1.393309
v -3.651617 -0.766725 -1.393310
v -3.992643 -0.176050 -1.393309
v -3.992643 -0.176050 1.006689
v -3.874205 0.495641 1.006690
v -3.874205 0.495641 -1.393309
v -3.351723 0.934055 1.006690
v -3.351723 0.934055 -1.393309
v -3.183841 -0.984852 1.006689
v -3.183841 -0.984852 -1.393310
v -3.774515 0.638013 1.006690
v -3.774515 0.638013 -1.393309
v -3.183840 0.979040 1.006690
v -3.183840 0.979040 -1.393309
v -3.774515 -0.643826 -1.393310
v -3.992643 0.170238 1.006690
v -4.007791 -0.002906 -1.393309
v -3.992643 0.170238 -1.393309
v -3.947658 -0.343933 1.006689
v 3.971500 0.255319 -1.393309
v 3.944752 0.338120 -1.393309
v 3.944752 0.338120 1.006690
v 3.648710 0.760912 -1.393309
v 3.506337 0.860602 -1.393309
v 3.871299 -0.501453 -1.393309
v 3.944752 -0.343933 -1.393309
v 3.348817 -0.939868 1.006689
v 3.348817 -0.939868 -1.393310
v 3.506337 -0.866415 -1.393310
v 3.971500 -0.261132 -1.393309
v 3.648710 -0.766725 -1.393310
v 3.989736 -0.176050 -1.393309
v 3.989736 -0.176050 1.006689
v 3.871299 0.495641 1.006690
v 3.871299 0.495641 -1.393309
v 3.348816 0.934055 -1.393309
v 3.180934 -0.984852 1.006689
v 3.180934 -0.984852 -1.393310
v 3.771608 0.638013 1.006690
v 3.771608 0.638013 -1.393309
v 3.180933 0.979040 -1.393309
v 3.007790 0.994187 -1.393309
v 3.771608 -0.643826 -1.393310
v 4.004884 -0.002906 -1.393309
v 3.989736 0.170238 -1.393309
v -3.509244 -0.866415 1.006689
v -3.974406 -0.261132 1.006689
v -3.651617 -0.766725 1.006689
v -3.774515 -0.643826 1.006689
v -4.007791 -0.002906 1.006689
v 3.971500 0.255319 1.006690
v 3.648710 0.760912 1.006690
v 3.506337 0.860602 1.006690
v 3.871299 -0.501453 1.006690
v 3.944752 -0.343933 1.006690
v 3.506337 -0.866415 1.006689
v 3.971500 -0.261132 1.006690
v 3.648710 -0.766725 1.006689
v 3.348816 0.934055 1.006690
v 3.180933 0.979040 1.006690
v 3.007790 0.994187 1.006690
v 3.771608 -0.643826 1.006689
v 4.004884 -0.002906 1.006690
v 3.989736 0.170238 1.006690
vt 0.762210 0.876953
vt 0.769045 0.998047
vt 0.769045 0.876953
vt 0.755375 0.998047
vt 0.755375 0.876953
vt 0.765623 0.876953
vt 0.772458 0.998047
vt 0.772458 0.876953
vt 0.765623 0.998047
vt 0.769036 0.876953
vt 0.762201 0.876953
vt 0.762201 0.998047
vt 0.775871 0.998047
vt 0.775871 0.876953
vt 0.758788 0.876953
vt 0.751953 0.876953
vt 0.758788 0.998047
vt 0.751953 0.998047
vt 0.779293 0.876953
vt 0.775880 0.998047
vt 0.775880 0.876953
vt 0.758779 0.876953
vt 0.758779 0.998047
vt 0.769036 0.998047
vt 0.779293 0.998047
vt 0.755366 0.876953
vt 0.755366 0.998047
vt 0.998047 0.876953
vt 0.998047 0.998047
vt 0.762210 0.998047
vt 0.495901 0.936573
vt 0.494245 0.932519
vt 0.497030 0.940740
vt 0.435771 0.900391
vt 0.436254 0.998047
vt 0.446970 0.901133
vt 0.064393 0.998047
vt 0.053031 0.901133
vt 0.042640 0.903335
vt 0.032890 0.906932
vt 0.024078 0.911814
vt 0.016472 0.917833
vt 0.010301 0.924805
vt 0.005755 0.932519
vt 0.004100 0.936573
vt 0.002971 0.940740
vt 0.002971 0.957698
vt 0.005756 0.965919
vt 0.002033 0.949219
vt 0.004100 0.961864
vt 0.010302 0.973633
vt 0.016472 0.980605
vt 0.024079 0.986623
vt 0.032891 0.991505
vt 0.483529 0.980605
vt 0.494245 0.965919
vt 0.457361 0.995102
vt 0.483529 0.917833
vt 0.467110 0.906933
vt 0.446970 0.997305
vt 0.467110 0.991505
vt 0.475922 0.986623
vt 0.489699 0.973633
vt 0.495901 0.961864
vt 0.497029 0.957698
vt 0.497967 0.949219
vt 0.489699 0.924805
vt 0.042640 0.995102
vt 0.053031 0.997305
vt 0.063747 0.900391
vt 0.457361 0.903336
vt 0.475922 0.911814
vn -0.819152 0.573577 -0.000000
vn -0.906308 0.422618 -0.000000
vn -0.258821 0.965925 0.000000
vn -0.258818 -0.965926 -0.000000
vn 0.819153 0.573575 0.000000
vn 0.906308 0.422618 -0.000000
vn 0.258818 -0.965926 0.000000
vn -0.573577 0.819152 -0.000000
vn -0.573576 -0.819152 0.000000
vn -0.951580 0.307400 -0.000000
vn -0.422618 -0.906308 -0.000000
vn -0.422617 0.906309 0.000000
vn -0.707108 -0.707105 -0.000000
vn -0.707107 0.707107 0.000000
vn -0.819152 -0.573577 -0.000000
vn -0.996195 -0.087153 -0.000000
vn -0.977792 0.209577 -0.000000
vn -0.996195 0.087153 -0.000000
vn -0.977792 -0.209580 0.000000
vn -0.951581 -0.307400 0.000000
vn -0.906308 -0.422618 0.000000
vn 0.087154 0.996195 0.000000
vn 0.573577 0.819152 0.000000
vn 0.573576 -0.819152 -0.000000
vn 0.951582 0.307396 -0.000000
vn 0.422618 -0.906308 0.000000
vn 0.422616 0.906309 -0.000000
vn 0.707109 -0.707105 0.000000
vn 0.258821 0.965925 -0.000000
vn 0.707107 0.707106 -0.000000
vn 0.819152 -0.573576 0.000000
vn 0.996195 -0.087153 -0.000000
vn 0.977792 0.209578 -0.000000
vn 0.996195 0.087155 -0.000000
vn 0.977792 -0.209577 0.000000
vn 0.951579 -0.307403 0.000000
vn 0.906309 -0.422616 0.000000
vn 0.000000 1.000000 -0.000000
vn 0.083430 -0.996514 0.000000
vn -0.082237 0.996613 0.000000
vn -0.087156 -0.996195 0.000000
vn 0.000000 -1.000000 0.000000
vn -0.819151 0.573578 0.000000
vn -0.906309 0.422616 -0.000000
vn 0.819152 0.573577 0.000000
vn 0.906308 0.422617 -0.000000
vn -0.573576 0.819152 0.000000
vn -0.573577 -0.819152 -0.000000
vn -0.951581 0.307398 -0.000000
vn -0.707107 -0.707106 0.000000
vn -0.707106 0.707107 -0.000000
vn -0.819153 -0.573575 0.000000
vn -0.996195 -0.087157 -0.000000
vn -0.977791 0.209582 -0.000000
vn -0.996195 0.087156 -0.000000
vn -0.977793 -0.209575 0.000000
vn -0.951580 -0.307402 0.000000
vn -0.906309 -0.422616 -0.000000
vn 0.573575 -0.819153 -0.000000
vn 0.951581 0.307397 -0.000000
vn 0.422619 -0.906308 0.000000
vn 0.422617 0.906309 -0.000000
vn 0.707107 -0.707106 0.000000
vn 0.819151 -0.573577 0.000000
vn 0.996195 -0.087155 -0.000000
vn 0.977793 0.209575 -0.000000
vn 0.996195 0.087153 -0.000000
vn 0.977793 -0.209573 0.000000
vn 0.951579 -0.307404 0.000000
vn 0.906308 -0.422619 -0.000000
vn 0.000001 0.000000 -1.000000
vn -0.000014 0.000004 1.000000
vn 0.000002 0.000001 -1.000000
vn 0.000000 0.000001 -1.000000
vn 0.000003 0.000000 -1.000000
vn 0.000011 0.000006 -1.000000
vn -0.000012 -0.000003 -1.000000
vn -0.000014 0.000000 -1.000000
vn -0.000002 0.000001 -1.000000
vn 0.000026 -0.000006 -1.000000
vn -0.000003 0.000000 -1.000000
vn 0.000000 0.000000 -1.000000
vn -0.000001 0.000000 -1.000000
vn -0.000005 0.000000 -1.000000
vn -0.000057 -0.000011 -1.000000
vn -0.000004 0.000001 -1.000000
vn 0.000017 -0.000007 -1.000000
vn -0.000002 0.000000 -1.000000
vn 0.000001 0.000002 -1.000000
vn 0.000002 -0.000004 -1.000000
vn 0.000002 0.000000 -1.000000
vn 0.000004 0.000000 -1.000000
vn 0.000001 -0.000001 -1.000000
vn -0.000007 -0.000000 -1.000000
vn 0.000004 0.000001 -1.000000
vn -0.000024 -0.000001 -1.000000
vn -0.000001 0.000002 -1.000000
vn -0.000001 -0.000001 1.000000
vn -0.000000 -0.000001 1.000000
vn 0.000000 0.000000 1.000000
vn -0.000005 -0.000006 1.000000
vn 0.000011 0.000003 1.000000
vn 0.000013 0.000000 1.000000
vn 0.000003 -0.000002 1.000000
vn -0.000010 0.000003 1.000000
vn -0.000000 0.000001 1.000000
vn 0.000007 0.000003 1.000000
vn -0.000007 0.000003 1.000000
vn 0.000002 -0.000000 1.000000
vn -0.000013 0.000007 1.000000
vn 0.000002 -0.000004 1.000000
vn -0.000000 -0.000002 1.000000
vn 0.000001 0.000000 1.000000
vn -0.000001 0.000004 1.000000
vn 0.000001 -0.000001 1.000000
vn 0.000007 0.000000 1.000000
vn -0.000002 -0.000000 1.000000
vn 0.000001 -0.000002 1.000000
vn 0.000005 0.000000 1.000000
usemtl ColobotMesh_mat_1_[256]
s off
f 26/1/1 31/2/1 32/3/1
f 13/4/2 26/1/2 12/5/2
f 28/6/3 33/7/3 34/8/3
f 30/8/4 18/9/4 19/6/4
f 55/10/5 60/11/5 59/12/5
f 42/13/6 41/14/6 55/10/6
f 58/15/7 48/6/7 47/9/7
f 14/16/8 4/17/8 15/15/8
f 20/15/9 68/18/9 22/16/9
f 7/18/10 12/5/10 11/16/10
f 19/6/11 66/17/11 20/15/11
f 15/15/12 27/9/12 28/6/12
f 22/19/13 69/7/13 35/8/13
f 32/3/14 5/20/14 14/21/14
f 35/8/15 2/9/15 16/6/15
f 24/13/16 37/10/16 23/14/16
f 11/22/17 36/12/17 7/23/17
f 38/11/18 70/24/18 36/12/18
f 23/14/19 67/25/19 24/13/19
f 39/17/20 21/26/20 17/15/20
f 17/15/21 2/9/21 39/17/21
f 61/15/22 62/16/22 81/18/22
f 43/19/23 44/8/23 73/7/23
f 49/8/24 51/19/24 78/25/24
f 71/18/25 40/16/25 41/5/25
f 48/6/26 49/8/26 76/7/26
f 44/8/27 56/6/27 79/9/27
f 51/16/28 63/15/28 82/17/28
f 56/6/29 61/15/29 80/17/29
f 60/11/30 43/26/30 72/27/30
f 63/15/31 45/6/31 74/9/31
f 53/13/32 52/14/32 64/10/32
f 40/22/33 71/23/33 84/12/33
f 65/11/34 84/12/34 83/24/34
f 52/14/35 53/13/35 77/25/35
f 75/7/36 46/8/36 50/21/36
f 46/8/37 75/7/37 74/9/37
f 62/28/38 6/16/38 8/18/38
f 1/16/39 58/15/39 57/17/39
f 34/8/40 8/25/40 6/19/40
f 3/19/41 29/7/41 30/8/41
f 3/16/42 1/28/42 10/29/42
f 25/30/43 31/2/43 26/1/43
f 25/30/44 26/1/44 13/4/44
f 27/9/3 33/7/3 28/6/3
f 29/7/4 18/9/4 30/8/4
f 54/24/45 55/10/45 59/12/45
f 54/24/46 42/13/46 55/10/46
f 57/17/7 58/15/7 47/9/7
f 5/18/47 4/17/47 14/16/47
f 66/17/48 68/18/48 20/15/48
f 13/4/49 12/5/49 7/18/49
f 18/9/11 66/17/11 19/6/11
f 4/17/12 27/9/12 15/15/12
f 68/25/50 69/7/50 22/19/50
f 31/2/51 5/20/51 32/3/51
f 69/7/52 2/9/52 35/8/52
f 70/24/53 37/10/53 24/13/53
f 38/11/54 36/12/54 11/22/54
f 37/10/55 70/24/55 38/11/55
f 21/19/56 67/25/56 23/14/56
f 67/27/57 21/26/57 39/17/57
f 16/6/58 2/9/58 17/15/58
f 80/17/22 61/15/22 81/18/22
f 72/25/23 43/19/23 73/7/23
f 76/7/59 49/8/59 78/25/59
f 42/4/60 71/18/60 41/5/60
f 47/9/61 48/6/61 76/7/61
f 73/7/62 44/8/62 79/9/62
f 78/18/63 51/16/63 82/17/63
f 79/9/29 56/6/29 80/17/29
f 59/12/30 60/11/30 72/27/30
f 82/17/64 63/15/64 74/9/64
f 83/24/65 53/13/65 64/10/65
f 65/11/66 40/22/66 84/12/66
f 64/10/67 65/11/67 83/24/67
f 50/19/68 52/14/68 77/25/68
f 77/20/69 75/7/69 50/21/69
f 45/6/70 46/8/70 74/9/70
f 81/29/38 62/28/38 8/18/38
f 10/18/39 1/16/39 57/17/39
f 33/7/40 8/25/40 34/8/40
f 9/25/41 29/7/41 3/19/41
f 9/18/42 3/16/42 10/29/42
usemtl ColobotMesh_mat_2
f 50/31/71 46/32/71 52/33/71
f 77/31/72 53/33/72 75/32/72
f 1/34/73 62/35/73 58/36/73
f 6/37/74 62/35/74 1/34/74
f 30/38/75 19/39/75 20/40/75
f 20/40/76 22/41/76 35/42/76
f 35/42/77 16/43/77 17/44/77
f 17/44/78 21/45/78 23/46/78
f 38/47/79 12/48/79 37/49/79
f 38/47/80 11/50/80 12/48/80
f 12/48/81 26/51/81 32/52/81
f 32/52/75 14/53/75 15/54/75
f 60/55/82 41/56/82 56/57/82
f 58/36/83 63/58/83 49/59/83
f 62/35/82 61/60/82 56/57/82
f 56/57/84 44/61/84 43/62/84
f 55/63/75 41/56/75 60/55/75
f 40/64/85 65/65/85 41/56/85
f 64/66/86 46/32/86 41/56/86
f 45/67/87 63/58/87 46/32/87
f 28/68/74 34/69/74 3/70/74
f 48/71/88 58/36/88 49/59/88
f 3/70/74 17/44/74 28/68/74
f 30/38/89 20/40/89 35/42/89
f 17/44/71 23/46/71 37/49/71
f 30/38/74 35/42/74 17/44/74
f 15/54/90 28/68/90 32/52/90
f 3/70/82 6/37/82 1/34/82
f 43/62/71 60/55/71 56/57/71
f 52/33/91 46/32/91 64/66/91
f 63/58/92 51/72/92 49/59/92
f 28/68/93 12/48/93 32/52/93
f 6/37/94 3/70/94 34/69/94
f 62/35/74 41/56/74 46/32/74
f 12/48/95 17/44/95 37/49/95
f 58/36/82 62/35/82 46/32/82
f 41/56/96 65/65/96 64/66/96
f 3/70/74 30/38/74 17/44/74
f 17/44/74 12/48/74 28/68/74
f 56/57/82 41/56/82 62/35/82
f 63/58/97 58/36/97 46/32/97
f 10/34/98 57/36/98 81/35/98
f 8/37/99 10/34/99 81/35/99
f 29/38/100 66/40/100 18/39/100
f 66/40/101 69/42/101 68/41/101
f 69/42/102 39/44/102 2/43/102
f 39/44/103 24/46/103 67/45/103
f 36/47/104 70/49/104 13/48/104
f 36/47/103 13/48/103 7/50/103
f 13/48/105 31/52/105 25/51/105
f 31/52/100 4/54/100 5/53/100
f 59/55/98 79/57/98 42/56/98
f 57/36/106 76/59/106 82/58/106
f 81/35/100 79/57/100 80/60/100
f 79/57/100 72/62/100 73/61/100
f 54/63/107 59/55/107 42/56/107
f 71/64/108 42/56/108 84/65/108
f 83/66/109 42/56/109 75/32/109
f 74/67/110 75/32/110 82/58/110
f 27/68/99 9/70/99 33/69/99
f 47/71/111 76/59/111 57/36/111
f 9/70/99 27/68/99 39/44/99
f 29/38/112 69/42/112 66/40/112
f 39/44/113 70/49/113 24/46/113
f 29/38/99 39/44/99 69/42/99
f 4/54/114 31/52/114 27/68/114
f 9/70/100 10/34/100 8/37/100
f 72/62/112 79/57/112 59/55/112
f 53/33/115 83/66/115 75/32/115
f 82/58/109 76/59/109 78/72/109
f 27/68/99 31/52/99 13/48/99
f 8/37/116 33/69/116 9/70/116
f 81/35/100 75/32/100 42/56/100
f 13/48/117 70/49/117 39/44/117
f 82/58/118 75/32/118 57/36/118
f 42/56/119 83/66/119 84/65/119
f 9/70/99 39/44/99 29/38/99
f 39/44/100 27/68/100 13/48/100
f 57/36/99 75/32/99 81/35/99
f 79/57/99 81/35/99 42/56/99
