# Blender v2.70 (sub 5) OBJ File: 'subm5.blend'
# www.blender.org
mtllib subm5.mtl
o ColobotMesh_1_ColobotMesh_.001
v -3.874205 0.495641 1.393309
v -3.774515 0.638013 -1.006690
v -3.774515 0.638013 1.393309
v -3.947658 0.338120 -1.006690
v -3.947658 0.338120 1.393309
v -3.351723 0.934055 1.393309
v -3.183840 0.979040 -1.006690
v -3.183840 0.979040 1.393309
v -3.183841 -0.984852 1.393310
v -3.351724 -0.939868 -1.006689
v -3.351724 -0.939868 1.393310
v 3.871299 0.495641 1.393309
v 3.771608 0.638013 1.393309
v 3.771608 0.638013 -1.006690
v 3.944752 0.338120 -1.006690
v 3.944752 0.338120 1.393309
v 3.180934 -0.984852 1.393310
v 3.348817 -0.939868 1.393310
v 3.348817 -0.939868 -1.006689
v -3.651617 0.760912 1.393309
v -3.509244 0.860602 -1.006690
v -3.509244 0.860602 1.393309
v -3.509244 -0.866415 1.393310
v -3.651617 -0.766725 -1.006689
v -3.651617 -0.766725 1.393310
v -3.974406 0.255319 -1.006690
v -3.974406 0.255319 1.393309
v -3.509244 -0.866415 -1.006689
v -3.351723 0.934055 -1.006690
v -3.774515 -0.643826 -1.006689
v -3.774515 -0.643826 1.393310
v -3.651617 0.760912 -1.006690
v -3.874205 -0.501453 -1.006689
v -3.874205 -0.501453 1.393309
v -3.992643 -0.176050 -1.006689
v -4.007791 -0.002906 1.393309
v -3.992643 -0.176050 1.393309
v -3.992643 0.170238 -1.006690
v -3.992643 0.170238 1.393309
v -4.007791 -0.002906 -1.006689
v -3.974406 -0.261132 -1.006689
v -3.947658 -0.343933 -1.006689
v -3.974406 -0.261132 1.393309
v -3.947658 -0.343933 1.393309
v 3.180933 0.979040 1.393309
v 3.007790 0.994187 1.393309
v 3.007790 0.994187 -1.006690
v 3.648710 0.760912 1.393309
v 3.506337 0.860602 1.393309
v 3.506337 0.860602 -1.006690
v 3.506337 -0.866415 1.393310
v 3.648710 -0.766725 1.393310
v 3.648710 -0.766725 -1.006689
v 3.971500 0.255319 -1.006690
v 3.971500 0.255319 1.393309
v 3.506337 -0.866415 -1.006689
v 3.348816 0.934055 1.393309
v 3.348816 0.934055 -1.006690
v 3.771608 -0.643826 1.393310
v 3.771608 -0.643826 -1.006689
v 3.180933 0.979040 -1.006690
v 3.648710 0.760912 -1.006690
v 3.871299 -0.501453 1.393309
v 3.871299 -0.501453 -1.006690
v 3.989736 -0.176050 -1.006689
v 3.989736 -0.176050 1.393309
v 4.004884 -0.002906 1.393309
v 3.989736 0.170238 -1.006690
v 3.989736 0.170238 1.393309
v 4.004884 -0.002906 -1.006690
v 3.971500 -0.261132 -1.006690
v 3.944752 -0.343933 -1.006690
v 3.944752 -0.343933 1.393309
v 3.971500 -0.261132 1.393309
v -3.000260 0.994188 1.393310
v -3.000260 0.994188 -1.006689
v 3.000000 -1.000000 1.393310
v 3.180934 -0.984852 -1.006689
v -3.010697 -1.000000 1.393310
v -3.183841 -0.984852 -1.006689
v 3.000000 -1.000000 -1.006689
v -3.874205 0.495641 -1.006690
v 3.871299 0.495641 -1.006690
v -3.010697 -1.000000 -1.006689
vt 0.762210 0.876953
vt 0.769045 0.998047
vt 0.769045 0.876953
vt 0.755375 0.998047
vt 0.755375 0.876953
vt 0.765623 0.876953
vt 0.772458 0.998047
vt 0.772458 0.876953
vt 0.765623 0.998047
vt 0.769036 0.876953
vt 0.762201 0.876953
vt 0.762201 0.998047
vt 0.775871 0.998047
vt 0.775871 0.876953
vt 0.758788 0.876953
vt 0.751953 0.876953
vt 0.758788 0.998047
vt 0.751953 0.998047
vt 0.779293 0.876953
vt 0.775880 0.998047
vt 0.775880 0.876953
vt 0.758779 0.876953
vt 0.758779 0.998047
vt 0.769036 0.998047
vt 0.779293 0.998047
vt 0.755366 0.876953
vt 0.755366 0.998047
vt 0.998047 0.876953
vt 0.998047 0.998047
vt 0.762210 0.998047
vt 0.495901 0.936573
vt 0.494245 0.932519
vt 0.497030 0.940740
vt 0.435771 0.900391
vt 0.436254 0.998047
vt 0.446970 0.901133
vt 0.064393 0.998047
vt 0.053031 0.901133
vt 0.042640 0.903335
vt 0.032890 0.906932
vt 0.024078 0.911814
vt 0.016472 0.917833
vt 0.010301 0.924805
vt 0.005755 0.932519
vt 0.004100 0.936573
vt 0.002971 0.940740
vt 0.002971 0.957698
vt 0.005756 0.965919
vt 0.002033 0.949219
vt 0.004100 0.961864
vt 0.010302 0.973633
vt 0.016472 0.980605
vt 0.024079 0.986623
vt 0.032891 0.991505
vt 0.483529 0.980605
vt 0.494245 0.965919
vt 0.457361 0.995102
vt 0.483529 0.917833
vt 0.467110 0.906933
vt 0.446970 0.997305
vt 0.467110 0.991505
vt 0.475922 0.986623
vt 0.489699 0.973633
vt 0.495901 0.961864
vt 0.497029 0.957698
vt 0.497967 0.949219
vt 0.489699 0.924805
vt 0.042640 0.995102
vt 0.053031 0.997305
vt 0.063747 0.900391
vt 0.457361 0.903336
vt 0.475922 0.911814
vn 0.819152 -0.573577 0.000000
vn 0.906308 -0.422618 0.000000
vn 0.258824 -0.965924 0.000000
vn 0.258819 0.965926 -0.000000
vn -0.819149 -0.573581 0.000000
vn -0.906308 -0.422618 0.000000
vn -0.258818 0.965926 -0.000000
vn 0.573573 -0.819154 0.000000
vn 0.573573 0.819154 -0.000000
vn 0.951581 -0.307397 0.000000
vn 0.422620 0.906307 -0.000000
vn 0.422616 -0.906309 0.000000
vn 0.707110 0.707104 -0.000000
vn 0.707109 -0.707104 0.000000
vn 0.819154 0.573574 -0.000000
vn 0.996195 0.087154 -0.000000
vn 0.977789 -0.209590 0.000000
vn 0.996195 -0.087156 0.000000
vn 0.977790 0.209588 -0.000000
vn 0.951580 0.307400 -0.000000
vn 0.906308 0.422618 -0.000000
vn -0.087150 -0.996195 0.000000
vn -0.573574 -0.819154 0.000000
vn -0.573575 0.819153 -0.000000
vn -0.951581 -0.307398 0.000000
vn -0.422619 0.906307 -0.000000
vn -0.422617 -0.906308 0.000000
vn -0.707110 0.707104 -0.000000
vn -0.258824 -0.965925 0.000000
vn -0.707110 -0.707104 0.000000
vn -0.819152 0.573577 -0.000000
vn -0.996195 0.087152 -0.000000
vn -0.977792 -0.209578 0.000000
vn -0.996195 -0.087155 0.000000
vn -0.977792 0.209577 -0.000000
vn -0.951581 0.307397 -0.000000
vn -0.906307 0.422620 -0.000000
vn -0.000000 -1.000000 0.000000
vn -0.083429 0.996514 -0.000000
vn 0.082235 -0.996613 0.000000
vn 0.087155 0.996195 -0.000000
vn 0.000000 1.000000 -0.000000
vn 0.819151 -0.573578 0.000000
vn 0.906308 -0.422619 0.000000
vn 0.258824 -0.965925 0.000000
vn -0.819150 -0.573580 0.000000
vn -0.906308 -0.422617 0.000000
vn 0.573576 -0.819153 0.000000
vn 0.573574 0.819154 -0.000000
vn 0.951582 -0.307396 0.000000
vn 0.422617 -0.906308 0.000000
vn 0.707110 -0.707104 0.000000
vn 0.819152 0.573576 -0.000000
vn 0.996195 0.087156 -0.000000
vn 0.977790 -0.209586 0.000000
vn 0.977791 0.209584 -0.000000
vn 0.951580 0.307401 -0.000000
vn 0.906307 0.422619 -0.000000
vn -0.573573 0.819154 -0.000000
vn -0.951580 -0.307401 0.000000
vn -0.422619 0.906308 -0.000000
vn -0.707109 0.707105 -0.000000
vn -0.707109 -0.707105 0.000000
vn -0.819152 0.573576 -0.000000
vn -0.996195 0.087156 -0.000000
vn -0.977791 -0.209583 0.000000
vn -0.996195 -0.087154 0.000000
vn -0.977793 0.209574 -0.000000
vn -0.951580 0.307400 -0.000000
vn -0.906307 0.422619 -0.000000
vn -0.083430 0.996514 -0.000000
vn -0.000010 0.000000 -1.000000
vn 0.000128 -0.000037 1.000000
vn -0.000000 -0.000001 -1.000000
vn -0.000001 0.000000 -1.000000
vn 0.000006 0.000003 -1.000000
vn 0.000030 0.000013 -1.000000
vn -0.000002 0.000000 -1.000000
vn -0.000020 0.000000 -1.000000
vn 0.000000 0.000000 -1.000000
vn 0.000001 0.000003 -1.000000
vn 0.000001 -0.000001 -1.000000
vn 0.000001 0.000000 -1.000000
vn -0.000001 -0.000004 -1.000000
vn 0.000002 0.000000 -1.000000
vn -0.000018 0.000000 -1.000000
vn -0.000022 0.000013 -1.000000
vn -0.000001 -0.000001 -1.000000
vn -0.000003 -0.000005 -1.000000
vn 0.000003 0.000001 -1.000000
vn -0.000006 0.000003 -1.000000
vn 0.000006 -0.000000 -1.000000
vn -0.000005 0.000000 -1.000000
vn -0.000000 -0.000002 -1.000000
vn 0.000003 -0.000005 -1.000000
vn 0.000000 0.000001 1.000000
vn -0.000000 0.000000 1.000000
vn -0.000005 -0.000003 1.000000
vn -0.000005 0.000000 1.000000
vn -0.000011 0.000000 1.000000
vn -0.000033 0.000009 1.000000
vn 0.000006 0.000000 1.000000
vn -0.000002 0.000000 1.000000
vn 0.000004 -0.000003 1.000000
vn -0.000001 -0.000000 1.000000
vn -0.000001 0.000001 1.000000
vn 0.000001 0.000000 1.000000
vn 0.000001 0.000004 1.000000
vn -0.000012 0.000000 1.000000
vn 0.000039 -0.000015 1.000000
vn -0.000000 -0.000001 1.000000
vn -0.000068 0.000012 1.000000
vn -0.000006 0.000000 1.000000
vn 0.000009 0.000002 1.000000
vn -0.000003 0.000005 1.000000
vn -0.000001 0.000002 1.000000
vn 0.000001 0.000001 1.000000
usemtl ColobotMesh_mat_1_[256]
s off
f 1/1/1 2/2/1 3/3/1
f 4/4/2 1/1/2 5/5/2
f 6/6/3 7/7/3 8/8/3
f 9/8/4 10/9/4 11/6/4
f 12/10/5 13/11/5 14/12/5
f 15/13/6 16/14/6 12/10/6
f 17/15/7 18/6/7 19/9/7
f 20/16/8 21/17/8 22/15/8
f 23/15/9 24/18/9 25/16/9
f 26/18/10 5/5/10 27/16/10
f 11/6/11 28/17/11 23/15/11
f 22/15/12 29/9/12 6/6/12
f 25/19/13 30/7/13 31/8/13
f 3/3/14 32/20/14 20/21/14
f 31/8/15 33/9/15 34/6/15
f 35/13/16 36/10/16 37/14/16
f 27/22/17 38/12/17 26/23/17
f 39/11/18 40/24/18 38/12/18
f 37/14/19 41/25/19 35/13/19
f 42/17/20 43/26/20 44/15/20
f 44/15/21 33/9/21 42/17/21
f 45/15/22 46/16/22 47/18/22
f 48/19/23 49/8/23 50/7/23
f 51/8/24 52/19/24 53/25/24
f 54/18/25 55/16/25 16/5/25
f 18/6/26 51/8/26 56/7/26
f 49/8/27 57/6/27 58/9/27
f 52/16/28 59/15/28 60/17/28
f 57/6/29 45/15/29 61/17/29
f 13/11/30 48/26/30 62/27/30
f 59/15/31 63/6/31 64/9/31
f 65/13/32 66/14/32 67/10/32
f 55/22/33 54/23/33 68/12/33
f 69/11/34 68/12/34 70/24/34
f 66/14/35 65/13/35 71/25/35
f 72/7/36 73/8/36 74/21/36
f 73/8/37 72/7/37 64/9/37
f 46/28/38 75/16/38 76/18/38
f 77/16/39 17/15/39 78/17/39
f 8/8/40 76/25/40 75/19/40
f 79/19/41 80/7/41 9/8/41
f 79/16/42 77/28/42 81/29/42
f 2/2/43 1/1/43 82/30/43
f 82/30/44 1/1/44 4/4/44
f 29/9/45 7/7/45 6/6/45
f 80/7/4 10/9/4 9/8/4
f 83/24/46 12/10/46 14/12/46
f 83/24/47 15/13/47 12/10/47
f 78/17/7 17/15/7 19/9/7
f 32/18/48 21/17/48 20/16/48
f 28/17/49 24/18/49 23/15/49
f 4/4/50 5/5/50 26/18/50
f 10/9/11 28/17/11 11/6/11
f 21/17/51 29/9/51 22/15/51
f 24/25/13 30/7/13 25/19/13
f 2/2/52 32/20/52 3/3/52
f 30/7/53 33/9/53 31/8/53
f 40/24/54 36/10/54 35/13/54
f 39/11/55 38/12/55 27/22/55
f 36/10/18 40/24/18 39/11/18
f 43/19/56 41/25/56 37/14/56
f 41/27/57 43/26/57 42/17/57
f 34/6/58 33/9/58 44/15/58
f 61/17/22 45/15/22 47/18/22
f 62/25/23 48/19/23 50/7/23
f 56/7/59 51/8/59 53/25/59
f 15/4/60 54/18/60 16/5/60
f 19/9/61 18/6/61 56/7/61
f 50/7/27 49/8/27 58/9/27
f 53/18/62 52/16/62 60/17/62
f 58/9/29 57/6/29 61/17/29
f 14/12/63 13/11/63 62/27/63
f 60/17/64 59/15/64 64/9/64
f 70/24/65 65/13/65 67/10/65
f 69/11/66 55/22/66 68/12/66
f 67/10/67 69/11/67 70/24/67
f 74/19/68 66/14/68 71/25/68
f 71/20/69 72/7/69 74/21/69
f 63/6/70 73/8/70 64/9/70
f 47/29/38 46/28/38 76/18/38
f 81/18/71 77/16/71 78/17/71
f 7/7/40 76/25/40 8/8/40
f 84/25/41 80/7/41 79/19/41
f 84/18/42 79/16/42 81/29/42
usemtl ColobotMesh_mat_2
f 74/31/72 73/32/72 66/33/72
f 71/31/73 65/33/73 72/32/73
f 77/34/74 46/35/74 17/36/74
f 75/37/74 46/35/74 77/34/74
f 9/38/75 11/39/75 23/40/75
f 23/40/76 25/41/76 31/42/76
f 31/42/77 34/43/77 44/44/77
f 44/44/75 43/45/75 37/46/75
f 39/47/78 5/48/78 36/49/78
f 39/47/79 27/50/79 5/48/79
f 5/48/80 1/51/80 3/52/80
f 3/52/81 20/53/81 22/54/81
f 13/55/80 16/56/80 57/57/80
f 17/36/82 59/58/82 51/59/82
f 46/35/83 45/60/83 57/57/83
f 57/57/84 49/61/84 48/62/84
f 12/63/85 16/56/85 13/55/85
f 55/64/86 69/65/86 16/56/86
f 67/66/80 73/32/80 16/56/80
f 63/67/87 59/58/87 73/32/87
f 6/68/74 8/69/74 79/70/74
f 18/71/80 17/36/80 51/59/80
f 79/70/83 44/44/83 6/68/83
f 9/38/88 23/40/88 31/42/88
f 44/44/85 37/46/85 36/49/85
f 9/38/89 31/42/89 44/44/89
f 22/54/82 6/68/82 3/52/82
f 79/70/80 75/37/80 77/34/80
f 48/62/90 13/55/90 57/57/90
f 66/33/80 73/32/80 67/66/80
f 59/58/91 52/72/91 51/59/91
f 6/68/75 5/48/75 3/52/75
f 75/37/92 79/70/92 8/69/92
f 46/35/80 16/56/80 73/32/80
f 5/48/80 44/44/80 36/49/80
f 17/36/88 46/35/88 73/32/88
f 16/56/93 69/65/93 67/66/93
f 79/70/94 9/38/94 44/44/94
f 44/44/80 5/48/80 6/68/80
f 57/57/80 16/56/80 46/35/80
f 59/58/95 17/36/95 73/32/95
f 81/34/96 78/36/96 47/35/96
f 76/37/96 81/34/96 47/35/96
f 80/38/97 28/40/97 10/39/97
f 28/40/98 30/42/98 24/41/98
f 30/42/99 42/44/99 33/43/99
f 42/44/100 35/46/100 41/45/100
f 38/47/101 40/49/101 4/48/101
f 38/47/102 4/48/102 26/50/102
f 4/48/103 2/52/103 82/51/103
f 2/52/104 21/54/104 32/53/104
f 14/55/105 58/57/105 15/56/105
f 78/36/106 56/59/106 60/58/106
f 47/35/107 58/57/107 61/60/107
f 58/57/108 62/62/108 50/61/108
f 83/63/97 14/55/97 15/56/97
f 54/64/109 15/56/109 68/65/109
f 70/66/97 15/56/97 72/32/97
f 64/67/110 72/32/110 60/58/110
f 29/68/96 84/70/96 7/69/96
f 19/71/97 56/59/97 78/36/97
f 84/70/96 29/68/96 42/44/96
f 80/38/96 30/42/96 28/40/96
f 42/44/99 40/49/99 35/46/99
f 80/38/105 42/44/105 30/42/105
f 21/54/96 2/52/96 29/68/96
f 84/70/97 81/34/97 76/37/97
f 62/62/111 58/57/111 14/55/111
f 65/33/112 70/66/112 72/32/112
f 60/58/104 56/59/104 53/72/104
f 29/68/97 2/52/97 4/48/97
f 76/37/113 7/69/113 84/70/113
f 47/35/97 72/32/97 15/56/97
f 4/48/114 40/49/114 42/44/114
f 60/58/115 72/32/115 78/36/115
f 15/56/107 70/66/107 68/65/107
f 84/70/97 42/44/97 80/38/97
f 42/44/116 29/68/116 4/48/116
f 78/36/117 72/32/117 47/35/117
f 58/57/97 47/35/97 15/56/97
