# Blender v2.72 (sub 0) OBJ File: 'subm4.blend'
# www.blender.org
mtllib subm4.mtl
o ColobotMesh_1_ColobotMesh_.001
v 3.000000 -1.000000 -1.393310
v -3.874205 -0.501453 1.006689
v -3.010697 -1.000000 -1.393310
v -3.509244 0.860602 1.006690
v -3.651617 0.760912 1.006690
v -3.000260 0.994188 -1.393310
v -3.974406 0.255319 1.006690
v -3.000260 0.994188 1.006689
v -3.010697 -1.000000 1.006689
v 3.000000 -1.000000 1.006689
v -3.974406 0.255319 -1.393309
v -3.947658 0.338120 -1.393309
v -3.947658 0.338120 1.006690
v -3.651617 0.760912 -1.393309
v -3.509244 0.860602 -1.393309
v -3.874205 -0.501453 -1.393309
v -3.947658 -0.343933 -1.393309
v -3.351724 -0.939868 1.006689
v -3.351724 -0.939868 -1.393310
v -3.509244 -0.866415 -1.393310
v -3.974406 -0.261132 -1.393309
v -3.651617 -0.766725 -1.393310
v -3.992643 -0.176050 -1.393309
v -3.992643 -0.176050 1.006689
v -3.874205 0.495641 1.006690
v -3.874205 0.495641 -1.393309
v -3.351723 0.934055 1.006690
v -3.351723 0.934055 -1.393309
v -3.183841 -0.984852 1.006689
v -3.183841 -0.984852 -1.393310
v -3.774515 0.638013 1.006690
v -3.774515 0.638013 -1.393309
v -3.183840 0.979040 1.006690
v -3.183840 0.979040 -1.393309
v -3.774515 -0.643826 -1.393310
v -3.992643 0.170238 1.006690
v -4.007791 -0.002906 -1.393309
v -3.992643 0.170238 -1.393309
v -3.947658 -0.343933 1.006689
v 3.971500 0.255319 -1.393309
v 3.944752 0.338120 -1.393309
v 3.944752 0.338120 1.006690
v 3.648710 0.760912 -1.393309
v 3.506337 0.860602 -1.393309
v 3.871299 -0.501453 -1.393309
v 3.944752 -0.343933 -1.393309
v 3.348817 -0.939868 1.006689
v 3.348817 -0.939868 -1.393310
v 3.506337 -0.866415 -1.393310
v 3.971500 -0.261132 -1.393309
v 3.648710 -0.766725 -1.393310
v 3.989736 -0.176050 -1.393309
v 3.989736 -0.176050 1.006689
v 3.871299 0.495641 1.006690
v 3.871299 0.495641 -1.393309
v 3.348816 0.934055 -1.393309
v 3.180934 -0.984852 1.006689
v 3.180934 -0.984852 -1.393310
v 3.771608 0.638013 1.006690
v 3.771608 0.638013 -1.393309
v 3.180933 0.979040 -1.393309
v 3.007790 0.994187 -1.393309
v 3.771608 -0.643826 -1.393310
v 4.004884 -0.002906 -1.393309
v 3.989736 0.170238 -1.393309
v -3.509244 -0.866415 1.006689
v -3.974406 -0.261132 1.006689
v -3.651617 -0.766725 1.006689
v -3.774515 -0.643826 1.006689
v -4.007791 -0.002906 1.006689
v 3.971500 0.255319 1.006690
v 3.648710 0.760912 1.006690
v 3.506337 0.860602 1.006690
v 3.871299 -0.501453 1.006690
v 3.944752 -0.343933 1.006690
v 3.506337 -0.866415 1.006689
v 3.971500 -0.261132 1.006690
v 3.648710 -0.766725 1.006689
v 3.348816 0.934055 1.006690
v 3.180933 0.979040 1.006690
v 3.007790 0.994187 1.006690
v 3.771608 -0.643826 1.006689
v 4.004884 -0.002906 1.006690
v 3.989736 0.170238 1.006690
vt 0.772458 0.998047
vt 0.772458 0.876953
vt 0.765623 0.876953
vt 0.765623 0.998047
vt 0.769036 0.876953
vt 0.762201 0.876953
vt 0.762201 0.998047
vt 0.775871 0.998047
vt 0.775871 0.876953
vt 0.758788 0.876953
vt 0.758788 0.998047
vt 0.751953 0.876953
vt 0.751953 0.998047
vt 0.755375 0.876953
vt 0.779293 0.876953
vt 0.769036 0.998047
vt 0.779293 0.998047
vt 0.755375 0.998047
vt 0.998047 0.876953
vt 0.998047 0.998047
vt 0.495901 0.936573
vt 0.494245 0.932519
vt 0.497030 0.940740
vt 0.446970 0.901133
vt 0.435771 0.900391
vt 0.053031 0.997305
vt 0.063747 0.900391
vt 0.436254 0.998047
vt 0.064393 0.998047
vt 0.053031 0.901133
vt 0.042640 0.903335
vt 0.032890 0.906932
vt 0.024078 0.911814
vt 0.016472 0.917833
vt 0.010301 0.924805
vt 0.005755 0.932519
vt 0.004100 0.936573
vt 0.002971 0.940740
vt 0.002971 0.957698
vt 0.005756 0.965919
vt 0.002033 0.949219
vt 0.004100 0.961864
vt 0.010302 0.973633
vt 0.016472 0.980605
vt 0.024079 0.986623
vt 0.032891 0.991505
vt 0.483529 0.980605
vt 0.494245 0.965919
vt 0.457361 0.995102
vt 0.483529 0.917833
vt 0.467110 0.906933
vt 0.446970 0.997305
vt 0.467110 0.991505
vt 0.475922 0.986623
vt 0.489699 0.973633
vt 0.495901 0.961864
vt 0.497029 0.957698
vt 0.497967 0.949219
vt 0.489699 0.924805
vt 0.457361 0.903336
vt 0.042640 0.995102
vt 0.475922 0.911814
vn -0.258800 0.965900 0.000000
vn -0.258800 -0.965900 0.000000
vn 0.819200 0.573600 0.000000
vn 0.906300 0.422600 0.000000
vn 0.258800 -0.965900 0.000000
vn -0.573600 0.819200 0.000000
vn -0.573600 -0.819200 0.000000
vn -0.951600 0.307400 0.000000
vn -0.422600 -0.906300 0.000000
vn -0.422600 0.906300 0.000000
vn -0.707100 -0.707100 0.000000
vn -0.707100 0.707100 0.000000
vn -0.819200 -0.573600 0.000000
vn -0.996200 -0.087200 0.000000
vn -0.977800 0.209600 0.000000
vn -0.996200 0.087200 0.000000
vn -0.977800 -0.209600 0.000000
vn -0.951600 -0.307400 0.000000
vn -0.906300 -0.422600 0.000000
vn 0.087200 0.996200 0.000000
vn 0.573600 0.819200 0.000000
vn 0.573600 -0.819200 0.000000
vn 0.951600 0.307400 0.000000
vn 0.422600 -0.906300 0.000000
vn 0.422600 0.906300 0.000000
vn 0.707100 -0.707100 0.000000
vn 0.258800 0.965900 0.000000
vn 0.707100 0.707100 0.000000
vn 0.819200 -0.573600 0.000000
vn 0.996200 -0.087200 0.000000
vn 0.977800 0.209600 0.000000
vn 0.996200 0.087200 0.000000
vn 0.977800 -0.209600 0.000000
vn 0.951600 -0.307400 0.000000
vn 0.906300 -0.422600 0.000000
vn 0.000000 1.000000 0.000000
vn -0.087200 -0.996200 0.000000
vn 0.000000 -1.000000 0.000000
vn -0.906300 0.422600 0.000000
vn -0.819200 0.573600 0.000000
vn -0.082200 0.996600 0.000000
vn 0.083400 -0.996500 0.000000
vn -0.000000 0.000000 -1.000000
vn 0.000000 -0.000000 1.000000
usemtl ColobotMesh_mat_1_[256]
s off
f 33/1/1 34/2/1 28/3/1
f 18/4/2 19/3/2 30/2/2
f 55/5/3 60/6/3 59/7/3
f 42/8/4 41/9/4 55/5/4
f 58/10/5 48/3/5 47/4/5
f 4/11/6 15/10/6 14/12/6
f 68/13/7 22/12/7 20/10/7
f 12/14/8 11/12/8 7/13/8
f 66/11/9 20/10/9 19/3/9
f 27/4/10 28/3/10 15/10/10
f 69/1/11 35/2/11 22/15/11
f 5/8/12 14/9/12 32/5/12
f 2/4/13 16/3/13 35/2/13
f 37/5/14 23/9/14 24/8/14
f 36/7/15 7/11/15 11/10/15
f 70/16/16 36/7/16 38/6/16
f 67/17/17 24/8/17 23/9/17
f 21/14/18 17/10/18 39/11/18
f 2/4/19 39/11/19 17/10/19
f 61/10/20 62/12/20 81/13/20
f 43/15/21 44/2/21 73/1/21
f 49/2/22 51/15/22 78/17/22
f 42/18/23 71/13/23 40/12/23
f 48/3/24 49/2/24 76/1/24
f 44/2/25 56/3/25 79/4/25
f 51/12/26 63/10/26 82/11/26
f 56/3/27 61/10/27 80/11/27
f 60/6/28 43/14/28 72/18/28
f 63/10/29 45/3/29 74/4/29
f 53/8/30 52/9/30 64/5/30
f 40/10/31 71/11/31 84/7/31
f 65/6/32 84/7/32 83/16/32
f 52/9/33 53/8/33 77/17/33
f 75/1/34 46/2/34 50/9/34
f 46/2/35 75/1/35 74/4/35
f 62/19/36 6/12/36 8/13/36
f 29/1/37 30/2/37 3/15/37
f 9/13/38 3/12/38 1/19/38
f 26/6/39 12/14/39 13/18/39
f 31/16/40 32/5/40 26/6/40
f 33/1/41 8/17/41 6/15/41
f 1/12/42 58/10/42 57/11/42
f 27/4/1 33/1/1 28/3/1
f 29/1/2 18/4/2 30/2/2
f 54/16/3 55/5/3 59/7/3
f 54/16/4 42/8/4 55/5/4
f 57/11/5 58/10/5 47/4/5
f 5/13/6 4/11/6 14/12/6
f 66/11/7 68/13/7 20/10/7
f 13/18/8 12/14/8 7/13/8
f 18/4/9 66/11/9 19/3/9
f 4/11/10 27/4/10 15/10/10
f 68/17/11 69/1/11 22/15/11
f 31/16/12 5/8/12 32/5/12
f 69/1/13 2/4/13 35/2/13
f 70/16/14 37/5/14 24/8/14
f 38/6/15 36/7/15 11/10/15
f 37/5/16 70/16/16 38/6/16
f 21/15/17 67/17/17 23/9/17
f 67/18/18 21/14/18 39/11/18
f 16/3/19 2/4/19 17/10/19
f 80/11/20 61/10/20 81/13/20
f 72/17/21 43/15/21 73/1/21
f 76/1/22 49/2/22 78/17/22
f 41/14/23 42/18/23 40/12/23
f 47/4/24 48/3/24 76/1/24
f 73/1/25 44/2/25 79/4/25
f 78/13/26 51/12/26 82/11/26
f 79/4/27 56/3/27 80/11/27
f 59/7/28 60/6/28 72/18/28
f 82/11/29 63/10/29 74/4/29
f 83/16/30 53/8/30 64/5/30
f 65/6/31 40/10/31 84/7/31
f 64/5/32 65/6/32 83/16/32
f 50/15/33 52/9/33 77/17/33
f 77/8/34 75/1/34 50/9/34
f 45/3/35 46/2/35 74/4/35
f 81/20/36 62/19/36 8/13/36
f 9/17/37 29/1/37 3/15/37
f 10/20/38 9/13/38 1/19/38
f 25/7/39 26/6/39 13/18/39
f 25/7/40 31/16/40 26/6/40
f 34/2/41 33/1/41 6/15/41
f 10/13/42 1/12/42 57/11/42
usemtl ColobotMesh_mat_2
f 50/21/43 46/22/43 52/23/43
f 46/22/43 58/24/43 1/25/43
f 33/26/44 9/27/44 10/25/44
f 77/21/44 53/23/44 75/22/44
f 75/22/44 81/28/44 10/25/44
f 6/29/43 62/28/43 1/25/43
f 30/30/43 19/31/43 20/32/43
f 20/32/43 22/33/43 35/34/43
f 35/34/43 16/35/43 17/36/43
f 17/36/43 21/37/43 23/38/43
f 38/39/43 12/40/43 37/41/43
f 38/39/43 11/42/43 12/40/43
f 12/40/43 26/43/43 32/44/43
f 32/44/43 14/45/43 15/46/43
f 60/47/43 41/48/43 56/49/43
f 58/24/43 63/50/43 49/51/43
f 62/28/43 61/52/43 56/49/43
f 56/49/43 44/53/43 43/54/43
f 55/55/43 41/48/43 60/47/43
f 40/56/43 65/57/43 41/48/43
f 64/58/43 46/22/43 41/48/43
f 45/59/43 63/50/43 46/22/43
f 48/60/43 58/24/43 49/51/43
f 30/30/43 20/32/43 35/34/43
f 17/36/43 23/38/43 37/41/43
f 30/30/43 35/34/43 17/36/43
f 15/46/43 28/61/43 32/44/43
f 17/36/43 28/61/43 34/26/43
f 43/54/43 60/47/43 56/49/43
f 52/23/43 46/22/43 64/58/43
f 63/50/43 51/62/43 49/51/43
f 28/61/43 12/40/43 32/44/43
f 62/28/43 41/48/43 46/22/43
f 12/40/43 17/36/43 37/41/43
f 41/48/43 65/57/43 64/58/43
f 3/27/43 30/30/43 17/36/43
f 17/36/43 12/40/43 28/61/43
f 56/49/43 41/48/43 62/28/43
f 63/50/43 58/24/43 46/22/43
f 8/29/44 10/25/44 81/28/44
f 29/30/44 66/32/44 18/31/44
f 66/32/44 69/34/44 68/33/44
f 69/34/44 39/36/44 2/35/44
f 39/36/44 24/38/44 67/37/44
f 36/39/44 70/41/44 13/40/44
f 36/39/44 13/40/44 7/42/44
f 13/40/44 31/44/44 25/43/44
f 31/44/44 4/46/44 5/45/44
f 59/47/44 79/49/44 42/48/44
f 57/24/44 76/51/44 82/50/44
f 81/28/44 79/49/44 80/52/44
f 79/49/44 72/54/44 73/53/44
f 54/55/44 59/47/44 42/48/44
f 71/56/44 42/48/44 84/57/44
f 83/58/44 42/48/44 75/22/44
f 74/59/44 75/22/44 82/50/44
f 47/60/44 76/51/44 57/24/44
f 29/30/44 69/34/44 66/32/44
f 39/36/44 70/41/44 24/38/44
f 29/30/44 39/36/44 69/34/44
f 4/46/44 31/44/44 27/61/44
f 39/36/44 9/27/44 33/26/44
f 72/54/44 79/49/44 59/47/44
f 53/23/44 83/58/44 75/22/44
f 82/50/44 76/51/44 78/62/44
f 27/61/44 31/44/44 13/40/44
f 81/28/44 75/22/44 42/48/44
f 13/40/44 70/41/44 39/36/44
f 82/50/44 75/22/44 57/24/44
f 42/48/44 83/58/44 84/57/44
f 9/27/44 39/36/44 29/30/44
f 39/36/44 27/61/44 13/40/44
f 79/49/44 81/28/44 42/48/44
f 34/26/43 6/29/43 1/25/43
f 62/28/43 46/22/43 1/25/43
f 8/29/44 33/26/44 10/25/44
f 57/24/44 75/22/44 10/25/44
f 3/27/43 17/36/43 34/26/43
f 27/61/44 39/36/44 33/26/44
f 3/27/43 34/26/43 1/25/43
