# Blender v2.70 (sub 5) OBJ File: 'subm5.blend'
# www.blender.org
mtllib subm5.mtl
o ColobotMesh_1_ColobotMesh_.001
v -3.874205 0.495641 1.393309
v -3.774515 0.638013 -1.006690
v -3.774515 0.638013 1.393309
v -3.947658 0.338120 -1.006690
v -3.947658 0.338120 1.393309
v -3.351723 0.934055 1.393309
v -3.183840 0.979040 -1.006690
v -3.183840 0.979040 1.393309
v -3.183841 -0.984852 1.393310
v -3.351724 -0.939868 -1.006689
v -3.351724 -0.939868 1.393310
v 3.871299 0.495641 1.393309
v 3.771608 0.638013 1.393309
v 3.771608 0.638013 -1.006690
v 3.944752 0.338120 -1.006690
v 3.944752 0.338120 1.393309
v 3.180934 -0.984852 1.393310
v 3.348817 -0.939868 1.393310
v 3.348817 -0.939868 -1.006689
v -3.651617 0.760912 1.393309
v -3.509244 0.860602 -1.006690
v -3.509244 0.860602 1.393309
v -3.509244 -0.866415 1.393310
v -3.651617 -0.766725 -1.006689
v -3.651617 -0.766725 1.393310
v -3.974406 0.255319 -1.006690
v -3.974406 0.255319 1.393309
v -3.509244 -0.866415 -1.006689
v -3.351723 0.934055 -1.006690
v -3.774515 -0.643826 -1.006689
v -3.774515 -0.643826 1.393310
v -3.651617 0.760912 -1.006690
v -3.874205 -0.501453 -1.006689
v -3.874205 -0.501453 1.393309
v -3.992643 -0.176050 -1.006689
v -4.007791 -0.002906 1.393309
v -3.992643 -0.176050 1.393309
v -3.992643 0.170238 -1.006690
v -3.992643 0.170238 1.393309
v -4.007791 -0.002906 -1.006689
v -3.974406 -0.261132 -1.006689
v -3.947658 -0.343933 -1.006689
v -3.974406 -0.261132 1.393309
v -3.947658 -0.343933 1.393309
v 3.180933 0.979040 1.393309
v 3.007790 0.994187 1.393309
v 3.007790 0.994187 -1.006690
v 3.648710 0.760912 1.393309
v 3.506337 0.860602 1.393309
v 3.506337 0.860602 -1.006690
v 3.506337 -0.866415 1.393310
v 3.648710 -0.766725 1.393310
v 3.648710 -0.766725 -1.006689
v 3.971500 0.255319 -1.006690
v 3.971500 0.255319 1.393309
v 3.506337 -0.866415 -1.006689
v 3.348816 0.934055 1.393309
v 3.348816 0.934055 -1.006690
v 3.771608 -0.643826 1.393310
v 3.771608 -0.643826 -1.006689
v 3.180933 0.979040 -1.006690
v 3.648710 0.760912 -1.006690
v 3.871299 -0.501453 1.393309
v 3.871299 -0.501453 -1.006690
v 3.989736 -0.176050 -1.006689
v 3.989736 -0.176050 1.393309
v 4.004884 -0.002906 1.393309
v 3.989736 0.170238 -1.006690
v 3.989736 0.170238 1.393309
v 4.004884 -0.002906 -1.006690
v 3.971500 -0.261132 -1.006690
v 3.944752 -0.343933 -1.006690
v 3.944752 -0.343933 1.393309
v 3.971500 -0.261132 1.393309
v -3.000260 0.994188 1.393310
v -3.000260 0.994188 -1.006689
v 3.000000 -1.000000 1.393310
v 3.180934 -0.984852 -1.006689
v -3.010697 -1.000000 1.393310
v -3.183841 -0.984852 -1.006689
v 3.000000 -1.000000 -1.006689
v -3.874205 0.495641 -1.006690
v 3.871299 0.495641 -1.006690
v -3.010697 -1.000000 -1.006689
vt 0.758788 0.876953
vt 0.765623 0.876953
vt 0.765623 0.998047
vt 0.775880 0.998047
vt 0.772458 0.998047
vt 0.772458 0.876953
vt 0.758788 0.998047
vt 0.762210 0.876953
vt 0.762210 0.998047
vt 0.769045 0.998047
vt 0.762201 0.876953
vt 0.762201 0.998047
vt 0.758779 0.998047
vt 0.751953 0.998047
vt 0.751953 0.876953
vt 0.755375 0.876953
vt 0.769036 0.876953
vt 0.775871 0.876953
vt 0.775871 0.998047
vt 0.779293 0.876953
vt 0.769036 0.998047
vt 0.779293 0.998047
vt 0.755366 0.876953
vt 0.758779 0.876953
vt 0.755375 0.998047
vt 0.998047 0.998047
vt 0.998047 0.876953
vt 0.775880 0.876953
vt 0.755366 0.998047
vt 0.769045 0.876953
vt 0.053031 0.901133
vt 0.005755 0.932519
vt 0.042640 0.995102
vt 0.494245 0.932519
vt 0.494245 0.965919
vt 0.436254 0.998047
vt 0.063747 0.900391
vt 0.435771 0.900391
vt 0.053031 0.997305
vt 0.064393 0.998047
vt 0.446970 0.901133
vt 0.495901 0.936573
vt 0.497030 0.940740
vt 0.042640 0.903335
vt 0.032890 0.906932
vt 0.024078 0.911814
vt 0.016472 0.917833
vt 0.010301 0.924805
vt 0.004100 0.936573
vt 0.002971 0.940740
vt 0.002971 0.957698
vt 0.005756 0.965919
vt 0.002033 0.949219
vt 0.004100 0.961864
vt 0.010302 0.973633
vt 0.016472 0.980605
vt 0.024079 0.986623
vt 0.032891 0.991505
vt 0.483529 0.980605
vt 0.457361 0.995102
vt 0.483529 0.917833
vt 0.467110 0.906933
vt 0.446970 0.997305
vt 0.467110 0.991505
vt 0.475922 0.986623
vt 0.489699 0.973633
vt 0.495901 0.961864
vt 0.497029 0.957698
vt 0.497967 0.949219
vt 0.489699 0.924805
vt 0.457361 0.903336
vt 0.475922 0.911814
vn -0.258818 0.965926 -0.000000
vn -0.951581 0.307397 -0.000000
vn 0.422620 0.906307 -0.000000
vn 0.819151 -0.573578 0.000000
vn 0.977790 -0.209587 0.000000
vn -0.951581 -0.307398 0.000000
vn 0.996195 0.087153 -0.000000
vn 0.573574 -0.819154 0.000000
vn -0.573574 -0.819154 0.000000
vn -0.707110 0.707104 -0.000000
vn -0.422617 -0.906308 0.000000
vn -0.996195 -0.087155 0.000000
vn -0.573575 0.819153 -0.000000
vn 0.087155 0.996195 -0.000000
vn -0.258824 -0.965924 0.000000
vn -0.819152 0.573577 -0.000000
vn -0.906307 0.422620 -0.000000
vn 0.951581 0.307398 -0.000000
vn -0.083429 0.996514 -0.000000
vn 0.906307 0.422620 -0.000000
vn 0.573574 0.819153 -0.000000
vn -0.977792 -0.209578 0.000000
vn 0.258819 0.965926 -0.000000
vn 0.906309 -0.422615 0.000000
vn -0.000000 -1.000000 0.000000
vn -0.977792 0.209577 -0.000000
vn -0.906308 -0.422618 0.000000
vn 0.996195 -0.087154 0.000000
vn -0.087150 -0.996195 0.000000
vn 0.707109 -0.707104 0.000000
vn 0.977790 0.209589 -0.000000
vn 0.258824 -0.965924 0.000000
vn -0.819150 -0.573580 0.000000
vn 0.422616 -0.906309 0.000000
vn 0.819154 0.573574 -0.000000
vn -0.422620 0.906307 -0.000000
vn 0.707110 0.707104 -0.000000
vn -0.707110 -0.707104 0.000000
vn 0.082235 -0.996613 0.000000
vn -0.996195 0.087157 -0.000000
vn 0.000000 1.000000 -0.000000
vn 0.951580 -0.307401 0.000000
vn -0.951580 0.307400 -0.000000
vn 0.819152 -0.573577 0.000000
vn 0.977789 -0.209590 0.000000
vn -0.951580 -0.307401 0.000000
vn 0.996195 0.087156 -0.000000
vn 0.573576 -0.819153 0.000000
vn -0.707109 0.707105 -0.000000
vn -0.996195 -0.087154 0.000000
vn -0.573573 0.819154 -0.000000
vn -0.258824 -0.965925 0.000000
vn -0.819152 0.573576 -0.000000
vn -0.906307 0.422619 -0.000000
vn 0.951580 0.307401 -0.000000
vn -0.083430 0.996514 -0.000000
vn 0.906307 0.422619 -0.000000
vn 0.573574 0.819154 -0.000000
vn -0.977791 -0.209583 0.000000
vn 0.906308 -0.422619 0.000000
vn -0.977793 0.209574 -0.000000
vn -0.906308 -0.422617 0.000000
vn 0.996195 -0.087156 0.000000
vn 0.707110 -0.707104 0.000000
vn 0.977791 0.209584 -0.000000
vn 0.258824 -0.965925 0.000000
vn -0.819150 -0.573579 0.000000
vn 0.422617 -0.906308 0.000000
vn 0.819152 0.573576 -0.000000
vn -0.422619 0.906307 -0.000000
vn -0.707109 -0.707105 0.000000
vn -0.996195 0.087154 -0.000000
vn 0.951582 -0.307396 0.000000
vn 0.000001 -0.000001 -1.000000
vn -0.000000 -0.000000 1.000000
vn -0.000000 0.000000 -1.000000
vn 0.000000 0.000001 1.000000
vn 0.000004 0.000012 -1.000000
vn -0.000000 -0.000001 -1.000000
vn -0.000010 0.000000 -1.000000
vn 0.000128 -0.000037 1.000000
vn -0.000008 0.000032 1.000000
vn -0.000001 0.000000 -1.000000
vn 0.000006 0.000003 -1.000000
vn 0.000030 0.000013 -1.000000
vn -0.000002 0.000000 -1.000000
vn -0.000020 0.000000 -1.000000
vn 0.000001 0.000003 -1.000000
vn 0.000001 0.000000 -1.000000
vn -0.000001 -0.000004 -1.000000
vn 0.000002 0.000000 -1.000000
vn -0.000018 0.000000 -1.000000
vn -0.000022 0.000013 -1.000000
vn -0.000001 -0.000001 -1.000000
vn -0.000003 -0.000005 -1.000000
vn 0.000003 0.000001 -1.000000
vn -0.000006 0.000003 -1.000000
vn -0.000005 0.000000 -1.000000
vn 0.000003 -0.000005 -1.000000
vn -0.000005 -0.000003 1.000000
vn -0.000005 0.000000 1.000000
vn -0.000011 0.000000 1.000000
vn -0.000033 0.000009 1.000000
vn 0.000006 0.000000 1.000000
vn -0.000002 0.000000 1.000000
vn 0.000004 -0.000003 1.000000
vn -0.000001 -0.000000 1.000000
vn -0.000001 0.000001 1.000000
vn 0.000001 0.000000 1.000000
vn 0.000001 0.000004 1.000000
vn -0.000012 0.000000 1.000000
vn 0.000039 -0.000015 1.000000
vn -0.000000 -0.000001 1.000000
vn -0.000068 0.000012 1.000000
vn 0.000009 0.000002 1.000000
vn -0.000003 0.000005 1.000000
vn -0.000001 0.000002 1.000000
vn 0.000001 0.000001 1.000000
vn -0.000003 0.000000 1.000000
usemtl ColobotMesh_mat_1_[256]
s off
f 17/1/1 18/2/1 19/3/1
f 71/4/2 72/5/2 73/6/2
f 28/7/3 23/1/3 11/2/3
f 1/8/4 82/9/4 2/10/4
f 39/11/5 38/12/5 26/13/5
f 54/14/6 55/15/6 16/16/6
f 36/17/7 37/18/7 35/19/7
f 21/7/8 22/1/8 20/15/8
f 48/20/9 49/6/9 50/5/9
f 52/15/10 59/1/10 60/7/10
f 50/5/11 49/6/11 57/2/11
f 69/11/12 68/12/12 70/21/12
f 51/6/13 52/20/13 53/22/13
f 80/5/14 9/6/14 79/20/14
f 58/3/15 57/2/15 45/1/15
f 59/1/16 63/2/16 64/3/16
f 63/2/17 73/6/17 72/5/17
f 43/23/18 44/1/18 42/7/18
f 77/15/19 17/1/19 78/7/19
f 33/3/20 42/7/20 44/1/20
f 24/14/21 25/15/21 23/1/21
f 69/11/22 55/24/22 54/13/22
f 10/3/23 11/2/23 9/6/23
f 1/8/24 5/16/24 4/25/24
f 47/26/25 46/27/25 75/15/25
f 66/18/26 65/19/26 71/22/26
f 15/19/27 16/18/27 12/17/27
f 36/17/28 40/21/28 38/12/28
f 61/7/29 45/1/29 46/15/29
f 2/10/30 32/4/30 20/28/30
f 41/22/31 35/19/31 37/18/31
f 29/3/32 7/5/32 8/6/32
f 83/21/33 12/17/33 13/11/33
f 21/7/34 29/3/34 6/2/34
f 33/3/35 34/2/35 31/6/35
f 19/3/36 18/2/36 51/6/36
f 30/5/37 31/6/37 25/20/37
f 13/11/38 48/23/38 62/29/38
f 7/5/39 76/22/39 75/20/39
f 70/21/40 65/19/40 66/18/40
f 84/14/41 79/15/41 77/27/41
f 5/16/42 27/15/42 26/14/42
f 78/7/1 17/1/1 19/3/1
f 74/28/43 71/4/43 73/6/43
f 10/3/3 28/7/3 11/2/3
f 3/30/44 1/8/44 2/10/44
f 27/24/45 39/11/45 26/13/45
f 15/25/46 54/14/46 16/16/46
f 40/21/47 36/17/47 35/19/47
f 32/14/48 21/7/48 20/15/48
f 62/22/9 48/20/9 50/5/9
f 53/14/49 52/15/49 60/7/49
f 58/3/11 50/5/11 57/2/11
f 67/17/50 69/11/50 70/21/50
f 56/5/51 51/6/51 53/22/51
f 84/22/14 80/5/14 79/20/14
f 61/7/52 58/3/52 45/1/52
f 60/7/53 59/1/53 64/3/53
f 64/3/54 63/2/54 72/5/54
f 41/29/55 43/23/55 42/7/55
f 81/14/56 77/15/56 78/7/56
f 34/2/57 33/3/57 44/1/57
f 28/7/58 24/14/58 23/1/58
f 68/12/59 69/11/59 54/13/59
f 80/5/23 10/3/23 9/6/23
f 82/9/60 1/8/60 4/25/60
f 76/14/25 47/26/25 75/15/25
f 74/20/61 66/18/61 71/22/61
f 83/21/62 15/19/62 12/17/62
f 39/11/63 36/17/63 38/12/63
f 47/14/29 61/7/29 46/15/29
f 3/30/64 2/10/64 20/28/64
f 43/20/65 41/22/65 37/18/65
f 6/2/66 29/3/66 8/6/66
f 14/12/67 83/21/67 13/11/67
f 22/1/68 21/7/68 6/2/68
f 30/5/69 33/3/69 31/6/69
f 56/5/70 19/3/70 51/6/70
f 24/22/37 30/5/37 25/20/37
f 14/12/71 13/11/71 62/29/71
f 8/6/39 7/5/39 75/20/39
f 67/17/72 70/21/72 66/18/72
f 81/26/41 84/14/41 77/27/41
f 4/25/73 5/16/73 26/14/73
usemtl ColobotMesh_mat_2
f 9/31/74 44/32/74 6/33/74
f 72/34/75 15/35/75 47/36/75
f 46/36/76 16/35/76 73/34/76
f 84/37/77 81/38/77 47/36/77
f 8/39/78 75/40/78 77/38/78
f 75/40/79 46/36/79 17/41/79
f 80/31/77 84/37/77 29/33/77
f 74/42/80 73/34/80 66/43/80
f 71/42/81 65/43/81 72/34/81
f 76/40/82 7/39/82 29/33/82
f 9/31/83 11/44/83 23/45/83
f 23/45/84 25/46/84 31/47/84
f 31/47/85 34/48/85 44/32/85
f 44/32/83 43/49/83 37/50/83
f 39/51/86 5/52/86 36/53/86
f 39/51/87 27/54/87 5/52/87
f 5/52/76 1/55/76 3/56/76
f 3/56/88 20/57/88 22/58/88
f 13/59/76 16/35/76 57/60/76
f 17/41/74 59/61/74 51/62/74
f 46/36/89 45/63/89 57/60/89
f 57/60/90 49/64/90 48/65/90
f 12/66/91 16/35/91 13/59/91
f 55/67/92 69/68/92 16/35/92
f 67/69/76 73/34/76 16/35/76
f 63/70/93 59/61/93 73/34/93
f 6/33/79 8/39/79 79/37/79
f 18/71/76 17/41/76 51/62/76
f 9/31/94 23/45/94 31/47/94
f 44/32/91 37/50/91 36/53/91
f 9/31/95 31/47/95 44/32/95
f 22/58/74 6/33/74 3/56/74
f 48/65/96 13/59/96 57/60/96
f 66/43/76 73/34/76 67/69/76
f 59/61/97 52/72/97 51/62/97
f 6/33/83 5/52/83 3/56/83
f 5/52/76 44/32/76 36/53/76
f 16/35/98 69/68/98 67/69/98
f 44/32/76 5/52/76 6/33/76
f 57/60/76 16/35/76 46/36/76
f 59/61/99 17/41/99 73/34/99
f 81/38/77 78/41/77 47/36/77
f 80/31/75 28/45/75 10/44/75
f 28/45/100 30/47/100 24/46/100
f 30/47/101 42/32/101 33/48/101
f 42/32/102 35/50/102 41/49/102
f 38/51/103 40/53/103 4/52/103
f 38/51/104 4/52/104 26/54/104
f 4/52/105 2/56/105 82/55/105
f 2/56/106 21/58/106 32/57/106
f 14/59/107 58/60/107 15/35/107
f 78/41/108 56/62/108 60/61/108
f 47/36/109 58/60/109 61/63/109
f 58/60/110 62/65/110 50/64/110
f 83/66/75 14/59/75 15/35/75
f 54/67/111 15/35/111 68/68/111
f 70/69/75 15/35/75 72/34/75
f 64/70/112 72/34/112 60/61/112
f 19/71/75 56/62/75 78/41/75
f 80/31/77 30/47/77 28/45/77
f 42/32/101 40/53/101 35/50/101
f 80/31/107 42/32/107 30/47/107
f 21/58/77 2/56/77 29/33/77
f 62/65/113 58/60/113 14/59/113
f 65/43/114 70/69/114 72/34/114
f 60/61/106 56/62/106 53/72/106
f 29/33/75 2/56/75 4/52/75
f 4/52/115 40/53/115 42/32/115
f 60/61/116 72/34/116 78/41/116
f 15/35/109 70/69/109 68/68/109
f 42/32/117 29/33/117 4/52/117
f 58/60/75 47/36/75 15/35/75
f 79/37/74 9/31/74 6/33/74
f 78/41/118 72/34/118 47/36/118
f 17/41/94 46/36/94 73/34/94
f 76/40/75 84/37/75 47/36/75
f 79/37/79 8/39/79 77/38/79
f 77/38/76 75/40/76 17/41/76
f 42/32/77 80/31/77 29/33/77
f 84/37/119 76/40/119 29/33/119
