# Blender v2.77 (sub 0) OBJ File: 'target1.blend'
# www.blender.org
mtllib target1.mtl
o ColobotMesh_1_ColobotMesh_
v -0.000001 62.878700 2.121323
v -5.075860 14.000000 -5.075860
v 5.075860 14.000000 5.075861
v 5.075860 14.000000 -5.075860
v -5.075860 14.000000 5.075861
v 6.995050 -1.000000 -6.995050
v -6.995050 -1.000000 -6.995050
v 6.995050 -1.000000 6.995050
v -6.995050 -1.000000 6.995050
v 1.538470 27.000000 1.538461
v 3.816790 14.000000 3.816791
v 3.816790 14.000000 -3.816799
v 1.538470 27.000000 -1.538459
v -1.538460 27.000000 1.538461
v -3.816790 14.000000 3.816791
v 12.106600 37.893398 -2.121318
v 9.106610 40.893398 -2.121318
v -0.999998 63.000000 -0.999997
v 0.999996 63.000000 -0.999997
v -0.000007 58.000000 0.000001
v -0.999998 63.000000 1.000000
v 0.999996 63.000000 1.000000
v -9.106600 59.106602 -2.121317
v -9.106600 59.106602 2.121323
v -12.878700 50.000000 2.121322
v -9.106600 40.893398 -2.121318
v -9.106600 40.893398 2.121322
v -17.121300 50.000000 2.121322
v -12.106600 37.893398 2.121322
v -17.121300 50.000000 -2.121318
v -12.106600 62.106602 -2.121317
v 0.000001 62.878700 -2.121317
v -12.106600 37.893398 -2.121318
v -0.000000 32.878700 2.121321
v -0.000000 32.878700 -2.121319
v -12.878700 50.000000 -2.121318
v -0.000004 37.121300 2.121322
v 9.106610 40.893398 2.121322
v 12.106600 37.893398 2.121322
v -3.816790 14.000000 -3.816799
v -1.538460 27.000000 -1.538459
v -13.000000 51.000000 1.000000
v -0.000004 42.000000 0.000001
v 1.000000 37.000000 -0.999998
v -1.000000 37.000000 -0.999998
v 1.000000 37.000000 1.000000
v -1.000000 37.000000 1.000000
v 12.106600 62.106602 2.121323
v 17.121300 50.000000 -2.121318
v 12.878700 50.000000 -2.121318
v 12.878700 50.000000 2.121322
v 0.000005 37.121300 -2.121318
v 13.000000 49.000000 -0.999998
v 13.000000 49.000000 1.000000
v 1.000000 34.000000 -0.999999
v 1.000000 27.000000 -0.999999
v 17.121300 50.000000 2.121322
v 9.106600 59.106602 2.121323
v 12.106600 62.106602 -2.121317
v -1.000000 27.000000 -0.999999
v -0.999999 34.000000 -0.999999
v 1.000000 34.000000 1.000000
v 1.000000 27.000000 1.000000
v -0.999999 34.000000 1.000000
v -1.000000 27.000000 1.000000
v 9.106600 59.106602 -2.121317
v 0.000001 67.121300 -2.121317
v 7.999990 50.000000 0.000001
v 13.000000 51.000000 -0.999998
v 13.000000 51.000000 1.000000
v 0.000001 67.121300 2.121323
v -12.106600 62.106602 2.121323
v -8.000000 50.000000 0.000001
v -13.000000 49.000000 -0.999998
v -13.000000 51.000000 -0.999998
v -13.000000 49.000000 1.000000
vt 0.9082 0.7793
vt 0.9980 0.7520
vt 0.9082 0.7520
vt 0.5762 0.9941
vt 0.5840 0.9863
vt 0.5762 0.9863
vt 0.9980 0.7793
vt 0.5840 0.9941
vt 0.8125 0.8125
vt 0.7520 0.7520
vt 0.7520 0.8730
vt 0.8125 0.8125
vt 0.8730 0.7520
vt 0.7520 0.7520
vt 0.8125 0.8125
vt 0.7520 0.7520
vt 0.8730 0.7520
vt 0.7520 0.8730
vt 0.8730 0.8730
vt 0.5840 0.9941
vt 0.5762 0.9863
vt 0.5840 0.9863
vt 0.8730 0.7520
vt 0.8730 0.8730
vt 0.8730 0.8730
vt 0.7520 0.8730
vt 0.8125 0.8125
vt 0.7520 0.8730
vt 0.7520 0.7520
vt 0.8730 0.8730
vt 0.8730 0.7520
vt 0.5762 0.9941
vt 0.5957 0.4980
vt 0.8387 0.4082
vt 0.8730 0.4980
vt 0.6301 0.4082
vt 0.8730 0.4980
vt 0.8387 0.4082
vt 0.5700 0.4043
vt 0.9980 0.0176
vt 0.5020 0.0176
vt 0.5700 0.4043
vt 0.9980 0.0176
vt 0.5020 0.0176
vt 0.9300 0.4043
vt 0.5020 0.0176
vt 0.5957 0.4980
vt 0.8387 0.4082
vt 0.6301 0.4082
vt 0.8730 0.4980
vt 0.5957 0.4980
vt 0.8730 0.4980
vt 0.6301 0.4082
vt 0.5957 0.4980
vt 0.8387 0.4082
vt 0.5957 0.4980
vt 0.8730 0.4980
vt 0.8730 0.4980
vt 0.6301 0.4082
vt 0.8387 0.4082
vt 0.9300 0.4043
vt 0.9980 0.0176
vt 0.6301 0.4082
vt 0.8730 0.4980
vt 0.5957 0.4980
vt 0.8387 0.4082
vt 0.5957 0.4980
vt 0.5957 0.4980
vt 0.8387 0.4082
vt 0.8730 0.4980
vt 0.5957 0.4980
vt 0.8387 0.4082
vt 0.8730 0.4980
vt 0.6301 0.4082
vt 0.8730 0.4980
vt 0.8387 0.4082
vt 0.8387 0.4082
vt 0.5957 0.4980
vt 0.6301 0.4082
vt 0.8387 0.4082
vt 0.5957 0.4980
vt 0.6301 0.4082
vt 0.8730 0.4980
vt 0.5957 0.4980
vt 0.5957 0.4980
vt 0.6301 0.4082
vt 0.6301 0.4082
vt 0.9300 0.4043
vt 0.5700 0.4043
vt 0.8730 0.4980
vt 0.8387 0.4082
vt 0.8387 0.4082
vt 0.6301 0.4082
vt 0.6301 0.4082
vt 0.6301 0.4082
vt 0.6301 0.4082
vt 0.5957 0.4980
vt 0.8730 0.4980
vt 0.8730 0.4980
vt 0.8387 0.4082
vt 0.8730 0.4082
vt 0.5957 0.4082
vt 0.8730 0.4980
vt 0.5957 0.4082
vt 0.5957 0.4980
vt 0.8730 0.4980
vt 0.5957 0.4082
vt 0.5957 0.4980
vt 0.5957 0.4082
vt 0.8730 0.4082
vt 0.8730 0.4980
vt 0.5957 0.4082
vt 0.5957 0.4980
vt 0.5957 0.4980
vt 0.8730 0.4082
vt 0.8730 0.4980
vt 0.5957 0.4082
vt 0.8730 0.4082
vt 0.5957 0.4082
vt 0.8730 0.4082
vt 0.5957 0.4082
vt 0.8730 0.4082
vt 0.8730 0.4082
vt 0.5957 0.4980
vt 0.8730 0.4082
vt 0.8730 0.4082
vt 0.5957 0.4082
vt 0.8730 0.4082
vt 0.8730 0.4980
vt 0.8730 0.4980
vt 0.5957 0.4082
vt 0.8730 0.4082
vt 0.5957 0.4980
vt 0.8730 0.4082
vt 0.5957 0.4082
vt 0.8730 0.4082
vt 0.8730 0.4082
vt 0.5957 0.4082
vt 0.5957 0.4082
vt 0.5957 0.4980
vt 0.8730 0.4980
vt 0.0726 0.8730
vt 0.0918 0.3770
vt 0.0645 0.3770
vt 0.4980 0.8105
vt 0.2520 0.1074
vt 0.4980 0.1074
vt 0.0918 0.3770
vt 0.0726 0.8730
vt 0.0645 0.3770
vt 0.0918 0.8730
vt 0.0645 0.8730
vt 0.4980 0.8105
vt 0.2520 0.1074
vt 0.4980 0.1074
vt 0.2520 0.8105
vt 0.4980 0.1074
vt 0.2520 0.8105
vt 0.2520 0.1074
vt 0.0836 0.8730
vt 0.0836 0.8730
vt 0.0918 0.8730
vt 0.0645 0.8730
vt 0.2520 0.8105
vt 0.4980 0.8105
vn 0.0000 1.0000 0.0000
vn 1.0000 0.0000 0.0000
vn 0.2722 -0.6804 -0.6804
vn 0.2722 0.6804 -0.6804
vn 0.6804 0.2722 -0.6804
vn -0.6804 0.2722 -0.6804
vn 0.0000 -1.0000 0.0000
vn -0.6804 -0.2721 -0.6804
vn 0.6804 -0.2722 -0.6804
vn -0.6804 -0.2722 0.6804
vn 0.6804 -0.2722 0.6804
vn -0.5490 -0.5490 0.6302
vn 0.0000 -0.7764 -0.6302
vn 0.0000 -0.7764 0.6302
vn 0.2722 -0.6804 0.6804
vn 0.2722 0.6804 0.6804
vn 0.6804 0.2722 0.6804
vn -0.6804 0.2722 0.6804
vn -1.0000 0.0000 0.0000
vn -0.2722 0.6804 -0.6804
vn -0.2722 -0.6804 -0.6804
vn -0.2722 0.6804 0.6804
vn -0.2722 -0.6804 0.6804
vn -0.5490 -0.5490 -0.6302
vn 0.0000 -0.0000 1.0000
vn 0.0000 0.0000 -1.0000
vn 0.0000 0.1269 -0.9919
vn 0.9919 0.1269 0.0000
vn 0.0000 0.1269 0.9919
vn -0.9919 0.1269 0.0000
vn -0.7764 0.0000 0.6302
vn -0.7764 0.0000 -0.6302
vn 0.5943 0.0000 0.8042
vn 0.4203 -0.4203 -0.8042
vn 0.4203 -0.4203 0.8042
vn 0.0000 -0.5943 -0.8042
vn 0.0000 -0.5943 0.8042
vn 0.0000 0.7764 -0.6302
vn 0.5490 0.5490 0.6302
vn 0.5490 0.5490 -0.6302
vn 0.0000 0.5943 0.8042
vn 0.4203 0.4203 -0.8042
vn 0.4203 0.4203 0.8042
vn -0.4203 -0.4203 0.8042
vn -0.5943 0.0000 -0.8042
vn -0.5943 0.0000 0.8042
vn 0.7764 0.0000 0.6302
vn 0.7764 0.0000 -0.6302
vn 0.5490 -0.5490 0.6302
vn 0.5490 -0.5490 -0.6302
vn -0.5490 0.5490 -0.6302
vn 0.0000 0.7764 0.6302
vn -0.4203 0.4203 0.8042
vn 0.0000 0.5943 -0.8042
vn -0.5490 0.5490 0.6302
vn -0.4203 -0.4203 -0.8042
vn -0.4203 0.4203 -0.8042
vn 0.5943 0.0000 -0.8042
vn 0.0000 0.1726 -0.9850
vn 0.0000 0.1726 0.9850
vn -0.9850 0.1726 0.0000
vn 0.9850 0.1726 0.0000
usemtl ColobotMesh_mat_1
s off
f 14/1/1 13/2/1 41/3/1
f 5/4/1 4/5/1 2/6/1
f 14/1/1 10/7/1 13/2/1
f 5/4/1 3/8/1 4/5/1
s 1
f 73/9/2 74/10/3 75/11/4
f 43/12/1 44/13/5 45/14/6
f 20/15/7 18/16/8 19/17/9
f 20/15/7 21/18/10 18/16/8
f 20/15/7 22/19/11 21/18/10
f 20/15/7 19/17/9 22/19/11
f 29/20/12 35/21/13 34/22/14
f 73/9/2 76/23/15 74/10/3
f 73/9/2 42/24/16 76/23/15
f 73/9/2 75/11/4 42/24/16
f 43/12/1 46/25/17 44/13/5
f 43/12/1 47/26/18 46/25/17
f 43/12/1 45/14/6 47/26/18
f 68/27/19 69/28/20 53/29/21
f 68/27/19 70/30/22 69/28/20
f 68/27/19 54/31/23 70/30/22
f 68/27/19 53/29/21 54/31/23
f 29/20/12 33/32/24 35/21/13
usemtl ColobotMesh_mat_2
s off
f 39/33/25 37/34/25 34/35/25
f 32/36/26 59/37/26 66/38/26
f 2/39/27 6/40/27 7/41/27
f 4/42/28 8/43/28 6/44/28
f 3/45/29 9/46/29 8/43/29
f 72/47/25 25/48/25 24/49/25
f 32/36/26 31/50/26 67/51/26
f 29/52/25 25/53/25 28/54/25
f 17/55/26 49/56/26 16/57/26
f 48/58/25 1/59/25 58/60/25
f 5/61/30 7/41/30 9/62/30
f 26/63/26 35/64/26 33/65/26
f 52/66/26 16/67/26 35/64/26
f 57/68/25 38/69/25 39/70/25
f 48/71/25 51/72/25 57/73/25
f 66/74/26 49/75/26 50/76/26
f 26/77/26 30/78/26 36/79/26
f 36/80/26 31/81/26 23/82/26
f 72/83/25 1/59/25 71/84/25
f 29/85/25 37/34/25 27/86/25
f 39/33/25 38/87/25 37/34/25
f 32/36/26 67/51/26 59/37/26
f 2/39/27 4/88/27 6/40/27
f 4/42/28 3/45/28 8/43/28
f 3/45/29 5/89/29 9/46/29
f 72/47/25 28/90/25 25/48/25
f 32/36/26 23/91/26 31/50/26
f 29/52/25 27/92/25 25/53/25
f 17/55/26 50/93/26 49/56/26
f 48/58/25 71/84/25 1/59/25
f 5/61/30 2/39/30 7/41/30
f 26/63/26 52/66/26 35/64/26
f 52/66/26 17/94/26 16/67/26
f 57/68/25 51/95/25 38/69/25
f 48/71/25 58/96/25 51/72/25
f 66/74/26 59/97/26 49/75/26
f 26/77/26 33/98/26 30/78/26
f 36/80/26 30/99/26 31/81/26
f 72/83/25 24/100/25 1/59/25
f 29/85/25 34/35/25 37/34/25
s 1
f 33/101/24 28/54/31 30/102/32
f 25/103/33 23/104/34 24/105/35
f 24/106/35 32/107/36 1/108/37
f 67/109/38 48/58/39 59/110/40
f 37/111/41 26/112/42 27/113/43
f 58/114/44 50/115/45 51/116/46
f 59/117/40 57/73/47 49/118/48
f 49/119/48 39/70/49 16/120/50
f 16/121/50 34/35/14 35/122/13
f 31/123/51 71/84/52 67/109/38
f 38/124/53 52/125/54 37/111/41
f 30/126/32 72/47/55 31/127/51
f 1/108/37 66/128/56 58/129/44
f 38/130/53 50/131/45 17/132/57
f 25/133/33 26/134/42 36/135/58
f 33/101/24 29/52/12 28/54/31
f 25/103/33 36/136/58 23/104/34
f 24/106/35 23/137/34 32/107/36
f 67/109/38 71/84/52 48/58/39
f 37/111/41 52/125/54 26/112/42
f 58/114/44 66/138/56 50/115/45
f 59/117/40 48/71/39 57/73/47
f 49/119/48 57/68/47 39/70/49
f 16/121/50 39/33/49 34/35/14
f 31/123/51 72/83/55 71/84/52
f 38/124/53 17/139/57 52/125/54
f 30/126/32 28/90/31 72/47/55
f 1/108/37 32/107/36 66/128/56
f 38/130/53 51/140/46 50/131/45
f 25/133/33 27/141/43 26/134/42
usemtl ColobotMesh_mat_3
s off
f 41/142/59 12/143/59 40/144/59
f 64/145/19 60/146/19 65/147/19
f 11/148/60 14/149/60 15/150/60
f 15/150/61 41/151/61 40/144/61
f 13/152/62 11/148/62 12/143/62
f 62/153/25 65/154/25 63/155/25
f 61/156/26 56/157/26 60/146/26
f 55/158/2 63/155/2 56/159/2
f 41/142/59 13/160/59 12/143/59
f 64/145/19 61/156/19 60/146/19
f 11/148/60 10/161/60 14/149/60
f 15/150/61 14/162/61 41/151/61
f 13/152/62 10/163/62 11/148/62
f 62/153/25 64/164/25 65/154/25
f 61/156/26 55/165/26 56/157/26
f 55/158/2 62/153/2 63/155/2
