# Blender v2.70 (sub 5) OBJ File: 'trainerw.blend'
# www.blender.org
mtllib trainerw.mtl
o ColobotMesh_1_ColobotMesh_
v 2.513550 1.388700 3.148860
v -2.033980 2.277290 -0.733249
v 2.513550 1.388700 -3.174640
v 1.013540 2.277290 -0.733249
v 1.013540 1.525540 -0.459632
v 2.513550 0.636941 -2.901030
v 1.820720 1.251890 -3.550520
v 1.820720 0.500133 -3.276900
v 0.320724 1.388730 -0.835510
v 0.320724 2.140480 -1.109130
v -1.341160 2.140480 -1.109130
v -3.533980 1.388700 -3.174640
v -2.841160 1.251890 -3.550520
v -3.533980 1.388700 3.148860
v -2.033980 2.277290 0.707470
v -2.033980 1.525540 0.433854
v 4.000000 3.000000 -2.000000
v 4.000000 3.000000 2.000000
v -3.533980 0.636941 2.875250
v -1.341160 1.388730 0.809731
v -1.341160 2.140480 1.083350
v -2.841160 1.251890 3.524740
v 1.013540 2.277290 0.707470
v 1.013540 1.525540 0.433854
v -2.000000 3.000000 1.500000
v -2.000000 4.769230 -1.500000
v -3.000000 5.000000 -1.500000
v -2.000000 3.000000 -1.500000
v -4.000000 3.000000 -1.500000
v -4.000000 3.000000 1.500000
v -3.000000 5.000000 -2.000000
v -3.500000 3.000000 -3.000000
v -3.000000 5.000000 1.500000
v -2.000000 4.769230 1.500000
v -3.000000 2.000000 2.500000
v -3.000000 2.000000 -2.500000
v -3.500000 3.000000 3.000000
v -3.000000 5.000000 2.000000
v 3.500000 3.500000 -1.725000
v -2.841160 0.500133 -3.276900
v -2.033980 1.525540 -0.459632
v -1.341160 1.388730 -0.835510
v -3.533980 0.636941 -2.901030
v 0.320724 2.140480 1.083350
v 3.500000 2.000000 1.500000
v 3.500000 2.000000 -1.500000
v 3.500000 3.500000 1.725000
v -2.500000 1.000000 1.000000
v 2.000000 1.000000 1.000000
v 3.000000 2.000000 1.500000
v -3.000000 2.000000 -1.500000
v -2.500000 1.000000 -1.000000
v -3.000000 2.000000 1.500000
v 2.000000 1.000000 -1.000000
v 3.000000 2.000000 -1.500000
v -2.841160 0.500133 3.251120
v 0.320724 1.388730 0.809731
v 2.513540 0.636941 2.875250
v 1.820720 0.500133 3.251120
v 1.820720 1.251890 3.524740
v -2.497391 1.745280 0.305819
v -2.497391 1.788887 0.310114
v -2.497391 1.830818 0.322833
v -2.497391 1.869461 0.343489
v -2.497391 1.903333 0.371286
v -2.497391 1.931130 0.405158
v -2.497391 1.951786 0.443801
v -2.497391 1.964505 0.485732
v -2.497391 1.968800 0.529339
v -2.497391 1.964505 0.572945
v -2.497391 1.951786 0.614876
v -2.497391 1.931130 0.653520
v -2.497391 1.903333 0.687391
v -2.497391 1.869461 0.715189
v -2.497391 1.830818 0.735844
v -2.497391 1.788887 0.748564
v -2.497391 1.745280 0.752858
v -2.497391 1.701674 0.748564
v -2.497391 1.659743 0.735844
v -2.497391 1.621099 0.715189
v -2.497391 1.587228 0.687391
v -2.497391 1.559430 0.653519
v -2.497391 1.538775 0.614876
v -2.497391 1.526055 0.572945
v -2.497391 1.521760 0.529338
v -2.497391 1.526055 0.485732
v -2.497391 1.538775 0.443801
v -2.497391 1.559430 0.405158
v -2.497391 1.587228 0.371286
v -2.497391 1.621099 0.343489
v -2.497391 1.659743 0.322833
v -2.497391 1.701674 0.310114
v -3.497390 1.745280 0.305819
v -3.508676 1.787401 0.310114
v -3.519529 1.827903 0.322833
v -3.529530 1.865230 0.343489
v -3.538297 1.897947 0.371286
v -3.545491 1.924798 0.405158
v -3.550838 1.944749 0.443801
v -3.554129 1.957035 0.485732
v -3.555241 1.961184 0.529339
v -3.554129 1.957035 0.572945
v -3.550838 1.944749 0.614876
v -3.545491 1.924798 0.653520
v -3.538297 1.897947 0.687391
v -3.529530 1.865230 0.715189
v -3.519529 1.827903 0.735844
v -3.508676 1.787401 0.748564
v -3.497390 1.745280 0.752858
v -3.486104 1.703159 0.748564
v -3.475251 1.662657 0.735844
v -3.465250 1.625331 0.715189
v -3.456483 1.592613 0.687391
v -3.449289 1.565763 0.653519
v -3.443943 1.545811 0.614876
v -3.440651 1.533525 0.572945
v -3.439539 1.529377 0.529338
v -3.440651 1.533525 0.485732
v -3.443943 1.545811 0.443801
v -3.449289 1.565763 0.405158
v -3.456483 1.592614 0.371286
v -3.465250 1.625331 0.343489
v -3.475251 1.662658 0.322833
v -3.486104 1.703160 0.310114
v -3.023031 1.745280 0.529339
v -3.023031 1.745280 0.529339
v -3.023031 1.745280 0.529339
v -3.023031 1.745280 0.529339
v -3.023031 1.745280 0.529339
v -3.023031 1.745280 0.529339
v -3.023031 1.745280 0.529339
v -3.023031 1.745280 0.529339
v -3.023031 1.745280 0.529339
v -3.023031 1.745280 0.529339
v -3.023031 1.745280 0.529339
v -3.023031 1.745280 0.529339
v -3.023031 1.745280 0.529339
v -3.023031 1.745280 0.529339
v -3.023031 1.745280 0.529339
v -3.023031 1.745280 0.529339
v -3.023031 1.745280 0.529339
v -3.023031 1.745280 0.529339
v -3.023031 1.745280 0.529339
v -3.023031 1.745280 0.529339
v -3.023031 1.745280 0.529339
v -3.023031 1.745280 0.529339
v -3.023031 1.745280 0.529339
v -3.023031 1.745280 0.529339
v -3.023031 1.745280 0.529339
v -3.023031 1.745280 0.529339
v -3.023031 1.745280 0.529339
v -3.023031 1.745280 0.529339
v -3.023031 1.745280 0.529339
v -3.023031 1.745280 0.529339
v -3.023031 1.745280 0.529339
v -3.023031 1.745280 0.529339
vt 0.658203 0.989909
vt 0.665228 0.994141
vt 0.666016 0.990560
vt 0.658991 0.986328
vt 0.664973 0.993098
vt 0.666016 0.994141
vt 0.658203 0.986328
vt 0.659245 0.987370
vt 0.666016 0.989909
vt 0.658990 0.994141
vt 0.658203 0.990560
vt 0.665228 0.986328
vt 0.658991 0.994141
vt 0.666016 0.986328
vt 0.664973 0.987370
vt 0.658203 0.994141
vt 0.659245 0.993098
vt 0.748047 0.248047
vt 0.501953 0.248047
vt 0.501953 0.166016
vt 0.748047 0.166016
vt 0.833984 0.248047
vt 0.820312 0.166016
vt 0.758789 0.166016
vt 0.751953 0.248047
vt 0.751953 0.166016
vt 0.833984 0.166016
vt 0.686523 0.498047
vt 0.522461 0.439453
vt 0.727539 0.439453
vt 0.563477 0.498047
vt 0.611328 0.987891
vt 0.611328 0.992578
vt 0.603516 0.994141
vt 0.603516 0.986328
vt 0.748047 0.498047
vt 0.501953 0.498047
vt 0.873047 0.498047
vt 0.751953 0.314453
vt 0.751953 0.498047
vt 0.873047 0.314453
vt 0.611801 0.987742
vt 0.602953 0.987791
vt 0.602872 0.988093
vt 0.611801 0.987138
vt 0.603109 0.987208
vt 0.603099 0.987246
vt 0.603019 0.987544
vt 0.611801 0.989200
vt 0.602575 0.989200
vt 0.602679 0.988811
vt 0.611801 0.990658
vt 0.602198 0.990608
vt 0.602132 0.990856
vt 0.602471 0.989588
vt 0.602279 0.990306
vt 0.611801 0.991262
vt 0.602042 0.991191
vt 0.602052 0.991153
vt 0.611801 0.988054
vt 0.602780 0.988437
vt 0.611801 0.987177
vt 0.603068 0.987359
vt 0.611801 0.987485
vt 0.611801 0.988797
vt 0.611801 0.991222
vt 0.602082 0.991040
vt 0.611801 0.990914
vt 0.611801 0.989602
vt 0.602371 0.989962
vt 0.611801 0.990345
vt 0.611801 0.988411
vt 0.611801 0.987295
vt 0.611801 0.989989
vt 0.611801 0.991105
vt 0.606951 0.989200
vt 0.517578 0.306641
vt 0.763672 0.306641
vt 0.732910 0.267578
vt 0.548340 0.267578
vt 0.534497 0.349609
vt 0.746753 0.349609
vt 0.763672 0.310547
vt 0.517578 0.310547
vt 0.763672 0.677734
vt 0.746753 0.353516
vt 0.732910 0.627855
vt 0.732910 0.677734
vt 0.185547 0.123047
vt 0.185547 0.001953
vt 0.119141 0.001953
vt 0.163411 0.123047
vt 0.534497 0.353516
vt 0.548340 0.627855
vt 0.517578 0.677734
vt 0.548340 0.677734
vt 0.119141 0.123047
vt 0.141276 0.123047
vt 0.373047 0.001953
vt 0.001953 0.001953
vt 0.026693 0.123047
vt 0.348307 0.032227
vt 0.348307 0.123047
vt 0.373047 0.048828
vt 0.001953 0.048828
vt 0.751953 0.238582
vt 0.833984 0.238582
vn 0.866024 0.171012 0.469849
vn 0.866024 0.171006 0.469849
vn -0.866026 -0.171011 -0.469845
vn -0.866026 -0.171013 -0.469845
vn -0.000001 -0.939692 0.342022
vn 0.000001 0.939693 -0.342020
vn -0.866025 0.171011 -0.469847
vn 0.000002 -0.939692 0.342022
vn 0.000001 -0.939692 0.342022
vn -0.000001 0.939693 -0.342019
vn -0.000001 0.939693 -0.342020
vn -0.866025 0.171012 0.469846
vn -0.866026 0.171006 0.469847
vn 0.866025 -0.171012 -0.469846
vn 0.866025 -0.171013 -0.469846
vn -0.000002 -0.939692 0.342022
vn 0.000001 0.939693 -0.342019
vn -0.866026 0.171006 -0.469847
vn 0.866025 -0.171012 0.469846
vn 0.866025 -0.171013 0.469846
vn -0.000002 -0.939692 -0.342022
vn -0.000001 -0.939692 -0.342022
vn 0.000001 0.939693 0.342020
vn 0.866024 0.171012 -0.469849
vn 0.866026 0.170995 -0.469851
vn -0.866026 -0.171011 0.469845
vn -0.866026 -0.171012 0.469845
vn 0.000002 -0.939692 -0.342023
vn 0.000001 -0.939692 -0.342022
vn -0.000001 0.939693 0.342020
vn 0.000000 -1.000000 -0.000000
vn -0.000000 -0.447214 -0.894427
vn 0.707107 -0.707107 -0.000000
vn -0.000000 -0.447214 0.894427
vn -0.894427 -0.447213 0.000000
vn -0.894427 -0.447214 -0.000000
vn -0.707107 -0.707107 0.000000
vn -0.801784 -0.534522 0.267261
vn -0.801784 -0.534522 -0.267261
vn 0.000000 1.000000 0.000000
vn -0.003639 -0.648047 -0.761591
vn -0.008047 -0.995492 -0.094499
vn -0.004403 -0.784094 0.620627
vn 0.000000 -0.101440 0.994842
vn -0.004052 0.783217 -0.621735
vn 0.000000 0.101441 -0.994842
vn -0.003347 0.646960 0.762517
vn -0.007167 0.995463 0.094880
vn -0.002119 -0.484611 -0.874727
vn -0.007601 -0.959785 -0.280634
vn -0.005913 -0.888877 0.458107
vn -0.000450 -0.299730 0.954024
vn -0.006782 0.959485 0.281677
vn -0.005367 0.888244 -0.459341
vn -0.000440 0.299512 -0.954092
vn -0.001983 0.483771 0.875192
vn -0.000894 -0.299837 -0.953990
vn -0.006608 -0.888913 -0.458029
vn -0.007135 -0.959780 0.280664
vn -0.001444 -0.484476 0.874804
vn -0.000854 0.299411 0.954124
vn -0.005933 0.888208 0.459404
vn -0.006409 0.959497 -0.281645
vn -0.001380 0.483896 -0.875124
vn -0.000152 -0.101479 -0.994838
vn -0.005217 -0.784174 -0.620519
vn -0.007883 -0.995493 0.094505
vn -0.002833 -0.647924 0.761700
vn -0.000149 0.101400 0.994846
vn -0.004732 0.783145 0.621821
vn -0.007037 0.995464 -0.094879
vn -0.002653 0.647070 -0.762426
vn 0.089340 -0.790006 -0.606554
vn 0.004327 0.000000 -0.999991
vn 0.032179 0.747693 -0.663264
vn -0.000000 -0.625518 0.780210
vn -0.089932 0.632353 0.769443
vn 0.057880 0.000000 0.998324
vn 0.000566 0.518947 0.854806
vn 0.000000 -0.151119 -0.988516
vn -0.063183 0.890530 0.450516
vn 0.151202 0.087788 -0.984597
vn 0.010577 0.096422 -0.995284
vn -0.028039 -0.099131 -0.994679
vn 0.104661 -0.994227 -0.023634
vn -0.297559 0.954567 0.016162
vn -0.094936 -0.626626 0.773516
vn -0.031300 0.635472 0.771489
vn 0.016525 -0.927136 0.374359
vn -0.108948 0.399677 0.910159
vn -0.236965 0.031513 -0.971007
vn -0.036489 0.169650 -0.984829
vn -0.029322 0.958664 0.283026
vn -0.071648 -0.882791 0.464271
vn -0.091745 -0.294089 0.951364
vn 0.163160 0.643476 0.747876
vn -0.008574 0.389313 0.921065
vn 0.001242 -0.307210 -0.951641
vn -0.012921 -0.273219 -0.961865
vn 0.033252 -0.993020 0.113163
vn -0.130599 0.991067 0.027022
vn -0.052122 -0.998143 -0.031539
vn 0.021708 0.642429 0.766038
vn -0.026977 0.110476 0.993513
vn -0.002773 -0.634391 -0.773007
vn -0.007881 -0.995154 -0.098013
vn -0.005143 -0.773002 0.634383
vn -0.000147 -0.098017 0.995185
vn -0.004670 0.773004 -0.634384
vn -0.000144 0.098019 -0.995185
vn -0.002601 0.634391 0.773008
vn -0.007034 0.995160 0.098011
vn -0.001405 -0.471395 -0.881921
vn -0.007113 -0.956915 -0.290282
vn -0.006556 -0.881904 0.471384
vn -0.000865 -0.290285 0.956940
vn -0.006392 0.956922 0.290276
vn -0.005891 0.881904 -0.471392
vn -0.000828 0.290284 -0.956940
vn -0.001344 0.471397 0.881920
vn -0.000436 -0.290284 -0.956941
vn -0.005867 -0.881907 -0.471388
vn -0.007578 -0.956913 0.290276
vn -0.002061 -0.471395 0.881920
vn -0.000426 0.290285 0.956940
vn -0.005328 0.881908 0.471392
vn -0.006764 0.956918 -0.290280
vn -0.001933 0.471397 -0.881919
vn 0.000000 -0.098016 -0.995185
vn -0.004341 -0.773003 -0.634387
vn -0.008045 -0.995152 0.098015
vn -0.003562 -0.634389 0.773006
vn -0.000000 0.098017 0.995185
vn -0.003999 0.773005 0.634387
vn -0.007165 0.995159 -0.098014
vn -0.003282 0.634389 -0.773007
vn -0.447206 0.506513 0.737191
vn -0.458095 0.883731 0.095750
vn -0.451760 0.649917 -0.611163
vn -0.426149 -0.021972 -0.904386
vn -0.392193 -0.654382 -0.646505
vn -0.374764 -0.923805 -0.078333
vn -0.385500 -0.761185 0.521523
vn -0.417448 -0.202188 0.885921
vn -0.441331 0.341043 0.830010
vn -0.457096 0.843207 0.282958
vn -0.455023 0.764022 -0.457411
vn -0.434233 0.161938 -0.886125
vn -0.400013 -0.523483 -0.752299
vn -0.376610 -0.896556 -0.233136
vn -0.380235 -0.842213 0.382229
vn -0.408580 -0.371319 0.833777
vn -0.434231 0.161930 0.886127
vn -0.455024 0.764022 0.457410
vn -0.457097 0.843207 -0.282956
vn -0.441332 0.341043 -0.830010
vn -0.400013 -0.523484 0.752300
vn -0.408581 -0.371322 -0.833776
vn -0.380235 -0.842214 -0.382227
vn -0.376610 -0.896556 0.233137
vn -0.426151 -0.021971 0.904385
vn -0.451760 0.649919 0.611161
vn -0.458096 0.883730 -0.095754
vn -0.447206 0.506512 -0.737192
vn -0.374763 -0.923805 0.078334
vn -0.392193 -0.654380 0.646507
vn -0.417449 -0.202192 -0.885920
vn -0.385502 -0.761185 -0.521523
vn 0.894427 -0.447214 -0.000000
vn 0.707107 0.707107 0.000000
vn 0.224859 0.974391 -0.000002
vn 0.224860 0.974391 0.000000
vn -0.857143 0.428571 0.285714
vn -0.970143 0.242536 0.000000
vn 0.224859 0.974391 0.000000
vn 0.224859 0.974391 0.000002
vn -0.894427 0.447214 0.000000
vn -0.882258 0.367607 -0.294086
vn 0.119952 0.419832 -0.899640
vn 0.171723 0.601031 -0.780560
vn 0.119952 0.419832 0.899640
vn 0.171723 0.601031 0.780559
vn 0.132092 -0.495344 0.858596
vn 0.121435 -0.394665 0.910765
vn 0.121435 -0.394665 -0.910765
vn 0.132092 -0.495344 -0.858596
vn 0.000000 -0.000000 1.000000
vn -0.000000 0.000000 -1.000000
vn -1.000000 0.000000 0.000000
usemtl ColobotMesh_mat_1
s off
f 3/1/1 4/2/1 5/3/1
f 5/3/2 6/4/2 3/1/2
f 7/1/3 8/4/3 9/3/3
f 9/3/4 10/2/4 7/1/4
f 42/5/5 41/6/5 40/7/5
f 13/7/6 12/8/6 11/5/6
f 14/9/7 15/10/7 16/11/7
f 8/7/8 6/8/8 5/6/8
f 5/6/9 9/5/9 8/7/9
f 10/5/10 4/6/10 3/8/10
f 3/8/11 7/7/11 10/5/11
f 2/2/12 12/1/12 41/3/12
f 43/4/13 41/3/13 12/1/13
f 40/4/14 13/1/14 42/3/14
f 11/2/15 42/3/15 13/1/15
f 43/8/16 40/7/16 41/6/16
f 2/6/17 11/5/17 12/8/17
f 16/11/18 19/12/18 14/9/18
f 22/9/19 56/12/19 20/11/19
f 20/11/20 21/13/20 22/9/20
f 56/14/21 19/15/21 16/16/21
f 16/16/22 20/17/22 56/14/22
f 21/17/23 15/16/23 14/15/23
f 14/15/23 22/14/23 21/17/23
f 23/10/24 1/9/24 24/11/24
f 58/12/25 24/11/25 1/9/25
f 59/12/26 60/9/26 57/11/26
f 44/13/27 57/11/27 60/9/27
f 58/15/28 59/14/28 24/16/28
f 57/17/29 24/16/29 59/14/29
f 23/16/30 44/17/30 1/15/30
f 60/14/30 1/15/30 44/17/30
f 49/18/31 48/19/31 52/20/31
f 52/20/31 54/21/31 49/18/31
f 55/22/32 54/23/32 52/24/32
f 52/24/32 51/25/32 55/22/32
f 50/22/33 49/26/33 54/26/33
f 54/26/33 55/22/33 50/22/33
f 53/25/34 48/24/34 49/23/34
f 49/23/34 50/22/34 53/25/34
f 51/25/35 52/27/35 48/27/35
f 48/27/36 53/25/36 51/25/36
f 30/28/37 36/29/37 35/30/37
f 36/29/37 30/28/37 29/31/37
f 46/32/31 45/33/31 35/34/31
f 36/35/31 46/32/31 35/34/31
f 35/30/38 37/36/38 30/28/38
f 36/29/39 29/31/39 32/37/39
f 25/38/40 29/39/40 30/40/40
f 29/39/40 25/38/40 28/41/40
f 89/42/41 121/43/41 122/44/41
f 85/45/42 117/46/42 118/47/42
f 81/42/43 113/43/43 114/48/43
f 77/49/44 109/50/44 110/51/44
f 65/52/45 97/53/45 98/54/45
f 61/49/46 93/50/46 94/55/46
f 73/52/47 105/53/47 106/56/47
f 69/57/48 101/58/48 102/59/48
f 90/60/49 122/44/49 123/61/49
f 86/62/50 118/47/50 119/63/50
f 82/64/51 114/48/51 115/63/51
f 78/65/52 110/51/52 111/61/52
f 70/66/53 102/59/53 103/67/53
f 66/68/54 98/54/54 99/67/54
f 62/69/55 94/55/55 95/70/55
f 74/71/56 106/56/56 107/70/56
f 91/72/57 123/61/57 124/51/57
f 87/73/58 119/63/58 120/48/58
f 83/73/59 115/63/59 116/47/59
f 79/72/60 111/61/60 112/44/60
f 75/74/61 107/70/61 108/55/61
f 71/75/62 103/67/62 104/54/62
f 67/75/63 99/67/63 100/59/63
f 63/74/64 95/70/64 96/56/64
f 92/65/65 124/51/65 93/50/65
f 88/64/66 120/48/66 121/43/66
f 84/62/67 116/47/67 117/46/67
f 80/60/68 112/44/68 113/43/68
f 76/69/69 108/55/69 109/50/69
f 72/68/70 104/54/70 105/53/70
f 68/66/71 100/59/71 101/58/71
f 64/71/72 96/56/72 97/53/72
f 121/43/73 153/76/73 154/76/73
f 117/46/74 149/76/74 150/76/74
f 113/43/75 145/76/75 146/76/75
f 109/50/76 141/76/76 142/76/76
f 105/53/77 137/76/77 138/76/77
f 101/58/78 133/76/78 134/76/78
f 97/53/79 129/76/79 130/76/79
f 93/50/80 125/76/80 126/76/80
f 122/44/81 154/76/81 155/76/81
f 118/47/82 150/76/82 151/76/82
f 114/48/83 146/76/83 147/76/83
f 110/51/84 142/76/84 143/76/84
f 106/56/85 138/76/85 139/76/85
f 102/59/86 134/76/86 135/76/86
f 98/54/87 130/76/87 131/76/87
f 94/55/88 126/76/88 127/76/88
f 123/61/89 155/76/89 156/76/89
f 119/63/90 151/76/90 152/76/90
f 115/63/91 147/76/91 148/76/91
f 111/61/92 143/76/92 144/76/92
f 95/70/93 127/76/93 128/76/93
f 107/70/94 139/76/94 140/76/94
f 103/67/95 135/76/95 136/76/95
f 99/67/96 131/76/96 132/76/96
f 124/51/97 156/76/97 125/76/97
f 120/48/98 152/76/98 153/76/98
f 116/47/99 148/76/99 149/76/99
f 112/44/100 144/76/100 145/76/100
f 100/59/101 132/76/101 133/76/101
f 96/56/102 128/76/102 129/76/102
f 108/55/103 140/76/103 141/76/103
f 104/54/104 136/76/104 137/76/104
f 90/60/105 89/42/105 122/44/105
f 86/62/106 85/45/106 118/47/106
f 82/64/107 81/42/107 114/48/107
f 78/65/108 77/49/108 110/51/108
f 66/68/109 65/52/109 98/54/109
f 62/69/110 61/49/110 94/55/110
f 74/71/111 73/52/111 106/56/111
f 70/66/112 69/57/112 102/59/112
f 91/72/113 90/60/113 123/61/113
f 87/73/114 86/62/114 119/63/114
f 83/73/115 82/64/115 115/63/115
f 79/72/116 78/65/116 111/61/116
f 71/75/117 70/66/117 103/67/117
f 67/75/118 66/68/118 99/67/118
f 63/74/119 62/69/119 95/70/119
f 75/74/120 74/71/120 107/70/120
f 92/65/121 91/72/121 124/51/121
f 88/64/122 87/73/122 120/48/122
f 84/62/123 83/73/123 116/47/123
f 80/60/124 79/72/124 112/44/124
f 76/69/125 75/74/125 108/55/125
f 72/68/126 71/75/126 104/54/126
f 68/66/127 67/75/127 100/59/127
f 64/71/128 63/74/128 96/56/128
f 61/49/129 92/65/129 93/50/129
f 89/42/130 88/64/130 121/43/130
f 85/45/131 84/62/131 117/46/131
f 81/42/132 80/60/132 113/43/132
f 77/49/133 76/69/133 109/50/133
f 73/52/134 72/68/134 105/53/134
f 69/57/135 68/66/135 101/58/135
f 65/52/136 64/71/136 97/53/136
f 122/44/137 121/43/137 154/76/137
f 118/47/138 117/46/138 150/76/138
f 114/48/139 113/43/139 146/76/139
f 110/51/140 109/50/140 142/76/140
f 106/56/141 105/53/141 138/76/141
f 102/59/142 101/58/142 134/76/142
f 98/54/143 97/53/143 130/76/143
f 94/55/144 93/50/144 126/76/144
f 123/61/145 122/44/145 155/76/145
f 119/63/146 118/47/146 151/76/146
f 115/63/147 114/48/147 147/76/147
f 111/61/148 110/51/148 143/76/148
f 107/70/149 106/56/149 139/76/149
f 103/67/150 102/59/150 135/76/150
f 99/67/151 98/54/151 131/76/151
f 95/70/152 94/55/152 127/76/152
f 124/51/153 123/61/153 156/76/153
f 120/48/154 119/63/154 152/76/154
f 116/47/155 115/63/155 148/76/155
f 112/44/156 111/61/156 144/76/156
f 96/56/157 95/70/157 128/76/157
f 108/55/158 107/70/158 140/76/158
f 104/54/159 103/67/159 136/76/159
f 100/59/160 99/67/160 132/76/160
f 93/50/161 124/51/161 125/76/161
f 121/43/162 120/48/162 153/76/162
f 117/46/163 116/47/163 149/76/163
f 113/43/164 112/44/164 145/76/164
f 101/58/165 100/59/165 133/76/165
f 97/53/166 96/56/166 129/76/166
f 109/50/167 108/55/167 141/76/167
f 105/53/168 104/54/168 137/76/168
usemtl ColobotMesh_mat_2
f 17/77/169 18/78/169 45/79/169
f 46/80/169 17/77/169 45/79/169
f 39/81/170 47/82/170 18/83/170
f 17/84/170 39/81/170 18/83/170
f 38/85/171 47/86/171 34/87/171
f 34/87/172 33/88/172 38/85/172
f 33/89/173 30/90/173 37/91/173
f 37/91/174 38/92/174 33/89/174
f 34/87/175 47/86/175 39/93/175
f 26/94/172 31/95/172 27/96/172
f 31/95/176 26/94/176 39/93/176
f 29/91/177 27/97/177 31/98/177
f 29/91/178 31/98/178 32/90/178
f 26/94/175 34/87/175 39/93/175
f 17/99/179 32/100/179 31/101/179
f 39/102/180 17/99/180 31/101/180
f 38/101/181 37/100/181 18/99/181
f 47/102/182 38/101/182 18/99/182
f 35/101/183 45/103/183 18/104/183
f 37/105/184 35/101/184 18/104/184
f 36/101/185 32/105/185 17/104/185
f 46/103/186 36/101/186 17/104/186
usemtl ColobotMesh_mat_3
f 26/106/187 27/25/187 28/26/187
f 29/26/187 28/26/187 27/25/187
f 25/27/188 33/22/188 34/107/188
f 33/22/188 25/27/188 30/27/188
f 28/26/189 34/107/189 26/106/189
f 34/107/189 28/26/189 25/27/189
