# Blender v2.77 (sub 0) OBJ File: 'trainerw.blend'
# www.blender.org
mtllib trainerw.mtl
o ColobotMesh_1_ColobotMesh_
v 2.513550 1.388700 3.148860
v -2.033980 2.277290 -0.733249
v 2.513550 1.388700 -3.174640
v 1.013540 2.277290 -0.733249
v 1.013540 1.525540 -0.459632
v 2.513550 0.636941 -2.901030
v 1.820720 1.251890 -3.550520
v 1.820720 0.500133 -3.276900
v 0.320724 1.388730 -0.835510
v 0.320724 2.140480 -1.109130
v -1.341160 2.140480 -1.109130
v -3.533980 1.388700 -3.174640
v -2.841160 1.251890 -3.550520
v -3.533980 1.388700 3.148860
v -2.033980 2.277290 0.707470
v -2.033980 1.525540 0.433854
v 4.000000 3.000000 -2.000000
v 4.000000 3.000000 2.000000
v -3.533980 0.636941 2.875250
v -1.341160 1.388730 0.809731
v -1.341160 2.140480 1.083350
v -2.841160 1.251890 3.524740
v 1.013540 2.277290 0.707470
v 1.013540 1.525540 0.433854
v -2.000000 3.000000 1.500000
v -2.000000 4.769230 -1.500000
v -3.000000 5.000000 -1.500000
v -2.000000 3.000000 -1.500000
v -4.000000 3.000000 -1.500000
v -4.000000 3.000000 1.500000
v -3.000000 5.000000 -2.000000
v -3.500000 3.000000 -3.000000
v -3.000000 5.000000 1.500000
v -2.000000 4.769230 1.500000
v -3.000000 2.000000 2.500000
v -3.000000 2.000000 -2.500000
v -3.500000 3.000000 3.000000
v -3.000000 5.000000 2.000000
v 3.500000 3.500000 -1.725000
v -2.841160 0.500133 -3.276900
v -2.033980 1.525540 -0.459632
v -1.341160 1.388730 -0.835510
v -3.533980 0.636941 -2.901030
v 0.320724 2.140480 1.083350
v 3.500000 2.000000 1.500000
v 3.500000 2.000000 -1.500000
v 3.500000 3.500000 1.725000
v -2.500000 1.000000 1.000000
v 2.000000 1.000000 1.000000
v 3.000000 2.000000 1.500000
v -3.000000 2.000000 -1.500000
v -2.500000 1.000000 -1.000000
v -3.000000 2.000000 1.500000
v 2.000000 1.000000 -1.000000
v 3.000000 2.000000 -1.500000
v -2.841160 0.500133 3.251120
v 0.320724 1.388730 0.809731
v 2.513540 0.636941 2.875250
v 1.820720 0.500133 3.251120
v 1.820720 1.251890 3.524740
v -2.497391 1.745280 0.305819
v -2.497391 1.788887 0.310114
v -2.497391 1.830818 0.322833
v -2.497391 1.869461 0.343489
v -2.497391 1.903333 0.371286
v -2.497391 1.931130 0.405158
v -2.497391 1.951786 0.443801
v -2.497391 1.964505 0.485732
v -2.497391 1.968800 0.529339
v -2.497391 1.964505 0.572945
v -2.497391 1.951786 0.614876
v -2.497391 1.931130 0.653520
v -2.497391 1.903333 0.687391
v -2.497391 1.869461 0.715189
v -2.497391 1.830818 0.735844
v -2.497391 1.788887 0.748564
v -2.497391 1.745280 0.752858
v -2.497391 1.701674 0.748564
v -2.497391 1.659743 0.735844
v -2.497391 1.621099 0.715189
v -2.497391 1.587228 0.687391
v -2.497391 1.559430 0.653519
v -2.497391 1.538775 0.614876
v -2.497391 1.526055 0.572945
v -2.497391 1.521760 0.529338
v -2.497391 1.526055 0.485732
v -2.497391 1.538775 0.443801
v -2.497391 1.559430 0.405158
v -2.497391 1.587228 0.371286
v -2.497391 1.621099 0.343489
v -2.497391 1.659743 0.322833
v -2.497391 1.701674 0.310114
v -3.497390 1.745280 0.305819
v -3.508676 1.787401 0.310114
v -3.519529 1.827903 0.322833
v -3.529530 1.865230 0.343489
v -3.538297 1.897947 0.371286
v -3.545491 1.924798 0.405158
v -3.550838 1.944749 0.443801
v -3.554129 1.957035 0.485732
v -3.555241 1.961184 0.529339
v -3.554129 1.957035 0.572945
v -3.550838 1.944749 0.614876
v -3.545491 1.924798 0.653520
v -3.538297 1.897947 0.687391
v -3.529530 1.865230 0.715189
v -3.519529 1.827903 0.735844
v -3.508676 1.787401 0.748564
v -3.497390 1.745280 0.752858
v -3.486104 1.703159 0.748564
v -3.475251 1.662657 0.735844
v -3.465250 1.625331 0.715189
v -3.456483 1.592613 0.687391
v -3.449289 1.565763 0.653519
v -3.443943 1.545811 0.614876
v -3.440651 1.533525 0.572945
v -3.439539 1.529377 0.529338
v -3.440651 1.533525 0.485732
v -3.443943 1.545811 0.443801
v -3.449289 1.565763 0.405158
v -3.456483 1.592614 0.371286
v -3.465250 1.625331 0.343489
v -3.475251 1.662658 0.322833
v -3.486104 1.703160 0.310114
v -3.023031 1.745280 0.529339
v -3.023031 1.745280 0.529339
v -3.023031 1.745280 0.529339
v -3.023031 1.745280 0.529339
v -3.023031 1.745280 0.529339
v -3.023031 1.745280 0.529339
v -3.023031 1.745280 0.529339
v -3.023031 1.745280 0.529339
v -3.023031 1.745280 0.529339
v -3.023031 1.745280 0.529339
v -3.023031 1.745280 0.529339
v -3.023031 1.745280 0.529339
v -3.023031 1.745280 0.529339
v -3.023031 1.745280 0.529339
v -3.023031 1.745280 0.529339
v -3.023031 1.745280 0.529339
v -3.023031 1.745280 0.529339
v -3.023031 1.745280 0.529339
v -3.023031 1.745280 0.529339
v -3.023031 1.745280 0.529339
v -3.023031 1.745280 0.529339
v -3.023031 1.745280 0.529339
v -3.023031 1.745280 0.529339
v -3.023031 1.745280 0.529339
v -3.023031 1.745280 0.529339
v -3.023031 1.745280 0.529339
v -3.023031 1.745280 0.529339
v -3.023031 1.745280 0.529339
v -3.023031 1.745280 0.529339
v -3.023031 1.745280 0.529339
v -3.023031 1.745280 0.529339
v -3.023031 1.745280 0.529339
vt 0.6660 0.9906
vt 0.6582 0.9899
vt 0.6590 0.9863
vt 0.6582 0.9863
vt 0.6660 0.9941
vt 0.6592 0.9874
vt 0.6592 0.9874
vt 0.6650 0.9931
vt 0.6660 0.9941
vt 0.6650 0.9874
vt 0.6592 0.9931
vt 0.6660 0.9863
vt 0.6660 0.9906
vt 0.6582 0.9899
vt 0.6652 0.9941
vt 0.7520 0.2480
vt 0.8340 0.1660
vt 0.8340 0.1660
vt 0.6582 0.9906
vt 0.6660 0.9899
vt 0.6652 0.9863
vt 0.6582 0.9941
vt 0.6660 0.9863
vt 0.6592 0.9931
vt 0.6660 0.9941
vt 0.6582 0.9863
vt 0.6592 0.9874
vt 0.6652 0.9941
vt 0.6590 0.9863
vt 0.6660 0.9906
vt 0.6590 0.9941
vt 0.6652 0.9863
vt 0.6660 0.9899
vt 0.6652 0.9941
vt 0.6590 0.9863
vt 0.6582 0.9899
vt 0.6590 0.9941
vt 0.6652 0.9863
vt 0.6582 0.9906
vt 0.6650 0.9931
vt 0.6592 0.9874
vt 0.6660 0.9941
vt 0.6582 0.9906
vt 0.6660 0.9899
vt 0.6590 0.9941
vt 0.6582 0.9941
vt 0.6660 0.9863
vt 0.6650 0.9874
vt 0.8340 0.2480
vt 0.8203 0.1660
vt 0.7588 0.1660
vt 0.7520 0.2480
vt 0.7588 0.1660
vt 0.8203 0.1660
vt 0.8340 0.2480
vt 0.7275 0.4395
vt 0.7480 0.4980
vt 0.6865 0.4980
vt 0.5225 0.4395
vt 0.5635 0.4980
vt 0.5020 0.4980
vt 0.7520 0.1660
vt 0.7520 0.1660
vt 0.8730 0.3145
vt 0.7520 0.4980
vt 0.8730 0.4980
vt 0.6650 0.9874
vt 0.6592 0.9931
vt 0.6582 0.9941
vt 0.6113 0.9879
vt 0.6035 0.9941
vt 0.6035 0.9863
vt 0.6030 0.9878
vt 0.6070 0.9892
vt 0.6070 0.9892
vt 0.6031 0.9872
vt 0.6070 0.9892
vt 0.6070 0.9892
vt 0.6030 0.9878
vt 0.6070 0.9892
vt 0.6070 0.9892
vt 0.6026 0.9892
vt 0.6070 0.9892
vt 0.6070 0.9892
vt 0.6022 0.9906
vt 0.6070 0.9892
vt 0.6070 0.9892
vt 0.6020 0.9912
vt 0.6070 0.9892
vt 0.6070 0.9892
vt 0.6022 0.9906
vt 0.6070 0.9892
vt 0.6070 0.9892
vt 0.6026 0.9892
vt 0.6070 0.9892
vt 0.6070 0.9892
vt 0.6029 0.9881
vt 0.6070 0.9892
vt 0.6031 0.9872
vt 0.6070 0.9892
vt 0.6030 0.9875
vt 0.6070 0.9892
vt 0.6027 0.9888
vt 0.6070 0.9892
vt 0.6023 0.9903
vt 0.6070 0.9892
vt 0.6021 0.9912
vt 0.6070 0.9892
vt 0.6021 0.9909
vt 0.6070 0.9892
vt 0.6025 0.9896
vt 0.6070 0.9892
vt 0.6028 0.9884
vt 0.6070 0.9892
vt 0.6031 0.9874
vt 0.6070 0.9892
vt 0.6031 0.9874
vt 0.6070 0.9892
vt 0.6028 0.9884
vt 0.6070 0.9892
vt 0.6024 0.9900
vt 0.6070 0.9892
vt 0.6024 0.9900
vt 0.6070 0.9892
vt 0.6021 0.9910
vt 0.6070 0.9892
vt 0.6021 0.9910
vt 0.6070 0.9892
vt 0.6027 0.9888
vt 0.6030 0.9875
vt 0.6031 0.9872
vt 0.6029 0.9881
vt 0.6021 0.9912
vt 0.6023 0.9903
vt 0.6025 0.9896
vt 0.6021 0.9909
vt 0.7480 0.1660
vt 0.5020 0.2480
vt 0.5020 0.1660
vt 0.6652 0.9941
vt 0.6650 0.9931
vt 0.6582 0.9863
vt 0.6582 0.9941
vt 0.6590 0.9863
vt 0.6590 0.9941
vt 0.6650 0.9874
vt 0.6650 0.9931
vt 0.6582 0.9899
vt 0.6582 0.9906
vt 0.6660 0.9906
vt 0.6660 0.9899
vt 0.6582 0.9863
vt 0.6652 0.9863
vt 0.6592 0.9931
vt 0.7520 0.3145
vt 0.6660 0.9863
vt 0.6113 0.9926
vt 0.7480 0.2480
vt 0.6118 0.9913
vt 0.6118 0.9912
vt 0.6118 0.9912
vt 0.6118 0.9881
vt 0.6118 0.9877
vt 0.6118 0.9877
vt 0.6118 0.9909
vt 0.6118 0.9907
vt 0.6118 0.9888
vt 0.6118 0.9884
vt 0.6118 0.9907
vt 0.6118 0.9873
vt 0.6118 0.9872
vt 0.6118 0.9909
vt 0.6118 0.9888
vt 0.6118 0.9873
vt 0.6118 0.9875
vt 0.6118 0.9896
vt 0.6118 0.9892
vt 0.6118 0.9903
vt 0.6118 0.9892
vt 0.6118 0.9875
vt 0.6118 0.9911
vt 0.6118 0.9900
vt 0.6118 0.9900
vt 0.6118 0.9911
vt 0.6118 0.9884
vt 0.6118 0.9903
vt 0.6118 0.9872
vt 0.6118 0.9896
vt 0.6118 0.9871
vt 0.6118 0.9881
vt 0.5345 0.3496
vt 0.7637 0.3105
vt 0.5176 0.3105
vt 0.0267 0.1230
vt 0.3730 0.0488
vt 0.0020 0.0488
vt 0.1634 0.1230
vt 0.1855 0.0020
vt 0.1191 0.0020
vt 0.7637 0.6777
vt 0.7468 0.3535
vt 0.7329 0.6279
vt 0.7329 0.6777
vt 0.1413 0.1230
vt 0.1191 0.0020
vt 0.1191 0.1230
vt 0.5483 0.6279
vt 0.5176 0.6777
vt 0.5483 0.6777
vt 0.5345 0.3535
vt 0.5483 0.2676
vt 0.7637 0.3066
vt 0.7329 0.2676
vt 0.3730 0.0020
vt 0.0020 0.0020
vt 0.0267 0.1230
vt 0.3483 0.0322
vt 0.0267 0.1230
vt 0.0020 0.0020
vt 0.3730 0.0020
vt 0.3483 0.0322
vt 0.0267 0.1230
vt 0.3730 0.0488
vt 0.3483 0.1230
vt 0.7468 0.3496
vt 0.3483 0.1230
vt 0.1855 0.1230
vt 0.1855 0.0020
vt 0.5176 0.3066
vt 0.0020 0.0488
vt 0.8340 0.1660
vt 0.8340 0.2480
vt 0.8340 0.2386
vt 0.7520 0.2386
vt 0.7520 0.1660
vt 0.7520 0.2480
vt 0.7520 0.1660
vt 0.8340 0.1660
vn -0.8660 0.1710 0.4698
vn -0.0000 -0.9397 0.3420
vn -0.0000 0.9397 -0.3420
vn -0.0000 0.9397 0.3420
vn 0.8660 0.1710 0.4698
vn -0.8944 -0.4472 -0.0000
vn 0.8660 0.1710 -0.4699
vn 0.0000 -0.9397 -0.3420
vn -0.8660 -0.1710 -0.4698
vn -0.8660 -0.1710 0.4698
vn 0.8660 -0.1710 -0.4698
vn 0.8660 -0.1710 0.4698
vn -0.8660 0.1710 -0.4698
vn 0.0000 -0.4472 -0.8944
vn 0.0000 -0.4472 0.8944
vn -0.8018 -0.5345 0.2673
vn -0.8018 -0.5345 -0.2673
vn 0.7071 -0.7071 0.0000
vn 0.0000 1.0000 0.0000
vn -0.7071 -0.7071 0.0000
vn 0.0000 -1.0000 0.0000
vn 0.0000 0.0000 1.0000
vn 0.8660 0.1710 -0.4698
vn -0.0070 1.0000 0.0000
vn -0.9694 0.2276 0.0915
vn -0.0067 0.9808 0.1949
vn -0.0067 0.9808 -0.1949
vn -0.9655 0.1924 -0.1751
vn -0.9695 0.2276 -0.0908
vn -0.0028 -0.5560 0.8312
vn -0.9402 -0.3307 0.0816
vn -0.0044 -0.7074 0.7067
vn -0.0044 -0.7074 -0.7067
vn -0.9463 -0.3200 -0.0458
vn -0.9402 -0.3307 -0.0814
vn -0.0047 0.8317 0.5552
vn -0.9519 0.0660 0.2992
vn -0.0033 0.7074 0.7068
vn -0.0005 -0.1953 0.9807
vn -0.9300 -0.3197 0.1815
vn -0.0014 -0.3830 0.9237
vn -0.0033 0.7074 -0.7068
vn -0.9442 -0.0141 -0.3291
vn -0.9521 0.0660 -0.2985
vn -0.9708 0.2397 0.0000
vn -0.9344 -0.3324 0.1280
vn -0.0071 -0.9240 0.3824
vn -0.9553 -0.2955 0.0085
vn -0.0078 -0.9808 0.1949
vn -0.0047 0.8317 -0.5552
vn -0.9594 0.1369 -0.2466
vn -0.0005 -0.1953 -0.9807
vn -0.9300 -0.3197 -0.1811
vn -0.9278 -0.2890 -0.2359
vn -0.0071 -0.9240 -0.3824
vn -0.9553 -0.2955 -0.0085
vn -0.9516 -0.3063 -0.0224
vn -0.0059 -0.8317 -0.5552
vn -0.0002 0.1952 0.9807
vn -0.9282 -0.2396 0.2845
vn -0.0001 -0.0000 1.0000
vn -0.0020 0.5559 -0.8312
vn -0.9371 -0.0966 -0.3354
vn -0.0001 -0.0000 -1.0000
vn -0.9282 -0.2396 -0.2845
vn -0.0059 -0.8317 0.5552
vn -0.9516 -0.3063 0.0227
vn -0.0059 0.9240 0.3823
vn -0.9594 0.1369 0.2466
vn -0.0009 0.3829 0.9238
vn -0.9314 -0.1739 0.3196
vn -0.0009 0.3829 -0.9238
vn -0.9315 -0.1739 -0.3194
vn -0.0059 0.9240 -0.3823
vn -0.9654 0.1923 0.1758
vn -0.0014 -0.3830 -0.9237
vn -0.9344 -0.3324 -0.1278
vn -0.9277 -0.2889 0.2361
vn -0.9442 -0.0141 0.3291
vn -0.0020 0.5559 0.8312
vn -0.0078 -0.9808 -0.1949
vn -0.9566 -0.2915 0.0000
vn -0.9369 -0.0965 0.3360
vn -0.0002 0.1952 -0.9807
vn -0.9463 -0.3200 0.0461
vn -0.0081 -0.9999 0.0000
vn -0.0028 -0.5560 -0.8312
vn -0.0122 0.0139 0.9998
vn -0.0136 0.0262 0.9995
vn -0.0131 0.0189 0.9997
vn -0.0114 -0.0006 0.9999
vn -0.0098 -0.0164 0.9998
vn -0.0091 -0.0225 0.9997
vn -0.0093 -0.0184 0.9998
vn -0.0104 -0.0051 0.9999
vn -0.0117 0.0091 0.9999
vn -0.0133 0.0246 0.9996
vn -0.0134 0.0225 0.9996
vn -0.0118 0.0044 0.9999
vn -0.0102 -0.0133 0.9998
vn -0.0092 -0.0219 0.9997
vn -0.0092 -0.0204 0.9997
vn -0.0101 -0.0092 0.9999
vn -0.0113 0.0042 0.9999
vn -0.0130 0.0219 0.9997
vn -0.0136 0.0251 0.9996
vn -0.0123 0.0095 0.9999
vn -0.0098 -0.0128 0.9998
vn -0.0105 -0.0096 0.9999
vn -0.0093 -0.0207 0.9997
vn -0.0091 -0.0217 0.9997
vn -0.0109 -0.0005 0.9999
vn -0.0127 0.0182 0.9997
vn -0.0136 0.0263 0.9995
vn -0.0127 0.0144 0.9998
vn -0.0091 -0.0224 0.9997
vn -0.0095 -0.0159 0.9998
vn -0.0109 -0.0053 0.9999
vn -0.0096 -0.0189 0.9998
vn 0.7071 0.7071 0.0000
vn 0.1214 -0.3947 0.9108
vn -0.8823 0.3676 0.2941
vn 0.2249 0.9744 -0.0000
vn -0.8944 0.4472 0.0000
vn 0.8944 -0.4472 0.0000
vn 0.1200 0.4198 -0.8996
vn 0.1717 0.6010 -0.7806
vn 0.1200 0.4198 0.8996
vn 0.1717 0.6010 0.7806
vn 0.1321 -0.4953 -0.8586
vn 0.1321 -0.4953 0.8586
vn -0.8823 0.3676 -0.2941
vn 0.1214 -0.3947 -0.9108
vn 0.0000 0.0000 -1.0000
vn -1.0000 -0.0000 0.0000
usemtl ColobotMesh_mat_1
s off
f 41/1/1 12/2/1 43/3/1
f 40/4/2 41/5/2 43/6/2
f 3/7/3 10/8/3 4/9/3
f 1/10/4 44/11/4 60/12/4
f 5/13/5 3/14/5 4/15/5
f 53/16/6 52/17/6 48/18/6
f 24/19/7 1/20/7 58/21/7
f 24/22/8 59/23/8 57/24/8
f 5/25/2 8/26/2 6/27/2
f 10/28/9 8/29/9 9/30/9
f 44/31/10 59/32/10 60/33/10
f 11/34/11 40/35/11 13/36/11
f 21/37/12 56/38/12 20/39/12
f 11/40/3 12/41/3 2/42/3
f 16/43/13 14/44/13 15/45/13
f 16/46/8 56/47/8 19/48/8
f 55/49/14 54/50/14 52/51/14
f 52/51/14 51/52/14 55/49/14
f 53/16/15 48/53/15 49/54/15
f 49/54/15 50/55/15 53/16/15
f 35/56/16 37/57/16 30/58/16
f 36/59/17 29/60/17 32/61/17
f 55/49/18 49/62/18 54/63/18
f 28/64/19 30/65/19 25/66/19
f 14/67/4 21/68/4 15/69/4
f 29/60/20 35/56/20 30/58/20
f 46/70/21 35/71/21 36/72/21
f 121/73/22 153/74/22 154/75/22
f 117/76/22 149/77/22 150/78/22
f 113/79/22 145/80/22 146/81/22
f 109/82/22 141/83/22 142/84/22
f 105/85/22 137/86/22 138/87/22
f 101/88/22 133/89/22 134/90/22
f 97/91/22 129/92/22 130/93/22
f 93/94/22 125/95/22 126/96/22
f 122/97/22 154/75/22 155/98/22
f 118/99/22 150/78/22 151/100/22
f 114/101/22 146/81/22 147/102/22
f 110/103/22 142/84/22 143/104/22
f 106/105/22 138/87/22 139/106/22
f 102/107/22 134/90/22 135/108/22
f 98/109/22 130/93/22 131/110/22
f 94/111/22 126/96/22 127/112/22
f 123/113/22 155/98/22 156/114/22
f 119/115/22 151/100/22 152/116/22
f 115/117/22 147/102/22 148/118/22
f 111/119/22 143/104/22 144/120/22
f 95/121/22 127/112/22 128/122/22
f 107/123/22 139/106/22 140/124/22
f 103/125/22 135/108/22 136/126/22
f 99/127/22 131/110/22 132/128/22
f 124/129/22 156/114/22 125/95/22
f 120/130/22 152/116/22 153/74/22
f 116/131/22 148/118/22 149/77/22
f 112/132/22 144/120/22 145/80/22
f 100/133/22 132/128/22 133/89/22
f 96/134/22 128/122/22 129/92/22
f 108/135/22 140/124/22 141/83/22
f 104/136/22 136/126/22 137/86/22
f 54/137/21 48/138/21 52/139/21
f 41/1/1 2/140/1 12/2/1
f 40/4/2 42/141/2 41/5/2
f 3/7/3 7/142/3 10/8/3
f 1/10/4 23/143/4 44/11/4
f 5/13/5 6/144/5 3/14/5
f 53/16/6 51/52/6 52/17/6
f 24/19/23 23/145/23 1/20/23
f 24/22/8 58/146/8 59/23/8
f 5/25/2 9/147/2 8/26/2
f 10/28/9 7/148/9 8/29/9
f 44/31/10 57/149/10 59/32/10
f 11/34/11 42/150/11 40/35/11
f 21/37/12 22/151/12 56/38/12
f 11/40/3 13/152/3 12/41/3
f 16/43/13 19/153/13 14/44/13
f 16/46/8 20/154/8 56/47/8
f 55/49/18 50/55/18 49/62/18
f 28/64/19 29/155/19 30/65/19
f 14/67/4 22/156/4 21/68/4
f 29/60/20 36/59/20 35/56/20
f 46/70/21 45/157/21 35/71/21
f 54/137/21 49/158/21 48/138/21
s 1
f 69/159/24 102/107/25 70/160/26
f 68/161/27 99/127/28 100/133/29
f 80/162/30 113/79/31 81/163/32
f 89/164/33 120/130/34 121/73/35
f 72/165/36 105/85/37 73/166/38
f 78/167/39 111/119/40 79/168/41
f 65/169/42 96/134/43 97/91/44
f 69/159/24 100/133/29 101/88/45
f 79/168/41 112/132/46 80/162/30
f 83/170/47 116/131/48 84/171/49
f 66/172/50 97/91/44 98/109/51
f 92/173/52 123/113/53 124/129/54
f 87/174/55 118/99/56 119/115/57
f 88/175/58 119/115/57 120/130/34
f 76/176/59 109/82/60 77/177/61
f 64/178/62 95/121/63 96/134/43
f 61/179/64 124/129/54 93/94/65
f 82/180/66 115/117/67 83/170/47
f 71/181/68 104/136/69 72/165/36
f 75/182/70 108/135/71 76/176/59
f 63/183/72 94/111/73 95/121/63
f 67/184/74 98/109/51 99/127/28
f 70/160/26 103/125/75 71/181/68
f 91/185/76 122/97/77 123/113/53
f 77/177/61 110/103/78 78/167/39
f 73/166/38 106/105/79 74/186/80
f 86/187/81 117/76/82 118/99/56
f 74/186/80 107/123/83 75/182/70
f 62/188/84 93/94/65 94/111/73
f 81/163/32 114/101/85 82/180/66
f 84/171/49 117/76/82 85/189/86
f 90/190/87 121/73/35 122/97/77
f 122/97/77 121/73/35 154/75/88
f 118/99/56 117/76/82 150/78/89
f 114/101/85 113/79/31 146/81/90
f 110/103/78 109/82/60 142/84/91
f 106/105/79 105/85/37 138/87/92
f 102/107/25 101/88/45 134/90/93
f 98/109/51 97/91/44 130/93/94
f 94/111/73 93/94/65 126/96/95
f 123/113/53 122/97/77 155/98/96
f 119/115/57 118/99/56 151/100/97
f 115/117/67 114/101/85 147/102/98
f 111/119/40 110/103/78 143/104/99
f 107/123/83 106/105/79 139/106/100
f 103/125/75 102/107/25 135/108/101
f 99/127/28 98/109/51 131/110/102
f 95/121/63 94/111/73 127/112/103
f 124/129/54 123/113/53 156/114/104
f 120/130/34 119/115/57 152/116/105
f 116/131/48 115/117/67 148/118/106
f 112/132/46 111/119/40 144/120/107
f 96/134/43 95/121/63 128/122/108
f 108/135/71 107/123/83 140/124/109
f 104/136/69 103/125/75 136/126/110
f 100/133/29 99/127/28 132/128/111
f 93/94/65 124/129/54 125/95/112
f 121/73/35 120/130/34 153/74/113
f 117/76/82 116/131/48 149/77/114
f 113/79/31 112/132/46 145/80/115
f 101/88/45 100/133/29 133/89/116
f 97/91/44 96/134/43 129/92/117
f 109/82/60 108/135/71 141/83/118
f 105/85/37 104/136/69 137/86/119
f 69/159/24 101/88/45 102/107/25
f 68/161/27 67/184/74 99/127/28
f 80/162/30 112/132/46 113/79/31
f 89/164/33 88/175/58 120/130/34
f 72/165/36 104/136/69 105/85/37
f 78/167/39 110/103/78 111/119/40
f 65/169/42 64/178/62 96/134/43
f 69/159/24 68/161/27 100/133/29
f 79/168/41 111/119/40 112/132/46
f 83/170/47 115/117/67 116/131/48
f 66/172/50 65/169/42 97/91/44
f 92/173/52 91/185/76 123/113/53
f 87/174/55 86/187/81 118/99/56
f 88/175/58 87/174/55 119/115/57
f 76/176/59 108/135/71 109/82/60
f 64/178/62 63/183/72 95/121/63
f 61/179/64 92/173/52 124/129/54
f 82/180/66 114/101/85 115/117/67
f 71/181/68 103/125/75 104/136/69
f 75/182/70 107/123/83 108/135/71
f 63/183/72 62/188/84 94/111/73
f 67/184/74 66/172/50 98/109/51
f 70/160/26 102/107/25 103/125/75
f 91/185/76 90/190/87 122/97/77
f 77/177/61 109/82/60 110/103/78
f 73/166/38 105/85/37 106/105/79
f 86/187/81 85/189/86 117/76/82
f 74/186/80 106/105/79 107/123/83
f 62/188/84 61/179/64 93/94/65
f 81/163/32 113/79/31 114/101/85
f 84/171/49 116/131/48 117/76/82
f 90/190/87 89/164/33 121/73/35
usemtl ColobotMesh_mat_2
s off
f 39/191/120 18/192/120 17/193/120
f 35/194/121 18/195/121 37/196/121
f 38/197/122 30/198/122 37/199/122
f 38/200/123 47/201/123 34/202/123
f 34/202/123 33/203/123 38/200/123
f 31/204/124 29/205/124 27/206/124
f 26/207/123 31/208/123 27/209/123
f 31/208/123 26/207/123 39/210/123
f 46/211/125 18/212/125 45/213/125
f 17/214/126 32/215/126 31/216/126
f 39/217/127 17/214/127 31/216/127
f 38/218/128 37/219/128 18/220/128
f 47/221/129 38/218/129 18/220/129
f 36/222/130 17/223/130 46/224/130
f 34/202/123 39/210/123 26/207/123
f 39/191/120 47/225/120 18/192/120
f 35/194/131 45/226/131 18/195/131
f 38/197/124 33/227/124 30/198/124
f 31/204/132 32/228/132 29/205/132
f 46/211/125 17/229/125 18/212/125
f 36/222/133 32/230/133 17/223/133
f 34/202/123 47/201/123 39/210/123
usemtl ColobotMesh_mat_3
f 25/231/134 33/232/134 34/233/134
f 25/231/135 26/234/135 28/235/135
f 28/235/22 27/236/22 29/237/22
f 25/231/134 30/238/134 33/232/134
f 25/231/135 34/233/135 26/234/135
f 28/235/22 26/234/22 27/236/22
