<?xml version="1.0" encoding="UTF-8" standalone="no"?>
<!-- Created with Inkscape (http://www.inkscape.org/) -->

<svg
   xmlns:dc="http://purl.org/dc/elements/1.1/"
   xmlns:cc="http://creativecommons.org/ns#"
   xmlns:rdf="http://www.w3.org/1999/02/22-rdf-syntax-ns#"
   xmlns:svg="http://www.w3.org/2000/svg"
   xmlns="http://www.w3.org/2000/svg"
   xmlns:xlink="http://www.w3.org/1999/xlink"
   version="1.1"
   width="16"
   height="16"
   id="svg2">
  <defs
     id="defs4">
    <linearGradient
       id="linearGradient3790">
      <stop
         id="stop3792"
         style="stop-color:#6d4e33;stop-opacity:1"
         offset="0" />
      <stop
         id="stop3794"
         style="stop-color:#6d4e33;stop-opacity:1"
         offset="1" />
    </linearGradient>
    <linearGradient
       x1="-7"
       y1="13"
       x2="-17"
       y2="3"
       id="linearGradient3796"
       xlink:href="#linearGradient3790"
       gradientUnits="userSpaceOnUse" />
    <linearGradient
       x1="-7"
       y1="13"
       x2="-17"
       y2="3"
       id="linearGradient3796-7"
       xlink:href="#linearGradient3790-4"
       gradientUnits="userSpaceOnUse" />
    <linearGradient
       id="linearGradient3790-4">
      <stop
         id="stop3792-0"
         style="stop-color:#6d4e33;stop-opacity:1"
         offset="0" />
      <stop
         id="stop3794-9"
         style="stop-color:#6d4e33;stop-opacity:1"
         offset="1" />
    </linearGradient>
    <filter
       x="-0.24149428"
       y="-0.23852409"
       width="1.4829886"
       height="1.4770482"
       color-interpolation-filters="sRGB"
       id="filter4088">
      <feGaussianBlur
         id="feGaussianBlur4090"
         stdDeviation="0.61341477" />
    </filter>
    <filter
       color-interpolation-filters="sRGB"
       id="filter3794">
      <feGaussianBlur
         id="feGaussianBlur3796"
         stdDeviation="0.49" />
    </filter>
    <filter
       color-interpolation-filters="sRGB"
       id="filter3826">
      <feGaussianBlur
         id="feGaussianBlur3828"
         stdDeviation="0.28" />
    </filter>
  </defs>
  <metadata
     id="metadata7">
    <rdf:RDF>
      <cc:Work
         rdf:about="">
        <dc:format>image/svg+xml</dc:format>
        <dc:type
           rdf:resource="http://purl.org/dc/dcmitype/StillImage" />
        <dc:title></dc:title>
      </cc:Work>
    </rdf:RDF>
  </metadata>
  <g
     id="layer3">
    <rect
       width="16"
       height="16"
       x="2.4755859e-006"
       y="-1.2988281e-006"
       id="rect3786"
       style="fill:#e0c870;fill-opacity:1;stroke:none" />
    <path
       d="M -5,8 A 7,7 0 1 1 -19,8 7,7 0 1 1 -5,8 z"
       transform="translate(20,0)"
       id="path3788"
       style="fill:url(#linearGradient3796);fill-opacity:1;stroke:none" />
    <path
       d="M -5,8 A 7,7 0 1 1 -19,8 7,7 0 1 1 -5,8 z"
       transform="matrix(0.92857144,0,0,0.92857143,19.642857,1.0714286)"
       id="path3788-4"
       style="fill:#80642a;fill-opacity:1;stroke:none;filter:url(#filter3826)" />
    <path
       d="M -5,8 A 7,7 0 1 1 -19,8 7,7 0 1 1 -5,8 z"
       transform="matrix(0.71428569,0,0,0.71428571,17.571428,3.2857143)"
       id="path3788-4-8"
       style="fill:#b38d60;fill-opacity:1;stroke:none;filter:url(#filter3794)" />
    <path
       d="m 7.5682108,12.873731 c 1.0288253,0.07626 5.2040162,0.734604 5.5580582,-4.926713 0,0 -3.5580582,4.926713 -5.5580582,4.926713 z"
       id="path3850"
       style="fill:#ffffff;fill-opacity:1;stroke:none;filter:url(#filter4088)" />
  </g>
</svg>
