{
    "asset" : {
        "generator" : "Khronos glTF Blender I/O v3.2.40",
        "version" : "2.0"
    },
    "scene" : 0,
    "scenes" : [
        {
            "name" : "Scene",
            "nodes" : [
                0
            ]
        }
    ],
    "nodes" : [
        {
            "mesh" : 0,
            "name" : "convert2",
            "translation" : [
                0,
                14,
                0
            ]
        }
    ],
    "materials" : [
        {
            "extras" : {
                "dirt" : 1
            },
            "name" : "Material 1 (lemt.png)",
            "pbrMetallicRoughness" : {
                "baseColorTexture" : {
                    "index" : 0
                },
                "metallicFactor" : 0
            }
        }
    ],
    "meshes" : [
        {
            "name" : "convert2",
            "primitives" : [
                {
                    "attributes" : {
                        "POSITION" : 0,
                        "NORMAL" : 1,
                        "TEXCOORD_0" : 2,
                        "TEXCOORD_1" : 3
                    },
                    "indices" : 4,
                    "material" : 0
                }
            ]
        }
    ],
    "textures" : [
        {
            "sampler" : 0,
            "source" : 0
        }
    ],
    "images" : [
        {
            "mimeType" : "image/png",
            "name" : "lemt",
            "uri" : "lemt.png"
        }
    ],
    "accessors" : [
        {
            "bufferView" : 0,
            "componentType" : 5126,
            "count" : 1206,
            "max" : [
                3.9999961853027344,
                1.1920928955078125e-06,
                3.9999990463256836
            ],
            "min" : [
                -4.000000953674316,
                -3,
                -3.999997138977051
            ],
            "type" : "VEC3"
        },
        {
            "bufferView" : 1,
            "componentType" : 5126,
            "count" : 1206,
            "type" : "VEC3"
        },
        {
            "bufferView" : 2,
            "componentType" : 5126,
            "count" : 1206,
            "type" : "VEC2"
        },
        {
            "bufferView" : 3,
            "componentType" : 5126,
            "count" : 1206,
            "type" : "VEC2"
        },
        {
            "bufferView" : 4,
            "componentType" : 5123,
            "count" : 3516,
            "type" : "SCALAR"
        }
    ],
    "bufferViews" : [
        {
            "buffer" : 0,
            "byteLength" : 14472,
            "byteOffset" : 0
        },
        {
            "buffer" : 0,
            "byteLength" : 14472,
            "byteOffset" : 14472
        },
        {
            "buffer" : 0,
            "byteLength" : 9648,
            "byteOffset" : 28944
        },
        {
            "buffer" : 0,
            "byteLength" : 9648,
            "byteOffset" : 38592
        },
        {
            "buffer" : 0,
            "byteLength" : 7032,
            "byteOffset" : 48240
        }
    ],
    "samplers" : [
        {
            "magFilter" : 9729,
            "minFilter" : 9987
        }
    ],
    "buffers" : [
        {
            "byteLength" : 55272,
            "uri" : "convert2.bin"
        }
    ]
}
