{
    "asset" : {
        "generator" : "Khronos glTF Blender I/O v3.2.40",
        "version" : "2.0"
    },
    "scene" : 0,
    "scenes" : [
        {
            "name" : "Scene",
            "nodes" : [
                0
            ]
        }
    ],
    "nodes" : [
        {
            "mesh" : 0,
            "name" : "convert1"
        }
    ],
    "materials" : [
        {
            "extras" : {
                "dirt" : 1
            },
            "name" : "Material 1 (convert.png)",
            "pbrMetallicRoughness" : {
                "baseColorTexture" : {
                    "index" : 0
                },
                "metallicFactor" : 0
            }
        },
        {
            "extras" : {
                "dirt" : 1
            },
            "name" : "Material 2 (lemt.png)",
            "pbrMetallicRoughness" : {
                "baseColorTexture" : {
                    "index" : 1
                },
                "metallicFactor" : 0
            }
        },
        {
            "extras" : {
                "dirt" : 1
            },
            "name" : "Material 3 (factory.png)",
            "pbrMetallicRoughness" : {
                "baseColorTexture" : {
                    "index" : 2
                },
                "metallicFactor" : 0
            }
        }
    ],
    "meshes" : [
        {
            "name" : "convert1",
            "primitives" : [
                {
                    "attributes" : {
                        "POSITION" : 0,
                        "NORMAL" : 1,
                        "TEXCOORD_0" : 2,
                        "TEXCOORD_1" : 3
                    },
                    "indices" : 4,
                    "material" : 0
                },
                {
                    "attributes" : {
                        "POSITION" : 5,
                        "NORMAL" : 6,
                        "TEXCOORD_0" : 7,
                        "TEXCOORD_1" : 8
                    },
                    "indices" : 9,
                    "material" : 1
                },
                {
                    "attributes" : {
                        "POSITION" : 10,
                        "NORMAL" : 11,
                        "TEXCOORD_0" : 12,
                        "TEXCOORD_1" : 13
                    },
                    "indices" : 14,
                    "material" : 2
                }
            ]
        }
    ],
    "textures" : [
        {
            "sampler" : 0,
            "source" : 0
        },
        {
            "sampler" : 0,
            "source" : 1
        },
        {
            "sampler" : 0,
            "source" : 2
        }
    ],
    "images" : [
        {
            "mimeType" : "image/png",
            "name" : "convert",
            "uri" : "convert.png"
        },
        {
            "mimeType" : "image/png",
            "name" : "lemt",
            "uri" : "lemt.png"
        },
        {
            "mimeType" : "image/png",
            "name" : "factory",
            "uri" : "factory.png"
        }
    ],
    "accessors" : [
        {
            "bufferView" : 0,
            "componentType" : 5126,
            "count" : 3250,
            "max" : [
                7.389369964599609,
                14.744583129882812,
                8.09999942779541
            ],
            "min" : [
                -14.100000381469727,
                -1.0000004768371582,
                -8.100000381469727
            ],
            "type" : "VEC3"
        },
        {
            "bufferView" : 1,
            "componentType" : 5126,
            "count" : 3250,
            "type" : "VEC3"
        },
        {
            "bufferView" : 2,
            "componentType" : 5126,
            "count" : 3250,
            "type" : "VEC2"
        },
        {
            "bufferView" : 3,
            "componentType" : 5126,
            "count" : 3250,
            "type" : "VEC2"
        },
        {
            "bufferView" : 4,
            "componentType" : 5123,
            "count" : 8520,
            "type" : "SCALAR"
        },
        {
            "bufferView" : 5,
            "componentType" : 5126,
            "count" : 28,
            "max" : [
                1.9597500562667847,
                16,
                8
            ],
            "min" : [
                -14.000001907348633,
                5.999999523162842,
                -8
            ],
            "type" : "VEC3"
        },
        {
            "bufferView" : 6,
            "componentType" : 5126,
            "count" : 28,
            "type" : "VEC3"
        },
        {
            "bufferView" : 7,
            "componentType" : 5126,
            "count" : 28,
            "type" : "VEC2"
        },
        {
            "bufferView" : 8,
            "componentType" : 5126,
            "count" : 28,
            "type" : "VEC2"
        },
        {
            "bufferView" : 9,
            "componentType" : 5123,
            "count" : 42,
            "type" : "SCALAR"
        },
        {
            "bufferView" : 10,
            "componentType" : 5126,
            "count" : 32,
            "max" : [
                9.237130165100098,
                1,
                9.248419761657715
            ],
            "min" : [
                -9.240460395812988,
                -1,
                -9.229169845581055
            ],
            "type" : "VEC3"
        },
        {
            "bufferView" : 11,
            "componentType" : 5126,
            "count" : 32,
            "type" : "VEC3"
        },
        {
            "bufferView" : 12,
            "componentType" : 5126,
            "count" : 32,
            "type" : "VEC2"
        },
        {
            "bufferView" : 13,
            "componentType" : 5126,
            "count" : 32,
            "type" : "VEC2"
        },
        {
            "bufferView" : 14,
            "componentType" : 5123,
            "count" : 48,
            "type" : "SCALAR"
        }
    ],
    "bufferViews" : [
        {
            "buffer" : 0,
            "byteLength" : 39000,
            "byteOffset" : 0
        },
        {
            "buffer" : 0,
            "byteLength" : 39000,
            "byteOffset" : 39000
        },
        {
            "buffer" : 0,
            "byteLength" : 26000,
            "byteOffset" : 78000
        },
        {
            "buffer" : 0,
            "byteLength" : 26000,
            "byteOffset" : 104000
        },
        {
            "buffer" : 0,
            "byteLength" : 17040,
            "byteOffset" : 130000
        },
        {
            "buffer" : 0,
            "byteLength" : 336,
            "byteOffset" : 147040
        },
        {
            "buffer" : 0,
            "byteLength" : 336,
            "byteOffset" : 147376
        },
        {
            "buffer" : 0,
            "byteLength" : 224,
            "byteOffset" : 147712
        },
        {
            "buffer" : 0,
            "byteLength" : 224,
            "byteOffset" : 147936
        },
        {
            "buffer" : 0,
            "byteLength" : 84,
            "byteOffset" : 148160
        },
        {
            "buffer" : 0,
            "byteLength" : 384,
            "byteOffset" : 148244
        },
        {
            "buffer" : 0,
            "byteLength" : 384,
            "byteOffset" : 148628
        },
        {
            "buffer" : 0,
            "byteLength" : 256,
            "byteOffset" : 149012
        },
        {
            "buffer" : 0,
            "byteLength" : 256,
            "byteOffset" : 149268
        },
        {
            "buffer" : 0,
            "byteLength" : 96,
            "byteOffset" : 149524
        }
    ],
    "samplers" : [
        {
            "magFilter" : 9729,
            "minFilter" : 9987
        }
    ],
    "buffers" : [
        {
            "byteLength" : 149620,
            "uri" : "convert1.bin"
        }
    ]
}
