{
    "asset" : {
        "generator" : "Khronos glTF Blender I/O v3.2.40",
        "version" : "2.0"
    },
    "scene" : 0,
    "scenes" : [
        {
            "name" : "Scene",
            "nodes" : [
                0
            ]
        }
    ],
    "nodes" : [
        {
            "mesh" : 0,
            "name" : "derrick1"
        }
    ],
    "materials" : [
        {
            "extras" : {
                "dirt" : 1
            },
            "name" : "Material 1 (derrick.png)",
            "pbrMetallicRoughness" : {
                "baseColorTexture" : {
                    "index" : 0
                },
                "metallicFactor" : 0
            }
        },
        {
            "extras" : {
                "dirt" : 1
            },
            "name" : "Material 2 (lemt.png)",
            "pbrMetallicRoughness" : {
                "baseColorTexture" : {
                    "index" : 1
                },
                "metallicFactor" : 0
            }
        }
    ],
    "meshes" : [
        {
            "name" : "derrick1",
            "primitives" : [
                {
                    "attributes" : {
                        "POSITION" : 0,
                        "NORMAL" : 1,
                        "TEXCOORD_0" : 2,
                        "TEXCOORD_1" : 3
                    },
                    "indices" : 4,
                    "material" : 0
                },
                {
                    "attributes" : {
                        "POSITION" : 5,
                        "NORMAL" : 6,
                        "TEXCOORD_0" : 7,
                        "TEXCOORD_1" : 8
                    },
                    "indices" : 9,
                    "material" : 1
                }
            ]
        }
    ],
    "textures" : [
        {
            "sampler" : 0,
            "source" : 0
        },
        {
            "sampler" : 0,
            "source" : 1
        }
    ],
    "images" : [
        {
            "mimeType" : "image/png",
            "name" : "derrick",
            "uri" : "derrick.png"
        },
        {
            "mimeType" : "image/png",
            "name" : "lemt",
            "uri" : "lemt.png"
        }
    ],
    "accessors" : [
        {
            "bufferView" : 0,
            "componentType" : 5126,
            "count" : 2606,
            "max" : [
                9.028260231018066,
                24.851299285888672,
                5.0229172706604
            ],
            "min" : [
                -5.047936916351318,
                -0.7242079973220825,
                -5.0229172706604
            ],
            "type" : "VEC3"
        },
        {
            "bufferView" : 1,
            "componentType" : 5126,
            "count" : 2606,
            "type" : "VEC3"
        },
        {
            "bufferView" : 2,
            "componentType" : 5126,
            "count" : 2606,
            "type" : "VEC2"
        },
        {
            "bufferView" : 3,
            "componentType" : 5126,
            "count" : 2606,
            "type" : "VEC2"
        },
        {
            "bufferView" : 4,
            "componentType" : 5123,
            "count" : 5157,
            "type" : "SCALAR"
        },
        {
            "bufferView" : 5,
            "componentType" : 5126,
            "count" : 371,
            "max" : [
                8.778260231018066,
                24.851299285888672,
                4.9019598960876465
            ],
            "min" : [
                -4.926980972290039,
                3.3796699047088623,
                -4.9019598960876465
            ],
            "type" : "VEC3"
        },
        {
            "bufferView" : 6,
            "componentType" : 5126,
            "count" : 371,
            "type" : "VEC3"
        },
        {
            "bufferView" : 7,
            "componentType" : 5126,
            "count" : 371,
            "type" : "VEC2"
        },
        {
            "bufferView" : 8,
            "componentType" : 5126,
            "count" : 371,
            "type" : "VEC2"
        },
        {
            "bufferView" : 9,
            "componentType" : 5123,
            "count" : 888,
            "type" : "SCALAR"
        }
    ],
    "bufferViews" : [
        {
            "buffer" : 0,
            "byteLength" : 31272,
            "byteOffset" : 0
        },
        {
            "buffer" : 0,
            "byteLength" : 31272,
            "byteOffset" : 31272
        },
        {
            "buffer" : 0,
            "byteLength" : 20848,
            "byteOffset" : 62544
        },
        {
            "buffer" : 0,
            "byteLength" : 20848,
            "byteOffset" : 83392
        },
        {
            "buffer" : 0,
            "byteLength" : 10314,
            "byteOffset" : 104240
        },
        {
            "buffer" : 0,
            "byteLength" : 4452,
            "byteOffset" : 114556
        },
        {
            "buffer" : 0,
            "byteLength" : 4452,
            "byteOffset" : 119008
        },
        {
            "buffer" : 0,
            "byteLength" : 2968,
            "byteOffset" : 123460
        },
        {
            "buffer" : 0,
            "byteLength" : 2968,
            "byteOffset" : 126428
        },
        {
            "buffer" : 0,
            "byteLength" : 1776,
            "byteOffset" : 129396
        }
    ],
    "samplers" : [
        {
            "magFilter" : 9729,
            "minFilter" : 9987
        }
    ],
    "buffers" : [
        {
            "byteLength" : 131172,
            "uri" : "derrick1.bin"
        }
    ]
}
