{
    "asset" : {
        "generator" : "Khronos glTF Blender I/O v3.2.40",
        "version" : "2.0"
    },
    "scene" : 0,
    "scenes" : [
        {
            "name" : "Scene",
            "nodes" : [
                0
            ]
        }
    ],
    "nodes" : [
        {
            "mesh" : 0,
            "name" : "destroy2"
        }
    ],
    "materials" : [
        {
            "extras" : {
                "dirt" : 1
            },
            "name" : "Material 1 (derrick.png)",
            "pbrMetallicRoughness" : {
                "baseColorTexture" : {
                    "index" : 0
                },
                "metallicFactor" : 0
            }
        },
        {
            "extras" : {
                "dirt" : 1
            },
            "name" : "Material 2 (lemt.png).001",
            "pbrMetallicRoughness" : {
                "baseColorTexture" : {
                    "index" : 1
                },
                "metallicFactor" : 0
            }
        }
    ],
    "meshes" : [
        {
            "name" : "destroy2",
            "primitives" : [
                {
                    "attributes" : {
                        "POSITION" : 0,
                        "NORMAL" : 1,
                        "TEXCOORD_0" : 2,
                        "TEXCOORD_1" : 3
                    },
                    "indices" : 4,
                    "material" : 0
                },
                {
                    "attributes" : {
                        "POSITION" : 5,
                        "NORMAL" : 6,
                        "TEXCOORD_0" : 7,
                        "TEXCOORD_1" : 8
                    },
                    "indices" : 9,
                    "material" : 1
                }
            ]
        }
    ],
    "textures" : [
        {
            "sampler" : 0,
            "source" : 0
        },
        {
            "sampler" : 0,
            "source" : 1
        }
    ],
    "images" : [
        {
            "mimeType" : "image/png",
            "name" : "derrick",
            "uri" : "derrick.png"
        },
        {
            "mimeType" : "image/png",
            "name" : "lemt",
            "uri" : "lemt.png"
        }
    ],
    "accessors" : [
        {
            "bufferView" : 0,
            "componentType" : 5126,
            "count" : 6408,
            "max" : [
                2,
                42,
                2.000000476837158
            ],
            "min" : [
                -1.9999988079071045,
                16.5,
                -1.9999996423721313
            ],
            "type" : "VEC3"
        },
        {
            "bufferView" : 1,
            "componentType" : 5126,
            "count" : 6408,
            "type" : "VEC3"
        },
        {
            "bufferView" : 2,
            "componentType" : 5126,
            "count" : 6408,
            "type" : "VEC2"
        },
        {
            "bufferView" : 3,
            "componentType" : 5126,
            "count" : 6408,
            "type" : "VEC2"
        },
        {
            "bufferView" : 4,
            "componentType" : 5123,
            "count" : 17088,
            "type" : "SCALAR"
        },
        {
            "bufferView" : 5,
            "componentType" : 5126,
            "count" : 380,
            "max" : [
                6.032522201538086,
                42,
                5.999476432800293
            ],
            "min" : [
                -6.032520294189453,
                11,
                -5.999475479125977
            ],
            "type" : "VEC3"
        },
        {
            "bufferView" : 6,
            "componentType" : 5126,
            "count" : 380,
            "type" : "VEC3"
        },
        {
            "bufferView" : 7,
            "componentType" : 5126,
            "count" : 380,
            "type" : "VEC2"
        },
        {
            "bufferView" : 8,
            "componentType" : 5126,
            "count" : 380,
            "type" : "VEC2"
        },
        {
            "bufferView" : 9,
            "componentType" : 5123,
            "count" : 1626,
            "type" : "SCALAR"
        }
    ],
    "bufferViews" : [
        {
            "buffer" : 0,
            "byteLength" : 76896,
            "byteOffset" : 0
        },
        {
            "buffer" : 0,
            "byteLength" : 76896,
            "byteOffset" : 76896
        },
        {
            "buffer" : 0,
            "byteLength" : 51264,
            "byteOffset" : 153792
        },
        {
            "buffer" : 0,
            "byteLength" : 51264,
            "byteOffset" : 205056
        },
        {
            "buffer" : 0,
            "byteLength" : 34176,
            "byteOffset" : 256320
        },
        {
            "buffer" : 0,
            "byteLength" : 4560,
            "byteOffset" : 290496
        },
        {
            "buffer" : 0,
            "byteLength" : 4560,
            "byteOffset" : 295056
        },
        {
            "buffer" : 0,
            "byteLength" : 3040,
            "byteOffset" : 299616
        },
        {
            "buffer" : 0,
            "byteLength" : 3040,
            "byteOffset" : 302656
        },
        {
            "buffer" : 0,
            "byteLength" : 3252,
            "byteOffset" : 305696
        }
    ],
    "samplers" : [
        {
            "magFilter" : 9729,
            "minFilter" : 9987
        }
    ],
    "buffers" : [
        {
            "byteLength" : 308948,
            "uri" : "destroy2.bin"
        }
    ]
}
