{
    "asset" : {
        "generator" : "Khronos glTF Blender I/O v3.2.40",
        "version" : "2.0"
    },
    "scene" : 0,
    "scenes" : [
        {
            "name" : "Scene",
            "nodes" : [
                0
            ]
        }
    ],
    "nodes" : [
        {
            "mesh" : 0,
            "name" : "destroy1"
        }
    ],
    "materials" : [
        {
            "extras" : {
                "dirt" : 1
            },
            "name" : "Material 1 (factory.png)",
            "pbrMetallicRoughness" : {
                "baseColorTexture" : {
                    "index" : 0
                },
                "metallicFactor" : 0
            }
        },
        {
            "extras" : {
                "dirt" : 1
            },
            "name" : "Material 2 (lemt.png)",
            "pbrMetallicRoughness" : {
                "baseColorTexture" : {
                    "index" : 1
                },
                "metallicFactor" : 0
            }
        },
        {
            "extras" : {
                "dirt" : 1
            },
            "name" : "Material 1 (convert.png)",
            "pbrMetallicRoughness" : {
                "baseColorTexture" : {
                    "index" : 2
                },
                "metallicFactor" : 0
            }
        }
    ],
    "meshes" : [
        {
            "name" : "destroy1",
            "primitives" : [
                {
                    "attributes" : {
                        "POSITION" : 0,
                        "NORMAL" : 1,
                        "TEXCOORD_0" : 2,
                        "TEXCOORD_1" : 3
                    },
                    "indices" : 4,
                    "material" : 0
                },
                {
                    "attributes" : {
                        "POSITION" : 5,
                        "NORMAL" : 6,
                        "TEXCOORD_0" : 7,
                        "TEXCOORD_1" : 8
                    },
                    "indices" : 9,
                    "material" : 1
                },
                {
                    "attributes" : {
                        "POSITION" : 10,
                        "NORMAL" : 11,
                        "TEXCOORD_0" : 12,
                        "TEXCOORD_1" : 13
                    },
                    "indices" : 14,
                    "material" : 2
                }
            ]
        }
    ],
    "textures" : [
        {
            "sampler" : 0,
            "source" : 0
        },
        {
            "sampler" : 0,
            "source" : 1
        },
        {
            "sampler" : 0,
            "source" : 2
        }
    ],
    "images" : [
        {
            "mimeType" : "image/png",
            "name" : "factory",
            "uri" : "factory.png"
        },
        {
            "mimeType" : "image/png",
            "name" : "lemt",
            "uri" : "lemt.png"
        },
        {
            "mimeType" : "image/png",
            "name" : "convert",
            "uri" : "convert.png"
        }
    ],
    "accessors" : [
        {
            "bufferView" : 0,
            "componentType" : 5126,
            "count" : 1273,
            "max" : [
                9.237130165100098,
                21,
                17.25
            ],
            "min" : [
                -9.240461349487305,
                -1.0000001192092896,
                -17.25
            ],
            "type" : "VEC3"
        },
        {
            "bufferView" : 1,
            "componentType" : 5126,
            "count" : 1273,
            "type" : "VEC3"
        },
        {
            "bufferView" : 2,
            "componentType" : 5126,
            "count" : 1273,
            "type" : "VEC2"
        },
        {
            "bufferView" : 3,
            "componentType" : 5126,
            "count" : 1273,
            "type" : "VEC2"
        },
        {
            "bufferView" : 4,
            "componentType" : 5123,
            "count" : 2388,
            "type" : "SCALAR"
        },
        {
            "bufferView" : 5,
            "componentType" : 5126,
            "count" : 1092,
            "max" : [
                6,
                31.108243942260742,
                10
            ],
            "min" : [
                -6,
                19,
                -10
            ],
            "type" : "VEC3"
        },
        {
            "bufferView" : 6,
            "componentType" : 5126,
            "count" : 1092,
            "type" : "VEC3"
        },
        {
            "bufferView" : 7,
            "componentType" : 5126,
            "count" : 1092,
            "type" : "VEC2"
        },
        {
            "bufferView" : 8,
            "componentType" : 5126,
            "count" : 1092,
            "type" : "VEC2"
        },
        {
            "bufferView" : 9,
            "componentType" : 5123,
            "count" : 3528,
            "type" : "SCALAR"
        },
        {
            "bufferView" : 10,
            "componentType" : 5126,
            "count" : 792,
            "max" : [
                6.486601829528809,
                1.0675452947616577,
                6.4024128913879395
            ],
            "min" : [
                -6.489933967590332,
                1.0057992935180664,
                -6.379764556884766
            ],
            "type" : "VEC3"
        },
        {
            "bufferView" : 11,
            "componentType" : 5126,
            "count" : 792,
            "type" : "VEC3"
        },
        {
            "bufferView" : 12,
            "componentType" : 5126,
            "count" : 792,
            "type" : "VEC2"
        },
        {
            "bufferView" : 13,
            "componentType" : 5126,
            "count" : 792,
            "type" : "VEC2"
        },
        {
            "bufferView" : 14,
            "componentType" : 5123,
            "count" : 3456,
            "type" : "SCALAR"
        }
    ],
    "bufferViews" : [
        {
            "buffer" : 0,
            "byteLength" : 15276,
            "byteOffset" : 0
        },
        {
            "buffer" : 0,
            "byteLength" : 15276,
            "byteOffset" : 15276
        },
        {
            "buffer" : 0,
            "byteLength" : 10184,
            "byteOffset" : 30552
        },
        {
            "buffer" : 0,
            "byteLength" : 10184,
            "byteOffset" : 40736
        },
        {
            "buffer" : 0,
            "byteLength" : 4776,
            "byteOffset" : 50920
        },
        {
            "buffer" : 0,
            "byteLength" : 13104,
            "byteOffset" : 55696
        },
        {
            "buffer" : 0,
            "byteLength" : 13104,
            "byteOffset" : 68800
        },
        {
            "buffer" : 0,
            "byteLength" : 8736,
            "byteOffset" : 81904
        },
        {
            "buffer" : 0,
            "byteLength" : 8736,
            "byteOffset" : 90640
        },
        {
            "buffer" : 0,
            "byteLength" : 7056,
            "byteOffset" : 99376
        },
        {
            "buffer" : 0,
            "byteLength" : 9504,
            "byteOffset" : 106432
        },
        {
            "buffer" : 0,
            "byteLength" : 9504,
            "byteOffset" : 115936
        },
        {
            "buffer" : 0,
            "byteLength" : 6336,
            "byteOffset" : 125440
        },
        {
            "buffer" : 0,
            "byteLength" : 6336,
            "byteOffset" : 131776
        },
        {
            "buffer" : 0,
            "byteLength" : 6912,
            "byteOffset" : 138112
        }
    ],
    "samplers" : [
        {
            "magFilter" : 9729,
            "minFilter" : 9987
        }
    ],
    "buffers" : [
        {
            "byteLength" : 145024,
            "uri" : "destroy1.bin"
        }
    ]
}
