{
	"asset":{
		"generator":"Khronos glTF Blender I/O v3.6.28",
		"version":"2.0"
	},
	"scene":0,
	"scenes":[
		{
			"name":"Scene",
			"nodes":[
				0
			]
		}
	],
	"nodes":[
		{
			"mesh":0,
			"name":"factory1"
		}
	],
	"materials":[
		{
			"extras":{
				"dirt":1,
				"recolor":"team",
				"recolor_ref":[
					0.039000000804662704,
					0.6510000228881836,
					0.9959999918937683
				]
			},
			"name":"Material 1 (derrick.png)",
			"pbrMetallicRoughness":{
				"baseColorTexture":{
					"index":0
				},
				"metallicFactor":0
			}
		},
		{
			"extras":{
				"dirt":1,
				"recolor":"team",
				"recolor_ref":[
					0.039000000804662704,
					0.6510000228881836,
					0.9959999918937683
				]
			},
			"name":"Material 2 (factory.png)",
			"pbrMetallicRoughness":{
				"baseColorTexture":{
					"index":1
				},
				"metallicFactor":0
			}
		},
		{
			"extras":{
				"dirt":1,
				"recolor":"team",
				"recolor_ref":[
					0.039000000804662704,
					0.6510000228881836,
					0.9959999918937683
				]
			},
			"name":"Material 3 (lemt.png)",
			"pbrMetallicRoughness":{
				"baseColorTexture":{
					"index":2
				},
				"metallicFactor":0
			}
		},
		{
			"extras":{
				"dirt":1
			},
			"name":"Material 4 (lemt.png)",
			"pbrMetallicRoughness":{
				"baseColorFactor":[
					0.30000001192092896,
					0.30000001192092896,
					0.30000001192092896,
					1
				],
				"baseColorTexture":{
					"index":3
				},
				"metallicFactor":0
			}
		},
		{
			"extras":{
				"dirt":1
			},
			"name":"Material 5 (lemt.png)",
			"pbrMetallicRoughness":{
				"baseColorFactor":[
					0,
					0,
					0,
					1
				],
				"baseColorTexture":{
					"index":4
				},
				"metallicFactor":0
			}
		}
	],
	"meshes":[
		{
			"name":"factory1",
			"primitives":[
				{
					"attributes":{
						"POSITION":0,
						"NORMAL":1,
						"TEXCOORD_0":2,
						"TEXCOORD_1":3
					},
					"indices":4,
					"material":0
				},
				{
					"attributes":{
						"POSITION":5,
						"NORMAL":6,
						"TEXCOORD_0":7,
						"TEXCOORD_1":8
					},
					"indices":9,
					"material":1
				},
				{
					"attributes":{
						"POSITION":10,
						"NORMAL":11,
						"TEXCOORD_0":12,
						"TEXCOORD_1":13
					},
					"indices":14,
					"material":2
				},
				{
					"attributes":{
						"POSITION":15,
						"NORMAL":16,
						"TEXCOORD_0":17,
						"TEXCOORD_1":18
					},
					"indices":19,
					"material":3
				},
				{
					"attributes":{
						"POSITION":20,
						"NORMAL":21,
						"TEXCOORD_0":22,
						"TEXCOORD_1":23
					},
					"indices":24,
					"material":4
				}
			]
		}
	],
	"textures":[
		{
			"sampler":0,
			"source":0
		},
		{
			"sampler":0,
			"source":1
		},
		{
			"sampler":0,
			"source":2
		},
		{
			"sampler":0,
			"source":2
		},
		{
			"sampler":0,
			"source":2
		}
	],
	"images":[
		{
			"mimeType":"image/png",
			"name":"derrick",
			"uri":"derrick.png"
		},
		{
			"mimeType":"image/png",
			"name":"factory",
			"uri":"factory.png"
		},
		{
			"mimeType":"image/png",
			"name":"lemt",
			"uri":"lemt.png"
		}
	],
	"accessors":[
		{
			"bufferView":0,
			"componentType":5126,
			"count":1481,
			"max":[
				11,
				24,
				10.000000953674316
			],
			"min":[
				-14.218000411987305,
				-1,
				-10
			],
			"type":"VEC3"
		},
		{
			"bufferView":1,
			"componentType":5126,
			"count":1481,
			"type":"VEC3"
		},
		{
			"bufferView":2,
			"componentType":5126,
			"count":1481,
			"type":"VEC2"
		},
		{
			"bufferView":3,
			"componentType":5126,
			"count":1481,
			"type":"VEC2"
		},
		{
			"bufferView":4,
			"componentType":5123,
			"count":2736,
			"type":"SCALAR"
		},
		{
			"bufferView":5,
			"componentType":5126,
			"count":947,
			"max":[
				13,
				19,
				12.23096752166748
			],
			"min":[
				-13.201709747314453,
				-1.000001072883606,
				-12.23096752166748
			],
			"type":"VEC3"
		},
		{
			"bufferView":6,
			"componentType":5126,
			"count":947,
			"type":"VEC3"
		},
		{
			"bufferView":7,
			"componentType":5126,
			"count":947,
			"type":"VEC2"
		},
		{
			"bufferView":8,
			"componentType":5126,
			"count":947,
			"type":"VEC2"
		},
		{
			"bufferView":9,
			"componentType":5123,
			"count":1446,
			"type":"SCALAR"
		},
		{
			"bufferView":10,
			"componentType":5126,
			"count":68,
			"max":[
				11.200499534606934,
				19,
				15
			],
			"min":[
				-9,
				-1,
				-15
			],
			"type":"VEC3"
		},
		{
			"bufferView":11,
			"componentType":5126,
			"count":68,
			"type":"VEC3"
		},
		{
			"bufferView":12,
			"componentType":5126,
			"count":68,
			"type":"VEC2"
		},
		{
			"bufferView":13,
			"componentType":5126,
			"count":68,
			"type":"VEC2"
		},
		{
			"bufferView":14,
			"componentType":5123,
			"count":102,
			"type":"SCALAR"
		},
		{
			"bufferView":15,
			"componentType":5126,
			"count":22,
			"max":[
				13,
				18,
				9
			],
			"min":[
				8,
				-1,
				-9
			],
			"type":"VEC3"
		},
		{
			"bufferView":16,
			"componentType":5126,
			"count":22,
			"type":"VEC3"
		},
		{
			"bufferView":17,
			"componentType":5126,
			"count":22,
			"type":"VEC2"
		},
		{
			"bufferView":18,
			"componentType":5126,
			"count":22,
			"type":"VEC2"
		},
		{
			"bufferView":19,
			"componentType":5123,
			"count":36,
			"type":"SCALAR"
		},
		{
			"bufferView":20,
			"componentType":5126,
			"count":4,
			"max":[
				8,
				18,
				9
			],
			"min":[
				-10,
				18,
				-9
			],
			"type":"VEC3"
		},
		{
			"bufferView":21,
			"componentType":5126,
			"count":4,
			"type":"VEC3"
		},
		{
			"bufferView":22,
			"componentType":5126,
			"count":4,
			"type":"VEC2"
		},
		{
			"bufferView":23,
			"componentType":5126,
			"count":4,
			"type":"VEC2"
		},
		{
			"bufferView":24,
			"componentType":5123,
			"count":6,
			"type":"SCALAR"
		}
	],
	"bufferViews":[
		{
			"buffer":0,
			"byteLength":17772,
			"byteOffset":0,
			"target":34962
		},
		{
			"buffer":0,
			"byteLength":17772,
			"byteOffset":17772,
			"target":34962
		},
		{
			"buffer":0,
			"byteLength":11848,
			"byteOffset":35544,
			"target":34962
		},
		{
			"buffer":0,
			"byteLength":11848,
			"byteOffset":47392,
			"target":34962
		},
		{
			"buffer":0,
			"byteLength":5472,
			"byteOffset":59240,
			"target":34963
		},
		{
			"buffer":0,
			"byteLength":11364,
			"byteOffset":64712,
			"target":34962
		},
		{
			"buffer":0,
			"byteLength":11364,
			"byteOffset":76076,
			"target":34962
		},
		{
			"buffer":0,
			"byteLength":7576,
			"byteOffset":87440,
			"target":34962
		},
		{
			"buffer":0,
			"byteLength":7576,
			"byteOffset":95016,
			"target":34962
		},
		{
			"buffer":0,
			"byteLength":2892,
			"byteOffset":102592,
			"target":34963
		},
		{
			"buffer":0,
			"byteLength":816,
			"byteOffset":105484,
			"target":34962
		},
		{
			"buffer":0,
			"byteLength":816,
			"byteOffset":106300,
			"target":34962
		},
		{
			"buffer":0,
			"byteLength":544,
			"byteOffset":107116,
			"target":34962
		},
		{
			"buffer":0,
			"byteLength":544,
			"byteOffset":107660,
			"target":34962
		},
		{
			"buffer":0,
			"byteLength":204,
			"byteOffset":108204,
			"target":34963
		},
		{
			"buffer":0,
			"byteLength":264,
			"byteOffset":108408,
			"target":34962
		},
		{
			"buffer":0,
			"byteLength":264,
			"byteOffset":108672,
			"target":34962
		},
		{
			"buffer":0,
			"byteLength":176,
			"byteOffset":108936,
			"target":34962
		},
		{
			"buffer":0,
			"byteLength":176,
			"byteOffset":109112,
			"target":34962
		},
		{
			"buffer":0,
			"byteLength":72,
			"byteOffset":109288,
			"target":34963
		},
		{
			"buffer":0,
			"byteLength":48,
			"byteOffset":109360,
			"target":34962
		},
		{
			"buffer":0,
			"byteLength":48,
			"byteOffset":109408,
			"target":34962
		},
		{
			"buffer":0,
			"byteLength":32,
			"byteOffset":109456,
			"target":34962
		},
		{
			"buffer":0,
			"byteLength":32,
			"byteOffset":109488,
			"target":34962
		},
		{
			"buffer":0,
			"byteLength":12,
			"byteOffset":109520,
			"target":34963
		}
	],
	"samplers":[
		{
			"magFilter":9729,
			"minFilter":9987
		}
	],
	"buffers":[
		{
			"byteLength":109532,
			"uri":"factory1.bin"
		}
	]
}
