{
    "asset" : {
        "generator" : "Khronos glTF Blender I/O v3.2.40",
        "version" : "2.0"
    },
    "scene" : 0,
    "scenes" : [
        {
            "name" : "Scene",
            "nodes" : [
                0
            ]
        }
    ],
    "nodes" : [
        {
            "mesh" : 0,
            "name" : "factory1"
        }
    ],
    "materials" : [
        {
            "name" : "Material 1 (derrick.png)",
            "pbrMetallicRoughness" : {
                "baseColorTexture" : {
                    "index" : 0
                },
                "metallicFactor" : 0
            }
        },
        {
            "name" : "Material 2 (factory.png)",
            "pbrMetallicRoughness" : {
                "baseColorTexture" : {
                    "index" : 1
                },
                "metallicFactor" : 0
            }
        },
        {
            "name" : "Material 3 (lemt.png)",
            "pbrMetallicRoughness" : {
                "baseColorTexture" : {
                    "index" : 2
                },
                "metallicFactor" : 0
            }
        },
        {
            "name" : "Material 4 (lemt.png)",
            "pbrMetallicRoughness" : {
                "baseColorFactor" : [
                    0.30000001192092896,
                    0.30000001192092896,
                    0.30000001192092896,
                    1
                ],
                "baseColorTexture" : {
                    "index" : 3
                },
                "metallicFactor" : 0
            }
        },
        {
            "name" : "Material 5 (lemt.png)",
            "pbrMetallicRoughness" : {
                "baseColorFactor" : [
                    0,
                    0,
                    0,
                    1
                ],
                "baseColorTexture" : {
                    "index" : 4
                },
                "metallicFactor" : 0
            }
        }
    ],
    "meshes" : [
        {
            "name" : "factory1",
            "primitives" : [
                {
                    "attributes" : {
                        "POSITION" : 0,
                        "NORMAL" : 1,
                        "TEXCOORD_0" : 2,
                        "TEXCOORD_1" : 3
                    },
                    "indices" : 4,
                    "material" : 0
                },
                {
                    "attributes" : {
                        "POSITION" : 5,
                        "NORMAL" : 6,
                        "TEXCOORD_0" : 7,
                        "TEXCOORD_1" : 8
                    },
                    "indices" : 9,
                    "material" : 1
                },
                {
                    "attributes" : {
                        "POSITION" : 10,
                        "NORMAL" : 11,
                        "TEXCOORD_0" : 12,
                        "TEXCOORD_1" : 13
                    },
                    "indices" : 14,
                    "material" : 2
                },
                {
                    "attributes" : {
                        "POSITION" : 15,
                        "NORMAL" : 16,
                        "TEXCOORD_0" : 17,
                        "TEXCOORD_1" : 18
                    },
                    "indices" : 19,
                    "material" : 3
                },
                {
                    "attributes" : {
                        "POSITION" : 20,
                        "NORMAL" : 21,
                        "TEXCOORD_0" : 22,
                        "TEXCOORD_1" : 23
                    },
                    "indices" : 24,
                    "material" : 4
                }
            ]
        }
    ],
    "textures" : [
        {
            "sampler" : 0,
            "source" : 0
        },
        {
            "sampler" : 0,
            "source" : 1
        },
        {
            "sampler" : 0,
            "source" : 2
        },
        {
            "sampler" : 0,
            "source" : 2
        },
        {
            "sampler" : 0,
            "source" : 2
        }
    ],
    "images" : [
        {
            "mimeType" : "image/png",
            "name" : "derrick",
            "uri" : "derrick.png"
        },
        {
            "mimeType" : "image/png",
            "name" : "factory",
            "uri" : "factory.png"
        },
        {
            "mimeType" : "image/png",
            "name" : "lemt",
            "uri" : "lemt.png"
        }
    ],
    "accessors" : [
        {
            "bufferView" : 0,
            "componentType" : 5126,
            "count" : 1931,
            "max" : [
                11,
                24,
                10
            ],
            "min" : [
                -14.218000411987305,
                -1,
                -10
            ],
            "type" : "VEC3"
        },
        {
            "bufferView" : 1,
            "componentType" : 5126,
            "count" : 1931,
            "type" : "VEC3"
        },
        {
            "bufferView" : 2,
            "componentType" : 5126,
            "count" : 1931,
            "type" : "VEC2"
        },
        {
            "bufferView" : 3,
            "componentType" : 5126,
            "count" : 1931,
            "type" : "VEC2"
        },
        {
            "bufferView" : 4,
            "componentType" : 5123,
            "count" : 2736,
            "type" : "SCALAR"
        },
        {
            "bufferView" : 5,
            "componentType" : 5126,
            "count" : 1236,
            "max" : [
                13,
                19,
                12.23096752166748
            ],
            "min" : [
                -13.201709747314453,
                -1.000001072883606,
                -12.23096752166748
            ],
            "type" : "VEC3"
        },
        {
            "bufferView" : 6,
            "componentType" : 5126,
            "count" : 1236,
            "type" : "VEC3"
        },
        {
            "bufferView" : 7,
            "componentType" : 5126,
            "count" : 1236,
            "type" : "VEC2"
        },
        {
            "bufferView" : 8,
            "componentType" : 5126,
            "count" : 1236,
            "type" : "VEC2"
        },
        {
            "bufferView" : 9,
            "componentType" : 5123,
            "count" : 1446,
            "type" : "SCALAR"
        },
        {
            "bufferView" : 10,
            "componentType" : 5126,
            "count" : 70,
            "max" : [
                11.200499534606934,
                19,
                15
            ],
            "min" : [
                -9,
                -1,
                -15
            ],
            "type" : "VEC3"
        },
        {
            "bufferView" : 11,
            "componentType" : 5126,
            "count" : 70,
            "type" : "VEC3"
        },
        {
            "bufferView" : 12,
            "componentType" : 5126,
            "count" : 70,
            "type" : "VEC2"
        },
        {
            "bufferView" : 13,
            "componentType" : 5126,
            "count" : 70,
            "type" : "VEC2"
        },
        {
            "bufferView" : 14,
            "componentType" : 5123,
            "count" : 102,
            "type" : "SCALAR"
        },
        {
            "bufferView" : 15,
            "componentType" : 5126,
            "count" : 22,
            "max" : [
                13,
                18,
                9
            ],
            "min" : [
                8,
                -1,
                -9
            ],
            "type" : "VEC3"
        },
        {
            "bufferView" : 16,
            "componentType" : 5126,
            "count" : 22,
            "type" : "VEC3"
        },
        {
            "bufferView" : 17,
            "componentType" : 5126,
            "count" : 22,
            "type" : "VEC2"
        },
        {
            "bufferView" : 18,
            "componentType" : 5126,
            "count" : 22,
            "type" : "VEC2"
        },
        {
            "bufferView" : 19,
            "componentType" : 5123,
            "count" : 36,
            "type" : "SCALAR"
        },
        {
            "bufferView" : 20,
            "componentType" : 5126,
            "count" : 4,
            "max" : [
                8,
                18,
                9
            ],
            "min" : [
                -10,
                18,
                -9
            ],
            "type" : "VEC3"
        },
        {
            "bufferView" : 21,
            "componentType" : 5126,
            "count" : 4,
            "type" : "VEC3"
        },
        {
            "bufferView" : 22,
            "componentType" : 5126,
            "count" : 4,
            "type" : "VEC2"
        },
        {
            "bufferView" : 23,
            "componentType" : 5126,
            "count" : 4,
            "type" : "VEC2"
        },
        {
            "bufferView" : 24,
            "componentType" : 5123,
            "count" : 6,
            "type" : "SCALAR"
        }
    ],
    "bufferViews" : [
        {
            "buffer" : 0,
            "byteLength" : 23172,
            "byteOffset" : 0
        },
        {
            "buffer" : 0,
            "byteLength" : 23172,
            "byteOffset" : 23172
        },
        {
            "buffer" : 0,
            "byteLength" : 15448,
            "byteOffset" : 46344
        },
        {
            "buffer" : 0,
            "byteLength" : 15448,
            "byteOffset" : 61792
        },
        {
            "buffer" : 0,
            "byteLength" : 5472,
            "byteOffset" : 77240
        },
        {
            "buffer" : 0,
            "byteLength" : 14832,
            "byteOffset" : 82712
        },
        {
            "buffer" : 0,
            "byteLength" : 14832,
            "byteOffset" : 97544
        },
        {
            "buffer" : 0,
            "byteLength" : 9888,
            "byteOffset" : 112376
        },
        {
            "buffer" : 0,
            "byteLength" : 9888,
            "byteOffset" : 122264
        },
        {
            "buffer" : 0,
            "byteLength" : 2892,
            "byteOffset" : 132152
        },
        {
            "buffer" : 0,
            "byteLength" : 840,
            "byteOffset" : 135044
        },
        {
            "buffer" : 0,
            "byteLength" : 840,
            "byteOffset" : 135884
        },
        {
            "buffer" : 0,
            "byteLength" : 560,
            "byteOffset" : 136724
        },
        {
            "buffer" : 0,
            "byteLength" : 560,
            "byteOffset" : 137284
        },
        {
            "buffer" : 0,
            "byteLength" : 204,
            "byteOffset" : 137844
        },
        {
            "buffer" : 0,
            "byteLength" : 264,
            "byteOffset" : 138048
        },
        {
            "buffer" : 0,
            "byteLength" : 264,
            "byteOffset" : 138312
        },
        {
            "buffer" : 0,
            "byteLength" : 176,
            "byteOffset" : 138576
        },
        {
            "buffer" : 0,
            "byteLength" : 176,
            "byteOffset" : 138752
        },
        {
            "buffer" : 0,
            "byteLength" : 72,
            "byteOffset" : 138928
        },
        {
            "buffer" : 0,
            "byteLength" : 48,
            "byteOffset" : 139000
        },
        {
            "buffer" : 0,
            "byteLength" : 48,
            "byteOffset" : 139048
        },
        {
            "buffer" : 0,
            "byteLength" : 32,
            "byteOffset" : 139096
        },
        {
            "buffer" : 0,
            "byteLength" : 32,
            "byteOffset" : 139128
        },
        {
            "buffer" : 0,
            "byteLength" : 12,
            "byteOffset" : 139160
        }
    ],
    "samplers" : [
        {
            "magFilter" : 9729,
            "minFilter" : 9987
        }
    ],
    "buffers" : [
        {
            "byteLength" : 139172,
            "uri" : "factory1.bin"
        }
    ]
}
