{
    "asset" : {
        "generator" : "Khronos glTF Blender I/O v3.2.40",
        "version" : "2.0"
    },
    "scene" : 0,
    "scenes" : [
        {
            "name" : "Scene",
            "nodes" : [
                0
            ]
        }
    ],
    "nodes" : [
        {
            "mesh" : 0,
            "name" : "huston1"
        }
    ],
    "materials" : [
        {
            "extras" : {
                "dirt" : 1
            },
            "name" : "Material 1 (lemt.png)",
            "pbrMetallicRoughness" : {
                "baseColorTexture" : {
                    "index" : 0
                },
                "metallicFactor" : 0
            }
        },
        {
            "extras" : {
                "dirt" : 1
            },
            "name" : "Material 2 (roller.png)",
            "pbrMetallicRoughness" : {
                "baseColorTexture" : {
                    "index" : 1
                },
                "metallicFactor" : 0
            }
        },
        {
            "extras" : {
                "dirt" : 1
            },
            "name" : "Material 3 (subm.png)",
            "pbrMetallicRoughness" : {
                "baseColorTexture" : {
                    "index" : 2
                },
                "metallicFactor" : 0
            }
        },
        {
            "doubleSided" : true,
            "extras" : {
                "dirt" : 1,
                "doubleSided" : 1
            },
            "name" : "Material 4 (lemt.png)",
            "pbrMetallicRoughness" : {
                "baseColorTexture" : {
                    "index" : 3
                },
                "metallicFactor" : 0
            }
        },
        {
            "extras" : {
                "dirt" : 1
            },
            "name" : "Material 5 (factory.png)",
            "pbrMetallicRoughness" : {
                "baseColorTexture" : {
                    "index" : 4
                },
                "metallicFactor" : 0
            }
        },
        {
            "extras" : {
                "dirt" : 1
            },
            "name" : "Material 6 (convert.png)",
            "pbrMetallicRoughness" : {
                "baseColorTexture" : {
                    "index" : 5
                },
                "metallicFactor" : 0
            }
        },
        {
            "extras" : {
                "dirt" : 1,
                "transparency" : 3
            },
            "name" : "Material 7 (roller.png)",
            "pbrMetallicRoughness" : {
                "baseColorTexture" : {
                    "index" : 6
                },
                "metallicFactor" : 0
            }
        },
        {
            "extras" : {
                "dirt" : 1
            },
            "name" : "Material 8 (search.png)",
            "pbrMetallicRoughness" : {
                "baseColorTexture" : {
                    "index" : 7
                },
                "metallicFactor" : 0
            }
        }
    ],
    "meshes" : [
        {
            "name" : "huston1",
            "primitives" : [
                {
                    "attributes" : {
                        "POSITION" : 0,
                        "NORMAL" : 1,
                        "TEXCOORD_0" : 2,
                        "TEXCOORD_1" : 3
                    },
                    "indices" : 4,
                    "material" : 0
                },
                {
                    "attributes" : {
                        "POSITION" : 5,
                        "NORMAL" : 6,
                        "TEXCOORD_0" : 7,
                        "TEXCOORD_1" : 8
                    },
                    "indices" : 9,
                    "material" : 1
                },
                {
                    "attributes" : {
                        "POSITION" : 10,
                        "NORMAL" : 11,
                        "TEXCOORD_0" : 12,
                        "TEXCOORD_1" : 13
                    },
                    "indices" : 14,
                    "material" : 2
                },
                {
                    "attributes" : {
                        "POSITION" : 15,
                        "NORMAL" : 16,
                        "TEXCOORD_0" : 17,
                        "TEXCOORD_1" : 18
                    },
                    "indices" : 19,
                    "material" : 3
                },
                {
                    "attributes" : {
                        "POSITION" : 20,
                        "NORMAL" : 21,
                        "TEXCOORD_0" : 22,
                        "TEXCOORD_1" : 23
                    },
                    "indices" : 24,
                    "material" : 4
                },
                {
                    "attributes" : {
                        "POSITION" : 25,
                        "NORMAL" : 26,
                        "TEXCOORD_0" : 27,
                        "TEXCOORD_1" : 28
                    },
                    "indices" : 29,
                    "material" : 5
                },
                {
                    "attributes" : {
                        "POSITION" : 30,
                        "NORMAL" : 31,
                        "TEXCOORD_0" : 32,
                        "TEXCOORD_1" : 33
                    },
                    "indices" : 34,
                    "material" : 6
                },
                {
                    "attributes" : {
                        "POSITION" : 35,
                        "NORMAL" : 36,
                        "TEXCOORD_0" : 37,
                        "TEXCOORD_1" : 38
                    },
                    "indices" : 39,
                    "material" : 7
                }
            ]
        }
    ],
    "textures" : [
        {
            "sampler" : 0,
            "source" : 0
        },
        {
            "sampler" : 0,
            "source" : 1
        },
        {
            "sampler" : 0,
            "source" : 2
        },
        {
            "sampler" : 0,
            "source" : 0
        },
        {
            "sampler" : 0,
            "source" : 3
        },
        {
            "sampler" : 0,
            "source" : 4
        },
        {
            "sampler" : 0,
            "source" : 1
        },
        {
            "sampler" : 0,
            "source" : 5
        }
    ],
    "images" : [
        {
            "mimeType" : "image/png",
            "name" : "lemt",
            "uri" : "lemt.png"
        },
        {
            "mimeType" : "image/png",
            "name" : "roller",
            "uri" : "roller.png"
        },
        {
            "mimeType" : "image/png",
            "name" : "subm",
            "uri" : "subm.png"
        },
        {
            "mimeType" : "image/png",
            "name" : "factory",
            "uri" : "factory.png"
        },
        {
            "mimeType" : "image/png",
            "name" : "convert",
            "uri" : "convert.png"
        },
        {
            "mimeType" : "image/png",
            "name" : "search",
            "uri" : "search.png"
        }
    ],
    "accessors" : [
        {
            "bufferView" : 0,
            "componentType" : 5126,
            "count" : 644,
            "max" : [
                30,
                20,
                65
            ],
            "min" : [
                -30,
                -2,
                -65
            ],
            "type" : "VEC3"
        },
        {
            "bufferView" : 1,
            "componentType" : 5126,
            "count" : 644,
            "type" : "VEC3"
        },
        {
            "bufferView" : 2,
            "componentType" : 5126,
            "count" : 644,
            "type" : "VEC2"
        },
        {
            "bufferView" : 3,
            "componentType" : 5126,
            "count" : 644,
            "type" : "VEC2"
        },
        {
            "bufferView" : 4,
            "componentType" : 5123,
            "count" : 1044,
            "type" : "SCALAR"
        },
        {
            "bufferView" : 5,
            "componentType" : 5126,
            "count" : 2228,
            "max" : [
                10.140621185302734,
                18,
                55
            ],
            "min" : [
                -10,
                -2.000000476837158,
                -31.393224716186523
            ],
            "type" : "VEC3"
        },
        {
            "bufferView" : 6,
            "componentType" : 5126,
            "count" : 2228,
            "type" : "VEC3"
        },
        {
            "bufferView" : 7,
            "componentType" : 5126,
            "count" : 2228,
            "type" : "VEC2"
        },
        {
            "bufferView" : 8,
            "componentType" : 5126,
            "count" : 2228,
            "type" : "VEC2"
        },
        {
            "bufferView" : 9,
            "componentType" : 5123,
            "count" : 7806,
            "type" : "SCALAR"
        },
        {
            "bufferView" : 10,
            "componentType" : 5126,
            "count" : 80,
            "max" : [
                -5,
                18,
                9.999999046325684
            ],
            "min" : [
                -10.000000953674316,
                -2.000002145767212,
                -55
            ],
            "type" : "VEC3"
        },
        {
            "bufferView" : 11,
            "componentType" : 5126,
            "count" : 80,
            "type" : "VEC3"
        },
        {
            "bufferView" : 12,
            "componentType" : 5126,
            "count" : 80,
            "type" : "VEC2"
        },
        {
            "bufferView" : 13,
            "componentType" : 5126,
            "count" : 80,
            "type" : "VEC2"
        },
        {
            "bufferView" : 14,
            "componentType" : 5123,
            "count" : 120,
            "type" : "SCALAR"
        },
        {
            "bufferView" : 15,
            "componentType" : 5126,
            "count" : 26,
            "max" : [
                20,
                18.000001907348633,
                55
            ],
            "min" : [
                -20,
                18,
                -55
            ],
            "type" : "VEC3"
        },
        {
            "bufferView" : 16,
            "componentType" : 5126,
            "count" : 26,
            "type" : "VEC3"
        },
        {
            "bufferView" : 17,
            "componentType" : 5126,
            "count" : 26,
            "type" : "VEC2"
        },
        {
            "bufferView" : 18,
            "componentType" : 5126,
            "count" : 26,
            "type" : "VEC2"
        },
        {
            "bufferView" : 19,
            "componentType" : 5123,
            "count" : 60,
            "type" : "SCALAR"
        },
        {
            "bufferView" : 20,
            "componentType" : 5126,
            "count" : 32,
            "max" : [
                30,
                18.000001907348633,
                55
            ],
            "min" : [
                -30,
                -2,
                -55
            ],
            "type" : "VEC3"
        },
        {
            "bufferView" : 21,
            "componentType" : 5126,
            "count" : 32,
            "type" : "VEC3"
        },
        {
            "bufferView" : 22,
            "componentType" : 5126,
            "count" : 32,
            "type" : "VEC2"
        },
        {
            "bufferView" : 23,
            "componentType" : 5126,
            "count" : 32,
            "type" : "VEC2"
        },
        {
            "bufferView" : 24,
            "componentType" : 5123,
            "count" : 60,
            "type" : "SCALAR"
        },
        {
            "bufferView" : 25,
            "componentType" : 5126,
            "count" : 4149,
            "max" : [
                12.750001907348633,
                39,
                -17.24999237060547
            ],
            "min" : [
                -12.750001907348633,
                18,
                -42.749996185302734
            ],
            "type" : "VEC3"
        },
        {
            "bufferView" : 26,
            "componentType" : 5126,
            "count" : 4149,
            "type" : "VEC3"
        },
        {
            "bufferView" : 27,
            "componentType" : 5126,
            "count" : 4149,
            "type" : "VEC2"
        },
        {
            "bufferView" : 28,
            "componentType" : 5126,
            "count" : 4149,
            "type" : "VEC2"
        },
        {
            "bufferView" : 29,
            "componentType" : 5123,
            "count" : 9192,
            "type" : "SCALAR"
        },
        {
            "bufferView" : 30,
            "componentType" : 5126,
            "count" : 32,
            "max" : [
                24.5,
                16.000001907348633,
                52
            ],
            "min" : [
                15,
                4.999997615814209,
                -50
            ],
            "type" : "VEC3"
        },
        {
            "bufferView" : 31,
            "componentType" : 5126,
            "count" : 32,
            "type" : "VEC3"
        },
        {
            "bufferView" : 32,
            "componentType" : 5126,
            "count" : 32,
            "type" : "VEC2"
        },
        {
            "bufferView" : 33,
            "componentType" : 5126,
            "count" : 32,
            "type" : "VEC2"
        },
        {
            "bufferView" : 34,
            "componentType" : 5123,
            "count" : 48,
            "type" : "SCALAR"
        },
        {
            "bufferView" : 35,
            "componentType" : 5126,
            "count" : 84,
            "max" : [
                12.777799606323242,
                16,
                48
            ],
            "min" : [
                -8,
                5,
                -53.777801513671875
            ],
            "type" : "VEC3"
        },
        {
            "bufferView" : 36,
            "componentType" : 5126,
            "count" : 84,
            "type" : "VEC3"
        },
        {
            "bufferView" : 37,
            "componentType" : 5126,
            "count" : 84,
            "type" : "VEC2"
        },
        {
            "bufferView" : 38,
            "componentType" : 5126,
            "count" : 84,
            "type" : "VEC2"
        },
        {
            "bufferView" : 39,
            "componentType" : 5123,
            "count" : 126,
            "type" : "SCALAR"
        }
    ],
    "bufferViews" : [
        {
            "buffer" : 0,
            "byteLength" : 7728,
            "byteOffset" : 0
        },
        {
            "buffer" : 0,
            "byteLength" : 7728,
            "byteOffset" : 7728
        },
        {
            "buffer" : 0,
            "byteLength" : 5152,
            "byteOffset" : 15456
        },
        {
            "buffer" : 0,
            "byteLength" : 5152,
            "byteOffset" : 20608
        },
        {
            "buffer" : 0,
            "byteLength" : 2088,
            "byteOffset" : 25760
        },
        {
            "buffer" : 0,
            "byteLength" : 26736,
            "byteOffset" : 27848
        },
        {
            "buffer" : 0,
            "byteLength" : 26736,
            "byteOffset" : 54584
        },
        {
            "buffer" : 0,
            "byteLength" : 17824,
            "byteOffset" : 81320
        },
        {
            "buffer" : 0,
            "byteLength" : 17824,
            "byteOffset" : 99144
        },
        {
            "buffer" : 0,
            "byteLength" : 15612,
            "byteOffset" : 116968
        },
        {
            "buffer" : 0,
            "byteLength" : 960,
            "byteOffset" : 132580
        },
        {
            "buffer" : 0,
            "byteLength" : 960,
            "byteOffset" : 133540
        },
        {
            "buffer" : 0,
            "byteLength" : 640,
            "byteOffset" : 134500
        },
        {
            "buffer" : 0,
            "byteLength" : 640,
            "byteOffset" : 135140
        },
        {
            "buffer" : 0,
            "byteLength" : 240,
            "byteOffset" : 135780
        },
        {
            "buffer" : 0,
            "byteLength" : 312,
            "byteOffset" : 136020
        },
        {
            "buffer" : 0,
            "byteLength" : 312,
            "byteOffset" : 136332
        },
        {
            "buffer" : 0,
            "byteLength" : 208,
            "byteOffset" : 136644
        },
        {
            "buffer" : 0,
            "byteLength" : 208,
            "byteOffset" : 136852
        },
        {
            "buffer" : 0,
            "byteLength" : 120,
            "byteOffset" : 137060
        },
        {
            "buffer" : 0,
            "byteLength" : 384,
            "byteOffset" : 137180
        },
        {
            "buffer" : 0,
            "byteLength" : 384,
            "byteOffset" : 137564
        },
        {
            "buffer" : 0,
            "byteLength" : 256,
            "byteOffset" : 137948
        },
        {
            "buffer" : 0,
            "byteLength" : 256,
            "byteOffset" : 138204
        },
        {
            "buffer" : 0,
            "byteLength" : 120,
            "byteOffset" : 138460
        },
        {
            "buffer" : 0,
            "byteLength" : 49788,
            "byteOffset" : 138580
        },
        {
            "buffer" : 0,
            "byteLength" : 49788,
            "byteOffset" : 188368
        },
        {
            "buffer" : 0,
            "byteLength" : 33192,
            "byteOffset" : 238156
        },
        {
            "buffer" : 0,
            "byteLength" : 33192,
            "byteOffset" : 271348
        },
        {
            "buffer" : 0,
            "byteLength" : 18384,
            "byteOffset" : 304540
        },
        {
            "buffer" : 0,
            "byteLength" : 384,
            "byteOffset" : 322924
        },
        {
            "buffer" : 0,
            "byteLength" : 384,
            "byteOffset" : 323308
        },
        {
            "buffer" : 0,
            "byteLength" : 256,
            "byteOffset" : 323692
        },
        {
            "buffer" : 0,
            "byteLength" : 256,
            "byteOffset" : 323948
        },
        {
            "buffer" : 0,
            "byteLength" : 96,
            "byteOffset" : 324204
        },
        {
            "buffer" : 0,
            "byteLength" : 1008,
            "byteOffset" : 324300
        },
        {
            "buffer" : 0,
            "byteLength" : 1008,
            "byteOffset" : 325308
        },
        {
            "buffer" : 0,
            "byteLength" : 672,
            "byteOffset" : 326316
        },
        {
            "buffer" : 0,
            "byteLength" : 672,
            "byteOffset" : 326988
        },
        {
            "buffer" : 0,
            "byteLength" : 252,
            "byteOffset" : 327660
        }
    ],
    "samplers" : [
        {
            "magFilter" : 9729,
            "minFilter" : 9987
        }
    ],
    "buffers" : [
        {
            "byteLength" : 327912,
            "uri" : "huston1.bin"
        }
    ]
}
