{
    "asset" : {
        "generator" : "Khronos glTF Blender I/O v3.2.40",
        "version" : "2.0"
    },
    "scene" : 0,
    "scenes" : [
        {
            "name" : "Scene",
            "nodes" : [
                0
            ]
        }
    ],
    "nodes" : [
        {
            "mesh" : 0,
            "name" : "info2",
            "translation" : [
                0,
                5,
                0
            ]
        }
    ],
    "materials" : [
        {
            "extras" : {
                "dirt" : 1
            },
            "name" : "Material 1 (derrick.png)",
            "pbrMetallicRoughness" : {
                "baseColorTexture" : {
                    "index" : 0
                },
                "metallicFactor" : 0
            }
        }
    ],
    "meshes" : [
        {
            "name" : "info2",
            "primitives" : [
                {
                    "attributes" : {
                        "POSITION" : 0,
                        "NORMAL" : 1,
                        "TEXCOORD_0" : 2,
                        "TEXCOORD_1" : 3
                    },
                    "indices" : 4,
                    "material" : 0
                }
            ]
        }
    ],
    "textures" : [
        {
            "sampler" : 0,
            "source" : 0
        }
    ],
    "images" : [
        {
            "mimeType" : "image/png",
            "name" : "derrick",
            "uri" : "derrick.png"
        }
    ],
    "accessors" : [
        {
            "bufferView" : 0,
            "componentType" : 5126,
            "count" : 1533,
            "max" : [
                1.5499993562698364,
                6,
                1.5499999523162842
            ],
            "min" : [
                -1.550000548362732,
                0,
                -1.5499999523162842
            ],
            "type" : "VEC3"
        },
        {
            "bufferView" : 1,
            "componentType" : 5126,
            "count" : 1533,
            "type" : "VEC3"
        },
        {
            "bufferView" : 2,
            "componentType" : 5126,
            "count" : 1533,
            "type" : "VEC2"
        },
        {
            "bufferView" : 3,
            "componentType" : 5126,
            "count" : 1533,
            "type" : "VEC2"
        },
        {
            "bufferView" : 4,
            "componentType" : 5123,
            "count" : 3840,
            "type" : "SCALAR"
        }
    ],
    "bufferViews" : [
        {
            "buffer" : 0,
            "byteLength" : 18396,
            "byteOffset" : 0
        },
        {
            "buffer" : 0,
            "byteLength" : 18396,
            "byteOffset" : 18396
        },
        {
            "buffer" : 0,
            "byteLength" : 12264,
            "byteOffset" : 36792
        },
        {
            "buffer" : 0,
            "byteLength" : 12264,
            "byteOffset" : 49056
        },
        {
            "buffer" : 0,
            "byteLength" : 7680,
            "byteOffset" : 61320
        }
    ],
    "samplers" : [
        {
            "magFilter" : 9729,
            "minFilter" : 9987
        }
    ],
    "buffers" : [
        {
            "byteLength" : 69000,
            "uri" : "info2.bin"
        }
    ]
}
